0, 0, Header, 1, 13, 96
1, 0, Start_track
1, 0, Time_signature, 4, 2, 24, 8
1, 0, Tempo, 428571
1, 0, End_track
2, 0, Start_track
2, 0, End_track
3, 0, Start_track
3, 0, Title_t, "SOUND Canvas VA [64bit]"
3, 0, End_track
4, 0, Start_track
4, 0, Title_t, "SGP2"
4, 0, End_track
5, 0, Start_track
5, 0, Title_t, "MIDI Out #2"
5, 0, Control_c, 9, 10, 64
5, 0, Control_c, 9, 7, 100
5, 0, Pitch_bend_c, 9, 8192
5, 0, Control_c, 9, 101, 0
5, 0, Control_c, 9, 100, 0
5, 0, Control_c, 9, 6, 12
5, 0, Control_c, 9, 0, 0
5, 0, Control_c, 9, 32, 3
5, 0, Control_c, 9, 10, 64
5, 0, Control_c, 9, 7, 100
5, 0, Pitch_bend_c, 9, 8192
5, 0, Program_c, 9, 30
5, 0, Control_c, 9, 101, 0
5, 0, Control_c, 9, 100, 0
5, 0, Control_c, 9, 6, 12
5, 0, Control_c, 9, 0, 0
5, 0, Control_c, 9, 32, 3
5, 0, Control_c, 9, 10, 64
5, 0, Control_c, 9, 7, 100
5, 0, Pitch_bend_c, 9, 8192
5, 0, Program_c, 9, 30
5, 0, Note_on_c, 9, 36, 100
5, 0, Note_on_c, 9, 38, 100
5, 8, Note_off_c, 9, 36, 64
5, 8, Note_off_c, 9, 38, 64
5, 24, Note_on_c, 9, 38, 100
5, 32, Note_off_c, 9, 38, 64
5, 48, Note_on_c, 9, 38, 100
5, 56, Note_off_c, 9, 38, 64
5, 72, Note_on_c, 9, 38, 100
5, 80, Note_off_c, 9, 38, 64
5, 96, Note_on_c, 9, 36, 100
5, 96, Note_on_c, 9, 38, 100
5, 104, Note_off_c, 9, 38, 64
5, 104, Note_off_c, 9, 36, 64
5, 120, Note_on_c, 9, 38, 100
5, 128, Note_off_c, 9, 38, 64
5, 144, Note_on_c, 9, 38, 100
5, 152, Note_off_c, 9, 38, 64
5, 168, Note_on_c, 9, 38, 100
5, 176, Note_off_c, 9, 38, 64
5, 192, Note_on_c, 9, 36, 100
5, 192, Note_on_c, 9, 38, 100
5, 200, Note_off_c, 9, 38, 64
5, 200, Note_off_c, 9, 36, 64
5, 216, Note_on_c, 9, 38, 100
5, 224, Note_off_c, 9, 38, 64
5, 240, Note_on_c, 9, 38, 100
5, 248, Note_off_c, 9, 38, 64
5, 264, Note_on_c, 9, 38, 100
5, 272, Note_off_c, 9, 38, 64
5, 288, Note_on_c, 9, 36, 100
5, 288, Note_on_c, 9, 38, 100
5, 296, Note_off_c, 9, 38, 64
5, 296, Note_off_c, 9, 36, 64
5, 312, Note_on_c, 9, 38, 100
5, 320, Note_off_c, 9, 38, 64
5, 336, Note_on_c, 9, 38, 100
5, 344, Note_off_c, 9, 38, 64
5, 360, Note_on_c, 9, 38, 100
5, 368, Note_off_c, 9, 38, 64
5, 384, Note_on_c, 9, 49, 100
5, 384, Note_on_c, 9, 36, 100
5, 384, Note_on_c, 9, 38, 100
5, 392, Note_off_c, 9, 38, 64
5, 392, Note_off_c, 9, 36, 64
5, 392, Note_off_c, 9, 49, 64
5, 408, Note_on_c, 9, 38, 100
5, 416, Note_off_c, 9, 38, 64
5, 432, Note_on_c, 9, 38, 100
5, 440, Note_off_c, 9, 38, 64
5, 456, Note_on_c, 9, 38, 100
5, 464, Note_off_c, 9, 38, 64
5, 480, Note_on_c, 9, 49, 100
5, 480, Note_on_c, 9, 36, 100
5, 480, Note_on_c, 9, 38, 100
5, 488, Note_off_c, 9, 38, 64
5, 488, Note_off_c, 9, 36, 64
5, 488, Note_off_c, 9, 49, 64
5, 504, Note_on_c, 9, 38, 100
5, 512, Note_off_c, 9, 38, 64
5, 528, Note_on_c, 9, 38, 100
5, 536, Note_off_c, 9, 38, 64
5, 552, Note_on_c, 9, 38, 100
5, 560, Note_off_c, 9, 38, 64
5, 576, Note_on_c, 9, 49, 100
5, 576, Note_on_c, 9, 36, 100
5, 576, Note_on_c, 9, 38, 100
5, 584, Note_off_c, 9, 38, 64
5, 584, Note_off_c, 9, 36, 64
5, 584, Note_off_c, 9, 49, 64
5, 600, Note_on_c, 9, 38, 100
5, 608, Note_off_c, 9, 38, 64
5, 624, Note_on_c, 9, 38, 100
5, 632, Note_off_c, 9, 38, 64
5, 648, Note_on_c, 9, 38, 100
5, 656, Note_off_c, 9, 38, 64
5, 672, Note_on_c, 9, 49, 100
5, 672, Note_on_c, 9, 36, 100
5, 672, Note_on_c, 9, 38, 100
5, 680, Note_off_c, 9, 38, 64
5, 680, Note_off_c, 9, 36, 64
5, 680, Note_off_c, 9, 49, 64
5, 696, Note_on_c, 9, 38, 100
5, 704, Note_off_c, 9, 38, 64
5, 720, Note_on_c, 9, 38, 100
5, 728, Note_off_c, 9, 38, 64
5, 744, Note_on_c, 9, 38, 100
5, 752, Note_off_c, 9, 38, 64
5, 768, Note_on_c, 9, 36, 100
5, 776, Note_off_c, 9, 36, 64
5, 816, Note_on_c, 9, 46, 100
5, 824, Note_off_c, 9, 46, 64
5, 864, Note_on_c, 9, 36, 100
5, 864, Note_on_c, 9, 38, 100
5, 864, Note_on_c, 9, 39, 100
5, 872, Note_off_c, 9, 39, 64
5, 872, Note_off_c, 9, 38, 64
5, 872, Note_off_c, 9, 36, 64
5, 912, Note_on_c, 9, 46, 100
5, 920, Note_off_c, 9, 46, 64
5, 960, Note_on_c, 9, 36, 100
5, 968, Note_off_c, 9, 36, 64
5, 1008, Note_on_c, 9, 46, 100
5, 1016, Note_off_c, 9, 46, 64
5, 1056, Note_on_c, 9, 38, 100
5, 1056, Note_on_c, 9, 39, 100
5, 1056, Note_on_c, 9, 36, 100
5, 1064, Note_off_c, 9, 36, 64
5, 1064, Note_off_c, 9, 39, 64
5, 1064, Note_off_c, 9, 38, 64
5, 1104, Note_on_c, 9, 46, 100
5, 1112, Note_off_c, 9, 46, 64
5, 1152, Note_on_c, 9, 36, 100
5, 1160, Note_off_c, 9, 36, 64
5, 1200, Note_on_c, 9, 46, 100
5, 1208, Note_off_c, 9, 46, 64
5, 1248, Note_on_c, 9, 36, 100
5, 1248, Note_on_c, 9, 38, 100
5, 1248, Note_on_c, 9, 39, 100
5, 1256, Note_off_c, 9, 39, 64
5, 1256, Note_off_c, 9, 38, 64
5, 1256, Note_off_c, 9, 36, 64
5, 1296, Note_on_c, 9, 46, 100
5, 1304, Note_off_c, 9, 46, 64
5, 1344, Note_on_c, 9, 36, 100
5, 1352, Note_off_c, 9, 36, 64
5, 1392, Note_on_c, 9, 46, 100
5, 1400, Note_off_c, 9, 46, 64
5, 1440, Note_on_c, 9, 38, 100
5, 1440, Note_on_c, 9, 39, 100
5, 1440, Note_on_c, 9, 36, 100
5, 1448, Note_off_c, 9, 36, 64
5, 1448, Note_off_c, 9, 39, 64
5, 1448, Note_off_c, 9, 38, 64
5, 1488, Note_on_c, 9, 46, 100
5, 1496, Note_off_c, 9, 46, 64
5, 1536, Note_on_c, 9, 36, 100
5, 1544, Note_off_c, 9, 36, 64
5, 1584, Note_on_c, 9, 46, 100
5, 1592, Note_off_c, 9, 46, 64
5, 1632, Note_on_c, 9, 36, 100
5, 1632, Note_on_c, 9, 38, 100
5, 1632, Note_on_c, 9, 39, 100
5, 1640, Note_off_c, 9, 39, 64
5, 1640, Note_off_c, 9, 38, 64
5, 1640, Note_off_c, 9, 36, 64
5, 1680, Note_on_c, 9, 46, 100
5, 1688, Note_off_c, 9, 46, 64
5, 1728, Note_on_c, 9, 36, 100
5, 1736, Note_off_c, 9, 36, 64
5, 1776, Note_on_c, 9, 46, 100
5, 1784, Note_off_c, 9, 46, 64
5, 1824, Note_on_c, 9, 38, 100
5, 1824, Note_on_c, 9, 39, 100
5, 1824, Note_on_c, 9, 36, 100
5, 1832, Note_off_c, 9, 36, 64
5, 1832, Note_off_c, 9, 39, 64
5, 1832, Note_off_c, 9, 38, 64
5, 1872, Note_on_c, 9, 46, 100
5, 1880, Note_off_c, 9, 46, 64
5, 1920, Note_on_c, 9, 36, 100
5, 1928, Note_off_c, 9, 36, 64
5, 1968, Note_on_c, 9, 46, 100
5, 1976, Note_off_c, 9, 46, 64
5, 2016, Note_on_c, 9, 36, 100
5, 2016, Note_on_c, 9, 38, 100
5, 2016, Note_on_c, 9, 39, 100
5, 2024, Note_off_c, 9, 39, 64
5, 2024, Note_off_c, 9, 38, 64
5, 2024, Note_off_c, 9, 36, 64
5, 2064, Note_on_c, 9, 46, 100
5, 2072, Note_off_c, 9, 46, 64
5, 2112, Note_on_c, 9, 36, 100
5, 2120, Note_off_c, 9, 36, 64
5, 2160, Note_on_c, 9, 46, 100
5, 2168, Note_off_c, 9, 46, 64
5, 2208, Note_on_c, 9, 38, 100
5, 2208, Note_on_c, 9, 39, 100
5, 2208, Note_on_c, 9, 36, 100
5, 2216, Note_off_c, 9, 36, 64
5, 2216, Note_off_c, 9, 39, 64
5, 2216, Note_off_c, 9, 38, 64
5, 2256, Note_on_c, 9, 46, 100
5, 2264, Note_off_c, 9, 46, 64
5, 2304, Note_on_c, 9, 36, 100
5, 2312, Note_off_c, 9, 36, 64
5, 2352, Note_on_c, 9, 46, 100
5, 2360, Note_off_c, 9, 46, 64
5, 2400, Note_on_c, 9, 36, 100
5, 2400, Note_on_c, 9, 38, 100
5, 2400, Note_on_c, 9, 39, 100
5, 2408, Note_off_c, 9, 39, 64
5, 2408, Note_off_c, 9, 38, 64
5, 2408, Note_off_c, 9, 36, 64
5, 2448, Note_on_c, 9, 46, 100
5, 2456, Note_off_c, 9, 46, 64
5, 2496, Note_on_c, 9, 36, 100
5, 2504, Note_off_c, 9, 36, 64
5, 2544, Note_on_c, 9, 46, 100
5, 2552, Note_off_c, 9, 46, 64
5, 2592, Note_on_c, 9, 38, 100
5, 2592, Note_on_c, 9, 39, 100
5, 2592, Note_on_c, 9, 36, 100
5, 2600, Note_off_c, 9, 36, 64
5, 2600, Note_off_c, 9, 39, 64
5, 2600, Note_off_c, 9, 38, 64
5, 2640, Note_on_c, 9, 46, 100
5, 2648, Note_off_c, 9, 46, 64
5, 2688, Note_on_c, 9, 36, 100
5, 2696, Note_off_c, 9, 36, 64
5, 2736, Note_on_c, 9, 46, 100
5, 2744, Note_off_c, 9, 46, 64
5, 2784, Note_on_c, 9, 36, 100
5, 2784, Note_on_c, 9, 38, 100
5, 2784, Note_on_c, 9, 39, 100
5, 2792, Note_off_c, 9, 39, 64
5, 2792, Note_off_c, 9, 38, 64
5, 2792, Note_off_c, 9, 36, 64
5, 2832, Note_on_c, 9, 46, 100
5, 2840, Note_off_c, 9, 46, 64
5, 2880, Note_on_c, 9, 36, 100
5, 2888, Note_off_c, 9, 36, 64
5, 2928, Note_on_c, 9, 46, 100
5, 2936, Note_off_c, 9, 46, 64
5, 2976, Note_on_c, 9, 38, 100
5, 2976, Note_on_c, 9, 39, 100
5, 2976, Note_on_c, 9, 36, 100
5, 2984, Note_off_c, 9, 36, 64
5, 2984, Note_off_c, 9, 39, 64
5, 2984, Note_off_c, 9, 38, 64
5, 3024, Note_on_c, 9, 46, 100
5, 3032, Note_off_c, 9, 46, 64
5, 3072, Note_on_c, 9, 36, 100
5, 3072, Note_on_c, 9, 38, 100
5, 3080, Note_off_c, 9, 38, 64
5, 3080, Note_off_c, 9, 36, 64
5, 3096, Note_on_c, 9, 38, 100
5, 3104, Note_off_c, 9, 38, 64
5, 3120, Note_on_c, 9, 46, 100
5, 3120, Note_on_c, 9, 38, 100
5, 3128, Note_off_c, 9, 46, 64
5, 3128, Note_off_c, 9, 38, 64
5, 3144, Note_on_c, 9, 38, 100
5, 3152, Note_off_c, 9, 38, 64
5, 3168, Note_on_c, 9, 39, 100
5, 3168, Note_on_c, 9, 36, 100
5, 3168, Note_on_c, 9, 38, 100
5, 3176, Note_off_c, 9, 38, 64
5, 3176, Note_off_c, 9, 36, 64
5, 3176, Note_off_c, 9, 39, 64
5, 3192, Note_on_c, 9, 38, 100
5, 3200, Note_off_c, 9, 38, 64
5, 3216, Note_on_c, 9, 46, 100
5, 3216, Note_on_c, 9, 38, 100
5, 3224, Note_off_c, 9, 46, 64
5, 3224, Note_off_c, 9, 38, 64
5, 3240, Note_on_c, 9, 38, 100
5, 3248, Note_off_c, 9, 38, 64
5, 3264, Note_on_c, 9, 36, 100
5, 3264, Note_on_c, 9, 38, 100
5, 3272, Note_off_c, 9, 38, 64
5, 3272, Note_off_c, 9, 36, 64
5, 3288, Note_on_c, 9, 38, 100
5, 3296, Note_off_c, 9, 38, 64
5, 3312, Note_on_c, 9, 46, 100
5, 3312, Note_on_c, 9, 38, 100
5, 3320, Note_off_c, 9, 46, 64
5, 3320, Note_off_c, 9, 38, 64
5, 3336, Note_on_c, 9, 38, 100
5, 3344, Note_off_c, 9, 38, 64
5, 3360, Note_on_c, 9, 39, 100
5, 3360, Note_on_c, 9, 36, 100
5, 3360, Note_on_c, 9, 38, 100
5, 3368, Note_off_c, 9, 38, 64
5, 3368, Note_off_c, 9, 36, 64
5, 3368, Note_off_c, 9, 39, 64
5, 3384, Note_on_c, 9, 38, 100
5, 3392, Note_off_c, 9, 38, 64
5, 3408, Note_on_c, 9, 46, 100
5, 3408, Note_on_c, 9, 38, 100
5, 3416, Note_off_c, 9, 46, 64
5, 3416, Note_off_c, 9, 38, 64
5, 3432, Note_on_c, 9, 38, 100
5, 3440, Note_off_c, 9, 38, 64
5, 3456, Note_on_c, 9, 36, 100
5, 3456, Note_on_c, 9, 38, 100
5, 3464, Note_off_c, 9, 38, 64
5, 3464, Note_off_c, 9, 36, 64
5, 3480, Note_on_c, 9, 38, 100
5, 3488, Note_off_c, 9, 38, 64
5, 3504, Note_on_c, 9, 46, 100
5, 3504, Note_on_c, 9, 38, 100
5, 3512, Note_off_c, 9, 46, 64
5, 3512, Note_off_c, 9, 38, 64
5, 3528, Note_on_c, 9, 38, 100
5, 3536, Note_off_c, 9, 38, 64
5, 3552, Note_on_c, 9, 39, 100
5, 3552, Note_on_c, 9, 36, 100
5, 3552, Note_on_c, 9, 38, 100
5, 3560, Note_off_c, 9, 38, 64
5, 3560, Note_off_c, 9, 36, 64
5, 3560, Note_off_c, 9, 39, 64
5, 3576, Note_on_c, 9, 38, 100
5, 3584, Note_off_c, 9, 38, 64
5, 3600, Note_on_c, 9, 46, 100
5, 3600, Note_on_c, 9, 38, 100
5, 3608, Note_off_c, 9, 46, 64
5, 3608, Note_off_c, 9, 38, 64
5, 3624, Note_on_c, 9, 38, 100
5, 3632, Note_off_c, 9, 38, 64
5, 3648, Note_on_c, 9, 36, 100
5, 3648, Note_on_c, 9, 38, 100
5, 3656, Note_off_c, 9, 38, 64
5, 3656, Note_off_c, 9, 36, 64
5, 3672, Note_on_c, 9, 38, 100
5, 3680, Note_off_c, 9, 38, 64
5, 3696, Note_on_c, 9, 46, 100
5, 3696, Note_on_c, 9, 38, 100
5, 3704, Note_off_c, 9, 46, 64
5, 3704, Note_off_c, 9, 38, 64
5, 3720, Note_on_c, 9, 38, 100
5, 3728, Note_off_c, 9, 38, 64
5, 3744, Note_on_c, 9, 39, 100
5, 3744, Note_on_c, 9, 36, 100
5, 3744, Note_on_c, 9, 38, 100
5, 3752, Note_off_c, 9, 38, 64
5, 3752, Note_off_c, 9, 36, 64
5, 3752, Note_off_c, 9, 39, 64
5, 3768, Note_on_c, 9, 38, 100
5, 3776, Note_off_c, 9, 38, 64
5, 3792, Note_on_c, 9, 46, 100
5, 3792, Note_on_c, 9, 38, 100
5, 3800, Note_off_c, 9, 46, 64
5, 3800, Note_off_c, 9, 38, 64
5, 3816, Note_on_c, 9, 38, 100
5, 3824, Note_off_c, 9, 38, 64
5, 3840, Note_on_c, 9, 36, 100
5, 3848, Note_off_c, 9, 36, 64
5, 3888, Note_on_c, 9, 46, 100
5, 3896, Note_off_c, 9, 46, 64
5, 3936, Note_on_c, 9, 36, 100
5, 3936, Note_on_c, 9, 38, 100
5, 3936, Note_on_c, 9, 39, 100
5, 3944, Note_off_c, 9, 39, 64
5, 3944, Note_off_c, 9, 38, 64
5, 3944, Note_off_c, 9, 36, 64
5, 3984, Note_on_c, 9, 46, 100
5, 3992, Note_off_c, 9, 46, 64
5, 4032, Note_on_c, 9, 36, 100
5, 4040, Note_off_c, 9, 36, 64
5, 4080, Note_on_c, 9, 46, 100
5, 4088, Note_off_c, 9, 46, 64
5, 4128, Note_on_c, 9, 38, 100
5, 4128, Note_on_c, 9, 39, 100
5, 4128, Note_on_c, 9, 36, 100
5, 4136, Note_off_c, 9, 36, 64
5, 4136, Note_off_c, 9, 39, 64
5, 4136, Note_off_c, 9, 38, 64
5, 4176, Note_on_c, 9, 46, 100
5, 4184, Note_off_c, 9, 46, 64
5, 4224, Note_on_c, 9, 36, 100
5, 4232, Note_off_c, 9, 36, 64
5, 4272, Note_on_c, 9, 46, 100
5, 4280, Note_off_c, 9, 46, 64
5, 4320, Note_on_c, 9, 36, 100
5, 4320, Note_on_c, 9, 38, 100
5, 4320, Note_on_c, 9, 39, 100
5, 4328, Note_off_c, 9, 39, 64
5, 4328, Note_off_c, 9, 38, 64
5, 4328, Note_off_c, 9, 36, 64
5, 4368, Note_on_c, 9, 46, 100
5, 4376, Note_off_c, 9, 46, 64
5, 4416, Note_on_c, 9, 36, 100
5, 4424, Note_off_c, 9, 36, 64
5, 4464, Note_on_c, 9, 46, 100
5, 4472, Note_off_c, 9, 46, 64
5, 4512, Note_on_c, 9, 38, 100
5, 4512, Note_on_c, 9, 39, 100
5, 4512, Note_on_c, 9, 36, 100
5, 4520, Note_off_c, 9, 36, 64
5, 4520, Note_off_c, 9, 39, 64
5, 4520, Note_off_c, 9, 38, 64
5, 4560, Note_on_c, 9, 46, 100
5, 4568, Note_off_c, 9, 46, 64
5, 4608, Note_on_c, 9, 36, 100
5, 4616, Note_off_c, 9, 36, 64
5, 4656, Note_on_c, 9, 46, 100
5, 4664, Note_off_c, 9, 46, 64
5, 4704, Note_on_c, 9, 36, 100
5, 4704, Note_on_c, 9, 38, 100
5, 4704, Note_on_c, 9, 39, 100
5, 4712, Note_off_c, 9, 39, 64
5, 4712, Note_off_c, 9, 38, 64
5, 4712, Note_off_c, 9, 36, 64
5, 4752, Note_on_c, 9, 46, 100
5, 4760, Note_off_c, 9, 46, 64
5, 4800, Note_on_c, 9, 36, 100
5, 4808, Note_off_c, 9, 36, 64
5, 4848, Note_on_c, 9, 46, 100
5, 4856, Note_off_c, 9, 46, 64
5, 4896, Note_on_c, 9, 38, 100
5, 4896, Note_on_c, 9, 39, 100
5, 4896, Note_on_c, 9, 36, 100
5, 4904, Note_off_c, 9, 36, 64
5, 4904, Note_off_c, 9, 39, 64
5, 4904, Note_off_c, 9, 38, 64
5, 4944, Note_on_c, 9, 46, 100
5, 4952, Note_off_c, 9, 46, 64
5, 4992, Note_on_c, 9, 36, 100
5, 5000, Note_off_c, 9, 36, 64
5, 5040, Note_on_c, 9, 46, 100
5, 5048, Note_off_c, 9, 46, 64
5, 5088, Note_on_c, 9, 36, 100
5, 5088, Note_on_c, 9, 38, 100
5, 5088, Note_on_c, 9, 39, 100
5, 5096, Note_off_c, 9, 39, 64
5, 5096, Note_off_c, 9, 38, 64
5, 5096, Note_off_c, 9, 36, 64
5, 5136, Note_on_c, 9, 46, 100
5, 5144, Note_off_c, 9, 46, 64
5, 5184, Note_on_c, 9, 36, 100
5, 5192, Note_off_c, 9, 36, 64
5, 5232, Note_on_c, 9, 46, 100
5, 5240, Note_off_c, 9, 46, 64
5, 5280, Note_on_c, 9, 38, 100
5, 5280, Note_on_c, 9, 39, 100
5, 5280, Note_on_c, 9, 36, 100
5, 5288, Note_off_c, 9, 36, 64
5, 5288, Note_off_c, 9, 39, 64
5, 5288, Note_off_c, 9, 38, 64
5, 5328, Note_on_c, 9, 46, 100
5, 5336, Note_off_c, 9, 46, 64
5, 5376, Note_on_c, 9, 36, 100
5, 5384, Note_off_c, 9, 36, 64
5, 5424, Note_on_c, 9, 46, 100
5, 5432, Note_off_c, 9, 46, 64
5, 5472, Note_on_c, 9, 36, 100
5, 5480, Note_off_c, 9, 36, 64
5, 5520, Note_on_c, 9, 46, 100
5, 5528, Note_off_c, 9, 46, 64
5, 5568, Note_on_c, 9, 36, 100
5, 5576, Note_off_c, 9, 36, 64
5, 5616, Note_on_c, 9, 46, 100
5, 5624, Note_off_c, 9, 46, 64
5, 5664, Note_on_c, 9, 36, 100
5, 5672, Note_off_c, 9, 36, 64
5, 5712, Note_on_c, 9, 46, 100
5, 5720, Note_off_c, 9, 46, 64
5, 5760, Note_on_c, 9, 36, 100
5, 5768, Note_off_c, 9, 36, 64
5, 5808, Note_on_c, 9, 46, 100
5, 5816, Note_off_c, 9, 46, 64
5, 5856, Note_on_c, 9, 36, 100
5, 5856, Note_on_c, 9, 38, 100
5, 5856, Note_on_c, 9, 39, 100
5, 5864, Note_off_c, 9, 39, 64
5, 5864, Note_off_c, 9, 38, 64
5, 5864, Note_off_c, 9, 36, 64
5, 5904, Note_on_c, 9, 46, 100
5, 5912, Note_off_c, 9, 46, 64
5, 5952, Note_on_c, 9, 36, 100
5, 5960, Note_off_c, 9, 36, 64
5, 6000, Note_on_c, 9, 46, 100
5, 6008, Note_off_c, 9, 46, 64
5, 6048, Note_on_c, 9, 38, 100
5, 6048, Note_on_c, 9, 39, 100
5, 6048, Note_on_c, 9, 36, 100
5, 6056, Note_off_c, 9, 36, 64
5, 6056, Note_off_c, 9, 39, 64
5, 6056, Note_off_c, 9, 38, 64
5, 6096, Note_on_c, 9, 46, 100
5, 6104, Note_off_c, 9, 46, 64
5, 6144, Note_on_c, 9, 36, 100
5, 6152, Note_off_c, 9, 36, 64
5, 6192, Note_on_c, 9, 46, 100
5, 6200, Note_off_c, 9, 46, 64
5, 6240, Note_on_c, 9, 36, 100
5, 6240, Note_on_c, 9, 38, 100
5, 6240, Note_on_c, 9, 39, 100
5, 6248, Note_off_c, 9, 39, 64
5, 6248, Note_off_c, 9, 38, 64
5, 6248, Note_off_c, 9, 36, 64
5, 6288, Note_on_c, 9, 46, 100
5, 6296, Note_off_c, 9, 46, 64
5, 6336, Note_on_c, 9, 36, 100
5, 6344, Note_off_c, 9, 36, 64
5, 6384, Note_on_c, 9, 46, 100
5, 6392, Note_off_c, 9, 46, 64
5, 6432, Note_on_c, 9, 38, 100
5, 6432, Note_on_c, 9, 39, 100
5, 6432, Note_on_c, 9, 36, 100
5, 6440, Note_off_c, 9, 36, 64
5, 6440, Note_off_c, 9, 39, 64
5, 6440, Note_off_c, 9, 38, 64
5, 6480, Note_on_c, 9, 46, 100
5, 6488, Note_off_c, 9, 46, 64
5, 6528, Note_on_c, 9, 49, 100
5, 6528, Note_on_c, 9, 36, 100
5, 6536, Note_off_c, 9, 36, 64
5, 6536, Note_off_c, 9, 49, 64
5, 6624, Note_on_c, 9, 49, 91
5, 6624, Note_on_c, 9, 36, 91
5, 6632, Note_off_c, 9, 49, 64
5, 6632, Note_off_c, 9, 36, 64
5, 6720, Note_on_c, 9, 49, 81
5, 6720, Note_on_c, 9, 36, 81
5, 6728, Note_off_c, 9, 49, 64
5, 6728, Note_off_c, 9, 36, 64
5, 6816, Note_on_c, 9, 49, 81
5, 6816, Note_on_c, 9, 36, 81
5, 6824, Note_off_c, 9, 49, 64
5, 6824, Note_off_c, 9, 36, 64
5, 6912, Note_on_c, 9, 36, 100
5, 6920, Note_off_c, 9, 36, 64
5, 6960, Note_on_c, 9, 46, 100
5, 6968, Note_off_c, 9, 46, 64
5, 7008, Note_on_c, 9, 36, 100
5, 7008, Note_on_c, 9, 38, 100
5, 7008, Note_on_c, 9, 39, 100
5, 7016, Note_off_c, 9, 39, 64
5, 7016, Note_off_c, 9, 38, 64
5, 7016, Note_off_c, 9, 36, 64
5, 7056, Note_on_c, 9, 46, 100
5, 7064, Note_off_c, 9, 46, 64
5, 7104, Note_on_c, 9, 36, 100
5, 7112, Note_off_c, 9, 36, 64
5, 7152, Note_on_c, 9, 46, 100
5, 7160, Note_off_c, 9, 46, 64
5, 7200, Note_on_c, 9, 38, 100
5, 7200, Note_on_c, 9, 39, 100
5, 7200, Note_on_c, 9, 36, 100
5, 7208, Note_off_c, 9, 36, 64
5, 7208, Note_off_c, 9, 39, 64
5, 7208, Note_off_c, 9, 38, 64
5, 7248, Note_on_c, 9, 46, 100
5, 7256, Note_off_c, 9, 46, 64
5, 7296, Note_on_c, 9, 36, 100
5, 7304, Note_off_c, 9, 36, 64
5, 7344, Note_on_c, 9, 46, 100
5, 7352, Note_off_c, 9, 46, 64
5, 7392, Note_on_c, 9, 36, 100
5, 7392, Note_on_c, 9, 38, 100
5, 7392, Note_on_c, 9, 39, 100
5, 7400, Note_off_c, 9, 39, 64
5, 7400, Note_off_c, 9, 38, 64
5, 7400, Note_off_c, 9, 36, 64
5, 7440, Note_on_c, 9, 46, 100
5, 7448, Note_off_c, 9, 46, 64
5, 7488, Note_on_c, 9, 36, 100
5, 7496, Note_off_c, 9, 36, 64
5, 7536, Note_on_c, 9, 46, 100
5, 7544, Note_off_c, 9, 46, 64
5, 7584, Note_on_c, 9, 38, 100
5, 7584, Note_on_c, 9, 39, 100
5, 7584, Note_on_c, 9, 36, 100
5, 7592, Note_off_c, 9, 36, 64
5, 7592, Note_off_c, 9, 39, 64
5, 7592, Note_off_c, 9, 38, 64
5, 7632, Note_on_c, 9, 46, 100
5, 7640, Note_off_c, 9, 46, 64
5, 7680, Note_on_c, 9, 36, 100
5, 7688, Note_off_c, 9, 36, 64
5, 7728, Note_on_c, 9, 46, 100
5, 7736, Note_off_c, 9, 46, 64
5, 7776, Note_on_c, 9, 36, 100
5, 7776, Note_on_c, 9, 38, 100
5, 7776, Note_on_c, 9, 39, 100
5, 7784, Note_off_c, 9, 39, 64
5, 7784, Note_off_c, 9, 38, 64
5, 7784, Note_off_c, 9, 36, 64
5, 7824, Note_on_c, 9, 46, 100
5, 7832, Note_off_c, 9, 46, 64
5, 7872, Note_on_c, 9, 36, 100
5, 7880, Note_off_c, 9, 36, 64
5, 7920, Note_on_c, 9, 46, 100
5, 7928, Note_off_c, 9, 46, 64
5, 7968, Note_on_c, 9, 38, 100
5, 7968, Note_on_c, 9, 39, 100
5, 7968, Note_on_c, 9, 36, 100
5, 7976, Note_off_c, 9, 36, 64
5, 7976, Note_off_c, 9, 39, 64
5, 7976, Note_off_c, 9, 38, 64
5, 8016, Note_on_c, 9, 46, 100
5, 8024, Note_off_c, 9, 46, 64
5, 8064, Note_on_c, 9, 36, 100
5, 8072, Note_off_c, 9, 36, 64
5, 8112, Note_on_c, 9, 46, 100
5, 8120, Note_off_c, 9, 46, 64
5, 8160, Note_on_c, 9, 36, 100
5, 8160, Note_on_c, 9, 38, 100
5, 8160, Note_on_c, 9, 39, 100
5, 8168, Note_off_c, 9, 39, 64
5, 8168, Note_off_c, 9, 38, 64
5, 8168, Note_off_c, 9, 36, 64
5, 8208, Note_on_c, 9, 46, 100
5, 8216, Note_off_c, 9, 46, 64
5, 8256, Note_on_c, 9, 36, 100
5, 8264, Note_off_c, 9, 36, 64
5, 8304, Note_on_c, 9, 46, 100
5, 8312, Note_off_c, 9, 46, 64
5, 8352, Note_on_c, 9, 38, 100
5, 8352, Note_on_c, 9, 39, 100
5, 8352, Note_on_c, 9, 36, 100
5, 8360, Note_off_c, 9, 36, 64
5, 8360, Note_off_c, 9, 39, 64
5, 8360, Note_off_c, 9, 38, 64
5, 8400, Note_on_c, 9, 46, 100
5, 8408, Note_off_c, 9, 46, 64
5, 8448, Note_on_c, 9, 36, 100
5, 8456, Note_off_c, 9, 36, 64
5, 8496, Note_on_c, 9, 46, 100
5, 8504, Note_off_c, 9, 46, 64
5, 8544, Note_on_c, 9, 36, 100
5, 8552, Note_off_c, 9, 36, 64
5, 8592, Note_on_c, 9, 46, 100
5, 8600, Note_off_c, 9, 46, 64
5, 8640, Note_on_c, 9, 36, 100
5, 8648, Note_off_c, 9, 36, 64
5, 8688, Note_on_c, 9, 46, 100
5, 8696, Note_off_c, 9, 46, 64
5, 8736, Note_on_c, 9, 36, 100
5, 8744, Note_off_c, 9, 36, 64
5, 8784, Note_on_c, 9, 46, 100
5, 8792, Note_off_c, 9, 46, 64
5, 8832, Note_on_c, 9, 36, 100
5, 8840, Note_off_c, 9, 36, 64
5, 8880, Note_on_c, 9, 46, 100
5, 8888, Note_off_c, 9, 46, 64
5, 8928, Note_on_c, 9, 36, 100
5, 8928, Note_on_c, 9, 38, 100
5, 8928, Note_on_c, 9, 39, 100
5, 8936, Note_off_c, 9, 39, 64
5, 8936, Note_off_c, 9, 38, 64
5, 8936, Note_off_c, 9, 36, 64
5, 8976, Note_on_c, 9, 46, 100
5, 8984, Note_off_c, 9, 46, 64
5, 9024, Note_on_c, 9, 36, 100
5, 9032, Note_off_c, 9, 36, 64
5, 9072, Note_on_c, 9, 46, 100
5, 9080, Note_off_c, 9, 46, 64
5, 9120, Note_on_c, 9, 38, 100
5, 9120, Note_on_c, 9, 39, 100
5, 9120, Note_on_c, 9, 36, 100
5, 9128, Note_off_c, 9, 36, 64
5, 9128, Note_off_c, 9, 39, 64
5, 9128, Note_off_c, 9, 38, 64
5, 9168, Note_on_c, 9, 46, 100
5, 9176, Note_off_c, 9, 46, 64
5, 9216, Note_on_c, 9, 36, 100
5, 9224, Note_off_c, 9, 36, 64
5, 9264, Note_on_c, 9, 46, 100
5, 9272, Note_off_c, 9, 46, 64
5, 9312, Note_on_c, 9, 36, 100
5, 9312, Note_on_c, 9, 38, 100
5, 9312, Note_on_c, 9, 39, 100
5, 9320, Note_off_c, 9, 39, 64
5, 9320, Note_off_c, 9, 38, 64
5, 9320, Note_off_c, 9, 36, 64
5, 9360, Note_on_c, 9, 46, 100
5, 9368, Note_off_c, 9, 46, 64
5, 9408, Note_on_c, 9, 36, 100
5, 9416, Note_off_c, 9, 36, 64
5, 9456, Note_on_c, 9, 46, 100
5, 9464, Note_off_c, 9, 46, 64
5, 9504, Note_on_c, 9, 38, 100
5, 9504, Note_on_c, 9, 39, 100
5, 9504, Note_on_c, 9, 36, 100
5, 9512, Note_off_c, 9, 36, 64
5, 9512, Note_off_c, 9, 39, 64
5, 9512, Note_off_c, 9, 38, 64
5, 9552, Note_on_c, 9, 46, 100
5, 9560, Note_off_c, 9, 46, 64
5, 9600, Note_on_c, 9, 49, 100
5, 9600, Note_on_c, 9, 36, 100
5, 9608, Note_off_c, 9, 36, 64
5, 9608, Note_off_c, 9, 49, 64
5, 9648, Note_on_c, 9, 46, 100
5, 9656, Note_off_c, 9, 46, 64
5, 9696, Note_on_c, 9, 49, 91
5, 9696, Note_on_c, 9, 36, 100
5, 9696, Note_on_c, 9, 38, 100
5, 9696, Note_on_c, 9, 39, 100
5, 9704, Note_off_c, 9, 39, 64
5, 9704, Note_off_c, 9, 38, 64
5, 9704, Note_off_c, 9, 36, 64
5, 9704, Note_off_c, 9, 49, 64
5, 9744, Note_on_c, 9, 46, 100
5, 9752, Note_off_c, 9, 46, 64
5, 9792, Note_on_c, 9, 49, 81
5, 9792, Note_on_c, 9, 36, 100
5, 9800, Note_off_c, 9, 36, 64
5, 9800, Note_off_c, 9, 49, 64
5, 9840, Note_on_c, 9, 46, 100
5, 9848, Note_off_c, 9, 46, 64
5, 9888, Note_on_c, 9, 49, 81
5, 9888, Note_on_c, 9, 38, 100
5, 9888, Note_on_c, 9, 39, 100
5, 9888, Note_on_c, 9, 36, 100
5, 9896, Note_off_c, 9, 36, 64
5, 9896, Note_off_c, 9, 39, 64
5, 9896, Note_off_c, 9, 38, 64
5, 9896, Note_off_c, 9, 49, 64
5, 9936, Note_on_c, 9, 46, 100
5, 9944, Note_off_c, 9, 46, 64
5, 9984, Note_on_c, 9, 36, 100
5, 9992, Note_off_c, 9, 36, 64
5, 10032, Note_on_c, 9, 46, 100
5, 10040, Note_off_c, 9, 46, 64
5, 10080, Note_on_c, 9, 36, 100
5, 10080, Note_on_c, 9, 38, 100
5, 10080, Note_on_c, 9, 39, 100
5, 10088, Note_off_c, 9, 39, 64
5, 10088, Note_off_c, 9, 38, 64
5, 10088, Note_off_c, 9, 36, 64
5, 10128, Note_on_c, 9, 46, 100
5, 10136, Note_off_c, 9, 46, 64
5, 10176, Note_on_c, 9, 36, 100
5, 10184, Note_off_c, 9, 36, 64
5, 10224, Note_on_c, 9, 46, 100
5, 10232, Note_off_c, 9, 46, 64
5, 10272, Note_on_c, 9, 38, 100
5, 10272, Note_on_c, 9, 39, 100
5, 10272, Note_on_c, 9, 36, 100
5, 10280, Note_off_c, 9, 36, 64
5, 10280, Note_off_c, 9, 39, 64
5, 10280, Note_off_c, 9, 38, 64
5, 10320, Note_on_c, 9, 46, 100
5, 10328, Note_off_c, 9, 46, 64
5, 10368, Note_on_c, 9, 36, 100
5, 10376, Note_off_c, 9, 36, 64
5, 10416, Note_on_c, 9, 46, 100
5, 10424, Note_off_c, 9, 46, 64
5, 10464, Note_on_c, 9, 36, 100
5, 10464, Note_on_c, 9, 38, 100
5, 10464, Note_on_c, 9, 39, 100
5, 10472, Note_off_c, 9, 39, 64
5, 10472, Note_off_c, 9, 38, 64
5, 10472, Note_off_c, 9, 36, 64
5, 10512, Note_on_c, 9, 46, 100
5, 10520, Note_off_c, 9, 46, 64
5, 10560, Note_on_c, 9, 36, 100
5, 10568, Note_off_c, 9, 36, 64
5, 10608, Note_on_c, 9, 46, 100
5, 10616, Note_off_c, 9, 46, 64
5, 10656, Note_on_c, 9, 38, 100
5, 10656, Note_on_c, 9, 39, 100
5, 10656, Note_on_c, 9, 36, 100
5, 10664, Note_off_c, 9, 36, 64
5, 10664, Note_off_c, 9, 39, 64
5, 10664, Note_off_c, 9, 38, 64
5, 10704, Note_on_c, 9, 46, 100
5, 10712, Note_off_c, 9, 46, 64
5, 10752, Note_on_c, 9, 36, 100
5, 10760, Note_off_c, 9, 36, 64
5, 10800, Note_on_c, 9, 46, 100
5, 10808, Note_off_c, 9, 46, 64
5, 10848, Note_on_c, 9, 36, 100
5, 10848, Note_on_c, 9, 38, 100
5, 10848, Note_on_c, 9, 39, 100
5, 10856, Note_off_c, 9, 39, 64
5, 10856, Note_off_c, 9, 38, 64
5, 10856, Note_off_c, 9, 36, 64
5, 10896, Note_on_c, 9, 46, 100
5, 10904, Note_off_c, 9, 46, 64
5, 10944, Note_on_c, 9, 36, 100
5, 10952, Note_off_c, 9, 36, 64
5, 10992, Note_on_c, 9, 46, 100
5, 11000, Note_off_c, 9, 46, 64
5, 11040, Note_on_c, 9, 38, 100
5, 11040, Note_on_c, 9, 39, 100
5, 11040, Note_on_c, 9, 36, 100
5, 11048, Note_off_c, 9, 36, 64
5, 11048, Note_off_c, 9, 39, 64
5, 11048, Note_off_c, 9, 38, 64
5, 11088, Note_on_c, 9, 46, 100
5, 11096, Note_off_c, 9, 46, 64
5, 11136, Note_on_c, 9, 36, 100
5, 11144, Note_off_c, 9, 36, 64
5, 11184, Note_on_c, 9, 46, 100
5, 11192, Note_off_c, 9, 46, 64
5, 11232, Note_on_c, 9, 36, 100
5, 11232, Note_on_c, 9, 38, 100
5, 11232, Note_on_c, 9, 39, 100
5, 11240, Note_off_c, 9, 39, 64
5, 11240, Note_off_c, 9, 38, 64
5, 11240, Note_off_c, 9, 36, 64
5, 11280, Note_on_c, 9, 46, 100
5, 11288, Note_off_c, 9, 46, 64
5, 11328, Note_on_c, 9, 36, 100
5, 11336, Note_off_c, 9, 36, 64
5, 11376, Note_on_c, 9, 46, 100
5, 11384, Note_off_c, 9, 46, 64
5, 11424, Note_on_c, 9, 38, 100
5, 11424, Note_on_c, 9, 39, 100
5, 11424, Note_on_c, 9, 36, 100
5, 11432, Note_off_c, 9, 36, 64
5, 11432, Note_off_c, 9, 39, 64
5, 11432, Note_off_c, 9, 38, 64
5, 11472, Note_on_c, 9, 46, 100
5, 11480, Note_off_c, 9, 46, 64
5, 11520, Note_on_c, 9, 36, 100
5, 11528, Note_off_c, 9, 36, 64
5, 11568, Note_on_c, 9, 46, 100
5, 11576, Note_off_c, 9, 46, 64
5, 11616, Note_on_c, 9, 36, 100
5, 11624, Note_off_c, 9, 36, 64
5, 11664, Note_on_c, 9, 46, 100
5, 11672, Note_off_c, 9, 46, 64
5, 11712, Note_on_c, 9, 36, 100
5, 11720, Note_off_c, 9, 36, 64
5, 11760, Note_on_c, 9, 46, 100
5, 11768, Note_off_c, 9, 46, 64
5, 11808, Note_on_c, 9, 36, 100
5, 11816, Note_off_c, 9, 36, 64
5, 11856, Note_on_c, 9, 46, 100
5, 11864, Note_off_c, 9, 46, 64
5, 11904, Note_on_c, 9, 36, 100
5, 11912, Note_off_c, 9, 36, 64
5, 11952, Note_on_c, 9, 46, 100
5, 11960, Note_off_c, 9, 46, 64
5, 12000, Note_on_c, 9, 36, 100
5, 12000, Note_on_c, 9, 38, 100
5, 12000, Note_on_c, 9, 39, 100
5, 12008, Note_off_c, 9, 39, 64
5, 12008, Note_off_c, 9, 38, 64
5, 12008, Note_off_c, 9, 36, 64
5, 12048, Note_on_c, 9, 46, 100
5, 12056, Note_off_c, 9, 46, 64
5, 12096, Note_on_c, 9, 36, 100
5, 12104, Note_off_c, 9, 36, 64
5, 12144, Note_on_c, 9, 46, 100
5, 12152, Note_off_c, 9, 46, 64
5, 12192, Note_on_c, 9, 38, 100
5, 12192, Note_on_c, 9, 39, 100
5, 12192, Note_on_c, 9, 36, 100
5, 12200, Note_off_c, 9, 36, 64
5, 12200, Note_off_c, 9, 39, 64
5, 12200, Note_off_c, 9, 38, 64
5, 12240, Note_on_c, 9, 46, 100
5, 12248, Note_off_c, 9, 46, 64
5, 12288, Note_on_c, 9, 36, 100
5, 12296, Note_off_c, 9, 36, 64
5, 12336, Note_on_c, 9, 46, 100
5, 12344, Note_off_c, 9, 46, 64
5, 12384, Note_on_c, 9, 36, 100
5, 12384, Note_on_c, 9, 38, 100
5, 12384, Note_on_c, 9, 39, 100
5, 12392, Note_off_c, 9, 39, 64
5, 12392, Note_off_c, 9, 38, 64
5, 12392, Note_off_c, 9, 36, 64
5, 12432, Note_on_c, 9, 46, 100
5, 12440, Note_off_c, 9, 46, 64
5, 12480, Note_on_c, 9, 36, 100
5, 12488, Note_off_c, 9, 36, 64
5, 12528, Note_on_c, 9, 46, 100
5, 12536, Note_off_c, 9, 46, 64
5, 12576, Note_on_c, 9, 38, 100
5, 12576, Note_on_c, 9, 39, 100
5, 12576, Note_on_c, 9, 36, 100
5, 12584, Note_off_c, 9, 36, 64
5, 12584, Note_off_c, 9, 39, 64
5, 12584, Note_off_c, 9, 38, 64
5, 12624, Note_on_c, 9, 46, 100
5, 12632, Note_off_c, 9, 46, 64
5, 12672, Note_on_c, 9, 49, 100
5, 12672, Note_on_c, 9, 36, 100
5, 12680, Note_off_c, 9, 36, 64
5, 12680, Note_off_c, 9, 49, 64
5, 12720, Note_on_c, 9, 46, 100
5, 12728, Note_off_c, 9, 46, 64
5, 12768, Note_on_c, 9, 49, 91
5, 12768, Note_on_c, 9, 36, 100
5, 12768, Note_on_c, 9, 38, 100
5, 12768, Note_on_c, 9, 39, 100
5, 12776, Note_off_c, 9, 39, 64
5, 12776, Note_off_c, 9, 38, 64
5, 12776, Note_off_c, 9, 36, 64
5, 12776, Note_off_c, 9, 49, 64
5, 12816, Note_on_c, 9, 46, 100
5, 12824, Note_off_c, 9, 46, 64
5, 12864, Note_on_c, 9, 49, 81
5, 12864, Note_on_c, 9, 36, 100
5, 12872, Note_off_c, 9, 36, 64
5, 12872, Note_off_c, 9, 49, 64
5, 12912, Note_on_c, 9, 46, 100
5, 12920, Note_off_c, 9, 46, 64
5, 12960, Note_on_c, 9, 49, 81
5, 12960, Note_on_c, 9, 38, 100
5, 12960, Note_on_c, 9, 39, 100
5, 12960, Note_on_c, 9, 36, 100
5, 12968, Note_off_c, 9, 36, 64
5, 12968, Note_off_c, 9, 39, 64
5, 12968, Note_off_c, 9, 38, 64
5, 12968, Note_off_c, 9, 49, 64
5, 13008, Note_on_c, 9, 46, 100
5, 13016, Note_off_c, 9, 46, 64
5, 13056, Note_on_c, 9, 36, 81
5, 13064, Note_off_c, 9, 36, 64
5, 13152, Note_on_c, 9, 36, 81
5, 13160, Note_off_c, 9, 36, 64
5, 13248, Note_on_c, 9, 36, 81
5, 13256, Note_off_c, 9, 36, 64
5, 13344, Note_on_c, 9, 36, 81
5, 13352, Note_off_c, 9, 36, 64
5, 13440, Note_on_c, 9, 36, 81
5, 13448, Note_off_c, 9, 36, 64
5, 13536, Note_on_c, 9, 36, 81
5, 13544, Note_off_c, 9, 36, 64
5, 13632, Note_on_c, 9, 36, 81
5, 13640, Note_off_c, 9, 36, 64
5, 13728, Note_on_c, 9, 36, 81
5, 13736, Note_off_c, 9, 36, 64
5, 13824, Note_on_c, 9, 36, 81
5, 13832, Note_off_c, 9, 36, 64
5, 13920, Note_on_c, 9, 36, 81
5, 13928, Note_off_c, 9, 36, 64
5, 14016, Note_on_c, 9, 36, 81
5, 14024, Note_off_c, 9, 36, 64
5, 14112, Note_on_c, 9, 36, 81
5, 14120, Note_off_c, 9, 36, 64
5, 14208, Note_on_c, 9, 36, 81
5, 14216, Note_off_c, 9, 36, 64
5, 14304, Note_on_c, 9, 36, 81
5, 14312, Note_off_c, 9, 36, 64
5, 14400, Note_on_c, 9, 36, 81
5, 14408, Note_off_c, 9, 36, 64
5, 14496, Note_on_c, 9, 36, 81
5, 14504, Note_off_c, 9, 36, 64
5, 14592, Note_on_c, 9, 36, 81
5, 14600, Note_off_c, 9, 36, 64
5, 14688, Note_on_c, 9, 36, 81
5, 14696, Note_off_c, 9, 36, 64
5, 14784, Note_on_c, 9, 36, 81
5, 14792, Note_off_c, 9, 36, 64
5, 14880, Note_on_c, 9, 36, 81
5, 14888, Note_off_c, 9, 36, 64
5, 14976, Note_on_c, 9, 36, 81
5, 14984, Note_off_c, 9, 36, 64
5, 15072, Note_on_c, 9, 36, 81
5, 15080, Note_off_c, 9, 36, 64
5, 15168, Note_on_c, 9, 36, 81
5, 15176, Note_off_c, 9, 36, 64
5, 15264, Note_on_c, 9, 36, 81
5, 15272, Note_off_c, 9, 36, 64
5, 15360, Note_on_c, 9, 36, 81
5, 15368, Note_off_c, 9, 36, 64
5, 15456, Note_on_c, 9, 36, 81
5, 15464, Note_off_c, 9, 36, 64
5, 15552, Note_on_c, 9, 36, 81
5, 15560, Note_off_c, 9, 36, 64
5, 15648, Note_on_c, 9, 36, 81
5, 15656, Note_off_c, 9, 36, 64
5, 15744, Note_on_c, 9, 36, 81
5, 15752, Note_off_c, 9, 36, 64
5, 15840, Note_on_c, 9, 36, 81
5, 15848, Note_off_c, 9, 36, 64
5, 15936, Note_on_c, 9, 36, 81
5, 15944, Note_off_c, 9, 36, 64
5, 16032, Note_on_c, 9, 36, 81
5, 16040, Note_off_c, 9, 36, 64
5, 16128, Note_on_c, 9, 36, 100
5, 16136, Note_off_c, 9, 36, 64
5, 16176, Note_on_c, 9, 46, 100
5, 16184, Note_off_c, 9, 46, 64
5, 16224, Note_on_c, 9, 36, 100
5, 16224, Note_on_c, 9, 38, 100
5, 16224, Note_on_c, 9, 39, 100
5, 16232, Note_off_c, 9, 39, 64
5, 16232, Note_off_c, 9, 38, 64
5, 16232, Note_off_c, 9, 36, 64
5, 16272, Note_on_c, 9, 46, 100
5, 16280, Note_off_c, 9, 46, 64
5, 16320, Note_on_c, 9, 36, 100
5, 16328, Note_off_c, 9, 36, 64
5, 16368, Note_on_c, 9, 46, 100
5, 16376, Note_off_c, 9, 46, 64
5, 16416, Note_on_c, 9, 38, 100
5, 16416, Note_on_c, 9, 39, 100
5, 16416, Note_on_c, 9, 36, 100
5, 16424, Note_off_c, 9, 36, 64
5, 16424, Note_off_c, 9, 39, 64
5, 16424, Note_off_c, 9, 38, 64
5, 16464, Note_on_c, 9, 46, 100
5, 16472, Note_off_c, 9, 46, 64
5, 16512, Note_on_c, 9, 36, 100
5, 16520, Note_off_c, 9, 36, 64
5, 16560, Note_on_c, 9, 46, 100
5, 16568, Note_off_c, 9, 46, 64
5, 16608, Note_on_c, 9, 36, 100
5, 16608, Note_on_c, 9, 38, 100
5, 16608, Note_on_c, 9, 39, 100
5, 16616, Note_off_c, 9, 39, 64
5, 16616, Note_off_c, 9, 38, 64
5, 16616, Note_off_c, 9, 36, 64
5, 16656, Note_on_c, 9, 46, 100
5, 16664, Note_off_c, 9, 46, 64
5, 16704, Note_on_c, 9, 36, 100
5, 16712, Note_off_c, 9, 36, 64
5, 16752, Note_on_c, 9, 46, 100
5, 16760, Note_off_c, 9, 46, 64
5, 16800, Note_on_c, 9, 38, 100
5, 16800, Note_on_c, 9, 39, 100
5, 16800, Note_on_c, 9, 36, 100
5, 16808, Note_off_c, 9, 36, 64
5, 16808, Note_off_c, 9, 39, 64
5, 16808, Note_off_c, 9, 38, 64
5, 16848, Note_on_c, 9, 46, 100
5, 16856, Note_off_c, 9, 46, 64
5, 16896, Note_on_c, 9, 36, 100
5, 16904, Note_off_c, 9, 36, 64
5, 16944, Note_on_c, 9, 46, 100
5, 16952, Note_off_c, 9, 46, 64
5, 16992, Note_on_c, 9, 36, 100
5, 16992, Note_on_c, 9, 38, 100
5, 16992, Note_on_c, 9, 39, 100
5, 17000, Note_off_c, 9, 39, 64
5, 17000, Note_off_c, 9, 38, 64
5, 17000, Note_off_c, 9, 36, 64
5, 17040, Note_on_c, 9, 46, 100
5, 17048, Note_off_c, 9, 46, 64
5, 17088, Note_on_c, 9, 36, 100
5, 17096, Note_off_c, 9, 36, 64
5, 17136, Note_on_c, 9, 46, 100
5, 17144, Note_off_c, 9, 46, 64
5, 17184, Note_on_c, 9, 38, 100
5, 17184, Note_on_c, 9, 39, 100
5, 17184, Note_on_c, 9, 36, 100
5, 17192, Note_off_c, 9, 36, 64
5, 17192, Note_off_c, 9, 39, 64
5, 17192, Note_off_c, 9, 38, 64
5, 17232, Note_on_c, 9, 46, 100
5, 17240, Note_off_c, 9, 46, 64
5, 17280, Note_on_c, 9, 36, 100
5, 17280, Note_on_c, 9, 38, 100
5, 17288, Note_off_c, 9, 38, 64
5, 17288, Note_off_c, 9, 36, 64
5, 17304, Note_on_c, 9, 38, 100
5, 17312, Note_off_c, 9, 38, 64
5, 17328, Note_on_c, 9, 46, 100
5, 17328, Note_on_c, 9, 38, 100
5, 17336, Note_off_c, 9, 46, 64
5, 17336, Note_off_c, 9, 38, 64
5, 17352, Note_on_c, 9, 38, 100
5, 17360, Note_off_c, 9, 38, 64
5, 17376, Note_on_c, 9, 39, 100
5, 17376, Note_on_c, 9, 36, 100
5, 17376, Note_on_c, 9, 38, 100
5, 17384, Note_off_c, 9, 38, 64
5, 17384, Note_off_c, 9, 36, 64
5, 17384, Note_off_c, 9, 39, 64
5, 17400, Note_on_c, 9, 38, 100
5, 17408, Note_off_c, 9, 38, 64
5, 17424, Note_on_c, 9, 46, 100
5, 17424, Note_on_c, 9, 38, 100
5, 17432, Note_off_c, 9, 46, 64
5, 17432, Note_off_c, 9, 38, 64
5, 17448, Note_on_c, 9, 38, 100
5, 17456, Note_off_c, 9, 38, 64
5, 17472, Note_on_c, 9, 36, 100
5, 17472, Note_on_c, 9, 38, 100
5, 17480, Note_off_c, 9, 38, 64
5, 17480, Note_off_c, 9, 36, 64
5, 17496, Note_on_c, 9, 38, 100
5, 17504, Note_off_c, 9, 38, 64
5, 17520, Note_on_c, 9, 46, 100
5, 17520, Note_on_c, 9, 38, 100
5, 17528, Note_off_c, 9, 46, 64
5, 17528, Note_off_c, 9, 38, 64
5, 17544, Note_on_c, 9, 38, 100
5, 17552, Note_off_c, 9, 38, 64
5, 17568, Note_on_c, 9, 39, 100
5, 17568, Note_on_c, 9, 36, 100
5, 17568, Note_on_c, 9, 38, 100
5, 17576, Note_off_c, 9, 38, 64
5, 17576, Note_off_c, 9, 36, 64
5, 17576, Note_off_c, 9, 39, 64
5, 17592, Note_on_c, 9, 38, 100
5, 17600, Note_off_c, 9, 38, 64
5, 17616, Note_on_c, 9, 46, 100
5, 17616, Note_on_c, 9, 38, 100
5, 17624, Note_off_c, 9, 46, 64
5, 17624, Note_off_c, 9, 38, 64
5, 17640, Note_on_c, 9, 38, 100
5, 17648, Note_off_c, 9, 38, 64
5, 17664, Note_on_c, 9, 36, 100
5, 17664, Note_on_c, 9, 38, 100
5, 17672, Note_off_c, 9, 38, 64
5, 17672, Note_off_c, 9, 36, 64
5, 17688, Note_on_c, 9, 38, 100
5, 17696, Note_off_c, 9, 38, 64
5, 17712, Note_on_c, 9, 38, 100
5, 17720, Note_off_c, 9, 38, 64
5, 17736, Note_on_c, 9, 38, 100
5, 17744, Note_off_c, 9, 38, 64
5, 17760, Note_on_c, 9, 36, 100
5, 17760, Note_on_c, 9, 38, 100
5, 17768, Note_off_c, 9, 38, 64
5, 17768, Note_off_c, 9, 36, 64
5, 17784, Note_on_c, 9, 38, 100
5, 17792, Note_off_c, 9, 38, 64
5, 17808, Note_on_c, 9, 38, 100
5, 17816, Note_off_c, 9, 38, 64
5, 17832, Note_on_c, 9, 38, 100
5, 17840, Note_off_c, 9, 38, 64
5, 17856, Note_on_c, 9, 36, 100
5, 17856, Note_on_c, 9, 38, 100
5, 17864, Note_off_c, 9, 38, 64
5, 17864, Note_off_c, 9, 36, 64
5, 17880, Note_on_c, 9, 38, 100
5, 17888, Note_off_c, 9, 38, 64
5, 17904, Note_on_c, 9, 38, 100
5, 17912, Note_off_c, 9, 38, 64
5, 17928, Note_on_c, 9, 38, 100
5, 17936, Note_off_c, 9, 38, 64
5, 17952, Note_on_c, 9, 36, 100
5, 17952, Note_on_c, 9, 38, 100
5, 17960, Note_off_c, 9, 38, 64
5, 17960, Note_off_c, 9, 36, 64
5, 17976, Note_on_c, 9, 38, 100
5, 17984, Note_off_c, 9, 38, 64
5, 18000, Note_on_c, 9, 38, 100
5, 18008, Note_off_c, 9, 38, 64
5, 18024, Note_on_c, 9, 38, 100
5, 18032, Note_off_c, 9, 38, 64
5, 18048, Note_on_c, 9, 36, 100
5, 18048, Note_on_c, 9, 38, 100
5, 18056, Note_off_c, 9, 38, 64
5, 18056, Note_off_c, 9, 36, 64
5, 18072, Note_on_c, 9, 38, 100
5, 18080, Note_off_c, 9, 38, 64
5, 18096, Note_on_c, 9, 46, 100
5, 18096, Note_on_c, 9, 38, 100
5, 18104, Note_off_c, 9, 46, 64
5, 18104, Note_off_c, 9, 38, 64
5, 18120, Note_on_c, 9, 38, 100
5, 18128, Note_off_c, 9, 38, 64
5, 18144, Note_on_c, 9, 39, 100
5, 18144, Note_on_c, 9, 36, 100
5, 18144, Note_on_c, 9, 38, 100
5, 18152, Note_off_c, 9, 38, 64
5, 18152, Note_off_c, 9, 36, 64
5, 18152, Note_off_c, 9, 39, 64
5, 18168, Note_on_c, 9, 38, 100
5, 18176, Note_off_c, 9, 38, 64
5, 18192, Note_on_c, 9, 46, 100
5, 18192, Note_on_c, 9, 38, 100
5, 18200, Note_off_c, 9, 46, 64
5, 18200, Note_off_c, 9, 38, 64
5, 18216, Note_on_c, 9, 38, 100
5, 18224, Note_off_c, 9, 38, 64
5, 18240, Note_on_c, 9, 36, 100
5, 18240, Note_on_c, 9, 38, 100
5, 18248, Note_off_c, 9, 38, 64
5, 18248, Note_off_c, 9, 36, 64
5, 18264, Note_on_c, 9, 38, 100
5, 18272, Note_off_c, 9, 38, 64
5, 18288, Note_on_c, 9, 46, 100
5, 18288, Note_on_c, 9, 38, 100
5, 18296, Note_off_c, 9, 46, 64
5, 18296, Note_off_c, 9, 38, 64
5, 18312, Note_on_c, 9, 38, 100
5, 18320, Note_off_c, 9, 38, 64
5, 18336, Note_on_c, 9, 39, 100
5, 18336, Note_on_c, 9, 36, 100
5, 18336, Note_on_c, 9, 38, 100
5, 18344, Note_off_c, 9, 38, 64
5, 18344, Note_off_c, 9, 36, 64
5, 18344, Note_off_c, 9, 39, 64
5, 18360, Note_on_c, 9, 38, 100
5, 18368, Note_off_c, 9, 38, 64
5, 18384, Note_on_c, 9, 46, 100
5, 18384, Note_on_c, 9, 38, 100
5, 18392, Note_off_c, 9, 46, 64
5, 18392, Note_off_c, 9, 38, 64
5, 18408, Note_on_c, 9, 38, 100
5, 18416, Note_off_c, 9, 38, 64
5, 18432, Note_on_c, 9, 36, 100
5, 18432, Note_on_c, 9, 38, 100
5, 18440, Note_off_c, 9, 38, 64
5, 18440, Note_off_c, 9, 36, 64
5, 18456, Note_on_c, 9, 38, 100
5, 18464, Note_off_c, 9, 38, 64
5, 18480, Note_on_c, 9, 46, 100
5, 18480, Note_on_c, 9, 38, 100
5, 18488, Note_off_c, 9, 46, 64
5, 18488, Note_off_c, 9, 38, 64
5, 18504, Note_on_c, 9, 38, 100
5, 18512, Note_off_c, 9, 38, 64
5, 18528, Note_on_c, 9, 39, 100
5, 18528, Note_on_c, 9, 36, 100
5, 18528, Note_on_c, 9, 38, 100
5, 18536, Note_off_c, 9, 38, 64
5, 18536, Note_off_c, 9, 36, 64
5, 18536, Note_off_c, 9, 39, 64
5, 18552, Note_on_c, 9, 38, 100
5, 18560, Note_off_c, 9, 38, 64
5, 18576, Note_on_c, 9, 46, 100
5, 18576, Note_on_c, 9, 38, 100
5, 18584, Note_off_c, 9, 46, 64
5, 18584, Note_off_c, 9, 38, 64
5, 18600, Note_on_c, 9, 38, 100
5, 18608, Note_off_c, 9, 38, 64
5, 18624, Note_on_c, 9, 36, 100
5, 18624, Note_on_c, 9, 38, 100
5, 18632, Note_off_c, 9, 38, 64
5, 18632, Note_off_c, 9, 36, 64
5, 18648, Note_on_c, 9, 38, 100
5, 18656, Note_off_c, 9, 38, 64
5, 18672, Note_on_c, 9, 46, 100
5, 18672, Note_on_c, 9, 38, 100
5, 18680, Note_off_c, 9, 46, 64
5, 18680, Note_off_c, 9, 38, 64
5, 18696, Note_on_c, 9, 38, 100
5, 18704, Note_off_c, 9, 38, 64
5, 18720, Note_on_c, 9, 39, 100
5, 18720, Note_on_c, 9, 36, 100
5, 18720, Note_on_c, 9, 38, 100
5, 18728, Note_off_c, 9, 38, 64
5, 18728, Note_off_c, 9, 36, 64
5, 18728, Note_off_c, 9, 39, 64
5, 18744, Note_on_c, 9, 38, 100
5, 18752, Note_off_c, 9, 38, 64
5, 18768, Note_on_c, 9, 46, 100
5, 18768, Note_on_c, 9, 38, 100
5, 18776, Note_off_c, 9, 46, 64
5, 18776, Note_off_c, 9, 38, 64
5, 18792, Note_on_c, 9, 38, 100
5, 18800, Note_off_c, 9, 38, 64
5, 18816, Note_on_c, 9, 49, 100
5, 18816, Note_on_c, 9, 36, 100
5, 18816, Note_on_c, 9, 38, 100
5, 18816, Note_on_c, 9, 49, 100
5, 18824, Note_off_c, 9, 49, 64
5, 18824, Note_off_c, 9, 38, 64
5, 18824, Note_off_c, 9, 49, 64
5, 18824, Note_off_c, 9, 36, 64
5, 18840, Note_on_c, 9, 38, 100
5, 18848, Note_off_c, 9, 38, 64
5, 18864, Note_on_c, 9, 38, 100
5, 18872, Note_off_c, 9, 38, 64
5, 18888, Note_on_c, 9, 38, 100
5, 18896, Note_off_c, 9, 38, 64
5, 18912, Note_on_c, 9, 49, 100
5, 18912, Note_on_c, 9, 36, 100
5, 18912, Note_on_c, 9, 38, 100
5, 18912, Note_on_c, 9, 49, 91
5, 18920, Note_off_c, 9, 49, 64
5, 18920, Note_off_c, 9, 38, 64
5, 18920, Note_off_c, 9, 49, 64
5, 18920, Note_off_c, 9, 36, 64
5, 18936, Note_on_c, 9, 38, 100
5, 18944, Note_off_c, 9, 38, 64
5, 18960, Note_on_c, 9, 38, 100
5, 18968, Note_off_c, 9, 38, 64
5, 18984, Note_on_c, 9, 38, 100
5, 18992, Note_off_c, 9, 38, 64
5, 19008, Note_on_c, 9, 49, 100
5, 19008, Note_on_c, 9, 36, 100
5, 19008, Note_on_c, 9, 38, 100
5, 19008, Note_on_c, 9, 49, 81
5, 19016, Note_off_c, 9, 49, 64
5, 19016, Note_off_c, 9, 38, 64
5, 19016, Note_off_c, 9, 49, 64
5, 19016, Note_off_c, 9, 36, 64
5, 19032, Note_on_c, 9, 38, 100
5, 19040, Note_off_c, 9, 38, 64
5, 19056, Note_on_c, 9, 38, 100
5, 19064, Note_off_c, 9, 38, 64
5, 19080, Note_on_c, 9, 38, 100
5, 19088, Note_off_c, 9, 38, 64
5, 19104, Note_on_c, 9, 49, 100
5, 19104, Note_on_c, 9, 36, 100
5, 19104, Note_on_c, 9, 38, 100
5, 19104, Note_on_c, 9, 49, 81
5, 19112, Note_off_c, 9, 49, 64
5, 19112, Note_off_c, 9, 38, 64
5, 19112, Note_off_c, 9, 49, 64
5, 19112, Note_off_c, 9, 36, 64
5, 19128, Note_on_c, 9, 38, 100
5, 19136, Note_off_c, 9, 38, 64
5, 19152, Note_on_c, 9, 38, 100
5, 19160, Note_off_c, 9, 38, 64
5, 19176, Note_on_c, 9, 38, 100
5, 19184, Note_off_c, 9, 38, 64
5, 19200, Note_on_c, 9, 36, 100
5, 19208, Note_off_c, 9, 36, 64
5, 19248, Note_on_c, 9, 46, 100
5, 19256, Note_off_c, 9, 46, 64
5, 19296, Note_on_c, 9, 36, 100
5, 19296, Note_on_c, 9, 38, 100
5, 19296, Note_on_c, 9, 39, 100
5, 19304, Note_off_c, 9, 39, 64
5, 19304, Note_off_c, 9, 38, 64
5, 19304, Note_off_c, 9, 36, 64
5, 19344, Note_on_c, 9, 46, 100
5, 19352, Note_off_c, 9, 46, 64
5, 19392, Note_on_c, 9, 36, 100
5, 19400, Note_off_c, 9, 36, 64
5, 19440, Note_on_c, 9, 46, 100
5, 19448, Note_off_c, 9, 46, 64
5, 19488, Note_on_c, 9, 38, 100
5, 19488, Note_on_c, 9, 39, 100
5, 19488, Note_on_c, 9, 36, 100
5, 19496, Note_off_c, 9, 36, 64
5, 19496, Note_off_c, 9, 39, 64
5, 19496, Note_off_c, 9, 38, 64
5, 19536, Note_on_c, 9, 46, 100
5, 19544, Note_off_c, 9, 46, 64
5, 19584, Note_on_c, 9, 36, 100
5, 19592, Note_off_c, 9, 36, 64
5, 19632, Note_on_c, 9, 46, 100
5, 19640, Note_off_c, 9, 46, 64
5, 19680, Note_on_c, 9, 36, 100
5, 19680, Note_on_c, 9, 38, 100
5, 19680, Note_on_c, 9, 39, 100
5, 19688, Note_off_c, 9, 39, 64
5, 19688, Note_off_c, 9, 38, 64
5, 19688, Note_off_c, 9, 36, 64
5, 19728, Note_on_c, 9, 46, 100
5, 19736, Note_off_c, 9, 46, 64
5, 19776, Note_on_c, 9, 36, 100
5, 19784, Note_off_c, 9, 36, 64
5, 19824, Note_on_c, 9, 46, 100
5, 19832, Note_off_c, 9, 46, 64
5, 19872, Note_on_c, 9, 38, 100
5, 19872, Note_on_c, 9, 39, 100
5, 19872, Note_on_c, 9, 36, 100
5, 19880, Note_off_c, 9, 36, 64
5, 19880, Note_off_c, 9, 39, 64
5, 19880, Note_off_c, 9, 38, 64
5, 19920, Note_on_c, 9, 46, 100
5, 19928, Note_off_c, 9, 46, 64
5, 19968, Note_on_c, 9, 36, 100
5, 19976, Note_off_c, 9, 36, 64
5, 20016, Note_on_c, 9, 46, 100
5, 20024, Note_off_c, 9, 46, 64
5, 20064, Note_on_c, 9, 36, 100
5, 20064, Note_on_c, 9, 38, 100
5, 20064, Note_on_c, 9, 39, 100
5, 20072, Note_off_c, 9, 39, 64
5, 20072, Note_off_c, 9, 38, 64
5, 20072, Note_off_c, 9, 36, 64
5, 20112, Note_on_c, 9, 46, 100
5, 20120, Note_off_c, 9, 46, 64
5, 20160, Note_on_c, 9, 36, 100
5, 20168, Note_off_c, 9, 36, 64
5, 20208, Note_on_c, 9, 46, 100
5, 20216, Note_off_c, 9, 46, 64
5, 20256, Note_on_c, 9, 38, 100
5, 20256, Note_on_c, 9, 39, 100
5, 20256, Note_on_c, 9, 36, 100
5, 20264, Note_off_c, 9, 36, 64
5, 20264, Note_off_c, 9, 39, 64
5, 20264, Note_off_c, 9, 38, 64
5, 20304, Note_on_c, 9, 46, 100
5, 20312, Note_off_c, 9, 46, 64
5, 20352, Note_on_c, 9, 36, 100
5, 20360, Note_off_c, 9, 36, 64
5, 20400, Note_on_c, 9, 46, 100
5, 20408, Note_off_c, 9, 46, 64
5, 20448, Note_on_c, 9, 36, 100
5, 20448, Note_on_c, 9, 38, 100
5, 20448, Note_on_c, 9, 39, 100
5, 20456, Note_off_c, 9, 39, 64
5, 20456, Note_off_c, 9, 38, 64
5, 20456, Note_off_c, 9, 36, 64
5, 20496, Note_on_c, 9, 46, 100
5, 20504, Note_off_c, 9, 46, 64
5, 20544, Note_on_c, 9, 36, 100
5, 20552, Note_off_c, 9, 36, 64
5, 20592, Note_on_c, 9, 46, 100
5, 20600, Note_off_c, 9, 46, 64
5, 20640, Note_on_c, 9, 38, 100
5, 20640, Note_on_c, 9, 39, 100
5, 20640, Note_on_c, 9, 36, 100
5, 20648, Note_off_c, 9, 36, 64
5, 20648, Note_off_c, 9, 39, 64
5, 20648, Note_off_c, 9, 38, 64
5, 20688, Note_on_c, 9, 46, 100
5, 20696, Note_off_c, 9, 46, 64
5, 20736, Note_on_c, 9, 36, 100
5, 20744, Note_off_c, 9, 36, 64
5, 20784, Note_on_c, 9, 46, 100
5, 20792, Note_off_c, 9, 46, 64
5, 20832, Note_on_c, 9, 36, 100
5, 20840, Note_off_c, 9, 36, 64
5, 20880, Note_on_c, 9, 46, 100
5, 20888, Note_off_c, 9, 46, 64
5, 20928, Note_on_c, 9, 36, 100
5, 20936, Note_off_c, 9, 36, 64
5, 20976, Note_on_c, 9, 46, 100
5, 20984, Note_off_c, 9, 46, 64
5, 21024, Note_on_c, 9, 36, 100
5, 21032, Note_off_c, 9, 36, 64
5, 21072, Note_on_c, 9, 46, 100
5, 21080, Note_off_c, 9, 46, 64
5, 21120, Note_on_c, 9, 36, 100
5, 21128, Note_off_c, 9, 36, 64
5, 21168, Note_on_c, 9, 46, 100
5, 21176, Note_off_c, 9, 46, 64
5, 21216, Note_on_c, 9, 36, 100
5, 21216, Note_on_c, 9, 38, 100
5, 21216, Note_on_c, 9, 39, 100
5, 21224, Note_off_c, 9, 39, 64
5, 21224, Note_off_c, 9, 38, 64
5, 21224, Note_off_c, 9, 36, 64
5, 21264, Note_on_c, 9, 46, 100
5, 21272, Note_off_c, 9, 46, 64
5, 21312, Note_on_c, 9, 36, 100
5, 21320, Note_off_c, 9, 36, 64
5, 21360, Note_on_c, 9, 46, 100
5, 21368, Note_off_c, 9, 46, 64
5, 21408, Note_on_c, 9, 38, 100
5, 21408, Note_on_c, 9, 39, 100
5, 21408, Note_on_c, 9, 36, 100
5, 21416, Note_off_c, 9, 36, 64
5, 21416, Note_off_c, 9, 39, 64
5, 21416, Note_off_c, 9, 38, 64
5, 21456, Note_on_c, 9, 46, 100
5, 21464, Note_off_c, 9, 46, 64
5, 21504, Note_on_c, 9, 36, 100
5, 21512, Note_off_c, 9, 36, 64
5, 21552, Note_on_c, 9, 46, 100
5, 21560, Note_off_c, 9, 46, 64
5, 21600, Note_on_c, 9, 36, 100
5, 21600, Note_on_c, 9, 38, 100
5, 21600, Note_on_c, 9, 39, 100
5, 21608, Note_off_c, 9, 39, 64
5, 21608, Note_off_c, 9, 38, 64
5, 21608, Note_off_c, 9, 36, 64
5, 21648, Note_on_c, 9, 46, 100
5, 21656, Note_off_c, 9, 46, 64
5, 21696, Note_on_c, 9, 36, 100
5, 21704, Note_off_c, 9, 36, 64
5, 21744, Note_on_c, 9, 46, 100
5, 21752, Note_off_c, 9, 46, 64
5, 21792, Note_on_c, 9, 38, 100
5, 21792, Note_on_c, 9, 39, 100
5, 21792, Note_on_c, 9, 36, 100
5, 21800, Note_off_c, 9, 36, 64
5, 21800, Note_off_c, 9, 39, 64
5, 21800, Note_off_c, 9, 38, 64
5, 21840, Note_on_c, 9, 46, 100
5, 21848, Note_off_c, 9, 46, 64
5, 21888, Note_on_c, 9, 49, 100
5, 21888, Note_on_c, 9, 36, 100
5, 21896, Note_off_c, 9, 36, 64
5, 21896, Note_off_c, 9, 49, 64
5, 21936, Note_on_c, 9, 46, 100
5, 21944, Note_off_c, 9, 46, 64
5, 21984, Note_on_c, 9, 49, 91
5, 21984, Note_on_c, 9, 36, 100
5, 21984, Note_on_c, 9, 38, 100
5, 21984, Note_on_c, 9, 39, 100
5, 21992, Note_off_c, 9, 39, 64
5, 21992, Note_off_c, 9, 38, 64
5, 21992, Note_off_c, 9, 36, 64
5, 21992, Note_off_c, 9, 49, 64
5, 22032, Note_on_c, 9, 46, 100
5, 22040, Note_off_c, 9, 46, 64
5, 22080, Note_on_c, 9, 49, 81
5, 22080, Note_on_c, 9, 36, 100
5, 22088, Note_off_c, 9, 36, 64
5, 22088, Note_off_c, 9, 49, 64
5, 22128, Note_on_c, 9, 46, 100
5, 22136, Note_off_c, 9, 46, 64
5, 22176, Note_on_c, 9, 49, 81
5, 22176, Note_on_c, 9, 38, 100
5, 22176, Note_on_c, 9, 39, 100
5, 22176, Note_on_c, 9, 36, 100
5, 22184, Note_off_c, 9, 36, 64
5, 22184, Note_off_c, 9, 39, 64
5, 22184, Note_off_c, 9, 38, 64
5, 22184, Note_off_c, 9, 49, 64
5, 22224, Note_on_c, 9, 46, 100
5, 22232, Note_off_c, 9, 46, 64
5, 22272, Note_on_c, 9, 36, 100
5, 22280, Note_off_c, 9, 36, 64
5, 22320, Note_on_c, 9, 46, 100
5, 22328, Note_off_c, 9, 46, 64
5, 22368, Note_on_c, 9, 36, 100
5, 22368, Note_on_c, 9, 38, 100
5, 22368, Note_on_c, 9, 39, 100
5, 22376, Note_off_c, 9, 39, 64
5, 22376, Note_off_c, 9, 38, 64
5, 22376, Note_off_c, 9, 36, 64
5, 22416, Note_on_c, 9, 46, 100
5, 22424, Note_off_c, 9, 46, 64
5, 22464, Note_on_c, 9, 36, 100
5, 22472, Note_off_c, 9, 36, 64
5, 22512, Note_on_c, 9, 46, 100
5, 22520, Note_off_c, 9, 46, 64
5, 22560, Note_on_c, 9, 38, 100
5, 22560, Note_on_c, 9, 39, 100
5, 22560, Note_on_c, 9, 36, 100
5, 22568, Note_off_c, 9, 36, 64
5, 22568, Note_off_c, 9, 39, 64
5, 22568, Note_off_c, 9, 38, 64
5, 22608, Note_on_c, 9, 46, 100
5, 22616, Note_off_c, 9, 46, 64
5, 22656, Note_on_c, 9, 36, 100
5, 22664, Note_off_c, 9, 36, 64
5, 22704, Note_on_c, 9, 46, 100
5, 22712, Note_off_c, 9, 46, 64
5, 22752, Note_on_c, 9, 36, 100
5, 22752, Note_on_c, 9, 38, 100
5, 22752, Note_on_c, 9, 39, 100
5, 22760, Note_off_c, 9, 39, 64
5, 22760, Note_off_c, 9, 38, 64
5, 22760, Note_off_c, 9, 36, 64
5, 22800, Note_on_c, 9, 46, 100
5, 22808, Note_off_c, 9, 46, 64
5, 22848, Note_on_c, 9, 36, 100
5, 22856, Note_off_c, 9, 36, 64
5, 22896, Note_on_c, 9, 46, 100
5, 22904, Note_off_c, 9, 46, 64
5, 22944, Note_on_c, 9, 38, 100
5, 22944, Note_on_c, 9, 39, 100
5, 22944, Note_on_c, 9, 36, 100
5, 22952, Note_off_c, 9, 36, 64
5, 22952, Note_off_c, 9, 39, 64
5, 22952, Note_off_c, 9, 38, 64
5, 22992, Note_on_c, 9, 46, 100
5, 23000, Note_off_c, 9, 46, 64
5, 23040, Note_on_c, 9, 36, 100
5, 23048, Note_off_c, 9, 36, 64
5, 23088, Note_on_c, 9, 46, 100
5, 23096, Note_off_c, 9, 46, 64
5, 23136, Note_on_c, 9, 36, 100
5, 23136, Note_on_c, 9, 38, 100
5, 23136, Note_on_c, 9, 39, 100
5, 23144, Note_off_c, 9, 39, 64
5, 23144, Note_off_c, 9, 38, 64
5, 23144, Note_off_c, 9, 36, 64
5, 23184, Note_on_c, 9, 46, 100
5, 23192, Note_off_c, 9, 46, 64
5, 23232, Note_on_c, 9, 36, 100
5, 23240, Note_off_c, 9, 36, 64
5, 23280, Note_on_c, 9, 46, 100
5, 23288, Note_off_c, 9, 46, 64
5, 23328, Note_on_c, 9, 38, 100
5, 23328, Note_on_c, 9, 39, 100
5, 23328, Note_on_c, 9, 36, 100
5, 23336, Note_off_c, 9, 36, 64
5, 23336, Note_off_c, 9, 39, 64
5, 23336, Note_off_c, 9, 38, 64
5, 23376, Note_on_c, 9, 46, 100
5, 23384, Note_off_c, 9, 46, 64
5, 23424, Note_on_c, 9, 36, 100
5, 23432, Note_off_c, 9, 36, 64
5, 23472, Note_on_c, 9, 46, 100
5, 23480, Note_off_c, 9, 46, 64
5, 23520, Note_on_c, 9, 36, 100
5, 23520, Note_on_c, 9, 38, 100
5, 23520, Note_on_c, 9, 39, 100
5, 23528, Note_off_c, 9, 39, 64
5, 23528, Note_off_c, 9, 38, 64
5, 23528, Note_off_c, 9, 36, 64
5, 23568, Note_on_c, 9, 46, 100
5, 23576, Note_off_c, 9, 46, 64
5, 23616, Note_on_c, 9, 36, 100
5, 23624, Note_off_c, 9, 36, 64
5, 23664, Note_on_c, 9, 46, 100
5, 23672, Note_off_c, 9, 46, 64
5, 23712, Note_on_c, 9, 38, 100
5, 23712, Note_on_c, 9, 39, 100
5, 23712, Note_on_c, 9, 36, 100
5, 23720, Note_off_c, 9, 36, 64
5, 23720, Note_off_c, 9, 39, 64
5, 23720, Note_off_c, 9, 38, 64
5, 23760, Note_on_c, 9, 46, 100
5, 23768, Note_off_c, 9, 46, 64
5, 23808, Note_on_c, 9, 36, 100
5, 23816, Note_off_c, 9, 36, 64
5, 23856, Note_on_c, 9, 46, 100
5, 23864, Note_off_c, 9, 46, 64
5, 23904, Note_on_c, 9, 36, 100
5, 23904, Note_on_c, 9, 38, 100
5, 23904, Note_on_c, 9, 39, 100
5, 23912, Note_off_c, 9, 39, 64
5, 23912, Note_off_c, 9, 38, 64
5, 23912, Note_off_c, 9, 36, 64
5, 23952, Note_on_c, 9, 46, 100
5, 23960, Note_off_c, 9, 46, 64
5, 24000, Note_on_c, 9, 36, 100
5, 24008, Note_off_c, 9, 36, 64
5, 24048, Note_on_c, 9, 46, 100
5, 24056, Note_off_c, 9, 46, 64
5, 24096, Note_on_c, 9, 38, 100
5, 24096, Note_on_c, 9, 39, 100
5, 24096, Note_on_c, 9, 36, 100
5, 24104, Note_off_c, 9, 36, 64
5, 24104, Note_off_c, 9, 39, 64
5, 24104, Note_off_c, 9, 38, 64
5, 24144, Note_on_c, 9, 46, 100
5, 24152, Note_off_c, 9, 46, 64
5, 24192, Note_on_c, 9, 36, 100
5, 24200, Note_off_c, 9, 36, 64
5, 24240, Note_on_c, 9, 46, 100
5, 24248, Note_off_c, 9, 46, 64
5, 24288, Note_on_c, 9, 36, 100
5, 24288, Note_on_c, 9, 38, 100
5, 24288, Note_on_c, 9, 39, 100
5, 24296, Note_off_c, 9, 39, 64
5, 24296, Note_off_c, 9, 38, 64
5, 24296, Note_off_c, 9, 36, 64
5, 24336, Note_on_c, 9, 46, 100
5, 24344, Note_off_c, 9, 46, 64
5, 24384, Note_on_c, 9, 36, 100
5, 24392, Note_off_c, 9, 36, 64
5, 24432, Note_on_c, 9, 46, 100
5, 24440, Note_off_c, 9, 46, 64
5, 24480, Note_on_c, 9, 38, 100
5, 24480, Note_on_c, 9, 39, 100
5, 24480, Note_on_c, 9, 36, 100
5, 24488, Note_off_c, 9, 36, 64
5, 24488, Note_off_c, 9, 39, 64
5, 24488, Note_off_c, 9, 38, 64
5, 24528, Note_on_c, 9, 46, 100
5, 24536, Note_off_c, 9, 46, 64
5, 24576, Note_on_c, 9, 36, 100
5, 24584, Note_off_c, 9, 36, 64
5, 24624, Note_on_c, 9, 46, 100
5, 24632, Note_off_c, 9, 46, 64
5, 24672, Note_on_c, 9, 36, 100
5, 24672, Note_on_c, 9, 38, 100
5, 24672, Note_on_c, 9, 39, 100
5, 24680, Note_off_c, 9, 39, 64
5, 24680, Note_off_c, 9, 38, 64
5, 24680, Note_off_c, 9, 36, 64
5, 24720, Note_on_c, 9, 46, 100
5, 24728, Note_off_c, 9, 46, 64
5, 24768, Note_on_c, 9, 36, 100
5, 24776, Note_off_c, 9, 36, 64
5, 24816, Note_on_c, 9, 46, 100
5, 24824, Note_off_c, 9, 46, 64
5, 24864, Note_on_c, 9, 38, 100
5, 24864, Note_on_c, 9, 39, 100
5, 24864, Note_on_c, 9, 36, 100
5, 24872, Note_off_c, 9, 36, 64
5, 24872, Note_off_c, 9, 39, 64
5, 24872, Note_off_c, 9, 38, 64
5, 24912, Note_on_c, 9, 46, 100
5, 24920, Note_off_c, 9, 46, 64
5, 24960, Note_on_c, 9, 36, 100
5, 24968, Note_off_c, 9, 36, 64
5, 25008, Note_on_c, 9, 46, 100
5, 25016, Note_off_c, 9, 46, 64
5, 25056, Note_on_c, 9, 36, 100
5, 25056, Note_on_c, 9, 38, 100
5, 25056, Note_on_c, 9, 39, 100
5, 25064, Note_off_c, 9, 39, 64
5, 25064, Note_off_c, 9, 38, 64
5, 25064, Note_off_c, 9, 36, 64
5, 25104, Note_on_c, 9, 46, 100
5, 25112, Note_off_c, 9, 46, 64
5, 25152, Note_on_c, 9, 36, 100
5, 25160, Note_off_c, 9, 36, 64
5, 25200, Note_on_c, 9, 46, 100
5, 25208, Note_off_c, 9, 46, 64
5, 25248, Note_on_c, 9, 38, 100
5, 25248, Note_on_c, 9, 39, 100
5, 25248, Note_on_c, 9, 36, 100
5, 25256, Note_off_c, 9, 36, 64
5, 25256, Note_off_c, 9, 39, 64
5, 25256, Note_off_c, 9, 38, 64
5, 25296, Note_on_c, 9, 46, 100
5, 25304, Note_off_c, 9, 46, 64
5, 25344, Note_on_c, 9, 36, 100
5, 25352, Note_off_c, 9, 36, 64
5, 25392, Note_on_c, 9, 46, 100
5, 25400, Note_off_c, 9, 46, 64
5, 25440, Note_on_c, 9, 36, 100
5, 25440, Note_on_c, 9, 38, 100
5, 25440, Note_on_c, 9, 39, 100
5, 25448, Note_off_c, 9, 39, 64
5, 25448, Note_off_c, 9, 38, 64
5, 25448, Note_off_c, 9, 36, 64
5, 25488, Note_on_c, 9, 46, 100
5, 25496, Note_off_c, 9, 46, 64
5, 25536, Note_on_c, 9, 36, 100
5, 25544, Note_off_c, 9, 36, 64
5, 25584, Note_on_c, 9, 46, 100
5, 25592, Note_off_c, 9, 46, 64
5, 25632, Note_on_c, 9, 38, 100
5, 25632, Note_on_c, 9, 39, 100
5, 25632, Note_on_c, 9, 36, 100
5, 25640, Note_off_c, 9, 36, 64
5, 25640, Note_off_c, 9, 39, 64
5, 25640, Note_off_c, 9, 38, 64
5, 25680, Note_on_c, 9, 46, 100
5, 25688, Note_off_c, 9, 46, 64
5, 25728, Note_on_c, 9, 36, 100
5, 25736, Note_off_c, 9, 36, 64
5, 25776, Note_on_c, 9, 46, 100
5, 25784, Note_off_c, 9, 46, 64
5, 25824, Note_on_c, 9, 36, 100
5, 25824, Note_on_c, 9, 38, 100
5, 25824, Note_on_c, 9, 39, 100
5, 25832, Note_off_c, 9, 39, 64
5, 25832, Note_off_c, 9, 38, 64
5, 25832, Note_off_c, 9, 36, 64
5, 25872, Note_on_c, 9, 46, 100
5, 25880, Note_off_c, 9, 46, 64
5, 25920, Note_on_c, 9, 36, 100
5, 25928, Note_off_c, 9, 36, 64
5, 25968, Note_on_c, 9, 46, 100
5, 25976, Note_off_c, 9, 46, 64
5, 26016, Note_on_c, 9, 38, 100
5, 26016, Note_on_c, 9, 39, 100
5, 26016, Note_on_c, 9, 36, 100
5, 26024, Note_off_c, 9, 36, 64
5, 26024, Note_off_c, 9, 39, 64
5, 26024, Note_off_c, 9, 38, 64
5, 26064, Note_on_c, 9, 46, 100
5, 26072, Note_off_c, 9, 46, 64
5, 26112, Note_on_c, 9, 36, 100
5, 26120, Note_off_c, 9, 36, 64
5, 26160, Note_on_c, 9, 46, 100
5, 26168, Note_off_c, 9, 46, 64
5, 26208, Note_on_c, 9, 36, 100
5, 26208, Note_on_c, 9, 38, 100
5, 26208, Note_on_c, 9, 39, 100
5, 26216, Note_off_c, 9, 39, 64
5, 26216, Note_off_c, 9, 38, 64
5, 26216, Note_off_c, 9, 36, 64
5, 26256, Note_on_c, 9, 46, 100
5, 26264, Note_off_c, 9, 46, 64
5, 26304, Note_on_c, 9, 36, 100
5, 26312, Note_off_c, 9, 36, 64
5, 26352, Note_on_c, 9, 46, 100
5, 26360, Note_off_c, 9, 46, 64
5, 26400, Note_on_c, 9, 38, 100
5, 26400, Note_on_c, 9, 39, 100
5, 26400, Note_on_c, 9, 36, 100
5, 26408, Note_off_c, 9, 36, 64
5, 26408, Note_off_c, 9, 39, 64
5, 26408, Note_off_c, 9, 38, 64
5, 26448, Note_on_c, 9, 46, 100
5, 26456, Note_off_c, 9, 46, 64
5, 26496, Note_on_c, 9, 36, 100
5, 26504, Note_off_c, 9, 36, 64
5, 26544, Note_on_c, 9, 46, 100
5, 26552, Note_off_c, 9, 46, 64
5, 26592, Note_on_c, 9, 36, 100
5, 26592, Note_on_c, 9, 38, 100
5, 26592, Note_on_c, 9, 39, 100
5, 26600, Note_off_c, 9, 39, 64
5, 26600, Note_off_c, 9, 38, 64
5, 26600, Note_off_c, 9, 36, 64
5, 26640, Note_on_c, 9, 46, 100
5, 26648, Note_off_c, 9, 46, 64
5, 26688, Note_on_c, 9, 36, 100
5, 26696, Note_off_c, 9, 36, 64
5, 26736, Note_on_c, 9, 46, 100
5, 26744, Note_off_c, 9, 46, 64
5, 26784, Note_on_c, 9, 38, 100
5, 26784, Note_on_c, 9, 39, 100
5, 26784, Note_on_c, 9, 36, 100
5, 26792, Note_off_c, 9, 36, 64
5, 26792, Note_off_c, 9, 39, 64
5, 26792, Note_off_c, 9, 38, 64
5, 26832, Note_on_c, 9, 46, 100
5, 26840, Note_off_c, 9, 46, 64
5, 26880, Note_on_c, 9, 36, 100
5, 26888, Note_off_c, 9, 36, 64
5, 26928, Note_on_c, 9, 46, 100
5, 26936, Note_off_c, 9, 46, 64
5, 26976, Note_on_c, 9, 36, 100
5, 26984, Note_off_c, 9, 36, 64
5, 27024, Note_on_c, 9, 46, 100
5, 27032, Note_off_c, 9, 46, 64
5, 27072, Note_on_c, 9, 36, 100
5, 27080, Note_off_c, 9, 36, 64
5, 27120, Note_on_c, 9, 46, 100
5, 27128, Note_off_c, 9, 46, 64
5, 27168, Note_on_c, 9, 36, 100
5, 27176, Note_off_c, 9, 36, 64
5, 27216, Note_on_c, 9, 46, 100
5, 27224, Note_off_c, 9, 46, 64
5, 27264, Note_on_c, 9, 36, 100
5, 27272, Note_off_c, 9, 36, 64
5, 27312, Note_on_c, 9, 46, 100
5, 27320, Note_off_c, 9, 46, 64
5, 27360, Note_on_c, 9, 36, 100
5, 27360, Note_on_c, 9, 38, 100
5, 27360, Note_on_c, 9, 39, 100
5, 27368, Note_off_c, 9, 39, 64
5, 27368, Note_off_c, 9, 38, 64
5, 27368, Note_off_c, 9, 36, 64
5, 27408, Note_on_c, 9, 46, 100
5, 27416, Note_off_c, 9, 46, 64
5, 27456, Note_on_c, 9, 36, 100
5, 27464, Note_off_c, 9, 36, 64
5, 27504, Note_on_c, 9, 46, 100
5, 27512, Note_off_c, 9, 46, 64
5, 27552, Note_on_c, 9, 38, 100
5, 27552, Note_on_c, 9, 39, 100
5, 27552, Note_on_c, 9, 36, 100
5, 27560, Note_off_c, 9, 36, 64
5, 27560, Note_off_c, 9, 39, 64
5, 27560, Note_off_c, 9, 38, 64
5, 27600, Note_on_c, 9, 46, 100
5, 27608, Note_off_c, 9, 46, 64
5, 27648, Note_on_c, 9, 36, 100
5, 27656, Note_off_c, 9, 36, 64
5, 27696, Note_on_c, 9, 46, 100
5, 27704, Note_off_c, 9, 46, 64
5, 27744, Note_on_c, 9, 36, 100
5, 27744, Note_on_c, 9, 38, 100
5, 27744, Note_on_c, 9, 39, 100
5, 27752, Note_off_c, 9, 39, 64
5, 27752, Note_off_c, 9, 38, 64
5, 27752, Note_off_c, 9, 36, 64
5, 27792, Note_on_c, 9, 46, 100
5, 27800, Note_off_c, 9, 46, 64
5, 27840, Note_on_c, 9, 36, 100
5, 27848, Note_off_c, 9, 36, 64
5, 27888, Note_on_c, 9, 46, 100
5, 27896, Note_off_c, 9, 46, 64
5, 27936, Note_on_c, 9, 38, 100
5, 27936, Note_on_c, 9, 39, 100
5, 27936, Note_on_c, 9, 36, 100
5, 27944, Note_off_c, 9, 36, 64
5, 27944, Note_off_c, 9, 39, 64
5, 27944, Note_off_c, 9, 38, 64
5, 27984, Note_on_c, 9, 46, 100
5, 27992, Note_off_c, 9, 46, 64
5, 28032, Note_on_c, 9, 36, 100
5, 28040, Note_off_c, 9, 36, 64
5, 28080, Note_on_c, 9, 46, 100
5, 28088, Note_off_c, 9, 46, 64
5, 28128, Note_on_c, 9, 36, 100
5, 28128, Note_on_c, 9, 38, 100
5, 28128, Note_on_c, 9, 39, 100
5, 28136, Note_off_c, 9, 39, 64
5, 28136, Note_off_c, 9, 38, 64
5, 28136, Note_off_c, 9, 36, 64
5, 28176, Note_on_c, 9, 46, 100
5, 28184, Note_off_c, 9, 46, 64
5, 28224, Note_on_c, 9, 36, 100
5, 28232, Note_off_c, 9, 36, 64
5, 28272, Note_on_c, 9, 46, 100
5, 28280, Note_off_c, 9, 46, 64
5, 28320, Note_on_c, 9, 38, 100
5, 28320, Note_on_c, 9, 39, 100
5, 28320, Note_on_c, 9, 36, 100
5, 28328, Note_off_c, 9, 36, 64
5, 28328, Note_off_c, 9, 39, 64
5, 28328, Note_off_c, 9, 38, 64
5, 28368, Note_on_c, 9, 46, 100
5, 28376, Note_off_c, 9, 46, 64
5, 29171, Control_c, 9, 101, 0
5, 29171, Control_c, 9, 100, 0
5, 29171, Control_c, 9, 6, 12
5, 29171, Control_c, 9, 0, 0
5, 29171, Control_c, 9, 32, 3
5, 29171, Control_c, 9, 10, 64
5, 29171, Control_c, 9, 7, 100
5, 29171, Pitch_bend_c, 9, 8192
5, 29171, Program_c, 9, 30
5, 29171, Control_c, 9, 101, 0
5, 29171, Control_c, 9, 100, 0
5, 29171, Control_c, 9, 6, 12
5, 29171, Control_c, 9, 0, 0
5, 29171, Control_c, 9, 32, 3
5, 29171, Control_c, 9, 10, 64
5, 29171, Control_c, 9, 7, 100
5, 29171, Pitch_bend_c, 9, 8192
5, 29171, Program_c, 9, 30
5, 29171, Control_c, 9, 101, 0
5, 29171, Control_c, 9, 100, 0
5, 29171, Control_c, 9, 6, 12
5, 29171, Control_c, 9, 0, 0
5, 29171, Control_c, 9, 32, 3
5, 29171, Control_c, 9, 10, 64
5, 29171, Control_c, 9, 7, 100
5, 29171, Pitch_bend_c, 9, 8192
5, 29171, Program_c, 9, 30
5, 29171, End_track
6, 0, Start_track
6, 0, Title_t, "SynthBass"
6, 0, Control_c, 2, 10, 64
6, 0, Control_c, 2, 7, 127
6, 0, Pitch_bend_c, 2, 8192
6, 0, Control_c, 2, 101, 0
6, 0, Control_c, 2, 100, 0
6, 0, Control_c, 2, 6, 12
6, 0, Control_c, 2, 0, 15
6, 0, Control_c, 2, 32, 4
6, 0, Control_c, 2, 10, 64
6, 0, Control_c, 2, 7, 127
6, 0, Pitch_bend_c, 2, 8192
6, 0, Program_c, 2, 38
6, 0, Control_c, 2, 101, 0
6, 0, Control_c, 2, 100, 0
6, 0, Control_c, 2, 6, 12
6, 0, Control_c, 2, 0, 15
6, 0, Control_c, 2, 32, 4
6, 0, Control_c, 2, 10, 64
6, 0, Control_c, 2, 7, 127
6, 0, Pitch_bend_c, 2, 8192
6, 0, Program_c, 2, 38
6, 48, Note_on_c, 2, 33, 81
6, 98, Note_off_c, 2, 33, 64
6, 144, Note_on_c, 2, 33, 81
6, 194, Note_off_c, 2, 33, 64
6, 240, Note_on_c, 2, 33, 81
6, 290, Note_off_c, 2, 33, 64
6, 336, Note_on_c, 2, 33, 81
6, 386, Note_off_c, 2, 33, 64
6, 432, Note_on_c, 2, 33, 81
6, 482, Note_off_c, 2, 33, 64
6, 528, Note_on_c, 2, 33, 81
6, 578, Note_off_c, 2, 33, 64
6, 624, Note_on_c, 2, 37, 81
6, 674, Note_off_c, 2, 37, 64
6, 720, Note_on_c, 2, 37, 81
6, 768, Note_off_c, 2, 37, 64
6, 816, Note_on_c, 2, 33, 81
6, 866, Note_off_c, 2, 33, 64
6, 912, Note_on_c, 2, 33, 81
6, 962, Note_off_c, 2, 33, 64
6, 1008, Note_on_c, 2, 33, 81
6, 1058, Note_off_c, 2, 33, 64
6, 1104, Note_on_c, 2, 33, 81
6, 1154, Note_off_c, 2, 33, 64
6, 1200, Note_on_c, 2, 33, 81
6, 1250, Note_off_c, 2, 33, 64
6, 1296, Note_on_c, 2, 33, 81
6, 1346, Note_off_c, 2, 33, 64
6, 1392, Note_on_c, 2, 37, 81
6, 1442, Note_off_c, 2, 37, 64
6, 1488, Note_on_c, 2, 35, 81
6, 1538, Note_off_c, 2, 35, 64
6, 1584, Note_on_c, 2, 35, 81
6, 1634, Note_off_c, 2, 35, 64
6, 1680, Note_on_c, 2, 35, 81
6, 1730, Note_off_c, 2, 35, 64
6, 1776, Note_on_c, 2, 35, 81
6, 1826, Note_off_c, 2, 35, 64
6, 1872, Note_on_c, 2, 35, 81
6, 1922, Note_off_c, 2, 35, 64
6, 1968, Note_on_c, 2, 35, 81
6, 2018, Note_off_c, 2, 35, 64
6, 2064, Note_on_c, 2, 35, 81
6, 2114, Note_off_c, 2, 35, 64
6, 2160, Note_on_c, 2, 37, 81
6, 2210, Note_off_c, 2, 37, 64
6, 2256, Note_on_c, 2, 38, 81
6, 2306, Note_off_c, 2, 38, 64
6, 2352, Note_on_c, 2, 38, 81
6, 2402, Note_off_c, 2, 38, 64
6, 2448, Note_on_c, 2, 38, 81
6, 2498, Note_off_c, 2, 38, 64
6, 2544, Note_on_c, 2, 38, 81
6, 2594, Note_off_c, 2, 38, 64
6, 2640, Note_on_c, 2, 38, 81
6, 2690, Note_off_c, 2, 38, 64
6, 2736, Note_on_c, 2, 38, 81
6, 2786, Note_off_c, 2, 38, 64
6, 2832, Note_on_c, 2, 38, 81
6, 2882, Note_off_c, 2, 38, 64
6, 2928, Note_on_c, 2, 38, 81
6, 2978, Note_off_c, 2, 38, 64
6, 3024, Note_on_c, 2, 38, 81
6, 3074, Note_off_c, 2, 38, 64
6, 3120, Note_on_c, 2, 33, 81
6, 3170, Note_off_c, 2, 33, 64
6, 3216, Note_on_c, 2, 33, 81
6, 3266, Note_off_c, 2, 33, 64
6, 3312, Note_on_c, 2, 33, 81
6, 3362, Note_off_c, 2, 33, 64
6, 3408, Note_on_c, 2, 33, 81
6, 3458, Note_off_c, 2, 33, 64
6, 3504, Note_on_c, 2, 33, 81
6, 3554, Note_off_c, 2, 33, 64
6, 3600, Note_on_c, 2, 33, 81
6, 3650, Note_off_c, 2, 33, 64
6, 3696, Note_on_c, 2, 33, 81
6, 3746, Note_off_c, 2, 33, 64
6, 3792, Note_on_c, 2, 33, 81
6, 3840, Note_off_c, 2, 33, 64
6, 3888, Note_on_c, 2, 33, 81
6, 3938, Note_off_c, 2, 33, 64
6, 3984, Note_on_c, 2, 33, 81
6, 4034, Note_off_c, 2, 33, 64
6, 4080, Note_on_c, 2, 33, 81
6, 4130, Note_off_c, 2, 33, 64
6, 4176, Note_on_c, 2, 33, 81
6, 4226, Note_off_c, 2, 33, 64
6, 4272, Note_on_c, 2, 33, 81
6, 4322, Note_off_c, 2, 33, 64
6, 4368, Note_on_c, 2, 33, 81
6, 4418, Note_off_c, 2, 33, 64
6, 4464, Note_on_c, 2, 37, 81
6, 4514, Note_off_c, 2, 37, 64
6, 4560, Note_on_c, 2, 35, 81
6, 4610, Note_off_c, 2, 35, 64
6, 4656, Note_on_c, 2, 35, 81
6, 4706, Note_off_c, 2, 35, 64
6, 4752, Note_on_c, 2, 35, 81
6, 4802, Note_off_c, 2, 35, 64
6, 4848, Note_on_c, 2, 35, 81
6, 4898, Note_off_c, 2, 35, 64
6, 4944, Note_on_c, 2, 35, 81
6, 4994, Note_off_c, 2, 35, 64
6, 5040, Note_on_c, 2, 35, 81
6, 5090, Note_off_c, 2, 35, 64
6, 5136, Note_on_c, 2, 35, 81
6, 5186, Note_off_c, 2, 35, 64
6, 5232, Note_on_c, 2, 37, 81
6, 5282, Note_off_c, 2, 37, 64
6, 5328, Note_on_c, 2, 38, 81
6, 5378, Note_off_c, 2, 38, 64
6, 5424, Note_on_c, 2, 38, 81
6, 5474, Note_off_c, 2, 38, 64
6, 5520, Note_on_c, 2, 38, 81
6, 5570, Note_off_c, 2, 38, 64
6, 5616, Note_on_c, 2, 38, 81
6, 5666, Note_off_c, 2, 38, 64
6, 5712, Note_on_c, 2, 38, 81
6, 5762, Note_off_c, 2, 38, 64
6, 5808, Note_on_c, 2, 38, 81
6, 5858, Note_off_c, 2, 38, 64
6, 5904, Note_on_c, 2, 38, 81
6, 5954, Note_off_c, 2, 38, 64
6, 6000, Note_on_c, 2, 38, 81
6, 6050, Note_off_c, 2, 38, 64
6, 6096, Note_on_c, 2, 38, 81
6, 6146, Note_off_c, 2, 38, 64
6, 6192, Note_on_c, 2, 33, 81
6, 6242, Note_off_c, 2, 33, 64
6, 6288, Note_on_c, 2, 33, 81
6, 6338, Note_off_c, 2, 33, 64
6, 6384, Note_on_c, 2, 33, 81
6, 6434, Note_off_c, 2, 33, 64
6, 6480, Note_on_c, 2, 33, 81
6, 6528, Note_off_c, 2, 33, 64
6, 6960, Note_on_c, 2, 33, 81
6, 7010, Note_off_c, 2, 33, 64
6, 7056, Note_on_c, 2, 33, 81
6, 7106, Note_off_c, 2, 33, 64
6, 7152, Note_on_c, 2, 33, 81
6, 7202, Note_off_c, 2, 33, 64
6, 7248, Note_on_c, 2, 33, 81
6, 7298, Note_off_c, 2, 33, 64
6, 7344, Note_on_c, 2, 33, 81
6, 7394, Note_off_c, 2, 33, 64
6, 7440, Note_on_c, 2, 33, 81
6, 7490, Note_off_c, 2, 33, 64
6, 7536, Note_on_c, 2, 37, 81
6, 7586, Note_off_c, 2, 37, 64
6, 7632, Note_on_c, 2, 35, 81
6, 7682, Note_off_c, 2, 35, 64
6, 7728, Note_on_c, 2, 35, 81
6, 7778, Note_off_c, 2, 35, 64
6, 7824, Note_on_c, 2, 35, 81
6, 7874, Note_off_c, 2, 35, 64
6, 7920, Note_on_c, 2, 35, 81
6, 7970, Note_off_c, 2, 35, 64
6, 8016, Note_on_c, 2, 35, 81
6, 8066, Note_off_c, 2, 35, 64
6, 8112, Note_on_c, 2, 35, 81
6, 8162, Note_off_c, 2, 35, 64
6, 8208, Note_on_c, 2, 35, 81
6, 8258, Note_off_c, 2, 35, 64
6, 8304, Note_on_c, 2, 37, 81
6, 8354, Note_off_c, 2, 37, 64
6, 8400, Note_on_c, 2, 38, 81
6, 8450, Note_off_c, 2, 38, 64
6, 8496, Note_on_c, 2, 38, 81
6, 8546, Note_off_c, 2, 38, 64
6, 8592, Note_on_c, 2, 38, 81
6, 8642, Note_off_c, 2, 38, 64
6, 8688, Note_on_c, 2, 38, 81
6, 8738, Note_off_c, 2, 38, 64
6, 8784, Note_on_c, 2, 38, 81
6, 8834, Note_off_c, 2, 38, 64
6, 8880, Note_on_c, 2, 38, 81
6, 8930, Note_off_c, 2, 38, 64
6, 8976, Note_on_c, 2, 38, 81
6, 9026, Note_off_c, 2, 38, 64
6, 9072, Note_on_c, 2, 38, 81
6, 9122, Note_off_c, 2, 38, 64
6, 9168, Note_on_c, 2, 38, 81
6, 9218, Note_off_c, 2, 38, 64
6, 9264, Note_on_c, 2, 33, 81
6, 9314, Note_off_c, 2, 33, 64
6, 9360, Note_on_c, 2, 33, 81
6, 9410, Note_off_c, 2, 33, 64
6, 9456, Note_on_c, 2, 33, 81
6, 9506, Note_off_c, 2, 33, 64
6, 9552, Note_on_c, 2, 33, 81
6, 9600, Note_off_c, 2, 33, 64
6, 9648, Note_on_c, 2, 33, 81
6, 9698, Note_off_c, 2, 33, 64
6, 9744, Note_on_c, 2, 33, 81
6, 9794, Note_off_c, 2, 33, 64
6, 9840, Note_on_c, 2, 33, 81
6, 9890, Note_off_c, 2, 33, 64
6, 9936, Note_on_c, 2, 33, 81
6, 9984, Note_off_c, 2, 33, 64
6, 10032, Note_on_c, 2, 33, 81
6, 10082, Note_off_c, 2, 33, 64
6, 10128, Note_on_c, 2, 33, 81
6, 10178, Note_off_c, 2, 33, 64
6, 10224, Note_on_c, 2, 33, 81
6, 10274, Note_off_c, 2, 33, 64
6, 10320, Note_on_c, 2, 33, 81
6, 10370, Note_off_c, 2, 33, 64
6, 10416, Note_on_c, 2, 33, 81
6, 10466, Note_off_c, 2, 33, 64
6, 10512, Note_on_c, 2, 33, 81
6, 10562, Note_off_c, 2, 33, 64
6, 10608, Note_on_c, 2, 37, 81
6, 10658, Note_off_c, 2, 37, 64
6, 10704, Note_on_c, 2, 35, 81
6, 10754, Note_off_c, 2, 35, 64
6, 10800, Note_on_c, 2, 35, 81
6, 10850, Note_off_c, 2, 35, 64
6, 10896, Note_on_c, 2, 35, 81
6, 10946, Note_off_c, 2, 35, 64
6, 10992, Note_on_c, 2, 35, 81
6, 11042, Note_off_c, 2, 35, 64
6, 11088, Note_on_c, 2, 35, 81
6, 11138, Note_off_c, 2, 35, 64
6, 11184, Note_on_c, 2, 35, 81
6, 11234, Note_off_c, 2, 35, 64
6, 11280, Note_on_c, 2, 35, 81
6, 11330, Note_off_c, 2, 35, 64
6, 11376, Note_on_c, 2, 37, 81
6, 11426, Note_off_c, 2, 37, 64
6, 11472, Note_on_c, 2, 38, 81
6, 11522, Note_off_c, 2, 38, 64
6, 11568, Note_on_c, 2, 38, 81
6, 11618, Note_off_c, 2, 38, 64
6, 11664, Note_on_c, 2, 38, 81
6, 11714, Note_off_c, 2, 38, 64
6, 11760, Note_on_c, 2, 38, 81
6, 11810, Note_off_c, 2, 38, 64
6, 11856, Note_on_c, 2, 38, 81
6, 11906, Note_off_c, 2, 38, 64
6, 11952, Note_on_c, 2, 38, 81
6, 12002, Note_off_c, 2, 38, 64
6, 12048, Note_on_c, 2, 38, 81
6, 12098, Note_off_c, 2, 38, 64
6, 12144, Note_on_c, 2, 38, 81
6, 12194, Note_off_c, 2, 38, 64
6, 12240, Note_on_c, 2, 38, 81
6, 12290, Note_off_c, 2, 38, 64
6, 12336, Note_on_c, 2, 33, 81
6, 12386, Note_off_c, 2, 33, 64
6, 12432, Note_on_c, 2, 33, 81
6, 12482, Note_off_c, 2, 33, 64
6, 12528, Note_on_c, 2, 33, 81
6, 12578, Note_off_c, 2, 33, 64
6, 12624, Note_on_c, 2, 33, 81
6, 12672, Note_off_c, 2, 33, 64
6, 12720, Note_on_c, 2, 33, 81
6, 12770, Note_off_c, 2, 33, 64
6, 12816, Note_on_c, 2, 33, 81
6, 12866, Note_off_c, 2, 33, 64
6, 12912, Note_on_c, 2, 33, 81
6, 12962, Note_off_c, 2, 33, 64
6, 13008, Note_on_c, 2, 33, 81
6, 13056, Note_off_c, 2, 33, 64
6, 13104, Note_on_c, 2, 33, 81
6, 13154, Note_off_c, 2, 33, 64
6, 13200, Note_on_c, 2, 33, 81
6, 13250, Note_off_c, 2, 33, 64
6, 13296, Note_on_c, 2, 33, 81
6, 13346, Note_off_c, 2, 33, 64
6, 13392, Note_on_c, 2, 33, 81
6, 13442, Note_off_c, 2, 33, 64
6, 13488, Note_on_c, 2, 33, 81
6, 13538, Note_off_c, 2, 33, 64
6, 13584, Note_on_c, 2, 33, 81
6, 13634, Note_off_c, 2, 33, 64
6, 13680, Note_on_c, 2, 37, 81
6, 13730, Note_off_c, 2, 37, 64
6, 13776, Note_on_c, 2, 35, 81
6, 13826, Note_off_c, 2, 35, 64
6, 13872, Note_on_c, 2, 35, 81
6, 13922, Note_off_c, 2, 35, 64
6, 13968, Note_on_c, 2, 35, 81
6, 14018, Note_off_c, 2, 35, 64
6, 14064, Note_on_c, 2, 35, 81
6, 14114, Note_off_c, 2, 35, 64
6, 14160, Note_on_c, 2, 35, 81
6, 14210, Note_off_c, 2, 35, 64
6, 14256, Note_on_c, 2, 35, 81
6, 14306, Note_off_c, 2, 35, 64
6, 14352, Note_on_c, 2, 35, 81
6, 14402, Note_off_c, 2, 35, 64
6, 14448, Note_on_c, 2, 37, 81
6, 14498, Note_off_c, 2, 37, 64
6, 14544, Note_on_c, 2, 38, 81
6, 14594, Note_off_c, 2, 38, 64
6, 14640, Note_on_c, 2, 38, 81
6, 14690, Note_off_c, 2, 38, 64
6, 14736, Note_on_c, 2, 38, 81
6, 14786, Note_off_c, 2, 38, 64
6, 14832, Note_on_c, 2, 38, 81
6, 14882, Note_off_c, 2, 38, 64
6, 14928, Note_on_c, 2, 38, 81
6, 14978, Note_off_c, 2, 38, 64
6, 15024, Note_on_c, 2, 38, 81
6, 15074, Note_off_c, 2, 38, 64
6, 15120, Note_on_c, 2, 38, 81
6, 15170, Note_off_c, 2, 38, 64
6, 15216, Note_on_c, 2, 38, 81
6, 15266, Note_off_c, 2, 38, 64
6, 15312, Note_on_c, 2, 38, 81
6, 15362, Note_off_c, 2, 38, 64
6, 15408, Note_on_c, 2, 33, 81
6, 15458, Note_off_c, 2, 33, 64
6, 15504, Note_on_c, 2, 33, 81
6, 15554, Note_off_c, 2, 33, 64
6, 15600, Note_on_c, 2, 33, 81
6, 15650, Note_off_c, 2, 33, 64
6, 15696, Note_on_c, 2, 33, 81
6, 15746, Note_off_c, 2, 33, 64
6, 15792, Note_on_c, 2, 33, 81
6, 15842, Note_off_c, 2, 33, 64
6, 15888, Note_on_c, 2, 33, 81
6, 15938, Note_off_c, 2, 33, 64
6, 15984, Note_on_c, 2, 33, 81
6, 16034, Note_off_c, 2, 33, 64
6, 16080, Note_on_c, 2, 33, 81
6, 16128, Note_off_c, 2, 33, 64
6, 16176, Note_on_c, 2, 33, 81
6, 16226, Note_off_c, 2, 33, 64
6, 16272, Note_on_c, 2, 33, 81
6, 16322, Note_off_c, 2, 33, 64
6, 16368, Note_on_c, 2, 33, 81
6, 16418, Note_off_c, 2, 33, 64
6, 16464, Note_on_c, 2, 33, 81
6, 16514, Note_off_c, 2, 33, 64
6, 16560, Note_on_c, 2, 33, 81
6, 16610, Note_off_c, 2, 33, 64
6, 16656, Note_on_c, 2, 33, 81
6, 16706, Note_off_c, 2, 33, 64
6, 16752, Note_on_c, 2, 37, 81
6, 16802, Note_off_c, 2, 37, 64
6, 16848, Note_on_c, 2, 35, 81
6, 16898, Note_off_c, 2, 35, 64
6, 16944, Note_on_c, 2, 35, 81
6, 16994, Note_off_c, 2, 35, 64
6, 17040, Note_on_c, 2, 35, 81
6, 17090, Note_off_c, 2, 35, 64
6, 17136, Note_on_c, 2, 35, 81
6, 17186, Note_off_c, 2, 35, 64
6, 17232, Note_on_c, 2, 35, 81
6, 17282, Note_off_c, 2, 35, 64
6, 17328, Note_on_c, 2, 35, 81
6, 17378, Note_off_c, 2, 35, 64
6, 17424, Note_on_c, 2, 35, 81
6, 17474, Note_off_c, 2, 35, 64
6, 17520, Note_on_c, 2, 37, 81
6, 17570, Note_off_c, 2, 37, 64
6, 17616, Note_on_c, 2, 38, 81
6, 17666, Note_off_c, 2, 38, 64
6, 17712, Note_on_c, 2, 38, 81
6, 17762, Note_off_c, 2, 38, 64
6, 17808, Note_on_c, 2, 38, 81
6, 17858, Note_off_c, 2, 38, 64
6, 17904, Note_on_c, 2, 38, 81
6, 17954, Note_off_c, 2, 38, 64
6, 18000, Note_on_c, 2, 38, 81
6, 18050, Note_off_c, 2, 38, 64
6, 18096, Note_on_c, 2, 38, 81
6, 18146, Note_off_c, 2, 38, 64
6, 18192, Note_on_c, 2, 38, 81
6, 18242, Note_off_c, 2, 38, 64
6, 18288, Note_on_c, 2, 38, 81
6, 18338, Note_off_c, 2, 38, 64
6, 18384, Note_on_c, 2, 38, 81
6, 18434, Note_off_c, 2, 38, 64
6, 18480, Note_on_c, 2, 33, 81
6, 18530, Note_off_c, 2, 33, 64
6, 18576, Note_on_c, 2, 33, 81
6, 18626, Note_off_c, 2, 33, 64
6, 18672, Note_on_c, 2, 33, 81
6, 18722, Note_off_c, 2, 33, 64
6, 18768, Note_on_c, 2, 33, 81
6, 18818, Note_off_c, 2, 33, 64
6, 18864, Note_on_c, 2, 33, 81
6, 18914, Note_off_c, 2, 33, 64
6, 18960, Note_on_c, 2, 33, 81
6, 19010, Note_off_c, 2, 33, 64
6, 19056, Note_on_c, 2, 33, 81
6, 19106, Note_off_c, 2, 33, 64
6, 19152, Note_on_c, 2, 33, 81
6, 19200, Note_off_c, 2, 33, 64
6, 19248, Note_on_c, 2, 33, 81
6, 19298, Note_off_c, 2, 33, 64
6, 19344, Note_on_c, 2, 33, 81
6, 19394, Note_off_c, 2, 33, 64
6, 19440, Note_on_c, 2, 33, 81
6, 19490, Note_off_c, 2, 33, 64
6, 19536, Note_on_c, 2, 33, 81
6, 19586, Note_off_c, 2, 33, 64
6, 19632, Note_on_c, 2, 33, 81
6, 19682, Note_off_c, 2, 33, 64
6, 19728, Note_on_c, 2, 33, 81
6, 19778, Note_off_c, 2, 33, 64
6, 19824, Note_on_c, 2, 37, 81
6, 19874, Note_off_c, 2, 37, 64
6, 19920, Note_on_c, 2, 35, 81
6, 19970, Note_off_c, 2, 35, 64
6, 20016, Note_on_c, 2, 35, 81
6, 20066, Note_off_c, 2, 35, 64
6, 20112, Note_on_c, 2, 35, 81
6, 20162, Note_off_c, 2, 35, 64
6, 20208, Note_on_c, 2, 35, 81
6, 20258, Note_off_c, 2, 35, 64
6, 20304, Note_on_c, 2, 35, 81
6, 20354, Note_off_c, 2, 35, 64
6, 20400, Note_on_c, 2, 35, 81
6, 20450, Note_off_c, 2, 35, 64
6, 20496, Note_on_c, 2, 35, 81
6, 20546, Note_off_c, 2, 35, 64
6, 20592, Note_on_c, 2, 37, 81
6, 20642, Note_off_c, 2, 37, 64
6, 20688, Note_on_c, 2, 38, 81
6, 20738, Note_off_c, 2, 38, 64
6, 20784, Note_on_c, 2, 38, 81
6, 20834, Note_off_c, 2, 38, 64
6, 20880, Note_on_c, 2, 38, 81
6, 20930, Note_off_c, 2, 38, 64
6, 20976, Note_on_c, 2, 38, 81
6, 21026, Note_off_c, 2, 38, 64
6, 21072, Note_on_c, 2, 38, 81
6, 21122, Note_off_c, 2, 38, 64
6, 21168, Note_on_c, 2, 38, 81
6, 21218, Note_off_c, 2, 38, 64
6, 21264, Note_on_c, 2, 38, 81
6, 21314, Note_off_c, 2, 38, 64
6, 21360, Note_on_c, 2, 38, 81
6, 21410, Note_off_c, 2, 38, 64
6, 21456, Note_on_c, 2, 38, 81
6, 21506, Note_off_c, 2, 38, 64
6, 21552, Note_on_c, 2, 33, 81
6, 21602, Note_off_c, 2, 33, 64
6, 21648, Note_on_c, 2, 33, 81
6, 21698, Note_off_c, 2, 33, 64
6, 21744, Note_on_c, 2, 33, 81
6, 21794, Note_off_c, 2, 33, 64
6, 21840, Note_on_c, 2, 33, 81
6, 21890, Note_off_c, 2, 33, 64
6, 21936, Note_on_c, 2, 33, 81
6, 21986, Note_off_c, 2, 33, 64
6, 22032, Note_on_c, 2, 33, 81
6, 22082, Note_off_c, 2, 33, 64
6, 22128, Note_on_c, 2, 33, 81
6, 22178, Note_off_c, 2, 33, 64
6, 22224, Note_on_c, 2, 33, 81
6, 22272, Note_off_c, 2, 33, 64
6, 22320, Note_on_c, 2, 33, 81
6, 22370, Note_off_c, 2, 33, 64
6, 22416, Note_on_c, 2, 33, 81
6, 22466, Note_off_c, 2, 33, 64
6, 22512, Note_on_c, 2, 33, 81
6, 22562, Note_off_c, 2, 33, 64
6, 22608, Note_on_c, 2, 33, 81
6, 22658, Note_off_c, 2, 33, 64
6, 22704, Note_on_c, 2, 32, 81
6, 22754, Note_off_c, 2, 32, 64
6, 22800, Note_on_c, 2, 32, 81
6, 22850, Note_off_c, 2, 32, 64
6, 22896, Note_on_c, 2, 32, 81
6, 22946, Note_off_c, 2, 32, 64
6, 22992, Note_on_c, 2, 32, 81
6, 23042, Note_off_c, 2, 32, 64
6, 23088, Note_on_c, 2, 30, 81
6, 23138, Note_off_c, 2, 30, 64
6, 23184, Note_on_c, 2, 30, 81
6, 23234, Note_off_c, 2, 30, 64
6, 23280, Note_on_c, 2, 30, 81
6, 23330, Note_off_c, 2, 30, 64
6, 23376, Note_on_c, 2, 30, 81
6, 23426, Note_off_c, 2, 30, 64
6, 23472, Note_on_c, 2, 30, 81
6, 23522, Note_off_c, 2, 30, 64
6, 23568, Note_on_c, 2, 30, 81
6, 23618, Note_off_c, 2, 30, 64
6, 23664, Note_on_c, 2, 30, 81
6, 23714, Note_off_c, 2, 30, 64
6, 23760, Note_on_c, 2, 30, 81
6, 23810, Note_off_c, 2, 30, 64
6, 23856, Note_on_c, 2, 35, 81
6, 23906, Note_off_c, 2, 35, 64
6, 23952, Note_on_c, 2, 35, 81
6, 24002, Note_off_c, 2, 35, 64
6, 24048, Note_on_c, 2, 35, 81
6, 24098, Note_off_c, 2, 35, 64
6, 24144, Note_on_c, 2, 35, 81
6, 24194, Note_off_c, 2, 35, 64
6, 24240, Note_on_c, 2, 34, 81
6, 24290, Note_off_c, 2, 34, 64
6, 24336, Note_on_c, 2, 34, 81
6, 24386, Note_off_c, 2, 34, 64
6, 24432, Note_on_c, 2, 34, 81
6, 24482, Note_off_c, 2, 34, 64
6, 24528, Note_on_c, 2, 34, 81
6, 24578, Note_off_c, 2, 34, 64
6, 24624, Note_on_c, 2, 33, 81
6, 24674, Note_off_c, 2, 33, 64
6, 24720, Note_on_c, 2, 33, 81
6, 24770, Note_off_c, 2, 33, 64
6, 24816, Note_on_c, 2, 33, 81
6, 24866, Note_off_c, 2, 33, 64
6, 24912, Note_on_c, 2, 33, 81
6, 24962, Note_off_c, 2, 33, 64
6, 25008, Note_on_c, 2, 40, 81
6, 25058, Note_off_c, 2, 40, 64
6, 25104, Note_on_c, 2, 40, 81
6, 25154, Note_off_c, 2, 40, 64
6, 25200, Note_on_c, 2, 40, 81
6, 25250, Note_off_c, 2, 40, 64
6, 25296, Note_on_c, 2, 40, 81
6, 25344, Note_off_c, 2, 40, 64
6, 25392, Note_on_c, 2, 33, 81
6, 25442, Note_off_c, 2, 33, 64
6, 25488, Note_on_c, 2, 33, 81
6, 25538, Note_off_c, 2, 33, 64
6, 25584, Note_on_c, 2, 33, 81
6, 25634, Note_off_c, 2, 33, 64
6, 25680, Note_on_c, 2, 33, 81
6, 25730, Note_off_c, 2, 33, 64
6, 25776, Note_on_c, 2, 33, 81
6, 25826, Note_off_c, 2, 33, 64
6, 25872, Note_on_c, 2, 33, 81
6, 25922, Note_off_c, 2, 33, 64
6, 25968, Note_on_c, 2, 37, 81
6, 26018, Note_off_c, 2, 37, 64
6, 26064, Note_on_c, 2, 35, 81
6, 26114, Note_off_c, 2, 35, 64
6, 26160, Note_on_c, 2, 35, 81
6, 26210, Note_off_c, 2, 35, 64
6, 26256, Note_on_c, 2, 35, 81
6, 26306, Note_off_c, 2, 35, 64
6, 26352, Note_on_c, 2, 35, 81
6, 26402, Note_off_c, 2, 35, 64
6, 26448, Note_on_c, 2, 35, 81
6, 26498, Note_off_c, 2, 35, 64
6, 26544, Note_on_c, 2, 35, 81
6, 26594, Note_off_c, 2, 35, 64
6, 26640, Note_on_c, 2, 35, 81
6, 26690, Note_off_c, 2, 35, 64
6, 26736, Note_on_c, 2, 37, 81
6, 26786, Note_off_c, 2, 37, 64
6, 26832, Note_on_c, 2, 38, 81
6, 26882, Note_off_c, 2, 38, 64
6, 26928, Note_on_c, 2, 38, 81
6, 26978, Note_off_c, 2, 38, 64
6, 27024, Note_on_c, 2, 38, 81
6, 27074, Note_off_c, 2, 38, 64
6, 27120, Note_on_c, 2, 38, 81
6, 27170, Note_off_c, 2, 38, 64
6, 27216, Note_on_c, 2, 38, 81
6, 27266, Note_off_c, 2, 38, 64
6, 27312, Note_on_c, 2, 38, 81
6, 27362, Note_off_c, 2, 38, 64
6, 27408, Note_on_c, 2, 38, 81
6, 27458, Note_off_c, 2, 38, 64
6, 27504, Note_on_c, 2, 38, 81
6, 27554, Note_off_c, 2, 38, 64
6, 27600, Note_on_c, 2, 38, 81
6, 27650, Note_off_c, 2, 38, 64
6, 27696, Note_on_c, 2, 33, 81
6, 27746, Note_off_c, 2, 33, 64
6, 27792, Note_on_c, 2, 33, 81
6, 27842, Note_off_c, 2, 33, 64
6, 27888, Note_on_c, 2, 33, 81
6, 27938, Note_off_c, 2, 33, 64
6, 27984, Note_on_c, 2, 33, 81
6, 28034, Note_off_c, 2, 33, 64
6, 28080, Note_on_c, 2, 33, 81
6, 28130, Note_off_c, 2, 33, 64
6, 28176, Note_on_c, 2, 33, 81
6, 28226, Note_off_c, 2, 33, 64
6, 28272, Note_on_c, 2, 33, 81
6, 28322, Note_off_c, 2, 33, 64
6, 28368, Note_on_c, 2, 33, 81
6, 28416, Note_off_c, 2, 33, 64
6, 29171, Control_c, 2, 101, 0
6, 29171, Control_c, 2, 100, 0
6, 29171, Control_c, 2, 6, 12
6, 29171, Control_c, 2, 0, 15
6, 29171, Control_c, 2, 32, 4
6, 29171, Control_c, 2, 10, 64
6, 29171, Control_c, 2, 7, 127
6, 29171, Pitch_bend_c, 2, 8192
6, 29171, Program_c, 2, 38
6, 29171, Control_c, 2, 101, 0
6, 29171, Control_c, 2, 100, 0
6, 29171, Control_c, 2, 6, 12
6, 29171, Control_c, 2, 0, 15
6, 29171, Control_c, 2, 32, 4
6, 29171, Control_c, 2, 10, 64
6, 29171, Control_c, 2, 7, 127
6, 29171, Pitch_bend_c, 2, 8192
6, 29171, Program_c, 2, 38
6, 29171, Control_c, 2, 101, 0
6, 29171, Control_c, 2, 100, 0
6, 29171, Control_c, 2, 6, 12
6, 29171, Control_c, 2, 0, 15
6, 29171, Control_c, 2, 32, 4
6, 29171, Control_c, 2, 10, 64
6, 29171, Control_c, 2, 7, 127
6, 29171, Pitch_bend_c, 2, 8192
6, 29171, Program_c, 2, 38
6, 29171, End_track
7, 0, Start_track
7, 0, Title_t, "Bass"
7, 0, Control_c, 1, 10, 64
7, 0, Control_c, 1, 7, 100
7, 0, Pitch_bend_c, 1, 8192
7, 0, Control_c, 1, 101, 0
7, 0, Control_c, 1, 100, 0
7, 0, Control_c, 1, 6, 12
7, 0, Control_c, 1, 0, 0
7, 0, Control_c, 1, 32, 4
7, 0, Control_c, 1, 10, 64
7, 0, Control_c, 1, 7, 100
7, 0, Pitch_bend_c, 1, 8192
7, 0, Program_c, 1, 32
7, 0, Control_c, 1, 101, 0
7, 0, Control_c, 1, 100, 0
7, 0, Control_c, 1, 6, 12
7, 0, Control_c, 1, 0, 0
7, 0, Control_c, 1, 32, 4
7, 0, Control_c, 1, 10, 64
7, 0, Control_c, 1, 7, 100
7, 0, Pitch_bend_c, 1, 8192
7, 0, Program_c, 1, 32
7, 48, Note_on_c, 1, 33, 81
7, 98, Note_off_c, 1, 33, 64
7, 144, Note_on_c, 1, 33, 81
7, 194, Note_off_c, 1, 33, 64
7, 240, Note_on_c, 1, 33, 81
7, 290, Note_off_c, 1, 33, 64
7, 336, Note_on_c, 1, 33, 81
7, 386, Note_off_c, 1, 33, 64
7, 432, Note_on_c, 1, 33, 81
7, 482, Note_off_c, 1, 33, 64
7, 528, Note_on_c, 1, 33, 81
7, 578, Note_off_c, 1, 33, 64
7, 624, Note_on_c, 1, 37, 81
7, 674, Note_off_c, 1, 37, 64
7, 720, Note_on_c, 1, 37, 81
7, 768, Note_off_c, 1, 37, 64
7, 816, Note_on_c, 1, 33, 81
7, 866, Note_off_c, 1, 33, 64
7, 912, Note_on_c, 1, 33, 81
7, 962, Note_off_c, 1, 33, 64
7, 1008, Note_on_c, 1, 33, 81
7, 1058, Note_off_c, 1, 33, 64
7, 1104, Note_on_c, 1, 33, 81
7, 1154, Note_off_c, 1, 33, 64
7, 1200, Note_on_c, 1, 33, 81
7, 1250, Note_off_c, 1, 33, 64
7, 1296, Note_on_c, 1, 33, 81
7, 1346, Note_off_c, 1, 33, 64
7, 1392, Note_on_c, 1, 37, 81
7, 1442, Note_off_c, 1, 37, 64
7, 1488, Note_on_c, 1, 35, 81
7, 1538, Note_off_c, 1, 35, 64
7, 1584, Note_on_c, 1, 35, 81
7, 1634, Note_off_c, 1, 35, 64
7, 1680, Note_on_c, 1, 35, 81
7, 1730, Note_off_c, 1, 35, 64
7, 1776, Note_on_c, 1, 35, 81
7, 1826, Note_off_c, 1, 35, 64
7, 1872, Note_on_c, 1, 35, 81
7, 1922, Note_off_c, 1, 35, 64
7, 1968, Note_on_c, 1, 35, 81
7, 2018, Note_off_c, 1, 35, 64
7, 2064, Note_on_c, 1, 35, 81
7, 2114, Note_off_c, 1, 35, 64
7, 2160, Note_on_c, 1, 37, 81
7, 2210, Note_off_c, 1, 37, 64
7, 2256, Note_on_c, 1, 38, 81
7, 2306, Note_off_c, 1, 38, 64
7, 2352, Note_on_c, 1, 38, 81
7, 2402, Note_off_c, 1, 38, 64
7, 2448, Note_on_c, 1, 38, 81
7, 2498, Note_off_c, 1, 38, 64
7, 2544, Note_on_c, 1, 38, 81
7, 2594, Note_off_c, 1, 38, 64
7, 2640, Note_on_c, 1, 38, 81
7, 2690, Note_off_c, 1, 38, 64
7, 2736, Note_on_c, 1, 38, 81
7, 2786, Note_off_c, 1, 38, 64
7, 2832, Note_on_c, 1, 38, 81
7, 2882, Note_off_c, 1, 38, 64
7, 2928, Note_on_c, 1, 38, 81
7, 2978, Note_off_c, 1, 38, 64
7, 3024, Note_on_c, 1, 38, 81
7, 3074, Note_off_c, 1, 38, 64
7, 3120, Note_on_c, 1, 33, 81
7, 3170, Note_off_c, 1, 33, 64
7, 3216, Note_on_c, 1, 33, 81
7, 3266, Note_off_c, 1, 33, 64
7, 3312, Note_on_c, 1, 33, 81
7, 3362, Note_off_c, 1, 33, 64
7, 3408, Note_on_c, 1, 33, 81
7, 3458, Note_off_c, 1, 33, 64
7, 3504, Note_on_c, 1, 33, 81
7, 3554, Note_off_c, 1, 33, 64
7, 3600, Note_on_c, 1, 33, 81
7, 3650, Note_off_c, 1, 33, 64
7, 3696, Note_on_c, 1, 33, 81
7, 3746, Note_off_c, 1, 33, 64
7, 3792, Note_on_c, 1, 33, 81
7, 3840, Note_off_c, 1, 33, 64
7, 3888, Note_on_c, 1, 33, 81
7, 3938, Note_off_c, 1, 33, 64
7, 3984, Note_on_c, 1, 33, 81
7, 4034, Note_off_c, 1, 33, 64
7, 4080, Note_on_c, 1, 33, 81
7, 4130, Note_off_c, 1, 33, 64
7, 4176, Note_on_c, 1, 33, 81
7, 4226, Note_off_c, 1, 33, 64
7, 4272, Note_on_c, 1, 33, 81
7, 4322, Note_off_c, 1, 33, 64
7, 4368, Note_on_c, 1, 33, 81
7, 4418, Note_off_c, 1, 33, 64
7, 4464, Note_on_c, 1, 37, 81
7, 4514, Note_off_c, 1, 37, 64
7, 4560, Note_on_c, 1, 35, 81
7, 4610, Note_off_c, 1, 35, 64
7, 4656, Note_on_c, 1, 35, 81
7, 4706, Note_off_c, 1, 35, 64
7, 4752, Note_on_c, 1, 35, 81
7, 4802, Note_off_c, 1, 35, 64
7, 4848, Note_on_c, 1, 35, 81
7, 4898, Note_off_c, 1, 35, 64
7, 4944, Note_on_c, 1, 35, 81
7, 4994, Note_off_c, 1, 35, 64
7, 5040, Note_on_c, 1, 35, 81
7, 5090, Note_off_c, 1, 35, 64
7, 5136, Note_on_c, 1, 35, 81
7, 5186, Note_off_c, 1, 35, 64
7, 5232, Note_on_c, 1, 37, 81
7, 5282, Note_off_c, 1, 37, 64
7, 5328, Note_on_c, 1, 38, 81
7, 5378, Note_off_c, 1, 38, 64
7, 5424, Note_on_c, 1, 38, 81
7, 5474, Note_off_c, 1, 38, 64
7, 5520, Note_on_c, 1, 38, 81
7, 5570, Note_off_c, 1, 38, 64
7, 5616, Note_on_c, 1, 38, 81
7, 5666, Note_off_c, 1, 38, 64
7, 5712, Note_on_c, 1, 38, 81
7, 5762, Note_off_c, 1, 38, 64
7, 5808, Note_on_c, 1, 38, 81
7, 5858, Note_off_c, 1, 38, 64
7, 5904, Note_on_c, 1, 38, 81
7, 5954, Note_off_c, 1, 38, 64
7, 6000, Note_on_c, 1, 38, 81
7, 6050, Note_off_c, 1, 38, 64
7, 6096, Note_on_c, 1, 38, 81
7, 6146, Note_off_c, 1, 38, 64
7, 6192, Note_on_c, 1, 33, 81
7, 6242, Note_off_c, 1, 33, 64
7, 6288, Note_on_c, 1, 33, 81
7, 6338, Note_off_c, 1, 33, 64
7, 6384, Note_on_c, 1, 33, 81
7, 6434, Note_off_c, 1, 33, 64
7, 6480, Note_on_c, 1, 33, 81
7, 6528, Note_off_c, 1, 33, 64
7, 6960, Note_on_c, 1, 33, 81
7, 7010, Note_off_c, 1, 33, 64
7, 7056, Note_on_c, 1, 33, 81
7, 7106, Note_off_c, 1, 33, 64
7, 7152, Note_on_c, 1, 33, 81
7, 7202, Note_off_c, 1, 33, 64
7, 7248, Note_on_c, 1, 33, 81
7, 7298, Note_off_c, 1, 33, 64
7, 7344, Note_on_c, 1, 33, 81
7, 7394, Note_off_c, 1, 33, 64
7, 7440, Note_on_c, 1, 33, 81
7, 7490, Note_off_c, 1, 33, 64
7, 7536, Note_on_c, 1, 37, 81
7, 7586, Note_off_c, 1, 37, 64
7, 7632, Note_on_c, 1, 35, 81
7, 7682, Note_off_c, 1, 35, 64
7, 7728, Note_on_c, 1, 35, 81
7, 7778, Note_off_c, 1, 35, 64
7, 7824, Note_on_c, 1, 35, 81
7, 7874, Note_off_c, 1, 35, 64
7, 7920, Note_on_c, 1, 35, 81
7, 7970, Note_off_c, 1, 35, 64
7, 8016, Note_on_c, 1, 35, 81
7, 8066, Note_off_c, 1, 35, 64
7, 8112, Note_on_c, 1, 35, 81
7, 8162, Note_off_c, 1, 35, 64
7, 8208, Note_on_c, 1, 35, 81
7, 8258, Note_off_c, 1, 35, 64
7, 8304, Note_on_c, 1, 37, 81
7, 8354, Note_off_c, 1, 37, 64
7, 8400, Note_on_c, 1, 38, 81
7, 8450, Note_off_c, 1, 38, 64
7, 8496, Note_on_c, 1, 38, 81
7, 8546, Note_off_c, 1, 38, 64
7, 8592, Note_on_c, 1, 38, 81
7, 8642, Note_off_c, 1, 38, 64
7, 8688, Note_on_c, 1, 38, 81
7, 8738, Note_off_c, 1, 38, 64
7, 8784, Note_on_c, 1, 38, 81
7, 8834, Note_off_c, 1, 38, 64
7, 8880, Note_on_c, 1, 38, 81
7, 8930, Note_off_c, 1, 38, 64
7, 8976, Note_on_c, 1, 38, 81
7, 9026, Note_off_c, 1, 38, 64
7, 9072, Note_on_c, 1, 38, 81
7, 9122, Note_off_c, 1, 38, 64
7, 9168, Note_on_c, 1, 38, 81
7, 9218, Note_off_c, 1, 38, 64
7, 9264, Note_on_c, 1, 33, 81
7, 9314, Note_off_c, 1, 33, 64
7, 9360, Note_on_c, 1, 33, 81
7, 9410, Note_off_c, 1, 33, 64
7, 9456, Note_on_c, 1, 33, 81
7, 9506, Note_off_c, 1, 33, 64
7, 9552, Note_on_c, 1, 33, 81
7, 9600, Note_off_c, 1, 33, 64
7, 9648, Note_on_c, 1, 33, 81
7, 9698, Note_off_c, 1, 33, 64
7, 9744, Note_on_c, 1, 33, 81
7, 9794, Note_off_c, 1, 33, 64
7, 9840, Note_on_c, 1, 33, 81
7, 9890, Note_off_c, 1, 33, 64
7, 9936, Note_on_c, 1, 33, 81
7, 9984, Note_off_c, 1, 33, 64
7, 10032, Note_on_c, 1, 33, 81
7, 10082, Note_off_c, 1, 33, 64
7, 10128, Note_on_c, 1, 33, 81
7, 10178, Note_off_c, 1, 33, 64
7, 10224, Note_on_c, 1, 33, 81
7, 10274, Note_off_c, 1, 33, 64
7, 10320, Note_on_c, 1, 33, 81
7, 10370, Note_off_c, 1, 33, 64
7, 10416, Note_on_c, 1, 33, 81
7, 10466, Note_off_c, 1, 33, 64
7, 10512, Note_on_c, 1, 33, 81
7, 10562, Note_off_c, 1, 33, 64
7, 10608, Note_on_c, 1, 37, 81
7, 10658, Note_off_c, 1, 37, 64
7, 10704, Note_on_c, 1, 35, 81
7, 10754, Note_off_c, 1, 35, 64
7, 10800, Note_on_c, 1, 35, 81
7, 10850, Note_off_c, 1, 35, 64
7, 10896, Note_on_c, 1, 35, 81
7, 10946, Note_off_c, 1, 35, 64
7, 10992, Note_on_c, 1, 35, 81
7, 11042, Note_off_c, 1, 35, 64
7, 11088, Note_on_c, 1, 35, 81
7, 11138, Note_off_c, 1, 35, 64
7, 11184, Note_on_c, 1, 35, 81
7, 11234, Note_off_c, 1, 35, 64
7, 11280, Note_on_c, 1, 35, 81
7, 11330, Note_off_c, 1, 35, 64
7, 11376, Note_on_c, 1, 37, 81
7, 11426, Note_off_c, 1, 37, 64
7, 11472, Note_on_c, 1, 38, 81
7, 11522, Note_off_c, 1, 38, 64
7, 11568, Note_on_c, 1, 38, 81
7, 11618, Note_off_c, 1, 38, 64
7, 11664, Note_on_c, 1, 38, 81
7, 11714, Note_off_c, 1, 38, 64
7, 11760, Note_on_c, 1, 38, 81
7, 11810, Note_off_c, 1, 38, 64
7, 11856, Note_on_c, 1, 38, 81
7, 11906, Note_off_c, 1, 38, 64
7, 11952, Note_on_c, 1, 38, 81
7, 12002, Note_off_c, 1, 38, 64
7, 12048, Note_on_c, 1, 38, 81
7, 12098, Note_off_c, 1, 38, 64
7, 12144, Note_on_c, 1, 38, 81
7, 12194, Note_off_c, 1, 38, 64
7, 12240, Note_on_c, 1, 38, 81
7, 12290, Note_off_c, 1, 38, 64
7, 12336, Note_on_c, 1, 33, 81
7, 12386, Note_off_c, 1, 33, 64
7, 12432, Note_on_c, 1, 33, 81
7, 12482, Note_off_c, 1, 33, 64
7, 12528, Note_on_c, 1, 33, 81
7, 12578, Note_off_c, 1, 33, 64
7, 12624, Note_on_c, 1, 33, 81
7, 12672, Note_off_c, 1, 33, 64
7, 12720, Note_on_c, 1, 33, 81
7, 12770, Note_off_c, 1, 33, 64
7, 12816, Note_on_c, 1, 33, 81
7, 12866, Note_off_c, 1, 33, 64
7, 12912, Note_on_c, 1, 33, 81
7, 12962, Note_off_c, 1, 33, 64
7, 13008, Note_on_c, 1, 33, 81
7, 13056, Note_off_c, 1, 33, 64
7, 13104, Note_on_c, 1, 33, 81
7, 13154, Note_off_c, 1, 33, 64
7, 13200, Note_on_c, 1, 33, 81
7, 13250, Note_off_c, 1, 33, 64
7, 13296, Note_on_c, 1, 33, 81
7, 13346, Note_off_c, 1, 33, 64
7, 13392, Note_on_c, 1, 33, 81
7, 13442, Note_off_c, 1, 33, 64
7, 13488, Note_on_c, 1, 33, 81
7, 13538, Note_off_c, 1, 33, 64
7, 13584, Note_on_c, 1, 33, 81
7, 13634, Note_off_c, 1, 33, 64
7, 13680, Note_on_c, 1, 37, 81
7, 13730, Note_off_c, 1, 37, 64
7, 13776, Note_on_c, 1, 35, 81
7, 13826, Note_off_c, 1, 35, 64
7, 13872, Note_on_c, 1, 35, 81
7, 13922, Note_off_c, 1, 35, 64
7, 13968, Note_on_c, 1, 35, 81
7, 14018, Note_off_c, 1, 35, 64
7, 14064, Note_on_c, 1, 35, 81
7, 14114, Note_off_c, 1, 35, 64
7, 14160, Note_on_c, 1, 35, 81
7, 14210, Note_off_c, 1, 35, 64
7, 14256, Note_on_c, 1, 35, 81
7, 14306, Note_off_c, 1, 35, 64
7, 14352, Note_on_c, 1, 35, 81
7, 14402, Note_off_c, 1, 35, 64
7, 14448, Note_on_c, 1, 37, 81
7, 14498, Note_off_c, 1, 37, 64
7, 14544, Note_on_c, 1, 38, 81
7, 14594, Note_off_c, 1, 38, 64
7, 14640, Note_on_c, 1, 38, 81
7, 14690, Note_off_c, 1, 38, 64
7, 14736, Note_on_c, 1, 38, 81
7, 14786, Note_off_c, 1, 38, 64
7, 14832, Note_on_c, 1, 38, 81
7, 14882, Note_off_c, 1, 38, 64
7, 14928, Note_on_c, 1, 38, 81
7, 14978, Note_off_c, 1, 38, 64
7, 15024, Note_on_c, 1, 38, 81
7, 15074, Note_off_c, 1, 38, 64
7, 15120, Note_on_c, 1, 38, 81
7, 15170, Note_off_c, 1, 38, 64
7, 15216, Note_on_c, 1, 38, 81
7, 15266, Note_off_c, 1, 38, 64
7, 15312, Note_on_c, 1, 38, 81
7, 15362, Note_off_c, 1, 38, 64
7, 15408, Note_on_c, 1, 33, 81
7, 15458, Note_off_c, 1, 33, 64
7, 15504, Note_on_c, 1, 33, 81
7, 15554, Note_off_c, 1, 33, 64
7, 15600, Note_on_c, 1, 33, 81
7, 15650, Note_off_c, 1, 33, 64
7, 15696, Note_on_c, 1, 33, 81
7, 15746, Note_off_c, 1, 33, 64
7, 15792, Note_on_c, 1, 33, 81
7, 15842, Note_off_c, 1, 33, 64
7, 15888, Note_on_c, 1, 33, 81
7, 15938, Note_off_c, 1, 33, 64
7, 15984, Note_on_c, 1, 33, 81
7, 16034, Note_off_c, 1, 33, 64
7, 16080, Note_on_c, 1, 33, 81
7, 16128, Note_off_c, 1, 33, 64
7, 16176, Note_on_c, 1, 33, 81
7, 16226, Note_off_c, 1, 33, 64
7, 16272, Note_on_c, 1, 33, 81
7, 16322, Note_off_c, 1, 33, 64
7, 16368, Note_on_c, 1, 33, 81
7, 16418, Note_off_c, 1, 33, 64
7, 16464, Note_on_c, 1, 33, 81
7, 16514, Note_off_c, 1, 33, 64
7, 16560, Note_on_c, 1, 33, 81
7, 16610, Note_off_c, 1, 33, 64
7, 16656, Note_on_c, 1, 33, 81
7, 16706, Note_off_c, 1, 33, 64
7, 16752, Note_on_c, 1, 37, 81
7, 16802, Note_off_c, 1, 37, 64
7, 16848, Note_on_c, 1, 35, 81
7, 16898, Note_off_c, 1, 35, 64
7, 16944, Note_on_c, 1, 35, 81
7, 16994, Note_off_c, 1, 35, 64
7, 17040, Note_on_c, 1, 35, 81
7, 17090, Note_off_c, 1, 35, 64
7, 17136, Note_on_c, 1, 35, 81
7, 17186, Note_off_c, 1, 35, 64
7, 17232, Note_on_c, 1, 35, 81
7, 17282, Note_off_c, 1, 35, 64
7, 17328, Note_on_c, 1, 35, 81
7, 17378, Note_off_c, 1, 35, 64
7, 17424, Note_on_c, 1, 35, 81
7, 17474, Note_off_c, 1, 35, 64
7, 17520, Note_on_c, 1, 37, 81
7, 17570, Note_off_c, 1, 37, 64
7, 17616, Note_on_c, 1, 38, 81
7, 17666, Note_off_c, 1, 38, 64
7, 17712, Note_on_c, 1, 38, 81
7, 17762, Note_off_c, 1, 38, 64
7, 17808, Note_on_c, 1, 38, 81
7, 17858, Note_off_c, 1, 38, 64
7, 17904, Note_on_c, 1, 38, 81
7, 17954, Note_off_c, 1, 38, 64
7, 18000, Note_on_c, 1, 38, 81
7, 18050, Note_off_c, 1, 38, 64
7, 18096, Note_on_c, 1, 38, 81
7, 18146, Note_off_c, 1, 38, 64
7, 18192, Note_on_c, 1, 38, 81
7, 18242, Note_off_c, 1, 38, 64
7, 18288, Note_on_c, 1, 38, 81
7, 18338, Note_off_c, 1, 38, 64
7, 18384, Note_on_c, 1, 38, 81
7, 18434, Note_off_c, 1, 38, 64
7, 18480, Note_on_c, 1, 33, 81
7, 18530, Note_off_c, 1, 33, 64
7, 18576, Note_on_c, 1, 33, 81
7, 18626, Note_off_c, 1, 33, 64
7, 18672, Note_on_c, 1, 33, 81
7, 18722, Note_off_c, 1, 33, 64
7, 18768, Note_on_c, 1, 33, 81
7, 18818, Note_off_c, 1, 33, 64
7, 18864, Note_on_c, 1, 33, 81
7, 18914, Note_off_c, 1, 33, 64
7, 18960, Note_on_c, 1, 33, 81
7, 19010, Note_off_c, 1, 33, 64
7, 19056, Note_on_c, 1, 33, 81
7, 19106, Note_off_c, 1, 33, 64
7, 19152, Note_on_c, 1, 33, 81
7, 19200, Note_off_c, 1, 33, 64
7, 19248, Note_on_c, 1, 33, 81
7, 19298, Note_off_c, 1, 33, 64
7, 19344, Note_on_c, 1, 33, 81
7, 19394, Note_off_c, 1, 33, 64
7, 19440, Note_on_c, 1, 33, 81
7, 19490, Note_off_c, 1, 33, 64
7, 19536, Note_on_c, 1, 33, 81
7, 19586, Note_off_c, 1, 33, 64
7, 19632, Note_on_c, 1, 33, 81
7, 19682, Note_off_c, 1, 33, 64
7, 19728, Note_on_c, 1, 33, 81
7, 19778, Note_off_c, 1, 33, 64
7, 19824, Note_on_c, 1, 37, 81
7, 19874, Note_off_c, 1, 37, 64
7, 19920, Note_on_c, 1, 35, 81
7, 19970, Note_off_c, 1, 35, 64
7, 20016, Note_on_c, 1, 35, 81
7, 20066, Note_off_c, 1, 35, 64
7, 20112, Note_on_c, 1, 35, 81
7, 20162, Note_off_c, 1, 35, 64
7, 20208, Note_on_c, 1, 35, 81
7, 20258, Note_off_c, 1, 35, 64
7, 20304, Note_on_c, 1, 35, 81
7, 20354, Note_off_c, 1, 35, 64
7, 20400, Note_on_c, 1, 35, 81
7, 20450, Note_off_c, 1, 35, 64
7, 20496, Note_on_c, 1, 35, 81
7, 20546, Note_off_c, 1, 35, 64
7, 20592, Note_on_c, 1, 37, 81
7, 20642, Note_off_c, 1, 37, 64
7, 20688, Note_on_c, 1, 38, 81
7, 20738, Note_off_c, 1, 38, 64
7, 20784, Note_on_c, 1, 38, 81
7, 20834, Note_off_c, 1, 38, 64
7, 20880, Note_on_c, 1, 38, 81
7, 20930, Note_off_c, 1, 38, 64
7, 20976, Note_on_c, 1, 38, 81
7, 21026, Note_off_c, 1, 38, 64
7, 21072, Note_on_c, 1, 38, 81
7, 21122, Note_off_c, 1, 38, 64
7, 21168, Note_on_c, 1, 38, 81
7, 21218, Note_off_c, 1, 38, 64
7, 21264, Note_on_c, 1, 38, 81
7, 21314, Note_off_c, 1, 38, 64
7, 21360, Note_on_c, 1, 38, 81
7, 21410, Note_off_c, 1, 38, 64
7, 21456, Note_on_c, 1, 38, 81
7, 21506, Note_off_c, 1, 38, 64
7, 21552, Note_on_c, 1, 33, 81
7, 21602, Note_off_c, 1, 33, 64
7, 21648, Note_on_c, 1, 33, 81
7, 21698, Note_off_c, 1, 33, 64
7, 21744, Note_on_c, 1, 33, 81
7, 21794, Note_off_c, 1, 33, 64
7, 21840, Note_on_c, 1, 33, 81
7, 21890, Note_off_c, 1, 33, 64
7, 21936, Note_on_c, 1, 33, 81
7, 21986, Note_off_c, 1, 33, 64
7, 22032, Note_on_c, 1, 33, 81
7, 22082, Note_off_c, 1, 33, 64
7, 22128, Note_on_c, 1, 33, 81
7, 22178, Note_off_c, 1, 33, 64
7, 22224, Note_on_c, 1, 33, 81
7, 22272, Note_off_c, 1, 33, 64
7, 22320, Note_on_c, 1, 33, 81
7, 22370, Note_off_c, 1, 33, 64
7, 22416, Note_on_c, 1, 33, 81
7, 22466, Note_off_c, 1, 33, 64
7, 22512, Note_on_c, 1, 33, 81
7, 22562, Note_off_c, 1, 33, 64
7, 22608, Note_on_c, 1, 33, 81
7, 22658, Note_off_c, 1, 33, 64
7, 22704, Note_on_c, 1, 32, 81
7, 22754, Note_off_c, 1, 32, 64
7, 22800, Note_on_c, 1, 32, 81
7, 22850, Note_off_c, 1, 32, 64
7, 22896, Note_on_c, 1, 32, 81
7, 22946, Note_off_c, 1, 32, 64
7, 22992, Note_on_c, 1, 32, 81
7, 23042, Note_off_c, 1, 32, 64
7, 23088, Note_on_c, 1, 30, 81
7, 23138, Note_off_c, 1, 30, 64
7, 23184, Note_on_c, 1, 30, 81
7, 23234, Note_off_c, 1, 30, 64
7, 23280, Note_on_c, 1, 30, 81
7, 23330, Note_off_c, 1, 30, 64
7, 23376, Note_on_c, 1, 30, 81
7, 23426, Note_off_c, 1, 30, 64
7, 23472, Note_on_c, 1, 30, 81
7, 23522, Note_off_c, 1, 30, 64
7, 23568, Note_on_c, 1, 30, 81
7, 23618, Note_off_c, 1, 30, 64
7, 23664, Note_on_c, 1, 30, 81
7, 23714, Note_off_c, 1, 30, 64
7, 23760, Note_on_c, 1, 30, 81
7, 23810, Note_off_c, 1, 30, 64
7, 23856, Note_on_c, 1, 35, 81
7, 23906, Note_off_c, 1, 35, 64
7, 23952, Note_on_c, 1, 35, 81
7, 24002, Note_off_c, 1, 35, 64
7, 24048, Note_on_c, 1, 35, 81
7, 24098, Note_off_c, 1, 35, 64
7, 24144, Note_on_c, 1, 35, 81
7, 24194, Note_off_c, 1, 35, 64
7, 24240, Note_on_c, 1, 34, 81
7, 24290, Note_off_c, 1, 34, 64
7, 24336, Note_on_c, 1, 34, 81
7, 24386, Note_off_c, 1, 34, 64
7, 24432, Note_on_c, 1, 34, 81
7, 24482, Note_off_c, 1, 34, 64
7, 24528, Note_on_c, 1, 34, 81
7, 24578, Note_off_c, 1, 34, 64
7, 24624, Note_on_c, 1, 33, 81
7, 24674, Note_off_c, 1, 33, 64
7, 24720, Note_on_c, 1, 33, 81
7, 24770, Note_off_c, 1, 33, 64
7, 24816, Note_on_c, 1, 33, 81
7, 24866, Note_off_c, 1, 33, 64
7, 24912, Note_on_c, 1, 33, 81
7, 24962, Note_off_c, 1, 33, 64
7, 25008, Note_on_c, 1, 40, 81
7, 25058, Note_off_c, 1, 40, 64
7, 25104, Note_on_c, 1, 40, 81
7, 25154, Note_off_c, 1, 40, 64
7, 25200, Note_on_c, 1, 40, 81
7, 25250, Note_off_c, 1, 40, 64
7, 25296, Note_on_c, 1, 40, 81
7, 25344, Note_off_c, 1, 40, 64
7, 25392, Note_on_c, 1, 33, 81
7, 25442, Note_off_c, 1, 33, 64
7, 25488, Note_on_c, 1, 33, 81
7, 25538, Note_off_c, 1, 33, 64
7, 25584, Note_on_c, 1, 33, 81
7, 25634, Note_off_c, 1, 33, 64
7, 25680, Note_on_c, 1, 33, 81
7, 25730, Note_off_c, 1, 33, 64
7, 25776, Note_on_c, 1, 33, 81
7, 25826, Note_off_c, 1, 33, 64
7, 25872, Note_on_c, 1, 33, 81
7, 25922, Note_off_c, 1, 33, 64
7, 25968, Note_on_c, 1, 37, 81
7, 26018, Note_off_c, 1, 37, 64
7, 26064, Note_on_c, 1, 35, 81
7, 26114, Note_off_c, 1, 35, 64
7, 26160, Note_on_c, 1, 35, 81
7, 26210, Note_off_c, 1, 35, 64
7, 26256, Note_on_c, 1, 35, 81
7, 26306, Note_off_c, 1, 35, 64
7, 26352, Note_on_c, 1, 35, 81
7, 26402, Note_off_c, 1, 35, 64
7, 26448, Note_on_c, 1, 35, 81
7, 26498, Note_off_c, 1, 35, 64
7, 26544, Note_on_c, 1, 35, 81
7, 26594, Note_off_c, 1, 35, 64
7, 26640, Note_on_c, 1, 35, 81
7, 26690, Note_off_c, 1, 35, 64
7, 26736, Note_on_c, 1, 37, 81
7, 26786, Note_off_c, 1, 37, 64
7, 26832, Note_on_c, 1, 38, 81
7, 26882, Note_off_c, 1, 38, 64
7, 26928, Note_on_c, 1, 38, 81
7, 26978, Note_off_c, 1, 38, 64
7, 27024, Note_on_c, 1, 38, 81
7, 27074, Note_off_c, 1, 38, 64
7, 27120, Note_on_c, 1, 38, 81
7, 27170, Note_off_c, 1, 38, 64
7, 27216, Note_on_c, 1, 38, 81
7, 27266, Note_off_c, 1, 38, 64
7, 27312, Note_on_c, 1, 38, 81
7, 27362, Note_off_c, 1, 38, 64
7, 27408, Note_on_c, 1, 38, 81
7, 27458, Note_off_c, 1, 38, 64
7, 27504, Note_on_c, 1, 38, 81
7, 27554, Note_off_c, 1, 38, 64
7, 27600, Note_on_c, 1, 38, 81
7, 27650, Note_off_c, 1, 38, 64
7, 27696, Note_on_c, 1, 33, 81
7, 27746, Note_off_c, 1, 33, 64
7, 27792, Note_on_c, 1, 33, 81
7, 27842, Note_off_c, 1, 33, 64
7, 27888, Note_on_c, 1, 33, 81
7, 27938, Note_off_c, 1, 33, 64
7, 27984, Note_on_c, 1, 33, 81
7, 28034, Note_off_c, 1, 33, 64
7, 28080, Note_on_c, 1, 33, 81
7, 28130, Note_off_c, 1, 33, 64
7, 28176, Note_on_c, 1, 33, 81
7, 28226, Note_off_c, 1, 33, 64
7, 28272, Note_on_c, 1, 33, 81
7, 28322, Note_off_c, 1, 33, 64
7, 28368, Note_on_c, 1, 33, 81
7, 28416, Note_off_c, 1, 33, 64
7, 29171, Control_c, 1, 101, 0
7, 29171, Control_c, 1, 100, 0
7, 29171, Control_c, 1, 6, 12
7, 29171, Control_c, 1, 0, 0
7, 29171, Control_c, 1, 32, 4
7, 29171, Control_c, 1, 10, 64
7, 29171, Control_c, 1, 7, 100
7, 29171, Pitch_bend_c, 1, 8192
7, 29171, Program_c, 1, 32
7, 29171, Control_c, 1, 101, 0
7, 29171, Control_c, 1, 100, 0
7, 29171, Control_c, 1, 6, 12
7, 29171, Control_c, 1, 0, 0
7, 29171, Control_c, 1, 32, 4
7, 29171, Control_c, 1, 10, 64
7, 29171, Control_c, 1, 7, 100
7, 29171, Pitch_bend_c, 1, 8192
7, 29171, Program_c, 1, 32
7, 29171, Control_c, 1, 101, 0
7, 29171, Control_c, 1, 100, 0
7, 29171, Control_c, 1, 6, 12
7, 29171, Control_c, 1, 0, 0
7, 29171, Control_c, 1, 32, 4
7, 29171, Control_c, 1, 10, 64
7, 29171, Control_c, 1, 7, 100
7, 29171, Pitch_bend_c, 1, 8192
7, 29171, Program_c, 1, 32
7, 29171, End_track
8, 0, Start_track
8, 0, Title_t, "SynthBass2"
8, 0, Control_c, 3, 10, 64
8, 0, Control_c, 3, 7, 56
8, 0, Pitch_bend_c, 3, 8192
8, 0, Control_c, 3, 101, 0
8, 0, Control_c, 3, 100, 0
8, 0, Control_c, 3, 6, 12
8, 0, Control_c, 3, 0, 0
8, 0, Control_c, 3, 32, 4
8, 0, Control_c, 3, 10, 64
8, 0, Control_c, 3, 7, 56
8, 0, Pitch_bend_c, 3, 8192
8, 0, Program_c, 3, 38
8, 0, Control_c, 3, 101, 0
8, 0, Control_c, 3, 100, 0
8, 0, Control_c, 3, 6, 12
8, 0, Control_c, 3, 0, 0
8, 0, Control_c, 3, 32, 4
8, 0, Control_c, 3, 10, 64
8, 0, Control_c, 3, 7, 56
8, 0, Pitch_bend_c, 3, 8192
8, 0, Program_c, 3, 38
8, 3840, Note_on_c, 3, 64, 81
8, 3840, Note_on_c, 3, 61, 81
8, 3840, Note_on_c, 3, 57, 81
8, 3864, Note_on_c, 3, 57, 81
8, 3864, Note_on_c, 3, 61, 81
8, 3864, Note_on_c, 3, 64, 81
8, 3866, Note_off_c, 3, 61, 64
8, 3866, Note_off_c, 3, 57, 64
8, 3866, Note_off_c, 3, 64, 64
8, 3888, Note_on_c, 3, 61, 81
8, 3888, Note_on_c, 3, 57, 81
8, 3888, Note_on_c, 3, 64, 81
8, 3890, Note_off_c, 3, 64, 64
8, 3890, Note_off_c, 3, 61, 64
8, 3890, Note_off_c, 3, 57, 64
8, 3912, Note_on_c, 3, 64, 81
8, 3912, Note_on_c, 3, 61, 81
8, 3912, Note_on_c, 3, 57, 81
8, 3914, Note_off_c, 3, 64, 64
8, 3914, Note_off_c, 3, 61, 64
8, 3914, Note_off_c, 3, 57, 64
8, 3936, Note_on_c, 3, 57, 81
8, 3936, Note_on_c, 3, 61, 81
8, 3936, Note_on_c, 3, 64, 81
8, 3938, Note_off_c, 3, 57, 64
8, 3938, Note_off_c, 3, 61, 64
8, 3938, Note_off_c, 3, 64, 64
8, 3960, Note_on_c, 3, 57, 81
8, 3960, Note_on_c, 3, 61, 81
8, 3960, Note_on_c, 3, 64, 81
8, 3962, Note_off_c, 3, 57, 64
8, 3962, Note_off_c, 3, 61, 64
8, 3962, Note_off_c, 3, 64, 64
8, 3984, Note_on_c, 3, 64, 81
8, 3984, Note_on_c, 3, 57, 81
8, 3984, Note_on_c, 3, 61, 81
8, 3986, Note_off_c, 3, 64, 64
8, 3986, Note_off_c, 3, 61, 64
8, 3986, Note_off_c, 3, 57, 64
8, 4008, Note_on_c, 3, 64, 81
8, 4008, Note_on_c, 3, 61, 81
8, 4008, Note_on_c, 3, 57, 81
8, 4010, Note_off_c, 3, 61, 64
8, 4010, Note_off_c, 3, 57, 64
8, 4010, Note_off_c, 3, 64, 64
8, 4032, Note_on_c, 3, 64, 81
8, 4032, Note_on_c, 3, 61, 81
8, 4032, Note_on_c, 3, 57, 81
8, 4034, Note_off_c, 3, 57, 64
8, 4034, Note_off_c, 3, 61, 64
8, 4034, Note_off_c, 3, 64, 64
8, 4056, Note_on_c, 3, 64, 81
8, 4056, Note_on_c, 3, 61, 81
8, 4056, Note_on_c, 3, 57, 81
8, 4058, Note_off_c, 3, 64, 64
8, 4058, Note_off_c, 3, 57, 64
8, 4058, Note_off_c, 3, 61, 64
8, 4080, Note_on_c, 3, 64, 81
8, 4080, Note_on_c, 3, 57, 81
8, 4080, Note_on_c, 3, 61, 81
8, 4082, Note_off_c, 3, 57, 64
8, 4082, Note_off_c, 3, 61, 64
8, 4082, Note_off_c, 3, 64, 64
8, 4104, Note_on_c, 3, 64, 81
8, 4104, Note_on_c, 3, 61, 81
8, 4104, Note_on_c, 3, 57, 81
8, 4106, Note_off_c, 3, 61, 64
8, 4106, Note_off_c, 3, 64, 64
8, 4106, Note_off_c, 3, 57, 64
8, 4128, Note_on_c, 3, 64, 81
8, 4128, Note_on_c, 3, 61, 81
8, 4128, Note_on_c, 3, 57, 81
8, 4130, Note_off_c, 3, 57, 64
8, 4130, Note_off_c, 3, 61, 64
8, 4130, Note_off_c, 3, 64, 64
8, 4152, Note_on_c, 3, 57, 81
8, 4152, Note_on_c, 3, 61, 81
8, 4152, Note_on_c, 3, 64, 81
8, 4154, Note_off_c, 3, 64, 64
8, 4154, Note_off_c, 3, 61, 64
8, 4154, Note_off_c, 3, 57, 64
8, 4176, Note_on_c, 3, 64, 81
8, 4176, Note_on_c, 3, 57, 81
8, 4176, Note_on_c, 3, 61, 81
8, 4178, Note_off_c, 3, 64, 64
8, 4178, Note_off_c, 3, 61, 64
8, 4178, Note_off_c, 3, 57, 64
8, 4200, Note_on_c, 3, 57, 81
8, 4200, Note_on_c, 3, 61, 81
8, 4200, Note_on_c, 3, 64, 81
8, 4202, Note_off_c, 3, 61, 64
8, 4202, Note_off_c, 3, 64, 64
8, 4202, Note_off_c, 3, 57, 64
8, 4224, Note_on_c, 3, 64, 81
8, 4224, Note_on_c, 3, 61, 81
8, 4224, Note_on_c, 3, 57, 81
8, 4226, Note_off_c, 3, 64, 64
8, 4226, Note_off_c, 3, 61, 64
8, 4226, Note_off_c, 3, 57, 64
8, 4248, Note_on_c, 3, 64, 81
8, 4248, Note_on_c, 3, 61, 81
8, 4248, Note_on_c, 3, 57, 81
8, 4250, Note_off_c, 3, 64, 64
8, 4250, Note_off_c, 3, 57, 64
8, 4250, Note_off_c, 3, 61, 64
8, 4272, Note_on_c, 3, 64, 81
8, 4272, Note_on_c, 3, 57, 81
8, 4272, Note_on_c, 3, 61, 81
8, 4274, Note_off_c, 3, 57, 64
8, 4274, Note_off_c, 3, 61, 64
8, 4274, Note_off_c, 3, 64, 64
8, 4296, Note_on_c, 3, 61, 81
8, 4296, Note_on_c, 3, 64, 81
8, 4296, Note_on_c, 3, 57, 81
8, 4298, Note_off_c, 3, 61, 64
8, 4298, Note_off_c, 3, 64, 64
8, 4298, Note_off_c, 3, 57, 64
8, 4320, Note_on_c, 3, 64, 81
8, 4320, Note_on_c, 3, 59, 81
8, 4322, Note_off_c, 3, 57, 64
8, 4322, Note_off_c, 3, 64, 64
8, 4322, Note_off_c, 3, 61, 64
8, 4344, Note_on_c, 3, 64, 81
8, 4344, Note_on_c, 3, 59, 81
8, 4346, Note_off_c, 3, 64, 64
8, 4346, Note_off_c, 3, 59, 64
8, 4368, Note_on_c, 3, 64, 81
8, 4368, Note_on_c, 3, 59, 81
8, 4370, Note_off_c, 3, 59, 64
8, 4370, Note_off_c, 3, 64, 64
8, 4392, Note_on_c, 3, 64, 81
8, 4392, Note_on_c, 3, 59, 81
8, 4394, Note_off_c, 3, 64, 64
8, 4394, Note_off_c, 3, 59, 64
8, 4416, Note_on_c, 3, 59, 81
8, 4416, Note_on_c, 3, 64, 81
8, 4418, Note_off_c, 3, 59, 64
8, 4418, Note_off_c, 3, 64, 64
8, 4440, Note_on_c, 3, 59, 81
8, 4440, Note_on_c, 3, 64, 81
8, 4442, Note_off_c, 3, 59, 64
8, 4442, Note_off_c, 3, 64, 64
8, 4464, Note_on_c, 3, 59, 81
8, 4464, Note_on_c, 3, 64, 81
8, 4466, Note_off_c, 3, 64, 64
8, 4466, Note_off_c, 3, 59, 64
8, 4488, Note_on_c, 3, 64, 81
8, 4488, Note_on_c, 3, 59, 81
8, 4490, Note_off_c, 3, 59, 64
8, 4490, Note_off_c, 3, 64, 64
8, 4512, Note_on_c, 3, 64, 81
8, 4512, Note_on_c, 3, 59, 81
8, 4514, Note_off_c, 3, 59, 64
8, 4514, Note_off_c, 3, 64, 64
8, 4536, Note_on_c, 3, 64, 81
8, 4536, Note_on_c, 3, 59, 81
8, 4538, Note_off_c, 3, 64, 64
8, 4538, Note_off_c, 3, 59, 64
8, 4560, Note_on_c, 3, 64, 81
8, 4560, Note_on_c, 3, 59, 81
8, 4562, Note_off_c, 3, 59, 64
8, 4562, Note_off_c, 3, 64, 64
8, 4584, Note_on_c, 3, 64, 81
8, 4584, Note_on_c, 3, 59, 81
8, 4586, Note_off_c, 3, 64, 64
8, 4586, Note_off_c, 3, 59, 64
8, 4608, Note_on_c, 3, 54, 81
8, 4608, Note_on_c, 3, 59, 81
8, 4608, Note_on_c, 3, 62, 81
8, 4610, Note_off_c, 3, 59, 64
8, 4610, Note_off_c, 3, 64, 64
8, 4632, Note_on_c, 3, 54, 81
8, 4632, Note_on_c, 3, 59, 81
8, 4632, Note_on_c, 3, 62, 81
8, 4634, Note_off_c, 3, 54, 64
8, 4634, Note_off_c, 3, 62, 64
8, 4634, Note_off_c, 3, 59, 64
8, 4656, Note_on_c, 3, 54, 81
8, 4656, Note_on_c, 3, 59, 81
8, 4656, Note_on_c, 3, 62, 81
8, 4658, Note_off_c, 3, 62, 64
8, 4658, Note_off_c, 3, 59, 64
8, 4658, Note_off_c, 3, 54, 64
8, 4680, Note_on_c, 3, 54, 81
8, 4680, Note_on_c, 3, 59, 81
8, 4680, Note_on_c, 3, 62, 81
8, 4682, Note_off_c, 3, 62, 64
8, 4682, Note_off_c, 3, 54, 64
8, 4682, Note_off_c, 3, 59, 64
8, 4704, Note_on_c, 3, 59, 81
8, 4704, Note_on_c, 3, 54, 81
8, 4704, Note_on_c, 3, 62, 81
8, 4706, Note_off_c, 3, 62, 64
8, 4706, Note_off_c, 3, 59, 64
8, 4706, Note_off_c, 3, 54, 64
8, 4728, Note_on_c, 3, 54, 81
8, 4728, Note_on_c, 3, 62, 81
8, 4728, Note_on_c, 3, 59, 81
8, 4730, Note_off_c, 3, 59, 64
8, 4730, Note_off_c, 3, 54, 64
8, 4730, Note_off_c, 3, 62, 64
8, 4752, Note_on_c, 3, 54, 81
8, 4752, Note_on_c, 3, 62, 81
8, 4752, Note_on_c, 3, 59, 81
8, 4754, Note_off_c, 3, 59, 64
8, 4754, Note_off_c, 3, 62, 64
8, 4754, Note_off_c, 3, 54, 64
8, 4776, Note_on_c, 3, 54, 81
8, 4776, Note_on_c, 3, 62, 81
8, 4776, Note_on_c, 3, 59, 81
8, 4778, Note_off_c, 3, 59, 64
8, 4778, Note_off_c, 3, 54, 64
8, 4778, Note_off_c, 3, 62, 64
8, 4800, Note_on_c, 3, 54, 81
8, 4800, Note_on_c, 3, 59, 81
8, 4800, Note_on_c, 3, 64, 81
8, 4802, Note_off_c, 3, 59, 64
8, 4802, Note_off_c, 3, 62, 64
8, 4802, Note_off_c, 3, 54, 64
8, 4824, Note_on_c, 3, 54, 81
8, 4824, Note_on_c, 3, 59, 81
8, 4824, Note_on_c, 3, 64, 81
8, 4826, Note_off_c, 3, 54, 64
8, 4826, Note_off_c, 3, 64, 64
8, 4826, Note_off_c, 3, 59, 64
8, 4848, Note_on_c, 3, 54, 81
8, 4848, Note_on_c, 3, 59, 81
8, 4848, Note_on_c, 3, 64, 81
8, 4850, Note_off_c, 3, 64, 64
8, 4850, Note_off_c, 3, 59, 64
8, 4850, Note_off_c, 3, 54, 64
8, 4872, Note_on_c, 3, 54, 81
8, 4872, Note_on_c, 3, 59, 81
8, 4872, Note_on_c, 3, 64, 81
8, 4874, Note_off_c, 3, 64, 64
8, 4874, Note_off_c, 3, 54, 64
8, 4874, Note_off_c, 3, 59, 64
8, 4896, Note_on_c, 3, 54, 81
8, 4896, Note_on_c, 3, 59, 81
8, 4896, Note_on_c, 3, 62, 81
8, 4898, Note_off_c, 3, 64, 64
8, 4898, Note_off_c, 3, 59, 64
8, 4898, Note_off_c, 3, 54, 64
8, 4920, Note_on_c, 3, 54, 81
8, 4920, Note_on_c, 3, 59, 81
8, 4920, Note_on_c, 3, 62, 81
8, 4922, Note_off_c, 3, 54, 64
8, 4922, Note_off_c, 3, 59, 64
8, 4922, Note_off_c, 3, 62, 64
8, 4944, Note_on_c, 3, 54, 81
8, 4944, Note_on_c, 3, 59, 81
8, 4944, Note_on_c, 3, 62, 81
8, 4946, Note_off_c, 3, 62, 64
8, 4946, Note_off_c, 3, 59, 64
8, 4946, Note_off_c, 3, 54, 64
8, 4968, Note_on_c, 3, 62, 81
8, 4968, Note_on_c, 3, 59, 81
8, 4968, Note_on_c, 3, 54, 81
8, 4970, Note_off_c, 3, 62, 64
8, 4970, Note_off_c, 3, 54, 64
8, 4970, Note_off_c, 3, 59, 64
8, 4992, Note_on_c, 3, 62, 81
8, 4992, Note_on_c, 3, 59, 81
8, 4992, Note_on_c, 3, 54, 81
8, 4994, Note_off_c, 3, 54, 64
8, 4994, Note_off_c, 3, 59, 64
8, 4994, Note_off_c, 3, 62, 64
8, 5016, Note_on_c, 3, 54, 81
8, 5016, Note_on_c, 3, 59, 81
8, 5016, Note_on_c, 3, 62, 81
8, 5018, Note_off_c, 3, 62, 64
8, 5018, Note_off_c, 3, 54, 64
8, 5018, Note_off_c, 3, 59, 64
8, 5040, Note_on_c, 3, 54, 81
8, 5040, Note_on_c, 3, 59, 81
8, 5040, Note_on_c, 3, 62, 81
8, 5042, Note_off_c, 3, 62, 64
8, 5042, Note_off_c, 3, 59, 64
8, 5042, Note_off_c, 3, 54, 64
8, 5064, Note_on_c, 3, 62, 81
8, 5064, Note_on_c, 3, 59, 81
8, 5064, Note_on_c, 3, 54, 81
8, 5066, Note_off_c, 3, 62, 64
8, 5066, Note_off_c, 3, 54, 64
8, 5066, Note_off_c, 3, 59, 64
8, 5088, Note_on_c, 3, 62, 81
8, 5088, Note_on_c, 3, 59, 81
8, 5088, Note_on_c, 3, 54, 81
8, 5090, Note_off_c, 3, 54, 64
8, 5090, Note_off_c, 3, 59, 64
8, 5090, Note_off_c, 3, 62, 64
8, 5112, Note_on_c, 3, 54, 81
8, 5112, Note_on_c, 3, 59, 81
8, 5112, Note_on_c, 3, 62, 81
8, 5114, Note_off_c, 3, 62, 64
8, 5114, Note_off_c, 3, 59, 64
8, 5114, Note_off_c, 3, 54, 64
8, 5136, Note_on_c, 3, 54, 81
8, 5136, Note_on_c, 3, 59, 81
8, 5136, Note_on_c, 3, 62, 81
8, 5138, Note_off_c, 3, 62, 64
8, 5138, Note_off_c, 3, 59, 64
8, 5138, Note_off_c, 3, 54, 64
8, 5160, Note_on_c, 3, 62, 81
8, 5160, Note_on_c, 3, 59, 81
8, 5160, Note_on_c, 3, 54, 81
8, 5162, Note_off_c, 3, 62, 64
8, 5162, Note_off_c, 3, 54, 64
8, 5162, Note_off_c, 3, 59, 64
8, 5184, Note_on_c, 3, 54, 81
8, 5184, Note_on_c, 3, 59, 81
8, 5184, Note_on_c, 3, 62, 81
8, 5186, Note_off_c, 3, 54, 64
8, 5186, Note_off_c, 3, 59, 64
8, 5186, Note_off_c, 3, 62, 64
8, 5208, Note_on_c, 3, 54, 81
8, 5208, Note_on_c, 3, 59, 81
8, 5208, Note_on_c, 3, 62, 81
8, 5210, Note_off_c, 3, 54, 64
8, 5210, Note_off_c, 3, 62, 64
8, 5210, Note_off_c, 3, 59, 64
8, 5232, Note_on_c, 3, 62, 81
8, 5232, Note_on_c, 3, 59, 81
8, 5232, Note_on_c, 3, 54, 81
8, 5234, Note_off_c, 3, 62, 64
8, 5234, Note_off_c, 3, 59, 64
8, 5234, Note_off_c, 3, 54, 64
8, 5256, Note_on_c, 3, 54, 81
8, 5256, Note_on_c, 3, 59, 81
8, 5256, Note_on_c, 3, 62, 81
8, 5258, Note_off_c, 3, 54, 64
8, 5258, Note_off_c, 3, 62, 64
8, 5258, Note_off_c, 3, 59, 64
8, 5280, Note_on_c, 3, 59, 81
8, 5280, Note_on_c, 3, 64, 81
8, 5282, Note_off_c, 3, 62, 64
8, 5282, Note_off_c, 3, 59, 64
8, 5282, Note_off_c, 3, 54, 64
8, 5304, Note_on_c, 3, 59, 81
8, 5304, Note_on_c, 3, 64, 81
8, 5306, Note_off_c, 3, 59, 64
8, 5306, Note_off_c, 3, 64, 64
8, 5328, Note_on_c, 3, 59, 81
8, 5328, Note_on_c, 3, 64, 81
8, 5330, Note_off_c, 3, 64, 64
8, 5330, Note_off_c, 3, 59, 64
8, 5352, Note_on_c, 3, 59, 81
8, 5352, Note_on_c, 3, 64, 81
8, 5354, Note_off_c, 3, 59, 64
8, 5354, Note_off_c, 3, 64, 64
8, 5376, Note_on_c, 3, 62, 81
8, 5376, Note_on_c, 3, 66, 81
8, 5378, Note_off_c, 3, 64, 64
8, 5378, Note_off_c, 3, 59, 64
8, 5402, Note_off_c, 3, 62, 64
8, 5402, Note_off_c, 3, 66, 64
8, 5424, Note_on_c, 3, 62, 81
8, 5424, Note_on_c, 3, 66, 81
8, 5448, Note_on_c, 3, 62, 81
8, 5448, Note_on_c, 3, 66, 81
8, 5450, Note_off_c, 3, 62, 64
8, 5450, Note_off_c, 3, 66, 64
8, 5474, Note_off_c, 3, 66, 64
8, 5474, Note_off_c, 3, 62, 64
8, 5496, Note_on_c, 3, 66, 81
8, 5496, Note_on_c, 3, 62, 81
8, 5520, Note_on_c, 3, 62, 81
8, 5520, Note_on_c, 3, 66, 81
8, 5522, Note_off_c, 3, 62, 64
8, 5522, Note_off_c, 3, 66, 64
8, 5546, Note_off_c, 3, 66, 64
8, 5546, Note_off_c, 3, 62, 64
8, 5568, Note_on_c, 3, 62, 81
8, 5568, Note_on_c, 3, 67, 81
8, 5594, Note_off_c, 3, 62, 64
8, 5594, Note_off_c, 3, 67, 64
8, 5616, Note_on_c, 3, 62, 81
8, 5616, Note_on_c, 3, 67, 81
8, 5640, Note_on_c, 3, 62, 81
8, 5640, Note_on_c, 3, 67, 81
8, 5642, Note_off_c, 3, 62, 64
8, 5642, Note_off_c, 3, 67, 64
8, 5666, Note_off_c, 3, 67, 64
8, 5666, Note_off_c, 3, 62, 64
8, 5688, Note_on_c, 3, 62, 81
8, 5688, Note_on_c, 3, 67, 81
8, 5712, Note_on_c, 3, 62, 81
8, 5712, Note_on_c, 3, 67, 81
8, 5714, Note_off_c, 3, 62, 64
8, 5714, Note_off_c, 3, 67, 64
8, 5738, Note_off_c, 3, 62, 64
8, 5738, Note_off_c, 3, 67, 64
8, 5760, Note_on_c, 3, 62, 81
8, 5760, Note_on_c, 3, 69, 81
8, 5760, Note_on_c, 3, 66, 81
8, 5786, Note_off_c, 3, 69, 64
8, 5786, Note_off_c, 3, 66, 64
8, 5786, Note_off_c, 3, 62, 64
8, 5808, Note_on_c, 3, 62, 81
8, 5808, Note_on_c, 3, 66, 81
8, 5808, Note_on_c, 3, 69, 81
8, 5832, Note_on_c, 3, 62, 81
8, 5832, Note_on_c, 3, 66, 81
8, 5832, Note_on_c, 3, 69, 81
8, 5834, Note_off_c, 3, 62, 64
8, 5834, Note_off_c, 3, 66, 64
8, 5834, Note_off_c, 3, 69, 64
8, 5858, Note_off_c, 3, 69, 64
8, 5858, Note_off_c, 3, 66, 64
8, 5858, Note_off_c, 3, 62, 64
8, 5880, Note_on_c, 3, 62, 81
8, 5880, Note_on_c, 3, 66, 81
8, 5880, Note_on_c, 3, 69, 81
8, 5904, Note_on_c, 3, 62, 81
8, 5904, Note_on_c, 3, 66, 81
8, 5904, Note_on_c, 3, 69, 81
8, 5906, Note_off_c, 3, 69, 64
8, 5906, Note_off_c, 3, 66, 64
8, 5906, Note_off_c, 3, 62, 64
8, 5930, Note_off_c, 3, 69, 64
8, 5930, Note_off_c, 3, 66, 64
8, 5930, Note_off_c, 3, 62, 64
8, 5952, Note_on_c, 3, 57, 81
8, 5952, Note_on_c, 3, 66, 81
8, 5952, Note_on_c, 3, 62, 81
8, 5978, Note_off_c, 3, 66, 64
8, 5978, Note_off_c, 3, 62, 64
8, 5978, Note_off_c, 3, 57, 64
8, 6000, Note_on_c, 3, 57, 81
8, 6000, Note_on_c, 3, 62, 81
8, 6000, Note_on_c, 3, 66, 81
8, 6024, Note_on_c, 3, 57, 81
8, 6024, Note_on_c, 3, 62, 81
8, 6024, Note_on_c, 3, 66, 81
8, 6026, Note_off_c, 3, 57, 64
8, 6026, Note_off_c, 3, 62, 64
8, 6026, Note_off_c, 3, 66, 64
8, 6050, Note_off_c, 3, 66, 64
8, 6050, Note_off_c, 3, 62, 64
8, 6050, Note_off_c, 3, 57, 64
8, 6072, Note_on_c, 3, 57, 81
8, 6072, Note_on_c, 3, 66, 81
8, 6072, Note_on_c, 3, 62, 81
8, 6096, Note_on_c, 3, 57, 81
8, 6096, Note_on_c, 3, 62, 81
8, 6096, Note_on_c, 3, 66, 81
8, 6098, Note_off_c, 3, 62, 64
8, 6098, Note_off_c, 3, 66, 64
8, 6098, Note_off_c, 3, 57, 64
8, 6122, Note_off_c, 3, 66, 64
8, 6122, Note_off_c, 3, 62, 64
8, 6122, Note_off_c, 3, 57, 64
8, 6144, Note_on_c, 3, 64, 81
8, 6144, Note_on_c, 3, 61, 81
8, 6144, Note_on_c, 3, 57, 81
8, 6168, Note_on_c, 3, 57, 81
8, 6168, Note_on_c, 3, 61, 81
8, 6168, Note_on_c, 3, 64, 81
8, 6170, Note_off_c, 3, 61, 64
8, 6170, Note_off_c, 3, 57, 64
8, 6170, Note_off_c, 3, 64, 64
8, 6192, Note_on_c, 3, 61, 81
8, 6192, Note_on_c, 3, 57, 81
8, 6192, Note_on_c, 3, 64, 81
8, 6194, Note_off_c, 3, 64, 64
8, 6194, Note_off_c, 3, 61, 64
8, 6194, Note_off_c, 3, 57, 64
8, 6216, Note_on_c, 3, 64, 81
8, 6216, Note_on_c, 3, 61, 81
8, 6216, Note_on_c, 3, 57, 81
8, 6218, Note_off_c, 3, 64, 64
8, 6218, Note_off_c, 3, 61, 64
8, 6218, Note_off_c, 3, 57, 64
8, 6240, Note_on_c, 3, 57, 81
8, 6240, Note_on_c, 3, 61, 81
8, 6240, Note_on_c, 3, 64, 81
8, 6242, Note_off_c, 3, 57, 64
8, 6242, Note_off_c, 3, 61, 64
8, 6242, Note_off_c, 3, 64, 64
8, 6264, Note_on_c, 3, 57, 81
8, 6264, Note_on_c, 3, 61, 81
8, 6264, Note_on_c, 3, 64, 81
8, 6266, Note_off_c, 3, 57, 64
8, 6266, Note_off_c, 3, 61, 64
8, 6266, Note_off_c, 3, 64, 64
8, 6288, Note_on_c, 3, 64, 81
8, 6288, Note_on_c, 3, 57, 81
8, 6288, Note_on_c, 3, 61, 81
8, 6290, Note_off_c, 3, 64, 64
8, 6290, Note_off_c, 3, 61, 64
8, 6290, Note_off_c, 3, 57, 64
8, 6312, Note_on_c, 3, 64, 81
8, 6312, Note_on_c, 3, 61, 81
8, 6312, Note_on_c, 3, 57, 81
8, 6314, Note_off_c, 3, 61, 64
8, 6314, Note_off_c, 3, 57, 64
8, 6314, Note_off_c, 3, 64, 64
8, 6336, Note_on_c, 3, 64, 81
8, 6336, Note_on_c, 3, 61, 81
8, 6336, Note_on_c, 3, 57, 81
8, 6338, Note_off_c, 3, 57, 64
8, 6338, Note_off_c, 3, 61, 64
8, 6338, Note_off_c, 3, 64, 64
8, 6360, Note_on_c, 3, 64, 81
8, 6360, Note_on_c, 3, 61, 81
8, 6360, Note_on_c, 3, 57, 81
8, 6362, Note_off_c, 3, 64, 64
8, 6362, Note_off_c, 3, 57, 64
8, 6362, Note_off_c, 3, 61, 64
8, 6384, Note_on_c, 3, 64, 81
8, 6384, Note_on_c, 3, 57, 81
8, 6384, Note_on_c, 3, 61, 81
8, 6386, Note_off_c, 3, 57, 64
8, 6386, Note_off_c, 3, 61, 64
8, 6386, Note_off_c, 3, 64, 64
8, 6408, Note_on_c, 3, 64, 81
8, 6408, Note_on_c, 3, 61, 81
8, 6408, Note_on_c, 3, 57, 81
8, 6410, Note_off_c, 3, 61, 64
8, 6410, Note_off_c, 3, 64, 64
8, 6410, Note_off_c, 3, 57, 64
8, 6432, Note_on_c, 3, 64, 81
8, 6432, Note_on_c, 3, 61, 81
8, 6432, Note_on_c, 3, 57, 81
8, 6434, Note_off_c, 3, 57, 64
8, 6434, Note_off_c, 3, 61, 64
8, 6434, Note_off_c, 3, 64, 64
8, 6456, Note_on_c, 3, 57, 81
8, 6456, Note_on_c, 3, 61, 81
8, 6456, Note_on_c, 3, 64, 81
8, 6458, Note_off_c, 3, 64, 64
8, 6458, Note_off_c, 3, 61, 64
8, 6458, Note_off_c, 3, 57, 64
8, 6480, Note_on_c, 3, 64, 81
8, 6480, Note_on_c, 3, 57, 81
8, 6480, Note_on_c, 3, 61, 81
8, 6482, Note_off_c, 3, 64, 64
8, 6482, Note_off_c, 3, 61, 64
8, 6482, Note_off_c, 3, 57, 64
8, 6504, Note_on_c, 3, 57, 81
8, 6504, Note_on_c, 3, 61, 81
8, 6504, Note_on_c, 3, 64, 81
8, 6506, Note_off_c, 3, 61, 64
8, 6506, Note_off_c, 3, 64, 64
8, 6506, Note_off_c, 3, 57, 64
8, 6528, Note_on_c, 3, 64, 81
8, 6528, Note_on_c, 3, 61, 81
8, 6528, Note_on_c, 3, 57, 81
8, 6530, Note_off_c, 3, 64, 64
8, 6530, Note_off_c, 3, 61, 64
8, 6530, Note_off_c, 3, 57, 64
8, 6554, Note_off_c, 3, 57, 64
8, 6554, Note_off_c, 3, 64, 64
8, 6554, Note_off_c, 3, 61, 64
8, 6912, Note_on_c, 3, 64, 81
8, 6912, Note_on_c, 3, 61, 81
8, 6912, Note_on_c, 3, 57, 81
8, 6936, Note_on_c, 3, 57, 81
8, 6936, Note_on_c, 3, 61, 81
8, 6936, Note_on_c, 3, 64, 81
8, 6938, Note_off_c, 3, 64, 64
8, 6938, Note_off_c, 3, 61, 64
8, 6938, Note_off_c, 3, 57, 64
8, 6960, Note_on_c, 3, 61, 81
8, 6960, Note_on_c, 3, 57, 81
8, 6960, Note_on_c, 3, 64, 81
8, 6962, Note_off_c, 3, 64, 64
8, 6962, Note_off_c, 3, 61, 64
8, 6962, Note_off_c, 3, 57, 64
8, 6984, Note_on_c, 3, 64, 81
8, 6984, Note_on_c, 3, 61, 81
8, 6984, Note_on_c, 3, 57, 81
8, 6986, Note_off_c, 3, 64, 64
8, 6986, Note_off_c, 3, 61, 64
8, 6986, Note_off_c, 3, 57, 64
8, 7008, Note_on_c, 3, 57, 81
8, 7008, Note_on_c, 3, 61, 81
8, 7008, Note_on_c, 3, 64, 81
8, 7010, Note_off_c, 3, 57, 64
8, 7010, Note_off_c, 3, 61, 64
8, 7010, Note_off_c, 3, 64, 64
8, 7032, Note_on_c, 3, 57, 81
8, 7032, Note_on_c, 3, 61, 81
8, 7032, Note_on_c, 3, 64, 81
8, 7034, Note_off_c, 3, 57, 64
8, 7034, Note_off_c, 3, 61, 64
8, 7034, Note_off_c, 3, 64, 64
8, 7056, Note_on_c, 3, 64, 81
8, 7056, Note_on_c, 3, 57, 81
8, 7056, Note_on_c, 3, 61, 81
8, 7058, Note_off_c, 3, 64, 64
8, 7058, Note_off_c, 3, 61, 64
8, 7058, Note_off_c, 3, 57, 64
8, 7080, Note_on_c, 3, 64, 81
8, 7080, Note_on_c, 3, 61, 81
8, 7080, Note_on_c, 3, 57, 81
8, 7082, Note_off_c, 3, 61, 64
8, 7082, Note_off_c, 3, 57, 64
8, 7082, Note_off_c, 3, 64, 64
8, 7104, Note_on_c, 3, 64, 81
8, 7104, Note_on_c, 3, 61, 81
8, 7104, Note_on_c, 3, 57, 81
8, 7106, Note_off_c, 3, 57, 64
8, 7106, Note_off_c, 3, 61, 64
8, 7106, Note_off_c, 3, 64, 64
8, 7128, Note_on_c, 3, 64, 81
8, 7128, Note_on_c, 3, 61, 81
8, 7128, Note_on_c, 3, 57, 81
8, 7130, Note_off_c, 3, 64, 64
8, 7130, Note_off_c, 3, 57, 64
8, 7130, Note_off_c, 3, 61, 64
8, 7152, Note_on_c, 3, 64, 81
8, 7152, Note_on_c, 3, 57, 81
8, 7152, Note_on_c, 3, 61, 81
8, 7154, Note_off_c, 3, 57, 64
8, 7154, Note_off_c, 3, 61, 64
8, 7154, Note_off_c, 3, 64, 64
8, 7176, Note_on_c, 3, 64, 81
8, 7176, Note_on_c, 3, 61, 81
8, 7176, Note_on_c, 3, 57, 81
8, 7178, Note_off_c, 3, 61, 64
8, 7178, Note_off_c, 3, 64, 64
8, 7178, Note_off_c, 3, 57, 64
8, 7200, Note_on_c, 3, 64, 81
8, 7200, Note_on_c, 3, 61, 81
8, 7200, Note_on_c, 3, 57, 81
8, 7202, Note_off_c, 3, 57, 64
8, 7202, Note_off_c, 3, 61, 64
8, 7202, Note_off_c, 3, 64, 64
8, 7224, Note_on_c, 3, 57, 81
8, 7224, Note_on_c, 3, 61, 81
8, 7224, Note_on_c, 3, 64, 81
8, 7226, Note_off_c, 3, 64, 64
8, 7226, Note_off_c, 3, 61, 64
8, 7226, Note_off_c, 3, 57, 64
8, 7248, Note_on_c, 3, 64, 81
8, 7248, Note_on_c, 3, 57, 81
8, 7248, Note_on_c, 3, 61, 81
8, 7250, Note_off_c, 3, 64, 64
8, 7250, Note_off_c, 3, 61, 64
8, 7250, Note_off_c, 3, 57, 64
8, 7272, Note_on_c, 3, 57, 81
8, 7272, Note_on_c, 3, 61, 81
8, 7272, Note_on_c, 3, 64, 81
8, 7274, Note_off_c, 3, 61, 64
8, 7274, Note_off_c, 3, 64, 64
8, 7274, Note_off_c, 3, 57, 64
8, 7296, Note_on_c, 3, 64, 81
8, 7296, Note_on_c, 3, 61, 81
8, 7296, Note_on_c, 3, 57, 81
8, 7298, Note_off_c, 3, 64, 64
8, 7298, Note_off_c, 3, 61, 64
8, 7298, Note_off_c, 3, 57, 64
8, 7320, Note_on_c, 3, 64, 81
8, 7320, Note_on_c, 3, 61, 81
8, 7320, Note_on_c, 3, 57, 81
8, 7322, Note_off_c, 3, 64, 64
8, 7322, Note_off_c, 3, 57, 64
8, 7322, Note_off_c, 3, 61, 64
8, 7344, Note_on_c, 3, 64, 81
8, 7344, Note_on_c, 3, 57, 81
8, 7344, Note_on_c, 3, 61, 81
8, 7346, Note_off_c, 3, 57, 64
8, 7346, Note_off_c, 3, 61, 64
8, 7346, Note_off_c, 3, 64, 64
8, 7368, Note_on_c, 3, 61, 81
8, 7368, Note_on_c, 3, 64, 81
8, 7368, Note_on_c, 3, 57, 81
8, 7370, Note_off_c, 3, 61, 64
8, 7370, Note_off_c, 3, 64, 64
8, 7370, Note_off_c, 3, 57, 64
8, 7392, Note_on_c, 3, 64, 81
8, 7392, Note_on_c, 3, 59, 81
8, 7394, Note_off_c, 3, 57, 64
8, 7394, Note_off_c, 3, 64, 64
8, 7394, Note_off_c, 3, 61, 64
8, 7416, Note_on_c, 3, 64, 81
8, 7416, Note_on_c, 3, 59, 81
8, 7418, Note_off_c, 3, 64, 64
8, 7418, Note_off_c, 3, 59, 64
8, 7440, Note_on_c, 3, 64, 81
8, 7440, Note_on_c, 3, 59, 81
8, 7442, Note_off_c, 3, 59, 64
8, 7442, Note_off_c, 3, 64, 64
8, 7464, Note_on_c, 3, 64, 81
8, 7464, Note_on_c, 3, 59, 81
8, 7466, Note_off_c, 3, 64, 64
8, 7466, Note_off_c, 3, 59, 64
8, 7488, Note_on_c, 3, 59, 81
8, 7488, Note_on_c, 3, 64, 81
8, 7490, Note_off_c, 3, 59, 64
8, 7490, Note_off_c, 3, 64, 64
8, 7512, Note_on_c, 3, 59, 81
8, 7512, Note_on_c, 3, 64, 81
8, 7514, Note_off_c, 3, 59, 64
8, 7514, Note_off_c, 3, 64, 64
8, 7536, Note_on_c, 3, 59, 81
8, 7536, Note_on_c, 3, 64, 81
8, 7538, Note_off_c, 3, 64, 64
8, 7538, Note_off_c, 3, 59, 64
8, 7560, Note_on_c, 3, 64, 81
8, 7560, Note_on_c, 3, 59, 81
8, 7562, Note_off_c, 3, 59, 64
8, 7562, Note_off_c, 3, 64, 64
8, 7584, Note_on_c, 3, 64, 81
8, 7584, Note_on_c, 3, 59, 81
8, 7586, Note_off_c, 3, 59, 64
8, 7586, Note_off_c, 3, 64, 64
8, 7608, Note_on_c, 3, 64, 81
8, 7608, Note_on_c, 3, 59, 81
8, 7610, Note_off_c, 3, 64, 64
8, 7610, Note_off_c, 3, 59, 64
8, 7632, Note_on_c, 3, 64, 81
8, 7632, Note_on_c, 3, 59, 81
8, 7634, Note_off_c, 3, 59, 64
8, 7634, Note_off_c, 3, 64, 64
8, 7656, Note_on_c, 3, 64, 81
8, 7656, Note_on_c, 3, 59, 81
8, 7658, Note_off_c, 3, 64, 64
8, 7658, Note_off_c, 3, 59, 64
8, 7680, Note_on_c, 3, 54, 81
8, 7680, Note_on_c, 3, 59, 81
8, 7680, Note_on_c, 3, 62, 81
8, 7682, Note_off_c, 3, 59, 64
8, 7682, Note_off_c, 3, 64, 64
8, 7704, Note_on_c, 3, 54, 81
8, 7704, Note_on_c, 3, 59, 81
8, 7704, Note_on_c, 3, 62, 81
8, 7706, Note_off_c, 3, 54, 64
8, 7706, Note_off_c, 3, 62, 64
8, 7706, Note_off_c, 3, 59, 64
8, 7728, Note_on_c, 3, 54, 81
8, 7728, Note_on_c, 3, 59, 81
8, 7728, Note_on_c, 3, 62, 81
8, 7730, Note_off_c, 3, 62, 64
8, 7730, Note_off_c, 3, 59, 64
8, 7730, Note_off_c, 3, 54, 64
8, 7752, Note_on_c, 3, 54, 81
8, 7752, Note_on_c, 3, 59, 81
8, 7752, Note_on_c, 3, 62, 81
8, 7754, Note_off_c, 3, 62, 64
8, 7754, Note_off_c, 3, 54, 64
8, 7754, Note_off_c, 3, 59, 64
8, 7776, Note_on_c, 3, 59, 81
8, 7776, Note_on_c, 3, 54, 81
8, 7776, Note_on_c, 3, 62, 81
8, 7778, Note_off_c, 3, 62, 64
8, 7778, Note_off_c, 3, 59, 64
8, 7778, Note_off_c, 3, 54, 64
8, 7800, Note_on_c, 3, 54, 81
8, 7800, Note_on_c, 3, 62, 81
8, 7800, Note_on_c, 3, 59, 81
8, 7802, Note_off_c, 3, 59, 64
8, 7802, Note_off_c, 3, 54, 64
8, 7802, Note_off_c, 3, 62, 64
8, 7824, Note_on_c, 3, 54, 81
8, 7824, Note_on_c, 3, 62, 81
8, 7824, Note_on_c, 3, 59, 81
8, 7826, Note_off_c, 3, 59, 64
8, 7826, Note_off_c, 3, 62, 64
8, 7826, Note_off_c, 3, 54, 64
8, 7848, Note_on_c, 3, 54, 81
8, 7848, Note_on_c, 3, 62, 81
8, 7848, Note_on_c, 3, 59, 81
8, 7850, Note_off_c, 3, 59, 64
8, 7850, Note_off_c, 3, 54, 64
8, 7850, Note_off_c, 3, 62, 64
8, 7872, Note_on_c, 3, 54, 81
8, 7872, Note_on_c, 3, 59, 81
8, 7872, Note_on_c, 3, 64, 81
8, 7874, Note_off_c, 3, 59, 64
8, 7874, Note_off_c, 3, 62, 64
8, 7874, Note_off_c, 3, 54, 64
8, 7896, Note_on_c, 3, 54, 81
8, 7896, Note_on_c, 3, 59, 81
8, 7896, Note_on_c, 3, 64, 81
8, 7898, Note_off_c, 3, 54, 64
8, 7898, Note_off_c, 3, 64, 64
8, 7898, Note_off_c, 3, 59, 64
8, 7920, Note_on_c, 3, 54, 81
8, 7920, Note_on_c, 3, 59, 81
8, 7920, Note_on_c, 3, 64, 81
8, 7922, Note_off_c, 3, 64, 64
8, 7922, Note_off_c, 3, 59, 64
8, 7922, Note_off_c, 3, 54, 64
8, 7944, Note_on_c, 3, 54, 81
8, 7944, Note_on_c, 3, 59, 81
8, 7944, Note_on_c, 3, 64, 81
8, 7946, Note_off_c, 3, 64, 64
8, 7946, Note_off_c, 3, 54, 64
8, 7946, Note_off_c, 3, 59, 64
8, 7968, Note_on_c, 3, 54, 81
8, 7968, Note_on_c, 3, 59, 81
8, 7968, Note_on_c, 3, 62, 81
8, 7970, Note_off_c, 3, 64, 64
8, 7970, Note_off_c, 3, 59, 64
8, 7970, Note_off_c, 3, 54, 64
8, 7992, Note_on_c, 3, 54, 81
8, 7992, Note_on_c, 3, 59, 81
8, 7992, Note_on_c, 3, 62, 81
8, 7994, Note_off_c, 3, 54, 64
8, 7994, Note_off_c, 3, 59, 64
8, 7994, Note_off_c, 3, 62, 64
8, 8016, Note_on_c, 3, 54, 81
8, 8016, Note_on_c, 3, 59, 81
8, 8016, Note_on_c, 3, 62, 81
8, 8018, Note_off_c, 3, 62, 64
8, 8018, Note_off_c, 3, 59, 64
8, 8018, Note_off_c, 3, 54, 64
8, 8040, Note_on_c, 3, 62, 81
8, 8040, Note_on_c, 3, 59, 81
8, 8040, Note_on_c, 3, 54, 81
8, 8042, Note_off_c, 3, 62, 64
8, 8042, Note_off_c, 3, 54, 64
8, 8042, Note_off_c, 3, 59, 64
8, 8064, Note_on_c, 3, 62, 81
8, 8064, Note_on_c, 3, 59, 81
8, 8064, Note_on_c, 3, 54, 81
8, 8066, Note_off_c, 3, 54, 64
8, 8066, Note_off_c, 3, 59, 64
8, 8066, Note_off_c, 3, 62, 64
8, 8088, Note_on_c, 3, 54, 81
8, 8088, Note_on_c, 3, 59, 81
8, 8088, Note_on_c, 3, 62, 81
8, 8090, Note_off_c, 3, 62, 64
8, 8090, Note_off_c, 3, 54, 64
8, 8090, Note_off_c, 3, 59, 64
8, 8112, Note_on_c, 3, 54, 81
8, 8112, Note_on_c, 3, 59, 81
8, 8112, Note_on_c, 3, 62, 81
8, 8114, Note_off_c, 3, 62, 64
8, 8114, Note_off_c, 3, 59, 64
8, 8114, Note_off_c, 3, 54, 64
8, 8136, Note_on_c, 3, 62, 81
8, 8136, Note_on_c, 3, 59, 81
8, 8136, Note_on_c, 3, 54, 81
8, 8138, Note_off_c, 3, 62, 64
8, 8138, Note_off_c, 3, 54, 64
8, 8138, Note_off_c, 3, 59, 64
8, 8160, Note_on_c, 3, 62, 81
8, 8160, Note_on_c, 3, 59, 81
8, 8160, Note_on_c, 3, 54, 81
8, 8162, Note_off_c, 3, 54, 64
8, 8162, Note_off_c, 3, 59, 64
8, 8162, Note_off_c, 3, 62, 64
8, 8184, Note_on_c, 3, 54, 81
8, 8184, Note_on_c, 3, 59, 81
8, 8184, Note_on_c, 3, 62, 81
8, 8186, Note_off_c, 3, 62, 64
8, 8186, Note_off_c, 3, 59, 64
8, 8186, Note_off_c, 3, 54, 64
8, 8208, Note_on_c, 3, 54, 81
8, 8208, Note_on_c, 3, 59, 81
8, 8208, Note_on_c, 3, 62, 81
8, 8210, Note_off_c, 3, 62, 64
8, 8210, Note_off_c, 3, 59, 64
8, 8210, Note_off_c, 3, 54, 64
8, 8232, Note_on_c, 3, 62, 81
8, 8232, Note_on_c, 3, 59, 81
8, 8232, Note_on_c, 3, 54, 81
8, 8234, Note_off_c, 3, 62, 64
8, 8234, Note_off_c, 3, 54, 64
8, 8234, Note_off_c, 3, 59, 64
8, 8256, Note_on_c, 3, 54, 81
8, 8256, Note_on_c, 3, 59, 81
8, 8256, Note_on_c, 3, 62, 81
8, 8258, Note_off_c, 3, 54, 64
8, 8258, Note_off_c, 3, 59, 64
8, 8258, Note_off_c, 3, 62, 64
8, 8280, Note_on_c, 3, 54, 81
8, 8280, Note_on_c, 3, 59, 81
8, 8280, Note_on_c, 3, 62, 81
8, 8282, Note_off_c, 3, 54, 64
8, 8282, Note_off_c, 3, 62, 64
8, 8282, Note_off_c, 3, 59, 64
8, 8304, Note_on_c, 3, 62, 81
8, 8304, Note_on_c, 3, 59, 81
8, 8304, Note_on_c, 3, 54, 81
8, 8306, Note_off_c, 3, 62, 64
8, 8306, Note_off_c, 3, 59, 64
8, 8306, Note_off_c, 3, 54, 64
8, 8328, Note_on_c, 3, 54, 81
8, 8328, Note_on_c, 3, 59, 81
8, 8328, Note_on_c, 3, 62, 81
8, 8330, Note_off_c, 3, 54, 64
8, 8330, Note_off_c, 3, 62, 64
8, 8330, Note_off_c, 3, 59, 64
8, 8352, Note_on_c, 3, 59, 81
8, 8352, Note_on_c, 3, 64, 81
8, 8354, Note_off_c, 3, 62, 64
8, 8354, Note_off_c, 3, 59, 64
8, 8354, Note_off_c, 3, 54, 64
8, 8376, Note_on_c, 3, 59, 81
8, 8376, Note_on_c, 3, 64, 81
8, 8378, Note_off_c, 3, 59, 64
8, 8378, Note_off_c, 3, 64, 64
8, 8400, Note_on_c, 3, 59, 81
8, 8400, Note_on_c, 3, 64, 81
8, 8402, Note_off_c, 3, 64, 64
8, 8402, Note_off_c, 3, 59, 64
8, 8424, Note_on_c, 3, 59, 81
8, 8424, Note_on_c, 3, 64, 81
8, 8426, Note_off_c, 3, 59, 64
8, 8426, Note_off_c, 3, 64, 64
8, 8448, Note_on_c, 3, 62, 81
8, 8448, Note_on_c, 3, 66, 81
8, 8450, Note_off_c, 3, 64, 64
8, 8450, Note_off_c, 3, 59, 64
8, 8474, Note_off_c, 3, 62, 64
8, 8474, Note_off_c, 3, 66, 64
8, 8496, Note_on_c, 3, 62, 81
8, 8496, Note_on_c, 3, 66, 81
8, 8520, Note_on_c, 3, 62, 81
8, 8520, Note_on_c, 3, 66, 81
8, 8522, Note_off_c, 3, 62, 64
8, 8522, Note_off_c, 3, 66, 64
8, 8546, Note_off_c, 3, 66, 64
8, 8546, Note_off_c, 3, 62, 64
8, 8568, Note_on_c, 3, 66, 81
8, 8568, Note_on_c, 3, 62, 81
8, 8592, Note_on_c, 3, 62, 81
8, 8592, Note_on_c, 3, 66, 81
8, 8594, Note_off_c, 3, 66, 64
8, 8594, Note_off_c, 3, 62, 64
8, 8618, Note_off_c, 3, 66, 64
8, 8618, Note_off_c, 3, 62, 64
8, 8640, Note_on_c, 3, 62, 81
8, 8640, Note_on_c, 3, 67, 81
8, 8666, Note_off_c, 3, 67, 64
8, 8666, Note_off_c, 3, 62, 64
8, 8688, Note_on_c, 3, 62, 81
8, 8688, Note_on_c, 3, 67, 81
8, 8712, Note_on_c, 3, 62, 81
8, 8712, Note_on_c, 3, 67, 81
8, 8714, Note_off_c, 3, 62, 64
8, 8714, Note_off_c, 3, 67, 64
8, 8738, Note_off_c, 3, 67, 64
8, 8738, Note_off_c, 3, 62, 64
8, 8760, Note_on_c, 3, 62, 81
8, 8760, Note_on_c, 3, 67, 81
8, 8784, Note_on_c, 3, 62, 81
8, 8784, Note_on_c, 3, 67, 81
8, 8786, Note_off_c, 3, 62, 64
8, 8786, Note_off_c, 3, 67, 64
8, 8810, Note_off_c, 3, 67, 64
8, 8810, Note_off_c, 3, 62, 64
8, 8832, Note_on_c, 3, 62, 81
8, 8832, Note_on_c, 3, 69, 81
8, 8832, Note_on_c, 3, 66, 81
8, 8858, Note_off_c, 3, 66, 64
8, 8858, Note_off_c, 3, 69, 64
8, 8858, Note_off_c, 3, 62, 64
8, 8880, Note_on_c, 3, 62, 81
8, 8880, Note_on_c, 3, 66, 81
8, 8880, Note_on_c, 3, 69, 81
8, 8904, Note_on_c, 3, 62, 81
8, 8904, Note_on_c, 3, 66, 81
8, 8904, Note_on_c, 3, 69, 81
8, 8906, Note_off_c, 3, 62, 64
8, 8906, Note_off_c, 3, 66, 64
8, 8906, Note_off_c, 3, 69, 64
8, 8930, Note_off_c, 3, 69, 64
8, 8930, Note_off_c, 3, 66, 64
8, 8930, Note_off_c, 3, 62, 64
8, 8952, Note_on_c, 3, 62, 81
8, 8952, Note_on_c, 3, 66, 81
8, 8952, Note_on_c, 3, 69, 81
8, 8976, Note_on_c, 3, 62, 81
8, 8976, Note_on_c, 3, 66, 81
8, 8976, Note_on_c, 3, 69, 81
8, 8978, Note_off_c, 3, 62, 64
8, 8978, Note_off_c, 3, 66, 64
8, 8978, Note_off_c, 3, 69, 64
8, 9002, Note_off_c, 3, 69, 64
8, 9002, Note_off_c, 3, 66, 64
8, 9002, Note_off_c, 3, 62, 64
8, 9024, Note_on_c, 3, 57, 81
8, 9024, Note_on_c, 3, 66, 81
8, 9024, Note_on_c, 3, 62, 81
8, 9050, Note_off_c, 3, 62, 64
8, 9050, Note_off_c, 3, 66, 64
8, 9050, Note_off_c, 3, 57, 64
8, 9072, Note_on_c, 3, 57, 81
8, 9072, Note_on_c, 3, 62, 81
8, 9072, Note_on_c, 3, 66, 81
8, 9096, Note_on_c, 3, 57, 81
8, 9096, Note_on_c, 3, 62, 81
8, 9096, Note_on_c, 3, 66, 81
8, 9098, Note_off_c, 3, 57, 64
8, 9098, Note_off_c, 3, 62, 64
8, 9098, Note_off_c, 3, 66, 64
8, 9122, Note_off_c, 3, 66, 64
8, 9122, Note_off_c, 3, 62, 64
8, 9122, Note_off_c, 3, 57, 64
8, 9144, Note_on_c, 3, 57, 81
8, 9144, Note_on_c, 3, 66, 81
8, 9144, Note_on_c, 3, 62, 81
8, 9168, Note_on_c, 3, 57, 81
8, 9168, Note_on_c, 3, 62, 81
8, 9168, Note_on_c, 3, 66, 81
8, 9170, Note_off_c, 3, 57, 64
8, 9170, Note_off_c, 3, 66, 64
8, 9170, Note_off_c, 3, 62, 64
8, 9194, Note_off_c, 3, 66, 64
8, 9194, Note_off_c, 3, 62, 64
8, 9194, Note_off_c, 3, 57, 64
8, 9216, Note_on_c, 3, 64, 81
8, 9216, Note_on_c, 3, 61, 81
8, 9216, Note_on_c, 3, 57, 81
8, 9240, Note_on_c, 3, 57, 81
8, 9240, Note_on_c, 3, 61, 81
8, 9240, Note_on_c, 3, 64, 81
8, 9242, Note_off_c, 3, 61, 64
8, 9242, Note_off_c, 3, 57, 64
8, 9242, Note_off_c, 3, 64, 64
8, 9264, Note_on_c, 3, 61, 81
8, 9264, Note_on_c, 3, 57, 81
8, 9264, Note_on_c, 3, 64, 81
8, 9266, Note_off_c, 3, 64, 64
8, 9266, Note_off_c, 3, 61, 64
8, 9266, Note_off_c, 3, 57, 64
8, 9288, Note_on_c, 3, 64, 81
8, 9288, Note_on_c, 3, 61, 81
8, 9288, Note_on_c, 3, 57, 81
8, 9290, Note_off_c, 3, 64, 64
8, 9290, Note_off_c, 3, 61, 64
8, 9290, Note_off_c, 3, 57, 64
8, 9312, Note_on_c, 3, 57, 81
8, 9312, Note_on_c, 3, 61, 81
8, 9312, Note_on_c, 3, 64, 81
8, 9314, Note_off_c, 3, 57, 64
8, 9314, Note_off_c, 3, 61, 64
8, 9314, Note_off_c, 3, 64, 64
8, 9336, Note_on_c, 3, 57, 81
8, 9336, Note_on_c, 3, 61, 81
8, 9336, Note_on_c, 3, 64, 81
8, 9338, Note_off_c, 3, 57, 64
8, 9338, Note_off_c, 3, 61, 64
8, 9338, Note_off_c, 3, 64, 64
8, 9360, Note_on_c, 3, 64, 81
8, 9360, Note_on_c, 3, 57, 81
8, 9360, Note_on_c, 3, 61, 81
8, 9362, Note_off_c, 3, 64, 64
8, 9362, Note_off_c, 3, 61, 64
8, 9362, Note_off_c, 3, 57, 64
8, 9384, Note_on_c, 3, 64, 81
8, 9384, Note_on_c, 3, 61, 81
8, 9384, Note_on_c, 3, 57, 81
8, 9386, Note_off_c, 3, 61, 64
8, 9386, Note_off_c, 3, 57, 64
8, 9386, Note_off_c, 3, 64, 64
8, 9408, Note_on_c, 3, 64, 81
8, 9408, Note_on_c, 3, 61, 81
8, 9408, Note_on_c, 3, 57, 81
8, 9410, Note_off_c, 3, 57, 64
8, 9410, Note_off_c, 3, 61, 64
8, 9410, Note_off_c, 3, 64, 64
8, 9432, Note_on_c, 3, 64, 81
8, 9432, Note_on_c, 3, 61, 81
8, 9432, Note_on_c, 3, 57, 81
8, 9434, Note_off_c, 3, 64, 64
8, 9434, Note_off_c, 3, 57, 64
8, 9434, Note_off_c, 3, 61, 64
8, 9456, Note_on_c, 3, 64, 81
8, 9456, Note_on_c, 3, 57, 81
8, 9456, Note_on_c, 3, 61, 81
8, 9458, Note_off_c, 3, 57, 64
8, 9458, Note_off_c, 3, 61, 64
8, 9458, Note_off_c, 3, 64, 64
8, 9480, Note_on_c, 3, 64, 81
8, 9480, Note_on_c, 3, 61, 81
8, 9480, Note_on_c, 3, 57, 81
8, 9482, Note_off_c, 3, 61, 64
8, 9482, Note_off_c, 3, 64, 64
8, 9482, Note_off_c, 3, 57, 64
8, 9504, Note_on_c, 3, 64, 81
8, 9504, Note_on_c, 3, 61, 81
8, 9504, Note_on_c, 3, 57, 81
8, 9506, Note_off_c, 3, 57, 64
8, 9506, Note_off_c, 3, 61, 64
8, 9506, Note_off_c, 3, 64, 64
8, 9528, Note_on_c, 3, 57, 81
8, 9528, Note_on_c, 3, 61, 81
8, 9528, Note_on_c, 3, 64, 81
8, 9530, Note_off_c, 3, 64, 64
8, 9530, Note_off_c, 3, 61, 64
8, 9530, Note_off_c, 3, 57, 64
8, 9552, Note_on_c, 3, 64, 81
8, 9552, Note_on_c, 3, 57, 81
8, 9552, Note_on_c, 3, 61, 81
8, 9554, Note_off_c, 3, 64, 64
8, 9554, Note_off_c, 3, 61, 64
8, 9554, Note_off_c, 3, 57, 64
8, 9576, Note_on_c, 3, 57, 81
8, 9576, Note_on_c, 3, 61, 81
8, 9576, Note_on_c, 3, 64, 81
8, 9578, Note_off_c, 3, 61, 64
8, 9578, Note_off_c, 3, 64, 64
8, 9578, Note_off_c, 3, 57, 64
8, 9600, Note_on_c, 3, 64, 81
8, 9600, Note_on_c, 3, 61, 81
8, 9600, Note_on_c, 3, 57, 81
8, 9602, Note_off_c, 3, 64, 64
8, 9602, Note_off_c, 3, 61, 64
8, 9602, Note_off_c, 3, 57, 64
8, 9624, Note_on_c, 3, 57, 81
8, 9624, Note_on_c, 3, 61, 81
8, 9624, Note_on_c, 3, 64, 81
8, 9626, Note_off_c, 3, 64, 64
8, 9626, Note_off_c, 3, 57, 64
8, 9626, Note_off_c, 3, 61, 64
8, 9648, Note_on_c, 3, 57, 81
8, 9648, Note_on_c, 3, 61, 81
8, 9648, Note_on_c, 3, 64, 81
8, 9650, Note_off_c, 3, 64, 64
8, 9650, Note_off_c, 3, 61, 64
8, 9650, Note_off_c, 3, 57, 64
8, 9672, Note_on_c, 3, 57, 81
8, 9672, Note_on_c, 3, 61, 81
8, 9672, Note_on_c, 3, 64, 81
8, 9674, Note_off_c, 3, 64, 64
8, 9674, Note_off_c, 3, 57, 64
8, 9674, Note_off_c, 3, 61, 64
8, 9696, Note_on_c, 3, 57, 81
8, 9696, Note_on_c, 3, 61, 81
8, 9696, Note_on_c, 3, 64, 81
8, 9698, Note_off_c, 3, 64, 64
8, 9698, Note_off_c, 3, 61, 64
8, 9698, Note_off_c, 3, 57, 64
8, 9720, Note_on_c, 3, 59, 81
8, 9720, Note_on_c, 3, 62, 81
8, 9722, Note_off_c, 3, 61, 64
8, 9722, Note_off_c, 3, 57, 64
8, 9722, Note_off_c, 3, 64, 64
8, 9744, Note_on_c, 3, 59, 81
8, 9744, Note_on_c, 3, 62, 81
8, 9746, Note_off_c, 3, 62, 64
8, 9746, Note_off_c, 3, 59, 64
8, 9768, Note_on_c, 3, 59, 81
8, 9768, Note_on_c, 3, 62, 81
8, 9770, Note_off_c, 3, 59, 64
8, 9770, Note_off_c, 3, 62, 64
8, 9792, Note_on_c, 3, 59, 81
8, 9792, Note_on_c, 3, 62, 81
8, 9794, Note_off_c, 3, 62, 64
8, 9794, Note_off_c, 3, 59, 64
8, 9816, Note_on_c, 3, 59, 81
8, 9816, Note_on_c, 3, 62, 81
8, 9818, Note_off_c, 3, 59, 64
8, 9818, Note_off_c, 3, 62, 64
8, 9840, Note_on_c, 3, 59, 81
8, 9840, Note_on_c, 3, 62, 81
8, 9842, Note_off_c, 3, 62, 64
8, 9842, Note_off_c, 3, 59, 64
8, 9864, Note_on_c, 3, 59, 81
8, 9864, Note_on_c, 3, 62, 81
8, 9866, Note_off_c, 3, 59, 64
8, 9866, Note_off_c, 3, 62, 64
8, 9888, Note_on_c, 3, 59, 81
8, 9888, Note_on_c, 3, 62, 81
8, 9890, Note_off_c, 3, 62, 64
8, 9890, Note_off_c, 3, 59, 64
8, 9912, Note_on_c, 3, 59, 81
8, 9912, Note_on_c, 3, 62, 81
8, 9914, Note_off_c, 3, 62, 64
8, 9914, Note_off_c, 3, 59, 64
8, 9936, Note_on_c, 3, 59, 81
8, 9936, Note_on_c, 3, 62, 81
8, 9938, Note_off_c, 3, 62, 64
8, 9938, Note_off_c, 3, 59, 64
8, 9960, Note_on_c, 3, 59, 81
8, 9960, Note_on_c, 3, 62, 81
8, 9962, Note_off_c, 3, 59, 64
8, 9962, Note_off_c, 3, 62, 64
8, 9984, Note_on_c, 3, 64, 81
8, 9984, Note_on_c, 3, 61, 81
8, 9984, Note_on_c, 3, 57, 81
8, 9986, Note_off_c, 3, 62, 64
8, 9986, Note_off_c, 3, 59, 64
8, 10008, Note_on_c, 3, 57, 81
8, 10008, Note_on_c, 3, 61, 81
8, 10008, Note_on_c, 3, 64, 81
8, 10010, Note_off_c, 3, 57, 64
8, 10010, Note_off_c, 3, 61, 64
8, 10010, Note_off_c, 3, 64, 64
8, 10032, Note_on_c, 3, 61, 81
8, 10032, Note_on_c, 3, 57, 81
8, 10032, Note_on_c, 3, 64, 81
8, 10034, Note_off_c, 3, 64, 64
8, 10034, Note_off_c, 3, 61, 64
8, 10034, Note_off_c, 3, 57, 64
8, 10056, Note_on_c, 3, 64, 81
8, 10056, Note_on_c, 3, 61, 81
8, 10056, Note_on_c, 3, 57, 81
8, 10058, Note_off_c, 3, 64, 64
8, 10058, Note_off_c, 3, 61, 64
8, 10058, Note_off_c, 3, 57, 64
8, 10080, Note_on_c, 3, 57, 81
8, 10080, Note_on_c, 3, 61, 81
8, 10080, Note_on_c, 3, 64, 81
8, 10082, Note_off_c, 3, 57, 64
8, 10082, Note_off_c, 3, 61, 64
8, 10082, Note_off_c, 3, 64, 64
8, 10104, Note_on_c, 3, 57, 81
8, 10104, Note_on_c, 3, 61, 81
8, 10104, Note_on_c, 3, 64, 81
8, 10106, Note_off_c, 3, 57, 64
8, 10106, Note_off_c, 3, 61, 64
8, 10106, Note_off_c, 3, 64, 64
8, 10128, Note_on_c, 3, 64, 81
8, 10128, Note_on_c, 3, 57, 81
8, 10128, Note_on_c, 3, 61, 81
8, 10130, Note_off_c, 3, 64, 64
8, 10130, Note_off_c, 3, 61, 64
8, 10130, Note_off_c, 3, 57, 64
8, 10152, Note_on_c, 3, 64, 81
8, 10152, Note_on_c, 3, 61, 81
8, 10152, Note_on_c, 3, 57, 81
8, 10154, Note_off_c, 3, 61, 64
8, 10154, Note_off_c, 3, 57, 64
8, 10154, Note_off_c, 3, 64, 64
8, 10176, Note_on_c, 3, 64, 81
8, 10176, Note_on_c, 3, 61, 81
8, 10176, Note_on_c, 3, 57, 81
8, 10178, Note_off_c, 3, 57, 64
8, 10178, Note_off_c, 3, 61, 64
8, 10178, Note_off_c, 3, 64, 64
8, 10200, Note_on_c, 3, 64, 81
8, 10200, Note_on_c, 3, 61, 81
8, 10200, Note_on_c, 3, 57, 81
8, 10202, Note_off_c, 3, 64, 64
8, 10202, Note_off_c, 3, 57, 64
8, 10202, Note_off_c, 3, 61, 64
8, 10224, Note_on_c, 3, 64, 81
8, 10224, Note_on_c, 3, 57, 81
8, 10224, Note_on_c, 3, 61, 81
8, 10226, Note_off_c, 3, 57, 64
8, 10226, Note_off_c, 3, 61, 64
8, 10226, Note_off_c, 3, 64, 64
8, 10248, Note_on_c, 3, 64, 81
8, 10248, Note_on_c, 3, 61, 81
8, 10248, Note_on_c, 3, 57, 81
8, 10250, Note_off_c, 3, 61, 64
8, 10250, Note_off_c, 3, 64, 64
8, 10250, Note_off_c, 3, 57, 64
8, 10272, Note_on_c, 3, 64, 81
8, 10272, Note_on_c, 3, 61, 81
8, 10272, Note_on_c, 3, 57, 81
8, 10274, Note_off_c, 3, 57, 64
8, 10274, Note_off_c, 3, 61, 64
8, 10274, Note_off_c, 3, 64, 64
8, 10296, Note_on_c, 3, 57, 81
8, 10296, Note_on_c, 3, 61, 81
8, 10296, Note_on_c, 3, 64, 81
8, 10298, Note_off_c, 3, 64, 64
8, 10298, Note_off_c, 3, 61, 64
8, 10298, Note_off_c, 3, 57, 64
8, 10320, Note_on_c, 3, 64, 81
8, 10320, Note_on_c, 3, 57, 81
8, 10320, Note_on_c, 3, 61, 81
8, 10322, Note_off_c, 3, 64, 64
8, 10322, Note_off_c, 3, 61, 64
8, 10322, Note_off_c, 3, 57, 64
8, 10344, Note_on_c, 3, 57, 81
8, 10344, Note_on_c, 3, 61, 81
8, 10344, Note_on_c, 3, 64, 81
8, 10346, Note_off_c, 3, 61, 64
8, 10346, Note_off_c, 3, 64, 64
8, 10346, Note_off_c, 3, 57, 64
8, 10368, Note_on_c, 3, 64, 81
8, 10368, Note_on_c, 3, 61, 81
8, 10368, Note_on_c, 3, 57, 81
8, 10370, Note_off_c, 3, 64, 64
8, 10370, Note_off_c, 3, 61, 64
8, 10370, Note_off_c, 3, 57, 64
8, 10392, Note_on_c, 3, 64, 81
8, 10392, Note_on_c, 3, 61, 81
8, 10392, Note_on_c, 3, 57, 81
8, 10394, Note_off_c, 3, 57, 64
8, 10394, Note_off_c, 3, 64, 64
8, 10394, Note_off_c, 3, 61, 64
8, 10416, Note_on_c, 3, 64, 81
8, 10416, Note_on_c, 3, 57, 81
8, 10416, Note_on_c, 3, 61, 81
8, 10418, Note_off_c, 3, 57, 64
8, 10418, Note_off_c, 3, 61, 64
8, 10418, Note_off_c, 3, 64, 64
8, 10440, Note_on_c, 3, 61, 81
8, 10440, Note_on_c, 3, 64, 81
8, 10440, Note_on_c, 3, 57, 81
8, 10442, Note_off_c, 3, 61, 64
8, 10442, Note_off_c, 3, 64, 64
8, 10442, Note_off_c, 3, 57, 64
8, 10464, Note_on_c, 3, 64, 81
8, 10464, Note_on_c, 3, 59, 81
8, 10466, Note_off_c, 3, 57, 64
8, 10466, Note_off_c, 3, 64, 64
8, 10466, Note_off_c, 3, 61, 64
8, 10488, Note_on_c, 3, 64, 81
8, 10488, Note_on_c, 3, 59, 81
8, 10490, Note_off_c, 3, 64, 64
8, 10490, Note_off_c, 3, 59, 64
8, 10512, Note_on_c, 3, 64, 81
8, 10512, Note_on_c, 3, 59, 81
8, 10514, Note_off_c, 3, 59, 64
8, 10514, Note_off_c, 3, 64, 64
8, 10536, Note_on_c, 3, 64, 81
8, 10536, Note_on_c, 3, 59, 81
8, 10538, Note_off_c, 3, 64, 64
8, 10538, Note_off_c, 3, 59, 64
8, 10560, Note_on_c, 3, 59, 81
8, 10560, Note_on_c, 3, 64, 81
8, 10562, Note_off_c, 3, 59, 64
8, 10562, Note_off_c, 3, 64, 64
8, 10584, Note_on_c, 3, 59, 81
8, 10584, Note_on_c, 3, 64, 81
8, 10586, Note_off_c, 3, 64, 64
8, 10586, Note_off_c, 3, 59, 64
8, 10608, Note_on_c, 3, 59, 81
8, 10608, Note_on_c, 3, 64, 81
8, 10610, Note_off_c, 3, 64, 64
8, 10610, Note_off_c, 3, 59, 64
8, 10632, Note_on_c, 3, 64, 81
8, 10632, Note_on_c, 3, 59, 81
8, 10634, Note_off_c, 3, 59, 64
8, 10634, Note_off_c, 3, 64, 64
8, 10656, Note_on_c, 3, 64, 81
8, 10656, Note_on_c, 3, 59, 81
8, 10658, Note_off_c, 3, 59, 64
8, 10658, Note_off_c, 3, 64, 64
8, 10680, Note_on_c, 3, 64, 81
8, 10680, Note_on_c, 3, 59, 81
8, 10682, Note_off_c, 3, 64, 64
8, 10682, Note_off_c, 3, 59, 64
8, 10704, Note_on_c, 3, 64, 81
8, 10704, Note_on_c, 3, 59, 81
8, 10706, Note_off_c, 3, 59, 64
8, 10706, Note_off_c, 3, 64, 64
8, 10728, Note_on_c, 3, 64, 81
8, 10728, Note_on_c, 3, 59, 81
8, 10730, Note_off_c, 3, 64, 64
8, 10730, Note_off_c, 3, 59, 64
8, 10752, Note_on_c, 3, 54, 81
8, 10752, Note_on_c, 3, 59, 81
8, 10752, Note_on_c, 3, 62, 81
8, 10754, Note_off_c, 3, 59, 64
8, 10754, Note_off_c, 3, 64, 64
8, 10776, Note_on_c, 3, 54, 81
8, 10776, Note_on_c, 3, 59, 81
8, 10776, Note_on_c, 3, 62, 81
8, 10778, Note_off_c, 3, 54, 64
8, 10778, Note_off_c, 3, 62, 64
8, 10778, Note_off_c, 3, 59, 64
8, 10800, Note_on_c, 3, 54, 81
8, 10800, Note_on_c, 3, 59, 81
8, 10800, Note_on_c, 3, 62, 81
8, 10802, Note_off_c, 3, 62, 64
8, 10802, Note_off_c, 3, 59, 64
8, 10802, Note_off_c, 3, 54, 64
8, 10824, Note_on_c, 3, 54, 81
8, 10824, Note_on_c, 3, 59, 81
8, 10824, Note_on_c, 3, 62, 81
8, 10826, Note_off_c, 3, 62, 64
8, 10826, Note_off_c, 3, 54, 64
8, 10826, Note_off_c, 3, 59, 64
8, 10848, Note_on_c, 3, 59, 81
8, 10848, Note_on_c, 3, 54, 81
8, 10848, Note_on_c, 3, 62, 81
8, 10850, Note_off_c, 3, 62, 64
8, 10850, Note_off_c, 3, 59, 64
8, 10850, Note_off_c, 3, 54, 64
8, 10872, Note_on_c, 3, 54, 81
8, 10872, Note_on_c, 3, 62, 81
8, 10872, Note_on_c, 3, 59, 81
8, 10874, Note_off_c, 3, 59, 64
8, 10874, Note_off_c, 3, 54, 64
8, 10874, Note_off_c, 3, 62, 64
8, 10896, Note_on_c, 3, 54, 81
8, 10896, Note_on_c, 3, 62, 81
8, 10896, Note_on_c, 3, 59, 81
8, 10898, Note_off_c, 3, 59, 64
8, 10898, Note_off_c, 3, 62, 64
8, 10898, Note_off_c, 3, 54, 64
8, 10920, Note_on_c, 3, 54, 81
8, 10920, Note_on_c, 3, 62, 81
8, 10920, Note_on_c, 3, 59, 81
8, 10922, Note_off_c, 3, 59, 64
8, 10922, Note_off_c, 3, 54, 64
8, 10922, Note_off_c, 3, 62, 64
8, 10944, Note_on_c, 3, 54, 81
8, 10944, Note_on_c, 3, 59, 81
8, 10944, Note_on_c, 3, 64, 81
8, 10946, Note_off_c, 3, 59, 64
8, 10946, Note_off_c, 3, 62, 64
8, 10946, Note_off_c, 3, 54, 64
8, 10968, Note_on_c, 3, 54, 81
8, 10968, Note_on_c, 3, 59, 81
8, 10968, Note_on_c, 3, 64, 81
8, 10970, Note_off_c, 3, 64, 64
8, 10970, Note_off_c, 3, 59, 64
8, 10970, Note_off_c, 3, 54, 64
8, 10992, Note_on_c, 3, 54, 81
8, 10992, Note_on_c, 3, 59, 81
8, 10992, Note_on_c, 3, 64, 81
8, 10994, Note_off_c, 3, 64, 64
8, 10994, Note_off_c, 3, 59, 64
8, 10994, Note_off_c, 3, 54, 64
8, 11016, Note_on_c, 3, 54, 81
8, 11016, Note_on_c, 3, 59, 81
8, 11016, Note_on_c, 3, 64, 81
8, 11018, Note_off_c, 3, 64, 64
8, 11018, Note_off_c, 3, 54, 64
8, 11018, Note_off_c, 3, 59, 64
8, 11040, Note_on_c, 3, 54, 81
8, 11040, Note_on_c, 3, 59, 81
8, 11040, Note_on_c, 3, 62, 81
8, 11042, Note_off_c, 3, 64, 64
8, 11042, Note_off_c, 3, 59, 64
8, 11042, Note_off_c, 3, 54, 64
8, 11064, Note_on_c, 3, 54, 81
8, 11064, Note_on_c, 3, 59, 81
8, 11064, Note_on_c, 3, 62, 81
8, 11066, Note_off_c, 3, 54, 64
8, 11066, Note_off_c, 3, 59, 64
8, 11066, Note_off_c, 3, 62, 64
8, 11088, Note_on_c, 3, 54, 81
8, 11088, Note_on_c, 3, 59, 81
8, 11088, Note_on_c, 3, 62, 81
8, 11090, Note_off_c, 3, 62, 64
8, 11090, Note_off_c, 3, 59, 64
8, 11090, Note_off_c, 3, 54, 64
8, 11112, Note_on_c, 3, 62, 81
8, 11112, Note_on_c, 3, 59, 81
8, 11112, Note_on_c, 3, 54, 81
8, 11114, Note_off_c, 3, 62, 64
8, 11114, Note_off_c, 3, 54, 64
8, 11114, Note_off_c, 3, 59, 64
8, 11136, Note_on_c, 3, 62, 81
8, 11136, Note_on_c, 3, 59, 81
8, 11136, Note_on_c, 3, 54, 81
8, 11138, Note_off_c, 3, 54, 64
8, 11138, Note_off_c, 3, 59, 64
8, 11138, Note_off_c, 3, 62, 64
8, 11160, Note_on_c, 3, 54, 81
8, 11160, Note_on_c, 3, 59, 81
8, 11160, Note_on_c, 3, 62, 81
8, 11162, Note_off_c, 3, 62, 64
8, 11162, Note_off_c, 3, 54, 64
8, 11162, Note_off_c, 3, 59, 64
8, 11184, Note_on_c, 3, 54, 81
8, 11184, Note_on_c, 3, 59, 81
8, 11184, Note_on_c, 3, 62, 81
8, 11186, Note_off_c, 3, 62, 64
8, 11186, Note_off_c, 3, 59, 64
8, 11186, Note_off_c, 3, 54, 64
8, 11208, Note_on_c, 3, 62, 81
8, 11208, Note_on_c, 3, 59, 81
8, 11208, Note_on_c, 3, 54, 81
8, 11210, Note_off_c, 3, 62, 64
8, 11210, Note_off_c, 3, 54, 64
8, 11210, Note_off_c, 3, 59, 64
8, 11232, Note_on_c, 3, 62, 81
8, 11232, Note_on_c, 3, 59, 81
8, 11232, Note_on_c, 3, 54, 81
8, 11234, Note_off_c, 3, 54, 64
8, 11234, Note_off_c, 3, 59, 64
8, 11234, Note_off_c, 3, 62, 64
8, 11256, Note_on_c, 3, 54, 81
8, 11256, Note_on_c, 3, 59, 81
8, 11256, Note_on_c, 3, 62, 81
8, 11258, Note_off_c, 3, 62, 64
8, 11258, Note_off_c, 3, 59, 64
8, 11258, Note_off_c, 3, 54, 64
8, 11280, Note_on_c, 3, 54, 81
8, 11280, Note_on_c, 3, 59, 81
8, 11280, Note_on_c, 3, 62, 81
8, 11282, Note_off_c, 3, 62, 64
8, 11282, Note_off_c, 3, 59, 64
8, 11282, Note_off_c, 3, 54, 64
8, 11304, Note_on_c, 3, 62, 81
8, 11304, Note_on_c, 3, 59, 81
8, 11304, Note_on_c, 3, 54, 81
8, 11306, Note_off_c, 3, 62, 64
8, 11306, Note_off_c, 3, 54, 64
8, 11306, Note_off_c, 3, 59, 64
8, 11328, Note_on_c, 3, 54, 81
8, 11328, Note_on_c, 3, 59, 81
8, 11328, Note_on_c, 3, 62, 81
8, 11330, Note_off_c, 3, 54, 64
8, 11330, Note_off_c, 3, 59, 64
8, 11330, Note_off_c, 3, 62, 64
8, 11352, Note_on_c, 3, 54, 81
8, 11352, Note_on_c, 3, 59, 81
8, 11352, Note_on_c, 3, 62, 81
8, 11354, Note_off_c, 3, 62, 64
8, 11354, Note_off_c, 3, 59, 64
8, 11354, Note_off_c, 3, 54, 64
8, 11376, Note_on_c, 3, 62, 81
8, 11376, Note_on_c, 3, 59, 81
8, 11376, Note_on_c, 3, 54, 81
8, 11378, Note_off_c, 3, 62, 64
8, 11378, Note_off_c, 3, 59, 64
8, 11378, Note_off_c, 3, 54, 64
8, 11400, Note_on_c, 3, 54, 81
8, 11400, Note_on_c, 3, 59, 81
8, 11400, Note_on_c, 3, 62, 81
8, 11402, Note_off_c, 3, 54, 64
8, 11402, Note_off_c, 3, 62, 64
8, 11402, Note_off_c, 3, 59, 64
8, 11424, Note_on_c, 3, 59, 81
8, 11424, Note_on_c, 3, 64, 81
8, 11426, Note_off_c, 3, 62, 64
8, 11426, Note_off_c, 3, 59, 64
8, 11426, Note_off_c, 3, 54, 64
8, 11448, Note_on_c, 3, 59, 81
8, 11448, Note_on_c, 3, 64, 81
8, 11450, Note_off_c, 3, 59, 64
8, 11450, Note_off_c, 3, 64, 64
8, 11472, Note_on_c, 3, 59, 81
8, 11472, Note_on_c, 3, 64, 81
8, 11474, Note_off_c, 3, 64, 64
8, 11474, Note_off_c, 3, 59, 64
8, 11496, Note_on_c, 3, 59, 81
8, 11496, Note_on_c, 3, 64, 81
8, 11498, Note_off_c, 3, 59, 64
8, 11498, Note_off_c, 3, 64, 64
8, 11520, Note_on_c, 3, 62, 81
8, 11520, Note_on_c, 3, 66, 81
8, 11522, Note_off_c, 3, 64, 64
8, 11522, Note_off_c, 3, 59, 64
8, 11546, Note_off_c, 3, 62, 64
8, 11546, Note_off_c, 3, 66, 64
8, 11568, Note_on_c, 3, 62, 81
8, 11568, Note_on_c, 3, 66, 81
8, 11592, Note_on_c, 3, 62, 81
8, 11592, Note_on_c, 3, 66, 81
8, 11594, Note_off_c, 3, 62, 64
8, 11594, Note_off_c, 3, 66, 64
8, 11618, Note_off_c, 3, 66, 64
8, 11618, Note_off_c, 3, 62, 64
8, 11640, Note_on_c, 3, 66, 81
8, 11640, Note_on_c, 3, 62, 81
8, 11664, Note_on_c, 3, 62, 81
8, 11664, Note_on_c, 3, 66, 81
8, 11666, Note_off_c, 3, 66, 64
8, 11666, Note_off_c, 3, 62, 64
8, 11690, Note_off_c, 3, 66, 64
8, 11690, Note_off_c, 3, 62, 64
8, 11712, Note_on_c, 3, 62, 81
8, 11712, Note_on_c, 3, 67, 81
8, 11738, Note_off_c, 3, 62, 64
8, 11738, Note_off_c, 3, 67, 64
8, 11760, Note_on_c, 3, 62, 81
8, 11760, Note_on_c, 3, 67, 81
8, 11784, Note_on_c, 3, 62, 81
8, 11784, Note_on_c, 3, 67, 81
8, 11786, Note_off_c, 3, 62, 64
8, 11786, Note_off_c, 3, 67, 64
8, 11810, Note_off_c, 3, 67, 64
8, 11810, Note_off_c, 3, 62, 64
8, 11832, Note_on_c, 3, 62, 81
8, 11832, Note_on_c, 3, 67, 81
8, 11856, Note_on_c, 3, 62, 81
8, 11856, Note_on_c, 3, 67, 81
8, 11858, Note_off_c, 3, 62, 64
8, 11858, Note_off_c, 3, 67, 64
8, 11882, Note_off_c, 3, 62, 64
8, 11882, Note_off_c, 3, 67, 64
8, 11904, Note_on_c, 3, 62, 81
8, 11904, Note_on_c, 3, 69, 81
8, 11904, Note_on_c, 3, 66, 81
8, 11930, Note_off_c, 3, 66, 64
8, 11930, Note_off_c, 3, 69, 64
8, 11930, Note_off_c, 3, 62, 64
8, 11952, Note_on_c, 3, 62, 81
8, 11952, Note_on_c, 3, 66, 81
8, 11952, Note_on_c, 3, 69, 81
8, 11976, Note_on_c, 3, 62, 81
8, 11976, Note_on_c, 3, 66, 81
8, 11976, Note_on_c, 3, 69, 81
8, 11978, Note_off_c, 3, 62, 64
8, 11978, Note_off_c, 3, 66, 64
8, 11978, Note_off_c, 3, 69, 64
8, 12002, Note_off_c, 3, 69, 64
8, 12002, Note_off_c, 3, 66, 64
8, 12002, Note_off_c, 3, 62, 64
8, 12024, Note_on_c, 3, 62, 81
8, 12024, Note_on_c, 3, 66, 81
8, 12024, Note_on_c, 3, 69, 81
8, 12048, Note_on_c, 3, 62, 81
8, 12048, Note_on_c, 3, 66, 81
8, 12048, Note_on_c, 3, 69, 81
8, 12050, Note_off_c, 3, 62, 64
8, 12050, Note_off_c, 3, 66, 64
8, 12050, Note_off_c, 3, 69, 64
8, 12074, Note_off_c, 3, 69, 64
8, 12074, Note_off_c, 3, 66, 64
8, 12074, Note_off_c, 3, 62, 64
8, 12096, Note_on_c, 3, 57, 81
8, 12096, Note_on_c, 3, 66, 81
8, 12096, Note_on_c, 3, 62, 81
8, 12122, Note_off_c, 3, 62, 64
8, 12122, Note_off_c, 3, 66, 64
8, 12122, Note_off_c, 3, 57, 64
8, 12144, Note_on_c, 3, 57, 81
8, 12144, Note_on_c, 3, 62, 81
8, 12144, Note_on_c, 3, 66, 81
8, 12168, Note_on_c, 3, 57, 81
8, 12168, Note_on_c, 3, 62, 81
8, 12168, Note_on_c, 3, 66, 81
8, 12170, Note_off_c, 3, 57, 64
8, 12170, Note_off_c, 3, 62, 64
8, 12170, Note_off_c, 3, 66, 64
8, 12194, Note_off_c, 3, 66, 64
8, 12194, Note_off_c, 3, 62, 64
8, 12194, Note_off_c, 3, 57, 64
8, 12216, Note_on_c, 3, 57, 81
8, 12216, Note_on_c, 3, 66, 81
8, 12216, Note_on_c, 3, 62, 81
8, 12240, Note_on_c, 3, 57, 81
8, 12240, Note_on_c, 3, 62, 81
8, 12240, Note_on_c, 3, 66, 81
8, 12242, Note_off_c, 3, 57, 64
8, 12242, Note_off_c, 3, 66, 64
8, 12242, Note_off_c, 3, 62, 64
8, 12266, Note_off_c, 3, 66, 64
8, 12266, Note_off_c, 3, 62, 64
8, 12266, Note_off_c, 3, 57, 64
8, 12288, Note_on_c, 3, 64, 81
8, 12288, Note_on_c, 3, 61, 81
8, 12288, Note_on_c, 3, 57, 81
8, 12312, Note_on_c, 3, 57, 81
8, 12312, Note_on_c, 3, 61, 81
8, 12312, Note_on_c, 3, 64, 81
8, 12314, Note_off_c, 3, 57, 64
8, 12314, Note_off_c, 3, 61, 64
8, 12314, Note_off_c, 3, 64, 64
8, 12336, Note_on_c, 3, 61, 81
8, 12336, Note_on_c, 3, 57, 81
8, 12336, Note_on_c, 3, 64, 81
8, 12338, Note_off_c, 3, 64, 64
8, 12338, Note_off_c, 3, 61, 64
8, 12338, Note_off_c, 3, 57, 64
8, 12360, Note_on_c, 3, 64, 81
8, 12360, Note_on_c, 3, 61, 81
8, 12360, Note_on_c, 3, 57, 81
8, 12362, Note_off_c, 3, 64, 64
8, 12362, Note_off_c, 3, 61, 64
8, 12362, Note_off_c, 3, 57, 64
8, 12384, Note_on_c, 3, 57, 81
8, 12384, Note_on_c, 3, 61, 81
8, 12384, Note_on_c, 3, 64, 81
8, 12386, Note_off_c, 3, 57, 64
8, 12386, Note_off_c, 3, 61, 64
8, 12386, Note_off_c, 3, 64, 64
8, 12408, Note_on_c, 3, 57, 81
8, 12408, Note_on_c, 3, 61, 81
8, 12408, Note_on_c, 3, 64, 81
8, 12410, Note_off_c, 3, 57, 64
8, 12410, Note_off_c, 3, 61, 64
8, 12410, Note_off_c, 3, 64, 64
8, 12432, Note_on_c, 3, 64, 81
8, 12432, Note_on_c, 3, 57, 81
8, 12432, Note_on_c, 3, 61, 81
8, 12434, Note_off_c, 3, 64, 64
8, 12434, Note_off_c, 3, 61, 64
8, 12434, Note_off_c, 3, 57, 64
8, 12456, Note_on_c, 3, 64, 81
8, 12456, Note_on_c, 3, 61, 81
8, 12456, Note_on_c, 3, 57, 81
8, 12458, Note_off_c, 3, 61, 64
8, 12458, Note_off_c, 3, 57, 64
8, 12458, Note_off_c, 3, 64, 64
8, 12480, Note_on_c, 3, 64, 81
8, 12480, Note_on_c, 3, 61, 81
8, 12480, Note_on_c, 3, 57, 81
8, 12482, Note_off_c, 3, 57, 64
8, 12482, Note_off_c, 3, 61, 64
8, 12482, Note_off_c, 3, 64, 64
8, 12504, Note_on_c, 3, 64, 81
8, 12504, Note_on_c, 3, 61, 81
8, 12504, Note_on_c, 3, 57, 81
8, 12506, Note_off_c, 3, 64, 64
8, 12506, Note_off_c, 3, 57, 64
8, 12506, Note_off_c, 3, 61, 64
8, 12528, Note_on_c, 3, 64, 81
8, 12528, Note_on_c, 3, 57, 81
8, 12528, Note_on_c, 3, 61, 81
8, 12530, Note_off_c, 3, 57, 64
8, 12530, Note_off_c, 3, 61, 64
8, 12530, Note_off_c, 3, 64, 64
8, 12552, Note_on_c, 3, 64, 81
8, 12552, Note_on_c, 3, 61, 81
8, 12552, Note_on_c, 3, 57, 81
8, 12554, Note_off_c, 3, 61, 64
8, 12554, Note_off_c, 3, 64, 64
8, 12554, Note_off_c, 3, 57, 64
8, 12576, Note_on_c, 3, 64, 81
8, 12576, Note_on_c, 3, 61, 81
8, 12576, Note_on_c, 3, 57, 81
8, 12578, Note_off_c, 3, 57, 64
8, 12578, Note_off_c, 3, 61, 64
8, 12578, Note_off_c, 3, 64, 64
8, 12600, Note_on_c, 3, 57, 81
8, 12600, Note_on_c, 3, 61, 81
8, 12600, Note_on_c, 3, 64, 81
8, 12602, Note_off_c, 3, 64, 64
8, 12602, Note_off_c, 3, 61, 64
8, 12602, Note_off_c, 3, 57, 64
8, 12624, Note_on_c, 3, 64, 81
8, 12624, Note_on_c, 3, 57, 81
8, 12624, Note_on_c, 3, 61, 81
8, 12626, Note_off_c, 3, 64, 64
8, 12626, Note_off_c, 3, 61, 64
8, 12626, Note_off_c, 3, 57, 64
8, 12648, Note_on_c, 3, 57, 81
8, 12648, Note_on_c, 3, 61, 81
8, 12648, Note_on_c, 3, 64, 81
8, 12650, Note_off_c, 3, 61, 64
8, 12650, Note_off_c, 3, 64, 64
8, 12650, Note_off_c, 3, 57, 64
8, 12672, Note_on_c, 3, 64, 81
8, 12672, Note_on_c, 3, 61, 81
8, 12672, Note_on_c, 3, 57, 81
8, 12674, Note_off_c, 3, 64, 64
8, 12674, Note_off_c, 3, 61, 64
8, 12674, Note_off_c, 3, 57, 64
8, 12696, Note_on_c, 3, 57, 81
8, 12696, Note_on_c, 3, 61, 81
8, 12696, Note_on_c, 3, 64, 81
8, 12698, Note_off_c, 3, 57, 64
8, 12698, Note_off_c, 3, 64, 64
8, 12698, Note_off_c, 3, 61, 64
8, 12720, Note_on_c, 3, 57, 81
8, 12720, Note_on_c, 3, 61, 81
8, 12720, Note_on_c, 3, 64, 81
8, 12722, Note_off_c, 3, 64, 64
8, 12722, Note_off_c, 3, 61, 64
8, 12722, Note_off_c, 3, 57, 64
8, 12744, Note_on_c, 3, 57, 81
8, 12744, Note_on_c, 3, 61, 81
8, 12744, Note_on_c, 3, 64, 81
8, 12746, Note_off_c, 3, 64, 64
8, 12746, Note_off_c, 3, 57, 64
8, 12746, Note_off_c, 3, 61, 64
8, 12768, Note_on_c, 3, 57, 81
8, 12768, Note_on_c, 3, 61, 81
8, 12768, Note_on_c, 3, 64, 81
8, 12770, Note_off_c, 3, 64, 64
8, 12770, Note_off_c, 3, 61, 64
8, 12770, Note_off_c, 3, 57, 64
8, 12792, Note_on_c, 3, 59, 81
8, 12792, Note_on_c, 3, 62, 81
8, 12794, Note_off_c, 3, 61, 64
8, 12794, Note_off_c, 3, 57, 64
8, 12794, Note_off_c, 3, 64, 64
8, 12816, Note_on_c, 3, 59, 81
8, 12816, Note_on_c, 3, 62, 81
8, 12818, Note_off_c, 3, 62, 64
8, 12818, Note_off_c, 3, 59, 64
8, 12840, Note_on_c, 3, 59, 81
8, 12840, Note_on_c, 3, 62, 81
8, 12842, Note_off_c, 3, 59, 64
8, 12842, Note_off_c, 3, 62, 64
8, 12864, Note_on_c, 3, 59, 81
8, 12864, Note_on_c, 3, 62, 81
8, 12866, Note_off_c, 3, 62, 64
8, 12866, Note_off_c, 3, 59, 64
8, 12888, Note_on_c, 3, 59, 81
8, 12888, Note_on_c, 3, 62, 81
8, 12890, Note_off_c, 3, 62, 64
8, 12890, Note_off_c, 3, 59, 64
8, 12912, Note_on_c, 3, 59, 81
8, 12912, Note_on_c, 3, 62, 81
8, 12914, Note_off_c, 3, 62, 64
8, 12914, Note_off_c, 3, 59, 64
8, 12936, Note_on_c, 3, 59, 81
8, 12936, Note_on_c, 3, 62, 81
8, 12938, Note_off_c, 3, 59, 64
8, 12938, Note_off_c, 3, 62, 64
8, 12960, Note_on_c, 3, 59, 81
8, 12960, Note_on_c, 3, 62, 81
8, 12962, Note_off_c, 3, 62, 64
8, 12962, Note_off_c, 3, 59, 64
8, 12984, Note_on_c, 3, 59, 81
8, 12984, Note_on_c, 3, 62, 81
8, 12986, Note_off_c, 3, 62, 64
8, 12986, Note_off_c, 3, 59, 64
8, 13008, Note_on_c, 3, 59, 81
8, 13008, Note_on_c, 3, 62, 81
8, 13010, Note_off_c, 3, 62, 64
8, 13010, Note_off_c, 3, 59, 64
8, 13032, Note_on_c, 3, 59, 81
8, 13032, Note_on_c, 3, 62, 81
8, 13034, Note_off_c, 3, 59, 64
8, 13034, Note_off_c, 3, 62, 64
8, 13058, Note_off_c, 3, 59, 64
8, 13058, Note_off_c, 3, 62, 64
8, 19200, Note_on_c, 3, 64, 81
8, 19200, Note_on_c, 3, 61, 81
8, 19200, Note_on_c, 3, 57, 81
8, 19224, Note_on_c, 3, 57, 81
8, 19224, Note_on_c, 3, 61, 81
8, 19224, Note_on_c, 3, 64, 81
8, 19226, Note_off_c, 3, 64, 64
8, 19226, Note_off_c, 3, 61, 64
8, 19226, Note_off_c, 3, 57, 64
8, 19248, Note_on_c, 3, 61, 81
8, 19248, Note_on_c, 3, 57, 81
8, 19248, Note_on_c, 3, 64, 81
8, 19250, Note_off_c, 3, 64, 64
8, 19250, Note_off_c, 3, 61, 64
8, 19250, Note_off_c, 3, 57, 64
8, 19272, Note_on_c, 3, 64, 81
8, 19272, Note_on_c, 3, 61, 81
8, 19272, Note_on_c, 3, 57, 81
8, 19274, Note_off_c, 3, 64, 64
8, 19274, Note_off_c, 3, 61, 64
8, 19274, Note_off_c, 3, 57, 64
8, 19296, Note_on_c, 3, 57, 81
8, 19296, Note_on_c, 3, 61, 81
8, 19296, Note_on_c, 3, 64, 81
8, 19298, Note_off_c, 3, 57, 64
8, 19298, Note_off_c, 3, 61, 64
8, 19298, Note_off_c, 3, 64, 64
8, 19320, Note_on_c, 3, 57, 81
8, 19320, Note_on_c, 3, 61, 81
8, 19320, Note_on_c, 3, 64, 81
8, 19322, Note_off_c, 3, 57, 64
8, 19322, Note_off_c, 3, 61, 64
8, 19322, Note_off_c, 3, 64, 64
8, 19344, Note_on_c, 3, 64, 81
8, 19344, Note_on_c, 3, 57, 81
8, 19344, Note_on_c, 3, 61, 81
8, 19346, Note_off_c, 3, 64, 64
8, 19346, Note_off_c, 3, 61, 64
8, 19346, Note_off_c, 3, 57, 64
8, 19368, Note_on_c, 3, 64, 81
8, 19368, Note_on_c, 3, 61, 81
8, 19368, Note_on_c, 3, 57, 81
8, 19370, Note_off_c, 3, 61, 64
8, 19370, Note_off_c, 3, 57, 64
8, 19370, Note_off_c, 3, 64, 64
8, 19392, Note_on_c, 3, 64, 81
8, 19392, Note_on_c, 3, 61, 81
8, 19392, Note_on_c, 3, 57, 81
8, 19394, Note_off_c, 3, 57, 64
8, 19394, Note_off_c, 3, 61, 64
8, 19394, Note_off_c, 3, 64, 64
8, 19416, Note_on_c, 3, 64, 81
8, 19416, Note_on_c, 3, 61, 81
8, 19416, Note_on_c, 3, 57, 81
8, 19418, Note_off_c, 3, 64, 64
8, 19418, Note_off_c, 3, 57, 64
8, 19418, Note_off_c, 3, 61, 64
8, 19440, Note_on_c, 3, 64, 81
8, 19440, Note_on_c, 3, 57, 81
8, 19440, Note_on_c, 3, 61, 81
8, 19442, Note_off_c, 3, 57, 64
8, 19442, Note_off_c, 3, 61, 64
8, 19442, Note_off_c, 3, 64, 64
8, 19464, Note_on_c, 3, 64, 81
8, 19464, Note_on_c, 3, 61, 81
8, 19464, Note_on_c, 3, 57, 81
8, 19466, Note_off_c, 3, 61, 64
8, 19466, Note_off_c, 3, 64, 64
8, 19466, Note_off_c, 3, 57, 64
8, 19488, Note_on_c, 3, 64, 81
8, 19488, Note_on_c, 3, 61, 81
8, 19488, Note_on_c, 3, 57, 81
8, 19490, Note_off_c, 3, 57, 64
8, 19490, Note_off_c, 3, 61, 64
8, 19490, Note_off_c, 3, 64, 64
8, 19512, Note_on_c, 3, 57, 81
8, 19512, Note_on_c, 3, 61, 81
8, 19512, Note_on_c, 3, 64, 81
8, 19514, Note_off_c, 3, 64, 64
8, 19514, Note_off_c, 3, 61, 64
8, 19514, Note_off_c, 3, 57, 64
8, 19536, Note_on_c, 3, 64, 81
8, 19536, Note_on_c, 3, 57, 81
8, 19536, Note_on_c, 3, 61, 81
8, 19538, Note_off_c, 3, 64, 64
8, 19538, Note_off_c, 3, 61, 64
8, 19538, Note_off_c, 3, 57, 64
8, 19560, Note_on_c, 3, 57, 81
8, 19560, Note_on_c, 3, 61, 81
8, 19560, Note_on_c, 3, 64, 81
8, 19562, Note_off_c, 3, 61, 64
8, 19562, Note_off_c, 3, 64, 64
8, 19562, Note_off_c, 3, 57, 64
8, 19584, Note_on_c, 3, 64, 81
8, 19584, Note_on_c, 3, 61, 81
8, 19584, Note_on_c, 3, 57, 81
8, 19586, Note_off_c, 3, 64, 64
8, 19586, Note_off_c, 3, 61, 64
8, 19586, Note_off_c, 3, 57, 64
8, 19608, Note_on_c, 3, 64, 81
8, 19608, Note_on_c, 3, 61, 81
8, 19608, Note_on_c, 3, 57, 81
8, 19610, Note_off_c, 3, 64, 64
8, 19610, Note_off_c, 3, 57, 64
8, 19610, Note_off_c, 3, 61, 64
8, 19632, Note_on_c, 3, 64, 81
8, 19632, Note_on_c, 3, 57, 81
8, 19632, Note_on_c, 3, 61, 81
8, 19634, Note_off_c, 3, 57, 64
8, 19634, Note_off_c, 3, 61, 64
8, 19634, Note_off_c, 3, 64, 64
8, 19656, Note_on_c, 3, 61, 81
8, 19656, Note_on_c, 3, 64, 81
8, 19656, Note_on_c, 3, 57, 81
8, 19658, Note_off_c, 3, 61, 64
8, 19658, Note_off_c, 3, 64, 64
8, 19658, Note_off_c, 3, 57, 64
8, 19680, Note_on_c, 3, 64, 81
8, 19680, Note_on_c, 3, 59, 81
8, 19682, Note_off_c, 3, 57, 64
8, 19682, Note_off_c, 3, 64, 64
8, 19682, Note_off_c, 3, 61, 64
8, 19704, Note_on_c, 3, 64, 81
8, 19704, Note_on_c, 3, 59, 81
8, 19706, Note_off_c, 3, 64, 64
8, 19706, Note_off_c, 3, 59, 64
8, 19728, Note_on_c, 3, 64, 81
8, 19728, Note_on_c, 3, 59, 81
8, 19730, Note_off_c, 3, 59, 64
8, 19730, Note_off_c, 3, 64, 64
8, 19752, Note_on_c, 3, 64, 81
8, 19752, Note_on_c, 3, 59, 81
8, 19754, Note_off_c, 3, 64, 64
8, 19754, Note_off_c, 3, 59, 64
8, 19776, Note_on_c, 3, 59, 81
8, 19776, Note_on_c, 3, 64, 81
8, 19778, Note_off_c, 3, 59, 64
8, 19778, Note_off_c, 3, 64, 64
8, 19800, Note_on_c, 3, 59, 81
8, 19800, Note_on_c, 3, 64, 81
8, 19802, Note_off_c, 3, 59, 64
8, 19802, Note_off_c, 3, 64, 64
8, 19824, Note_on_c, 3, 59, 81
8, 19824, Note_on_c, 3, 64, 81
8, 19826, Note_off_c, 3, 64, 64
8, 19826, Note_off_c, 3, 59, 64
8, 19848, Note_on_c, 3, 64, 81
8, 19848, Note_on_c, 3, 59, 81
8, 19850, Note_off_c, 3, 59, 64
8, 19850, Note_off_c, 3, 64, 64
8, 19872, Note_on_c, 3, 64, 81
8, 19872, Note_on_c, 3, 59, 81
8, 19874, Note_off_c, 3, 59, 64
8, 19874, Note_off_c, 3, 64, 64
8, 19896, Note_on_c, 3, 64, 81
8, 19896, Note_on_c, 3, 59, 81
8, 19898, Note_off_c, 3, 64, 64
8, 19898, Note_off_c, 3, 59, 64
8, 19920, Note_on_c, 3, 64, 81
8, 19920, Note_on_c, 3, 59, 81
8, 19922, Note_off_c, 3, 59, 64
8, 19922, Note_off_c, 3, 64, 64
8, 19944, Note_on_c, 3, 64, 81
8, 19944, Note_on_c, 3, 59, 81
8, 19946, Note_off_c, 3, 64, 64
8, 19946, Note_off_c, 3, 59, 64
8, 19968, Note_on_c, 3, 54, 81
8, 19968, Note_on_c, 3, 59, 81
8, 19968, Note_on_c, 3, 62, 81
8, 19970, Note_off_c, 3, 59, 64
8, 19970, Note_off_c, 3, 64, 64
8, 19992, Note_on_c, 3, 54, 81
8, 19992, Note_on_c, 3, 59, 81
8, 19992, Note_on_c, 3, 62, 81
8, 19994, Note_off_c, 3, 54, 64
8, 19994, Note_off_c, 3, 62, 64
8, 19994, Note_off_c, 3, 59, 64
8, 20016, Note_on_c, 3, 54, 81
8, 20016, Note_on_c, 3, 59, 81
8, 20016, Note_on_c, 3, 62, 81
8, 20018, Note_off_c, 3, 62, 64
8, 20018, Note_off_c, 3, 59, 64
8, 20018, Note_off_c, 3, 54, 64
8, 20040, Note_on_c, 3, 54, 81
8, 20040, Note_on_c, 3, 59, 81
8, 20040, Note_on_c, 3, 62, 81
8, 20042, Note_off_c, 3, 62, 64
8, 20042, Note_off_c, 3, 54, 64
8, 20042, Note_off_c, 3, 59, 64
8, 20064, Note_on_c, 3, 59, 81
8, 20064, Note_on_c, 3, 54, 81
8, 20064, Note_on_c, 3, 62, 81
8, 20066, Note_off_c, 3, 62, 64
8, 20066, Note_off_c, 3, 59, 64
8, 20066, Note_off_c, 3, 54, 64
8, 20088, Note_on_c, 3, 54, 81
8, 20088, Note_on_c, 3, 62, 81
8, 20088, Note_on_c, 3, 59, 81
8, 20090, Note_off_c, 3, 59, 64
8, 20090, Note_off_c, 3, 54, 64
8, 20090, Note_off_c, 3, 62, 64
8, 20112, Note_on_c, 3, 54, 81
8, 20112, Note_on_c, 3, 62, 81
8, 20112, Note_on_c, 3, 59, 81
8, 20114, Note_off_c, 3, 59, 64
8, 20114, Note_off_c, 3, 62, 64
8, 20114, Note_off_c, 3, 54, 64
8, 20136, Note_on_c, 3, 54, 81
8, 20136, Note_on_c, 3, 62, 81
8, 20136, Note_on_c, 3, 59, 81
8, 20138, Note_off_c, 3, 59, 64
8, 20138, Note_off_c, 3, 54, 64
8, 20138, Note_off_c, 3, 62, 64
8, 20160, Note_on_c, 3, 54, 81
8, 20160, Note_on_c, 3, 59, 81
8, 20160, Note_on_c, 3, 64, 81
8, 20162, Note_off_c, 3, 59, 64
8, 20162, Note_off_c, 3, 62, 64
8, 20162, Note_off_c, 3, 54, 64
8, 20184, Note_on_c, 3, 54, 81
8, 20184, Note_on_c, 3, 59, 81
8, 20184, Note_on_c, 3, 64, 81
8, 20186, Note_off_c, 3, 54, 64
8, 20186, Note_off_c, 3, 64, 64
8, 20186, Note_off_c, 3, 59, 64
8, 20208, Note_on_c, 3, 54, 81
8, 20208, Note_on_c, 3, 59, 81
8, 20208, Note_on_c, 3, 64, 81
8, 20210, Note_off_c, 3, 64, 64
8, 20210, Note_off_c, 3, 59, 64
8, 20210, Note_off_c, 3, 54, 64
8, 20232, Note_on_c, 3, 54, 81
8, 20232, Note_on_c, 3, 59, 81
8, 20232, Note_on_c, 3, 64, 81
8, 20234, Note_off_c, 3, 64, 64
8, 20234, Note_off_c, 3, 54, 64
8, 20234, Note_off_c, 3, 59, 64
8, 20256, Note_on_c, 3, 54, 81
8, 20256, Note_on_c, 3, 59, 81
8, 20256, Note_on_c, 3, 62, 81
8, 20258, Note_off_c, 3, 64, 64
8, 20258, Note_off_c, 3, 59, 64
8, 20258, Note_off_c, 3, 54, 64
8, 20280, Note_on_c, 3, 54, 81
8, 20280, Note_on_c, 3, 59, 81
8, 20280, Note_on_c, 3, 62, 81
8, 20282, Note_off_c, 3, 54, 64
8, 20282, Note_off_c, 3, 59, 64
8, 20282, Note_off_c, 3, 62, 64
8, 20304, Note_on_c, 3, 54, 81
8, 20304, Note_on_c, 3, 59, 81
8, 20304, Note_on_c, 3, 62, 81
8, 20306, Note_off_c, 3, 62, 64
8, 20306, Note_off_c, 3, 59, 64
8, 20306, Note_off_c, 3, 54, 64
8, 20328, Note_on_c, 3, 62, 81
8, 20328, Note_on_c, 3, 59, 81
8, 20328, Note_on_c, 3, 54, 81
8, 20330, Note_off_c, 3, 62, 64
8, 20330, Note_off_c, 3, 54, 64
8, 20330, Note_off_c, 3, 59, 64
8, 20352, Note_on_c, 3, 62, 81
8, 20352, Note_on_c, 3, 59, 81
8, 20352, Note_on_c, 3, 54, 81
8, 20354, Note_off_c, 3, 54, 64
8, 20354, Note_off_c, 3, 59, 64
8, 20354, Note_off_c, 3, 62, 64
8, 20376, Note_on_c, 3, 54, 81
8, 20376, Note_on_c, 3, 59, 81
8, 20376, Note_on_c, 3, 62, 81
8, 20378, Note_off_c, 3, 62, 64
8, 20378, Note_off_c, 3, 54, 64
8, 20378, Note_off_c, 3, 59, 64
8, 20400, Note_on_c, 3, 54, 81
8, 20400, Note_on_c, 3, 59, 81
8, 20400, Note_on_c, 3, 62, 81
8, 20402, Note_off_c, 3, 62, 64
8, 20402, Note_off_c, 3, 59, 64
8, 20402, Note_off_c, 3, 54, 64
8, 20424, Note_on_c, 3, 62, 81
8, 20424, Note_on_c, 3, 59, 81
8, 20424, Note_on_c, 3, 54, 81
8, 20426, Note_off_c, 3, 62, 64
8, 20426, Note_off_c, 3, 54, 64
8, 20426, Note_off_c, 3, 59, 64
8, 20448, Note_on_c, 3, 62, 81
8, 20448, Note_on_c, 3, 59, 81
8, 20448, Note_on_c, 3, 54, 81
8, 20450, Note_off_c, 3, 54, 64
8, 20450, Note_off_c, 3, 59, 64
8, 20450, Note_off_c, 3, 62, 64
8, 20472, Note_on_c, 3, 54, 81
8, 20472, Note_on_c, 3, 59, 81
8, 20472, Note_on_c, 3, 62, 81
8, 20474, Note_off_c, 3, 62, 64
8, 20474, Note_off_c, 3, 59, 64
8, 20474, Note_off_c, 3, 54, 64
8, 20496, Note_on_c, 3, 54, 81
8, 20496, Note_on_c, 3, 59, 81
8, 20496, Note_on_c, 3, 62, 81
8, 20498, Note_off_c, 3, 62, 64
8, 20498, Note_off_c, 3, 59, 64
8, 20498, Note_off_c, 3, 54, 64
8, 20520, Note_on_c, 3, 62, 81
8, 20520, Note_on_c, 3, 59, 81
8, 20520, Note_on_c, 3, 54, 81
8, 20522, Note_off_c, 3, 62, 64
8, 20522, Note_off_c, 3, 54, 64
8, 20522, Note_off_c, 3, 59, 64
8, 20544, Note_on_c, 3, 54, 81
8, 20544, Note_on_c, 3, 59, 81
8, 20544, Note_on_c, 3, 62, 81
8, 20546, Note_off_c, 3, 54, 64
8, 20546, Note_off_c, 3, 59, 64
8, 20546, Note_off_c, 3, 62, 64
8, 20568, Note_on_c, 3, 54, 81
8, 20568, Note_on_c, 3, 59, 81
8, 20568, Note_on_c, 3, 62, 81
8, 20570, Note_off_c, 3, 54, 64
8, 20570, Note_off_c, 3, 62, 64
8, 20570, Note_off_c, 3, 59, 64
8, 20592, Note_on_c, 3, 62, 81
8, 20592, Note_on_c, 3, 59, 81
8, 20592, Note_on_c, 3, 54, 81
8, 20594, Note_off_c, 3, 62, 64
8, 20594, Note_off_c, 3, 59, 64
8, 20594, Note_off_c, 3, 54, 64
8, 20616, Note_on_c, 3, 54, 81
8, 20616, Note_on_c, 3, 59, 81
8, 20616, Note_on_c, 3, 62, 81
8, 20618, Note_off_c, 3, 54, 64
8, 20618, Note_off_c, 3, 62, 64
8, 20618, Note_off_c, 3, 59, 64
8, 20640, Note_on_c, 3, 59, 81
8, 20640, Note_on_c, 3, 64, 81
8, 20642, Note_off_c, 3, 62, 64
8, 20642, Note_off_c, 3, 59, 64
8, 20642, Note_off_c, 3, 54, 64
8, 20664, Note_on_c, 3, 59, 81
8, 20664, Note_on_c, 3, 64, 81
8, 20666, Note_off_c, 3, 59, 64
8, 20666, Note_off_c, 3, 64, 64
8, 20688, Note_on_c, 3, 59, 81
8, 20688, Note_on_c, 3, 64, 81
8, 20690, Note_off_c, 3, 64, 64
8, 20690, Note_off_c, 3, 59, 64
8, 20712, Note_on_c, 3, 59, 81
8, 20712, Note_on_c, 3, 64, 81
8, 20714, Note_off_c, 3, 59, 64
8, 20714, Note_off_c, 3, 64, 64
8, 20736, Note_on_c, 3, 62, 81
8, 20736, Note_on_c, 3, 66, 81
8, 20738, Note_off_c, 3, 64, 64
8, 20738, Note_off_c, 3, 59, 64
8, 20762, Note_off_c, 3, 62, 64
8, 20762, Note_off_c, 3, 66, 64
8, 20784, Note_on_c, 3, 62, 81
8, 20784, Note_on_c, 3, 66, 81
8, 20808, Note_on_c, 3, 62, 81
8, 20808, Note_on_c, 3, 66, 81
8, 20810, Note_off_c, 3, 62, 64
8, 20810, Note_off_c, 3, 66, 64
8, 20834, Note_off_c, 3, 66, 64
8, 20834, Note_off_c, 3, 62, 64
8, 20856, Note_on_c, 3, 66, 81
8, 20856, Note_on_c, 3, 62, 81
8, 20880, Note_on_c, 3, 62, 81
8, 20880, Note_on_c, 3, 66, 81
8, 20882, Note_off_c, 3, 66, 64
8, 20882, Note_off_c, 3, 62, 64
8, 20906, Note_off_c, 3, 66, 64
8, 20906, Note_off_c, 3, 62, 64
8, 20928, Note_on_c, 3, 62, 81
8, 20928, Note_on_c, 3, 67, 81
8, 20954, Note_off_c, 3, 67, 64
8, 20954, Note_off_c, 3, 62, 64
8, 20976, Note_on_c, 3, 62, 81
8, 20976, Note_on_c, 3, 67, 81
8, 21000, Note_on_c, 3, 62, 81
8, 21000, Note_on_c, 3, 67, 81
8, 21002, Note_off_c, 3, 62, 64
8, 21002, Note_off_c, 3, 67, 64
8, 21026, Note_off_c, 3, 67, 64
8, 21026, Note_off_c, 3, 62, 64
8, 21048, Note_on_c, 3, 62, 81
8, 21048, Note_on_c, 3, 67, 81
8, 21072, Note_on_c, 3, 62, 81
8, 21072, Note_on_c, 3, 67, 81
8, 21074, Note_off_c, 3, 62, 64
8, 21074, Note_off_c, 3, 67, 64
8, 21098, Note_off_c, 3, 62, 64
8, 21098, Note_off_c, 3, 67, 64
8, 21120, Note_on_c, 3, 62, 81
8, 21120, Note_on_c, 3, 69, 81
8, 21120, Note_on_c, 3, 66, 81
8, 21146, Note_off_c, 3, 66, 64
8, 21146, Note_off_c, 3, 69, 64
8, 21146, Note_off_c, 3, 62, 64
8, 21168, Note_on_c, 3, 62, 81
8, 21168, Note_on_c, 3, 66, 81
8, 21168, Note_on_c, 3, 69, 81
8, 21192, Note_on_c, 3, 62, 81
8, 21192, Note_on_c, 3, 66, 81
8, 21192, Note_on_c, 3, 69, 81
8, 21194, Note_off_c, 3, 62, 64
8, 21194, Note_off_c, 3, 66, 64
8, 21194, Note_off_c, 3, 69, 64
8, 21218, Note_off_c, 3, 69, 64
8, 21218, Note_off_c, 3, 66, 64
8, 21218, Note_off_c, 3, 62, 64
8, 21240, Note_on_c, 3, 62, 81
8, 21240, Note_on_c, 3, 66, 81
8, 21240, Note_on_c, 3, 69, 81
8, 21264, Note_on_c, 3, 62, 81
8, 21264, Note_on_c, 3, 66, 81
8, 21264, Note_on_c, 3, 69, 81
8, 21266, Note_off_c, 3, 62, 64
8, 21266, Note_off_c, 3, 66, 64
8, 21266, Note_off_c, 3, 69, 64
8, 21290, Note_off_c, 3, 69, 64
8, 21290, Note_off_c, 3, 66, 64
8, 21290, Note_off_c, 3, 62, 64
8, 21312, Note_on_c, 3, 57, 81
8, 21312, Note_on_c, 3, 66, 81
8, 21312, Note_on_c, 3, 62, 81
8, 21338, Note_off_c, 3, 62, 64
8, 21338, Note_off_c, 3, 66, 64
8, 21338, Note_off_c, 3, 57, 64
8, 21360, Note_on_c, 3, 57, 81
8, 21360, Note_on_c, 3, 62, 81
8, 21360, Note_on_c, 3, 66, 81
8, 21384, Note_on_c, 3, 57, 81
8, 21384, Note_on_c, 3, 62, 81
8, 21384, Note_on_c, 3, 66, 81
8, 21386, Note_off_c, 3, 57, 64
8, 21386, Note_off_c, 3, 62, 64
8, 21386, Note_off_c, 3, 66, 64
8, 21410, Note_off_c, 3, 66, 64
8, 21410, Note_off_c, 3, 62, 64
8, 21410, Note_off_c, 3, 57, 64
8, 21432, Note_on_c, 3, 57, 81
8, 21432, Note_on_c, 3, 66, 81
8, 21432, Note_on_c, 3, 62, 81
8, 21456, Note_on_c, 3, 57, 81
8, 21456, Note_on_c, 3, 62, 81
8, 21456, Note_on_c, 3, 66, 81
8, 21458, Note_off_c, 3, 57, 64
8, 21458, Note_off_c, 3, 66, 64
8, 21458, Note_off_c, 3, 62, 64
8, 21482, Note_off_c, 3, 66, 64
8, 21482, Note_off_c, 3, 62, 64
8, 21482, Note_off_c, 3, 57, 64
8, 21504, Note_on_c, 3, 64, 81
8, 21504, Note_on_c, 3, 61, 81
8, 21504, Note_on_c, 3, 57, 81
8, 21528, Note_on_c, 3, 57, 81
8, 21528, Note_on_c, 3, 61, 81
8, 21528, Note_on_c, 3, 64, 81
8, 21530, Note_off_c, 3, 61, 64
8, 21530, Note_off_c, 3, 57, 64
8, 21530, Note_off_c, 3, 64, 64
8, 21552, Note_on_c, 3, 61, 81
8, 21552, Note_on_c, 3, 57, 81
8, 21552, Note_on_c, 3, 64, 81
8, 21554, Note_off_c, 3, 64, 64
8, 21554, Note_off_c, 3, 61, 64
8, 21554, Note_off_c, 3, 57, 64
8, 21576, Note_on_c, 3, 64, 81
8, 21576, Note_on_c, 3, 61, 81
8, 21576, Note_on_c, 3, 57, 81
8, 21578, Note_off_c, 3, 64, 64
8, 21578, Note_off_c, 3, 61, 64
8, 21578, Note_off_c, 3, 57, 64
8, 21600, Note_on_c, 3, 57, 81
8, 21600, Note_on_c, 3, 61, 81
8, 21600, Note_on_c, 3, 64, 81
8, 21602, Note_off_c, 3, 57, 64
8, 21602, Note_off_c, 3, 61, 64
8, 21602, Note_off_c, 3, 64, 64
8, 21624, Note_on_c, 3, 57, 81
8, 21624, Note_on_c, 3, 61, 81
8, 21624, Note_on_c, 3, 64, 81
8, 21626, Note_off_c, 3, 57, 64
8, 21626, Note_off_c, 3, 61, 64
8, 21626, Note_off_c, 3, 64, 64
8, 21648, Note_on_c, 3, 64, 81
8, 21648, Note_on_c, 3, 57, 81
8, 21648, Note_on_c, 3, 61, 81
8, 21650, Note_off_c, 3, 64, 64
8, 21650, Note_off_c, 3, 61, 64
8, 21650, Note_off_c, 3, 57, 64
8, 21672, Note_on_c, 3, 64, 81
8, 21672, Note_on_c, 3, 61, 81
8, 21672, Note_on_c, 3, 57, 81
8, 21674, Note_off_c, 3, 61, 64
8, 21674, Note_off_c, 3, 57, 64
8, 21674, Note_off_c, 3, 64, 64
8, 21696, Note_on_c, 3, 64, 81
8, 21696, Note_on_c, 3, 61, 81
8, 21696, Note_on_c, 3, 57, 81
8, 21698, Note_off_c, 3, 57, 64
8, 21698, Note_off_c, 3, 61, 64
8, 21698, Note_off_c, 3, 64, 64
8, 21720, Note_on_c, 3, 64, 81
8, 21720, Note_on_c, 3, 61, 81
8, 21720, Note_on_c, 3, 57, 81
8, 21722, Note_off_c, 3, 64, 64
8, 21722, Note_off_c, 3, 57, 64
8, 21722, Note_off_c, 3, 61, 64
8, 21744, Note_on_c, 3, 64, 81
8, 21744, Note_on_c, 3, 57, 81
8, 21744, Note_on_c, 3, 61, 81
8, 21746, Note_off_c, 3, 57, 64
8, 21746, Note_off_c, 3, 61, 64
8, 21746, Note_off_c, 3, 64, 64
8, 21768, Note_on_c, 3, 64, 81
8, 21768, Note_on_c, 3, 61, 81
8, 21768, Note_on_c, 3, 57, 81
8, 21770, Note_off_c, 3, 61, 64
8, 21770, Note_off_c, 3, 64, 64
8, 21770, Note_off_c, 3, 57, 64
8, 21792, Note_on_c, 3, 64, 81
8, 21792, Note_on_c, 3, 61, 81
8, 21792, Note_on_c, 3, 57, 81
8, 21794, Note_off_c, 3, 57, 64
8, 21794, Note_off_c, 3, 61, 64
8, 21794, Note_off_c, 3, 64, 64
8, 21816, Note_on_c, 3, 57, 81
8, 21816, Note_on_c, 3, 61, 81
8, 21816, Note_on_c, 3, 64, 81
8, 21818, Note_off_c, 3, 64, 64
8, 21818, Note_off_c, 3, 61, 64
8, 21818, Note_off_c, 3, 57, 64
8, 21840, Note_on_c, 3, 64, 81
8, 21840, Note_on_c, 3, 57, 81
8, 21840, Note_on_c, 3, 61, 81
8, 21842, Note_off_c, 3, 64, 64
8, 21842, Note_off_c, 3, 61, 64
8, 21842, Note_off_c, 3, 57, 64
8, 21864, Note_on_c, 3, 57, 81
8, 21864, Note_on_c, 3, 61, 81
8, 21864, Note_on_c, 3, 64, 81
8, 21866, Note_off_c, 3, 61, 64
8, 21866, Note_off_c, 3, 64, 64
8, 21866, Note_off_c, 3, 57, 64
8, 21888, Note_on_c, 3, 64, 81
8, 21888, Note_on_c, 3, 61, 81
8, 21888, Note_on_c, 3, 57, 81
8, 21890, Note_off_c, 3, 64, 64
8, 21890, Note_off_c, 3, 61, 64
8, 21890, Note_off_c, 3, 57, 64
8, 21912, Note_on_c, 3, 57, 81
8, 21912, Note_on_c, 3, 61, 81
8, 21912, Note_on_c, 3, 64, 81
8, 21914, Note_off_c, 3, 64, 64
8, 21914, Note_off_c, 3, 61, 64
8, 21914, Note_off_c, 3, 57, 64
8, 21936, Note_on_c, 3, 57, 81
8, 21936, Note_on_c, 3, 61, 81
8, 21936, Note_on_c, 3, 64, 81
8, 21938, Note_off_c, 3, 64, 64
8, 21938, Note_off_c, 3, 61, 64
8, 21938, Note_off_c, 3, 57, 64
8, 21960, Note_on_c, 3, 57, 81
8, 21960, Note_on_c, 3, 61, 81
8, 21960, Note_on_c, 3, 64, 81
8, 21962, Note_off_c, 3, 64, 64
8, 21962, Note_off_c, 3, 57, 64
8, 21962, Note_off_c, 3, 61, 64
8, 21984, Note_on_c, 3, 57, 81
8, 21984, Note_on_c, 3, 61, 81
8, 21984, Note_on_c, 3, 64, 81
8, 21986, Note_off_c, 3, 64, 64
8, 21986, Note_off_c, 3, 61, 64
8, 21986, Note_off_c, 3, 57, 64
8, 22008, Note_on_c, 3, 59, 81
8, 22008, Note_on_c, 3, 62, 81
8, 22010, Note_off_c, 3, 61, 64
8, 22010, Note_off_c, 3, 57, 64
8, 22010, Note_off_c, 3, 64, 64
8, 22032, Note_on_c, 3, 59, 81
8, 22032, Note_on_c, 3, 62, 81
8, 22034, Note_off_c, 3, 62, 64
8, 22034, Note_off_c, 3, 59, 64
8, 22056, Note_on_c, 3, 59, 81
8, 22056, Note_on_c, 3, 62, 81
8, 22058, Note_off_c, 3, 59, 64
8, 22058, Note_off_c, 3, 62, 64
8, 22080, Note_on_c, 3, 59, 81
8, 22080, Note_on_c, 3, 62, 81
8, 22082, Note_off_c, 3, 62, 64
8, 22082, Note_off_c, 3, 59, 64
8, 22104, Note_on_c, 3, 59, 81
8, 22104, Note_on_c, 3, 62, 81
8, 22106, Note_off_c, 3, 59, 64
8, 22106, Note_off_c, 3, 62, 64
8, 22128, Note_on_c, 3, 59, 81
8, 22128, Note_on_c, 3, 62, 81
8, 22130, Note_off_c, 3, 62, 64
8, 22130, Note_off_c, 3, 59, 64
8, 22152, Note_on_c, 3, 59, 81
8, 22152, Note_on_c, 3, 62, 81
8, 22154, Note_off_c, 3, 59, 64
8, 22154, Note_off_c, 3, 62, 64
8, 22176, Note_on_c, 3, 59, 81
8, 22176, Note_on_c, 3, 62, 81
8, 22178, Note_off_c, 3, 62, 64
8, 22178, Note_off_c, 3, 59, 64
8, 22200, Note_on_c, 3, 59, 81
8, 22200, Note_on_c, 3, 62, 81
8, 22202, Note_off_c, 3, 62, 64
8, 22202, Note_off_c, 3, 59, 64
8, 22224, Note_on_c, 3, 59, 81
8, 22224, Note_on_c, 3, 62, 81
8, 22226, Note_off_c, 3, 62, 64
8, 22226, Note_off_c, 3, 59, 64
8, 22248, Note_on_c, 3, 59, 81
8, 22248, Note_on_c, 3, 62, 81
8, 22250, Note_off_c, 3, 59, 64
8, 22250, Note_off_c, 3, 62, 64
8, 22272, Note_off_c, 3, 62, 64
8, 22272, Note_off_c, 3, 59, 64
8, 22272, Note_on_c, 3, 64, 81
8, 22272, Note_on_c, 3, 61, 81
8, 22272, Note_on_c, 3, 57, 81
8, 22296, Note_on_c, 3, 64, 81
8, 22296, Note_on_c, 3, 61, 81
8, 22296, Note_on_c, 3, 57, 81
8, 22298, Note_off_c, 3, 64, 64
8, 22298, Note_off_c, 3, 57, 64
8, 22298, Note_off_c, 3, 61, 64
8, 22320, Note_on_c, 3, 64, 81
8, 22320, Note_on_c, 3, 57, 81
8, 22320, Note_on_c, 3, 61, 81
8, 22322, Note_off_c, 3, 57, 64
8, 22322, Note_off_c, 3, 61, 64
8, 22322, Note_off_c, 3, 64, 64
8, 22344, Note_on_c, 3, 64, 81
8, 22344, Note_on_c, 3, 61, 81
8, 22344, Note_on_c, 3, 57, 81
8, 22346, Note_off_c, 3, 61, 64
8, 22346, Note_off_c, 3, 64, 64
8, 22346, Note_off_c, 3, 57, 64
8, 22368, Note_on_c, 3, 57, 81
8, 22368, Note_on_c, 3, 61, 81
8, 22368, Note_on_c, 3, 64, 81
8, 22370, Note_off_c, 3, 57, 64
8, 22370, Note_off_c, 3, 61, 64
8, 22370, Note_off_c, 3, 64, 64
8, 22392, Note_on_c, 3, 64, 81
8, 22392, Note_on_c, 3, 61, 81
8, 22392, Note_on_c, 3, 57, 81
8, 22394, Note_off_c, 3, 57, 64
8, 22394, Note_off_c, 3, 61, 64
8, 22394, Note_off_c, 3, 64, 64
8, 22416, Note_on_c, 3, 61, 81
8, 22416, Note_on_c, 3, 57, 81
8, 22416, Note_on_c, 3, 64, 81
8, 22418, Note_off_c, 3, 57, 64
8, 22418, Note_off_c, 3, 61, 64
8, 22418, Note_off_c, 3, 64, 64
8, 22440, Note_on_c, 3, 64, 81
8, 22440, Note_on_c, 3, 61, 81
8, 22440, Note_on_c, 3, 57, 81
8, 22442, Note_off_c, 3, 64, 64
8, 22442, Note_off_c, 3, 61, 64
8, 22442, Note_off_c, 3, 57, 64
8, 22464, Note_on_c, 3, 64, 81
8, 22464, Note_on_c, 3, 61, 81
8, 22464, Note_on_c, 3, 57, 81
8, 22466, Note_off_c, 3, 57, 64
8, 22466, Note_off_c, 3, 61, 64
8, 22466, Note_off_c, 3, 64, 64
8, 22488, Note_on_c, 3, 57, 81
8, 22488, Note_on_c, 3, 61, 81
8, 22488, Note_on_c, 3, 64, 81
8, 22490, Note_off_c, 3, 64, 64
8, 22490, Note_off_c, 3, 57, 64
8, 22490, Note_off_c, 3, 61, 64
8, 22512, Note_on_c, 3, 61, 81
8, 22512, Note_on_c, 3, 57, 81
8, 22512, Note_on_c, 3, 64, 81
8, 22514, Note_off_c, 3, 64, 64
8, 22514, Note_off_c, 3, 61, 64
8, 22514, Note_off_c, 3, 57, 64
8, 22536, Note_on_c, 3, 64, 81
8, 22536, Note_on_c, 3, 61, 81
8, 22536, Note_on_c, 3, 57, 81
8, 22538, Note_off_c, 3, 64, 64
8, 22538, Note_off_c, 3, 61, 64
8, 22538, Note_off_c, 3, 57, 64
8, 22560, Note_on_c, 3, 64, 81
8, 22560, Note_on_c, 3, 61, 81
8, 22560, Note_on_c, 3, 57, 81
8, 22562, Note_off_c, 3, 57, 64
8, 22562, Note_off_c, 3, 61, 64
8, 22562, Note_off_c, 3, 64, 64
8, 22584, Note_on_c, 3, 64, 81
8, 22584, Note_on_c, 3, 61, 81
8, 22584, Note_on_c, 3, 57, 81
8, 22586, Note_off_c, 3, 64, 64
8, 22586, Note_off_c, 3, 61, 64
8, 22586, Note_off_c, 3, 57, 64
8, 22608, Note_on_c, 3, 61, 81
8, 22608, Note_on_c, 3, 57, 81
8, 22608, Note_on_c, 3, 64, 81
8, 22610, Note_off_c, 3, 57, 64
8, 22610, Note_off_c, 3, 61, 64
8, 22610, Note_off_c, 3, 64, 64
8, 22632, Note_on_c, 3, 61, 81
8, 22632, Note_on_c, 3, 57, 81
8, 22632, Note_on_c, 3, 64, 81
8, 22634, Note_off_c, 3, 64, 64
8, 22634, Note_off_c, 3, 61, 64
8, 22634, Note_off_c, 3, 57, 64
8, 22656, Note_on_c, 3, 64, 81
8, 22656, Note_on_c, 3, 59, 81
8, 22656, Note_on_c, 3, 56, 81
8, 22658, Note_off_c, 3, 64, 64
8, 22658, Note_off_c, 3, 57, 64
8, 22658, Note_off_c, 3, 61, 64
8, 22680, Note_on_c, 3, 59, 81
8, 22680, Note_on_c, 3, 56, 81
8, 22680, Note_on_c, 3, 64, 81
8, 22682, Note_off_c, 3, 64, 64
8, 22682, Note_off_c, 3, 56, 64
8, 22682, Note_off_c, 3, 59, 64
8, 22704, Note_on_c, 3, 59, 81
8, 22704, Note_on_c, 3, 56, 81
8, 22704, Note_on_c, 3, 64, 81
8, 22706, Note_off_c, 3, 64, 64
8, 22706, Note_off_c, 3, 56, 64
8, 22706, Note_off_c, 3, 59, 64
8, 22728, Note_on_c, 3, 59, 81
8, 22728, Note_on_c, 3, 56, 81
8, 22728, Note_on_c, 3, 64, 81
8, 22730, Note_off_c, 3, 64, 64
8, 22730, Note_off_c, 3, 59, 64
8, 22730, Note_off_c, 3, 56, 64
8, 22752, Note_on_c, 3, 64, 81
8, 22752, Note_on_c, 3, 59, 81
8, 22752, Note_on_c, 3, 56, 81
8, 22754, Note_off_c, 3, 64, 64
8, 22754, Note_off_c, 3, 56, 64
8, 22754, Note_off_c, 3, 59, 64
8, 22776, Note_on_c, 3, 64, 81
8, 22776, Note_on_c, 3, 59, 81
8, 22776, Note_on_c, 3, 56, 81
8, 22778, Note_off_c, 3, 64, 64
8, 22778, Note_off_c, 3, 59, 64
8, 22778, Note_off_c, 3, 56, 64
8, 22800, Note_on_c, 3, 64, 81
8, 22800, Note_on_c, 3, 56, 81
8, 22800, Note_on_c, 3, 59, 81
8, 22802, Note_off_c, 3, 56, 64
8, 22802, Note_off_c, 3, 59, 64
8, 22802, Note_off_c, 3, 64, 64
8, 22824, Note_on_c, 3, 64, 81
8, 22824, Note_on_c, 3, 56, 81
8, 22824, Note_on_c, 3, 59, 81
8, 22826, Note_off_c, 3, 59, 64
8, 22826, Note_off_c, 3, 64, 64
8, 22826, Note_off_c, 3, 56, 64
8, 22848, Note_on_c, 3, 68, 81
8, 22848, Note_on_c, 3, 71, 81
8, 22850, Note_off_c, 3, 59, 64
8, 22850, Note_off_c, 3, 56, 64
8, 22850, Note_off_c, 3, 64, 64
8, 22872, Note_on_c, 3, 71, 81
8, 22872, Note_on_c, 3, 68, 81
8, 22874, Note_off_c, 3, 68, 64
8, 22874, Note_off_c, 3, 71, 64
8, 22896, Note_on_c, 3, 71, 81
8, 22896, Note_on_c, 3, 68, 81
8, 22898, Note_off_c, 3, 68, 64
8, 22898, Note_off_c, 3, 71, 64
8, 22920, Note_on_c, 3, 71, 81
8, 22920, Note_on_c, 3, 68, 81
8, 22922, Note_off_c, 3, 71, 64
8, 22922, Note_off_c, 3, 68, 64
8, 22944, Note_on_c, 3, 71, 81
8, 22944, Note_on_c, 3, 68, 81
8, 22946, Note_off_c, 3, 68, 64
8, 22946, Note_off_c, 3, 71, 64
8, 22968, Note_on_c, 3, 71, 81
8, 22968, Note_on_c, 3, 68, 81
8, 22970, Note_off_c, 3, 71, 64
8, 22970, Note_off_c, 3, 68, 64
8, 22992, Note_on_c, 3, 71, 81
8, 22992, Note_on_c, 3, 68, 81
8, 22994, Note_off_c, 3, 68, 64
8, 22994, Note_off_c, 3, 71, 64
8, 23016, Note_on_c, 3, 71, 81
8, 23016, Note_on_c, 3, 68, 81
8, 23018, Note_off_c, 3, 71, 64
8, 23018, Note_off_c, 3, 68, 64
8, 23042, Note_off_c, 3, 68, 64
8, 23042, Note_off_c, 3, 71, 64
8, 23064, Note_on_c, 3, 66, 81
8, 23064, Note_on_c, 3, 69, 81
8, 23088, Note_on_c, 3, 66, 81
8, 23088, Note_on_c, 3, 69, 81
8, 23090, Note_off_c, 3, 66, 64
8, 23090, Note_off_c, 3, 69, 64
8, 23112, Note_on_c, 3, 66, 81
8, 23112, Note_on_c, 3, 69, 81
8, 23114, Note_off_c, 3, 66, 64
8, 23114, Note_off_c, 3, 69, 64
8, 23138, Note_off_c, 3, 69, 64
8, 23138, Note_off_c, 3, 66, 64
8, 23160, Note_on_c, 3, 66, 81
8, 23160, Note_on_c, 3, 69, 81
8, 23184, Note_on_c, 3, 66, 81
8, 23184, Note_on_c, 3, 69, 81
8, 23186, Note_off_c, 3, 66, 64
8, 23186, Note_off_c, 3, 69, 64
8, 23208, Note_on_c, 3, 69, 81
8, 23208, Note_on_c, 3, 66, 81
8, 23210, Note_off_c, 3, 66, 64
8, 23210, Note_off_c, 3, 69, 64
8, 23234, Note_off_c, 3, 66, 64
8, 23234, Note_off_c, 3, 69, 64
8, 23256, Note_on_c, 3, 61, 81
8, 23256, Note_on_c, 3, 66, 81
8, 23280, Note_on_c, 3, 61, 81
8, 23280, Note_on_c, 3, 66, 81
8, 23282, Note_off_c, 3, 61, 64
8, 23282, Note_off_c, 3, 66, 64
8, 23304, Note_on_c, 3, 61, 81
8, 23304, Note_on_c, 3, 66, 81
8, 23306, Note_off_c, 3, 61, 64
8, 23306, Note_off_c, 3, 66, 64
8, 23330, Note_off_c, 3, 66, 64
8, 23330, Note_off_c, 3, 61, 64
8, 23352, Note_on_c, 3, 61, 81
8, 23352, Note_on_c, 3, 66, 81
8, 23376, Note_on_c, 3, 61, 81
8, 23376, Note_on_c, 3, 66, 81
8, 23378, Note_off_c, 3, 61, 64
8, 23378, Note_off_c, 3, 66, 64
8, 23400, Note_on_c, 3, 61, 81
8, 23400, Note_on_c, 3, 66, 81
8, 23402, Note_off_c, 3, 61, 64
8, 23402, Note_off_c, 3, 66, 64
8, 23426, Note_off_c, 3, 66, 64
8, 23426, Note_off_c, 3, 61, 64
8, 23448, Note_on_c, 3, 69, 81
8, 23448, Note_on_c, 3, 66, 81
8, 23472, Note_on_c, 3, 69, 81
8, 23472, Note_on_c, 3, 66, 81
8, 23474, Note_off_c, 3, 69, 64
8, 23474, Note_off_c, 3, 66, 64
8, 23496, Note_on_c, 3, 69, 81
8, 23496, Note_on_c, 3, 66, 81
8, 23498, Note_off_c, 3, 69, 64
8, 23498, Note_off_c, 3, 66, 64
8, 23522, Note_off_c, 3, 66, 64
8, 23522, Note_off_c, 3, 69, 64
8, 23544, Note_on_c, 3, 69, 81
8, 23544, Note_on_c, 3, 66, 81
8, 23568, Note_on_c, 3, 69, 81
8, 23568, Note_on_c, 3, 66, 81
8, 23570, Note_off_c, 3, 69, 64
8, 23570, Note_off_c, 3, 66, 64
8, 23592, Note_on_c, 3, 66, 81
8, 23592, Note_on_c, 3, 69, 81
8, 23594, Note_off_c, 3, 69, 64
8, 23594, Note_off_c, 3, 66, 64
8, 23618, Note_off_c, 3, 69, 64
8, 23618, Note_off_c, 3, 66, 64
8, 23640, Note_on_c, 3, 66, 81
8, 23640, Note_on_c, 3, 61, 81
8, 23664, Note_on_c, 3, 66, 81
8, 23664, Note_on_c, 3, 61, 81
8, 23666, Note_off_c, 3, 66, 64
8, 23666, Note_off_c, 3, 61, 64
8, 23688, Note_on_c, 3, 66, 81
8, 23688, Note_on_c, 3, 61, 81
8, 23690, Note_off_c, 3, 66, 64
8, 23690, Note_off_c, 3, 61, 64
8, 23714, Note_off_c, 3, 61, 64
8, 23714, Note_off_c, 3, 66, 64
8, 23736, Note_on_c, 3, 61, 81
8, 23736, Note_on_c, 3, 66, 81
8, 23760, Note_on_c, 3, 61, 81
8, 23760, Note_on_c, 3, 66, 81
8, 23762, Note_off_c, 3, 61, 64
8, 23762, Note_off_c, 3, 66, 64
8, 23784, Note_on_c, 3, 61, 81
8, 23784, Note_on_c, 3, 66, 81
8, 23786, Note_off_c, 3, 61, 64
8, 23786, Note_off_c, 3, 66, 64
8, 23808, Note_on_c, 3, 62, 81
8, 23808, Note_on_c, 3, 66, 81
8, 23810, Note_off_c, 3, 66, 64
8, 23810, Note_off_c, 3, 61, 64
8, 23832, Note_on_c, 3, 62, 81
8, 23832, Note_on_c, 3, 66, 81
8, 23834, Note_off_c, 3, 62, 64
8, 23834, Note_off_c, 3, 66, 64
8, 23856, Note_on_c, 3, 66, 81
8, 23856, Note_on_c, 3, 62, 81
8, 23858, Note_off_c, 3, 66, 64
8, 23858, Note_off_c, 3, 62, 64
8, 23880, Note_on_c, 3, 66, 81
8, 23880, Note_on_c, 3, 62, 81
8, 23882, Note_off_c, 3, 66, 64
8, 23882, Note_off_c, 3, 62, 64
8, 23906, Note_off_c, 3, 62, 64
8, 23906, Note_off_c, 3, 66, 64
8, 23928, Note_on_c, 3, 62, 81
8, 23928, Note_on_c, 3, 66, 81
8, 23952, Note_on_c, 3, 62, 81
8, 23952, Note_on_c, 3, 66, 81
8, 23954, Note_off_c, 3, 62, 64
8, 23954, Note_off_c, 3, 66, 64
8, 23976, Note_on_c, 3, 62, 81
8, 23976, Note_on_c, 3, 66, 81
8, 23978, Note_off_c, 3, 62, 64
8, 23978, Note_off_c, 3, 66, 64
8, 24000, Note_on_c, 3, 62, 81
8, 24000, Note_on_c, 3, 66, 81
8, 24002, Note_off_c, 3, 66, 64
8, 24002, Note_off_c, 3, 62, 64
8, 24026, Note_off_c, 3, 62, 64
8, 24026, Note_off_c, 3, 66, 64
8, 24048, Note_on_c, 3, 62, 81
8, 24048, Note_on_c, 3, 66, 81
8, 24072, Note_on_c, 3, 62, 81
8, 24072, Note_on_c, 3, 66, 81
8, 24074, Note_off_c, 3, 62, 64
8, 24074, Note_off_c, 3, 66, 64
8, 24098, Note_off_c, 3, 66, 64
8, 24098, Note_off_c, 3, 62, 64
8, 24120, Note_on_c, 3, 62, 81
8, 24120, Note_on_c, 3, 66, 81
8, 24144, Note_on_c, 3, 62, 81
8, 24144, Note_on_c, 3, 66, 81
8, 24146, Note_off_c, 3, 62, 64
8, 24146, Note_off_c, 3, 66, 64
8, 24168, Note_on_c, 3, 62, 81
8, 24168, Note_on_c, 3, 66, 81
8, 24170, Note_off_c, 3, 62, 64
8, 24170, Note_off_c, 3, 66, 64
8, 24192, Note_on_c, 3, 58, 81
8, 24192, Note_on_c, 3, 66, 81
8, 24192, Note_on_c, 3, 62, 81
8, 24194, Note_off_c, 3, 66, 64
8, 24194, Note_off_c, 3, 62, 64
8, 24218, Note_off_c, 3, 58, 64
8, 24218, Note_off_c, 3, 62, 64
8, 24218, Note_off_c, 3, 66, 64
8, 24240, Note_on_c, 3, 58, 81
8, 24240, Note_on_c, 3, 62, 81
8, 24240, Note_on_c, 3, 66, 81
8, 24264, Note_on_c, 3, 66, 81
8, 24264, Note_on_c, 3, 62, 81
8, 24264, Note_on_c, 3, 58, 81
8, 24266, Note_off_c, 3, 58, 64
8, 24266, Note_off_c, 3, 62, 64
8, 24266, Note_off_c, 3, 66, 64
8, 24290, Note_off_c, 3, 58, 64
8, 24290, Note_off_c, 3, 62, 64
8, 24290, Note_off_c, 3, 66, 64
8, 24312, Note_on_c, 3, 58, 81
8, 24312, Note_on_c, 3, 62, 81
8, 24312, Note_on_c, 3, 66, 81
8, 24336, Note_on_c, 3, 66, 81
8, 24336, Note_on_c, 3, 62, 81
8, 24336, Note_on_c, 3, 58, 81
8, 24338, Note_off_c, 3, 58, 64
8, 24338, Note_off_c, 3, 62, 64
8, 24338, Note_off_c, 3, 66, 64
8, 24360, Note_on_c, 3, 58, 81
8, 24360, Note_on_c, 3, 62, 81
8, 24360, Note_on_c, 3, 66, 81
8, 24362, Note_off_c, 3, 58, 64
8, 24362, Note_off_c, 3, 66, 64
8, 24362, Note_off_c, 3, 62, 64
8, 24386, Note_off_c, 3, 66, 64
8, 24386, Note_off_c, 3, 62, 64
8, 24386, Note_off_c, 3, 58, 64
8, 24408, Note_on_c, 3, 58, 81
8, 24408, Note_on_c, 3, 62, 81
8, 24408, Note_on_c, 3, 66, 81
8, 24432, Note_on_c, 3, 62, 81
8, 24432, Note_on_c, 3, 66, 81
8, 24432, Note_on_c, 3, 58, 81
8, 24434, Note_off_c, 3, 66, 64
8, 24434, Note_off_c, 3, 62, 64
8, 24434, Note_off_c, 3, 58, 64
8, 24456, Note_on_c, 3, 58, 81
8, 24456, Note_on_c, 3, 62, 81
8, 24456, Note_on_c, 3, 66, 81
8, 24458, Note_off_c, 3, 58, 64
8, 24458, Note_off_c, 3, 62, 64
8, 24458, Note_off_c, 3, 66, 64
8, 24482, Note_off_c, 3, 66, 64
8, 24482, Note_off_c, 3, 62, 64
8, 24482, Note_off_c, 3, 58, 64
8, 24504, Note_on_c, 3, 58, 81
8, 24504, Note_on_c, 3, 62, 81
8, 24504, Note_on_c, 3, 66, 81
8, 24528, Note_on_c, 3, 66, 81
8, 24528, Note_on_c, 3, 62, 81
8, 24528, Note_on_c, 3, 58, 81
8, 24530, Note_off_c, 3, 58, 64
8, 24530, Note_off_c, 3, 62, 64
8, 24530, Note_off_c, 3, 66, 64
8, 24552, Note_on_c, 3, 58, 81
8, 24552, Note_on_c, 3, 62, 81
8, 24552, Note_on_c, 3, 66, 81
8, 24554, Note_off_c, 3, 58, 64
8, 24554, Note_off_c, 3, 66, 64
8, 24554, Note_off_c, 3, 62, 64
8, 24576, Note_on_c, 3, 62, 81
8, 24576, Note_on_c, 3, 66, 81
8, 24578, Note_off_c, 3, 66, 64
8, 24578, Note_off_c, 3, 62, 64
8, 24578, Note_off_c, 3, 58, 64
8, 24602, Note_off_c, 3, 62, 64
8, 24602, Note_off_c, 3, 66, 64
8, 24624, Note_on_c, 3, 62, 81
8, 24624, Note_on_c, 3, 66, 81
8, 24648, Note_on_c, 3, 62, 81
8, 24648, Note_on_c, 3, 66, 81
8, 24650, Note_off_c, 3, 62, 64
8, 24650, Note_off_c, 3, 66, 64
8, 24674, Note_off_c, 3, 66, 64
8, 24674, Note_off_c, 3, 62, 64
8, 24696, Note_on_c, 3, 62, 81
8, 24696, Note_on_c, 3, 66, 81
8, 24720, Note_on_c, 3, 62, 81
8, 24720, Note_on_c, 3, 66, 81
8, 24722, Note_off_c, 3, 62, 64
8, 24722, Note_off_c, 3, 66, 64
8, 24744, Note_on_c, 3, 62, 81
8, 24744, Note_on_c, 3, 66, 81
8, 24746, Note_off_c, 3, 62, 64
8, 24746, Note_off_c, 3, 66, 64
8, 24770, Note_off_c, 3, 66, 64
8, 24770, Note_off_c, 3, 62, 64
8, 24792, Note_on_c, 3, 62, 81
8, 24792, Note_on_c, 3, 66, 81
8, 24816, Note_on_c, 3, 66, 81
8, 24816, Note_on_c, 3, 62, 81
8, 24818, Note_off_c, 3, 62, 64
8, 24818, Note_off_c, 3, 66, 64
8, 24840, Note_on_c, 3, 62, 81
8, 24840, Note_on_c, 3, 66, 81
8, 24842, Note_off_c, 3, 66, 64
8, 24842, Note_off_c, 3, 62, 64
8, 24866, Note_off_c, 3, 66, 64
8, 24866, Note_off_c, 3, 62, 64
8, 24888, Note_on_c, 3, 62, 81
8, 24888, Note_on_c, 3, 66, 81
8, 24912, Note_on_c, 3, 62, 81
8, 24912, Note_on_c, 3, 66, 81
8, 24914, Note_off_c, 3, 62, 64
8, 24914, Note_off_c, 3, 66, 64
8, 24936, Note_on_c, 3, 62, 81
8, 24936, Note_on_c, 3, 66, 81
8, 24938, Note_off_c, 3, 62, 64
8, 24938, Note_off_c, 3, 66, 64
8, 24960, Note_on_c, 3, 62, 81
8, 24960, Note_on_c, 3, 66, 81
8, 24962, Note_off_c, 3, 66, 64
8, 24962, Note_off_c, 3, 62, 64
8, 24986, Note_off_c, 3, 62, 64
8, 24986, Note_off_c, 3, 66, 64
8, 25008, Note_on_c, 3, 62, 81
8, 25008, Note_on_c, 3, 66, 81
8, 25032, Note_on_c, 3, 62, 81
8, 25032, Note_on_c, 3, 66, 81
8, 25034, Note_off_c, 3, 62, 64
8, 25034, Note_off_c, 3, 66, 64
8, 25058, Note_off_c, 3, 66, 64
8, 25058, Note_off_c, 3, 62, 64
8, 25080, Note_on_c, 3, 62, 81
8, 25080, Note_on_c, 3, 66, 81
8, 25104, Note_on_c, 3, 62, 81
8, 25104, Note_on_c, 3, 66, 81
8, 25106, Note_off_c, 3, 62, 64
8, 25106, Note_off_c, 3, 66, 64
8, 25128, Note_on_c, 3, 62, 81
8, 25128, Note_on_c, 3, 66, 81
8, 25130, Note_off_c, 3, 62, 64
8, 25130, Note_off_c, 3, 66, 64
8, 25152, Note_on_c, 3, 64, 81
8, 25152, Note_on_c, 3, 68, 81
8, 25154, Note_off_c, 3, 66, 64
8, 25154, Note_off_c, 3, 62, 64
8, 25178, Note_off_c, 3, 68, 64
8, 25178, Note_off_c, 3, 64, 64
8, 25200, Note_on_c, 3, 68, 81
8, 25200, Note_on_c, 3, 64, 81
8, 25224, Note_on_c, 3, 64, 81
8, 25224, Note_on_c, 3, 68, 81
8, 25226, Note_off_c, 3, 68, 64
8, 25226, Note_off_c, 3, 64, 64
8, 25250, Note_off_c, 3, 68, 64
8, 25250, Note_off_c, 3, 64, 64
8, 25272, Note_on_c, 3, 68, 81
8, 25272, Note_on_c, 3, 64, 81
8, 25296, Note_on_c, 3, 68, 81
8, 25296, Note_on_c, 3, 64, 81
8, 25298, Note_off_c, 3, 68, 64
8, 25298, Note_off_c, 3, 64, 64
8, 25322, Note_off_c, 3, 68, 64
8, 25322, Note_off_c, 3, 64, 64
8, 25344, Note_on_c, 3, 64, 81
8, 25344, Note_on_c, 3, 61, 81
8, 25344, Note_on_c, 3, 57, 81
8, 25368, Note_on_c, 3, 57, 81
8, 25368, Note_on_c, 3, 61, 81
8, 25368, Note_on_c, 3, 64, 81
8, 25370, Note_off_c, 3, 57, 64
8, 25370, Note_off_c, 3, 61, 64
8, 25370, Note_off_c, 3, 64, 64
8, 25392, Note_on_c, 3, 61, 81
8, 25392, Note_on_c, 3, 57, 81
8, 25392, Note_on_c, 3, 64, 81
8, 25394, Note_off_c, 3, 64, 64
8, 25394, Note_off_c, 3, 61, 64
8, 25394, Note_off_c, 3, 57, 64
8, 25416, Note_on_c, 3, 64, 81
8, 25416, Note_on_c, 3, 61, 81
8, 25416, Note_on_c, 3, 57, 81
8, 25418, Note_off_c, 3, 64, 64
8, 25418, Note_off_c, 3, 57, 64
8, 25418, Note_off_c, 3, 61, 64
8, 25440, Note_on_c, 3, 57, 81
8, 25440, Note_on_c, 3, 61, 81
8, 25440, Note_on_c, 3, 64, 81
8, 25442, Note_off_c, 3, 57, 64
8, 25442, Note_off_c, 3, 61, 64
8, 25442, Note_off_c, 3, 64, 64
8, 25464, Note_on_c, 3, 57, 81
8, 25464, Note_on_c, 3, 61, 81
8, 25464, Note_on_c, 3, 64, 81
8, 25466, Note_off_c, 3, 64, 64
8, 25466, Note_off_c, 3, 61, 64
8, 25466, Note_off_c, 3, 57, 64
8, 25488, Note_on_c, 3, 64, 81
8, 25488, Note_on_c, 3, 57, 81
8, 25488, Note_on_c, 3, 61, 81
8, 25490, Note_off_c, 3, 64, 64
8, 25490, Note_off_c, 3, 61, 64
8, 25490, Note_off_c, 3, 57, 64
8, 25512, Note_on_c, 3, 64, 81
8, 25512, Note_on_c, 3, 61, 81
8, 25512, Note_on_c, 3, 57, 81
8, 25514, Note_off_c, 3, 61, 64
8, 25514, Note_off_c, 3, 57, 64
8, 25514, Note_off_c, 3, 64, 64
8, 25536, Note_on_c, 3, 64, 81
8, 25536, Note_on_c, 3, 61, 81
8, 25536, Note_on_c, 3, 57, 81
8, 25538, Note_off_c, 3, 57, 64
8, 25538, Note_off_c, 3, 61, 64
8, 25538, Note_off_c, 3, 64, 64
8, 25560, Note_on_c, 3, 64, 81
8, 25560, Note_on_c, 3, 61, 81
8, 25560, Note_on_c, 3, 57, 81
8, 25562, Note_off_c, 3, 57, 64
8, 25562, Note_off_c, 3, 61, 64
8, 25562, Note_off_c, 3, 64, 64
8, 25584, Note_on_c, 3, 64, 81
8, 25584, Note_on_c, 3, 57, 81
8, 25584, Note_on_c, 3, 61, 81
8, 25586, Note_off_c, 3, 57, 64
8, 25586, Note_off_c, 3, 61, 64
8, 25586, Note_off_c, 3, 64, 64
8, 25608, Note_on_c, 3, 64, 81
8, 25608, Note_on_c, 3, 61, 81
8, 25608, Note_on_c, 3, 57, 81
8, 25610, Note_off_c, 3, 61, 64
8, 25610, Note_off_c, 3, 57, 64
8, 25610, Note_off_c, 3, 64, 64
8, 25632, Note_on_c, 3, 64, 81
8, 25632, Note_on_c, 3, 61, 81
8, 25632, Note_on_c, 3, 57, 81
8, 25634, Note_off_c, 3, 57, 64
8, 25634, Note_off_c, 3, 61, 64
8, 25634, Note_off_c, 3, 64, 64
8, 25656, Note_on_c, 3, 57, 81
8, 25656, Note_on_c, 3, 61, 81
8, 25656, Note_on_c, 3, 64, 81
8, 25658, Note_off_c, 3, 57, 64
8, 25658, Note_off_c, 3, 61, 64
8, 25658, Note_off_c, 3, 64, 64
8, 25680, Note_on_c, 3, 64, 81
8, 25680, Note_on_c, 3, 57, 81
8, 25680, Note_on_c, 3, 61, 81
8, 25682, Note_off_c, 3, 64, 64
8, 25682, Note_off_c, 3, 61, 64
8, 25682, Note_off_c, 3, 57, 64
8, 25704, Note_on_c, 3, 57, 81
8, 25704, Note_on_c, 3, 61, 81
8, 25704, Note_on_c, 3, 64, 81
8, 25706, Note_off_c, 3, 61, 64
8, 25706, Note_off_c, 3, 57, 64
8, 25706, Note_off_c, 3, 64, 64
8, 25728, Note_on_c, 3, 64, 81
8, 25728, Note_on_c, 3, 61, 81
8, 25728, Note_on_c, 3, 57, 81
8, 25730, Note_off_c, 3, 64, 64
8, 25730, Note_off_c, 3, 61, 64
8, 25730, Note_off_c, 3, 57, 64
8, 25752, Note_on_c, 3, 64, 81
8, 25752, Note_on_c, 3, 61, 81
8, 25752, Note_on_c, 3, 57, 81
8, 25754, Note_off_c, 3, 57, 64
8, 25754, Note_off_c, 3, 61, 64
8, 25754, Note_off_c, 3, 64, 64
8, 25776, Note_on_c, 3, 64, 81
8, 25776, Note_on_c, 3, 57, 81
8, 25776, Note_on_c, 3, 61, 81
8, 25778, Note_off_c, 3, 57, 64
8, 25778, Note_off_c, 3, 61, 64
8, 25778, Note_off_c, 3, 64, 64
8, 25800, Note_on_c, 3, 61, 81
8, 25800, Note_on_c, 3, 64, 81
8, 25800, Note_on_c, 3, 57, 81
8, 25802, Note_off_c, 3, 61, 64
8, 25802, Note_off_c, 3, 64, 64
8, 25802, Note_off_c, 3, 57, 64
8, 25824, Note_on_c, 3, 64, 81
8, 25824, Note_on_c, 3, 59, 81
8, 25826, Note_off_c, 3, 57, 64
8, 25826, Note_off_c, 3, 64, 64
8, 25826, Note_off_c, 3, 61, 64
8, 25848, Note_on_c, 3, 64, 81
8, 25848, Note_on_c, 3, 59, 81
8, 25850, Note_off_c, 3, 64, 64
8, 25850, Note_off_c, 3, 59, 64
8, 25872, Note_on_c, 3, 64, 81
8, 25872, Note_on_c, 3, 59, 81
8, 25874, Note_off_c, 3, 59, 64
8, 25874, Note_off_c, 3, 64, 64
8, 25896, Note_on_c, 3, 64, 81
8, 25896, Note_on_c, 3, 59, 81
8, 25898, Note_off_c, 3, 64, 64
8, 25898, Note_off_c, 3, 59, 64
8, 25920, Note_on_c, 3, 59, 81
8, 25920, Note_on_c, 3, 64, 81
8, 25922, Note_off_c, 3, 59, 64
8, 25922, Note_off_c, 3, 64, 64
8, 25944, Note_on_c, 3, 59, 81
8, 25944, Note_on_c, 3, 64, 81
8, 25946, Note_off_c, 3, 59, 64
8, 25946, Note_off_c, 3, 64, 64
8, 25968, Note_on_c, 3, 59, 81
8, 25968, Note_on_c, 3, 64, 81
8, 25970, Note_off_c, 3, 64, 64
8, 25970, Note_off_c, 3, 59, 64
8, 25992, Note_on_c, 3, 64, 81
8, 25992, Note_on_c, 3, 59, 81
8, 25994, Note_off_c, 3, 59, 64
8, 25994, Note_off_c, 3, 64, 64
8, 26016, Note_on_c, 3, 64, 81
8, 26016, Note_on_c, 3, 59, 81
8, 26018, Note_off_c, 3, 59, 64
8, 26018, Note_off_c, 3, 64, 64
8, 26040, Note_on_c, 3, 64, 81
8, 26040, Note_on_c, 3, 59, 81
8, 26042, Note_off_c, 3, 64, 64
8, 26042, Note_off_c, 3, 59, 64
8, 26064, Note_on_c, 3, 64, 81
8, 26064, Note_on_c, 3, 59, 81
8, 26066, Note_off_c, 3, 59, 64
8, 26066, Note_off_c, 3, 64, 64
8, 26088, Note_on_c, 3, 64, 81
8, 26088, Note_on_c, 3, 59, 81
8, 26090, Note_off_c, 3, 64, 64
8, 26090, Note_off_c, 3, 59, 64
8, 26112, Note_on_c, 3, 54, 81
8, 26112, Note_on_c, 3, 59, 81
8, 26112, Note_on_c, 3, 62, 81
8, 26114, Note_off_c, 3, 59, 64
8, 26114, Note_off_c, 3, 64, 64
8, 26136, Note_on_c, 3, 54, 81
8, 26136, Note_on_c, 3, 59, 81
8, 26136, Note_on_c, 3, 62, 81
8, 26138, Note_off_c, 3, 54, 64
8, 26138, Note_off_c, 3, 62, 64
8, 26138, Note_off_c, 3, 59, 64
8, 26160, Note_on_c, 3, 54, 81
8, 26160, Note_on_c, 3, 59, 81
8, 26160, Note_on_c, 3, 62, 81
8, 26162, Note_off_c, 3, 62, 64
8, 26162, Note_off_c, 3, 59, 64
8, 26162, Note_off_c, 3, 54, 64
8, 26184, Note_on_c, 3, 54, 81
8, 26184, Note_on_c, 3, 59, 81
8, 26184, Note_on_c, 3, 62, 81
8, 26186, Note_off_c, 3, 62, 64
8, 26186, Note_off_c, 3, 54, 64
8, 26186, Note_off_c, 3, 59, 64
8, 26208, Note_on_c, 3, 59, 81
8, 26208, Note_on_c, 3, 54, 81
8, 26208, Note_on_c, 3, 62, 81
8, 26210, Note_off_c, 3, 62, 64
8, 26210, Note_off_c, 3, 59, 64
8, 26210, Note_off_c, 3, 54, 64
8, 26232, Note_on_c, 3, 54, 81
8, 26232, Note_on_c, 3, 62, 81
8, 26232, Note_on_c, 3, 59, 81
8, 26234, Note_off_c, 3, 59, 64
8, 26234, Note_off_c, 3, 54, 64
8, 26234, Note_off_c, 3, 62, 64
8, 26256, Note_on_c, 3, 54, 81
8, 26256, Note_on_c, 3, 62, 81
8, 26256, Note_on_c, 3, 59, 81
8, 26258, Note_off_c, 3, 59, 64
8, 26258, Note_off_c, 3, 62, 64
8, 26258, Note_off_c, 3, 54, 64
8, 26280, Note_on_c, 3, 54, 81
8, 26280, Note_on_c, 3, 62, 81
8, 26280, Note_on_c, 3, 59, 81
8, 26282, Note_off_c, 3, 59, 64
8, 26282, Note_off_c, 3, 54, 64
8, 26282, Note_off_c, 3, 62, 64
8, 26304, Note_on_c, 3, 54, 81
8, 26304, Note_on_c, 3, 59, 81
8, 26304, Note_on_c, 3, 64, 81
8, 26306, Note_off_c, 3, 59, 64
8, 26306, Note_off_c, 3, 62, 64
8, 26306, Note_off_c, 3, 54, 64
8, 26328, Note_on_c, 3, 54, 81
8, 26328, Note_on_c, 3, 59, 81
8, 26328, Note_on_c, 3, 64, 81
8, 26330, Note_off_c, 3, 54, 64
8, 26330, Note_off_c, 3, 64, 64
8, 26330, Note_off_c, 3, 59, 64
8, 26352, Note_on_c, 3, 54, 81
8, 26352, Note_on_c, 3, 59, 81
8, 26352, Note_on_c, 3, 64, 81
8, 26354, Note_off_c, 3, 64, 64
8, 26354, Note_off_c, 3, 59, 64
8, 26354, Note_off_c, 3, 54, 64
8, 26376, Note_on_c, 3, 54, 81
8, 26376, Note_on_c, 3, 59, 81
8, 26376, Note_on_c, 3, 64, 81
8, 26378, Note_off_c, 3, 64, 64
8, 26378, Note_off_c, 3, 54, 64
8, 26378, Note_off_c, 3, 59, 64
8, 26400, Note_on_c, 3, 54, 81
8, 26400, Note_on_c, 3, 59, 81
8, 26400, Note_on_c, 3, 62, 81
8, 26402, Note_off_c, 3, 64, 64
8, 26402, Note_off_c, 3, 59, 64
8, 26402, Note_off_c, 3, 54, 64
8, 26424, Note_on_c, 3, 54, 81
8, 26424, Note_on_c, 3, 59, 81
8, 26424, Note_on_c, 3, 62, 81
8, 26426, Note_off_c, 3, 54, 64
8, 26426, Note_off_c, 3, 59, 64
8, 26426, Note_off_c, 3, 62, 64
8, 26448, Note_on_c, 3, 54, 81
8, 26448, Note_on_c, 3, 59, 81
8, 26448, Note_on_c, 3, 62, 81
8, 26450, Note_off_c, 3, 62, 64
8, 26450, Note_off_c, 3, 59, 64
8, 26450, Note_off_c, 3, 54, 64
8, 26472, Note_on_c, 3, 62, 81
8, 26472, Note_on_c, 3, 59, 81
8, 26472, Note_on_c, 3, 54, 81
8, 26474, Note_off_c, 3, 62, 64
8, 26474, Note_off_c, 3, 54, 64
8, 26474, Note_off_c, 3, 59, 64
8, 26496, Note_on_c, 3, 62, 81
8, 26496, Note_on_c, 3, 59, 81
8, 26496, Note_on_c, 3, 54, 81
8, 26498, Note_off_c, 3, 54, 64
8, 26498, Note_off_c, 3, 59, 64
8, 26498, Note_off_c, 3, 62, 64
8, 26520, Note_on_c, 3, 54, 81
8, 26520, Note_on_c, 3, 59, 81
8, 26520, Note_on_c, 3, 62, 81
8, 26522, Note_off_c, 3, 62, 64
8, 26522, Note_off_c, 3, 54, 64
8, 26522, Note_off_c, 3, 59, 64
8, 26544, Note_on_c, 3, 54, 81
8, 26544, Note_on_c, 3, 59, 81
8, 26544, Note_on_c, 3, 62, 81
8, 26546, Note_off_c, 3, 62, 64
8, 26546, Note_off_c, 3, 59, 64
8, 26546, Note_off_c, 3, 54, 64
8, 26568, Note_on_c, 3, 62, 81
8, 26568, Note_on_c, 3, 59, 81
8, 26568, Note_on_c, 3, 54, 81
8, 26570, Note_off_c, 3, 62, 64
8, 26570, Note_off_c, 3, 54, 64
8, 26570, Note_off_c, 3, 59, 64
8, 26592, Note_on_c, 3, 62, 81
8, 26592, Note_on_c, 3, 59, 81
8, 26592, Note_on_c, 3, 54, 81
8, 26594, Note_off_c, 3, 54, 64
8, 26594, Note_off_c, 3, 59, 64
8, 26594, Note_off_c, 3, 62, 64
8, 26616, Note_on_c, 3, 54, 81
8, 26616, Note_on_c, 3, 59, 81
8, 26616, Note_on_c, 3, 62, 81
8, 26618, Note_off_c, 3, 62, 64
8, 26618, Note_off_c, 3, 59, 64
8, 26618, Note_off_c, 3, 54, 64
8, 26640, Note_on_c, 3, 54, 81
8, 26640, Note_on_c, 3, 59, 81
8, 26640, Note_on_c, 3, 62, 81
8, 26642, Note_off_c, 3, 62, 64
8, 26642, Note_off_c, 3, 59, 64
8, 26642, Note_off_c, 3, 54, 64
8, 26664, Note_on_c, 3, 62, 81
8, 26664, Note_on_c, 3, 59, 81
8, 26664, Note_on_c, 3, 54, 81
8, 26666, Note_off_c, 3, 62, 64
8, 26666, Note_off_c, 3, 54, 64
8, 26666, Note_off_c, 3, 59, 64
8, 26688, Note_on_c, 3, 54, 81
8, 26688, Note_on_c, 3, 59, 81
8, 26688, Note_on_c, 3, 62, 81
8, 26690, Note_off_c, 3, 54, 64
8, 26690, Note_off_c, 3, 59, 64
8, 26690, Note_off_c, 3, 62, 64
8, 26712, Note_on_c, 3, 54, 81
8, 26712, Note_on_c, 3, 59, 81
8, 26712, Note_on_c, 3, 62, 81
8, 26714, Note_off_c, 3, 54, 64
8, 26714, Note_off_c, 3, 62, 64
8, 26714, Note_off_c, 3, 59, 64
8, 26736, Note_on_c, 3, 62, 81
8, 26736, Note_on_c, 3, 59, 81
8, 26736, Note_on_c, 3, 54, 81
8, 26738, Note_off_c, 3, 62, 64
8, 26738, Note_off_c, 3, 59, 64
8, 26738, Note_off_c, 3, 54, 64
8, 26760, Note_on_c, 3, 54, 81
8, 26760, Note_on_c, 3, 59, 81
8, 26760, Note_on_c, 3, 62, 81
8, 26762, Note_off_c, 3, 54, 64
8, 26762, Note_off_c, 3, 62, 64
8, 26762, Note_off_c, 3, 59, 64
8, 26784, Note_on_c, 3, 59, 81
8, 26784, Note_on_c, 3, 64, 81
8, 26786, Note_off_c, 3, 62, 64
8, 26786, Note_off_c, 3, 59, 64
8, 26786, Note_off_c, 3, 54, 64
8, 26808, Note_on_c, 3, 59, 81
8, 26808, Note_on_c, 3, 64, 81
8, 26810, Note_off_c, 3, 59, 64
8, 26810, Note_off_c, 3, 64, 64
8, 26832, Note_on_c, 3, 59, 81
8, 26832, Note_on_c, 3, 64, 81
8, 26834, Note_off_c, 3, 64, 64
8, 26834, Note_off_c, 3, 59, 64
8, 26856, Note_on_c, 3, 59, 81
8, 26856, Note_on_c, 3, 64, 81
8, 26858, Note_off_c, 3, 59, 64
8, 26858, Note_off_c, 3, 64, 64
8, 26880, Note_on_c, 3, 62, 81
8, 26880, Note_on_c, 3, 66, 81
8, 26882, Note_off_c, 3, 64, 64
8, 26882, Note_off_c, 3, 59, 64
8, 26906, Note_off_c, 3, 62, 64
8, 26906, Note_off_c, 3, 66, 64
8, 26928, Note_on_c, 3, 62, 81
8, 26928, Note_on_c, 3, 66, 81
8, 26952, Note_on_c, 3, 62, 81
8, 26952, Note_on_c, 3, 66, 81
8, 26954, Note_off_c, 3, 62, 64
8, 26954, Note_off_c, 3, 66, 64
8, 26978, Note_off_c, 3, 66, 64
8, 26978, Note_off_c, 3, 62, 64
8, 27000, Note_on_c, 3, 66, 81
8, 27000, Note_on_c, 3, 62, 81
8, 27024, Note_on_c, 3, 62, 81
8, 27024, Note_on_c, 3, 66, 81
8, 27026, Note_off_c, 3, 66, 64
8, 27026, Note_off_c, 3, 62, 64
8, 27050, Note_off_c, 3, 66, 64
8, 27050, Note_off_c, 3, 62, 64
8, 27072, Note_on_c, 3, 62, 81
8, 27072, Note_on_c, 3, 67, 81
8, 27098, Note_off_c, 3, 67, 64
8, 27098, Note_off_c, 3, 62, 64
8, 27120, Note_on_c, 3, 62, 81
8, 27120, Note_on_c, 3, 67, 81
8, 27144, Note_on_c, 3, 62, 81
8, 27144, Note_on_c, 3, 67, 81
8, 27146, Note_off_c, 3, 62, 64
8, 27146, Note_off_c, 3, 67, 64
8, 27170, Note_off_c, 3, 67, 64
8, 27170, Note_off_c, 3, 62, 64
8, 27192, Note_on_c, 3, 62, 81
8, 27192, Note_on_c, 3, 67, 81
8, 27216, Note_on_c, 3, 62, 81
8, 27216, Note_on_c, 3, 67, 81
8, 27218, Note_off_c, 3, 62, 64
8, 27218, Note_off_c, 3, 67, 64
8, 27242, Note_off_c, 3, 62, 64
8, 27242, Note_off_c, 3, 67, 64
8, 27264, Note_on_c, 3, 62, 81
8, 27264, Note_on_c, 3, 69, 81
8, 27264, Note_on_c, 3, 66, 81
8, 27290, Note_off_c, 3, 66, 64
8, 27290, Note_off_c, 3, 69, 64
8, 27290, Note_off_c, 3, 62, 64
8, 27312, Note_on_c, 3, 62, 81
8, 27312, Note_on_c, 3, 66, 81
8, 27312, Note_on_c, 3, 69, 81
8, 27336, Note_on_c, 3, 62, 81
8, 27336, Note_on_c, 3, 66, 81
8, 27336, Note_on_c, 3, 69, 81
8, 27338, Note_off_c, 3, 62, 64
8, 27338, Note_off_c, 3, 66, 64
8, 27338, Note_off_c, 3, 69, 64
8, 27362, Note_off_c, 3, 69, 64
8, 27362, Note_off_c, 3, 66, 64
8, 27362, Note_off_c, 3, 62, 64
8, 27384, Note_on_c, 3, 62, 81
8, 27384, Note_on_c, 3, 66, 81
8, 27384, Note_on_c, 3, 69, 81
8, 27408, Note_on_c, 3, 62, 81
8, 27408, Note_on_c, 3, 66, 81
8, 27408, Note_on_c, 3, 69, 81
8, 27410, Note_off_c, 3, 62, 64
8, 27410, Note_off_c, 3, 66, 64
8, 27410, Note_off_c, 3, 69, 64
8, 27434, Note_off_c, 3, 69, 64
8, 27434, Note_off_c, 3, 66, 64
8, 27434, Note_off_c, 3, 62, 64
8, 27456, Note_on_c, 3, 57, 81
8, 27456, Note_on_c, 3, 66, 81
8, 27456, Note_on_c, 3, 62, 81
8, 27482, Note_off_c, 3, 62, 64
8, 27482, Note_off_c, 3, 66, 64
8, 27482, Note_off_c, 3, 57, 64
8, 27504, Note_on_c, 3, 57, 81
8, 27504, Note_on_c, 3, 62, 81
8, 27504, Note_on_c, 3, 66, 81
8, 27528, Note_on_c, 3, 57, 81
8, 27528, Note_on_c, 3, 62, 81
8, 27528, Note_on_c, 3, 66, 81
8, 27530, Note_off_c, 3, 57, 64
8, 27530, Note_off_c, 3, 62, 64
8, 27530, Note_off_c, 3, 66, 64
8, 27554, Note_off_c, 3, 66, 64
8, 27554, Note_off_c, 3, 62, 64
8, 27554, Note_off_c, 3, 57, 64
8, 27576, Note_on_c, 3, 57, 81
8, 27576, Note_on_c, 3, 66, 81
8, 27576, Note_on_c, 3, 62, 81
8, 27600, Note_on_c, 3, 57, 81
8, 27600, Note_on_c, 3, 62, 81
8, 27600, Note_on_c, 3, 66, 81
8, 27602, Note_off_c, 3, 57, 64
8, 27602, Note_off_c, 3, 66, 64
8, 27602, Note_off_c, 3, 62, 64
8, 27626, Note_off_c, 3, 66, 64
8, 27626, Note_off_c, 3, 62, 64
8, 27626, Note_off_c, 3, 57, 64
8, 27648, Note_on_c, 3, 64, 81
8, 27648, Note_on_c, 3, 61, 81
8, 27648, Note_on_c, 3, 57, 81
8, 27672, Note_on_c, 3, 57, 81
8, 27672, Note_on_c, 3, 61, 81
8, 27672, Note_on_c, 3, 64, 81
8, 27674, Note_off_c, 3, 61, 64
8, 27674, Note_off_c, 3, 57, 64
8, 27674, Note_off_c, 3, 64, 64
8, 27696, Note_on_c, 3, 61, 81
8, 27696, Note_on_c, 3, 57, 81
8, 27696, Note_on_c, 3, 64, 81
8, 27698, Note_off_c, 3, 64, 64
8, 27698, Note_off_c, 3, 61, 64
8, 27698, Note_off_c, 3, 57, 64
8, 27720, Note_on_c, 3, 64, 81
8, 27720, Note_on_c, 3, 61, 81
8, 27720, Note_on_c, 3, 57, 81
8, 27722, Note_off_c, 3, 64, 64
8, 27722, Note_off_c, 3, 61, 64
8, 27722, Note_off_c, 3, 57, 64
8, 27744, Note_on_c, 3, 57, 81
8, 27744, Note_on_c, 3, 61, 81
8, 27744, Note_on_c, 3, 64, 81
8, 27746, Note_off_c, 3, 57, 64
8, 27746, Note_off_c, 3, 61, 64
8, 27746, Note_off_c, 3, 64, 64
8, 27768, Note_on_c, 3, 57, 81
8, 27768, Note_on_c, 3, 61, 81
8, 27768, Note_on_c, 3, 64, 81
8, 27770, Note_off_c, 3, 57, 64
8, 27770, Note_off_c, 3, 61, 64
8, 27770, Note_off_c, 3, 64, 64
8, 27792, Note_on_c, 3, 64, 81
8, 27792, Note_on_c, 3, 57, 81
8, 27792, Note_on_c, 3, 61, 81
8, 27794, Note_off_c, 3, 64, 64
8, 27794, Note_off_c, 3, 61, 64
8, 27794, Note_off_c, 3, 57, 64
8, 27816, Note_on_c, 3, 64, 81
8, 27816, Note_on_c, 3, 61, 81
8, 27816, Note_on_c, 3, 57, 81
8, 27818, Note_off_c, 3, 61, 64
8, 27818, Note_off_c, 3, 57, 64
8, 27818, Note_off_c, 3, 64, 64
8, 27840, Note_on_c, 3, 64, 81
8, 27840, Note_on_c, 3, 61, 81
8, 27840, Note_on_c, 3, 57, 81
8, 27842, Note_off_c, 3, 57, 64
8, 27842, Note_off_c, 3, 61, 64
8, 27842, Note_off_c, 3, 64, 64
8, 27864, Note_on_c, 3, 64, 81
8, 27864, Note_on_c, 3, 61, 81
8, 27864, Note_on_c, 3, 57, 81
8, 27866, Note_off_c, 3, 64, 64
8, 27866, Note_off_c, 3, 57, 64
8, 27866, Note_off_c, 3, 61, 64
8, 27888, Note_on_c, 3, 64, 81
8, 27888, Note_on_c, 3, 57, 81
8, 27888, Note_on_c, 3, 61, 81
8, 27890, Note_off_c, 3, 57, 64
8, 27890, Note_off_c, 3, 61, 64
8, 27890, Note_off_c, 3, 64, 64
8, 27912, Note_on_c, 3, 64, 81
8, 27912, Note_on_c, 3, 61, 81
8, 27912, Note_on_c, 3, 57, 81
8, 27914, Note_off_c, 3, 61, 64
8, 27914, Note_off_c, 3, 64, 64
8, 27914, Note_off_c, 3, 57, 64
8, 27936, Note_on_c, 3, 64, 81
8, 27936, Note_on_c, 3, 61, 81
8, 27936, Note_on_c, 3, 57, 81
8, 27938, Note_off_c, 3, 57, 64
8, 27938, Note_off_c, 3, 61, 64
8, 27938, Note_off_c, 3, 64, 64
8, 27960, Note_on_c, 3, 57, 81
8, 27960, Note_on_c, 3, 61, 81
8, 27960, Note_on_c, 3, 64, 81
8, 27962, Note_off_c, 3, 64, 64
8, 27962, Note_off_c, 3, 61, 64
8, 27962, Note_off_c, 3, 57, 64
8, 27984, Note_on_c, 3, 64, 81
8, 27984, Note_on_c, 3, 57, 81
8, 27984, Note_on_c, 3, 61, 81
8, 27986, Note_off_c, 3, 64, 64
8, 27986, Note_off_c, 3, 61, 64
8, 27986, Note_off_c, 3, 57, 64
8, 28008, Note_on_c, 3, 57, 81
8, 28008, Note_on_c, 3, 61, 81
8, 28008, Note_on_c, 3, 64, 81
8, 28010, Note_off_c, 3, 61, 64
8, 28010, Note_off_c, 3, 64, 64
8, 28010, Note_off_c, 3, 57, 64
8, 28032, Note_on_c, 3, 64, 81
8, 28032, Note_on_c, 3, 61, 81
8, 28032, Note_on_c, 3, 57, 81
8, 28034, Note_off_c, 3, 64, 64
8, 28034, Note_off_c, 3, 61, 64
8, 28034, Note_off_c, 3, 57, 64
8, 28056, Note_on_c, 3, 57, 81
8, 28056, Note_on_c, 3, 61, 81
8, 28056, Note_on_c, 3, 64, 81
8, 28058, Note_off_c, 3, 64, 64
8, 28058, Note_off_c, 3, 57, 64
8, 28058, Note_off_c, 3, 61, 64
8, 28080, Note_on_c, 3, 57, 81
8, 28080, Note_on_c, 3, 61, 81
8, 28080, Note_on_c, 3, 64, 81
8, 28082, Note_off_c, 3, 64, 64
8, 28082, Note_off_c, 3, 61, 64
8, 28082, Note_off_c, 3, 57, 64
8, 28104, Note_on_c, 3, 57, 81
8, 28104, Note_on_c, 3, 61, 81
8, 28104, Note_on_c, 3, 64, 81
8, 28106, Note_off_c, 3, 64, 64
8, 28106, Note_off_c, 3, 57, 64
8, 28106, Note_off_c, 3, 61, 64
8, 28128, Note_on_c, 3, 57, 81
8, 28128, Note_on_c, 3, 61, 81
8, 28128, Note_on_c, 3, 64, 81
8, 28130, Note_off_c, 3, 64, 64
8, 28130, Note_off_c, 3, 61, 64
8, 28130, Note_off_c, 3, 57, 64
8, 28152, Note_on_c, 3, 59, 81
8, 28152, Note_on_c, 3, 62, 81
8, 28154, Note_off_c, 3, 57, 64
8, 28154, Note_off_c, 3, 61, 64
8, 28154, Note_off_c, 3, 64, 64
8, 28176, Note_on_c, 3, 59, 81
8, 28176, Note_on_c, 3, 62, 81
8, 28178, Note_off_c, 3, 62, 64
8, 28178, Note_off_c, 3, 59, 64
8, 28200, Note_on_c, 3, 59, 81
8, 28200, Note_on_c, 3, 62, 81
8, 28202, Note_off_c, 3, 59, 64
8, 28202, Note_off_c, 3, 62, 64
8, 28224, Note_on_c, 3, 59, 81
8, 28224, Note_on_c, 3, 62, 81
8, 28226, Note_off_c, 3, 62, 64
8, 28226, Note_off_c, 3, 59, 64
8, 28248, Note_on_c, 3, 59, 81
8, 28248, Note_on_c, 3, 62, 81
8, 28250, Note_off_c, 3, 59, 64
8, 28250, Note_off_c, 3, 62, 64
8, 28272, Note_on_c, 3, 59, 81
8, 28272, Note_on_c, 3, 62, 81
8, 28274, Note_off_c, 3, 62, 64
8, 28274, Note_off_c, 3, 59, 64
8, 28296, Note_on_c, 3, 59, 81
8, 28296, Note_on_c, 3, 62, 81
8, 28298, Note_off_c, 3, 59, 64
8, 28298, Note_off_c, 3, 62, 64
8, 28320, Note_on_c, 3, 59, 81
8, 28320, Note_on_c, 3, 62, 81
8, 28322, Note_off_c, 3, 62, 64
8, 28322, Note_off_c, 3, 59, 64
8, 28344, Note_on_c, 3, 59, 81
8, 28344, Note_on_c, 3, 62, 81
8, 28346, Note_off_c, 3, 59, 64
8, 28346, Note_off_c, 3, 62, 64
8, 28368, Note_on_c, 3, 59, 81
8, 28368, Note_on_c, 3, 62, 81
8, 28370, Note_off_c, 3, 62, 64
8, 28370, Note_off_c, 3, 59, 64
8, 28392, Note_on_c, 3, 59, 81
8, 28392, Note_on_c, 3, 62, 81
8, 28394, Note_off_c, 3, 59, 64
8, 28394, Note_off_c, 3, 62, 64
8, 28416, Note_off_c, 3, 62, 64
8, 28416, Note_off_c, 3, 59, 64
8, 29171, Control_c, 3, 101, 0
8, 29171, Control_c, 3, 100, 0
8, 29171, Control_c, 3, 6, 12
8, 29171, Control_c, 3, 0, 0
8, 29171, Control_c, 3, 32, 4
8, 29171, Control_c, 3, 10, 64
8, 29171, Control_c, 3, 7, 56
8, 29171, Pitch_bend_c, 3, 8192
8, 29171, Program_c, 3, 38
8, 29171, Control_c, 3, 101, 0
8, 29171, Control_c, 3, 100, 0
8, 29171, Control_c, 3, 6, 12
8, 29171, Control_c, 3, 0, 0
8, 29171, Control_c, 3, 32, 4
8, 29171, Control_c, 3, 10, 64
8, 29171, Control_c, 3, 7, 56
8, 29171, Pitch_bend_c, 3, 8192
8, 29171, Program_c, 3, 38
8, 29171, Control_c, 3, 101, 0
8, 29171, Control_c, 3, 100, 0
8, 29171, Control_c, 3, 6, 12
8, 29171, Control_c, 3, 0, 0
8, 29171, Control_c, 3, 32, 4
8, 29171, Control_c, 3, 10, 64
8, 29171, Control_c, 3, 7, 56
8, 29171, Pitch_bend_c, 3, 8192
8, 29171, Program_c, 3, 38
8, 29171, End_track
9, 0, Start_track
9, 0, Title_t, "Piano"
9, 0, Control_c, 4, 10, 56
9, 0, Control_c, 4, 7, 116
9, 0, Pitch_bend_c, 4, 8192
9, 0, Control_c, 4, 101, 0
9, 0, Control_c, 4, 100, 0
9, 0, Control_c, 4, 6, 12
9, 0, Control_c, 4, 0, 0
9, 0, Control_c, 4, 32, 4
9, 0, Control_c, 4, 10, 56
9, 0, Control_c, 4, 7, 116
9, 0, Pitch_bend_c, 4, 8192
9, 0, Program_c, 4, 2
9, 0, Control_c, 4, 64, 114
9, 0, Control_c, 4, 91, 127
9, 0, Control_c, 4, 93, 16
9, 0, Control_c, 4, 101, 0
9, 0, Control_c, 4, 100, 0
9, 0, Control_c, 4, 6, 12
9, 0, Control_c, 4, 0, 0
9, 0, Control_c, 4, 32, 4
9, 0, Control_c, 4, 10, 56
9, 0, Control_c, 4, 7, 116
9, 0, Pitch_bend_c, 4, 8192
9, 0, Program_c, 4, 2
9, 0, Control_c, 4, 64, 114
9, 0, Control_c, 4, 91, 127
9, 0, Control_c, 4, 93, 16
9, 6912, Note_on_c, 4, 88, 81
9, 6960, Note_on_c, 4, 86, 81
9, 6962, Note_off_c, 4, 88, 64
9, 7008, Note_on_c, 4, 85, 81
9, 7010, Note_off_c, 4, 86, 64
9, 7056, Note_on_c, 4, 76, 81
9, 7058, Note_off_c, 4, 85, 64
9, 7104, Note_on_c, 4, 86, 81
9, 7106, Note_off_c, 4, 76, 64
9, 7152, Note_on_c, 4, 76, 81
9, 7154, Note_off_c, 4, 86, 64
9, 7200, Note_on_c, 4, 85, 81
9, 7202, Note_off_c, 4, 76, 64
9, 7248, Note_on_c, 4, 81, 81
9, 7250, Note_off_c, 4, 85, 64
9, 7296, Note_off_c, 4, 81, 64
9, 7296, Note_on_c, 4, 88, 81
9, 7344, Note_on_c, 4, 86, 81
9, 7346, Note_off_c, 4, 88, 64
9, 7392, Note_on_c, 4, 85, 81
9, 7394, Note_off_c, 4, 86, 64
9, 7440, Note_on_c, 4, 76, 81
9, 7442, Note_off_c, 4, 85, 64
9, 7488, Note_on_c, 4, 86, 81
9, 7490, Note_off_c, 4, 76, 64
9, 7536, Note_on_c, 4, 76, 81
9, 7538, Note_off_c, 4, 86, 64
9, 7584, Note_on_c, 4, 85, 81
9, 7586, Note_off_c, 4, 76, 64
9, 7632, Note_on_c, 4, 81, 81
9, 7634, Note_off_c, 4, 85, 64
9, 7680, Note_off_c, 4, 81, 64
9, 7680, Note_on_c, 4, 88, 81
9, 7728, Note_on_c, 4, 86, 81
9, 7730, Note_off_c, 4, 88, 64
9, 7776, Note_on_c, 4, 85, 81
9, 7778, Note_off_c, 4, 86, 64
9, 7824, Note_on_c, 4, 76, 81
9, 7826, Note_off_c, 4, 85, 64
9, 7872, Note_on_c, 4, 86, 81
9, 7874, Note_off_c, 4, 76, 64
9, 7920, Note_on_c, 4, 76, 81
9, 7922, Note_off_c, 4, 86, 64
9, 7968, Note_on_c, 4, 85, 81
9, 7970, Note_off_c, 4, 76, 64
9, 8016, Note_on_c, 4, 81, 81
9, 8018, Note_off_c, 4, 85, 64
9, 8064, Note_off_c, 4, 81, 64
9, 8064, Note_on_c, 4, 88, 81
9, 8112, Note_on_c, 4, 86, 81
9, 8114, Note_off_c, 4, 88, 64
9, 8160, Note_on_c, 4, 85, 81
9, 8162, Note_off_c, 4, 86, 64
9, 8208, Note_on_c, 4, 76, 81
9, 8210, Note_off_c, 4, 85, 64
9, 8256, Note_on_c, 4, 86, 81
9, 8258, Note_off_c, 4, 76, 64
9, 8304, Note_on_c, 4, 76, 81
9, 8306, Note_off_c, 4, 86, 64
9, 8352, Note_on_c, 4, 85, 81
9, 8354, Note_off_c, 4, 76, 64
9, 8400, Note_on_c, 4, 81, 81
9, 8402, Note_off_c, 4, 85, 64
9, 8448, Note_off_c, 4, 81, 64
9, 8448, Note_on_c, 4, 85, 81
9, 8496, Note_on_c, 4, 78, 81
9, 8498, Note_off_c, 4, 85, 64
9, 8544, Note_on_c, 4, 81, 81
9, 8546, Note_off_c, 4, 78, 64
9, 8592, Note_on_c, 4, 86, 81
9, 8594, Note_off_c, 4, 81, 64
9, 8640, Note_on_c, 4, 88, 81
9, 8642, Note_off_c, 4, 86, 64
9, 8688, Note_on_c, 4, 78, 81
9, 8690, Note_off_c, 4, 88, 64
9, 8736, Note_on_c, 4, 81, 81
9, 8738, Note_off_c, 4, 78, 64
9, 8784, Note_on_c, 4, 86, 81
9, 8786, Note_off_c, 4, 81, 64
9, 8832, Note_on_c, 4, 90, 81
9, 8834, Note_off_c, 4, 86, 64
9, 8880, Note_on_c, 4, 78, 81
9, 8882, Note_off_c, 4, 90, 64
9, 8928, Note_on_c, 4, 81, 81
9, 8930, Note_off_c, 4, 78, 64
9, 8976, Note_on_c, 4, 86, 81
9, 8978, Note_off_c, 4, 81, 64
9, 9024, Note_on_c, 4, 88, 81
9, 9026, Note_off_c, 4, 86, 64
9, 9072, Note_on_c, 4, 78, 81
9, 9074, Note_off_c, 4, 88, 64
9, 9120, Note_on_c, 4, 81, 81
9, 9122, Note_off_c, 4, 78, 64
9, 9168, Note_on_c, 4, 86, 81
9, 9170, Note_off_c, 4, 81, 64
9, 9216, Note_off_c, 4, 86, 64
9, 9216, Note_on_c, 4, 88, 81
9, 9264, Note_on_c, 4, 86, 81
9, 9266, Note_off_c, 4, 88, 64
9, 9312, Note_on_c, 4, 85, 81
9, 9314, Note_off_c, 4, 86, 64
9, 9360, Note_on_c, 4, 76, 81
9, 9362, Note_off_c, 4, 85, 64
9, 9408, Note_on_c, 4, 86, 81
9, 9410, Note_off_c, 4, 76, 64
9, 9456, Note_on_c, 4, 76, 81
9, 9458, Note_off_c, 4, 86, 64
9, 9504, Note_on_c, 4, 85, 81
9, 9506, Note_off_c, 4, 76, 64
9, 9552, Note_on_c, 4, 81, 81
9, 9554, Note_off_c, 4, 85, 64
9, 9600, Note_off_c, 4, 81, 64
9, 9600, Note_on_c, 4, 88, 81
9, 9648, Note_on_c, 4, 86, 81
9, 9650, Note_off_c, 4, 88, 64
9, 9696, Note_on_c, 4, 85, 81
9, 9698, Note_off_c, 4, 86, 64
9, 9744, Note_on_c, 4, 76, 81
9, 9746, Note_off_c, 4, 85, 64
9, 9792, Note_on_c, 4, 86, 81
9, 9794, Note_off_c, 4, 76, 64
9, 9840, Note_on_c, 4, 76, 81
9, 9842, Note_off_c, 4, 86, 64
9, 9888, Note_on_c, 4, 85, 81
9, 9890, Note_off_c, 4, 76, 64
9, 9936, Note_on_c, 4, 81, 81
9, 9938, Note_off_c, 4, 85, 64
9, 9984, Note_off_c, 4, 81, 64
9, 9984, Note_on_c, 4, 88, 81
9, 10032, Note_on_c, 4, 86, 81
9, 10034, Note_off_c, 4, 88, 64
9, 10080, Note_on_c, 4, 85, 81
9, 10082, Note_off_c, 4, 86, 64
9, 10128, Note_on_c, 4, 76, 81
9, 10130, Note_off_c, 4, 85, 64
9, 10176, Note_on_c, 4, 86, 81
9, 10178, Note_off_c, 4, 76, 64
9, 10224, Note_on_c, 4, 76, 81
9, 10226, Note_off_c, 4, 86, 64
9, 10272, Note_on_c, 4, 85, 81
9, 10274, Note_off_c, 4, 76, 64
9, 10320, Note_on_c, 4, 81, 81
9, 10322, Note_off_c, 4, 85, 64
9, 10368, Note_off_c, 4, 81, 64
9, 10368, Note_on_c, 4, 88, 81
9, 10416, Note_on_c, 4, 86, 81
9, 10418, Note_off_c, 4, 88, 64
9, 10464, Note_on_c, 4, 85, 81
9, 10466, Note_off_c, 4, 86, 64
9, 10512, Note_on_c, 4, 76, 81
9, 10514, Note_off_c, 4, 85, 64
9, 10560, Note_on_c, 4, 86, 81
9, 10562, Note_off_c, 4, 76, 64
9, 10608, Note_on_c, 4, 76, 81
9, 10610, Note_off_c, 4, 86, 64
9, 10656, Note_on_c, 4, 85, 81
9, 10658, Note_off_c, 4, 76, 64
9, 10704, Note_on_c, 4, 81, 81
9, 10706, Note_off_c, 4, 85, 64
9, 10752, Note_off_c, 4, 81, 64
9, 10752, Note_on_c, 4, 88, 81
9, 10800, Note_on_c, 4, 86, 81
9, 10802, Note_off_c, 4, 88, 64
9, 10848, Note_on_c, 4, 85, 81
9, 10850, Note_off_c, 4, 86, 64
9, 10896, Note_on_c, 4, 76, 81
9, 10898, Note_off_c, 4, 85, 64
9, 10944, Note_on_c, 4, 86, 81
9, 10946, Note_off_c, 4, 76, 64
9, 10992, Note_on_c, 4, 76, 81
9, 10994, Note_off_c, 4, 86, 64
9, 11040, Note_on_c, 4, 85, 81
9, 11042, Note_off_c, 4, 76, 64
9, 11088, Note_on_c, 4, 81, 81
9, 11090, Note_off_c, 4, 85, 64
9, 11136, Note_off_c, 4, 81, 64
9, 11136, Note_on_c, 4, 88, 81
9, 11184, Note_on_c, 4, 86, 81
9, 11186, Note_off_c, 4, 88, 64
9, 11232, Note_on_c, 4, 85, 81
9, 11234, Note_off_c, 4, 86, 64
9, 11280, Note_on_c, 4, 76, 81
9, 11282, Note_off_c, 4, 85, 64
9, 11328, Note_on_c, 4, 86, 81
9, 11330, Note_off_c, 4, 76, 64
9, 11376, Note_on_c, 4, 76, 81
9, 11378, Note_off_c, 4, 86, 64
9, 11424, Note_on_c, 4, 85, 81
9, 11426, Note_off_c, 4, 76, 64
9, 11472, Note_on_c, 4, 81, 81
9, 11474, Note_off_c, 4, 85, 64
9, 11520, Note_off_c, 4, 81, 64
9, 11520, Note_on_c, 4, 85, 81
9, 11568, Note_on_c, 4, 78, 81
9, 11570, Note_off_c, 4, 85, 64
9, 11616, Note_on_c, 4, 81, 81
9, 11618, Note_off_c, 4, 78, 64
9, 11664, Note_on_c, 4, 86, 81
9, 11666, Note_off_c, 4, 81, 64
9, 11712, Note_on_c, 4, 88, 81
9, 11714, Note_off_c, 4, 86, 64
9, 11760, Note_on_c, 4, 78, 81
9, 11762, Note_off_c, 4, 88, 64
9, 11808, Note_on_c, 4, 81, 81
9, 11810, Note_off_c, 4, 78, 64
9, 11856, Note_on_c, 4, 86, 81
9, 11858, Note_off_c, 4, 81, 64
9, 11904, Note_on_c, 4, 90, 81
9, 11906, Note_off_c, 4, 86, 64
9, 11952, Note_on_c, 4, 78, 81
9, 11954, Note_off_c, 4, 90, 64
9, 12000, Note_on_c, 4, 81, 81
9, 12002, Note_off_c, 4, 78, 64
9, 12048, Note_on_c, 4, 86, 81
9, 12050, Note_off_c, 4, 81, 64
9, 12096, Note_on_c, 4, 88, 81
9, 12098, Note_off_c, 4, 86, 64
9, 12144, Note_on_c, 4, 78, 81
9, 12146, Note_off_c, 4, 88, 64
9, 12192, Note_on_c, 4, 81, 81
9, 12194, Note_off_c, 4, 78, 64
9, 12240, Note_on_c, 4, 86, 81
9, 12242, Note_off_c, 4, 81, 64
9, 12288, Note_off_c, 4, 86, 64
9, 12288, Note_on_c, 4, 88, 81
9, 12336, Note_on_c, 4, 86, 81
9, 12338, Note_off_c, 4, 88, 64
9, 12384, Note_on_c, 4, 85, 81
9, 12386, Note_off_c, 4, 86, 64
9, 12432, Note_on_c, 4, 76, 81
9, 12434, Note_off_c, 4, 85, 64
9, 12480, Note_on_c, 4, 86, 81
9, 12482, Note_off_c, 4, 76, 64
9, 12528, Note_on_c, 4, 76, 81
9, 12530, Note_off_c, 4, 86, 64
9, 12576, Note_on_c, 4, 85, 81
9, 12578, Note_off_c, 4, 76, 64
9, 12624, Note_on_c, 4, 81, 81
9, 12626, Note_off_c, 4, 85, 64
9, 12672, Note_off_c, 4, 81, 64
9, 12672, Note_on_c, 4, 88, 81
9, 12720, Note_on_c, 4, 86, 81
9, 12722, Note_off_c, 4, 88, 64
9, 12768, Note_on_c, 4, 85, 81
9, 12770, Note_off_c, 4, 86, 64
9, 12816, Note_on_c, 4, 76, 81
9, 12818, Note_off_c, 4, 85, 64
9, 12864, Note_on_c, 4, 86, 81
9, 12866, Note_off_c, 4, 76, 64
9, 12912, Note_on_c, 4, 76, 81
9, 12914, Note_off_c, 4, 86, 64
9, 12960, Note_on_c, 4, 85, 81
9, 12962, Note_off_c, 4, 76, 64
9, 13008, Note_on_c, 4, 81, 81
9, 13010, Note_off_c, 4, 85, 64
9, 13056, Note_off_c, 4, 81, 64
9, 19200, Note_on_c, 4, 88, 81
9, 19248, Note_on_c, 4, 86, 81
9, 19250, Note_off_c, 4, 88, 64
9, 19296, Note_on_c, 4, 85, 81
9, 19298, Note_off_c, 4, 86, 64
9, 19344, Note_on_c, 4, 76, 81
9, 19346, Note_off_c, 4, 85, 64
9, 19392, Note_on_c, 4, 86, 81
9, 19394, Note_off_c, 4, 76, 64
9, 19440, Note_on_c, 4, 76, 81
9, 19442, Note_off_c, 4, 86, 64
9, 19488, Note_on_c, 4, 85, 81
9, 19490, Note_off_c, 4, 76, 64
9, 19536, Note_on_c, 4, 81, 81
9, 19538, Note_off_c, 4, 85, 64
9, 19584, Note_off_c, 4, 81, 64
9, 19584, Note_on_c, 4, 88, 81
9, 19632, Note_on_c, 4, 86, 81
9, 19634, Note_off_c, 4, 88, 64
9, 19680, Note_on_c, 4, 85, 81
9, 19682, Note_off_c, 4, 86, 64
9, 19728, Note_on_c, 4, 76, 81
9, 19730, Note_off_c, 4, 85, 64
9, 19776, Note_on_c, 4, 86, 81
9, 19778, Note_off_c, 4, 76, 64
9, 19824, Note_on_c, 4, 76, 81
9, 19826, Note_off_c, 4, 86, 64
9, 19872, Note_on_c, 4, 85, 81
9, 19874, Note_off_c, 4, 76, 64
9, 19920, Note_on_c, 4, 81, 81
9, 19922, Note_off_c, 4, 85, 64
9, 19968, Note_off_c, 4, 81, 64
9, 19968, Note_on_c, 4, 88, 81
9, 20016, Note_on_c, 4, 86, 81
9, 20018, Note_off_c, 4, 88, 64
9, 20064, Note_on_c, 4, 85, 81
9, 20066, Note_off_c, 4, 86, 64
9, 20112, Note_on_c, 4, 76, 81
9, 20114, Note_off_c, 4, 85, 64
9, 20160, Note_on_c, 4, 86, 81
9, 20162, Note_off_c, 4, 76, 64
9, 20208, Note_on_c, 4, 76, 81
9, 20210, Note_off_c, 4, 86, 64
9, 20256, Note_on_c, 4, 85, 81
9, 20258, Note_off_c, 4, 76, 64
9, 20304, Note_on_c, 4, 81, 81
9, 20306, Note_off_c, 4, 85, 64
9, 20352, Note_off_c, 4, 81, 64
9, 20352, Note_on_c, 4, 88, 81
9, 20400, Note_on_c, 4, 86, 81
9, 20402, Note_off_c, 4, 88, 64
9, 20448, Note_on_c, 4, 85, 81
9, 20450, Note_off_c, 4, 86, 64
9, 20496, Note_on_c, 4, 76, 81
9, 20498, Note_off_c, 4, 85, 64
9, 20544, Note_on_c, 4, 86, 81
9, 20546, Note_off_c, 4, 76, 64
9, 20592, Note_on_c, 4, 76, 81
9, 20594, Note_off_c, 4, 86, 64
9, 20640, Note_on_c, 4, 85, 81
9, 20642, Note_off_c, 4, 76, 64
9, 20688, Note_on_c, 4, 81, 81
9, 20690, Note_off_c, 4, 85, 64
9, 20736, Note_off_c, 4, 81, 64
9, 20736, Note_on_c, 4, 85, 81
9, 20784, Note_on_c, 4, 78, 81
9, 20786, Note_off_c, 4, 85, 64
9, 20832, Note_on_c, 4, 81, 81
9, 20834, Note_off_c, 4, 78, 64
9, 20880, Note_on_c, 4, 86, 81
9, 20882, Note_off_c, 4, 81, 64
9, 20928, Note_on_c, 4, 88, 81
9, 20930, Note_off_c, 4, 86, 64
9, 20976, Note_on_c, 4, 78, 81
9, 20978, Note_off_c, 4, 88, 64
9, 21024, Note_on_c, 4, 81, 81
9, 21026, Note_off_c, 4, 78, 64
9, 21072, Note_on_c, 4, 86, 81
9, 21074, Note_off_c, 4, 81, 64
9, 21120, Note_on_c, 4, 90, 81
9, 21122, Note_off_c, 4, 86, 64
9, 21168, Note_on_c, 4, 78, 81
9, 21170, Note_off_c, 4, 90, 64
9, 21216, Note_on_c, 4, 81, 81
9, 21218, Note_off_c, 4, 78, 64
9, 21264, Note_on_c, 4, 86, 81
9, 21266, Note_off_c, 4, 81, 64
9, 21312, Note_on_c, 4, 88, 81
9, 21314, Note_off_c, 4, 86, 64
9, 21360, Note_on_c, 4, 78, 81
9, 21362, Note_off_c, 4, 88, 64
9, 21408, Note_on_c, 4, 81, 81
9, 21410, Note_off_c, 4, 78, 64
9, 21456, Note_on_c, 4, 86, 81
9, 21458, Note_off_c, 4, 81, 64
9, 21504, Note_off_c, 4, 86, 64
9, 21504, Note_on_c, 4, 88, 81
9, 21552, Note_on_c, 4, 86, 81
9, 21554, Note_off_c, 4, 88, 64
9, 21600, Note_on_c, 4, 85, 81
9, 21602, Note_off_c, 4, 86, 64
9, 21648, Note_on_c, 4, 76, 81
9, 21650, Note_off_c, 4, 85, 64
9, 21696, Note_on_c, 4, 86, 81
9, 21698, Note_off_c, 4, 76, 64
9, 21744, Note_on_c, 4, 76, 81
9, 21746, Note_off_c, 4, 86, 64
9, 21792, Note_on_c, 4, 85, 81
9, 21794, Note_off_c, 4, 76, 64
9, 21840, Note_on_c, 4, 81, 81
9, 21842, Note_off_c, 4, 85, 64
9, 21888, Note_off_c, 4, 81, 64
9, 21888, Note_on_c, 4, 88, 81
9, 21936, Note_on_c, 4, 86, 81
9, 21938, Note_off_c, 4, 88, 64
9, 21984, Note_on_c, 4, 85, 81
9, 21986, Note_off_c, 4, 86, 64
9, 22032, Note_on_c, 4, 76, 81
9, 22034, Note_off_c, 4, 85, 64
9, 22080, Note_on_c, 4, 86, 81
9, 22082, Note_off_c, 4, 76, 64
9, 22128, Note_on_c, 4, 76, 81
9, 22130, Note_off_c, 4, 86, 64
9, 22176, Note_on_c, 4, 85, 81
9, 22178, Note_off_c, 4, 76, 64
9, 22224, Note_on_c, 4, 81, 81
9, 22226, Note_off_c, 4, 85, 64
9, 22272, Note_off_c, 4, 81, 64
9, 22272, Note_on_c, 4, 88, 81
9, 22320, Note_on_c, 4, 86, 81
9, 22322, Note_off_c, 4, 88, 64
9, 22368, Note_on_c, 4, 85, 81
9, 22370, Note_off_c, 4, 86, 64
9, 22416, Note_on_c, 4, 76, 81
9, 22418, Note_off_c, 4, 85, 64
9, 22464, Note_on_c, 4, 86, 81
9, 22466, Note_off_c, 4, 76, 64
9, 22512, Note_on_c, 4, 76, 81
9, 22514, Note_off_c, 4, 86, 64
9, 22560, Note_on_c, 4, 85, 81
9, 22562, Note_off_c, 4, 76, 64
9, 22608, Note_on_c, 4, 81, 81
9, 22610, Note_off_c, 4, 85, 64
9, 22656, Note_on_c, 4, 88, 81
9, 22658, Note_off_c, 4, 81, 64
9, 22704, Note_on_c, 4, 86, 81
9, 22706, Note_off_c, 4, 88, 64
9, 22752, Note_on_c, 4, 85, 81
9, 22754, Note_off_c, 4, 86, 64
9, 22800, Note_on_c, 4, 76, 81
9, 22802, Note_off_c, 4, 85, 64
9, 22848, Note_on_c, 4, 86, 81
9, 22850, Note_off_c, 4, 76, 64
9, 22896, Note_on_c, 4, 76, 81
9, 22898, Note_off_c, 4, 86, 64
9, 22944, Note_on_c, 4, 85, 81
9, 22946, Note_off_c, 4, 76, 64
9, 22992, Note_on_c, 4, 81, 81
9, 22994, Note_off_c, 4, 85, 64
9, 23040, Note_on_c, 4, 90, 81
9, 23042, Note_off_c, 4, 81, 64
9, 23088, Note_on_c, 4, 78, 81
9, 23090, Note_off_c, 4, 90, 64
9, 23136, Note_on_c, 4, 81, 81
9, 23138, Note_off_c, 4, 78, 64
9, 23184, Note_on_c, 4, 85, 81
9, 23186, Note_off_c, 4, 81, 64
9, 23232, Note_on_c, 4, 86, 81
9, 23234, Note_off_c, 4, 85, 64
9, 23280, Note_on_c, 4, 78, 81
9, 23282, Note_off_c, 4, 86, 64
9, 23328, Note_on_c, 4, 81, 81
9, 23330, Note_off_c, 4, 78, 64
9, 23376, Note_on_c, 4, 85, 81
9, 23378, Note_off_c, 4, 81, 64
9, 23424, Note_on_c, 4, 86, 81
9, 23426, Note_off_c, 4, 85, 64
9, 23472, Note_on_c, 4, 88, 81
9, 23474, Note_off_c, 4, 86, 64
9, 23520, Note_on_c, 4, 86, 81
9, 23522, Note_off_c, 4, 88, 64
9, 23568, Note_on_c, 4, 85, 81
9, 23570, Note_off_c, 4, 86, 64
9, 23616, Note_on_c, 4, 78, 81
9, 23618, Note_off_c, 4, 85, 64
9, 23664, Note_on_c, 4, 81, 81
9, 23666, Note_off_c, 4, 78, 64
9, 23712, Note_on_c, 4, 85, 81
9, 23714, Note_off_c, 4, 81, 64
9, 23760, Note_on_c, 4, 86, 81
9, 23762, Note_off_c, 4, 85, 64
9, 23808, Note_on_c, 4, 86, 81
9, 23810, Note_off_c, 4, 86, 64
9, 23856, Note_on_c, 4, 78, 81
9, 23858, Note_off_c, 4, 86, 64
9, 23904, Note_on_c, 4, 83, 81
9, 23906, Note_off_c, 4, 78, 64
9, 23952, Note_on_c, 4, 86, 81
9, 23954, Note_off_c, 4, 83, 64
9, 24000, Note_on_c, 4, 90, 81
9, 24002, Note_off_c, 4, 86, 64
9, 24048, Note_on_c, 4, 86, 81
9, 24050, Note_off_c, 4, 90, 64
9, 24096, Note_on_c, 4, 83, 81
9, 24098, Note_off_c, 4, 86, 64
9, 24144, Note_on_c, 4, 78, 81
9, 24146, Note_off_c, 4, 83, 64
9, 24192, Note_on_c, 4, 90, 81
9, 24194, Note_off_c, 4, 78, 64
9, 24240, Note_on_c, 4, 86, 81
9, 24242, Note_off_c, 4, 90, 64
9, 24288, Note_on_c, 4, 90, 81
9, 24290, Note_off_c, 4, 86, 64
9, 24336, Note_on_c, 4, 94, 81
9, 24338, Note_off_c, 4, 90, 64
9, 24384, Note_on_c, 4, 90, 81
9, 24386, Note_off_c, 4, 94, 64
9, 24432, Note_on_c, 4, 86, 81
9, 24434, Note_off_c, 4, 90, 64
9, 24480, Note_on_c, 4, 78, 81
9, 24482, Note_off_c, 4, 86, 64
9, 24528, Note_on_c, 4, 83, 81
9, 24530, Note_off_c, 4, 78, 64
9, 24576, Note_on_c, 4, 81, 81
9, 24578, Note_off_c, 4, 83, 64
9, 24624, Note_on_c, 4, 78, 81
9, 24626, Note_off_c, 4, 81, 64
9, 24672, Note_on_c, 4, 81, 81
9, 24674, Note_off_c, 4, 78, 64
9, 24720, Note_on_c, 4, 92, 81
9, 24722, Note_off_c, 4, 81, 64
9, 24768, Note_on_c, 4, 90, 81
9, 24770, Note_off_c, 4, 92, 64
9, 24816, Note_on_c, 4, 81, 81
9, 24818, Note_off_c, 4, 90, 64
9, 24864, Note_on_c, 4, 86, 81
9, 24866, Note_off_c, 4, 81, 64
9, 24912, Note_on_c, 4, 90, 81
9, 24914, Note_off_c, 4, 86, 64
9, 24960, Note_on_c, 4, 92, 81
9, 24962, Note_off_c, 4, 90, 64
9, 25008, Note_on_c, 4, 88, 81
9, 25010, Note_off_c, 4, 92, 64
9, 25056, Note_on_c, 4, 92, 81
9, 25058, Note_off_c, 4, 88, 64
9, 25104, Note_on_c, 4, 88, 81
9, 25106, Note_off_c, 4, 92, 64
9, 25152, Note_on_c, 4, 92, 81
9, 25154, Note_off_c, 4, 88, 64
9, 25200, Note_on_c, 4, 80, 81
9, 25202, Note_off_c, 4, 92, 64
9, 25248, Note_on_c, 4, 88, 81
9, 25250, Note_off_c, 4, 80, 64
9, 25296, Note_on_c, 4, 92, 81
9, 25298, Note_off_c, 4, 88, 64
9, 25344, Note_off_c, 4, 92, 64
9, 25344, Note_on_c, 4, 88, 81
9, 25392, Note_on_c, 4, 86, 81
9, 25394, Note_off_c, 4, 88, 64
9, 25440, Note_on_c, 4, 85, 81
9, 25442, Note_off_c, 4, 86, 64
9, 25488, Note_on_c, 4, 76, 81
9, 25490, Note_off_c, 4, 85, 64
9, 25536, Note_on_c, 4, 86, 81
9, 25538, Note_off_c, 4, 76, 64
9, 25584, Note_on_c, 4, 76, 81
9, 25586, Note_off_c, 4, 86, 64
9, 25632, Note_on_c, 4, 85, 81
9, 25634, Note_off_c, 4, 76, 64
9, 25680, Note_on_c, 4, 81, 81
9, 25682, Note_off_c, 4, 85, 64
9, 25728, Note_off_c, 4, 81, 64
9, 25728, Note_on_c, 4, 88, 81
9, 25776, Note_on_c, 4, 86, 81
9, 25778, Note_off_c, 4, 88, 64
9, 25824, Note_on_c, 4, 85, 81
9, 25826, Note_off_c, 4, 86, 64
9, 25872, Note_on_c, 4, 76, 81
9, 25874, Note_off_c, 4, 85, 64
9, 25920, Note_on_c, 4, 86, 81
9, 25922, Note_off_c, 4, 76, 64
9, 25968, Note_on_c, 4, 76, 81
9, 25970, Note_off_c, 4, 86, 64
9, 26016, Note_on_c, 4, 85, 81
9, 26018, Note_off_c, 4, 76, 64
9, 26064, Note_on_c, 4, 81, 81
9, 26066, Note_off_c, 4, 85, 64
9, 26112, Note_off_c, 4, 81, 64
9, 26112, Note_on_c, 4, 88, 81
9, 26160, Note_on_c, 4, 86, 81
9, 26162, Note_off_c, 4, 88, 64
9, 26208, Note_on_c, 4, 85, 81
9, 26210, Note_off_c, 4, 86, 64
9, 26256, Note_on_c, 4, 76, 81
9, 26258, Note_off_c, 4, 85, 64
9, 26304, Note_on_c, 4, 86, 81
9, 26306, Note_off_c, 4, 76, 64
9, 26352, Note_on_c, 4, 76, 81
9, 26354, Note_off_c, 4, 86, 64
9, 26400, Note_on_c, 4, 85, 81
9, 26402, Note_off_c, 4, 76, 64
9, 26448, Note_on_c, 4, 81, 81
9, 26450, Note_off_c, 4, 85, 64
9, 26496, Note_off_c, 4, 81, 64
9, 26496, Note_on_c, 4, 88, 81
9, 26544, Note_on_c, 4, 86, 81
9, 26546, Note_off_c, 4, 88, 64
9, 26592, Note_on_c, 4, 85, 81
9, 26594, Note_off_c, 4, 86, 64
9, 26640, Note_on_c, 4, 76, 81
9, 26642, Note_off_c, 4, 85, 64
9, 26688, Note_on_c, 4, 86, 81
9, 26690, Note_off_c, 4, 76, 64
9, 26736, Note_on_c, 4, 76, 81
9, 26738, Note_off_c, 4, 86, 64
9, 26784, Note_on_c, 4, 85, 81
9, 26786, Note_off_c, 4, 76, 64
9, 26832, Note_on_c, 4, 81, 81
9, 26834, Note_off_c, 4, 85, 64
9, 26880, Note_off_c, 4, 81, 64
9, 26880, Note_on_c, 4, 85, 81
9, 26928, Note_on_c, 4, 78, 81
9, 26930, Note_off_c, 4, 85, 64
9, 26976, Note_on_c, 4, 81, 81
9, 26978, Note_off_c, 4, 78, 64
9, 27024, Note_on_c, 4, 86, 81
9, 27026, Note_off_c, 4, 81, 64
9, 27072, Note_on_c, 4, 88, 81
9, 27074, Note_off_c, 4, 86, 64
9, 27120, Note_on_c, 4, 78, 81
9, 27122, Note_off_c, 4, 88, 64
9, 27168, Note_on_c, 4, 81, 81
9, 27170, Note_off_c, 4, 78, 64
9, 27216, Note_on_c, 4, 86, 81
9, 27218, Note_off_c, 4, 81, 64
9, 27264, Note_on_c, 4, 90, 81
9, 27266, Note_off_c, 4, 86, 64
9, 27312, Note_on_c, 4, 78, 81
9, 27314, Note_off_c, 4, 90, 64
9, 27360, Note_on_c, 4, 81, 81
9, 27362, Note_off_c, 4, 78, 64
9, 27408, Note_on_c, 4, 86, 81
9, 27410, Note_off_c, 4, 81, 64
9, 27456, Note_on_c, 4, 88, 81
9, 27458, Note_off_c, 4, 86, 64
9, 27504, Note_on_c, 4, 78, 81
9, 27506, Note_off_c, 4, 88, 64
9, 27552, Note_on_c, 4, 81, 81
9, 27554, Note_off_c, 4, 78, 64
9, 27600, Note_on_c, 4, 86, 81
9, 27602, Note_off_c, 4, 81, 64
9, 27648, Note_off_c, 4, 86, 64
9, 27648, Note_on_c, 4, 88, 81
9, 27696, Note_on_c, 4, 86, 81
9, 27698, Note_off_c, 4, 88, 64
9, 27744, Note_on_c, 4, 85, 81
9, 27746, Note_off_c, 4, 86, 64
9, 27792, Note_on_c, 4, 76, 81
9, 27794, Note_off_c, 4, 85, 64
9, 27840, Note_on_c, 4, 86, 81
9, 27842, Note_off_c, 4, 76, 64
9, 27888, Note_on_c, 4, 76, 81
9, 27890, Note_off_c, 4, 86, 64
9, 27936, Note_on_c, 4, 85, 81
9, 27938, Note_off_c, 4, 76, 64
9, 27984, Note_on_c, 4, 81, 81
9, 27986, Note_off_c, 4, 85, 64
9, 28032, Note_off_c, 4, 81, 64
9, 28032, Note_on_c, 4, 88, 81
9, 28080, Note_on_c, 4, 86, 81
9, 28082, Note_off_c, 4, 88, 64
9, 28128, Note_on_c, 4, 85, 81
9, 28130, Note_off_c, 4, 86, 64
9, 28176, Note_on_c, 4, 76, 81
9, 28178, Note_off_c, 4, 85, 64
9, 28224, Note_on_c, 4, 86, 81
9, 28226, Note_off_c, 4, 76, 64
9, 28272, Note_on_c, 4, 76, 81
9, 28274, Note_off_c, 4, 86, 64
9, 28320, Note_on_c, 4, 85, 81
9, 28322, Note_off_c, 4, 76, 64
9, 28368, Note_on_c, 4, 81, 81
9, 28370, Note_off_c, 4, 85, 64
9, 28416, Note_off_c, 4, 81, 64
9, 29171, Control_c, 4, 101, 0
9, 29171, Control_c, 4, 100, 0
9, 29171, Control_c, 4, 6, 12
9, 29171, Control_c, 4, 0, 0
9, 29171, Control_c, 4, 32, 4
9, 29171, Control_c, 4, 10, 56
9, 29171, Control_c, 4, 7, 116
9, 29171, Pitch_bend_c, 4, 8192
9, 29171, Program_c, 4, 2
9, 29171, Control_c, 4, 64, 114
9, 29171, Control_c, 4, 91, 127
9, 29171, Control_c, 4, 93, 16
9, 29171, Control_c, 4, 101, 0
9, 29171, Control_c, 4, 100, 0
9, 29171, Control_c, 4, 6, 12
9, 29171, Control_c, 4, 0, 0
9, 29171, Control_c, 4, 32, 4
9, 29171, Control_c, 4, 10, 56
9, 29171, Control_c, 4, 7, 116
9, 29171, Pitch_bend_c, 4, 8192
9, 29171, Program_c, 4, 2
9, 29171, Control_c, 4, 64, 114
9, 29171, Control_c, 4, 91, 127
9, 29171, Control_c, 4, 93, 16
9, 29171, Control_c, 4, 101, 0
9, 29171, Control_c, 4, 100, 0
9, 29171, Control_c, 4, 6, 12
9, 29171, Control_c, 4, 0, 0
9, 29171, Control_c, 4, 32, 4
9, 29171, Control_c, 4, 10, 56
9, 29171, Control_c, 4, 7, 116
9, 29171, Pitch_bend_c, 4, 8192
9, 29171, Program_c, 4, 2
9, 29171, Control_c, 4, 64, 114
9, 29171, Control_c, 4, 91, 127
9, 29171, Control_c, 4, 93, 16
9, 29171, End_track
10, 0, Start_track
10, 0, Title_t, "String"
10, 0, Control_c, 5, 10, 79
10, 0, Control_c, 5, 7, 84
10, 0, Pitch_bend_c, 5, 8192
10, 0, Control_c, 5, 101, 0
10, 0, Control_c, 5, 100, 0
10, 0, Control_c, 5, 6, 12
10, 0, Control_c, 5, 0, 0
10, 0, Control_c, 5, 32, 4
10, 0, Control_c, 5, 10, 79
10, 0, Control_c, 5, 7, 84
10, 0, Pitch_bend_c, 5, 8192
10, 0, Program_c, 5, 49
10, 0, Control_c, 5, 64, 0
10, 0, Control_c, 5, 91, 127
10, 0, Control_c, 5, 93, 89
10, 0, Control_c, 5, 101, 0
10, 0, Control_c, 5, 100, 0
10, 0, Control_c, 5, 6, 12
10, 0, Control_c, 5, 0, 0
10, 0, Control_c, 5, 32, 4
10, 0, Control_c, 5, 10, 79
10, 0, Control_c, 5, 7, 84
10, 0, Pitch_bend_c, 5, 8192
10, 0, Program_c, 5, 49
10, 0, Control_c, 5, 64, 0
10, 0, Control_c, 5, 91, 127
10, 0, Control_c, 5, 93, 89
10, 9984, Note_on_c, 5, 85, 81
10, 9984, Note_on_c, 5, 73, 81
10, 10560, Note_on_c, 5, 86, 81
10, 10560, Note_on_c, 5, 74, 81
10, 10562, Note_off_c, 5, 73, 64
10, 10562, Note_off_c, 5, 85, 64
10, 10944, Note_on_c, 5, 88, 81
10, 10944, Note_on_c, 5, 76, 81
10, 10946, Note_off_c, 5, 86, 64
10, 10946, Note_off_c, 5, 74, 64
10, 11328, Note_on_c, 5, 81, 81
10, 11328, Note_on_c, 5, 69, 81
10, 11330, Note_off_c, 5, 88, 64
10, 11330, Note_off_c, 5, 76, 64
10, 11712, Note_on_c, 5, 78, 81
10, 11712, Note_on_c, 5, 66, 81
10, 11714, Note_off_c, 5, 69, 64
10, 11714, Note_off_c, 5, 81, 64
10, 12288, Note_on_c, 5, 76, 81
10, 12288, Note_on_c, 5, 64, 81
10, 12290, Note_off_c, 5, 66, 64
10, 12290, Note_off_c, 5, 78, 64
10, 12864, Note_on_c, 5, 81, 81
10, 12864, Note_on_c, 5, 69, 81
10, 12866, Note_off_c, 5, 76, 64
10, 12866, Note_off_c, 5, 64, 64
10, 13056, Note_off_c, 5, 81, 64
10, 13056, Note_off_c, 5, 69, 64
10, 19200, Note_on_c, 5, 85, 81
10, 19200, Note_on_c, 5, 73, 81
10, 19776, Note_on_c, 5, 86, 81
10, 19776, Note_on_c, 5, 74, 81
10, 19778, Note_off_c, 5, 73, 64
10, 19778, Note_off_c, 5, 85, 64
10, 20160, Note_on_c, 5, 88, 81
10, 20160, Note_on_c, 5, 76, 81
10, 20162, Note_off_c, 5, 74, 64
10, 20162, Note_off_c, 5, 86, 64
10, 20544, Note_on_c, 5, 81, 81
10, 20544, Note_on_c, 5, 69, 81
10, 20546, Note_off_c, 5, 88, 64
10, 20546, Note_off_c, 5, 76, 64
10, 20928, Note_on_c, 5, 78, 81
10, 20928, Note_on_c, 5, 66, 81
10, 20930, Note_off_c, 5, 81, 64
10, 20930, Note_off_c, 5, 69, 64
10, 21504, Note_on_c, 5, 76, 81
10, 21504, Note_on_c, 5, 64, 81
10, 21506, Note_off_c, 5, 78, 64
10, 21506, Note_off_c, 5, 66, 64
10, 22080, Note_on_c, 5, 81, 81
10, 22080, Note_on_c, 5, 69, 81
10, 22082, Note_off_c, 5, 64, 64
10, 22082, Note_off_c, 5, 76, 64
10, 22272, Note_off_c, 5, 69, 64
10, 22272, Note_off_c, 5, 81, 64
10, 22272, Note_on_c, 5, 88, 81
10, 22272, Note_on_c, 5, 76, 81
10, 23232, Note_on_c, 5, 92, 81
10, 23232, Note_on_c, 5, 80, 81
10, 23234, Note_off_c, 5, 88, 64
10, 23234, Note_off_c, 5, 76, 64
10, 23424, Note_on_c, 5, 93, 81
10, 23424, Note_on_c, 5, 81, 81
10, 23426, Note_off_c, 5, 92, 64
10, 23426, Note_off_c, 5, 80, 64
10, 23616, Note_on_c, 5, 88, 81
10, 23616, Note_on_c, 5, 76, 81
10, 23618, Note_off_c, 5, 93, 64
10, 23618, Note_off_c, 5, 81, 64
10, 23808, Note_on_c, 5, 90, 81
10, 23808, Note_on_c, 5, 78, 81
10, 23810, Note_off_c, 5, 88, 64
10, 23810, Note_off_c, 5, 76, 64
10, 24480, Note_on_c, 5, 88, 81
10, 24480, Note_on_c, 5, 76, 81
10, 24482, Note_off_c, 5, 90, 64
10, 24482, Note_off_c, 5, 78, 64
10, 24528, Note_on_c, 5, 86, 81
10, 24528, Note_on_c, 5, 74, 81
10, 24530, Note_off_c, 5, 88, 64
10, 24530, Note_off_c, 5, 76, 64
10, 24576, Note_on_c, 5, 85, 81
10, 24576, Note_on_c, 5, 73, 81
10, 24578, Note_off_c, 5, 74, 64
10, 24578, Note_off_c, 5, 86, 64
10, 24672, Note_on_c, 5, 83, 81
10, 24672, Note_on_c, 5, 71, 81
10, 24674, Note_off_c, 5, 85, 64
10, 24674, Note_off_c, 5, 73, 64
10, 25344, Note_off_c, 5, 83, 64
10, 25344, Note_off_c, 5, 71, 64
10, 25344, Note_on_c, 5, 85, 81
10, 25344, Note_on_c, 5, 73, 81
10, 25920, Note_on_c, 5, 86, 81
10, 25920, Note_on_c, 5, 74, 81
10, 25922, Note_off_c, 5, 85, 64
10, 25922, Note_off_c, 5, 73, 64
10, 26304, Note_on_c, 5, 88, 81
10, 26304, Note_on_c, 5, 76, 81
10, 26306, Note_off_c, 5, 74, 64
10, 26306, Note_off_c, 5, 86, 64
10, 26688, Note_on_c, 5, 81, 81
10, 26688, Note_on_c, 5, 69, 81
10, 26690, Note_off_c, 5, 76, 64
10, 26690, Note_off_c, 5, 88, 64
10, 27072, Note_on_c, 5, 78, 81
10, 27072, Note_on_c, 5, 66, 81
10, 27074, Note_off_c, 5, 81, 64
10, 27074, Note_off_c, 5, 69, 64
10, 27648, Note_on_c, 5, 76, 81
10, 27648, Note_on_c, 5, 64, 81
10, 27650, Note_off_c, 5, 78, 64
10, 27650, Note_off_c, 5, 66, 64
10, 28224, Note_on_c, 5, 81, 81
10, 28224, Note_on_c, 5, 69, 81
10, 28226, Note_off_c, 5, 64, 64
10, 28226, Note_off_c, 5, 76, 64
10, 28416, Note_off_c, 5, 69, 64
10, 28416, Note_off_c, 5, 81, 64
10, 29171, Control_c, 5, 101, 0
10, 29171, Control_c, 5, 100, 0
10, 29171, Control_c, 5, 6, 12
10, 29171, Control_c, 5, 0, 0
10, 29171, Control_c, 5, 32, 4
10, 29171, Control_c, 5, 10, 79
10, 29171, Control_c, 5, 7, 84
10, 29171, Pitch_bend_c, 5, 8192
10, 29171, Program_c, 5, 49
10, 29171, Control_c, 5, 64, 0
10, 29171, Control_c, 5, 91, 127
10, 29171, Control_c, 5, 93, 89
10, 29171, Control_c, 5, 101, 0
10, 29171, Control_c, 5, 100, 0
10, 29171, Control_c, 5, 6, 12
10, 29171, Control_c, 5, 0, 0
10, 29171, Control_c, 5, 32, 4
10, 29171, Control_c, 5, 10, 79
10, 29171, Control_c, 5, 7, 84
10, 29171, Pitch_bend_c, 5, 8192
10, 29171, Program_c, 5, 49
10, 29171, Control_c, 5, 64, 0
10, 29171, Control_c, 5, 91, 127
10, 29171, Control_c, 5, 93, 89
10, 29171, Control_c, 5, 101, 0
10, 29171, Control_c, 5, 100, 0
10, 29171, Control_c, 5, 6, 12
10, 29171, Control_c, 5, 0, 0
10, 29171, Control_c, 5, 32, 4
10, 29171, Control_c, 5, 10, 79
10, 29171, Control_c, 5, 7, 84
10, 29171, Pitch_bend_c, 5, 8192
10, 29171, Program_c, 5, 49
10, 29171, Control_c, 5, 64, 0
10, 29171, Control_c, 5, 91, 127
10, 29171, Control_c, 5, 93, 89
10, 29171, End_track
11, 0, Start_track
11, 0, Title_t, "Yamaha Rm1x"
11, 0, Control_c, 6, 10, 64
11, 0, Control_c, 6, 7, 0
11, 0, Pitch_bend_c, 6, 8192
11, 0, Control_c, 6, 101, 0
11, 0, Control_c, 6, 100, 0
11, 0, Control_c, 6, 6, 12
11, 0, Control_c, 6, 0, 6
11, 0, Control_c, 6, 32, 4
11, 0, Control_c, 6, 10, 64
11, 0, Pitch_bend_c, 6, 8192
11, 0, Program_c, 6, 122
11, 0, Control_c, 6, 74, 54
11, 0, Pitch_bend_c, 6, 8192
11, 0, Control_c, 6, 74, 64
11, 0, Control_c, 6, 7, 127
11, 0, Control_c, 6, 7, 127
11, 0, Control_c, 6, 74, 64
11, 0, Control_c, 6, 101, 0
11, 0, Control_c, 6, 100, 0
11, 0, Control_c, 6, 6, 12
11, 0, Control_c, 6, 0, 6
11, 0, Control_c, 6, 32, 4
11, 0, Control_c, 6, 10, 64
11, 0, Control_c, 6, 7, 127
11, 0, Pitch_bend_c, 6, 8192
11, 0, Program_c, 6, 122
11, 0, Control_c, 6, 74, 64
11, 0, Note_on_c, 6, 96, 81
11, 0, Control_c, 6, 74, 64
11, 0, Control_c, 6, 7, 127
11, 2, Control_c, 6, 7, 127
11, 3, Control_c, 6, 7, 127
11, 4, Control_c, 6, 7, 127
11, 6, Control_c, 6, 7, 127
11, 7, Control_c, 6, 7, 127
11, 8, Control_c, 6, 7, 127
11, 10, Control_c, 6, 7, 127
11, 11, Control_c, 6, 7, 127
11, 12, Control_c, 6, 7, 127
11, 14, Control_c, 6, 7, 127
11, 15, Control_c, 6, 7, 127
11, 16, Control_c, 6, 7, 127
11, 18, Control_c, 6, 7, 127
11, 19, Control_c, 6, 7, 127
11, 20, Control_c, 6, 7, 127
11, 22, Control_c, 6, 7, 127
11, 23, Control_c, 6, 7, 127
11, 24, Control_c, 6, 7, 127
11, 26, Control_c, 6, 7, 127
11, 27, Control_c, 6, 7, 127
11, 28, Control_c, 6, 7, 127
11, 30, Control_c, 6, 7, 127
11, 31, Control_c, 6, 7, 127
11, 32, Control_c, 6, 7, 127
11, 34, Control_c, 6, 7, 127
11, 35, Control_c, 6, 7, 127
11, 36, Control_c, 6, 7, 127
11, 38, Control_c, 6, 7, 127
11, 39, Control_c, 6, 7, 127
11, 40, Control_c, 6, 7, 127
11, 42, Control_c, 6, 7, 127
11, 43, Control_c, 6, 7, 127
11, 44, Control_c, 6, 7, 127
11, 46, Control_c, 6, 7, 127
11, 47, Control_c, 6, 7, 127
11, 48, Control_c, 6, 7, 127
11, 50, Control_c, 6, 7, 127
11, 51, Control_c, 6, 7, 127
11, 52, Control_c, 6, 7, 127
11, 54, Control_c, 6, 7, 127
11, 55, Control_c, 6, 7, 127
11, 56, Control_c, 6, 7, 127
11, 58, Control_c, 6, 7, 127
11, 59, Control_c, 6, 7, 127
11, 60, Control_c, 6, 7, 127
11, 62, Control_c, 6, 7, 127
11, 63, Control_c, 6, 7, 127
11, 64, Control_c, 6, 7, 127
11, 66, Control_c, 6, 7, 127
11, 67, Control_c, 6, 7, 127
11, 68, Control_c, 6, 7, 127
11, 70, Control_c, 6, 7, 127
11, 71, Control_c, 6, 7, 127
11, 72, Control_c, 6, 7, 127
11, 74, Control_c, 6, 7, 127
11, 75, Control_c, 6, 7, 127
11, 76, Control_c, 6, 7, 127
11, 78, Control_c, 6, 7, 127
11, 79, Control_c, 6, 7, 127
11, 80, Control_c, 6, 7, 127
11, 82, Control_c, 6, 7, 127
11, 83, Control_c, 6, 7, 127
11, 84, Control_c, 6, 7, 127
11, 86, Control_c, 6, 7, 127
11, 87, Control_c, 6, 7, 127
11, 88, Control_c, 6, 7, 127
11, 90, Control_c, 6, 7, 127
11, 91, Control_c, 6, 7, 127
11, 92, Control_c, 6, 7, 127
11, 94, Control_c, 6, 7, 127
11, 95, Control_c, 6, 7, 127
11, 96, Control_c, 6, 7, 127
11, 98, Control_c, 6, 7, 127
11, 99, Control_c, 6, 7, 127
11, 100, Control_c, 6, 7, 127
11, 102, Control_c, 6, 7, 127
11, 103, Control_c, 6, 7, 127
11, 104, Control_c, 6, 7, 127
11, 106, Control_c, 6, 7, 127
11, 107, Control_c, 6, 7, 127
11, 108, Control_c, 6, 7, 127
11, 110, Control_c, 6, 7, 127
11, 111, Control_c, 6, 7, 127
11, 112, Control_c, 6, 7, 127
11, 114, Control_c, 6, 7, 127
11, 115, Control_c, 6, 7, 127
11, 116, Control_c, 6, 7, 127
11, 118, Control_c, 6, 7, 127
11, 119, Control_c, 6, 7, 127
11, 120, Control_c, 6, 7, 127
11, 122, Control_c, 6, 7, 127
11, 123, Control_c, 6, 7, 127
11, 124, Control_c, 6, 7, 127
11, 126, Control_c, 6, 7, 127
11, 127, Control_c, 6, 7, 127
11, 128, Control_c, 6, 7, 127
11, 130, Control_c, 6, 7, 127
11, 131, Control_c, 6, 7, 127
11, 132, Control_c, 6, 7, 127
11, 134, Control_c, 6, 7, 127
11, 135, Control_c, 6, 7, 127
11, 136, Control_c, 6, 7, 127
11, 138, Control_c, 6, 7, 127
11, 139, Control_c, 6, 7, 127
11, 140, Control_c, 6, 7, 127
11, 142, Control_c, 6, 7, 127
11, 143, Control_c, 6, 7, 127
11, 144, Control_c, 6, 7, 127
11, 146, Control_c, 6, 7, 127
11, 147, Control_c, 6, 7, 127
11, 148, Control_c, 6, 7, 127
11, 150, Control_c, 6, 7, 127
11, 151, Control_c, 6, 7, 127
11, 152, Control_c, 6, 7, 127
11, 154, Control_c, 6, 7, 127
11, 155, Control_c, 6, 7, 127
11, 156, Control_c, 6, 7, 127
11, 158, Control_c, 6, 7, 127
11, 159, Control_c, 6, 7, 127
11, 160, Control_c, 6, 7, 127
11, 162, Control_c, 6, 7, 127
11, 163, Control_c, 6, 7, 127
11, 164, Control_c, 6, 7, 127
11, 166, Control_c, 6, 7, 127
11, 167, Control_c, 6, 7, 127
11, 168, Control_c, 6, 7, 127
11, 170, Control_c, 6, 7, 127
11, 171, Control_c, 6, 7, 127
11, 173, Control_c, 6, 7, 127
11, 174, Control_c, 6, 7, 127
11, 175, Control_c, 6, 7, 127
11, 177, Control_c, 6, 7, 127
11, 178, Control_c, 6, 7, 127
11, 179, Control_c, 6, 7, 127
11, 181, Control_c, 6, 7, 127
11, 182, Control_c, 6, 7, 127
11, 183, Control_c, 6, 7, 127
11, 185, Control_c, 6, 7, 127
11, 186, Control_c, 6, 7, 127
11, 187, Control_c, 6, 7, 127
11, 189, Control_c, 6, 7, 127
11, 190, Control_c, 6, 7, 127
11, 191, Control_c, 6, 7, 127
11, 192, Control_c, 6, 74, 64
11, 193, Control_c, 6, 74, 64
11, 193, Control_c, 6, 7, 127
11, 194, Control_c, 6, 74, 64
11, 194, Control_c, 6, 7, 127
11, 195, Control_c, 6, 74, 64
11, 195, Control_c, 6, 7, 127
11, 196, Control_c, 6, 74, 64
11, 197, Control_c, 6, 74, 64
11, 197, Control_c, 6, 7, 127
11, 198, Control_c, 6, 74, 64
11, 198, Control_c, 6, 7, 127
11, 199, Control_c, 6, 74, 64
11, 199, Control_c, 6, 7, 127
11, 200, Control_c, 6, 74, 64
11, 201, Control_c, 6, 74, 64
11, 201, Control_c, 6, 7, 127
11, 202, Control_c, 6, 74, 65
11, 202, Control_c, 6, 7, 127
11, 203, Control_c, 6, 74, 65
11, 203, Control_c, 6, 7, 127
11, 204, Control_c, 6, 74, 65
11, 205, Control_c, 6, 74, 65
11, 205, Control_c, 6, 7, 127
11, 206, Control_c, 6, 74, 65
11, 206, Control_c, 6, 7, 127
11, 207, Control_c, 6, 74, 65
11, 207, Control_c, 6, 7, 127
11, 208, Control_c, 6, 74, 65
11, 209, Control_c, 6, 74, 65
11, 209, Control_c, 6, 7, 127
11, 210, Control_c, 6, 74, 65
11, 210, Control_c, 6, 7, 127
11, 211, Control_c, 6, 74, 65
11, 211, Control_c, 6, 7, 127
11, 212, Control_c, 6, 74, 65
11, 213, Control_c, 6, 74, 65
11, 213, Control_c, 6, 7, 127
11, 214, Control_c, 6, 74, 65
11, 214, Control_c, 6, 7, 127
11, 215, Control_c, 6, 74, 65
11, 215, Control_c, 6, 7, 127
11, 216, Control_c, 6, 74, 65
11, 217, Control_c, 6, 74, 65
11, 217, Control_c, 6, 7, 127
11, 218, Control_c, 6, 74, 65
11, 218, Control_c, 6, 7, 127
11, 219, Control_c, 6, 74, 65
11, 219, Control_c, 6, 7, 127
11, 220, Control_c, 6, 74, 65
11, 221, Control_c, 6, 74, 65
11, 221, Control_c, 6, 7, 127
11, 222, Control_c, 6, 74, 65
11, 222, Control_c, 6, 7, 127
11, 223, Control_c, 6, 74, 65
11, 223, Control_c, 6, 7, 127
11, 224, Control_c, 6, 74, 66
11, 225, Control_c, 6, 74, 66
11, 225, Control_c, 6, 7, 127
11, 226, Control_c, 6, 74, 66
11, 226, Control_c, 6, 7, 127
11, 227, Control_c, 6, 74, 66
11, 227, Control_c, 6, 7, 127
11, 228, Control_c, 6, 74, 66
11, 229, Control_c, 6, 74, 66
11, 229, Control_c, 6, 7, 127
11, 230, Control_c, 6, 74, 66
11, 230, Control_c, 6, 7, 127
11, 231, Control_c, 6, 74, 66
11, 231, Control_c, 6, 7, 127
11, 232, Control_c, 6, 74, 66
11, 233, Control_c, 6, 74, 66
11, 233, Control_c, 6, 7, 127
11, 234, Control_c, 6, 74, 66
11, 234, Control_c, 6, 7, 127
11, 235, Control_c, 6, 74, 66
11, 235, Control_c, 6, 7, 127
11, 236, Control_c, 6, 74, 66
11, 237, Control_c, 6, 74, 66
11, 237, Control_c, 6, 7, 127
11, 238, Control_c, 6, 74, 66
11, 238, Control_c, 6, 7, 127
11, 239, Control_c, 6, 74, 66
11, 239, Control_c, 6, 7, 127
11, 240, Control_c, 6, 74, 66
11, 241, Control_c, 6, 74, 66
11, 241, Control_c, 6, 7, 127
11, 242, Control_c, 6, 74, 66
11, 242, Control_c, 6, 7, 127
11, 243, Control_c, 6, 74, 66
11, 243, Control_c, 6, 7, 127
11, 244, Control_c, 6, 74, 66
11, 245, Control_c, 6, 74, 66
11, 245, Control_c, 6, 7, 127
11, 246, Control_c, 6, 74, 67
11, 246, Control_c, 6, 7, 127
11, 247, Control_c, 6, 74, 67
11, 247, Control_c, 6, 7, 127
11, 248, Control_c, 6, 74, 67
11, 249, Control_c, 6, 74, 67
11, 249, Control_c, 6, 7, 127
11, 250, Control_c, 6, 74, 67
11, 250, Control_c, 6, 7, 127
11, 251, Control_c, 6, 74, 67
11, 251, Control_c, 6, 7, 127
11, 252, Control_c, 6, 74, 67
11, 253, Control_c, 6, 74, 67
11, 253, Control_c, 6, 7, 127
11, 254, Control_c, 6, 74, 67
11, 254, Control_c, 6, 7, 127
11, 255, Control_c, 6, 74, 67
11, 255, Control_c, 6, 7, 127
11, 256, Control_c, 6, 74, 67
11, 257, Control_c, 6, 74, 67
11, 257, Control_c, 6, 7, 127
11, 258, Control_c, 6, 74, 67
11, 258, Control_c, 6, 7, 127
11, 259, Control_c, 6, 74, 67
11, 259, Control_c, 6, 7, 127
11, 260, Control_c, 6, 74, 67
11, 261, Control_c, 6, 74, 67
11, 261, Control_c, 6, 7, 127
11, 262, Control_c, 6, 74, 67
11, 262, Control_c, 6, 7, 127
11, 263, Control_c, 6, 74, 67
11, 263, Control_c, 6, 7, 127
11, 264, Control_c, 6, 74, 67
11, 265, Control_c, 6, 74, 67
11, 265, Control_c, 6, 7, 127
11, 266, Control_c, 6, 74, 67
11, 266, Control_c, 6, 7, 127
11, 267, Control_c, 6, 74, 67
11, 267, Control_c, 6, 7, 127
11, 268, Control_c, 6, 74, 68
11, 269, Control_c, 6, 74, 68
11, 269, Control_c, 6, 7, 127
11, 270, Control_c, 6, 74, 68
11, 270, Control_c, 6, 7, 127
11, 271, Control_c, 6, 74, 68
11, 271, Control_c, 6, 7, 127
11, 272, Control_c, 6, 74, 68
11, 273, Control_c, 6, 74, 68
11, 273, Control_c, 6, 7, 127
11, 274, Control_c, 6, 74, 68
11, 274, Control_c, 6, 7, 127
11, 275, Control_c, 6, 74, 68
11, 275, Control_c, 6, 7, 127
11, 276, Control_c, 6, 74, 68
11, 277, Control_c, 6, 74, 68
11, 277, Control_c, 6, 7, 127
11, 278, Control_c, 6, 74, 68
11, 278, Control_c, 6, 7, 127
11, 279, Control_c, 6, 74, 68
11, 279, Control_c, 6, 7, 127
11, 280, Control_c, 6, 74, 68
11, 281, Control_c, 6, 74, 68
11, 281, Control_c, 6, 7, 127
11, 282, Control_c, 6, 74, 68
11, 282, Control_c, 6, 7, 127
11, 283, Control_c, 6, 74, 68
11, 283, Control_c, 6, 7, 127
11, 284, Control_c, 6, 74, 68
11, 285, Control_c, 6, 74, 68
11, 285, Control_c, 6, 7, 127
11, 286, Control_c, 6, 74, 68
11, 286, Control_c, 6, 7, 127
11, 287, Control_c, 6, 74, 68
11, 287, Control_c, 6, 7, 127
11, 288, Control_c, 6, 74, 68
11, 289, Control_c, 6, 74, 69
11, 289, Control_c, 6, 7, 127
11, 290, Control_c, 6, 74, 69
11, 290, Control_c, 6, 7, 127
11, 291, Control_c, 6, 74, 69
11, 291, Control_c, 6, 7, 127
11, 292, Control_c, 6, 74, 69
11, 293, Control_c, 6, 74, 69
11, 293, Control_c, 6, 7, 127
11, 294, Control_c, 6, 74, 69
11, 294, Control_c, 6, 7, 127
11, 295, Control_c, 6, 74, 69
11, 295, Control_c, 6, 7, 127
11, 296, Control_c, 6, 74, 69
11, 297, Control_c, 6, 74, 69
11, 297, Control_c, 6, 7, 127
11, 298, Control_c, 6, 74, 69
11, 298, Control_c, 6, 7, 127
11, 299, Control_c, 6, 74, 69
11, 299, Control_c, 6, 7, 127
11, 300, Control_c, 6, 74, 69
11, 301, Control_c, 6, 74, 69
11, 301, Control_c, 6, 7, 127
11, 302, Control_c, 6, 74, 69
11, 302, Control_c, 6, 7, 127
11, 303, Control_c, 6, 74, 69
11, 303, Control_c, 6, 7, 127
11, 304, Control_c, 6, 74, 69
11, 305, Control_c, 6, 74, 69
11, 305, Control_c, 6, 7, 127
11, 306, Control_c, 6, 74, 69
11, 306, Control_c, 6, 7, 127
11, 307, Control_c, 6, 74, 69
11, 307, Control_c, 6, 7, 127
11, 308, Control_c, 6, 74, 69
11, 309, Control_c, 6, 74, 69
11, 309, Control_c, 6, 7, 127
11, 310, Control_c, 6, 74, 69
11, 310, Control_c, 6, 7, 127
11, 311, Control_c, 6, 74, 70
11, 311, Control_c, 6, 7, 127
11, 312, Control_c, 6, 74, 70
11, 313, Control_c, 6, 74, 70
11, 313, Control_c, 6, 7, 127
11, 314, Control_c, 6, 74, 70
11, 314, Control_c, 6, 7, 127
11, 315, Control_c, 6, 74, 70
11, 315, Control_c, 6, 7, 127
11, 316, Control_c, 6, 74, 70
11, 317, Control_c, 6, 74, 70
11, 317, Control_c, 6, 7, 127
11, 318, Control_c, 6, 74, 70
11, 318, Control_c, 6, 7, 127
11, 319, Control_c, 6, 74, 70
11, 319, Control_c, 6, 7, 127
11, 320, Control_c, 6, 74, 70
11, 321, Control_c, 6, 74, 70
11, 321, Control_c, 6, 7, 127
11, 322, Control_c, 6, 74, 70
11, 322, Control_c, 6, 7, 127
11, 323, Control_c, 6, 74, 70
11, 323, Control_c, 6, 7, 127
11, 324, Control_c, 6, 74, 70
11, 325, Control_c, 6, 74, 70
11, 325, Control_c, 6, 7, 127
11, 326, Control_c, 6, 74, 70
11, 326, Control_c, 6, 7, 127
11, 327, Control_c, 6, 74, 70
11, 327, Control_c, 6, 7, 127
11, 328, Control_c, 6, 74, 70
11, 329, Control_c, 6, 74, 70
11, 329, Control_c, 6, 7, 127
11, 330, Control_c, 6, 74, 70
11, 330, Control_c, 6, 7, 127
11, 331, Control_c, 6, 74, 70
11, 331, Control_c, 6, 7, 127
11, 332, Control_c, 6, 74, 70
11, 333, Control_c, 6, 74, 71
11, 333, Control_c, 6, 7, 127
11, 334, Control_c, 6, 74, 71
11, 334, Control_c, 6, 7, 127
11, 335, Control_c, 6, 74, 71
11, 335, Control_c, 6, 7, 127
11, 336, Control_c, 6, 74, 71
11, 337, Control_c, 6, 74, 71
11, 337, Control_c, 6, 7, 127
11, 338, Control_c, 6, 74, 71
11, 338, Control_c, 6, 7, 127
11, 339, Control_c, 6, 74, 71
11, 339, Control_c, 6, 7, 127
11, 340, Control_c, 6, 74, 71
11, 341, Control_c, 6, 74, 71
11, 341, Control_c, 6, 7, 127
11, 342, Control_c, 6, 74, 71
11, 342, Control_c, 6, 7, 127
11, 343, Control_c, 6, 74, 71
11, 344, Control_c, 6, 74, 71
11, 344, Control_c, 6, 7, 127
11, 345, Control_c, 6, 74, 71
11, 345, Control_c, 6, 7, 127
11, 346, Control_c, 6, 74, 71
11, 346, Control_c, 6, 7, 127
11, 347, Control_c, 6, 74, 71
11, 348, Control_c, 6, 74, 71
11, 348, Control_c, 6, 7, 127
11, 349, Control_c, 6, 74, 71
11, 349, Control_c, 6, 7, 127
11, 350, Control_c, 6, 74, 71
11, 350, Control_c, 6, 7, 127
11, 351, Control_c, 6, 74, 71
11, 352, Control_c, 6, 74, 71
11, 352, Control_c, 6, 7, 127
11, 353, Control_c, 6, 74, 71
11, 353, Control_c, 6, 7, 127
11, 354, Control_c, 6, 74, 71
11, 354, Control_c, 6, 7, 127
11, 355, Control_c, 6, 74, 72
11, 356, Control_c, 6, 74, 72
11, 356, Control_c, 6, 7, 127
11, 357, Control_c, 6, 74, 72
11, 357, Control_c, 6, 7, 127
11, 358, Control_c, 6, 74, 72
11, 358, Control_c, 6, 7, 127
11, 359, Control_c, 6, 74, 72
11, 360, Control_c, 6, 74, 72
11, 360, Control_c, 6, 7, 127
11, 361, Control_c, 6, 74, 72
11, 361, Control_c, 6, 7, 127
11, 362, Control_c, 6, 74, 72
11, 362, Control_c, 6, 7, 127
11, 363, Control_c, 6, 74, 72
11, 364, Control_c, 6, 74, 72
11, 364, Control_c, 6, 7, 127
11, 365, Control_c, 6, 74, 72
11, 365, Control_c, 6, 7, 127
11, 366, Control_c, 6, 74, 72
11, 366, Control_c, 6, 7, 127
11, 367, Control_c, 6, 74, 72
11, 368, Control_c, 6, 74, 72
11, 368, Control_c, 6, 7, 127
11, 369, Control_c, 6, 74, 72
11, 369, Control_c, 6, 7, 127
11, 370, Control_c, 6, 74, 72
11, 370, Control_c, 6, 7, 127
11, 371, Control_c, 6, 74, 72
11, 372, Control_c, 6, 74, 72
11, 372, Control_c, 6, 7, 127
11, 373, Control_c, 6, 74, 72
11, 373, Control_c, 6, 7, 127
11, 374, Control_c, 6, 74, 72
11, 374, Control_c, 6, 7, 127
11, 375, Control_c, 6, 74, 72
11, 376, Control_c, 6, 74, 72
11, 376, Control_c, 6, 7, 127
11, 377, Control_c, 6, 74, 73
11, 377, Control_c, 6, 7, 127
11, 378, Control_c, 6, 74, 73
11, 378, Control_c, 6, 7, 127
11, 379, Control_c, 6, 74, 73
11, 380, Control_c, 6, 74, 73
11, 380, Control_c, 6, 7, 127
11, 381, Control_c, 6, 74, 73
11, 381, Control_c, 6, 7, 127
11, 382, Control_c, 6, 74, 73
11, 382, Control_c, 6, 7, 127
11, 383, Control_c, 6, 74, 73
11, 384, Control_c, 6, 74, 73
11, 384, Control_c, 6, 7, 127
11, 385, Control_c, 6, 74, 73
11, 385, Control_c, 6, 7, 127
11, 386, Control_c, 6, 74, 73
11, 386, Control_c, 6, 7, 127
11, 387, Control_c, 6, 74, 73
11, 388, Control_c, 6, 74, 73
11, 388, Control_c, 6, 7, 127
11, 389, Control_c, 6, 74, 73
11, 389, Control_c, 6, 7, 127
11, 390, Control_c, 6, 74, 73
11, 390, Control_c, 6, 7, 127
11, 391, Control_c, 6, 74, 73
11, 392, Control_c, 6, 74, 73
11, 392, Control_c, 6, 7, 127
11, 393, Control_c, 6, 74, 73
11, 393, Control_c, 6, 7, 127
11, 394, Control_c, 6, 74, 73
11, 394, Control_c, 6, 7, 127
11, 395, Control_c, 6, 74, 73
11, 396, Control_c, 6, 74, 73
11, 396, Control_c, 6, 7, 127
11, 397, Control_c, 6, 74, 73
11, 397, Control_c, 6, 7, 127
11, 398, Control_c, 6, 74, 74
11, 398, Control_c, 6, 7, 127
11, 399, Control_c, 6, 74, 74
11, 400, Control_c, 6, 74, 74
11, 400, Control_c, 6, 7, 127
11, 401, Control_c, 6, 74, 74
11, 401, Control_c, 6, 7, 127
11, 402, Control_c, 6, 74, 74
11, 402, Control_c, 6, 7, 127
11, 403, Control_c, 6, 74, 74
11, 404, Control_c, 6, 74, 74
11, 404, Control_c, 6, 7, 127
11, 405, Control_c, 6, 74, 74
11, 405, Control_c, 6, 7, 127
11, 406, Control_c, 6, 74, 74
11, 406, Control_c, 6, 7, 127
11, 407, Control_c, 6, 74, 74
11, 408, Control_c, 6, 74, 74
11, 408, Control_c, 6, 7, 127
11, 409, Control_c, 6, 74, 74
11, 409, Control_c, 6, 7, 127
11, 410, Control_c, 6, 74, 74
11, 410, Control_c, 6, 7, 127
11, 411, Control_c, 6, 74, 74
11, 412, Control_c, 6, 74, 74
11, 412, Control_c, 6, 7, 127
11, 413, Control_c, 6, 74, 74
11, 413, Control_c, 6, 7, 127
11, 414, Control_c, 6, 74, 74
11, 414, Control_c, 6, 7, 127
11, 415, Control_c, 6, 74, 74
11, 416, Control_c, 6, 74, 74
11, 416, Control_c, 6, 7, 127
11, 417, Control_c, 6, 74, 74
11, 417, Control_c, 6, 7, 127
11, 418, Control_c, 6, 74, 74
11, 418, Control_c, 6, 7, 127
11, 419, Control_c, 6, 74, 74
11, 420, Control_c, 6, 74, 75
11, 420, Control_c, 6, 7, 127
11, 421, Control_c, 6, 74, 75
11, 421, Control_c, 6, 7, 127
11, 422, Control_c, 6, 74, 75
11, 422, Control_c, 6, 7, 127
11, 423, Control_c, 6, 74, 75
11, 424, Control_c, 6, 74, 75
11, 424, Control_c, 6, 7, 127
11, 425, Control_c, 6, 74, 75
11, 425, Control_c, 6, 7, 127
11, 426, Control_c, 6, 74, 75
11, 426, Control_c, 6, 7, 127
11, 427, Control_c, 6, 74, 75
11, 428, Control_c, 6, 74, 75
11, 428, Control_c, 6, 7, 127
11, 429, Control_c, 6, 74, 75
11, 429, Control_c, 6, 7, 127
11, 430, Control_c, 6, 74, 75
11, 430, Control_c, 6, 7, 127
11, 431, Control_c, 6, 74, 75
11, 432, Control_c, 6, 74, 75
11, 432, Control_c, 6, 7, 127
11, 433, Control_c, 6, 74, 75
11, 433, Control_c, 6, 7, 127
11, 434, Control_c, 6, 74, 75
11, 434, Control_c, 6, 7, 127
11, 435, Control_c, 6, 74, 75
11, 436, Control_c, 6, 74, 75
11, 436, Control_c, 6, 7, 127
11, 437, Control_c, 6, 74, 75
11, 437, Control_c, 6, 7, 127
11, 438, Control_c, 6, 74, 75
11, 438, Control_c, 6, 7, 127
11, 439, Control_c, 6, 74, 75
11, 440, Control_c, 6, 74, 75
11, 440, Control_c, 6, 7, 127
11, 441, Control_c, 6, 74, 75
11, 441, Control_c, 6, 7, 127
11, 442, Control_c, 6, 74, 76
11, 442, Control_c, 6, 7, 127
11, 443, Control_c, 6, 74, 76
11, 444, Control_c, 6, 74, 76
11, 444, Control_c, 6, 7, 127
11, 445, Control_c, 6, 74, 76
11, 445, Control_c, 6, 7, 127
11, 446, Control_c, 6, 74, 76
11, 446, Control_c, 6, 7, 127
11, 447, Control_c, 6, 74, 76
11, 448, Control_c, 6, 74, 76
11, 448, Control_c, 6, 7, 127
11, 449, Control_c, 6, 74, 76
11, 449, Control_c, 6, 7, 127
11, 450, Control_c, 6, 74, 76
11, 450, Control_c, 6, 7, 127
11, 451, Control_c, 6, 74, 76
11, 452, Control_c, 6, 74, 76
11, 452, Control_c, 6, 7, 127
11, 453, Control_c, 6, 74, 76
11, 453, Control_c, 6, 7, 127
11, 454, Control_c, 6, 74, 76
11, 454, Control_c, 6, 7, 127
11, 455, Control_c, 6, 74, 76
11, 456, Control_c, 6, 74, 76
11, 456, Control_c, 6, 7, 127
11, 457, Control_c, 6, 74, 76
11, 457, Control_c, 6, 7, 127
11, 458, Control_c, 6, 74, 76
11, 458, Control_c, 6, 7, 127
11, 459, Control_c, 6, 74, 76
11, 460, Control_c, 6, 74, 76
11, 460, Control_c, 6, 7, 127
11, 461, Control_c, 6, 74, 76
11, 461, Control_c, 6, 7, 127
11, 462, Control_c, 6, 74, 76
11, 462, Control_c, 6, 7, 127
11, 463, Control_c, 6, 74, 76
11, 464, Control_c, 6, 74, 77
11, 464, Control_c, 6, 7, 127
11, 465, Control_c, 6, 74, 77
11, 465, Control_c, 6, 7, 127
11, 466, Control_c, 6, 74, 77
11, 466, Control_c, 6, 7, 127
11, 467, Control_c, 6, 74, 77
11, 468, Control_c, 6, 74, 77
11, 468, Control_c, 6, 7, 127
11, 469, Control_c, 6, 74, 77
11, 469, Control_c, 6, 7, 127
11, 470, Control_c, 6, 74, 77
11, 470, Control_c, 6, 7, 127
11, 471, Control_c, 6, 74, 77
11, 472, Control_c, 6, 74, 77
11, 472, Control_c, 6, 7, 127
11, 473, Control_c, 6, 74, 77
11, 473, Control_c, 6, 7, 127
11, 474, Control_c, 6, 74, 77
11, 474, Control_c, 6, 7, 127
11, 475, Control_c, 6, 74, 77
11, 476, Control_c, 6, 74, 77
11, 476, Control_c, 6, 7, 127
11, 477, Control_c, 6, 74, 77
11, 477, Control_c, 6, 7, 127
11, 478, Control_c, 6, 74, 77
11, 478, Control_c, 6, 7, 127
11, 479, Control_c, 6, 74, 77
11, 480, Control_c, 6, 74, 77
11, 480, Control_c, 6, 7, 127
11, 481, Control_c, 6, 74, 77
11, 481, Control_c, 6, 7, 127
11, 482, Control_c, 6, 74, 77
11, 482, Control_c, 6, 7, 127
11, 483, Control_c, 6, 74, 77
11, 484, Control_c, 6, 74, 77
11, 484, Control_c, 6, 7, 127
11, 485, Control_c, 6, 74, 78
11, 485, Control_c, 6, 7, 127
11, 486, Control_c, 6, 74, 78
11, 486, Control_c, 6, 7, 127
11, 487, Control_c, 6, 74, 78
11, 488, Control_c, 6, 74, 78
11, 488, Control_c, 6, 7, 127
11, 489, Control_c, 6, 74, 78
11, 489, Control_c, 6, 7, 127
11, 490, Control_c, 6, 74, 78
11, 490, Control_c, 6, 7, 127
11, 491, Control_c, 6, 74, 78
11, 492, Control_c, 6, 74, 78
11, 492, Control_c, 6, 7, 127
11, 493, Control_c, 6, 74, 78
11, 493, Control_c, 6, 7, 127
11, 494, Control_c, 6, 74, 78
11, 494, Control_c, 6, 7, 127
11, 495, Control_c, 6, 74, 78
11, 496, Control_c, 6, 74, 78
11, 496, Control_c, 6, 7, 127
11, 497, Control_c, 6, 74, 78
11, 497, Control_c, 6, 7, 127
11, 498, Control_c, 6, 74, 78
11, 498, Control_c, 6, 7, 127
11, 499, Control_c, 6, 74, 78
11, 500, Control_c, 6, 74, 78
11, 500, Control_c, 6, 7, 127
11, 501, Control_c, 6, 74, 78
11, 501, Control_c, 6, 7, 127
11, 502, Control_c, 6, 74, 78
11, 502, Control_c, 6, 7, 127
11, 503, Control_c, 6, 74, 78
11, 504, Control_c, 6, 74, 78
11, 504, Control_c, 6, 7, 127
11, 505, Control_c, 6, 74, 78
11, 505, Control_c, 6, 7, 127
11, 506, Control_c, 6, 74, 78
11, 506, Control_c, 6, 7, 127
11, 507, Control_c, 6, 74, 79
11, 508, Control_c, 6, 74, 79
11, 508, Control_c, 6, 7, 127
11, 509, Control_c, 6, 74, 79
11, 509, Control_c, 6, 7, 127
11, 510, Control_c, 6, 74, 79
11, 510, Control_c, 6, 7, 127
11, 511, Control_c, 6, 74, 79
11, 512, Control_c, 6, 74, 79
11, 512, Control_c, 6, 7, 127
11, 513, Control_c, 6, 74, 79
11, 513, Control_c, 6, 7, 127
11, 514, Control_c, 6, 74, 79
11, 515, Control_c, 6, 74, 79
11, 515, Control_c, 6, 7, 127
11, 516, Control_c, 6, 74, 79
11, 516, Control_c, 6, 7, 127
11, 517, Control_c, 6, 74, 79
11, 517, Control_c, 6, 7, 127
11, 518, Control_c, 6, 74, 79
11, 519, Control_c, 6, 74, 79
11, 519, Control_c, 6, 7, 127
11, 520, Control_c, 6, 74, 79
11, 520, Control_c, 6, 7, 127
11, 521, Control_c, 6, 74, 79
11, 521, Control_c, 6, 7, 127
11, 522, Control_c, 6, 74, 79
11, 523, Control_c, 6, 74, 79
11, 523, Control_c, 6, 7, 127
11, 524, Control_c, 6, 74, 79
11, 524, Control_c, 6, 7, 127
11, 525, Control_c, 6, 74, 79
11, 525, Control_c, 6, 7, 127
11, 526, Control_c, 6, 74, 79
11, 527, Control_c, 6, 74, 79
11, 527, Control_c, 6, 7, 127
11, 528, Control_c, 6, 74, 79
11, 528, Control_c, 6, 7, 127
11, 529, Control_c, 6, 74, 80
11, 529, Control_c, 6, 7, 127
11, 530, Control_c, 6, 74, 80
11, 531, Control_c, 6, 74, 80
11, 531, Control_c, 6, 7, 127
11, 532, Control_c, 6, 74, 80
11, 532, Control_c, 6, 7, 127
11, 533, Control_c, 6, 74, 80
11, 533, Control_c, 6, 7, 127
11, 534, Control_c, 6, 74, 80
11, 535, Control_c, 6, 74, 80
11, 535, Control_c, 6, 7, 127
11, 536, Control_c, 6, 74, 80
11, 536, Control_c, 6, 7, 127
11, 537, Control_c, 6, 74, 80
11, 537, Control_c, 6, 7, 127
11, 538, Control_c, 6, 74, 80
11, 539, Control_c, 6, 74, 80
11, 539, Control_c, 6, 7, 127
11, 540, Control_c, 6, 74, 80
11, 540, Control_c, 6, 7, 127
11, 541, Control_c, 6, 74, 80
11, 541, Control_c, 6, 7, 127
11, 542, Control_c, 6, 74, 80
11, 543, Control_c, 6, 74, 80
11, 543, Control_c, 6, 7, 127
11, 544, Control_c, 6, 74, 80
11, 544, Control_c, 6, 7, 127
11, 545, Control_c, 6, 74, 80
11, 545, Control_c, 6, 7, 127
11, 546, Control_c, 6, 74, 80
11, 547, Control_c, 6, 74, 80
11, 547, Control_c, 6, 7, 127
11, 548, Control_c, 6, 74, 80
11, 548, Control_c, 6, 7, 127
11, 549, Control_c, 6, 74, 80
11, 549, Control_c, 6, 7, 127
11, 550, Control_c, 6, 74, 80
11, 551, Control_c, 6, 74, 81
11, 551, Control_c, 6, 7, 127
11, 552, Control_c, 6, 74, 81
11, 552, Control_c, 6, 7, 127
11, 553, Control_c, 6, 74, 81
11, 553, Control_c, 6, 7, 127
11, 554, Control_c, 6, 74, 81
11, 555, Control_c, 6, 74, 81
11, 555, Control_c, 6, 7, 127
11, 556, Control_c, 6, 74, 81
11, 556, Control_c, 6, 7, 127
11, 557, Control_c, 6, 74, 81
11, 557, Control_c, 6, 7, 127
11, 558, Control_c, 6, 74, 81
11, 559, Control_c, 6, 74, 81
11, 559, Control_c, 6, 7, 127
11, 560, Control_c, 6, 74, 81
11, 560, Control_c, 6, 7, 127
11, 561, Control_c, 6, 74, 81
11, 561, Control_c, 6, 7, 127
11, 562, Control_c, 6, 74, 81
11, 563, Control_c, 6, 74, 81
11, 563, Control_c, 6, 7, 127
11, 564, Control_c, 6, 74, 81
11, 564, Control_c, 6, 7, 127
11, 565, Control_c, 6, 74, 81
11, 565, Control_c, 6, 7, 127
11, 566, Control_c, 6, 74, 81
11, 567, Control_c, 6, 74, 81
11, 567, Control_c, 6, 7, 127
11, 568, Control_c, 6, 74, 81
11, 568, Control_c, 6, 7, 127
11, 569, Control_c, 6, 74, 81
11, 569, Control_c, 6, 7, 127
11, 570, Control_c, 6, 74, 81
11, 571, Control_c, 6, 74, 81
11, 571, Control_c, 6, 7, 127
11, 572, Control_c, 6, 74, 81
11, 572, Control_c, 6, 7, 127
11, 573, Control_c, 6, 74, 82
11, 573, Control_c, 6, 7, 127
11, 574, Control_c, 6, 74, 82
11, 575, Control_c, 6, 74, 82
11, 575, Control_c, 6, 7, 127
11, 576, Control_c, 6, 74, 82
11, 576, Control_c, 6, 7, 127
11, 577, Control_c, 6, 74, 82
11, 577, Control_c, 6, 7, 127
11, 578, Control_c, 6, 74, 82
11, 579, Control_c, 6, 74, 82
11, 579, Control_c, 6, 7, 127
11, 580, Control_c, 6, 74, 82
11, 580, Control_c, 6, 7, 127
11, 581, Control_c, 6, 74, 82
11, 581, Control_c, 6, 7, 127
11, 582, Control_c, 6, 74, 82
11, 583, Control_c, 6, 74, 82
11, 583, Control_c, 6, 7, 127
11, 584, Control_c, 6, 74, 82
11, 584, Control_c, 6, 7, 127
11, 585, Control_c, 6, 74, 82
11, 585, Control_c, 6, 7, 127
11, 586, Control_c, 6, 74, 82
11, 587, Control_c, 6, 74, 82
11, 587, Control_c, 6, 7, 127
11, 588, Control_c, 6, 74, 82
11, 588, Control_c, 6, 7, 127
11, 589, Control_c, 6, 74, 82
11, 589, Control_c, 6, 7, 127
11, 590, Control_c, 6, 74, 82
11, 591, Control_c, 6, 74, 82
11, 591, Control_c, 6, 7, 127
11, 592, Control_c, 6, 74, 82
11, 592, Control_c, 6, 7, 127
11, 593, Control_c, 6, 74, 82
11, 593, Control_c, 6, 7, 127
11, 594, Control_c, 6, 74, 83
11, 595, Control_c, 6, 74, 83
11, 595, Control_c, 6, 7, 127
11, 596, Control_c, 6, 74, 83
11, 596, Control_c, 6, 7, 127
11, 597, Control_c, 6, 74, 83
11, 597, Control_c, 6, 7, 127
11, 598, Control_c, 6, 74, 83
11, 599, Control_c, 6, 74, 83
11, 599, Control_c, 6, 7, 127
11, 600, Control_c, 6, 74, 83
11, 600, Control_c, 6, 7, 127
11, 601, Control_c, 6, 74, 83
11, 601, Control_c, 6, 7, 127
11, 602, Control_c, 6, 74, 83
11, 603, Control_c, 6, 74, 83
11, 603, Control_c, 6, 7, 127
11, 604, Control_c, 6, 74, 83
11, 604, Control_c, 6, 7, 127
11, 605, Control_c, 6, 74, 83
11, 605, Control_c, 6, 7, 127
11, 606, Control_c, 6, 74, 83
11, 607, Control_c, 6, 74, 83
11, 607, Control_c, 6, 7, 127
11, 608, Control_c, 6, 74, 83
11, 608, Control_c, 6, 7, 127
11, 609, Control_c, 6, 74, 83
11, 609, Control_c, 6, 7, 127
11, 610, Control_c, 6, 74, 83
11, 611, Control_c, 6, 74, 83
11, 611, Control_c, 6, 7, 127
11, 612, Control_c, 6, 74, 83
11, 612, Control_c, 6, 7, 127
11, 613, Control_c, 6, 74, 83
11, 613, Control_c, 6, 7, 127
11, 614, Control_c, 6, 74, 83
11, 615, Control_c, 6, 74, 83
11, 615, Control_c, 6, 7, 127
11, 616, Control_c, 6, 74, 84
11, 616, Control_c, 6, 7, 127
11, 617, Control_c, 6, 74, 84
11, 617, Control_c, 6, 7, 127
11, 618, Control_c, 6, 74, 84
11, 619, Control_c, 6, 74, 84
11, 619, Control_c, 6, 7, 127
11, 620, Control_c, 6, 74, 84
11, 620, Control_c, 6, 7, 127
11, 621, Control_c, 6, 74, 84
11, 621, Control_c, 6, 7, 127
11, 622, Control_c, 6, 74, 84
11, 623, Control_c, 6, 74, 84
11, 623, Control_c, 6, 7, 127
11, 624, Control_c, 6, 74, 84
11, 624, Control_c, 6, 7, 127
11, 625, Control_c, 6, 74, 84
11, 625, Control_c, 6, 7, 127
11, 626, Control_c, 6, 74, 84
11, 627, Control_c, 6, 74, 84
11, 627, Control_c, 6, 7, 127
11, 628, Control_c, 6, 74, 84
11, 628, Control_c, 6, 7, 127
11, 629, Control_c, 6, 74, 84
11, 629, Control_c, 6, 7, 127
11, 630, Control_c, 6, 74, 84
11, 631, Control_c, 6, 74, 84
11, 631, Control_c, 6, 7, 127
11, 632, Control_c, 6, 74, 84
11, 632, Control_c, 6, 7, 127
11, 633, Control_c, 6, 74, 84
11, 633, Control_c, 6, 7, 127
11, 634, Control_c, 6, 74, 84
11, 635, Control_c, 6, 74, 84
11, 635, Control_c, 6, 7, 127
11, 636, Control_c, 6, 74, 84
11, 636, Control_c, 6, 7, 127
11, 637, Control_c, 6, 74, 84
11, 637, Control_c, 6, 7, 127
11, 638, Control_c, 6, 74, 85
11, 639, Control_c, 6, 74, 85
11, 639, Control_c, 6, 7, 127
11, 640, Control_c, 6, 74, 85
11, 640, Control_c, 6, 7, 127
11, 641, Control_c, 6, 74, 85
11, 641, Control_c, 6, 7, 127
11, 642, Control_c, 6, 74, 85
11, 643, Control_c, 6, 74, 85
11, 643, Control_c, 6, 7, 127
11, 644, Control_c, 6, 74, 85
11, 644, Control_c, 6, 7, 127
11, 645, Control_c, 6, 74, 85
11, 645, Control_c, 6, 7, 127
11, 646, Control_c, 6, 74, 85
11, 647, Control_c, 6, 74, 85
11, 647, Control_c, 6, 7, 127
11, 648, Control_c, 6, 74, 85
11, 648, Control_c, 6, 7, 127
11, 649, Control_c, 6, 74, 85
11, 649, Control_c, 6, 7, 127
11, 650, Control_c, 6, 74, 85
11, 651, Control_c, 6, 74, 85
11, 651, Control_c, 6, 7, 127
11, 652, Control_c, 6, 74, 85
11, 652, Control_c, 6, 7, 127
11, 653, Control_c, 6, 74, 85
11, 653, Control_c, 6, 7, 127
11, 654, Control_c, 6, 74, 85
11, 655, Control_c, 6, 74, 85
11, 655, Control_c, 6, 7, 127
11, 656, Control_c, 6, 74, 85
11, 656, Control_c, 6, 7, 127
11, 657, Control_c, 6, 74, 85
11, 657, Control_c, 6, 7, 127
11, 658, Control_c, 6, 74, 85
11, 659, Control_c, 6, 74, 85
11, 659, Control_c, 6, 7, 127
11, 660, Control_c, 6, 74, 86
11, 660, Control_c, 6, 7, 127
11, 661, Control_c, 6, 74, 86
11, 661, Control_c, 6, 7, 127
11, 662, Control_c, 6, 74, 86
11, 663, Control_c, 6, 74, 86
11, 663, Control_c, 6, 7, 127
11, 664, Control_c, 6, 74, 86
11, 664, Control_c, 6, 7, 127
11, 665, Control_c, 6, 74, 86
11, 665, Control_c, 6, 7, 127
11, 666, Control_c, 6, 74, 86
11, 667, Control_c, 6, 74, 86
11, 667, Control_c, 6, 7, 127
11, 668, Control_c, 6, 74, 86
11, 668, Control_c, 6, 7, 127
11, 669, Control_c, 6, 74, 86
11, 669, Control_c, 6, 7, 127
11, 670, Control_c, 6, 74, 86
11, 671, Control_c, 6, 74, 86
11, 671, Control_c, 6, 7, 127
11, 672, Control_c, 6, 74, 86
11, 672, Control_c, 6, 7, 127
11, 673, Control_c, 6, 74, 86
11, 673, Control_c, 6, 7, 127
11, 674, Control_c, 6, 74, 86
11, 675, Control_c, 6, 74, 86
11, 675, Control_c, 6, 7, 127
11, 676, Control_c, 6, 74, 86
11, 676, Control_c, 6, 7, 127
11, 677, Control_c, 6, 74, 86
11, 677, Control_c, 6, 7, 127
11, 678, Control_c, 6, 74, 86
11, 679, Control_c, 6, 74, 86
11, 679, Control_c, 6, 7, 127
11, 680, Control_c, 6, 74, 86
11, 680, Control_c, 6, 7, 127
11, 681, Control_c, 6, 74, 87
11, 681, Control_c, 6, 7, 127
11, 682, Control_c, 6, 74, 87
11, 683, Control_c, 6, 74, 87
11, 683, Control_c, 6, 7, 127
11, 684, Control_c, 6, 74, 87
11, 684, Control_c, 6, 7, 127
11, 685, Control_c, 6, 74, 87
11, 686, Control_c, 6, 74, 87
11, 686, Control_c, 6, 7, 127
11, 687, Control_c, 6, 74, 87
11, 687, Control_c, 6, 7, 126
11, 688, Control_c, 6, 74, 87
11, 688, Control_c, 6, 7, 126
11, 689, Control_c, 6, 74, 87
11, 690, Control_c, 6, 74, 87
11, 690, Control_c, 6, 7, 126
11, 691, Control_c, 6, 74, 87
11, 691, Control_c, 6, 7, 126
11, 692, Control_c, 6, 74, 87
11, 692, Control_c, 6, 7, 126
11, 693, Control_c, 6, 74, 87
11, 694, Control_c, 6, 74, 87
11, 694, Control_c, 6, 7, 126
11, 695, Control_c, 6, 74, 87
11, 695, Control_c, 6, 7, 126
11, 696, Control_c, 6, 74, 87
11, 696, Control_c, 6, 7, 126
11, 697, Control_c, 6, 74, 87
11, 698, Control_c, 6, 74, 87
11, 698, Control_c, 6, 7, 126
11, 699, Control_c, 6, 74, 87
11, 699, Control_c, 6, 7, 126
11, 700, Control_c, 6, 74, 87
11, 700, Control_c, 6, 7, 126
11, 701, Control_c, 6, 74, 87
11, 702, Control_c, 6, 74, 87
11, 702, Control_c, 6, 7, 126
11, 703, Control_c, 6, 74, 88
11, 703, Control_c, 6, 7, 126
11, 704, Control_c, 6, 74, 88
11, 704, Control_c, 6, 7, 126
11, 705, Control_c, 6, 74, 88
11, 706, Control_c, 6, 74, 88
11, 706, Control_c, 6, 7, 126
11, 707, Control_c, 6, 74, 88
11, 707, Control_c, 6, 7, 126
11, 708, Control_c, 6, 74, 88
11, 708, Control_c, 6, 7, 126
11, 709, Control_c, 6, 74, 88
11, 710, Control_c, 6, 74, 88
11, 710, Control_c, 6, 7, 126
11, 711, Control_c, 6, 74, 88
11, 711, Control_c, 6, 7, 126
11, 712, Control_c, 6, 74, 88
11, 712, Control_c, 6, 7, 126
11, 713, Control_c, 6, 74, 88
11, 714, Control_c, 6, 74, 88
11, 714, Control_c, 6, 7, 126
11, 715, Control_c, 6, 74, 88
11, 715, Control_c, 6, 7, 126
11, 716, Control_c, 6, 74, 88
11, 716, Control_c, 6, 7, 126
11, 717, Control_c, 6, 74, 88
11, 718, Control_c, 6, 74, 88
11, 718, Control_c, 6, 7, 126
11, 719, Control_c, 6, 74, 88
11, 719, Control_c, 6, 7, 126
11, 720, Control_c, 6, 74, 88
11, 720, Control_c, 6, 7, 126
11, 721, Control_c, 6, 74, 88
11, 722, Control_c, 6, 74, 88
11, 722, Control_c, 6, 7, 126
11, 723, Control_c, 6, 74, 88
11, 723, Control_c, 6, 7, 126
11, 724, Control_c, 6, 74, 88
11, 724, Control_c, 6, 7, 126
11, 725, Control_c, 6, 74, 89
11, 726, Control_c, 6, 74, 89
11, 726, Control_c, 6, 7, 126
11, 727, Control_c, 6, 74, 89
11, 727, Control_c, 6, 7, 126
11, 728, Control_c, 6, 74, 89
11, 728, Control_c, 6, 7, 126
11, 729, Control_c, 6, 74, 89
11, 730, Control_c, 6, 74, 89
11, 730, Control_c, 6, 7, 126
11, 731, Control_c, 6, 74, 89
11, 731, Control_c, 6, 7, 126
11, 732, Control_c, 6, 74, 89
11, 732, Control_c, 6, 7, 126
11, 733, Control_c, 6, 74, 89
11, 734, Control_c, 6, 74, 89
11, 734, Control_c, 6, 7, 126
11, 735, Control_c, 6, 74, 89
11, 735, Control_c, 6, 7, 126
11, 736, Control_c, 6, 74, 89
11, 736, Control_c, 6, 7, 126
11, 737, Control_c, 6, 74, 89
11, 738, Control_c, 6, 74, 89
11, 738, Control_c, 6, 7, 126
11, 739, Control_c, 6, 74, 89
11, 739, Control_c, 6, 7, 126
11, 740, Control_c, 6, 74, 89
11, 740, Control_c, 6, 7, 126
11, 741, Control_c, 6, 74, 89
11, 742, Control_c, 6, 74, 89
11, 742, Control_c, 6, 7, 126
11, 743, Control_c, 6, 74, 89
11, 743, Control_c, 6, 7, 126
11, 744, Control_c, 6, 74, 89
11, 744, Control_c, 6, 7, 126
11, 745, Control_c, 6, 74, 89
11, 746, Control_c, 6, 74, 89
11, 746, Control_c, 6, 7, 126
11, 747, Control_c, 6, 74, 90
11, 747, Control_c, 6, 7, 126
11, 748, Control_c, 6, 74, 90
11, 748, Control_c, 6, 7, 126
11, 749, Control_c, 6, 74, 90
11, 750, Control_c, 6, 74, 90
11, 750, Control_c, 6, 7, 126
11, 751, Control_c, 6, 74, 90
11, 751, Control_c, 6, 7, 126
11, 752, Control_c, 6, 74, 90
11, 752, Control_c, 6, 7, 126
11, 753, Control_c, 6, 74, 90
11, 754, Control_c, 6, 74, 90
11, 754, Control_c, 6, 7, 126
11, 755, Control_c, 6, 74, 90
11, 755, Control_c, 6, 7, 126
11, 756, Control_c, 6, 74, 90
11, 756, Control_c, 6, 7, 126
11, 757, Control_c, 6, 74, 90
11, 758, Control_c, 6, 74, 90
11, 758, Control_c, 6, 7, 126
11, 759, Control_c, 6, 74, 90
11, 759, Control_c, 6, 7, 126
11, 760, Control_c, 6, 74, 90
11, 760, Control_c, 6, 7, 126
11, 761, Control_c, 6, 74, 90
11, 762, Control_c, 6, 74, 90
11, 762, Control_c, 6, 7, 126
11, 763, Control_c, 6, 74, 90
11, 763, Control_c, 6, 7, 126
11, 764, Control_c, 6, 74, 90
11, 764, Control_c, 6, 7, 126
11, 765, Control_c, 6, 74, 90
11, 766, Control_c, 6, 74, 90
11, 766, Control_c, 6, 7, 126
11, 767, Control_c, 6, 74, 90
11, 767, Control_c, 6, 7, 126
11, 768, Control_c, 6, 74, 90
11, 768, Control_c, 6, 7, 126
11, 769, Control_c, 6, 74, 90
11, 770, Control_c, 6, 74, 90
11, 770, Control_c, 6, 7, 126
11, 771, Control_c, 6, 74, 90
11, 771, Control_c, 6, 7, 126
11, 772, Control_c, 6, 74, 90
11, 772, Control_c, 6, 7, 126
11, 773, Control_c, 6, 74, 90
11, 774, Control_c, 6, 74, 90
11, 774, Control_c, 6, 7, 126
11, 775, Control_c, 6, 74, 90
11, 775, Control_c, 6, 7, 126
11, 776, Control_c, 6, 74, 90
11, 776, Control_c, 6, 7, 126
11, 777, Control_c, 6, 74, 90
11, 778, Control_c, 6, 74, 90
11, 778, Control_c, 6, 7, 126
11, 779, Control_c, 6, 74, 90
11, 779, Control_c, 6, 7, 126
11, 780, Control_c, 6, 74, 90
11, 780, Control_c, 6, 7, 126
11, 781, Control_c, 6, 74, 90
11, 782, Control_c, 6, 74, 90
11, 782, Control_c, 6, 7, 126
11, 783, Control_c, 6, 74, 90
11, 783, Control_c, 6, 7, 126
11, 784, Control_c, 6, 74, 90
11, 784, Control_c, 6, 7, 126
11, 785, Control_c, 6, 74, 90
11, 786, Control_c, 6, 74, 90
11, 786, Control_c, 6, 7, 126
11, 787, Control_c, 6, 74, 90
11, 787, Control_c, 6, 7, 126
11, 788, Control_c, 6, 74, 90
11, 788, Control_c, 6, 7, 126
11, 789, Control_c, 6, 74, 90
11, 790, Control_c, 6, 74, 90
11, 790, Control_c, 6, 7, 126
11, 791, Control_c, 6, 74, 90
11, 791, Control_c, 6, 7, 126
11, 792, Control_c, 6, 74, 90
11, 792, Control_c, 6, 7, 126
11, 793, Control_c, 6, 74, 90
11, 794, Control_c, 6, 74, 90
11, 794, Control_c, 6, 7, 126
11, 795, Control_c, 6, 74, 90
11, 795, Control_c, 6, 7, 126
11, 796, Control_c, 6, 74, 90
11, 796, Control_c, 6, 7, 126
11, 797, Control_c, 6, 74, 90
11, 798, Control_c, 6, 74, 90
11, 798, Control_c, 6, 7, 126
11, 799, Control_c, 6, 74, 90
11, 799, Control_c, 6, 7, 126
11, 800, Control_c, 6, 74, 90
11, 800, Control_c, 6, 7, 126
11, 801, Control_c, 6, 74, 90
11, 802, Control_c, 6, 74, 90
11, 802, Control_c, 6, 7, 126
11, 803, Control_c, 6, 74, 90
11, 803, Control_c, 6, 7, 126
11, 804, Control_c, 6, 74, 90
11, 804, Control_c, 6, 7, 126
11, 805, Control_c, 6, 74, 90
11, 806, Control_c, 6, 74, 90
11, 806, Control_c, 6, 7, 126
11, 807, Control_c, 6, 74, 89
11, 807, Control_c, 6, 7, 126
11, 808, Control_c, 6, 74, 89
11, 808, Control_c, 6, 7, 126
11, 809, Control_c, 6, 74, 89
11, 810, Control_c, 6, 74, 89
11, 810, Control_c, 6, 7, 126
11, 811, Control_c, 6, 74, 89
11, 811, Control_c, 6, 7, 126
11, 812, Control_c, 6, 74, 89
11, 812, Control_c, 6, 7, 126
11, 813, Control_c, 6, 74, 89
11, 814, Control_c, 6, 74, 89
11, 814, Control_c, 6, 7, 126
11, 815, Control_c, 6, 74, 89
11, 815, Control_c, 6, 7, 126
11, 816, Control_c, 6, 74, 89
11, 816, Control_c, 6, 7, 126
11, 817, Control_c, 6, 74, 89
11, 818, Control_c, 6, 74, 89
11, 818, Control_c, 6, 7, 126
11, 819, Control_c, 6, 74, 89
11, 819, Control_c, 6, 7, 126
11, 820, Control_c, 6, 74, 89
11, 820, Control_c, 6, 7, 126
11, 821, Control_c, 6, 74, 89
11, 822, Control_c, 6, 74, 89
11, 822, Control_c, 6, 7, 126
11, 823, Control_c, 6, 74, 89
11, 823, Control_c, 6, 7, 126
11, 824, Control_c, 6, 74, 89
11, 824, Control_c, 6, 7, 126
11, 825, Control_c, 6, 74, 89
11, 826, Control_c, 6, 74, 89
11, 826, Control_c, 6, 7, 126
11, 827, Control_c, 6, 74, 89
11, 827, Control_c, 6, 7, 126
11, 828, Control_c, 6, 74, 89
11, 828, Control_c, 6, 7, 126
11, 829, Control_c, 6, 74, 89
11, 830, Control_c, 6, 74, 89
11, 830, Control_c, 6, 7, 126
11, 831, Control_c, 6, 74, 89
11, 831, Control_c, 6, 7, 126
11, 832, Control_c, 6, 74, 89
11, 832, Control_c, 6, 7, 126
11, 833, Control_c, 6, 74, 89
11, 834, Control_c, 6, 74, 89
11, 834, Control_c, 6, 7, 126
11, 835, Control_c, 6, 74, 89
11, 835, Control_c, 6, 7, 126
11, 836, Control_c, 6, 74, 89
11, 836, Control_c, 6, 7, 126
11, 837, Control_c, 6, 74, 89
11, 838, Control_c, 6, 74, 89
11, 838, Control_c, 6, 7, 126
11, 839, Control_c, 6, 74, 89
11, 839, Control_c, 6, 7, 126
11, 840, Control_c, 6, 74, 89
11, 840, Control_c, 6, 7, 126
11, 841, Control_c, 6, 74, 89
11, 842, Control_c, 6, 74, 89
11, 842, Control_c, 6, 7, 126
11, 843, Control_c, 6, 74, 89
11, 843, Control_c, 6, 7, 126
11, 844, Control_c, 6, 74, 89
11, 844, Control_c, 6, 7, 126
11, 845, Control_c, 6, 74, 89
11, 846, Control_c, 6, 74, 89
11, 846, Control_c, 6, 7, 126
11, 847, Control_c, 6, 74, 89
11, 847, Control_c, 6, 7, 126
11, 848, Control_c, 6, 74, 88
11, 848, Control_c, 6, 7, 126
11, 849, Control_c, 6, 74, 88
11, 850, Control_c, 6, 74, 88
11, 850, Control_c, 6, 7, 126
11, 851, Control_c, 6, 74, 88
11, 851, Control_c, 6, 7, 126
11, 852, Control_c, 6, 74, 88
11, 852, Control_c, 6, 7, 126
11, 853, Control_c, 6, 74, 88
11, 854, Control_c, 6, 74, 88
11, 854, Control_c, 6, 7, 126
11, 855, Control_c, 6, 74, 88
11, 855, Control_c, 6, 7, 126
11, 856, Control_c, 6, 74, 88
11, 857, Control_c, 6, 74, 88
11, 857, Control_c, 6, 7, 126
11, 858, Control_c, 6, 74, 88
11, 858, Control_c, 6, 7, 126
11, 859, Control_c, 6, 74, 88
11, 859, Control_c, 6, 7, 126
11, 860, Control_c, 6, 74, 88
11, 861, Control_c, 6, 74, 88
11, 861, Control_c, 6, 7, 126
11, 862, Control_c, 6, 74, 88
11, 862, Control_c, 6, 7, 126
11, 863, Control_c, 6, 74, 88
11, 863, Control_c, 6, 7, 126
11, 864, Control_c, 6, 74, 88
11, 865, Control_c, 6, 74, 88
11, 865, Control_c, 6, 7, 126
11, 866, Control_c, 6, 74, 88
11, 866, Control_c, 6, 7, 126
11, 867, Control_c, 6, 74, 88
11, 867, Control_c, 6, 7, 126
11, 868, Control_c, 6, 74, 88
11, 869, Control_c, 6, 74, 88
11, 869, Control_c, 6, 7, 126
11, 870, Control_c, 6, 74, 88
11, 870, Control_c, 6, 7, 126
11, 871, Control_c, 6, 74, 88
11, 871, Control_c, 6, 7, 126
11, 872, Control_c, 6, 74, 88
11, 873, Control_c, 6, 74, 88
11, 873, Control_c, 6, 7, 126
11, 874, Control_c, 6, 74, 88
11, 874, Control_c, 6, 7, 126
11, 875, Control_c, 6, 74, 88
11, 875, Control_c, 6, 7, 126
11, 876, Control_c, 6, 74, 88
11, 877, Control_c, 6, 74, 88
11, 877, Control_c, 6, 7, 126
11, 878, Control_c, 6, 74, 88
11, 878, Control_c, 6, 7, 126
11, 879, Control_c, 6, 74, 88
11, 879, Control_c, 6, 7, 126
11, 880, Control_c, 6, 74, 88
11, 881, Control_c, 6, 74, 88
11, 881, Control_c, 6, 7, 126
11, 882, Control_c, 6, 74, 88
11, 882, Control_c, 6, 7, 126
11, 883, Control_c, 6, 74, 88
11, 883, Control_c, 6, 7, 126
11, 884, Control_c, 6, 74, 88
11, 885, Control_c, 6, 74, 88
11, 885, Control_c, 6, 7, 126
11, 886, Control_c, 6, 74, 88
11, 886, Control_c, 6, 7, 126
11, 887, Control_c, 6, 74, 88
11, 887, Control_c, 6, 7, 126
11, 888, Control_c, 6, 74, 88
11, 889, Control_c, 6, 74, 88
11, 889, Control_c, 6, 7, 126
11, 890, Control_c, 6, 74, 87
11, 890, Control_c, 6, 7, 126
11, 891, Control_c, 6, 74, 87
11, 891, Control_c, 6, 7, 126
11, 892, Control_c, 6, 74, 87
11, 893, Control_c, 6, 74, 87
11, 893, Control_c, 6, 7, 126
11, 894, Control_c, 6, 74, 87
11, 894, Control_c, 6, 7, 126
11, 895, Control_c, 6, 74, 87
11, 895, Control_c, 6, 7, 126
11, 896, Control_c, 6, 74, 87
11, 897, Control_c, 6, 74, 87
11, 897, Control_c, 6, 7, 126
11, 898, Control_c, 6, 74, 87
11, 898, Control_c, 6, 7, 126
11, 899, Control_c, 6, 74, 87
11, 899, Control_c, 6, 7, 126
11, 900, Control_c, 6, 74, 87
11, 901, Control_c, 6, 74, 87
11, 901, Control_c, 6, 7, 126
11, 902, Control_c, 6, 74, 87
11, 902, Control_c, 6, 7, 126
11, 903, Control_c, 6, 74, 87
11, 903, Control_c, 6, 7, 126
11, 904, Control_c, 6, 74, 87
11, 905, Control_c, 6, 74, 87
11, 905, Control_c, 6, 7, 126
11, 906, Control_c, 6, 74, 87
11, 906, Control_c, 6, 7, 126
11, 907, Control_c, 6, 74, 87
11, 907, Control_c, 6, 7, 126
11, 908, Control_c, 6, 74, 87
11, 909, Control_c, 6, 74, 87
11, 909, Control_c, 6, 7, 126
11, 910, Control_c, 6, 74, 87
11, 910, Control_c, 6, 7, 126
11, 911, Control_c, 6, 74, 87
11, 911, Control_c, 6, 7, 126
11, 912, Control_c, 6, 74, 87
11, 913, Control_c, 6, 74, 87
11, 913, Control_c, 6, 7, 126
11, 914, Control_c, 6, 74, 87
11, 914, Control_c, 6, 7, 126
11, 915, Control_c, 6, 74, 87
11, 915, Control_c, 6, 7, 126
11, 916, Control_c, 6, 74, 87
11, 917, Control_c, 6, 74, 87
11, 917, Control_c, 6, 7, 126
11, 918, Control_c, 6, 74, 87
11, 918, Control_c, 6, 7, 126
11, 919, Control_c, 6, 74, 87
11, 919, Control_c, 6, 7, 126
11, 920, Control_c, 6, 74, 87
11, 921, Control_c, 6, 74, 87
11, 921, Control_c, 6, 7, 126
11, 922, Control_c, 6, 74, 87
11, 922, Control_c, 6, 7, 126
11, 923, Control_c, 6, 74, 87
11, 923, Control_c, 6, 7, 126
11, 924, Control_c, 6, 74, 87
11, 925, Control_c, 6, 74, 87
11, 925, Control_c, 6, 7, 126
11, 926, Control_c, 6, 74, 87
11, 926, Control_c, 6, 7, 126
11, 927, Control_c, 6, 74, 87
11, 927, Control_c, 6, 7, 126
11, 928, Control_c, 6, 74, 87
11, 929, Control_c, 6, 74, 87
11, 929, Control_c, 6, 7, 126
11, 930, Control_c, 6, 74, 87
11, 930, Control_c, 6, 7, 126
11, 931, Control_c, 6, 74, 86
11, 931, Control_c, 6, 7, 126
11, 932, Control_c, 6, 74, 86
11, 933, Control_c, 6, 74, 86
11, 933, Control_c, 6, 7, 126
11, 934, Control_c, 6, 74, 86
11, 934, Control_c, 6, 7, 126
11, 935, Control_c, 6, 74, 86
11, 935, Control_c, 6, 7, 126
11, 936, Control_c, 6, 74, 86
11, 937, Control_c, 6, 74, 86
11, 937, Control_c, 6, 7, 126
11, 938, Control_c, 6, 74, 86
11, 938, Control_c, 6, 7, 126
11, 939, Control_c, 6, 74, 86
11, 939, Control_c, 6, 7, 126
11, 940, Control_c, 6, 74, 86
11, 941, Control_c, 6, 74, 86
11, 941, Control_c, 6, 7, 126
11, 942, Control_c, 6, 74, 86
11, 942, Control_c, 6, 7, 126
11, 943, Control_c, 6, 74, 86
11, 943, Control_c, 6, 7, 126
11, 944, Control_c, 6, 74, 86
11, 945, Control_c, 6, 74, 86
11, 945, Control_c, 6, 7, 126
11, 946, Control_c, 6, 74, 86
11, 946, Control_c, 6, 7, 126
11, 947, Control_c, 6, 74, 86
11, 947, Control_c, 6, 7, 126
11, 948, Control_c, 6, 74, 86
11, 949, Control_c, 6, 74, 86
11, 949, Control_c, 6, 7, 126
11, 950, Control_c, 6, 74, 86
11, 950, Control_c, 6, 7, 126
11, 951, Control_c, 6, 74, 86
11, 951, Control_c, 6, 7, 126
11, 952, Control_c, 6, 74, 86
11, 953, Control_c, 6, 74, 86
11, 953, Control_c, 6, 7, 126
11, 954, Control_c, 6, 74, 86
11, 954, Control_c, 6, 7, 126
11, 955, Control_c, 6, 74, 86
11, 955, Control_c, 6, 7, 126
11, 956, Control_c, 6, 74, 86
11, 957, Control_c, 6, 74, 86
11, 957, Control_c, 6, 7, 126
11, 958, Control_c, 6, 74, 86
11, 958, Control_c, 6, 7, 126
11, 959, Control_c, 6, 74, 86
11, 959, Control_c, 6, 7, 126
11, 960, Control_c, 6, 74, 86
11, 961, Control_c, 6, 74, 86
11, 961, Control_c, 6, 7, 126
11, 962, Control_c, 6, 74, 86
11, 962, Control_c, 6, 7, 126
11, 963, Control_c, 6, 74, 86
11, 963, Control_c, 6, 7, 126
11, 964, Control_c, 6, 74, 86
11, 965, Control_c, 6, 74, 86
11, 965, Control_c, 6, 7, 126
11, 966, Control_c, 6, 74, 86
11, 966, Control_c, 6, 7, 126
11, 967, Control_c, 6, 74, 86
11, 967, Control_c, 6, 7, 126
11, 968, Control_c, 6, 74, 86
11, 969, Control_c, 6, 74, 86
11, 969, Control_c, 6, 7, 126
11, 970, Control_c, 6, 74, 86
11, 970, Control_c, 6, 7, 126
11, 971, Control_c, 6, 74, 86
11, 971, Control_c, 6, 7, 126
11, 972, Control_c, 6, 74, 86
11, 973, Control_c, 6, 74, 85
11, 973, Control_c, 6, 7, 126
11, 974, Control_c, 6, 74, 85
11, 974, Control_c, 6, 7, 126
11, 975, Control_c, 6, 74, 85
11, 975, Control_c, 6, 7, 126
11, 976, Control_c, 6, 74, 85
11, 977, Control_c, 6, 74, 85
11, 977, Control_c, 6, 7, 126
11, 978, Control_c, 6, 74, 85
11, 978, Control_c, 6, 7, 126
11, 979, Control_c, 6, 74, 85
11, 979, Control_c, 6, 7, 126
11, 980, Control_c, 6, 74, 85
11, 981, Control_c, 6, 74, 85
11, 981, Control_c, 6, 7, 126
11, 982, Control_c, 6, 74, 85
11, 982, Control_c, 6, 7, 126
11, 983, Control_c, 6, 74, 85
11, 983, Control_c, 6, 7, 126
11, 984, Control_c, 6, 74, 85
11, 985, Control_c, 6, 74, 85
11, 985, Control_c, 6, 7, 126
11, 986, Control_c, 6, 74, 85
11, 986, Control_c, 6, 7, 126
11, 987, Control_c, 6, 74, 85
11, 987, Control_c, 6, 7, 126
11, 988, Control_c, 6, 74, 85
11, 989, Control_c, 6, 74, 85
11, 989, Control_c, 6, 7, 126
11, 990, Control_c, 6, 74, 85
11, 990, Control_c, 6, 7, 126
11, 991, Control_c, 6, 74, 85
11, 991, Control_c, 6, 7, 126
11, 992, Control_c, 6, 74, 85
11, 993, Control_c, 6, 74, 85
11, 993, Control_c, 6, 7, 126
11, 994, Control_c, 6, 74, 85
11, 994, Control_c, 6, 7, 126
11, 995, Control_c, 6, 74, 85
11, 995, Control_c, 6, 7, 126
11, 996, Control_c, 6, 74, 85
11, 997, Control_c, 6, 74, 85
11, 997, Control_c, 6, 7, 126
11, 998, Control_c, 6, 74, 85
11, 998, Control_c, 6, 7, 126
11, 999, Control_c, 6, 74, 85
11, 999, Control_c, 6, 7, 126
11, 1000, Control_c, 6, 74, 85
11, 1001, Control_c, 6, 74, 85
11, 1001, Control_c, 6, 7, 126
11, 1002, Control_c, 6, 74, 85
11, 1002, Control_c, 6, 7, 126
11, 1003, Control_c, 6, 74, 85
11, 1003, Control_c, 6, 7, 126
11, 1004, Control_c, 6, 74, 85
11, 1005, Control_c, 6, 74, 85
11, 1005, Control_c, 6, 7, 126
11, 1006, Control_c, 6, 74, 85
11, 1006, Control_c, 6, 7, 126
11, 1007, Control_c, 6, 74, 85
11, 1007, Control_c, 6, 7, 126
11, 1008, Control_c, 6, 74, 85
11, 1009, Control_c, 6, 74, 85
11, 1009, Control_c, 6, 7, 126
11, 1010, Control_c, 6, 74, 85
11, 1010, Control_c, 6, 7, 126
11, 1011, Control_c, 6, 74, 85
11, 1011, Control_c, 6, 7, 126
11, 1012, Control_c, 6, 74, 85
11, 1013, Control_c, 6, 74, 85
11, 1013, Control_c, 6, 7, 126
11, 1014, Control_c, 6, 74, 84
11, 1014, Control_c, 6, 7, 126
11, 1015, Control_c, 6, 74, 84
11, 1015, Control_c, 6, 7, 126
11, 1016, Control_c, 6, 74, 84
11, 1017, Control_c, 6, 74, 84
11, 1017, Control_c, 6, 7, 126
11, 1018, Control_c, 6, 74, 84
11, 1018, Control_c, 6, 7, 126
11, 1019, Control_c, 6, 74, 84
11, 1019, Control_c, 6, 7, 126
11, 1020, Control_c, 6, 74, 84
11, 1021, Control_c, 6, 74, 84
11, 1021, Control_c, 6, 7, 126
11, 1022, Control_c, 6, 74, 84
11, 1022, Control_c, 6, 7, 126
11, 1023, Control_c, 6, 74, 84
11, 1023, Control_c, 6, 7, 126
11, 1024, Control_c, 6, 74, 84
11, 1025, Control_c, 6, 74, 84
11, 1025, Control_c, 6, 7, 126
11, 1026, Control_c, 6, 74, 84
11, 1026, Control_c, 6, 7, 126
11, 1027, Control_c, 6, 74, 84
11, 1028, Control_c, 6, 74, 84
11, 1028, Control_c, 6, 7, 126
11, 1029, Control_c, 6, 74, 84
11, 1029, Control_c, 6, 7, 126
11, 1030, Control_c, 6, 74, 84
11, 1030, Control_c, 6, 7, 126
11, 1031, Control_c, 6, 74, 84
11, 1032, Control_c, 6, 74, 84
11, 1032, Control_c, 6, 7, 126
11, 1033, Control_c, 6, 74, 84
11, 1033, Control_c, 6, 7, 126
11, 1034, Control_c, 6, 74, 84
11, 1034, Control_c, 6, 7, 126
11, 1035, Control_c, 6, 74, 84
11, 1036, Control_c, 6, 74, 84
11, 1036, Control_c, 6, 7, 126
11, 1037, Control_c, 6, 74, 84
11, 1037, Control_c, 6, 7, 126
11, 1038, Control_c, 6, 74, 84
11, 1038, Control_c, 6, 7, 126
11, 1039, Control_c, 6, 74, 84
11, 1040, Control_c, 6, 74, 84
11, 1040, Control_c, 6, 7, 126
11, 1041, Control_c, 6, 74, 84
11, 1041, Control_c, 6, 7, 126
11, 1042, Control_c, 6, 74, 84
11, 1042, Control_c, 6, 7, 126
11, 1043, Control_c, 6, 74, 84
11, 1044, Control_c, 6, 74, 84
11, 1044, Control_c, 6, 7, 126
11, 1045, Control_c, 6, 74, 84
11, 1045, Control_c, 6, 7, 126
11, 1046, Control_c, 6, 74, 84
11, 1046, Control_c, 6, 7, 126
11, 1047, Control_c, 6, 74, 84
11, 1048, Control_c, 6, 74, 84
11, 1048, Control_c, 6, 7, 126
11, 1049, Control_c, 6, 74, 84
11, 1049, Control_c, 6, 7, 126
11, 1050, Control_c, 6, 74, 84
11, 1050, Control_c, 6, 7, 126
11, 1051, Control_c, 6, 74, 84
11, 1052, Control_c, 6, 74, 84
11, 1052, Control_c, 6, 7, 126
11, 1053, Control_c, 6, 74, 84
11, 1053, Control_c, 6, 7, 126
11, 1054, Control_c, 6, 74, 84
11, 1054, Control_c, 6, 7, 126
11, 1055, Control_c, 6, 74, 84
11, 1056, Control_c, 6, 74, 83
11, 1056, Control_c, 6, 7, 126
11, 1057, Control_c, 6, 74, 83
11, 1057, Control_c, 6, 7, 126
11, 1058, Control_c, 6, 74, 83
11, 1058, Control_c, 6, 7, 126
11, 1059, Control_c, 6, 74, 83
11, 1060, Control_c, 6, 74, 83
11, 1060, Control_c, 6, 7, 126
11, 1061, Control_c, 6, 74, 83
11, 1061, Control_c, 6, 7, 126
11, 1062, Control_c, 6, 74, 83
11, 1062, Control_c, 6, 7, 126
11, 1063, Control_c, 6, 74, 83
11, 1064, Control_c, 6, 74, 83
11, 1064, Control_c, 6, 7, 126
11, 1065, Control_c, 6, 74, 83
11, 1065, Control_c, 6, 7, 126
11, 1066, Control_c, 6, 74, 83
11, 1066, Control_c, 6, 7, 126
11, 1067, Control_c, 6, 74, 83
11, 1068, Control_c, 6, 74, 83
11, 1068, Control_c, 6, 7, 126
11, 1069, Control_c, 6, 74, 83
11, 1069, Control_c, 6, 7, 126
11, 1070, Control_c, 6, 74, 83
11, 1070, Control_c, 6, 7, 126
11, 1071, Control_c, 6, 74, 83
11, 1072, Control_c, 6, 74, 83
11, 1072, Control_c, 6, 7, 126
11, 1073, Control_c, 6, 74, 83
11, 1073, Control_c, 6, 7, 126
11, 1074, Control_c, 6, 74, 83
11, 1074, Control_c, 6, 7, 126
11, 1075, Control_c, 6, 74, 83
11, 1076, Control_c, 6, 74, 83
11, 1076, Control_c, 6, 7, 126
11, 1077, Control_c, 6, 74, 83
11, 1077, Control_c, 6, 7, 126
11, 1078, Control_c, 6, 74, 83
11, 1078, Control_c, 6, 7, 126
11, 1079, Control_c, 6, 74, 83
11, 1080, Control_c, 6, 74, 83
11, 1080, Control_c, 6, 7, 126
11, 1081, Control_c, 6, 74, 83
11, 1081, Control_c, 6, 7, 126
11, 1082, Control_c, 6, 74, 83
11, 1082, Control_c, 6, 7, 126
11, 1083, Control_c, 6, 74, 83
11, 1084, Control_c, 6, 74, 83
11, 1084, Control_c, 6, 7, 126
11, 1085, Control_c, 6, 74, 83
11, 1085, Control_c, 6, 7, 126
11, 1086, Control_c, 6, 74, 83
11, 1086, Control_c, 6, 7, 126
11, 1087, Control_c, 6, 74, 83
11, 1088, Control_c, 6, 74, 83
11, 1088, Control_c, 6, 7, 126
11, 1089, Control_c, 6, 74, 83
11, 1089, Control_c, 6, 7, 126
11, 1090, Control_c, 6, 74, 83
11, 1090, Control_c, 6, 7, 126
11, 1091, Control_c, 6, 74, 83
11, 1092, Control_c, 6, 74, 83
11, 1092, Control_c, 6, 7, 126
11, 1093, Control_c, 6, 74, 83
11, 1093, Control_c, 6, 7, 126
11, 1094, Control_c, 6, 74, 83
11, 1094, Control_c, 6, 7, 126
11, 1095, Control_c, 6, 74, 83
11, 1096, Control_c, 6, 74, 83
11, 1096, Control_c, 6, 7, 126
11, 1097, Control_c, 6, 74, 82
11, 1097, Control_c, 6, 7, 126
11, 1098, Control_c, 6, 74, 82
11, 1098, Control_c, 6, 7, 126
11, 1099, Control_c, 6, 74, 82
11, 1100, Control_c, 6, 74, 82
11, 1100, Control_c, 6, 7, 126
11, 1101, Control_c, 6, 74, 82
11, 1101, Control_c, 6, 7, 126
11, 1102, Control_c, 6, 74, 82
11, 1102, Control_c, 6, 7, 126
11, 1103, Control_c, 6, 74, 82
11, 1104, Control_c, 6, 74, 82
11, 1104, Control_c, 6, 7, 126
11, 1105, Control_c, 6, 74, 82
11, 1105, Control_c, 6, 7, 126
11, 1106, Control_c, 6, 74, 82
11, 1106, Control_c, 6, 7, 126
11, 1107, Control_c, 6, 74, 82
11, 1108, Control_c, 6, 74, 82
11, 1108, Control_c, 6, 7, 126
11, 1109, Control_c, 6, 74, 82
11, 1109, Control_c, 6, 7, 126
11, 1110, Control_c, 6, 74, 82
11, 1110, Control_c, 6, 7, 126
11, 1111, Control_c, 6, 74, 82
11, 1112, Control_c, 6, 74, 82
11, 1112, Control_c, 6, 7, 126
11, 1113, Control_c, 6, 74, 82
11, 1113, Control_c, 6, 7, 126
11, 1114, Control_c, 6, 74, 82
11, 1114, Control_c, 6, 7, 126
11, 1115, Control_c, 6, 74, 82
11, 1116, Control_c, 6, 74, 82
11, 1116, Control_c, 6, 7, 126
11, 1117, Control_c, 6, 74, 82
11, 1117, Control_c, 6, 7, 126
11, 1118, Control_c, 6, 74, 82
11, 1118, Control_c, 6, 7, 126
11, 1119, Control_c, 6, 74, 82
11, 1120, Control_c, 6, 74, 82
11, 1120, Control_c, 6, 7, 126
11, 1121, Control_c, 6, 74, 82
11, 1121, Control_c, 6, 7, 126
11, 1122, Control_c, 6, 74, 82
11, 1122, Control_c, 6, 7, 126
11, 1123, Control_c, 6, 74, 82
11, 1124, Control_c, 6, 74, 82
11, 1124, Control_c, 6, 7, 126
11, 1125, Control_c, 6, 74, 82
11, 1125, Control_c, 6, 7, 126
11, 1126, Control_c, 6, 74, 82
11, 1126, Control_c, 6, 7, 126
11, 1127, Control_c, 6, 74, 82
11, 1128, Control_c, 6, 74, 82
11, 1128, Control_c, 6, 7, 126
11, 1129, Control_c, 6, 74, 82
11, 1129, Control_c, 6, 7, 126
11, 1130, Control_c, 6, 74, 82
11, 1130, Control_c, 6, 7, 126
11, 1131, Control_c, 6, 74, 82
11, 1132, Control_c, 6, 74, 82
11, 1132, Control_c, 6, 7, 126
11, 1133, Control_c, 6, 74, 82
11, 1133, Control_c, 6, 7, 126
11, 1134, Control_c, 6, 74, 82
11, 1134, Control_c, 6, 7, 126
11, 1135, Control_c, 6, 74, 82
11, 1136, Control_c, 6, 74, 82
11, 1136, Control_c, 6, 7, 126
11, 1137, Control_c, 6, 74, 82
11, 1137, Control_c, 6, 7, 126
11, 1138, Control_c, 6, 74, 81
11, 1138, Control_c, 6, 7, 126
11, 1139, Control_c, 6, 74, 81
11, 1140, Control_c, 6, 74, 81
11, 1140, Control_c, 6, 7, 126
11, 1141, Control_c, 6, 74, 81
11, 1141, Control_c, 6, 7, 126
11, 1142, Control_c, 6, 74, 81
11, 1142, Control_c, 6, 7, 126
11, 1143, Control_c, 6, 74, 81
11, 1144, Control_c, 6, 74, 81
11, 1144, Control_c, 6, 7, 126
11, 1145, Control_c, 6, 74, 81
11, 1145, Control_c, 6, 7, 126
11, 1146, Control_c, 6, 74, 81
11, 1146, Control_c, 6, 7, 126
11, 1147, Control_c, 6, 74, 81
11, 1148, Control_c, 6, 74, 81
11, 1148, Control_c, 6, 7, 126
11, 1149, Control_c, 6, 74, 81
11, 1149, Control_c, 6, 7, 126
11, 1150, Control_c, 6, 74, 81
11, 1150, Control_c, 6, 7, 126
11, 1151, Control_c, 6, 74, 81
11, 1152, Control_c, 6, 74, 81
11, 1152, Control_c, 6, 7, 126
11, 1153, Control_c, 6, 74, 81
11, 1153, Control_c, 6, 7, 126
11, 1154, Control_c, 6, 74, 81
11, 1154, Control_c, 6, 7, 126
11, 1155, Control_c, 6, 74, 81
11, 1156, Control_c, 6, 74, 81
11, 1156, Control_c, 6, 7, 126
11, 1157, Control_c, 6, 74, 81
11, 1157, Control_c, 6, 7, 126
11, 1158, Control_c, 6, 74, 81
11, 1158, Control_c, 6, 7, 126
11, 1159, Control_c, 6, 74, 81
11, 1160, Control_c, 6, 74, 81
11, 1160, Control_c, 6, 7, 126
11, 1161, Control_c, 6, 74, 81
11, 1161, Control_c, 6, 7, 126
11, 1162, Control_c, 6, 74, 81
11, 1162, Control_c, 6, 7, 126
11, 1163, Control_c, 6, 74, 81
11, 1164, Control_c, 6, 74, 81
11, 1164, Control_c, 6, 7, 126
11, 1165, Control_c, 6, 74, 81
11, 1165, Control_c, 6, 7, 126
11, 1166, Control_c, 6, 74, 81
11, 1166, Control_c, 6, 7, 126
11, 1167, Control_c, 6, 74, 81
11, 1168, Control_c, 6, 74, 81
11, 1168, Control_c, 6, 7, 126
11, 1169, Control_c, 6, 74, 81
11, 1169, Control_c, 6, 7, 126
11, 1170, Control_c, 6, 74, 81
11, 1170, Control_c, 6, 7, 126
11, 1171, Control_c, 6, 74, 81
11, 1172, Control_c, 6, 74, 81
11, 1172, Control_c, 6, 7, 126
11, 1173, Control_c, 6, 74, 81
11, 1173, Control_c, 6, 7, 126
11, 1174, Control_c, 6, 74, 81
11, 1174, Control_c, 6, 7, 126
11, 1175, Control_c, 6, 74, 81
11, 1176, Control_c, 6, 74, 81
11, 1176, Control_c, 6, 7, 126
11, 1177, Control_c, 6, 74, 81
11, 1177, Control_c, 6, 7, 126
11, 1178, Control_c, 6, 74, 81
11, 1178, Control_c, 6, 7, 126
11, 1179, Control_c, 6, 74, 81
11, 1180, Control_c, 6, 74, 80
11, 1180, Control_c, 6, 7, 126
11, 1181, Control_c, 6, 74, 80
11, 1181, Control_c, 6, 7, 126
11, 1182, Control_c, 6, 74, 80
11, 1182, Control_c, 6, 7, 126
11, 1183, Control_c, 6, 74, 80
11, 1184, Control_c, 6, 74, 80
11, 1184, Control_c, 6, 7, 126
11, 1185, Control_c, 6, 74, 80
11, 1185, Control_c, 6, 7, 126
11, 1186, Control_c, 6, 74, 80
11, 1186, Control_c, 6, 7, 126
11, 1187, Control_c, 6, 74, 80
11, 1188, Control_c, 6, 74, 80
11, 1188, Control_c, 6, 7, 126
11, 1189, Control_c, 6, 74, 80
11, 1189, Control_c, 6, 7, 126
11, 1190, Control_c, 6, 74, 80
11, 1190, Control_c, 6, 7, 126
11, 1191, Control_c, 6, 74, 80
11, 1192, Control_c, 6, 74, 80
11, 1192, Control_c, 6, 7, 126
11, 1193, Control_c, 6, 74, 80
11, 1193, Control_c, 6, 7, 126
11, 1194, Control_c, 6, 74, 80
11, 1194, Control_c, 6, 7, 126
11, 1195, Control_c, 6, 74, 80
11, 1196, Control_c, 6, 74, 80
11, 1196, Control_c, 6, 7, 126
11, 1197, Control_c, 6, 74, 80
11, 1197, Control_c, 6, 7, 126
11, 1198, Control_c, 6, 74, 80
11, 1199, Control_c, 6, 74, 80
11, 1199, Control_c, 6, 7, 126
11, 1200, Control_c, 6, 74, 80
11, 1200, Control_c, 6, 7, 126
11, 1201, Control_c, 6, 74, 80
11, 1201, Control_c, 6, 7, 126
11, 1202, Control_c, 6, 74, 80
11, 1203, Control_c, 6, 74, 80
11, 1203, Control_c, 6, 7, 126
11, 1204, Control_c, 6, 74, 80
11, 1204, Control_c, 6, 7, 126
11, 1205, Control_c, 6, 74, 80
11, 1205, Control_c, 6, 7, 126
11, 1206, Control_c, 6, 74, 80
11, 1207, Control_c, 6, 74, 80
11, 1207, Control_c, 6, 7, 126
11, 1208, Control_c, 6, 74, 80
11, 1208, Control_c, 6, 7, 126
11, 1209, Control_c, 6, 74, 80
11, 1209, Control_c, 6, 7, 126
11, 1210, Control_c, 6, 74, 80
11, 1211, Control_c, 6, 74, 80
11, 1211, Control_c, 6, 7, 126
11, 1212, Control_c, 6, 74, 80
11, 1212, Control_c, 6, 7, 126
11, 1213, Control_c, 6, 74, 80
11, 1213, Control_c, 6, 7, 126
11, 1214, Control_c, 6, 74, 80
11, 1215, Control_c, 6, 74, 80
11, 1215, Control_c, 6, 7, 126
11, 1216, Control_c, 6, 74, 80
11, 1216, Control_c, 6, 7, 126
11, 1217, Control_c, 6, 74, 80
11, 1217, Control_c, 6, 7, 126
11, 1218, Control_c, 6, 74, 80
11, 1219, Control_c, 6, 74, 80
11, 1219, Control_c, 6, 7, 126
11, 1220, Control_c, 6, 74, 80
11, 1220, Control_c, 6, 7, 126
11, 1221, Control_c, 6, 74, 79
11, 1221, Control_c, 6, 7, 126
11, 1222, Control_c, 6, 74, 79
11, 1223, Control_c, 6, 74, 79
11, 1223, Control_c, 6, 7, 126
11, 1224, Control_c, 6, 74, 79
11, 1224, Control_c, 6, 7, 126
11, 1225, Control_c, 6, 74, 79
11, 1225, Control_c, 6, 7, 126
11, 1226, Control_c, 6, 74, 79
11, 1227, Control_c, 6, 74, 79
11, 1227, Control_c, 6, 7, 126
11, 1228, Control_c, 6, 74, 79
11, 1228, Control_c, 6, 7, 126
11, 1229, Control_c, 6, 74, 79
11, 1229, Control_c, 6, 7, 126
11, 1230, Control_c, 6, 74, 79
11, 1231, Control_c, 6, 74, 79
11, 1231, Control_c, 6, 7, 126
11, 1232, Control_c, 6, 74, 79
11, 1232, Control_c, 6, 7, 126
11, 1233, Control_c, 6, 74, 79
11, 1233, Control_c, 6, 7, 126
11, 1234, Control_c, 6, 74, 79
11, 1235, Control_c, 6, 74, 79
11, 1235, Control_c, 6, 7, 126
11, 1236, Control_c, 6, 74, 79
11, 1236, Control_c, 6, 7, 126
11, 1237, Control_c, 6, 74, 79
11, 1237, Control_c, 6, 7, 126
11, 1238, Control_c, 6, 74, 79
11, 1239, Control_c, 6, 74, 79
11, 1239, Control_c, 6, 7, 126
11, 1240, Control_c, 6, 74, 79
11, 1240, Control_c, 6, 7, 126
11, 1241, Control_c, 6, 74, 79
11, 1241, Control_c, 6, 7, 126
11, 1242, Control_c, 6, 74, 79
11, 1243, Control_c, 6, 74, 79
11, 1243, Control_c, 6, 7, 126
11, 1244, Control_c, 6, 74, 79
11, 1244, Control_c, 6, 7, 126
11, 1245, Control_c, 6, 74, 79
11, 1245, Control_c, 6, 7, 126
11, 1246, Control_c, 6, 74, 79
11, 1247, Control_c, 6, 74, 79
11, 1247, Control_c, 6, 7, 126
11, 1248, Control_c, 6, 74, 79
11, 1248, Control_c, 6, 7, 126
11, 1249, Control_c, 6, 74, 79
11, 1249, Control_c, 6, 7, 126
11, 1250, Control_c, 6, 74, 79
11, 1251, Control_c, 6, 74, 79
11, 1251, Control_c, 6, 7, 126
11, 1252, Control_c, 6, 74, 79
11, 1252, Control_c, 6, 7, 126
11, 1253, Control_c, 6, 74, 79
11, 1253, Control_c, 6, 7, 126
11, 1254, Control_c, 6, 74, 79
11, 1255, Control_c, 6, 74, 79
11, 1255, Control_c, 6, 7, 126
11, 1256, Control_c, 6, 74, 79
11, 1256, Control_c, 6, 7, 126
11, 1257, Control_c, 6, 74, 79
11, 1257, Control_c, 6, 7, 126
11, 1258, Control_c, 6, 74, 79
11, 1259, Control_c, 6, 74, 79
11, 1259, Control_c, 6, 7, 126
11, 1260, Control_c, 6, 74, 79
11, 1260, Control_c, 6, 7, 126
11, 1261, Control_c, 6, 74, 79
11, 1261, Control_c, 6, 7, 126
11, 1262, Control_c, 6, 74, 79
11, 1263, Control_c, 6, 74, 78
11, 1263, Control_c, 6, 7, 126
11, 1264, Control_c, 6, 74, 78
11, 1264, Control_c, 6, 7, 126
11, 1265, Control_c, 6, 74, 78
11, 1265, Control_c, 6, 7, 126
11, 1266, Control_c, 6, 74, 78
11, 1267, Control_c, 6, 74, 78
11, 1267, Control_c, 6, 7, 126
11, 1268, Control_c, 6, 74, 78
11, 1268, Control_c, 6, 7, 126
11, 1269, Control_c, 6, 74, 78
11, 1269, Control_c, 6, 7, 126
11, 1270, Control_c, 6, 74, 78
11, 1271, Control_c, 6, 74, 78
11, 1271, Control_c, 6, 7, 126
11, 1272, Control_c, 6, 74, 78
11, 1272, Control_c, 6, 7, 126
11, 1273, Control_c, 6, 74, 78
11, 1273, Control_c, 6, 7, 126
11, 1274, Control_c, 6, 74, 78
11, 1275, Control_c, 6, 74, 78
11, 1275, Control_c, 6, 7, 126
11, 1276, Control_c, 6, 74, 78
11, 1276, Control_c, 6, 7, 126
11, 1277, Control_c, 6, 74, 78
11, 1277, Control_c, 6, 7, 126
11, 1278, Control_c, 6, 74, 78
11, 1279, Control_c, 6, 74, 78
11, 1279, Control_c, 6, 7, 126
11, 1280, Control_c, 6, 74, 78
11, 1280, Control_c, 6, 7, 126
11, 1281, Control_c, 6, 74, 78
11, 1281, Control_c, 6, 7, 126
11, 1282, Control_c, 6, 74, 78
11, 1283, Control_c, 6, 74, 78
11, 1283, Control_c, 6, 7, 126
11, 1284, Control_c, 6, 74, 78
11, 1284, Control_c, 6, 7, 126
11, 1285, Control_c, 6, 74, 78
11, 1285, Control_c, 6, 7, 126
11, 1286, Control_c, 6, 74, 78
11, 1287, Control_c, 6, 74, 78
11, 1287, Control_c, 6, 7, 126
11, 1288, Control_c, 6, 74, 78
11, 1288, Control_c, 6, 7, 126
11, 1289, Control_c, 6, 74, 78
11, 1289, Control_c, 6, 7, 126
11, 1290, Control_c, 6, 74, 78
11, 1291, Control_c, 6, 74, 78
11, 1291, Control_c, 6, 7, 126
11, 1292, Control_c, 6, 74, 78
11, 1292, Control_c, 6, 7, 126
11, 1293, Control_c, 6, 74, 78
11, 1293, Control_c, 6, 7, 126
11, 1294, Control_c, 6, 74, 78
11, 1295, Control_c, 6, 74, 78
11, 1295, Control_c, 6, 7, 126
11, 1296, Control_c, 6, 74, 78
11, 1296, Control_c, 6, 7, 126
11, 1297, Control_c, 6, 74, 78
11, 1297, Control_c, 6, 7, 126
11, 1298, Control_c, 6, 74, 78
11, 1299, Control_c, 6, 74, 78
11, 1299, Control_c, 6, 7, 126
11, 1300, Control_c, 6, 74, 78
11, 1300, Control_c, 6, 7, 126
11, 1301, Control_c, 6, 74, 78
11, 1301, Control_c, 6, 7, 126
11, 1302, Control_c, 6, 74, 78
11, 1303, Control_c, 6, 74, 78
11, 1303, Control_c, 6, 7, 126
11, 1304, Control_c, 6, 74, 77
11, 1304, Control_c, 6, 7, 126
11, 1305, Control_c, 6, 74, 77
11, 1305, Control_c, 6, 7, 126
11, 1306, Control_c, 6, 74, 77
11, 1307, Control_c, 6, 74, 77
11, 1307, Control_c, 6, 7, 126
11, 1308, Control_c, 6, 74, 77
11, 1308, Control_c, 6, 7, 126
11, 1309, Control_c, 6, 74, 77
11, 1309, Control_c, 6, 7, 126
11, 1310, Control_c, 6, 74, 77
11, 1311, Control_c, 6, 74, 77
11, 1311, Control_c, 6, 7, 126
11, 1312, Control_c, 6, 74, 77
11, 1312, Control_c, 6, 7, 126
11, 1313, Control_c, 6, 74, 77
11, 1313, Control_c, 6, 7, 126
11, 1314, Control_c, 6, 74, 77
11, 1315, Control_c, 6, 74, 77
11, 1315, Control_c, 6, 7, 126
11, 1316, Control_c, 6, 74, 77
11, 1316, Control_c, 6, 7, 126
11, 1317, Control_c, 6, 74, 77
11, 1317, Control_c, 6, 7, 126
11, 1318, Control_c, 6, 74, 77
11, 1319, Control_c, 6, 74, 77
11, 1319, Control_c, 6, 7, 126
11, 1320, Control_c, 6, 74, 77
11, 1320, Control_c, 6, 7, 126
11, 1321, Control_c, 6, 74, 77
11, 1321, Control_c, 6, 7, 126
11, 1322, Control_c, 6, 74, 77
11, 1323, Control_c, 6, 74, 77
11, 1323, Control_c, 6, 7, 126
11, 1324, Control_c, 6, 74, 77
11, 1324, Control_c, 6, 7, 126
11, 1325, Control_c, 6, 74, 77
11, 1325, Control_c, 6, 7, 126
11, 1326, Control_c, 6, 74, 77
11, 1327, Control_c, 6, 74, 77
11, 1327, Control_c, 6, 7, 126
11, 1328, Control_c, 6, 74, 77
11, 1328, Control_c, 6, 7, 126
11, 1329, Control_c, 6, 74, 77
11, 1329, Control_c, 6, 7, 126
11, 1330, Control_c, 6, 74, 77
11, 1331, Control_c, 6, 74, 77
11, 1331, Control_c, 6, 7, 126
11, 1332, Control_c, 6, 74, 77
11, 1332, Control_c, 6, 7, 126
11, 1333, Control_c, 6, 74, 77
11, 1333, Control_c, 6, 7, 126
11, 1334, Control_c, 6, 74, 77
11, 1335, Control_c, 6, 74, 77
11, 1335, Control_c, 6, 7, 126
11, 1336, Control_c, 6, 74, 77
11, 1336, Control_c, 6, 7, 126
11, 1337, Control_c, 6, 74, 77
11, 1337, Control_c, 6, 7, 126
11, 1338, Control_c, 6, 74, 77
11, 1339, Control_c, 6, 74, 77
11, 1339, Control_c, 6, 7, 126
11, 1340, Control_c, 6, 74, 77
11, 1340, Control_c, 6, 7, 126
11, 1341, Control_c, 6, 74, 77
11, 1341, Control_c, 6, 7, 126
11, 1342, Control_c, 6, 74, 77
11, 1343, Control_c, 6, 74, 77
11, 1343, Control_c, 6, 7, 126
11, 1344, Control_c, 6, 74, 77
11, 1344, Control_c, 6, 7, 126
11, 1345, Control_c, 6, 74, 77
11, 1345, Control_c, 6, 7, 126
11, 1346, Control_c, 6, 74, 76
11, 1347, Control_c, 6, 74, 76
11, 1347, Control_c, 6, 7, 126
11, 1348, Control_c, 6, 74, 76
11, 1348, Control_c, 6, 7, 126
11, 1349, Control_c, 6, 74, 76
11, 1349, Control_c, 6, 7, 126
11, 1350, Control_c, 6, 74, 76
11, 1351, Control_c, 6, 74, 76
11, 1351, Control_c, 6, 7, 126
11, 1352, Control_c, 6, 74, 76
11, 1352, Control_c, 6, 7, 126
11, 1353, Control_c, 6, 74, 76
11, 1353, Control_c, 6, 7, 126
11, 1354, Control_c, 6, 74, 76
11, 1355, Control_c, 6, 74, 76
11, 1355, Control_c, 6, 7, 126
11, 1356, Control_c, 6, 74, 76
11, 1356, Control_c, 6, 7, 126
11, 1357, Control_c, 6, 74, 76
11, 1357, Control_c, 6, 7, 126
11, 1358, Control_c, 6, 74, 76
11, 1359, Control_c, 6, 74, 76
11, 1359, Control_c, 6, 7, 126
11, 1360, Control_c, 6, 74, 76
11, 1360, Control_c, 6, 7, 126
11, 1361, Control_c, 6, 74, 76
11, 1361, Control_c, 6, 7, 126
11, 1362, Control_c, 6, 74, 76
11, 1363, Control_c, 6, 74, 76
11, 1363, Control_c, 6, 7, 126
11, 1364, Control_c, 6, 74, 76
11, 1364, Control_c, 6, 7, 126
11, 1365, Control_c, 6, 74, 76
11, 1365, Control_c, 6, 7, 126
11, 1366, Control_c, 6, 74, 76
11, 1367, Control_c, 6, 74, 76
11, 1367, Control_c, 6, 7, 126
11, 1368, Control_c, 6, 74, 76
11, 1368, Control_c, 6, 7, 126
11, 1369, Control_c, 6, 74, 76
11, 1370, Control_c, 6, 74, 76
11, 1370, Control_c, 6, 7, 126
11, 1371, Control_c, 6, 74, 76
11, 1371, Control_c, 6, 7, 125
11, 1372, Control_c, 6, 74, 76
11, 1372, Control_c, 6, 7, 125
11, 1373, Control_c, 6, 74, 76
11, 1374, Control_c, 6, 74, 76
11, 1374, Control_c, 6, 7, 125
11, 1375, Control_c, 6, 74, 76
11, 1375, Control_c, 6, 7, 125
11, 1376, Control_c, 6, 74, 76
11, 1376, Control_c, 6, 7, 125
11, 1377, Control_c, 6, 74, 76
11, 1378, Control_c, 6, 74, 76
11, 1378, Control_c, 6, 7, 125
11, 1379, Control_c, 6, 74, 76
11, 1379, Control_c, 6, 7, 125
11, 1380, Control_c, 6, 74, 76
11, 1380, Control_c, 6, 7, 125
11, 1381, Control_c, 6, 74, 76
11, 1382, Control_c, 6, 74, 76
11, 1382, Control_c, 6, 7, 125
11, 1383, Control_c, 6, 74, 76
11, 1383, Control_c, 6, 7, 125
11, 1384, Control_c, 6, 74, 76
11, 1384, Control_c, 6, 7, 125
11, 1385, Control_c, 6, 74, 76
11, 1386, Control_c, 6, 74, 76
11, 1386, Control_c, 6, 7, 125
11, 1387, Control_c, 6, 74, 75
11, 1387, Control_c, 6, 7, 125
11, 1388, Control_c, 6, 74, 75
11, 1388, Control_c, 6, 7, 125
11, 1389, Control_c, 6, 74, 75
11, 1390, Control_c, 6, 74, 75
11, 1390, Control_c, 6, 7, 125
11, 1391, Control_c, 6, 74, 75
11, 1391, Control_c, 6, 7, 125
11, 1392, Control_c, 6, 74, 75
11, 1392, Control_c, 6, 7, 125
11, 1393, Control_c, 6, 74, 75
11, 1394, Control_c, 6, 74, 75
11, 1394, Control_c, 6, 7, 125
11, 1395, Control_c, 6, 74, 75
11, 1395, Control_c, 6, 7, 125
11, 1396, Control_c, 6, 74, 75
11, 1396, Control_c, 6, 7, 125
11, 1397, Control_c, 6, 74, 75
11, 1398, Control_c, 6, 74, 75
11, 1398, Control_c, 6, 7, 125
11, 1399, Control_c, 6, 74, 75
11, 1399, Control_c, 6, 7, 125
11, 1400, Control_c, 6, 74, 75
11, 1400, Control_c, 6, 7, 125
11, 1401, Control_c, 6, 74, 75
11, 1402, Control_c, 6, 74, 75
11, 1402, Control_c, 6, 7, 125
11, 1403, Control_c, 6, 74, 75
11, 1403, Control_c, 6, 7, 125
11, 1404, Control_c, 6, 74, 75
11, 1404, Control_c, 6, 7, 125
11, 1405, Control_c, 6, 74, 75
11, 1406, Control_c, 6, 74, 75
11, 1406, Control_c, 6, 7, 125
11, 1407, Control_c, 6, 74, 75
11, 1407, Control_c, 6, 7, 125
11, 1408, Control_c, 6, 74, 75
11, 1408, Control_c, 6, 7, 125
11, 1409, Control_c, 6, 74, 75
11, 1410, Control_c, 6, 74, 75
11, 1410, Control_c, 6, 7, 125
11, 1411, Control_c, 6, 74, 75
11, 1411, Control_c, 6, 7, 125
11, 1412, Control_c, 6, 74, 75
11, 1412, Control_c, 6, 7, 125
11, 1413, Control_c, 6, 74, 75
11, 1414, Control_c, 6, 74, 75
11, 1414, Control_c, 6, 7, 125
11, 1415, Control_c, 6, 74, 75
11, 1415, Control_c, 6, 7, 125
11, 1416, Control_c, 6, 74, 75
11, 1416, Control_c, 6, 7, 125
11, 1417, Control_c, 6, 74, 75
11, 1418, Control_c, 6, 74, 75
11, 1418, Control_c, 6, 7, 125
11, 1419, Control_c, 6, 74, 75
11, 1419, Control_c, 6, 7, 125
11, 1420, Control_c, 6, 74, 75
11, 1420, Control_c, 6, 7, 125
11, 1421, Control_c, 6, 74, 75
11, 1422, Control_c, 6, 74, 75
11, 1422, Control_c, 6, 7, 125
11, 1423, Control_c, 6, 74, 75
11, 1423, Control_c, 6, 7, 125
11, 1424, Control_c, 6, 74, 75
11, 1424, Control_c, 6, 7, 125
11, 1425, Control_c, 6, 74, 75
11, 1426, Control_c, 6, 74, 75
11, 1426, Control_c, 6, 7, 125
11, 1427, Control_c, 6, 74, 75
11, 1427, Control_c, 6, 7, 125
11, 1428, Control_c, 6, 74, 75
11, 1428, Control_c, 6, 7, 125
11, 1429, Control_c, 6, 74, 74
11, 1430, Control_c, 6, 74, 74
11, 1430, Control_c, 6, 7, 125
11, 1431, Control_c, 6, 74, 74
11, 1431, Control_c, 6, 7, 125
11, 1432, Control_c, 6, 74, 74
11, 1432, Control_c, 6, 7, 125
11, 1433, Control_c, 6, 74, 74
11, 1434, Control_c, 6, 74, 74
11, 1434, Control_c, 6, 7, 125
11, 1435, Control_c, 6, 74, 74
11, 1435, Control_c, 6, 7, 125
11, 1436, Control_c, 6, 74, 74
11, 1436, Control_c, 6, 7, 125
11, 1437, Control_c, 6, 74, 74
11, 1438, Control_c, 6, 74, 74
11, 1438, Control_c, 6, 7, 125
11, 1439, Control_c, 6, 74, 74
11, 1439, Control_c, 6, 7, 125
11, 1440, Control_c, 6, 74, 74
11, 1440, Control_c, 6, 7, 125
11, 1441, Control_c, 6, 74, 74
11, 1442, Control_c, 6, 74, 74
11, 1442, Control_c, 6, 7, 125
11, 1443, Control_c, 6, 74, 74
11, 1443, Control_c, 6, 7, 125
11, 1444, Control_c, 6, 74, 74
11, 1444, Control_c, 6, 7, 125
11, 1445, Control_c, 6, 74, 74
11, 1446, Control_c, 6, 74, 74
11, 1446, Control_c, 6, 7, 125
11, 1447, Control_c, 6, 74, 74
11, 1447, Control_c, 6, 7, 125
11, 1448, Control_c, 6, 74, 74
11, 1448, Control_c, 6, 7, 125
11, 1449, Control_c, 6, 74, 74
11, 1450, Control_c, 6, 74, 74
11, 1450, Control_c, 6, 7, 125
11, 1451, Control_c, 6, 74, 74
11, 1451, Control_c, 6, 7, 125
11, 1452, Control_c, 6, 74, 74
11, 1452, Control_c, 6, 7, 125
11, 1453, Control_c, 6, 74, 74
11, 1454, Control_c, 6, 74, 74
11, 1454, Control_c, 6, 7, 125
11, 1455, Control_c, 6, 74, 74
11, 1455, Control_c, 6, 7, 125
11, 1456, Control_c, 6, 74, 74
11, 1456, Control_c, 6, 7, 125
11, 1457, Control_c, 6, 74, 74
11, 1458, Control_c, 6, 74, 74
11, 1458, Control_c, 6, 7, 125
11, 1459, Control_c, 6, 74, 74
11, 1459, Control_c, 6, 7, 125
11, 1460, Control_c, 6, 74, 74
11, 1460, Control_c, 6, 7, 125
11, 1461, Control_c, 6, 74, 74
11, 1462, Control_c, 6, 74, 74
11, 1462, Control_c, 6, 7, 125
11, 1463, Control_c, 6, 74, 74
11, 1463, Control_c, 6, 7, 125
11, 1464, Control_c, 6, 74, 74
11, 1464, Control_c, 6, 7, 125
11, 1465, Control_c, 6, 74, 74
11, 1466, Control_c, 6, 74, 74
11, 1466, Control_c, 6, 7, 125
11, 1467, Control_c, 6, 74, 74
11, 1467, Control_c, 6, 7, 125
11, 1468, Control_c, 6, 74, 74
11, 1468, Control_c, 6, 7, 125
11, 1469, Control_c, 6, 74, 74
11, 1470, Control_c, 6, 74, 73
11, 1470, Control_c, 6, 7, 125
11, 1471, Control_c, 6, 74, 73
11, 1471, Control_c, 6, 7, 125
11, 1472, Control_c, 6, 74, 73
11, 1472, Control_c, 6, 7, 125
11, 1473, Control_c, 6, 74, 73
11, 1474, Control_c, 6, 74, 73
11, 1474, Control_c, 6, 7, 125
11, 1475, Control_c, 6, 74, 73
11, 1475, Control_c, 6, 7, 125
11, 1476, Control_c, 6, 74, 73
11, 1476, Control_c, 6, 7, 125
11, 1477, Control_c, 6, 74, 73
11, 1478, Control_c, 6, 74, 73
11, 1478, Control_c, 6, 7, 125
11, 1479, Control_c, 6, 74, 73
11, 1479, Control_c, 6, 7, 125
11, 1480, Control_c, 6, 74, 73
11, 1480, Control_c, 6, 7, 125
11, 1481, Control_c, 6, 74, 73
11, 1482, Control_c, 6, 74, 73
11, 1482, Control_c, 6, 7, 125
11, 1483, Control_c, 6, 74, 73
11, 1483, Control_c, 6, 7, 125
11, 1484, Control_c, 6, 74, 73
11, 1484, Control_c, 6, 7, 125
11, 1485, Control_c, 6, 74, 73
11, 1486, Control_c, 6, 74, 73
11, 1486, Control_c, 6, 7, 125
11, 1487, Control_c, 6, 74, 73
11, 1487, Control_c, 6, 7, 125
11, 1488, Control_c, 6, 74, 73
11, 1488, Control_c, 6, 7, 125
11, 1489, Control_c, 6, 74, 73
11, 1490, Control_c, 6, 74, 73
11, 1490, Control_c, 6, 7, 125
11, 1491, Control_c, 6, 74, 73
11, 1491, Control_c, 6, 7, 125
11, 1492, Control_c, 6, 74, 73
11, 1492, Control_c, 6, 7, 125
11, 1493, Control_c, 6, 74, 73
11, 1494, Control_c, 6, 74, 73
11, 1494, Control_c, 6, 7, 125
11, 1495, Control_c, 6, 74, 73
11, 1495, Control_c, 6, 7, 125
11, 1496, Control_c, 6, 74, 73
11, 1496, Control_c, 6, 7, 125
11, 1497, Control_c, 6, 74, 73
11, 1498, Control_c, 6, 74, 73
11, 1498, Control_c, 6, 7, 125
11, 1499, Control_c, 6, 74, 73
11, 1499, Control_c, 6, 7, 125
11, 1500, Control_c, 6, 74, 73
11, 1500, Control_c, 6, 7, 125
11, 1501, Control_c, 6, 74, 73
11, 1502, Control_c, 6, 74, 73
11, 1502, Control_c, 6, 7, 125
11, 1503, Control_c, 6, 74, 73
11, 1503, Control_c, 6, 7, 125
11, 1504, Control_c, 6, 74, 73
11, 1504, Control_c, 6, 7, 125
11, 1505, Control_c, 6, 74, 73
11, 1506, Control_c, 6, 74, 73
11, 1506, Control_c, 6, 7, 125
11, 1507, Control_c, 6, 74, 73
11, 1507, Control_c, 6, 7, 125
11, 1508, Control_c, 6, 74, 73
11, 1508, Control_c, 6, 7, 125
11, 1509, Control_c, 6, 74, 73
11, 1510, Control_c, 6, 74, 73
11, 1510, Control_c, 6, 7, 125
11, 1511, Control_c, 6, 74, 73
11, 1511, Control_c, 6, 7, 125
11, 1512, Control_c, 6, 74, 72
11, 1512, Control_c, 6, 7, 125
11, 1513, Control_c, 6, 74, 72
11, 1514, Control_c, 6, 74, 72
11, 1514, Control_c, 6, 7, 125
11, 1515, Control_c, 6, 74, 72
11, 1515, Control_c, 6, 7, 125
11, 1516, Control_c, 6, 74, 72
11, 1516, Control_c, 6, 7, 125
11, 1517, Control_c, 6, 74, 72
11, 1518, Control_c, 6, 74, 72
11, 1518, Control_c, 6, 7, 125
11, 1519, Control_c, 6, 74, 72
11, 1519, Control_c, 6, 7, 125
11, 1520, Control_c, 6, 74, 72
11, 1520, Control_c, 6, 7, 125
11, 1521, Control_c, 6, 74, 72
11, 1522, Control_c, 6, 74, 72
11, 1522, Control_c, 6, 7, 125
11, 1523, Control_c, 6, 74, 72
11, 1523, Control_c, 6, 7, 125
11, 1524, Control_c, 6, 74, 72
11, 1524, Control_c, 6, 7, 125
11, 1525, Control_c, 6, 74, 72
11, 1526, Control_c, 6, 74, 72
11, 1526, Control_c, 6, 7, 125
11, 1527, Control_c, 6, 74, 72
11, 1527, Control_c, 6, 7, 125
11, 1528, Control_c, 6, 74, 72
11, 1528, Control_c, 6, 7, 125
11, 1529, Control_c, 6, 74, 72
11, 1530, Control_c, 6, 74, 72
11, 1530, Control_c, 6, 7, 125
11, 1531, Control_c, 6, 74, 72
11, 1531, Control_c, 6, 7, 125
11, 1532, Control_c, 6, 74, 72
11, 1532, Control_c, 6, 7, 125
11, 1533, Control_c, 6, 74, 72
11, 1534, Control_c, 6, 74, 72
11, 1534, Control_c, 6, 7, 125
11, 1535, Control_c, 6, 74, 72
11, 1535, Control_c, 6, 7, 125
11, 1536, Control_c, 6, 74, 72
11, 1536, Control_c, 6, 7, 125
11, 1537, Control_c, 6, 74, 72
11, 1538, Control_c, 6, 74, 72
11, 1538, Control_c, 6, 7, 125
11, 1539, Control_c, 6, 74, 72
11, 1539, Control_c, 6, 7, 125
11, 1540, Control_c, 6, 74, 72
11, 1541, Control_c, 6, 74, 72
11, 1541, Control_c, 6, 7, 125
11, 1542, Control_c, 6, 74, 72
11, 1542, Control_c, 6, 7, 125
11, 1543, Control_c, 6, 74, 72
11, 1543, Control_c, 6, 7, 125
11, 1544, Control_c, 6, 74, 72
11, 1545, Control_c, 6, 74, 72
11, 1545, Control_c, 6, 7, 125
11, 1546, Control_c, 6, 74, 72
11, 1546, Control_c, 6, 7, 125
11, 1547, Control_c, 6, 74, 72
11, 1547, Control_c, 6, 7, 125
11, 1548, Control_c, 6, 74, 72
11, 1549, Control_c, 6, 74, 72
11, 1549, Control_c, 6, 7, 125
11, 1550, Control_c, 6, 74, 72
11, 1550, Control_c, 6, 7, 125
11, 1551, Control_c, 6, 74, 72
11, 1551, Control_c, 6, 7, 125
11, 1552, Control_c, 6, 74, 72
11, 1553, Control_c, 6, 74, 71
11, 1553, Control_c, 6, 7, 125
11, 1554, Control_c, 6, 74, 71
11, 1554, Control_c, 6, 7, 125
11, 1555, Control_c, 6, 74, 71
11, 1555, Control_c, 6, 7, 125
11, 1556, Control_c, 6, 74, 71
11, 1557, Control_c, 6, 74, 71
11, 1557, Control_c, 6, 7, 125
11, 1558, Control_c, 6, 74, 71
11, 1558, Control_c, 6, 7, 125
11, 1559, Control_c, 6, 74, 71
11, 1559, Control_c, 6, 7, 125
11, 1560, Control_c, 6, 74, 71
11, 1561, Control_c, 6, 74, 71
11, 1561, Control_c, 6, 7, 125
11, 1562, Control_c, 6, 74, 71
11, 1562, Control_c, 6, 7, 125
11, 1563, Control_c, 6, 74, 71
11, 1563, Control_c, 6, 7, 125
11, 1564, Control_c, 6, 74, 71
11, 1565, Control_c, 6, 74, 71
11, 1565, Control_c, 6, 7, 125
11, 1566, Control_c, 6, 74, 71
11, 1566, Control_c, 6, 7, 125
11, 1567, Control_c, 6, 74, 71
11, 1567, Control_c, 6, 7, 125
11, 1568, Control_c, 6, 74, 71
11, 1569, Control_c, 6, 74, 71
11, 1569, Control_c, 6, 7, 125
11, 1570, Control_c, 6, 74, 71
11, 1570, Control_c, 6, 7, 125
11, 1571, Control_c, 6, 74, 71
11, 1571, Control_c, 6, 7, 125
11, 1572, Control_c, 6, 74, 71
11, 1573, Control_c, 6, 74, 71
11, 1573, Control_c, 6, 7, 125
11, 1574, Control_c, 6, 74, 71
11, 1574, Control_c, 6, 7, 125
11, 1575, Control_c, 6, 74, 71
11, 1575, Control_c, 6, 7, 125
11, 1576, Control_c, 6, 74, 71
11, 1577, Control_c, 6, 74, 71
11, 1577, Control_c, 6, 7, 125
11, 1578, Control_c, 6, 74, 71
11, 1578, Control_c, 6, 7, 125
11, 1579, Control_c, 6, 74, 71
11, 1579, Control_c, 6, 7, 125
11, 1580, Control_c, 6, 74, 71
11, 1581, Control_c, 6, 74, 71
11, 1581, Control_c, 6, 7, 125
11, 1582, Control_c, 6, 74, 71
11, 1582, Control_c, 6, 7, 125
11, 1583, Control_c, 6, 74, 71
11, 1583, Control_c, 6, 7, 125
11, 1584, Control_c, 6, 74, 71
11, 1585, Control_c, 6, 74, 71
11, 1585, Control_c, 6, 7, 125
11, 1586, Control_c, 6, 74, 71
11, 1586, Control_c, 6, 7, 125
11, 1587, Control_c, 6, 74, 71
11, 1587, Control_c, 6, 7, 125
11, 1588, Control_c, 6, 74, 71
11, 1589, Control_c, 6, 74, 71
11, 1589, Control_c, 6, 7, 125
11, 1590, Control_c, 6, 74, 71
11, 1590, Control_c, 6, 7, 125
11, 1591, Control_c, 6, 74, 71
11, 1591, Control_c, 6, 7, 125
11, 1592, Control_c, 6, 74, 71
11, 1593, Control_c, 6, 74, 71
11, 1593, Control_c, 6, 7, 125
11, 1594, Control_c, 6, 74, 70
11, 1594, Control_c, 6, 7, 125
11, 1595, Control_c, 6, 74, 70
11, 1595, Control_c, 6, 7, 125
11, 1596, Control_c, 6, 74, 70
11, 1597, Control_c, 6, 74, 70
11, 1597, Control_c, 6, 7, 125
11, 1598, Control_c, 6, 74, 70
11, 1598, Control_c, 6, 7, 125
11, 1599, Control_c, 6, 74, 70
11, 1599, Control_c, 6, 7, 125
11, 1600, Control_c, 6, 74, 70
11, 1601, Control_c, 6, 74, 70
11, 1601, Control_c, 6, 7, 125
11, 1602, Control_c, 6, 74, 70
11, 1602, Control_c, 6, 7, 125
11, 1603, Control_c, 6, 74, 70
11, 1603, Control_c, 6, 7, 125
11, 1604, Control_c, 6, 74, 70
11, 1605, Control_c, 6, 74, 70
11, 1605, Control_c, 6, 7, 125
11, 1606, Control_c, 6, 74, 70
11, 1606, Control_c, 6, 7, 125
11, 1607, Control_c, 6, 74, 70
11, 1607, Control_c, 6, 7, 125
11, 1608, Control_c, 6, 74, 70
11, 1609, Control_c, 6, 74, 70
11, 1609, Control_c, 6, 7, 125
11, 1610, Control_c, 6, 74, 70
11, 1610, Control_c, 6, 7, 125
11, 1611, Control_c, 6, 74, 70
11, 1611, Control_c, 6, 7, 125
11, 1612, Control_c, 6, 74, 70
11, 1613, Control_c, 6, 74, 70
11, 1613, Control_c, 6, 7, 125
11, 1614, Control_c, 6, 74, 70
11, 1614, Control_c, 6, 7, 125
11, 1615, Control_c, 6, 74, 70
11, 1615, Control_c, 6, 7, 125
11, 1616, Control_c, 6, 74, 70
11, 1617, Control_c, 6, 74, 70
11, 1617, Control_c, 6, 7, 125
11, 1618, Control_c, 6, 74, 70
11, 1618, Control_c, 6, 7, 125
11, 1619, Control_c, 6, 74, 70
11, 1619, Control_c, 6, 7, 125
11, 1620, Control_c, 6, 74, 70
11, 1621, Control_c, 6, 74, 70
11, 1621, Control_c, 6, 7, 125
11, 1622, Control_c, 6, 74, 70
11, 1622, Control_c, 6, 7, 125
11, 1623, Control_c, 6, 74, 70
11, 1623, Control_c, 6, 7, 125
11, 1624, Control_c, 6, 74, 70
11, 1625, Control_c, 6, 74, 70
11, 1625, Control_c, 6, 7, 125
11, 1626, Control_c, 6, 74, 70
11, 1626, Control_c, 6, 7, 125
11, 1627, Control_c, 6, 74, 70
11, 1627, Control_c, 6, 7, 125
11, 1628, Control_c, 6, 74, 70
11, 1629, Control_c, 6, 74, 70
11, 1629, Control_c, 6, 7, 125
11, 1630, Control_c, 6, 74, 70
11, 1630, Control_c, 6, 7, 125
11, 1631, Control_c, 6, 74, 70
11, 1631, Control_c, 6, 7, 125
11, 1632, Control_c, 6, 74, 70
11, 1633, Control_c, 6, 74, 70
11, 1633, Control_c, 6, 7, 125
11, 1634, Control_c, 6, 74, 70
11, 1634, Control_c, 6, 7, 125
11, 1635, Control_c, 6, 74, 70
11, 1635, Control_c, 6, 7, 125
11, 1636, Control_c, 6, 74, 69
11, 1637, Control_c, 6, 74, 69
11, 1637, Control_c, 6, 7, 125
11, 1638, Control_c, 6, 74, 69
11, 1638, Control_c, 6, 7, 125
11, 1639, Control_c, 6, 74, 69
11, 1639, Control_c, 6, 7, 125
11, 1640, Control_c, 6, 74, 69
11, 1641, Control_c, 6, 74, 69
11, 1641, Control_c, 6, 7, 125
11, 1642, Control_c, 6, 74, 69
11, 1642, Control_c, 6, 7, 125
11, 1643, Control_c, 6, 74, 69
11, 1643, Control_c, 6, 7, 125
11, 1644, Control_c, 6, 74, 69
11, 1645, Control_c, 6, 74, 69
11, 1645, Control_c, 6, 7, 125
11, 1646, Control_c, 6, 74, 69
11, 1646, Control_c, 6, 7, 125
11, 1647, Control_c, 6, 74, 69
11, 1647, Control_c, 6, 7, 125
11, 1648, Control_c, 6, 74, 69
11, 1649, Control_c, 6, 74, 69
11, 1649, Control_c, 6, 7, 125
11, 1650, Control_c, 6, 74, 69
11, 1650, Control_c, 6, 7, 125
11, 1651, Control_c, 6, 74, 69
11, 1651, Control_c, 6, 7, 125
11, 1652, Control_c, 6, 74, 69
11, 1653, Control_c, 6, 74, 69
11, 1653, Control_c, 6, 7, 125
11, 1654, Control_c, 6, 74, 69
11, 1654, Control_c, 6, 7, 125
11, 1655, Control_c, 6, 74, 69
11, 1655, Control_c, 6, 7, 125
11, 1656, Control_c, 6, 74, 69
11, 1657, Control_c, 6, 74, 69
11, 1657, Control_c, 6, 7, 125
11, 1658, Control_c, 6, 74, 69
11, 1658, Control_c, 6, 7, 125
11, 1659, Control_c, 6, 74, 69
11, 1659, Control_c, 6, 7, 125
11, 1660, Control_c, 6, 74, 69
11, 1661, Control_c, 6, 74, 69
11, 1661, Control_c, 6, 7, 125
11, 1662, Control_c, 6, 74, 69
11, 1662, Control_c, 6, 7, 125
11, 1663, Control_c, 6, 74, 69
11, 1663, Control_c, 6, 7, 125
11, 1664, Control_c, 6, 74, 69
11, 1665, Control_c, 6, 74, 69
11, 1665, Control_c, 6, 7, 125
11, 1666, Control_c, 6, 74, 69
11, 1666, Control_c, 6, 7, 125
11, 1667, Control_c, 6, 74, 69
11, 1667, Control_c, 6, 7, 125
11, 1668, Control_c, 6, 74, 69
11, 1669, Control_c, 6, 74, 69
11, 1669, Control_c, 6, 7, 125
11, 1670, Control_c, 6, 74, 69
11, 1670, Control_c, 6, 7, 125
11, 1671, Control_c, 6, 74, 69
11, 1671, Control_c, 6, 7, 125
11, 1672, Control_c, 6, 74, 69
11, 1673, Control_c, 6, 74, 69
11, 1673, Control_c, 6, 7, 125
11, 1674, Control_c, 6, 74, 69
11, 1674, Control_c, 6, 7, 125
11, 1675, Control_c, 6, 74, 69
11, 1675, Control_c, 6, 7, 125
11, 1676, Control_c, 6, 74, 69
11, 1677, Control_c, 6, 74, 68
11, 1677, Control_c, 6, 7, 125
11, 1678, Control_c, 6, 74, 68
11, 1678, Control_c, 6, 7, 125
11, 1679, Control_c, 6, 74, 68
11, 1679, Control_c, 6, 7, 125
11, 1680, Control_c, 6, 74, 68
11, 1681, Control_c, 6, 74, 68
11, 1681, Control_c, 6, 7, 125
11, 1682, Control_c, 6, 74, 68
11, 1682, Control_c, 6, 7, 125
11, 1683, Control_c, 6, 74, 68
11, 1683, Control_c, 6, 7, 125
11, 1684, Control_c, 6, 74, 68
11, 1685, Control_c, 6, 74, 68
11, 1685, Control_c, 6, 7, 125
11, 1686, Control_c, 6, 74, 68
11, 1686, Control_c, 6, 7, 125
11, 1687, Control_c, 6, 74, 68
11, 1687, Control_c, 6, 7, 125
11, 1688, Control_c, 6, 74, 68
11, 1689, Control_c, 6, 74, 68
11, 1689, Control_c, 6, 7, 125
11, 1690, Control_c, 6, 74, 68
11, 1690, Control_c, 6, 7, 125
11, 1691, Control_c, 6, 74, 68
11, 1691, Control_c, 6, 7, 125
11, 1692, Control_c, 6, 74, 68
11, 1693, Control_c, 6, 74, 68
11, 1693, Control_c, 6, 7, 125
11, 1694, Control_c, 6, 74, 68
11, 1694, Control_c, 6, 7, 125
11, 1695, Control_c, 6, 74, 68
11, 1695, Control_c, 6, 7, 125
11, 1696, Control_c, 6, 74, 68
11, 1697, Control_c, 6, 74, 68
11, 1697, Control_c, 6, 7, 125
11, 1698, Control_c, 6, 74, 68
11, 1698, Control_c, 6, 7, 125
11, 1699, Control_c, 6, 74, 68
11, 1699, Control_c, 6, 7, 125
11, 1700, Control_c, 6, 74, 68
11, 1701, Control_c, 6, 74, 68
11, 1701, Control_c, 6, 7, 125
11, 1702, Control_c, 6, 74, 68
11, 1702, Control_c, 6, 7, 125
11, 1703, Control_c, 6, 74, 68
11, 1703, Control_c, 6, 7, 125
11, 1704, Control_c, 6, 74, 68
11, 1705, Control_c, 6, 74, 68
11, 1705, Control_c, 6, 7, 125
11, 1706, Control_c, 6, 74, 68
11, 1706, Control_c, 6, 7, 125
11, 1707, Control_c, 6, 74, 68
11, 1707, Control_c, 6, 7, 125
11, 1708, Control_c, 6, 74, 68
11, 1709, Control_c, 6, 74, 68
11, 1709, Control_c, 6, 7, 125
11, 1710, Control_c, 6, 74, 68
11, 1710, Control_c, 6, 7, 125
11, 1711, Control_c, 6, 74, 68
11, 1711, Control_c, 6, 7, 125
11, 1712, Control_c, 6, 74, 68
11, 1713, Control_c, 6, 74, 68
11, 1713, Control_c, 6, 7, 125
11, 1714, Control_c, 6, 74, 68
11, 1714, Control_c, 6, 7, 125
11, 1715, Control_c, 6, 74, 68
11, 1716, Control_c, 6, 74, 68
11, 1716, Control_c, 6, 7, 125
11, 1717, Control_c, 6, 74, 68
11, 1717, Control_c, 6, 7, 125
11, 1718, Control_c, 6, 74, 68
11, 1718, Control_c, 6, 7, 125
11, 1719, Control_c, 6, 74, 67
11, 1720, Control_c, 6, 74, 67
11, 1720, Control_c, 6, 7, 125
11, 1721, Control_c, 6, 74, 67
11, 1721, Control_c, 6, 7, 125
11, 1722, Control_c, 6, 74, 67
11, 1722, Control_c, 6, 7, 125
11, 1723, Control_c, 6, 74, 67
11, 1724, Control_c, 6, 74, 67
11, 1724, Control_c, 6, 7, 125
11, 1725, Control_c, 6, 74, 67
11, 1725, Control_c, 6, 7, 125
11, 1726, Control_c, 6, 74, 67
11, 1726, Control_c, 6, 7, 125
11, 1727, Control_c, 6, 74, 67
11, 1728, Control_c, 6, 74, 67
11, 1728, Control_c, 6, 7, 125
11, 1729, Control_c, 6, 74, 67
11, 1729, Control_c, 6, 7, 125
11, 1730, Control_c, 6, 74, 67
11, 1730, Control_c, 6, 7, 125
11, 1731, Control_c, 6, 74, 67
11, 1732, Control_c, 6, 74, 67
11, 1732, Control_c, 6, 7, 125
11, 1733, Control_c, 6, 74, 67
11, 1733, Control_c, 6, 7, 125
11, 1734, Control_c, 6, 74, 67
11, 1734, Control_c, 6, 7, 125
11, 1735, Control_c, 6, 74, 67
11, 1736, Control_c, 6, 74, 67
11, 1736, Control_c, 6, 7, 125
11, 1737, Control_c, 6, 74, 67
11, 1737, Control_c, 6, 7, 125
11, 1738, Control_c, 6, 74, 67
11, 1738, Control_c, 6, 7, 125
11, 1739, Control_c, 6, 74, 67
11, 1740, Control_c, 6, 74, 67
11, 1740, Control_c, 6, 7, 125
11, 1741, Control_c, 6, 74, 67
11, 1741, Control_c, 6, 7, 125
11, 1742, Control_c, 6, 74, 67
11, 1742, Control_c, 6, 7, 125
11, 1743, Control_c, 6, 74, 67
11, 1744, Control_c, 6, 74, 67
11, 1744, Control_c, 6, 7, 125
11, 1745, Control_c, 6, 74, 67
11, 1745, Control_c, 6, 7, 125
11, 1746, Control_c, 6, 74, 67
11, 1746, Control_c, 6, 7, 125
11, 1747, Control_c, 6, 74, 67
11, 1748, Control_c, 6, 74, 67
11, 1748, Control_c, 6, 7, 125
11, 1749, Control_c, 6, 74, 67
11, 1749, Control_c, 6, 7, 125
11, 1750, Control_c, 6, 74, 67
11, 1750, Control_c, 6, 7, 125
11, 1751, Control_c, 6, 74, 67
11, 1752, Control_c, 6, 74, 67
11, 1752, Control_c, 6, 7, 125
11, 1753, Control_c, 6, 74, 67
11, 1753, Control_c, 6, 7, 125
11, 1754, Control_c, 6, 74, 67
11, 1754, Control_c, 6, 7, 125
11, 1755, Control_c, 6, 74, 67
11, 1756, Control_c, 6, 74, 67
11, 1756, Control_c, 6, 7, 125
11, 1757, Control_c, 6, 74, 67
11, 1757, Control_c, 6, 7, 125
11, 1758, Control_c, 6, 74, 67
11, 1758, Control_c, 6, 7, 125
11, 1759, Control_c, 6, 74, 67
11, 1760, Control_c, 6, 74, 66
11, 1760, Control_c, 6, 7, 125
11, 1761, Control_c, 6, 74, 66
11, 1761, Control_c, 6, 7, 125
11, 1762, Control_c, 6, 74, 66
11, 1762, Control_c, 6, 7, 125
11, 1763, Control_c, 6, 74, 66
11, 1764, Control_c, 6, 74, 66
11, 1764, Control_c, 6, 7, 125
11, 1765, Control_c, 6, 74, 66
11, 1765, Control_c, 6, 7, 125
11, 1766, Control_c, 6, 74, 66
11, 1766, Control_c, 6, 7, 125
11, 1767, Control_c, 6, 74, 66
11, 1768, Control_c, 6, 74, 66
11, 1768, Control_c, 6, 7, 125
11, 1769, Control_c, 6, 74, 66
11, 1769, Control_c, 6, 7, 125
11, 1770, Control_c, 6, 74, 66
11, 1770, Control_c, 6, 7, 125
11, 1771, Control_c, 6, 74, 66
11, 1772, Control_c, 6, 74, 66
11, 1772, Control_c, 6, 7, 125
11, 1773, Control_c, 6, 74, 66
11, 1773, Control_c, 6, 7, 125
11, 1774, Control_c, 6, 74, 66
11, 1774, Control_c, 6, 7, 125
11, 1775, Control_c, 6, 74, 66
11, 1776, Control_c, 6, 74, 66
11, 1776, Control_c, 6, 7, 125
11, 1777, Control_c, 6, 74, 66
11, 1777, Control_c, 6, 7, 125
11, 1778, Control_c, 6, 74, 66
11, 1778, Control_c, 6, 7, 125
11, 1779, Control_c, 6, 74, 66
11, 1780, Control_c, 6, 74, 66
11, 1780, Control_c, 6, 7, 125
11, 1781, Control_c, 6, 74, 66
11, 1781, Control_c, 6, 7, 125
11, 1782, Control_c, 6, 74, 66
11, 1782, Control_c, 6, 7, 125
11, 1783, Control_c, 6, 74, 66
11, 1784, Control_c, 6, 74, 66
11, 1784, Control_c, 6, 7, 125
11, 1785, Control_c, 6, 74, 66
11, 1785, Control_c, 6, 7, 125
11, 1786, Control_c, 6, 74, 66
11, 1786, Control_c, 6, 7, 125
11, 1787, Control_c, 6, 74, 66
11, 1788, Control_c, 6, 74, 66
11, 1788, Control_c, 6, 7, 125
11, 1789, Control_c, 6, 74, 66
11, 1789, Control_c, 6, 7, 125
11, 1790, Control_c, 6, 74, 66
11, 1790, Control_c, 6, 7, 125
11, 1791, Control_c, 6, 74, 66
11, 1792, Control_c, 6, 74, 66
11, 1792, Control_c, 6, 7, 125
11, 1793, Control_c, 6, 74, 66
11, 1793, Control_c, 6, 7, 125
11, 1794, Control_c, 6, 74, 66
11, 1794, Control_c, 6, 7, 125
11, 1795, Control_c, 6, 74, 66
11, 1796, Control_c, 6, 74, 66
11, 1796, Control_c, 6, 7, 125
11, 1797, Control_c, 6, 74, 66
11, 1797, Control_c, 6, 7, 125
11, 1798, Control_c, 6, 74, 66
11, 1798, Control_c, 6, 7, 125
11, 1799, Control_c, 6, 74, 66
11, 1800, Control_c, 6, 74, 66
11, 1800, Control_c, 6, 7, 125
11, 1801, Control_c, 6, 74, 66
11, 1801, Control_c, 6, 7, 125
11, 1802, Control_c, 6, 74, 65
11, 1802, Control_c, 6, 7, 125
11, 1803, Control_c, 6, 74, 65
11, 1804, Control_c, 6, 74, 65
11, 1804, Control_c, 6, 7, 125
11, 1805, Control_c, 6, 74, 65
11, 1805, Control_c, 6, 7, 125
11, 1806, Control_c, 6, 74, 65
11, 1806, Control_c, 6, 7, 125
11, 1807, Control_c, 6, 74, 65
11, 1808, Control_c, 6, 74, 65
11, 1808, Control_c, 6, 7, 125
11, 1809, Control_c, 6, 74, 65
11, 1809, Control_c, 6, 7, 125
11, 1810, Control_c, 6, 74, 65
11, 1810, Control_c, 6, 7, 125
11, 1811, Control_c, 6, 74, 65
11, 1812, Control_c, 6, 74, 65
11, 1812, Control_c, 6, 7, 125
11, 1813, Control_c, 6, 74, 65
11, 1813, Control_c, 6, 7, 125
11, 1814, Control_c, 6, 74, 65
11, 1814, Control_c, 6, 7, 125
11, 1815, Control_c, 6, 74, 65
11, 1816, Control_c, 6, 74, 65
11, 1816, Control_c, 6, 7, 125
11, 1817, Control_c, 6, 74, 65
11, 1817, Control_c, 6, 7, 125
11, 1818, Control_c, 6, 74, 65
11, 1818, Control_c, 6, 7, 125
11, 1819, Control_c, 6, 74, 65
11, 1820, Control_c, 6, 74, 65
11, 1820, Control_c, 6, 7, 125
11, 1821, Control_c, 6, 74, 65
11, 1821, Control_c, 6, 7, 125
11, 1822, Control_c, 6, 74, 65
11, 1822, Control_c, 6, 7, 125
11, 1823, Control_c, 6, 74, 65
11, 1824, Control_c, 6, 74, 65
11, 1824, Control_c, 6, 7, 125
11, 1825, Control_c, 6, 74, 65
11, 1825, Control_c, 6, 7, 125
11, 1826, Control_c, 6, 74, 65
11, 1826, Control_c, 6, 7, 125
11, 1827, Control_c, 6, 74, 65
11, 1828, Control_c, 6, 74, 65
11, 1828, Control_c, 6, 7, 125
11, 1829, Control_c, 6, 74, 65
11, 1829, Control_c, 6, 7, 125
11, 1830, Control_c, 6, 74, 65
11, 1830, Control_c, 6, 7, 125
11, 1831, Control_c, 6, 74, 65
11, 1832, Control_c, 6, 74, 65
11, 1832, Control_c, 6, 7, 125
11, 1833, Control_c, 6, 74, 65
11, 1833, Control_c, 6, 7, 125
11, 1834, Control_c, 6, 74, 65
11, 1834, Control_c, 6, 7, 125
11, 1835, Control_c, 6, 74, 65
11, 1836, Control_c, 6, 74, 65
11, 1836, Control_c, 6, 7, 125
11, 1837, Control_c, 6, 74, 65
11, 1837, Control_c, 6, 7, 125
11, 1838, Control_c, 6, 74, 65
11, 1838, Control_c, 6, 7, 125
11, 1839, Control_c, 6, 74, 65
11, 1840, Control_c, 6, 74, 65
11, 1840, Control_c, 6, 7, 125
11, 1841, Control_c, 6, 74, 65
11, 1841, Control_c, 6, 7, 125
11, 1842, Control_c, 6, 74, 65
11, 1842, Control_c, 6, 7, 125
11, 1843, Control_c, 6, 74, 64
11, 1844, Control_c, 6, 74, 64
11, 1844, Control_c, 6, 7, 125
11, 1845, Control_c, 6, 74, 64
11, 1845, Control_c, 6, 7, 125
11, 1846, Control_c, 6, 74, 64
11, 1846, Control_c, 6, 7, 125
11, 1847, Control_c, 6, 74, 64
11, 1848, Control_c, 6, 74, 64
11, 1848, Control_c, 6, 7, 125
11, 1849, Control_c, 6, 74, 64
11, 1849, Control_c, 6, 7, 125
11, 1850, Control_c, 6, 74, 64
11, 1850, Control_c, 6, 7, 125
11, 1851, Control_c, 6, 74, 64
11, 1852, Control_c, 6, 74, 64
11, 1852, Control_c, 6, 7, 125
11, 1853, Control_c, 6, 74, 64
11, 1853, Control_c, 6, 7, 125
11, 1854, Control_c, 6, 74, 64
11, 1854, Control_c, 6, 7, 125
11, 1855, Control_c, 6, 74, 64
11, 1856, Control_c, 6, 74, 64
11, 1856, Control_c, 6, 7, 125
11, 1857, Control_c, 6, 74, 64
11, 1857, Control_c, 6, 7, 125
11, 1858, Control_c, 6, 74, 64
11, 1858, Control_c, 6, 7, 125
11, 1859, Control_c, 6, 74, 64
11, 1860, Control_c, 6, 74, 64
11, 1860, Control_c, 6, 7, 125
11, 1861, Control_c, 6, 74, 64
11, 1861, Control_c, 6, 7, 125
11, 1862, Control_c, 6, 74, 64
11, 1862, Control_c, 6, 7, 125
11, 1863, Control_c, 6, 74, 64
11, 1864, Control_c, 6, 74, 64
11, 1864, Control_c, 6, 7, 125
11, 1865, Control_c, 6, 74, 64
11, 1865, Control_c, 6, 7, 125
11, 1866, Control_c, 6, 74, 64
11, 1866, Control_c, 6, 7, 125
11, 1867, Control_c, 6, 74, 64
11, 1868, Control_c, 6, 74, 64
11, 1868, Control_c, 6, 7, 125
11, 1869, Control_c, 6, 74, 64
11, 1869, Control_c, 6, 7, 125
11, 1870, Control_c, 6, 74, 64
11, 1870, Control_c, 6, 7, 125
11, 1871, Control_c, 6, 74, 64
11, 1872, Control_c, 6, 74, 64
11, 1872, Control_c, 6, 7, 125
11, 1873, Control_c, 6, 74, 64
11, 1873, Control_c, 6, 7, 125
11, 1874, Control_c, 6, 74, 64
11, 1874, Control_c, 6, 7, 125
11, 1875, Control_c, 6, 74, 64
11, 1876, Control_c, 6, 74, 64
11, 1876, Control_c, 6, 7, 125
11, 1877, Control_c, 6, 74, 64
11, 1877, Control_c, 6, 7, 125
11, 1878, Control_c, 6, 74, 64
11, 1878, Control_c, 6, 7, 125
11, 1879, Control_c, 6, 74, 64
11, 1880, Control_c, 6, 74, 64
11, 1880, Control_c, 6, 7, 125
11, 1881, Control_c, 6, 74, 64
11, 1881, Control_c, 6, 7, 125
11, 1882, Control_c, 6, 74, 64
11, 1882, Control_c, 6, 7, 125
11, 1883, Control_c, 6, 74, 64
11, 1884, Control_c, 6, 74, 64
11, 1884, Control_c, 6, 7, 125
11, 1885, Control_c, 6, 74, 63
11, 1885, Control_c, 6, 7, 125
11, 1886, Control_c, 6, 74, 63
11, 1887, Control_c, 6, 74, 63
11, 1887, Control_c, 6, 7, 125
11, 1888, Control_c, 6, 74, 63
11, 1888, Control_c, 6, 7, 125
11, 1889, Control_c, 6, 74, 63
11, 1889, Control_c, 6, 7, 125
11, 1890, Control_c, 6, 74, 63
11, 1891, Control_c, 6, 74, 63
11, 1891, Control_c, 6, 7, 125
11, 1892, Control_c, 6, 74, 63
11, 1892, Control_c, 6, 7, 125
11, 1893, Control_c, 6, 74, 63
11, 1893, Control_c, 6, 7, 125
11, 1894, Control_c, 6, 74, 63
11, 1895, Control_c, 6, 74, 63
11, 1895, Control_c, 6, 7, 125
11, 1896, Control_c, 6, 74, 63
11, 1896, Control_c, 6, 7, 125
11, 1897, Control_c, 6, 74, 63
11, 1897, Control_c, 6, 7, 125
11, 1898, Control_c, 6, 74, 63
11, 1899, Control_c, 6, 74, 63
11, 1899, Control_c, 6, 7, 125
11, 1900, Control_c, 6, 74, 63
11, 1900, Control_c, 6, 7, 125
11, 1901, Control_c, 6, 74, 63
11, 1901, Control_c, 6, 7, 125
11, 1902, Control_c, 6, 74, 63
11, 1903, Control_c, 6, 74, 63
11, 1903, Control_c, 6, 7, 125
11, 1904, Control_c, 6, 74, 63
11, 1904, Control_c, 6, 7, 125
11, 1905, Control_c, 6, 74, 63
11, 1905, Control_c, 6, 7, 125
11, 1906, Control_c, 6, 74, 63
11, 1907, Control_c, 6, 74, 63
11, 1907, Control_c, 6, 7, 125
11, 1908, Control_c, 6, 74, 63
11, 1908, Control_c, 6, 7, 125
11, 1909, Control_c, 6, 74, 63
11, 1909, Control_c, 6, 7, 125
11, 1910, Control_c, 6, 74, 63
11, 1911, Control_c, 6, 74, 63
11, 1911, Control_c, 6, 7, 125
11, 1912, Control_c, 6, 74, 63
11, 1912, Control_c, 6, 7, 125
11, 1913, Control_c, 6, 74, 63
11, 1913, Control_c, 6, 7, 125
11, 1914, Control_c, 6, 74, 63
11, 1915, Control_c, 6, 74, 63
11, 1915, Control_c, 6, 7, 125
11, 1916, Control_c, 6, 74, 63
11, 1916, Control_c, 6, 7, 125
11, 1917, Control_c, 6, 74, 63
11, 1917, Control_c, 6, 7, 125
11, 1918, Control_c, 6, 74, 63
11, 1919, Control_c, 6, 74, 63
11, 1919, Control_c, 6, 7, 125
11, 1920, Control_c, 6, 74, 63
11, 1920, Control_c, 6, 7, 125
11, 1921, Control_c, 6, 74, 63
11, 1921, Control_c, 6, 7, 125
11, 1922, Control_c, 6, 74, 63
11, 1923, Control_c, 6, 74, 63
11, 1923, Control_c, 6, 7, 125
11, 1924, Control_c, 6, 74, 63
11, 1924, Control_c, 6, 7, 125
11, 1925, Control_c, 6, 74, 63
11, 1925, Control_c, 6, 7, 125
11, 1926, Control_c, 6, 74, 62
11, 1927, Control_c, 6, 74, 62
11, 1927, Control_c, 6, 7, 125
11, 1928, Control_c, 6, 74, 62
11, 1928, Control_c, 6, 7, 125
11, 1929, Control_c, 6, 74, 62
11, 1929, Control_c, 6, 7, 125
11, 1930, Control_c, 6, 74, 62
11, 1931, Control_c, 6, 74, 62
11, 1931, Control_c, 6, 7, 125
11, 1932, Control_c, 6, 74, 62
11, 1932, Control_c, 6, 7, 125
11, 1933, Control_c, 6, 74, 62
11, 1933, Control_c, 6, 7, 125
11, 1934, Control_c, 6, 74, 62
11, 1935, Control_c, 6, 74, 62
11, 1935, Control_c, 6, 7, 125
11, 1936, Control_c, 6, 74, 62
11, 1936, Control_c, 6, 7, 125
11, 1937, Control_c, 6, 74, 62
11, 1937, Control_c, 6, 7, 125
11, 1938, Control_c, 6, 74, 62
11, 1939, Control_c, 6, 74, 62
11, 1939, Control_c, 6, 7, 125
11, 1940, Control_c, 6, 74, 62
11, 1940, Control_c, 6, 7, 125
11, 1941, Control_c, 6, 74, 62
11, 1941, Control_c, 6, 7, 125
11, 1942, Control_c, 6, 74, 62
11, 1943, Control_c, 6, 74, 62
11, 1943, Control_c, 6, 7, 125
11, 1944, Control_c, 6, 74, 62
11, 1944, Control_c, 6, 7, 125
11, 1945, Control_c, 6, 74, 62
11, 1945, Control_c, 6, 7, 125
11, 1946, Control_c, 6, 74, 62
11, 1947, Control_c, 6, 74, 62
11, 1947, Control_c, 6, 7, 125
11, 1948, Control_c, 6, 74, 62
11, 1948, Control_c, 6, 7, 125
11, 1949, Control_c, 6, 74, 62
11, 1949, Control_c, 6, 7, 125
11, 1950, Control_c, 6, 74, 62
11, 1951, Control_c, 6, 74, 62
11, 1951, Control_c, 6, 7, 125
11, 1952, Control_c, 6, 74, 62
11, 1952, Control_c, 6, 7, 125
11, 1953, Control_c, 6, 74, 62
11, 1953, Control_c, 6, 7, 125
11, 1954, Control_c, 6, 74, 62
11, 1955, Control_c, 6, 74, 62
11, 1955, Control_c, 6, 7, 125
11, 1956, Control_c, 6, 74, 62
11, 1956, Control_c, 6, 7, 125
11, 1957, Control_c, 6, 74, 62
11, 1957, Control_c, 6, 7, 125
11, 1958, Control_c, 6, 74, 62
11, 1959, Control_c, 6, 74, 62
11, 1959, Control_c, 6, 7, 125
11, 1960, Control_c, 6, 74, 62
11, 1960, Control_c, 6, 7, 125
11, 1961, Control_c, 6, 74, 62
11, 1961, Control_c, 6, 7, 125
11, 1962, Control_c, 6, 74, 62
11, 1963, Control_c, 6, 74, 62
11, 1963, Control_c, 6, 7, 125
11, 1964, Control_c, 6, 74, 62
11, 1964, Control_c, 6, 7, 125
11, 1965, Control_c, 6, 74, 62
11, 1965, Control_c, 6, 7, 125
11, 1966, Control_c, 6, 74, 62
11, 1967, Control_c, 6, 74, 62
11, 1967, Control_c, 6, 7, 125
11, 1968, Control_c, 6, 74, 61
11, 1968, Control_c, 6, 7, 125
11, 1969, Control_c, 6, 74, 61
11, 1969, Control_c, 6, 7, 125
11, 1970, Control_c, 6, 74, 61
11, 1971, Control_c, 6, 74, 61
11, 1971, Control_c, 6, 7, 125
11, 1972, Control_c, 6, 74, 61
11, 1972, Control_c, 6, 7, 125
11, 1973, Control_c, 6, 74, 61
11, 1973, Control_c, 6, 7, 125
11, 1974, Control_c, 6, 74, 61
11, 1975, Control_c, 6, 74, 61
11, 1975, Control_c, 6, 7, 125
11, 1976, Control_c, 6, 74, 61
11, 1976, Control_c, 6, 7, 125
11, 1977, Control_c, 6, 74, 61
11, 1977, Control_c, 6, 7, 125
11, 1978, Control_c, 6, 74, 61
11, 1979, Control_c, 6, 74, 61
11, 1979, Control_c, 6, 7, 125
11, 1980, Control_c, 6, 74, 61
11, 1980, Control_c, 6, 7, 125
11, 1981, Control_c, 6, 74, 61
11, 1981, Control_c, 6, 7, 125
11, 1982, Control_c, 6, 74, 61
11, 1983, Control_c, 6, 74, 61
11, 1983, Control_c, 6, 7, 125
11, 1984, Control_c, 6, 74, 61
11, 1984, Control_c, 6, 7, 125
11, 1985, Control_c, 6, 74, 61
11, 1985, Control_c, 6, 7, 125
11, 1986, Control_c, 6, 74, 61
11, 1987, Control_c, 6, 74, 61
11, 1987, Control_c, 6, 7, 125
11, 1988, Control_c, 6, 74, 61
11, 1988, Control_c, 6, 7, 125
11, 1989, Control_c, 6, 74, 61
11, 1989, Control_c, 6, 7, 125
11, 1990, Control_c, 6, 74, 61
11, 1991, Control_c, 6, 74, 61
11, 1991, Control_c, 6, 7, 125
11, 1992, Control_c, 6, 74, 61
11, 1992, Control_c, 6, 7, 125
11, 1993, Control_c, 6, 74, 61
11, 1993, Control_c, 6, 7, 125
11, 1994, Control_c, 6, 74, 61
11, 1995, Control_c, 6, 74, 61
11, 1995, Control_c, 6, 7, 125
11, 1996, Control_c, 6, 74, 61
11, 1996, Control_c, 6, 7, 125
11, 1997, Control_c, 6, 74, 61
11, 1997, Control_c, 6, 7, 125
11, 1998, Control_c, 6, 74, 61
11, 1999, Control_c, 6, 74, 61
11, 1999, Control_c, 6, 7, 125
11, 2000, Control_c, 6, 74, 61
11, 2000, Control_c, 6, 7, 125
11, 2001, Control_c, 6, 74, 61
11, 2001, Control_c, 6, 7, 125
11, 2002, Control_c, 6, 74, 61
11, 2003, Control_c, 6, 74, 61
11, 2003, Control_c, 6, 7, 125
11, 2004, Control_c, 6, 74, 61
11, 2004, Control_c, 6, 7, 125
11, 2005, Control_c, 6, 74, 61
11, 2005, Control_c, 6, 7, 125
11, 2006, Control_c, 6, 74, 61
11, 2007, Control_c, 6, 74, 61
11, 2007, Control_c, 6, 7, 125
11, 2008, Control_c, 6, 74, 61
11, 2008, Control_c, 6, 7, 125
11, 2009, Control_c, 6, 74, 60
11, 2009, Control_c, 6, 7, 125
11, 2010, Control_c, 6, 74, 60
11, 2011, Control_c, 6, 74, 60
11, 2011, Control_c, 6, 7, 125
11, 2012, Control_c, 6, 74, 60
11, 2012, Control_c, 6, 7, 125
11, 2013, Control_c, 6, 74, 60
11, 2013, Control_c, 6, 7, 125
11, 2014, Control_c, 6, 74, 60
11, 2015, Control_c, 6, 74, 60
11, 2015, Control_c, 6, 7, 125
11, 2016, Control_c, 6, 74, 60
11, 2016, Control_c, 6, 7, 125
11, 2017, Control_c, 6, 74, 60
11, 2017, Control_c, 6, 7, 125
11, 2018, Control_c, 6, 74, 60
11, 2019, Control_c, 6, 74, 60
11, 2019, Control_c, 6, 7, 125
11, 2020, Control_c, 6, 74, 60
11, 2020, Control_c, 6, 7, 125
11, 2021, Control_c, 6, 74, 60
11, 2021, Control_c, 6, 7, 125
11, 2022, Control_c, 6, 74, 60
11, 2023, Control_c, 6, 74, 60
11, 2023, Control_c, 6, 7, 125
11, 2024, Control_c, 6, 74, 60
11, 2024, Control_c, 6, 7, 125
11, 2025, Control_c, 6, 74, 60
11, 2025, Control_c, 6, 7, 125
11, 2026, Control_c, 6, 74, 60
11, 2027, Control_c, 6, 74, 60
11, 2027, Control_c, 6, 7, 125
11, 2028, Control_c, 6, 74, 60
11, 2028, Control_c, 6, 7, 125
11, 2029, Control_c, 6, 74, 60
11, 2029, Control_c, 6, 7, 125
11, 2030, Control_c, 6, 74, 60
11, 2031, Control_c, 6, 74, 60
11, 2031, Control_c, 6, 7, 125
11, 2032, Control_c, 6, 74, 60
11, 2032, Control_c, 6, 7, 125
11, 2033, Control_c, 6, 74, 60
11, 2033, Control_c, 6, 7, 125
11, 2034, Control_c, 6, 74, 60
11, 2035, Control_c, 6, 74, 60
11, 2035, Control_c, 6, 7, 125
11, 2036, Control_c, 6, 74, 60
11, 2036, Control_c, 6, 7, 125
11, 2037, Control_c, 6, 74, 60
11, 2037, Control_c, 6, 7, 125
11, 2038, Control_c, 6, 74, 60
11, 2039, Control_c, 6, 74, 60
11, 2039, Control_c, 6, 7, 125
11, 2040, Control_c, 6, 74, 60
11, 2040, Control_c, 6, 7, 125
11, 2041, Control_c, 6, 74, 60
11, 2041, Control_c, 6, 7, 125
11, 2042, Control_c, 6, 74, 60
11, 2043, Control_c, 6, 74, 60
11, 2043, Control_c, 6, 7, 125
11, 2044, Control_c, 6, 74, 60
11, 2044, Control_c, 6, 7, 125
11, 2045, Control_c, 6, 74, 60
11, 2045, Control_c, 6, 7, 125
11, 2046, Control_c, 6, 74, 60
11, 2047, Control_c, 6, 74, 60
11, 2047, Control_c, 6, 7, 125
11, 2048, Control_c, 6, 74, 60
11, 2048, Control_c, 6, 7, 125
11, 2049, Control_c, 6, 74, 60
11, 2049, Control_c, 6, 7, 125
11, 2050, Control_c, 6, 74, 59
11, 2051, Control_c, 6, 74, 59
11, 2051, Control_c, 6, 7, 125
11, 2052, Control_c, 6, 74, 59
11, 2052, Control_c, 6, 7, 125
11, 2053, Control_c, 6, 74, 59
11, 2053, Control_c, 6, 7, 125
11, 2054, Control_c, 6, 74, 59
11, 2055, Control_c, 6, 74, 59
11, 2055, Control_c, 6, 7, 124
11, 2056, Control_c, 6, 74, 59
11, 2056, Control_c, 6, 7, 124
11, 2057, Control_c, 6, 74, 59
11, 2058, Control_c, 6, 74, 59
11, 2058, Control_c, 6, 7, 124
11, 2059, Control_c, 6, 74, 59
11, 2059, Control_c, 6, 7, 124
11, 2060, Control_c, 6, 74, 59
11, 2060, Control_c, 6, 7, 124
11, 2061, Control_c, 6, 74, 59
11, 2062, Control_c, 6, 74, 59
11, 2062, Control_c, 6, 7, 124
11, 2063, Control_c, 6, 74, 59
11, 2063, Control_c, 6, 7, 124
11, 2064, Control_c, 6, 74, 59
11, 2064, Control_c, 6, 7, 124
11, 2065, Control_c, 6, 74, 59
11, 2066, Control_c, 6, 74, 59
11, 2066, Control_c, 6, 7, 124
11, 2067, Control_c, 6, 74, 59
11, 2067, Control_c, 6, 7, 124
11, 2068, Control_c, 6, 74, 59
11, 2068, Control_c, 6, 7, 124
11, 2069, Control_c, 6, 74, 59
11, 2070, Control_c, 6, 74, 59
11, 2070, Control_c, 6, 7, 124
11, 2071, Control_c, 6, 74, 59
11, 2071, Control_c, 6, 7, 124
11, 2072, Control_c, 6, 74, 59
11, 2072, Control_c, 6, 7, 124
11, 2073, Control_c, 6, 74, 59
11, 2074, Control_c, 6, 74, 59
11, 2074, Control_c, 6, 7, 124
11, 2075, Control_c, 6, 74, 59
11, 2075, Control_c, 6, 7, 124
11, 2076, Control_c, 6, 74, 59
11, 2076, Control_c, 6, 7, 124
11, 2077, Control_c, 6, 74, 59
11, 2078, Control_c, 6, 74, 59
11, 2078, Control_c, 6, 7, 124
11, 2079, Control_c, 6, 74, 59
11, 2079, Control_c, 6, 7, 124
11, 2080, Control_c, 6, 74, 59
11, 2080, Control_c, 6, 7, 124
11, 2081, Control_c, 6, 74, 59
11, 2082, Control_c, 6, 74, 59
11, 2082, Control_c, 6, 7, 124
11, 2083, Control_c, 6, 74, 59
11, 2083, Control_c, 6, 7, 124
11, 2084, Control_c, 6, 74, 59
11, 2084, Control_c, 6, 7, 124
11, 2085, Control_c, 6, 74, 59
11, 2086, Control_c, 6, 74, 59
11, 2086, Control_c, 6, 7, 124
11, 2087, Control_c, 6, 74, 59
11, 2087, Control_c, 6, 7, 124
11, 2088, Control_c, 6, 74, 59
11, 2088, Control_c, 6, 7, 124
11, 2089, Control_c, 6, 74, 59
11, 2090, Control_c, 6, 74, 59
11, 2090, Control_c, 6, 7, 124
11, 2091, Control_c, 6, 74, 59
11, 2091, Control_c, 6, 7, 124
11, 2092, Control_c, 6, 74, 58
11, 2092, Control_c, 6, 7, 124
11, 2093, Control_c, 6, 74, 58
11, 2094, Control_c, 6, 74, 58
11, 2094, Control_c, 6, 7, 124
11, 2095, Control_c, 6, 74, 58
11, 2095, Control_c, 6, 7, 124
11, 2096, Control_c, 6, 74, 58
11, 2096, Control_c, 6, 7, 124
11, 2097, Control_c, 6, 74, 58
11, 2098, Control_c, 6, 74, 58
11, 2098, Control_c, 6, 7, 124
11, 2099, Control_c, 6, 74, 58
11, 2099, Control_c, 6, 7, 124
11, 2100, Control_c, 6, 74, 58
11, 2100, Control_c, 6, 7, 124
11, 2101, Control_c, 6, 74, 58
11, 2102, Control_c, 6, 74, 58
11, 2102, Control_c, 6, 7, 124
11, 2103, Control_c, 6, 74, 58
11, 2103, Control_c, 6, 7, 124
11, 2104, Control_c, 6, 74, 58
11, 2104, Control_c, 6, 7, 124
11, 2105, Control_c, 6, 74, 58
11, 2106, Control_c, 6, 74, 58
11, 2106, Control_c, 6, 7, 124
11, 2107, Control_c, 6, 74, 58
11, 2107, Control_c, 6, 7, 124
11, 2108, Control_c, 6, 74, 58
11, 2108, Control_c, 6, 7, 124
11, 2109, Control_c, 6, 74, 58
11, 2110, Control_c, 6, 74, 58
11, 2110, Control_c, 6, 7, 124
11, 2111, Control_c, 6, 74, 58
11, 2111, Control_c, 6, 7, 124
11, 2112, Control_c, 6, 74, 58
11, 2112, Control_c, 6, 7, 124
11, 2113, Control_c, 6, 74, 58
11, 2114, Control_c, 6, 74, 58
11, 2114, Control_c, 6, 7, 124
11, 2115, Control_c, 6, 74, 58
11, 2115, Control_c, 6, 7, 124
11, 2116, Control_c, 6, 74, 58
11, 2116, Control_c, 6, 7, 124
11, 2117, Control_c, 6, 74, 58
11, 2118, Control_c, 6, 74, 58
11, 2118, Control_c, 6, 7, 124
11, 2119, Control_c, 6, 74, 58
11, 2119, Control_c, 6, 7, 124
11, 2120, Control_c, 6, 74, 58
11, 2120, Control_c, 6, 7, 124
11, 2121, Control_c, 6, 74, 58
11, 2122, Control_c, 6, 74, 58
11, 2122, Control_c, 6, 7, 124
11, 2123, Control_c, 6, 74, 58
11, 2123, Control_c, 6, 7, 124
11, 2124, Control_c, 6, 74, 58
11, 2124, Control_c, 6, 7, 124
11, 2125, Control_c, 6, 74, 58
11, 2126, Control_c, 6, 74, 58
11, 2126, Control_c, 6, 7, 124
11, 2127, Control_c, 6, 74, 58
11, 2127, Control_c, 6, 7, 124
11, 2128, Control_c, 6, 74, 58
11, 2128, Control_c, 6, 7, 124
11, 2129, Control_c, 6, 74, 58
11, 2130, Control_c, 6, 74, 58
11, 2130, Control_c, 6, 7, 124
11, 2131, Control_c, 6, 74, 58
11, 2131, Control_c, 6, 7, 124
11, 2132, Control_c, 6, 74, 58
11, 2132, Control_c, 6, 7, 124
11, 2133, Control_c, 6, 74, 57
11, 2134, Control_c, 6, 74, 57
11, 2134, Control_c, 6, 7, 124
11, 2135, Control_c, 6, 74, 57
11, 2135, Control_c, 6, 7, 124
11, 2136, Control_c, 6, 74, 57
11, 2136, Control_c, 6, 7, 124
11, 2137, Control_c, 6, 74, 57
11, 2138, Control_c, 6, 74, 57
11, 2138, Control_c, 6, 7, 124
11, 2139, Control_c, 6, 74, 57
11, 2139, Control_c, 6, 7, 124
11, 2140, Control_c, 6, 74, 57
11, 2140, Control_c, 6, 7, 124
11, 2141, Control_c, 6, 74, 57
11, 2142, Control_c, 6, 74, 57
11, 2142, Control_c, 6, 7, 124
11, 2143, Control_c, 6, 74, 57
11, 2143, Control_c, 6, 7, 124
11, 2144, Control_c, 6, 74, 57
11, 2144, Control_c, 6, 7, 124
11, 2145, Control_c, 6, 74, 57
11, 2146, Control_c, 6, 74, 57
11, 2146, Control_c, 6, 7, 124
11, 2147, Control_c, 6, 74, 57
11, 2147, Control_c, 6, 7, 124
11, 2148, Control_c, 6, 74, 57
11, 2148, Control_c, 6, 7, 124
11, 2149, Control_c, 6, 74, 57
11, 2150, Control_c, 6, 74, 57
11, 2150, Control_c, 6, 7, 124
11, 2151, Control_c, 6, 74, 57
11, 2151, Control_c, 6, 7, 124
11, 2152, Control_c, 6, 74, 57
11, 2152, Control_c, 6, 7, 124
11, 2153, Control_c, 6, 74, 57
11, 2154, Control_c, 6, 74, 57
11, 2154, Control_c, 6, 7, 124
11, 2155, Control_c, 6, 74, 57
11, 2155, Control_c, 6, 7, 124
11, 2156, Control_c, 6, 74, 57
11, 2156, Control_c, 6, 7, 124
11, 2157, Control_c, 6, 74, 57
11, 2158, Control_c, 6, 74, 57
11, 2158, Control_c, 6, 7, 124
11, 2159, Control_c, 6, 74, 57
11, 2159, Control_c, 6, 7, 124
11, 2160, Control_c, 6, 74, 57
11, 2160, Control_c, 6, 7, 124
11, 2161, Control_c, 6, 74, 57
11, 2162, Control_c, 6, 74, 57
11, 2162, Control_c, 6, 7, 124
11, 2163, Control_c, 6, 74, 57
11, 2163, Control_c, 6, 7, 124
11, 2164, Control_c, 6, 74, 57
11, 2164, Control_c, 6, 7, 124
11, 2165, Control_c, 6, 74, 57
11, 2166, Control_c, 6, 74, 57
11, 2166, Control_c, 6, 7, 124
11, 2167, Control_c, 6, 74, 57
11, 2167, Control_c, 6, 7, 124
11, 2168, Control_c, 6, 74, 57
11, 2168, Control_c, 6, 7, 124
11, 2169, Control_c, 6, 74, 57
11, 2170, Control_c, 6, 74, 57
11, 2170, Control_c, 6, 7, 124
11, 2171, Control_c, 6, 74, 57
11, 2171, Control_c, 6, 7, 124
11, 2172, Control_c, 6, 74, 57
11, 2172, Control_c, 6, 7, 124
11, 2173, Control_c, 6, 74, 57
11, 2174, Control_c, 6, 74, 57
11, 2174, Control_c, 6, 7, 124
11, 2175, Control_c, 6, 74, 56
11, 2175, Control_c, 6, 7, 124
11, 2176, Control_c, 6, 74, 56
11, 2176, Control_c, 6, 7, 124
11, 2177, Control_c, 6, 74, 56
11, 2178, Control_c, 6, 74, 56
11, 2178, Control_c, 6, 7, 124
11, 2179, Control_c, 6, 74, 56
11, 2179, Control_c, 6, 7, 124
11, 2180, Control_c, 6, 74, 56
11, 2180, Control_c, 6, 7, 124
11, 2181, Control_c, 6, 74, 56
11, 2182, Control_c, 6, 74, 56
11, 2182, Control_c, 6, 7, 124
11, 2183, Control_c, 6, 74, 56
11, 2183, Control_c, 6, 7, 124
11, 2184, Control_c, 6, 74, 56
11, 2184, Control_c, 6, 7, 124
11, 2185, Control_c, 6, 74, 56
11, 2186, Control_c, 6, 74, 56
11, 2186, Control_c, 6, 7, 124
11, 2187, Control_c, 6, 74, 56
11, 2187, Control_c, 6, 7, 124
11, 2188, Control_c, 6, 74, 56
11, 2188, Control_c, 6, 7, 124
11, 2189, Control_c, 6, 74, 56
11, 2190, Control_c, 6, 74, 56
11, 2190, Control_c, 6, 7, 124
11, 2191, Control_c, 6, 74, 56
11, 2191, Control_c, 6, 7, 124
11, 2192, Control_c, 6, 74, 56
11, 2192, Control_c, 6, 7, 124
11, 2193, Control_c, 6, 74, 56
11, 2194, Control_c, 6, 74, 56
11, 2194, Control_c, 6, 7, 124
11, 2195, Control_c, 6, 74, 56
11, 2195, Control_c, 6, 7, 124
11, 2196, Control_c, 6, 74, 56
11, 2196, Control_c, 6, 7, 124
11, 2197, Control_c, 6, 74, 56
11, 2198, Control_c, 6, 74, 56
11, 2198, Control_c, 6, 7, 124
11, 2199, Control_c, 6, 74, 56
11, 2199, Control_c, 6, 7, 124
11, 2200, Control_c, 6, 74, 56
11, 2200, Control_c, 6, 7, 124
11, 2201, Control_c, 6, 74, 56
11, 2202, Control_c, 6, 74, 56
11, 2202, Control_c, 6, 7, 124
11, 2203, Control_c, 6, 74, 56
11, 2203, Control_c, 6, 7, 124
11, 2204, Control_c, 6, 74, 56
11, 2204, Control_c, 6, 7, 124
11, 2205, Control_c, 6, 74, 56
11, 2206, Control_c, 6, 74, 56
11, 2206, Control_c, 6, 7, 124
11, 2207, Control_c, 6, 74, 56
11, 2207, Control_c, 6, 7, 124
11, 2208, Control_c, 6, 74, 56
11, 2208, Control_c, 6, 7, 124
11, 2209, Control_c, 6, 74, 56
11, 2210, Control_c, 6, 74, 56
11, 2210, Control_c, 6, 7, 124
11, 2211, Control_c, 6, 74, 56
11, 2211, Control_c, 6, 7, 124
11, 2212, Control_c, 6, 74, 56
11, 2212, Control_c, 6, 7, 124
11, 2213, Control_c, 6, 74, 56
11, 2214, Control_c, 6, 74, 56
11, 2214, Control_c, 6, 7, 124
11, 2215, Control_c, 6, 74, 56
11, 2215, Control_c, 6, 7, 124
11, 2216, Control_c, 6, 74, 55
11, 2216, Control_c, 6, 7, 124
11, 2217, Control_c, 6, 74, 55
11, 2218, Control_c, 6, 74, 55
11, 2218, Control_c, 6, 7, 124
11, 2219, Control_c, 6, 74, 55
11, 2219, Control_c, 6, 7, 124
11, 2220, Control_c, 6, 74, 55
11, 2220, Control_c, 6, 7, 124
11, 2221, Control_c, 6, 74, 55
11, 2222, Control_c, 6, 74, 55
11, 2222, Control_c, 6, 7, 124
11, 2223, Control_c, 6, 74, 55
11, 2223, Control_c, 6, 7, 124
11, 2224, Control_c, 6, 74, 55
11, 2224, Control_c, 6, 7, 124
11, 2225, Control_c, 6, 74, 55
11, 2226, Control_c, 6, 74, 55
11, 2226, Control_c, 6, 7, 124
11, 2227, Control_c, 6, 74, 55
11, 2227, Control_c, 6, 7, 124
11, 2228, Control_c, 6, 74, 55
11, 2229, Control_c, 6, 74, 55
11, 2229, Control_c, 6, 7, 124
11, 2230, Control_c, 6, 74, 55
11, 2230, Control_c, 6, 7, 124
11, 2231, Control_c, 6, 74, 55
11, 2231, Control_c, 6, 7, 124
11, 2232, Control_c, 6, 74, 55
11, 2233, Control_c, 6, 74, 55
11, 2233, Control_c, 6, 7, 124
11, 2234, Control_c, 6, 74, 55
11, 2234, Control_c, 6, 7, 124
11, 2235, Control_c, 6, 74, 55
11, 2235, Control_c, 6, 7, 124
11, 2236, Control_c, 6, 74, 55
11, 2237, Control_c, 6, 74, 55
11, 2237, Control_c, 6, 7, 124
11, 2238, Control_c, 6, 74, 55
11, 2238, Control_c, 6, 7, 124
11, 2239, Control_c, 6, 74, 55
11, 2239, Control_c, 6, 7, 124
11, 2240, Control_c, 6, 74, 55
11, 2241, Control_c, 6, 74, 55
11, 2241, Control_c, 6, 7, 124
11, 2242, Control_c, 6, 74, 55
11, 2242, Control_c, 6, 7, 124
11, 2243, Control_c, 6, 74, 55
11, 2243, Control_c, 6, 7, 124
11, 2244, Control_c, 6, 74, 55
11, 2245, Control_c, 6, 74, 55
11, 2245, Control_c, 6, 7, 124
11, 2246, Control_c, 6, 74, 55
11, 2246, Control_c, 6, 7, 124
11, 2247, Control_c, 6, 74, 55
11, 2247, Control_c, 6, 7, 124
11, 2248, Control_c, 6, 74, 55
11, 2249, Control_c, 6, 74, 55
11, 2249, Control_c, 6, 7, 124
11, 2250, Control_c, 6, 74, 55
11, 2250, Control_c, 6, 7, 124
11, 2251, Control_c, 6, 74, 55
11, 2251, Control_c, 6, 7, 124
11, 2252, Control_c, 6, 74, 55
11, 2253, Control_c, 6, 74, 55
11, 2253, Control_c, 6, 7, 124
11, 2254, Control_c, 6, 74, 55
11, 2254, Control_c, 6, 7, 124
11, 2255, Control_c, 6, 74, 55
11, 2255, Control_c, 6, 7, 124
11, 2256, Control_c, 6, 74, 55
11, 2257, Control_c, 6, 74, 55
11, 2257, Control_c, 6, 7, 124
11, 2258, Control_c, 6, 74, 54
11, 2258, Control_c, 6, 7, 124
11, 2259, Control_c, 6, 74, 54
11, 2259, Control_c, 6, 7, 124
11, 2260, Control_c, 6, 74, 54
11, 2261, Control_c, 6, 74, 54
11, 2261, Control_c, 6, 7, 124
11, 2262, Control_c, 6, 74, 54
11, 2262, Control_c, 6, 7, 124
11, 2263, Control_c, 6, 74, 54
11, 2263, Control_c, 6, 7, 124
11, 2264, Control_c, 6, 74, 54
11, 2265, Control_c, 6, 74, 54
11, 2265, Control_c, 6, 7, 124
11, 2266, Control_c, 6, 74, 54
11, 2266, Control_c, 6, 7, 124
11, 2267, Control_c, 6, 74, 54
11, 2267, Control_c, 6, 7, 124
11, 2268, Control_c, 6, 74, 54
11, 2269, Control_c, 6, 74, 54
11, 2269, Control_c, 6, 7, 124
11, 2270, Control_c, 6, 74, 54
11, 2270, Control_c, 6, 7, 124
11, 2271, Control_c, 6, 74, 54
11, 2271, Control_c, 6, 7, 124
11, 2272, Control_c, 6, 74, 54
11, 2273, Control_c, 6, 74, 54
11, 2273, Control_c, 6, 7, 124
11, 2274, Control_c, 6, 74, 54
11, 2274, Control_c, 6, 7, 124
11, 2275, Control_c, 6, 74, 54
11, 2275, Control_c, 6, 7, 124
11, 2276, Control_c, 6, 74, 54
11, 2277, Control_c, 6, 74, 54
11, 2277, Control_c, 6, 7, 124
11, 2278, Control_c, 6, 74, 54
11, 2278, Control_c, 6, 7, 124
11, 2279, Control_c, 6, 74, 54
11, 2279, Control_c, 6, 7, 124
11, 2280, Control_c, 6, 74, 54
11, 2281, Control_c, 6, 74, 54
11, 2281, Control_c, 6, 7, 124
11, 2282, Control_c, 6, 74, 54
11, 2282, Control_c, 6, 7, 124
11, 2283, Control_c, 6, 74, 54
11, 2283, Control_c, 6, 7, 124
11, 2284, Control_c, 6, 74, 54
11, 2285, Control_c, 6, 74, 54
11, 2285, Control_c, 6, 7, 124
11, 2286, Control_c, 6, 74, 54
11, 2286, Control_c, 6, 7, 124
11, 2287, Control_c, 6, 74, 54
11, 2287, Control_c, 6, 7, 124
11, 2288, Control_c, 6, 74, 54
11, 2289, Control_c, 6, 74, 54
11, 2289, Control_c, 6, 7, 124
11, 2290, Control_c, 6, 74, 54
11, 2290, Control_c, 6, 7, 124
11, 2291, Control_c, 6, 74, 54
11, 2291, Control_c, 6, 7, 124
11, 2292, Control_c, 6, 74, 54
11, 2293, Control_c, 6, 74, 54
11, 2293, Control_c, 6, 7, 124
11, 2294, Control_c, 6, 74, 54
11, 2294, Control_c, 6, 7, 124
11, 2295, Control_c, 6, 74, 54
11, 2295, Control_c, 6, 7, 124
11, 2296, Control_c, 6, 74, 54
11, 2297, Control_c, 6, 74, 54
11, 2297, Control_c, 6, 7, 124
11, 2298, Control_c, 6, 74, 54
11, 2298, Control_c, 6, 7, 124
11, 2299, Control_c, 6, 74, 53
11, 2299, Control_c, 6, 7, 124
11, 2300, Control_c, 6, 74, 53
11, 2301, Control_c, 6, 74, 53
11, 2301, Control_c, 6, 7, 124
11, 2302, Control_c, 6, 74, 53
11, 2302, Control_c, 6, 7, 124
11, 2303, Control_c, 6, 74, 53
11, 2303, Control_c, 6, 7, 124
11, 2304, Control_c, 6, 7, 124
11, 2305, Control_c, 6, 74, 53
11, 2305, Control_c, 6, 7, 123
11, 2306, Control_c, 6, 7, 123
11, 2307, Control_c, 6, 7, 123
11, 2308, Control_c, 6, 7, 123
11, 2309, Control_c, 6, 7, 122
11, 2310, Control_c, 6, 74, 53
11, 2310, Control_c, 6, 7, 122
11, 2311, Control_c, 6, 7, 122
11, 2312, Control_c, 6, 7, 121
11, 2313, Control_c, 6, 7, 121
11, 2314, Control_c, 6, 7, 121
11, 2315, Control_c, 6, 74, 53
11, 2315, Control_c, 6, 7, 120
11, 2316, Control_c, 6, 7, 120
11, 2317, Control_c, 6, 7, 120
11, 2318, Control_c, 6, 7, 119
11, 2319, Control_c, 6, 7, 119
11, 2320, Control_c, 6, 74, 53
11, 2320, Control_c, 6, 7, 119
11, 2321, Control_c, 6, 7, 118
11, 2322, Control_c, 6, 7, 118
11, 2323, Control_c, 6, 7, 118
11, 2324, Control_c, 6, 7, 117
11, 2325, Control_c, 6, 74, 53
11, 2325, Control_c, 6, 7, 117
11, 2326, Control_c, 6, 7, 117
11, 2327, Control_c, 6, 7, 116
11, 2328, Control_c, 6, 7, 116
11, 2329, Control_c, 6, 7, 116
11, 2330, Control_c, 6, 74, 53
11, 2330, Control_c, 6, 7, 115
11, 2331, Control_c, 6, 7, 115
11, 2332, Control_c, 6, 7, 115
11, 2333, Control_c, 6, 7, 114
11, 2334, Control_c, 6, 7, 114
11, 2335, Control_c, 6, 74, 53
11, 2335, Control_c, 6, 7, 114
11, 2336, Control_c, 6, 7, 113
11, 2337, Control_c, 6, 7, 113
11, 2338, Control_c, 6, 7, 113
11, 2339, Control_c, 6, 7, 112
11, 2340, Control_c, 6, 74, 53
11, 2340, Control_c, 6, 7, 112
11, 2341, Control_c, 6, 7, 112
11, 2342, Control_c, 6, 7, 111
11, 2343, Control_c, 6, 7, 111
11, 2344, Control_c, 6, 7, 111
11, 2345, Control_c, 6, 74, 53
11, 2345, Control_c, 6, 7, 111
11, 2346, Control_c, 6, 7, 110
11, 2347, Control_c, 6, 7, 110
11, 2348, Control_c, 6, 7, 110
11, 2349, Control_c, 6, 7, 109
11, 2350, Control_c, 6, 74, 53
11, 2350, Control_c, 6, 7, 109
11, 2351, Control_c, 6, 7, 109
11, 2352, Control_c, 6, 7, 108
11, 2353, Control_c, 6, 7, 108
11, 2354, Control_c, 6, 7, 108
11, 2355, Control_c, 6, 74, 53
11, 2355, Control_c, 6, 7, 107
11, 2356, Control_c, 6, 7, 107
11, 2357, Control_c, 6, 7, 107
11, 2358, Control_c, 6, 7, 106
11, 2359, Control_c, 6, 7, 106
11, 2360, Control_c, 6, 74, 53
11, 2360, Control_c, 6, 7, 106
11, 2361, Control_c, 6, 7, 105
11, 2362, Control_c, 6, 7, 105
11, 2363, Control_c, 6, 7, 105
11, 2364, Control_c, 6, 7, 104
11, 2365, Control_c, 6, 74, 53
11, 2365, Control_c, 6, 7, 104
11, 2366, Control_c, 6, 7, 104
11, 2367, Control_c, 6, 7, 103
11, 2368, Control_c, 6, 7, 103
11, 2369, Control_c, 6, 7, 103
11, 2370, Control_c, 6, 74, 53
11, 2370, Control_c, 6, 7, 102
11, 2371, Control_c, 6, 7, 102
11, 2372, Control_c, 6, 7, 102
11, 2373, Control_c, 6, 7, 101
11, 2374, Control_c, 6, 7, 101
11, 2375, Control_c, 6, 74, 53
11, 2375, Control_c, 6, 7, 101
11, 2376, Control_c, 6, 7, 100
11, 2377, Control_c, 6, 7, 100
11, 2378, Control_c, 6, 7, 100
11, 2379, Control_c, 6, 7, 99
11, 2380, Control_c, 6, 74, 53
11, 2380, Control_c, 6, 7, 99
11, 2381, Control_c, 6, 7, 99
11, 2382, Control_c, 6, 7, 98
11, 2383, Control_c, 6, 7, 98
11, 2384, Control_c, 6, 7, 98
11, 2385, Control_c, 6, 74, 53
11, 2385, Control_c, 6, 7, 98
11, 2386, Control_c, 6, 7, 97
11, 2387, Control_c, 6, 7, 97
11, 2388, Control_c, 6, 7, 97
11, 2389, Control_c, 6, 7, 96
11, 2390, Control_c, 6, 74, 53
11, 2390, Control_c, 6, 7, 96
11, 2391, Control_c, 6, 7, 96
11, 2392, Control_c, 6, 7, 95
11, 2393, Control_c, 6, 7, 95
11, 2394, Control_c, 6, 74, 53
11, 2394, Control_c, 6, 7, 95
11, 2395, Control_c, 6, 7, 94
11, 2396, Control_c, 6, 7, 94
11, 2397, Control_c, 6, 7, 94
11, 2398, Control_c, 6, 7, 93
11, 2399, Control_c, 6, 74, 53
11, 2399, Control_c, 6, 7, 93
11, 2400, Control_c, 6, 7, 93
11, 2401, Control_c, 6, 7, 92
11, 2402, Control_c, 6, 7, 92
11, 2403, Control_c, 6, 7, 92
11, 2404, Control_c, 6, 74, 53
11, 2404, Control_c, 6, 7, 91
11, 2405, Control_c, 6, 7, 91
11, 2406, Control_c, 6, 7, 91
11, 2407, Control_c, 6, 7, 90
11, 2408, Control_c, 6, 7, 90
11, 2409, Control_c, 6, 74, 53
11, 2409, Control_c, 6, 7, 90
11, 2410, Control_c, 6, 7, 89
11, 2411, Control_c, 6, 7, 89
11, 2412, Control_c, 6, 7, 89
11, 2413, Control_c, 6, 7, 88
11, 2414, Control_c, 6, 74, 53
11, 2414, Control_c, 6, 7, 88
11, 2415, Control_c, 6, 7, 88
11, 2416, Control_c, 6, 7, 87
11, 2417, Control_c, 6, 7, 87
11, 2418, Control_c, 6, 7, 87
11, 2419, Control_c, 6, 74, 53
11, 2419, Control_c, 6, 7, 86
11, 2420, Control_c, 6, 7, 86
11, 2421, Control_c, 6, 7, 86
11, 2422, Control_c, 6, 7, 86
11, 2423, Control_c, 6, 7, 85
11, 2424, Control_c, 6, 74, 53
11, 2424, Control_c, 6, 7, 85
11, 2425, Control_c, 6, 7, 85
11, 2426, Control_c, 6, 7, 84
11, 2427, Control_c, 6, 7, 84
11, 2428, Control_c, 6, 7, 84
11, 2429, Control_c, 6, 74, 53
11, 2429, Control_c, 6, 7, 83
11, 2430, Control_c, 6, 7, 83
11, 2431, Control_c, 6, 7, 83
11, 2432, Control_c, 6, 7, 82
11, 2433, Control_c, 6, 7, 82
11, 2434, Control_c, 6, 74, 53
11, 2434, Control_c, 6, 7, 82
11, 2435, Control_c, 6, 7, 81
11, 2436, Control_c, 6, 7, 81
11, 2437, Control_c, 6, 7, 81
11, 2438, Control_c, 6, 7, 80
11, 2439, Control_c, 6, 74, 53
11, 2439, Control_c, 6, 7, 80
11, 2440, Control_c, 6, 7, 80
11, 2441, Control_c, 6, 7, 79
11, 2442, Control_c, 6, 7, 79
11, 2443, Control_c, 6, 7, 79
11, 2444, Control_c, 6, 74, 53
11, 2444, Control_c, 6, 7, 78
11, 2445, Control_c, 6, 7, 78
11, 2446, Control_c, 6, 7, 78
11, 2447, Control_c, 6, 7, 77
11, 2448, Control_c, 6, 7, 77
11, 2449, Control_c, 6, 74, 53
11, 2449, Control_c, 6, 7, 77
11, 2450, Control_c, 6, 7, 76
11, 2451, Control_c, 6, 7, 76
11, 2452, Control_c, 6, 7, 76
11, 2453, Control_c, 6, 7, 75
11, 2454, Control_c, 6, 74, 53
11, 2454, Control_c, 6, 7, 75
11, 2455, Control_c, 6, 7, 75
11, 2456, Control_c, 6, 7, 74
11, 2457, Control_c, 6, 7, 74
11, 2458, Control_c, 6, 7, 74
11, 2459, Control_c, 6, 74, 53
11, 2459, Control_c, 6, 7, 74
11, 2460, Control_c, 6, 7, 73
11, 2461, Control_c, 6, 7, 73
11, 2462, Control_c, 6, 7, 73
11, 2463, Control_c, 6, 7, 72
11, 2464, Control_c, 6, 74, 53
11, 2464, Control_c, 6, 7, 72
11, 2465, Control_c, 6, 7, 72
11, 2466, Control_c, 6, 7, 71
11, 2467, Control_c, 6, 7, 71
11, 2468, Control_c, 6, 7, 71
11, 2469, Control_c, 6, 74, 53
11, 2469, Control_c, 6, 7, 70
11, 2470, Control_c, 6, 7, 70
11, 2471, Control_c, 6, 7, 70
11, 2472, Control_c, 6, 7, 69
11, 2473, Control_c, 6, 7, 69
11, 2474, Control_c, 6, 74, 53
11, 2474, Control_c, 6, 7, 69
11, 2475, Control_c, 6, 7, 68
11, 2476, Control_c, 6, 7, 68
11, 2477, Control_c, 6, 7, 68
11, 2478, Control_c, 6, 7, 67
11, 2479, Control_c, 6, 74, 53
11, 2479, Control_c, 6, 7, 67
11, 2480, Control_c, 6, 7, 67
11, 2481, Control_c, 6, 7, 66
11, 2482, Control_c, 6, 7, 66
11, 2483, Control_c, 6, 7, 66
11, 2484, Control_c, 6, 74, 53
11, 2484, Control_c, 6, 7, 65
11, 2485, Control_c, 6, 7, 65
11, 2486, Control_c, 6, 7, 65
11, 2487, Control_c, 6, 7, 64
11, 2488, Control_c, 6, 74, 53
11, 2488, Control_c, 6, 7, 64
11, 2489, Control_c, 6, 7, 64
11, 2490, Control_c, 6, 7, 63
11, 2491, Control_c, 6, 7, 63
11, 2492, Control_c, 6, 7, 63
11, 2493, Control_c, 6, 74, 53
11, 2493, Control_c, 6, 7, 62
11, 2494, Control_c, 6, 7, 62
11, 2495, Control_c, 6, 7, 62
11, 2496, Control_c, 6, 7, 61
11, 2497, Control_c, 6, 7, 61
11, 2498, Control_c, 6, 74, 53
11, 2498, Control_c, 6, 7, 61
11, 2499, Control_c, 6, 7, 61
11, 2500, Control_c, 6, 7, 60
11, 2501, Control_c, 6, 7, 60
11, 2502, Control_c, 6, 7, 60
11, 2503, Control_c, 6, 74, 53
11, 2503, Control_c, 6, 7, 59
11, 2504, Control_c, 6, 7, 59
11, 2505, Control_c, 6, 7, 59
11, 2506, Control_c, 6, 7, 58
11, 2507, Control_c, 6, 7, 58
11, 2508, Control_c, 6, 74, 53
11, 2508, Control_c, 6, 7, 58
11, 2509, Control_c, 6, 7, 57
11, 2510, Control_c, 6, 7, 57
11, 2511, Control_c, 6, 7, 57
11, 2512, Control_c, 6, 7, 56
11, 2513, Control_c, 6, 74, 53
11, 2513, Control_c, 6, 7, 56
11, 2514, Control_c, 6, 7, 56
11, 2515, Control_c, 6, 7, 55
11, 2516, Control_c, 6, 7, 55
11, 2517, Control_c, 6, 7, 55
11, 2518, Control_c, 6, 74, 53
11, 2518, Control_c, 6, 7, 54
11, 2519, Control_c, 6, 7, 54
11, 2520, Control_c, 6, 7, 54
11, 2521, Control_c, 6, 7, 53
11, 2522, Control_c, 6, 7, 53
11, 2523, Control_c, 6, 74, 53
11, 2523, Control_c, 6, 7, 53
11, 2524, Control_c, 6, 7, 52
11, 2525, Control_c, 6, 7, 52
11, 2526, Control_c, 6, 7, 52
11, 2527, Control_c, 6, 7, 51
11, 2528, Control_c, 6, 74, 53
11, 2528, Control_c, 6, 7, 51
11, 2529, Control_c, 6, 7, 51
11, 2530, Control_c, 6, 7, 50
11, 2531, Control_c, 6, 7, 50
11, 2532, Control_c, 6, 7, 50
11, 2533, Control_c, 6, 74, 53
11, 2533, Control_c, 6, 7, 49
11, 2534, Control_c, 6, 7, 49
11, 2535, Control_c, 6, 7, 49
11, 2536, Control_c, 6, 7, 49
11, 2537, Control_c, 6, 7, 48
11, 2538, Control_c, 6, 74, 53
11, 2538, Control_c, 6, 7, 48
11, 2539, Control_c, 6, 7, 48
11, 2540, Control_c, 6, 7, 47
11, 2541, Control_c, 6, 7, 47
11, 2542, Control_c, 6, 7, 47
11, 2543, Control_c, 6, 74, 53
11, 2543, Control_c, 6, 7, 46
11, 2544, Control_c, 6, 7, 46
11, 2545, Control_c, 6, 7, 46
11, 2546, Control_c, 6, 7, 45
11, 2547, Control_c, 6, 7, 45
11, 2548, Control_c, 6, 74, 53
11, 2548, Control_c, 6, 7, 45
11, 2549, Control_c, 6, 7, 44
11, 2550, Control_c, 6, 7, 44
11, 2551, Control_c, 6, 7, 44
11, 2552, Control_c, 6, 7, 43
11, 2553, Control_c, 6, 74, 53
11, 2553, Control_c, 6, 7, 43
11, 2554, Control_c, 6, 7, 43
11, 2555, Control_c, 6, 7, 42
11, 2556, Control_c, 6, 7, 42
11, 2557, Control_c, 6, 7, 42
11, 2558, Control_c, 6, 74, 53
11, 2558, Control_c, 6, 7, 41
11, 2559, Control_c, 6, 7, 41
11, 2560, Control_c, 6, 7, 41
11, 2561, Control_c, 6, 7, 40
11, 2562, Control_c, 6, 7, 40
11, 2563, Control_c, 6, 74, 53
11, 2563, Control_c, 6, 7, 40
11, 2564, Control_c, 6, 7, 39
11, 2565, Control_c, 6, 7, 39
11, 2566, Control_c, 6, 7, 39
11, 2567, Control_c, 6, 7, 38
11, 2568, Control_c, 6, 74, 54
11, 2568, Control_c, 6, 7, 38
11, 2569, Control_c, 6, 7, 38
11, 2570, Control_c, 6, 7, 37
11, 2571, Control_c, 6, 7, 37
11, 2572, Control_c, 6, 7, 37
11, 2573, Control_c, 6, 74, 54
11, 2573, Control_c, 6, 7, 37
11, 2574, Control_c, 6, 7, 36
11, 2575, Control_c, 6, 7, 36
11, 2576, Control_c, 6, 7, 36
11, 2577, Control_c, 6, 74, 54
11, 2577, Control_c, 6, 7, 35
11, 2578, Control_c, 6, 7, 35
11, 2579, Control_c, 6, 7, 35
11, 2580, Control_c, 6, 7, 34
11, 2581, Control_c, 6, 7, 34
11, 2582, Control_c, 6, 74, 54
11, 2582, Control_c, 6, 7, 34
11, 2583, Control_c, 6, 7, 33
11, 2584, Control_c, 6, 7, 33
11, 2585, Control_c, 6, 7, 33
11, 2586, Control_c, 6, 7, 32
11, 2587, Control_c, 6, 74, 54
11, 2587, Control_c, 6, 7, 32
11, 2588, Control_c, 6, 7, 32
11, 2589, Control_c, 6, 7, 31
11, 2590, Control_c, 6, 7, 31
11, 2591, Control_c, 6, 7, 31
11, 2592, Control_c, 6, 74, 54
11, 2592, Control_c, 6, 7, 30
11, 2593, Control_c, 6, 7, 30
11, 2594, Control_c, 6, 7, 30
11, 2595, Control_c, 6, 7, 29
11, 2596, Control_c, 6, 7, 29
11, 2597, Control_c, 6, 74, 54
11, 2597, Control_c, 6, 7, 29
11, 2598, Control_c, 6, 7, 28
11, 2599, Control_c, 6, 7, 28
11, 2600, Control_c, 6, 7, 28
11, 2601, Control_c, 6, 7, 27
11, 2602, Control_c, 6, 74, 54
11, 2602, Control_c, 6, 7, 27
11, 2603, Control_c, 6, 7, 27
11, 2604, Control_c, 6, 7, 26
11, 2605, Control_c, 6, 7, 26
11, 2606, Control_c, 6, 7, 26
11, 2607, Control_c, 6, 74, 54
11, 2607, Control_c, 6, 7, 25
11, 2608, Control_c, 6, 7, 25
11, 2609, Control_c, 6, 7, 25
11, 2610, Control_c, 6, 7, 24
11, 2611, Control_c, 6, 7, 24
11, 2612, Control_c, 6, 74, 54
11, 2612, Control_c, 6, 7, 24
11, 2613, Control_c, 6, 7, 24
11, 2614, Control_c, 6, 7, 23
11, 2615, Control_c, 6, 7, 23
11, 2616, Control_c, 6, 7, 23
11, 2617, Control_c, 6, 74, 54
11, 2617, Control_c, 6, 7, 22
11, 2618, Control_c, 6, 7, 22
11, 2619, Control_c, 6, 7, 22
11, 2620, Control_c, 6, 7, 21
11, 2621, Control_c, 6, 7, 21
11, 2622, Control_c, 6, 74, 54
11, 2622, Control_c, 6, 7, 21
11, 2623, Control_c, 6, 7, 20
11, 2624, Control_c, 6, 7, 20
11, 2625, Control_c, 6, 7, 20
11, 2626, Control_c, 6, 7, 19
11, 2627, Control_c, 6, 74, 54
11, 2627, Control_c, 6, 7, 19
11, 2628, Control_c, 6, 7, 19
11, 2629, Control_c, 6, 7, 18
11, 2630, Control_c, 6, 7, 18
11, 2631, Control_c, 6, 7, 18
11, 2632, Control_c, 6, 74, 54
11, 2632, Control_c, 6, 7, 17
11, 2633, Control_c, 6, 7, 17
11, 2634, Control_c, 6, 7, 17
11, 2635, Control_c, 6, 7, 16
11, 2636, Control_c, 6, 7, 16
11, 2637, Control_c, 6, 74, 54
11, 2637, Control_c, 6, 7, 16
11, 2638, Control_c, 6, 7, 15
11, 2639, Control_c, 6, 7, 15
11, 2640, Control_c, 6, 7, 15
11, 2641, Control_c, 6, 7, 14
11, 2642, Control_c, 6, 74, 54
11, 2642, Control_c, 6, 7, 14
11, 2643, Control_c, 6, 7, 14
11, 2644, Control_c, 6, 7, 13
11, 2645, Control_c, 6, 7, 13
11, 2646, Control_c, 6, 7, 13
11, 2647, Control_c, 6, 74, 54
11, 2647, Control_c, 6, 7, 12
11, 2648, Control_c, 6, 7, 12
11, 2649, Control_c, 6, 7, 12
11, 2650, Control_c, 6, 7, 12
11, 2651, Control_c, 6, 7, 11
11, 2652, Control_c, 6, 74, 54
11, 2652, Control_c, 6, 7, 11
11, 2653, Control_c, 6, 7, 11
11, 2654, Control_c, 6, 7, 10
11, 2655, Control_c, 6, 7, 10
11, 2656, Control_c, 6, 7, 10
11, 2657, Control_c, 6, 74, 54
11, 2657, Control_c, 6, 7, 9
11, 2658, Control_c, 6, 7, 9
11, 2659, Control_c, 6, 7, 9
11, 2660, Control_c, 6, 7, 8
11, 2661, Control_c, 6, 7, 8
11, 2662, Control_c, 6, 74, 54
11, 2662, Control_c, 6, 7, 8
11, 2663, Control_c, 6, 7, 7
11, 2664, Control_c, 6, 7, 7
11, 2665, Control_c, 6, 7, 7
11, 2666, Control_c, 6, 7, 6
11, 2667, Control_c, 6, 74, 54
11, 2667, Control_c, 6, 7, 6
11, 2668, Control_c, 6, 7, 6
11, 2669, Control_c, 6, 7, 5
11, 2670, Control_c, 6, 7, 5
11, 2671, Control_c, 6, 74, 54
11, 2671, Control_c, 6, 7, 5
11, 2672, Control_c, 6, 7, 4
11, 2673, Control_c, 6, 7, 4
11, 2674, Control_c, 6, 7, 4
11, 2675, Control_c, 6, 7, 3
11, 2676, Control_c, 6, 74, 54
11, 2676, Control_c, 6, 7, 3
11, 2677, Control_c, 6, 7, 3
11, 2678, Control_c, 6, 7, 2
11, 2679, Control_c, 6, 7, 2
11, 2680, Control_c, 6, 7, 2
11, 2681, Control_c, 6, 74, 54
11, 2681, Control_c, 6, 7, 1
11, 2682, Control_c, 6, 7, 1
11, 2683, Control_c, 6, 7, 1
11, 2684, Control_c, 6, 7, 0
11, 2685, Control_c, 6, 7, 0
11, 2686, Control_c, 6, 74, 54
11, 2686, Control_c, 6, 7, 0
11, 2687, Control_c, 6, 7, 0
11, 2688, Note_off_c, 6, 96, 64
11, 2691, Control_c, 6, 74, 54
11, 2696, Control_c, 6, 74, 54
11, 2701, Control_c, 6, 74, 54
11, 2706, Control_c, 6, 74, 54
11, 2711, Control_c, 6, 74, 54
11, 2716, Control_c, 6, 74, 54
11, 2721, Control_c, 6, 74, 54
11, 6120, Note_on_c, 6, 96, 81
11, 6120, Control_c, 6, 74, 64
11, 6120, Control_c, 6, 7, 127
11, 6122, Control_c, 6, 7, 127
11, 6123, Control_c, 6, 7, 127
11, 6124, Control_c, 6, 7, 127
11, 6126, Control_c, 6, 7, 127
11, 6127, Control_c, 6, 7, 127
11, 6128, Control_c, 6, 7, 127
11, 6130, Control_c, 6, 7, 127
11, 6131, Control_c, 6, 7, 127
11, 6132, Control_c, 6, 7, 127
11, 6134, Control_c, 6, 7, 127
11, 6135, Control_c, 6, 7, 127
11, 6136, Control_c, 6, 7, 127
11, 6138, Control_c, 6, 7, 127
11, 6139, Control_c, 6, 7, 127
11, 6140, Control_c, 6, 7, 127
11, 6142, Control_c, 6, 7, 127
11, 6143, Control_c, 6, 7, 127
11, 6144, Control_c, 6, 7, 127
11, 6146, Control_c, 6, 7, 127
11, 6147, Control_c, 6, 7, 127
11, 6148, Control_c, 6, 7, 127
11, 6150, Control_c, 6, 7, 127
11, 6151, Control_c, 6, 7, 127
11, 6152, Control_c, 6, 7, 127
11, 6154, Control_c, 6, 7, 127
11, 6155, Control_c, 6, 7, 127
11, 6156, Control_c, 6, 7, 127
11, 6158, Control_c, 6, 7, 127
11, 6159, Control_c, 6, 7, 127
11, 6160, Control_c, 6, 7, 127
11, 6162, Control_c, 6, 7, 127
11, 6163, Control_c, 6, 7, 127
11, 6164, Control_c, 6, 7, 127
11, 6166, Control_c, 6, 7, 127
11, 6167, Control_c, 6, 7, 127
11, 6168, Control_c, 6, 7, 127
11, 6170, Control_c, 6, 7, 127
11, 6171, Control_c, 6, 7, 127
11, 6172, Control_c, 6, 7, 127
11, 6174, Control_c, 6, 7, 127
11, 6175, Control_c, 6, 7, 127
11, 6176, Control_c, 6, 7, 127
11, 6178, Control_c, 6, 7, 127
11, 6179, Control_c, 6, 7, 127
11, 6180, Control_c, 6, 7, 127
11, 6182, Control_c, 6, 7, 127
11, 6183, Control_c, 6, 7, 127
11, 6184, Control_c, 6, 7, 127
11, 6186, Control_c, 6, 7, 127
11, 6187, Control_c, 6, 7, 127
11, 6188, Control_c, 6, 7, 127
11, 6190, Control_c, 6, 7, 127
11, 6191, Control_c, 6, 7, 127
11, 6192, Control_c, 6, 7, 127
11, 6194, Control_c, 6, 7, 127
11, 6195, Control_c, 6, 7, 127
11, 6196, Control_c, 6, 7, 127
11, 6198, Control_c, 6, 7, 127
11, 6199, Control_c, 6, 7, 127
11, 6200, Control_c, 6, 7, 127
11, 6202, Control_c, 6, 7, 127
11, 6203, Control_c, 6, 7, 127
11, 6204, Control_c, 6, 7, 127
11, 6206, Control_c, 6, 7, 127
11, 6207, Control_c, 6, 7, 127
11, 6208, Control_c, 6, 7, 127
11, 6210, Control_c, 6, 7, 127
11, 6211, Control_c, 6, 7, 127
11, 6212, Control_c, 6, 7, 127
11, 6214, Control_c, 6, 7, 127
11, 6215, Control_c, 6, 7, 127
11, 6216, Control_c, 6, 7, 127
11, 6218, Control_c, 6, 7, 127
11, 6219, Control_c, 6, 7, 127
11, 6220, Control_c, 6, 7, 127
11, 6222, Control_c, 6, 7, 127
11, 6223, Control_c, 6, 7, 127
11, 6224, Control_c, 6, 7, 127
11, 6226, Control_c, 6, 7, 127
11, 6227, Control_c, 6, 7, 127
11, 6228, Control_c, 6, 7, 127
11, 6230, Control_c, 6, 7, 127
11, 6231, Control_c, 6, 7, 127
11, 6232, Control_c, 6, 7, 127
11, 6234, Control_c, 6, 7, 127
11, 6235, Control_c, 6, 7, 127
11, 6236, Control_c, 6, 7, 127
11, 6238, Control_c, 6, 7, 127
11, 6239, Control_c, 6, 7, 127
11, 6240, Control_c, 6, 7, 127
11, 6242, Control_c, 6, 7, 127
11, 6243, Control_c, 6, 7, 127
11, 6244, Control_c, 6, 7, 127
11, 6246, Control_c, 6, 7, 127
11, 6247, Control_c, 6, 7, 127
11, 6248, Control_c, 6, 7, 127
11, 6250, Control_c, 6, 7, 127
11, 6251, Control_c, 6, 7, 127
11, 6252, Control_c, 6, 7, 127
11, 6254, Control_c, 6, 7, 127
11, 6255, Control_c, 6, 7, 127
11, 6256, Control_c, 6, 7, 127
11, 6258, Control_c, 6, 7, 127
11, 6259, Control_c, 6, 7, 127
11, 6260, Control_c, 6, 7, 127
11, 6262, Control_c, 6, 7, 127
11, 6263, Control_c, 6, 7, 127
11, 6264, Control_c, 6, 7, 127
11, 6266, Control_c, 6, 7, 127
11, 6267, Control_c, 6, 7, 127
11, 6268, Control_c, 6, 7, 127
11, 6270, Control_c, 6, 7, 127
11, 6271, Control_c, 6, 7, 127
11, 6272, Control_c, 6, 7, 127
11, 6274, Control_c, 6, 7, 127
11, 6275, Control_c, 6, 7, 127
11, 6276, Control_c, 6, 7, 127
11, 6278, Control_c, 6, 7, 127
11, 6279, Control_c, 6, 7, 127
11, 6280, Control_c, 6, 7, 127
11, 6282, Control_c, 6, 7, 127
11, 6283, Control_c, 6, 7, 127
11, 6284, Control_c, 6, 7, 127
11, 6286, Control_c, 6, 7, 127
11, 6287, Control_c, 6, 7, 127
11, 6288, Control_c, 6, 7, 127
11, 6290, Control_c, 6, 7, 127
11, 6291, Control_c, 6, 7, 127
11, 6293, Control_c, 6, 7, 127
11, 6294, Control_c, 6, 7, 127
11, 6295, Control_c, 6, 7, 127
11, 6297, Control_c, 6, 7, 127
11, 6298, Control_c, 6, 7, 127
11, 6299, Control_c, 6, 7, 127
11, 6301, Control_c, 6, 7, 127
11, 6302, Control_c, 6, 7, 127
11, 6303, Control_c, 6, 7, 127
11, 6305, Control_c, 6, 7, 127
11, 6306, Control_c, 6, 7, 127
11, 6307, Control_c, 6, 7, 127
11, 6309, Control_c, 6, 7, 127
11, 6310, Control_c, 6, 7, 127
11, 6311, Control_c, 6, 7, 127
11, 6312, Control_c, 6, 74, 64
11, 6313, Control_c, 6, 74, 64
11, 6313, Control_c, 6, 7, 127
11, 6314, Control_c, 6, 74, 64
11, 6314, Control_c, 6, 7, 127
11, 6315, Control_c, 6, 74, 64
11, 6315, Control_c, 6, 7, 127
11, 6316, Control_c, 6, 74, 64
11, 6317, Control_c, 6, 74, 64
11, 6317, Control_c, 6, 7, 127
11, 6318, Control_c, 6, 74, 64
11, 6318, Control_c, 6, 7, 127
11, 6319, Control_c, 6, 74, 64
11, 6319, Control_c, 6, 7, 127
11, 6320, Control_c, 6, 74, 64
11, 6321, Control_c, 6, 74, 64
11, 6321, Control_c, 6, 7, 127
11, 6322, Control_c, 6, 74, 65
11, 6322, Control_c, 6, 7, 127
11, 6323, Control_c, 6, 74, 65
11, 6323, Control_c, 6, 7, 127
11, 6324, Control_c, 6, 74, 65
11, 6325, Control_c, 6, 74, 65
11, 6325, Control_c, 6, 7, 127
11, 6326, Control_c, 6, 74, 65
11, 6326, Control_c, 6, 7, 127
11, 6327, Control_c, 6, 74, 65
11, 6327, Control_c, 6, 7, 127
11, 6328, Control_c, 6, 74, 65
11, 6329, Control_c, 6, 74, 65
11, 6329, Control_c, 6, 7, 127
11, 6330, Control_c, 6, 74, 65
11, 6330, Control_c, 6, 7, 127
11, 6331, Control_c, 6, 74, 65
11, 6331, Control_c, 6, 7, 127
11, 6332, Control_c, 6, 74, 65
11, 6333, Control_c, 6, 74, 65
11, 6333, Control_c, 6, 7, 127
11, 6334, Control_c, 6, 74, 65
11, 6334, Control_c, 6, 7, 127
11, 6335, Control_c, 6, 74, 65
11, 6335, Control_c, 6, 7, 127
11, 6336, Control_c, 6, 74, 65
11, 6337, Control_c, 6, 74, 65
11, 6337, Control_c, 6, 7, 127
11, 6338, Control_c, 6, 74, 65
11, 6338, Control_c, 6, 7, 127
11, 6339, Control_c, 6, 74, 65
11, 6339, Control_c, 6, 7, 127
11, 6340, Control_c, 6, 74, 65
11, 6341, Control_c, 6, 74, 65
11, 6341, Control_c, 6, 7, 127
11, 6342, Control_c, 6, 74, 65
11, 6342, Control_c, 6, 7, 127
11, 6343, Control_c, 6, 74, 65
11, 6343, Control_c, 6, 7, 127
11, 6344, Control_c, 6, 74, 66
11, 6345, Control_c, 6, 74, 66
11, 6345, Control_c, 6, 7, 127
11, 6346, Control_c, 6, 74, 66
11, 6346, Control_c, 6, 7, 127
11, 6347, Control_c, 6, 74, 66
11, 6347, Control_c, 6, 7, 127
11, 6348, Control_c, 6, 74, 66
11, 6349, Control_c, 6, 74, 66
11, 6349, Control_c, 6, 7, 127
11, 6350, Control_c, 6, 74, 66
11, 6350, Control_c, 6, 7, 127
11, 6351, Control_c, 6, 74, 66
11, 6351, Control_c, 6, 7, 127
11, 6352, Control_c, 6, 74, 66
11, 6353, Control_c, 6, 74, 66
11, 6353, Control_c, 6, 7, 127
11, 6354, Control_c, 6, 74, 66
11, 6354, Control_c, 6, 7, 127
11, 6355, Control_c, 6, 74, 66
11, 6355, Control_c, 6, 7, 127
11, 6356, Control_c, 6, 74, 66
11, 6357, Control_c, 6, 74, 66
11, 6357, Control_c, 6, 7, 127
11, 6358, Control_c, 6, 74, 66
11, 6358, Control_c, 6, 7, 127
11, 6359, Control_c, 6, 74, 66
11, 6359, Control_c, 6, 7, 127
11, 6360, Control_c, 6, 74, 66
11, 6361, Control_c, 6, 74, 66
11, 6361, Control_c, 6, 7, 127
11, 6362, Control_c, 6, 74, 66
11, 6362, Control_c, 6, 7, 127
11, 6363, Control_c, 6, 74, 66
11, 6363, Control_c, 6, 7, 127
11, 6364, Control_c, 6, 74, 66
11, 6365, Control_c, 6, 74, 66
11, 6365, Control_c, 6, 7, 127
11, 6366, Control_c, 6, 74, 67
11, 6366, Control_c, 6, 7, 127
11, 6367, Control_c, 6, 74, 67
11, 6367, Control_c, 6, 7, 127
11, 6368, Control_c, 6, 74, 67
11, 6369, Control_c, 6, 74, 67
11, 6369, Control_c, 6, 7, 127
11, 6370, Control_c, 6, 74, 67
11, 6370, Control_c, 6, 7, 127
11, 6371, Control_c, 6, 74, 67
11, 6371, Control_c, 6, 7, 127
11, 6372, Control_c, 6, 74, 67
11, 6373, Control_c, 6, 74, 67
11, 6373, Control_c, 6, 7, 127
11, 6374, Control_c, 6, 74, 67
11, 6374, Control_c, 6, 7, 127
11, 6375, Control_c, 6, 74, 67
11, 6375, Control_c, 6, 7, 127
11, 6376, Control_c, 6, 74, 67
11, 6377, Control_c, 6, 74, 67
11, 6377, Control_c, 6, 7, 127
11, 6378, Control_c, 6, 74, 67
11, 6378, Control_c, 6, 7, 127
11, 6379, Control_c, 6, 74, 67
11, 6379, Control_c, 6, 7, 127
11, 6380, Control_c, 6, 74, 67
11, 6381, Control_c, 6, 74, 67
11, 6381, Control_c, 6, 7, 127
11, 6382, Control_c, 6, 74, 67
11, 6382, Control_c, 6, 7, 127
11, 6383, Control_c, 6, 74, 67
11, 6383, Control_c, 6, 7, 127
11, 6384, Control_c, 6, 74, 67
11, 6385, Control_c, 6, 74, 67
11, 6385, Control_c, 6, 7, 127
11, 6386, Control_c, 6, 74, 67
11, 6386, Control_c, 6, 7, 127
11, 6387, Control_c, 6, 74, 67
11, 6387, Control_c, 6, 7, 127
11, 6388, Control_c, 6, 74, 68
11, 6389, Control_c, 6, 74, 68
11, 6389, Control_c, 6, 7, 127
11, 6390, Control_c, 6, 74, 68
11, 6390, Control_c, 6, 7, 127
11, 6391, Control_c, 6, 74, 68
11, 6391, Control_c, 6, 7, 127
11, 6392, Control_c, 6, 74, 68
11, 6393, Control_c, 6, 74, 68
11, 6393, Control_c, 6, 7, 127
11, 6394, Control_c, 6, 74, 68
11, 6394, Control_c, 6, 7, 127
11, 6395, Control_c, 6, 74, 68
11, 6395, Control_c, 6, 7, 127
11, 6396, Control_c, 6, 74, 68
11, 6397, Control_c, 6, 74, 68
11, 6397, Control_c, 6, 7, 127
11, 6398, Control_c, 6, 74, 68
11, 6398, Control_c, 6, 7, 127
11, 6399, Control_c, 6, 74, 68
11, 6399, Control_c, 6, 7, 127
11, 6400, Control_c, 6, 74, 68
11, 6401, Control_c, 6, 74, 68
11, 6401, Control_c, 6, 7, 127
11, 6402, Control_c, 6, 74, 68
11, 6402, Control_c, 6, 7, 127
11, 6403, Control_c, 6, 74, 68
11, 6403, Control_c, 6, 7, 127
11, 6404, Control_c, 6, 74, 68
11, 6405, Control_c, 6, 74, 68
11, 6405, Control_c, 6, 7, 127
11, 6406, Control_c, 6, 74, 68
11, 6406, Control_c, 6, 7, 127
11, 6407, Control_c, 6, 74, 68
11, 6407, Control_c, 6, 7, 127
11, 6408, Control_c, 6, 74, 68
11, 6409, Control_c, 6, 74, 69
11, 6409, Control_c, 6, 7, 127
11, 6410, Control_c, 6, 74, 69
11, 6410, Control_c, 6, 7, 127
11, 6411, Control_c, 6, 74, 69
11, 6411, Control_c, 6, 7, 127
11, 6412, Control_c, 6, 74, 69
11, 6413, Control_c, 6, 74, 69
11, 6413, Control_c, 6, 7, 127
11, 6414, Control_c, 6, 74, 69
11, 6414, Control_c, 6, 7, 127
11, 6415, Control_c, 6, 74, 69
11, 6415, Control_c, 6, 7, 127
11, 6416, Control_c, 6, 74, 69
11, 6417, Control_c, 6, 74, 69
11, 6417, Control_c, 6, 7, 127
11, 6418, Control_c, 6, 74, 69
11, 6418, Control_c, 6, 7, 127
11, 6419, Control_c, 6, 74, 69
11, 6419, Control_c, 6, 7, 127
11, 6420, Control_c, 6, 74, 69
11, 6421, Control_c, 6, 74, 69
11, 6421, Control_c, 6, 7, 127
11, 6422, Control_c, 6, 74, 69
11, 6422, Control_c, 6, 7, 127
11, 6423, Control_c, 6, 74, 69
11, 6423, Control_c, 6, 7, 127
11, 6424, Control_c, 6, 74, 69
11, 6425, Control_c, 6, 74, 69
11, 6425, Control_c, 6, 7, 127
11, 6426, Control_c, 6, 74, 69
11, 6426, Control_c, 6, 7, 127
11, 6427, Control_c, 6, 74, 69
11, 6427, Control_c, 6, 7, 127
11, 6428, Control_c, 6, 74, 69
11, 6429, Control_c, 6, 74, 69
11, 6429, Control_c, 6, 7, 127
11, 6430, Control_c, 6, 74, 69
11, 6430, Control_c, 6, 7, 127
11, 6431, Control_c, 6, 74, 70
11, 6431, Control_c, 6, 7, 127
11, 6432, Control_c, 6, 74, 70
11, 6433, Control_c, 6, 74, 70
11, 6433, Control_c, 6, 7, 127
11, 6434, Control_c, 6, 74, 70
11, 6434, Control_c, 6, 7, 127
11, 6435, Control_c, 6, 74, 70
11, 6435, Control_c, 6, 7, 127
11, 6436, Control_c, 6, 74, 70
11, 6437, Control_c, 6, 74, 70
11, 6437, Control_c, 6, 7, 127
11, 6438, Control_c, 6, 74, 70
11, 6438, Control_c, 6, 7, 127
11, 6439, Control_c, 6, 74, 70
11, 6439, Control_c, 6, 7, 127
11, 6440, Control_c, 6, 74, 70
11, 6441, Control_c, 6, 74, 70
11, 6441, Control_c, 6, 7, 127
11, 6442, Control_c, 6, 74, 70
11, 6442, Control_c, 6, 7, 127
11, 6443, Control_c, 6, 74, 70
11, 6443, Control_c, 6, 7, 127
11, 6444, Control_c, 6, 74, 70
11, 6445, Control_c, 6, 74, 70
11, 6445, Control_c, 6, 7, 127
11, 6446, Control_c, 6, 74, 70
11, 6446, Control_c, 6, 7, 127
11, 6447, Control_c, 6, 74, 70
11, 6447, Control_c, 6, 7, 127
11, 6448, Control_c, 6, 74, 70
11, 6449, Control_c, 6, 74, 70
11, 6449, Control_c, 6, 7, 127
11, 6450, Control_c, 6, 74, 70
11, 6450, Control_c, 6, 7, 127
11, 6451, Control_c, 6, 74, 70
11, 6451, Control_c, 6, 7, 127
11, 6452, Control_c, 6, 74, 70
11, 6453, Control_c, 6, 74, 71
11, 6453, Control_c, 6, 7, 127
11, 6454, Control_c, 6, 74, 71
11, 6454, Control_c, 6, 7, 127
11, 6455, Control_c, 6, 74, 71
11, 6455, Control_c, 6, 7, 127
11, 6456, Control_c, 6, 74, 71
11, 6457, Control_c, 6, 74, 71
11, 6457, Control_c, 6, 7, 127
11, 6458, Control_c, 6, 74, 71
11, 6458, Control_c, 6, 7, 127
11, 6459, Control_c, 6, 74, 71
11, 6459, Control_c, 6, 7, 127
11, 6460, Control_c, 6, 74, 71
11, 6461, Control_c, 6, 74, 71
11, 6461, Control_c, 6, 7, 127
11, 6462, Control_c, 6, 74, 71
11, 6462, Control_c, 6, 7, 127
11, 6463, Control_c, 6, 74, 71
11, 6464, Control_c, 6, 74, 71
11, 6464, Control_c, 6, 7, 127
11, 6465, Control_c, 6, 74, 71
11, 6465, Control_c, 6, 7, 127
11, 6466, Control_c, 6, 74, 71
11, 6466, Control_c, 6, 7, 127
11, 6467, Control_c, 6, 74, 71
11, 6468, Control_c, 6, 74, 71
11, 6468, Control_c, 6, 7, 127
11, 6469, Control_c, 6, 74, 71
11, 6469, Control_c, 6, 7, 127
11, 6470, Control_c, 6, 74, 71
11, 6470, Control_c, 6, 7, 127
11, 6471, Control_c, 6, 74, 71
11, 6472, Control_c, 6, 74, 71
11, 6472, Control_c, 6, 7, 127
11, 6473, Control_c, 6, 74, 71
11, 6473, Control_c, 6, 7, 127
11, 6474, Control_c, 6, 74, 71
11, 6474, Control_c, 6, 7, 127
11, 6475, Control_c, 6, 74, 72
11, 6476, Control_c, 6, 74, 72
11, 6476, Control_c, 6, 7, 127
11, 6477, Control_c, 6, 74, 72
11, 6477, Control_c, 6, 7, 127
11, 6478, Control_c, 6, 74, 72
11, 6478, Control_c, 6, 7, 127
11, 6479, Control_c, 6, 74, 72
11, 6480, Control_c, 6, 74, 72
11, 6480, Control_c, 6, 7, 127
11, 6481, Control_c, 6, 74, 72
11, 6481, Control_c, 6, 7, 127
11, 6482, Control_c, 6, 74, 72
11, 6482, Control_c, 6, 7, 127
11, 6483, Control_c, 6, 74, 72
11, 6484, Control_c, 6, 74, 72
11, 6484, Control_c, 6, 7, 127
11, 6485, Control_c, 6, 74, 72
11, 6485, Control_c, 6, 7, 127
11, 6486, Control_c, 6, 74, 72
11, 6486, Control_c, 6, 7, 127
11, 6487, Control_c, 6, 74, 72
11, 6488, Control_c, 6, 74, 72
11, 6488, Control_c, 6, 7, 127
11, 6489, Control_c, 6, 74, 72
11, 6489, Control_c, 6, 7, 127
11, 6490, Control_c, 6, 74, 72
11, 6490, Control_c, 6, 7, 127
11, 6491, Control_c, 6, 74, 72
11, 6492, Control_c, 6, 74, 72
11, 6492, Control_c, 6, 7, 127
11, 6493, Control_c, 6, 74, 72
11, 6493, Control_c, 6, 7, 127
11, 6494, Control_c, 6, 74, 72
11, 6494, Control_c, 6, 7, 127
11, 6495, Control_c, 6, 74, 72
11, 6496, Control_c, 6, 74, 72
11, 6496, Control_c, 6, 7, 127
11, 6497, Control_c, 6, 74, 73
11, 6497, Control_c, 6, 7, 127
11, 6498, Control_c, 6, 74, 73
11, 6498, Control_c, 6, 7, 127
11, 6499, Control_c, 6, 74, 73
11, 6500, Control_c, 6, 74, 73
11, 6500, Control_c, 6, 7, 127
11, 6501, Control_c, 6, 74, 73
11, 6501, Control_c, 6, 7, 127
11, 6502, Control_c, 6, 74, 73
11, 6502, Control_c, 6, 7, 127
11, 6503, Control_c, 6, 74, 73
11, 6504, Control_c, 6, 74, 73
11, 6504, Control_c, 6, 7, 127
11, 6505, Control_c, 6, 74, 73
11, 6505, Control_c, 6, 7, 127
11, 6506, Control_c, 6, 74, 73
11, 6506, Control_c, 6, 7, 127
11, 6507, Control_c, 6, 74, 73
11, 6508, Control_c, 6, 74, 73
11, 6508, Control_c, 6, 7, 127
11, 6509, Control_c, 6, 74, 73
11, 6509, Control_c, 6, 7, 127
11, 6510, Control_c, 6, 74, 73
11, 6510, Control_c, 6, 7, 127
11, 6511, Control_c, 6, 74, 73
11, 6512, Control_c, 6, 74, 73
11, 6512, Control_c, 6, 7, 127
11, 6513, Control_c, 6, 74, 73
11, 6513, Control_c, 6, 7, 127
11, 6514, Control_c, 6, 74, 73
11, 6514, Control_c, 6, 7, 127
11, 6515, Control_c, 6, 74, 73
11, 6516, Control_c, 6, 74, 73
11, 6516, Control_c, 6, 7, 127
11, 6517, Control_c, 6, 74, 73
11, 6517, Control_c, 6, 7, 127
11, 6518, Control_c, 6, 74, 74
11, 6518, Control_c, 6, 7, 127
11, 6519, Control_c, 6, 74, 74
11, 6520, Control_c, 6, 74, 74
11, 6520, Control_c, 6, 7, 127
11, 6521, Control_c, 6, 74, 74
11, 6521, Control_c, 6, 7, 127
11, 6522, Control_c, 6, 74, 74
11, 6522, Control_c, 6, 7, 127
11, 6523, Control_c, 6, 74, 74
11, 6524, Control_c, 6, 74, 74
11, 6524, Control_c, 6, 7, 127
11, 6525, Control_c, 6, 74, 74
11, 6525, Control_c, 6, 7, 127
11, 6526, Control_c, 6, 74, 74
11, 6526, Control_c, 6, 7, 127
11, 6527, Control_c, 6, 74, 74
11, 6528, Control_c, 6, 74, 74
11, 6528, Control_c, 6, 7, 127
11, 6529, Control_c, 6, 74, 74
11, 6529, Control_c, 6, 7, 127
11, 6530, Control_c, 6, 74, 74
11, 6530, Control_c, 6, 7, 127
11, 6531, Control_c, 6, 74, 74
11, 6532, Control_c, 6, 74, 74
11, 6532, Control_c, 6, 7, 127
11, 6533, Control_c, 6, 74, 74
11, 6533, Control_c, 6, 7, 127
11, 6534, Control_c, 6, 74, 74
11, 6534, Control_c, 6, 7, 127
11, 6535, Control_c, 6, 74, 74
11, 6536, Control_c, 6, 74, 74
11, 6536, Control_c, 6, 7, 127
11, 6537, Control_c, 6, 74, 74
11, 6537, Control_c, 6, 7, 127
11, 6538, Control_c, 6, 74, 74
11, 6538, Control_c, 6, 7, 127
11, 6539, Control_c, 6, 74, 74
11, 6540, Control_c, 6, 74, 75
11, 6540, Control_c, 6, 7, 127
11, 6541, Control_c, 6, 74, 75
11, 6541, Control_c, 6, 7, 127
11, 6542, Control_c, 6, 74, 75
11, 6542, Control_c, 6, 7, 127
11, 6543, Control_c, 6, 74, 75
11, 6544, Control_c, 6, 74, 75
11, 6544, Control_c, 6, 7, 127
11, 6545, Control_c, 6, 74, 75
11, 6545, Control_c, 6, 7, 127
11, 6546, Control_c, 6, 74, 75
11, 6546, Control_c, 6, 7, 127
11, 6547, Control_c, 6, 74, 75
11, 6548, Control_c, 6, 74, 75
11, 6548, Control_c, 6, 7, 127
11, 6549, Control_c, 6, 74, 75
11, 6549, Control_c, 6, 7, 127
11, 6550, Control_c, 6, 74, 75
11, 6550, Control_c, 6, 7, 127
11, 6551, Control_c, 6, 74, 75
11, 6552, Control_c, 6, 74, 75
11, 6552, Control_c, 6, 7, 127
11, 6553, Control_c, 6, 74, 75
11, 6553, Control_c, 6, 7, 127
11, 6554, Control_c, 6, 74, 75
11, 6554, Control_c, 6, 7, 127
11, 6555, Control_c, 6, 74, 75
11, 6556, Control_c, 6, 74, 75
11, 6556, Control_c, 6, 7, 127
11, 6557, Control_c, 6, 74, 75
11, 6557, Control_c, 6, 7, 127
11, 6558, Control_c, 6, 74, 75
11, 6558, Control_c, 6, 7, 127
11, 6559, Control_c, 6, 74, 75
11, 6560, Control_c, 6, 74, 75
11, 6560, Control_c, 6, 7, 127
11, 6561, Control_c, 6, 74, 75
11, 6561, Control_c, 6, 7, 127
11, 6562, Control_c, 6, 74, 76
11, 6562, Control_c, 6, 7, 127
11, 6563, Control_c, 6, 74, 76
11, 6564, Control_c, 6, 74, 76
11, 6564, Control_c, 6, 7, 127
11, 6565, Control_c, 6, 74, 76
11, 6565, Control_c, 6, 7, 127
11, 6566, Control_c, 6, 74, 76
11, 6566, Control_c, 6, 7, 127
11, 6567, Control_c, 6, 74, 76
11, 6568, Control_c, 6, 74, 76
11, 6568, Control_c, 6, 7, 127
11, 6569, Control_c, 6, 74, 76
11, 6569, Control_c, 6, 7, 127
11, 6570, Control_c, 6, 74, 76
11, 6570, Control_c, 6, 7, 127
11, 6571, Control_c, 6, 74, 76
11, 6572, Control_c, 6, 74, 76
11, 6572, Control_c, 6, 7, 127
11, 6573, Control_c, 6, 74, 76
11, 6573, Control_c, 6, 7, 127
11, 6574, Control_c, 6, 74, 76
11, 6574, Control_c, 6, 7, 127
11, 6575, Control_c, 6, 74, 76
11, 6576, Control_c, 6, 74, 76
11, 6576, Control_c, 6, 7, 127
11, 6577, Control_c, 6, 74, 76
11, 6577, Control_c, 6, 7, 127
11, 6578, Control_c, 6, 74, 76
11, 6578, Control_c, 6, 7, 127
11, 6579, Control_c, 6, 74, 76
11, 6580, Control_c, 6, 74, 76
11, 6580, Control_c, 6, 7, 127
11, 6581, Control_c, 6, 74, 76
11, 6581, Control_c, 6, 7, 127
11, 6582, Control_c, 6, 74, 76
11, 6582, Control_c, 6, 7, 127
11, 6583, Control_c, 6, 74, 76
11, 6584, Control_c, 6, 74, 77
11, 6584, Control_c, 6, 7, 127
11, 6585, Control_c, 6, 74, 77
11, 6585, Control_c, 6, 7, 127
11, 6586, Control_c, 6, 74, 77
11, 6586, Control_c, 6, 7, 127
11, 6587, Control_c, 6, 74, 77
11, 6588, Control_c, 6, 74, 77
11, 6588, Control_c, 6, 7, 127
11, 6589, Control_c, 6, 74, 77
11, 6589, Control_c, 6, 7, 127
11, 6590, Control_c, 6, 74, 77
11, 6590, Control_c, 6, 7, 127
11, 6591, Control_c, 6, 74, 77
11, 6592, Control_c, 6, 74, 77
11, 6592, Control_c, 6, 7, 127
11, 6593, Control_c, 6, 74, 77
11, 6593, Control_c, 6, 7, 127
11, 6594, Control_c, 6, 74, 77
11, 6594, Control_c, 6, 7, 127
11, 6595, Control_c, 6, 74, 77
11, 6596, Control_c, 6, 74, 77
11, 6596, Control_c, 6, 7, 127
11, 6597, Control_c, 6, 74, 77
11, 6597, Control_c, 6, 7, 127
11, 6598, Control_c, 6, 74, 77
11, 6598, Control_c, 6, 7, 127
11, 6599, Control_c, 6, 74, 77
11, 6600, Control_c, 6, 74, 77
11, 6600, Control_c, 6, 7, 127
11, 6601, Control_c, 6, 74, 77
11, 6601, Control_c, 6, 7, 127
11, 6602, Control_c, 6, 74, 77
11, 6602, Control_c, 6, 7, 127
11, 6603, Control_c, 6, 74, 77
11, 6604, Control_c, 6, 74, 77
11, 6604, Control_c, 6, 7, 127
11, 6605, Control_c, 6, 74, 78
11, 6605, Control_c, 6, 7, 127
11, 6606, Control_c, 6, 74, 78
11, 6606, Control_c, 6, 7, 127
11, 6607, Control_c, 6, 74, 78
11, 6608, Control_c, 6, 74, 78
11, 6608, Control_c, 6, 7, 127
11, 6609, Control_c, 6, 74, 78
11, 6609, Control_c, 6, 7, 127
11, 6610, Control_c, 6, 74, 78
11, 6610, Control_c, 6, 7, 127
11, 6611, Control_c, 6, 74, 78
11, 6612, Control_c, 6, 74, 78
11, 6612, Control_c, 6, 7, 127
11, 6613, Control_c, 6, 74, 78
11, 6613, Control_c, 6, 7, 127
11, 6614, Control_c, 6, 74, 78
11, 6614, Control_c, 6, 7, 127
11, 6615, Control_c, 6, 74, 78
11, 6616, Control_c, 6, 74, 78
11, 6616, Control_c, 6, 7, 127
11, 6617, Control_c, 6, 74, 78
11, 6617, Control_c, 6, 7, 127
11, 6618, Control_c, 6, 74, 78
11, 6618, Control_c, 6, 7, 127
11, 6619, Control_c, 6, 74, 78
11, 6620, Control_c, 6, 74, 78
11, 6620, Control_c, 6, 7, 127
11, 6621, Control_c, 6, 74, 78
11, 6621, Control_c, 6, 7, 127
11, 6622, Control_c, 6, 74, 78
11, 6622, Control_c, 6, 7, 127
11, 6623, Control_c, 6, 74, 78
11, 6624, Control_c, 6, 74, 78
11, 6624, Control_c, 6, 7, 127
11, 6625, Control_c, 6, 74, 78
11, 6625, Control_c, 6, 7, 127
11, 6626, Control_c, 6, 74, 78
11, 6626, Control_c, 6, 7, 127
11, 6627, Control_c, 6, 74, 79
11, 6628, Control_c, 6, 74, 79
11, 6628, Control_c, 6, 7, 127
11, 6629, Control_c, 6, 74, 79
11, 6629, Control_c, 6, 7, 127
11, 6630, Control_c, 6, 74, 79
11, 6630, Control_c, 6, 7, 127
11, 6631, Control_c, 6, 74, 79
11, 6632, Control_c, 6, 74, 79
11, 6632, Control_c, 6, 7, 127
11, 6633, Control_c, 6, 74, 79
11, 6633, Control_c, 6, 7, 127
11, 6634, Control_c, 6, 74, 79
11, 6635, Control_c, 6, 74, 79
11, 6635, Control_c, 6, 7, 127
11, 6636, Control_c, 6, 74, 79
11, 6636, Control_c, 6, 7, 127
11, 6637, Control_c, 6, 74, 79
11, 6637, Control_c, 6, 7, 127
11, 6638, Control_c, 6, 74, 79
11, 6639, Control_c, 6, 74, 79
11, 6639, Control_c, 6, 7, 127
11, 6640, Control_c, 6, 74, 79
11, 6640, Control_c, 6, 7, 127
11, 6641, Control_c, 6, 74, 79
11, 6641, Control_c, 6, 7, 127
11, 6642, Control_c, 6, 74, 79
11, 6643, Control_c, 6, 74, 79
11, 6643, Control_c, 6, 7, 127
11, 6644, Control_c, 6, 74, 79
11, 6644, Control_c, 6, 7, 127
11, 6645, Control_c, 6, 74, 79
11, 6645, Control_c, 6, 7, 127
11, 6646, Control_c, 6, 74, 79
11, 6647, Control_c, 6, 74, 79
11, 6647, Control_c, 6, 7, 127
11, 6648, Control_c, 6, 74, 79
11, 6648, Control_c, 6, 7, 127
11, 6649, Control_c, 6, 74, 80
11, 6649, Control_c, 6, 7, 127
11, 6650, Control_c, 6, 74, 80
11, 6651, Control_c, 6, 74, 80
11, 6651, Control_c, 6, 7, 127
11, 6652, Control_c, 6, 74, 80
11, 6652, Control_c, 6, 7, 127
11, 6653, Control_c, 6, 74, 80
11, 6653, Control_c, 6, 7, 127
11, 6654, Control_c, 6, 74, 80
11, 6655, Control_c, 6, 74, 80
11, 6655, Control_c, 6, 7, 127
11, 6656, Control_c, 6, 74, 80
11, 6656, Control_c, 6, 7, 127
11, 6657, Control_c, 6, 74, 80
11, 6657, Control_c, 6, 7, 127
11, 6658, Control_c, 6, 74, 80
11, 6659, Control_c, 6, 74, 80
11, 6659, Control_c, 6, 7, 127
11, 6660, Control_c, 6, 74, 80
11, 6660, Control_c, 6, 7, 127
11, 6661, Control_c, 6, 74, 80
11, 6661, Control_c, 6, 7, 127
11, 6662, Control_c, 6, 74, 80
11, 6663, Control_c, 6, 74, 80
11, 6663, Control_c, 6, 7, 127
11, 6664, Control_c, 6, 74, 80
11, 6664, Control_c, 6, 7, 127
11, 6665, Control_c, 6, 74, 80
11, 6665, Control_c, 6, 7, 127
11, 6666, Control_c, 6, 74, 80
11, 6667, Control_c, 6, 74, 80
11, 6667, Control_c, 6, 7, 127
11, 6668, Control_c, 6, 74, 80
11, 6668, Control_c, 6, 7, 127
11, 6669, Control_c, 6, 74, 80
11, 6669, Control_c, 6, 7, 127
11, 6670, Control_c, 6, 74, 80
11, 6671, Control_c, 6, 74, 81
11, 6671, Control_c, 6, 7, 127
11, 6672, Control_c, 6, 74, 81
11, 6672, Control_c, 6, 7, 127
11, 6673, Control_c, 6, 74, 81
11, 6673, Control_c, 6, 7, 127
11, 6674, Control_c, 6, 74, 81
11, 6675, Control_c, 6, 74, 81
11, 6675, Control_c, 6, 7, 127
11, 6676, Control_c, 6, 74, 81
11, 6676, Control_c, 6, 7, 127
11, 6677, Control_c, 6, 74, 81
11, 6677, Control_c, 6, 7, 127
11, 6678, Control_c, 6, 74, 81
11, 6679, Control_c, 6, 74, 81
11, 6679, Control_c, 6, 7, 127
11, 6680, Control_c, 6, 74, 81
11, 6680, Control_c, 6, 7, 127
11, 6681, Control_c, 6, 74, 81
11, 6681, Control_c, 6, 7, 127
11, 6682, Control_c, 6, 74, 81
11, 6683, Control_c, 6, 74, 81
11, 6683, Control_c, 6, 7, 127
11, 6684, Control_c, 6, 74, 81
11, 6684, Control_c, 6, 7, 127
11, 6685, Control_c, 6, 74, 81
11, 6685, Control_c, 6, 7, 127
11, 6686, Control_c, 6, 74, 81
11, 6687, Control_c, 6, 74, 81
11, 6687, Control_c, 6, 7, 127
11, 6688, Control_c, 6, 74, 81
11, 6688, Control_c, 6, 7, 127
11, 6689, Control_c, 6, 74, 81
11, 6689, Control_c, 6, 7, 127
11, 6690, Control_c, 6, 74, 81
11, 6691, Control_c, 6, 74, 81
11, 6691, Control_c, 6, 7, 127
11, 6692, Control_c, 6, 74, 81
11, 6692, Control_c, 6, 7, 127
11, 6693, Control_c, 6, 74, 82
11, 6693, Control_c, 6, 7, 127
11, 6694, Control_c, 6, 74, 82
11, 6695, Control_c, 6, 74, 82
11, 6695, Control_c, 6, 7, 127
11, 6696, Control_c, 6, 74, 82
11, 6696, Control_c, 6, 7, 127
11, 6697, Control_c, 6, 74, 82
11, 6697, Control_c, 6, 7, 127
11, 6698, Control_c, 6, 74, 82
11, 6699, Control_c, 6, 74, 82
11, 6699, Control_c, 6, 7, 127
11, 6700, Control_c, 6, 74, 82
11, 6700, Control_c, 6, 7, 127
11, 6701, Control_c, 6, 74, 82
11, 6701, Control_c, 6, 7, 127
11, 6702, Control_c, 6, 74, 82
11, 6703, Control_c, 6, 74, 82
11, 6703, Control_c, 6, 7, 127
11, 6704, Control_c, 6, 74, 82
11, 6704, Control_c, 6, 7, 127
11, 6705, Control_c, 6, 74, 82
11, 6705, Control_c, 6, 7, 127
11, 6706, Control_c, 6, 74, 82
11, 6707, Control_c, 6, 74, 82
11, 6707, Control_c, 6, 7, 127
11, 6708, Control_c, 6, 74, 82
11, 6708, Control_c, 6, 7, 127
11, 6709, Control_c, 6, 74, 82
11, 6709, Control_c, 6, 7, 127
11, 6710, Control_c, 6, 74, 82
11, 6711, Control_c, 6, 74, 82
11, 6711, Control_c, 6, 7, 127
11, 6712, Control_c, 6, 74, 82
11, 6712, Control_c, 6, 7, 127
11, 6713, Control_c, 6, 74, 82
11, 6713, Control_c, 6, 7, 127
11, 6714, Control_c, 6, 74, 83
11, 6715, Control_c, 6, 74, 83
11, 6715, Control_c, 6, 7, 127
11, 6716, Control_c, 6, 74, 83
11, 6716, Control_c, 6, 7, 127
11, 6717, Control_c, 6, 74, 83
11, 6717, Control_c, 6, 7, 127
11, 6718, Control_c, 6, 74, 83
11, 6719, Control_c, 6, 74, 83
11, 6719, Control_c, 6, 7, 127
11, 6720, Control_c, 6, 74, 83
11, 6720, Control_c, 6, 7, 127
11, 6721, Control_c, 6, 74, 83
11, 6721, Control_c, 6, 7, 127
11, 6722, Control_c, 6, 74, 83
11, 6723, Control_c, 6, 74, 83
11, 6723, Control_c, 6, 7, 127
11, 6724, Control_c, 6, 74, 83
11, 6724, Control_c, 6, 7, 127
11, 6725, Control_c, 6, 74, 83
11, 6725, Control_c, 6, 7, 127
11, 6726, Control_c, 6, 74, 83
11, 6727, Control_c, 6, 74, 83
11, 6727, Control_c, 6, 7, 127
11, 6728, Control_c, 6, 74, 83
11, 6728, Control_c, 6, 7, 127
11, 6729, Control_c, 6, 74, 83
11, 6729, Control_c, 6, 7, 127
11, 6730, Control_c, 6, 74, 83
11, 6731, Control_c, 6, 74, 83
11, 6731, Control_c, 6, 7, 127
11, 6732, Control_c, 6, 74, 83
11, 6732, Control_c, 6, 7, 127
11, 6733, Control_c, 6, 74, 83
11, 6733, Control_c, 6, 7, 127
11, 6734, Control_c, 6, 74, 83
11, 6735, Control_c, 6, 74, 83
11, 6735, Control_c, 6, 7, 127
11, 6736, Control_c, 6, 74, 84
11, 6736, Control_c, 6, 7, 127
11, 6737, Control_c, 6, 74, 84
11, 6737, Control_c, 6, 7, 127
11, 6738, Control_c, 6, 74, 84
11, 6739, Control_c, 6, 74, 84
11, 6739, Control_c, 6, 7, 127
11, 6740, Control_c, 6, 74, 84
11, 6740, Control_c, 6, 7, 127
11, 6741, Control_c, 6, 74, 84
11, 6741, Control_c, 6, 7, 127
11, 6742, Control_c, 6, 74, 84
11, 6743, Control_c, 6, 74, 84
11, 6743, Control_c, 6, 7, 127
11, 6744, Control_c, 6, 74, 84
11, 6744, Control_c, 6, 7, 127
11, 6745, Control_c, 6, 74, 84
11, 6745, Control_c, 6, 7, 127
11, 6746, Control_c, 6, 74, 84
11, 6747, Control_c, 6, 74, 84
11, 6747, Control_c, 6, 7, 127
11, 6748, Control_c, 6, 74, 84
11, 6748, Control_c, 6, 7, 127
11, 6749, Control_c, 6, 74, 84
11, 6749, Control_c, 6, 7, 127
11, 6750, Control_c, 6, 74, 84
11, 6751, Control_c, 6, 74, 84
11, 6751, Control_c, 6, 7, 127
11, 6752, Control_c, 6, 74, 84
11, 6752, Control_c, 6, 7, 127
11, 6753, Control_c, 6, 74, 84
11, 6753, Control_c, 6, 7, 127
11, 6754, Control_c, 6, 74, 84
11, 6755, Control_c, 6, 74, 84
11, 6755, Control_c, 6, 7, 127
11, 6756, Control_c, 6, 74, 84
11, 6756, Control_c, 6, 7, 127
11, 6757, Control_c, 6, 74, 84
11, 6757, Control_c, 6, 7, 127
11, 6758, Control_c, 6, 74, 85
11, 6759, Control_c, 6, 74, 85
11, 6759, Control_c, 6, 7, 127
11, 6760, Control_c, 6, 74, 85
11, 6760, Control_c, 6, 7, 127
11, 6761, Control_c, 6, 74, 85
11, 6761, Control_c, 6, 7, 127
11, 6762, Control_c, 6, 74, 85
11, 6763, Control_c, 6, 74, 85
11, 6763, Control_c, 6, 7, 127
11, 6764, Control_c, 6, 74, 85
11, 6764, Control_c, 6, 7, 127
11, 6765, Control_c, 6, 74, 85
11, 6765, Control_c, 6, 7, 127
11, 6766, Control_c, 6, 74, 85
11, 6767, Control_c, 6, 74, 85
11, 6767, Control_c, 6, 7, 127
11, 6768, Control_c, 6, 74, 85
11, 6768, Control_c, 6, 7, 127
11, 6769, Control_c, 6, 74, 85
11, 6769, Control_c, 6, 7, 127
11, 6770, Control_c, 6, 74, 85
11, 6771, Control_c, 6, 74, 85
11, 6771, Control_c, 6, 7, 127
11, 6772, Control_c, 6, 74, 85
11, 6772, Control_c, 6, 7, 127
11, 6773, Control_c, 6, 74, 85
11, 6773, Control_c, 6, 7, 127
11, 6774, Control_c, 6, 74, 85
11, 6775, Control_c, 6, 74, 85
11, 6775, Control_c, 6, 7, 127
11, 6776, Control_c, 6, 74, 85
11, 6776, Control_c, 6, 7, 127
11, 6777, Control_c, 6, 74, 85
11, 6777, Control_c, 6, 7, 127
11, 6778, Control_c, 6, 74, 85
11, 6779, Control_c, 6, 74, 85
11, 6779, Control_c, 6, 7, 127
11, 6780, Control_c, 6, 74, 86
11, 6780, Control_c, 6, 7, 127
11, 6781, Control_c, 6, 74, 86
11, 6781, Control_c, 6, 7, 127
11, 6782, Control_c, 6, 74, 86
11, 6783, Control_c, 6, 74, 86
11, 6783, Control_c, 6, 7, 127
11, 6784, Control_c, 6, 74, 86
11, 6784, Control_c, 6, 7, 127
11, 6785, Control_c, 6, 74, 86
11, 6785, Control_c, 6, 7, 127
11, 6786, Control_c, 6, 74, 86
11, 6787, Control_c, 6, 74, 86
11, 6787, Control_c, 6, 7, 127
11, 6788, Control_c, 6, 74, 86
11, 6788, Control_c, 6, 7, 127
11, 6789, Control_c, 6, 74, 86
11, 6789, Control_c, 6, 7, 127
11, 6790, Control_c, 6, 74, 86
11, 6791, Control_c, 6, 74, 86
11, 6791, Control_c, 6, 7, 127
11, 6792, Control_c, 6, 74, 86
11, 6792, Control_c, 6, 7, 127
11, 6793, Control_c, 6, 74, 86
11, 6793, Control_c, 6, 7, 127
11, 6794, Control_c, 6, 74, 86
11, 6795, Control_c, 6, 74, 86
11, 6795, Control_c, 6, 7, 127
11, 6796, Control_c, 6, 74, 86
11, 6796, Control_c, 6, 7, 127
11, 6797, Control_c, 6, 74, 86
11, 6797, Control_c, 6, 7, 127
11, 6798, Control_c, 6, 74, 86
11, 6799, Control_c, 6, 74, 86
11, 6799, Control_c, 6, 7, 127
11, 6800, Control_c, 6, 74, 86
11, 6800, Control_c, 6, 7, 127
11, 6801, Control_c, 6, 74, 87
11, 6801, Control_c, 6, 7, 127
11, 6802, Control_c, 6, 74, 87
11, 6803, Control_c, 6, 74, 87
11, 6803, Control_c, 6, 7, 127
11, 6804, Control_c, 6, 74, 87
11, 6804, Control_c, 6, 7, 127
11, 6805, Control_c, 6, 74, 87
11, 6806, Control_c, 6, 74, 87
11, 6806, Control_c, 6, 7, 127
11, 6807, Control_c, 6, 74, 87
11, 6807, Control_c, 6, 7, 126
11, 6808, Control_c, 6, 74, 87
11, 6808, Control_c, 6, 7, 126
11, 6809, Control_c, 6, 74, 87
11, 6810, Control_c, 6, 74, 87
11, 6810, Control_c, 6, 7, 126
11, 6811, Control_c, 6, 74, 87
11, 6811, Control_c, 6, 7, 126
11, 6812, Control_c, 6, 74, 87
11, 6812, Control_c, 6, 7, 126
11, 6813, Control_c, 6, 74, 87
11, 6814, Control_c, 6, 74, 87
11, 6814, Control_c, 6, 7, 126
11, 6815, Control_c, 6, 74, 87
11, 6815, Control_c, 6, 7, 126
11, 6816, Control_c, 6, 74, 87
11, 6816, Control_c, 6, 7, 126
11, 6817, Control_c, 6, 74, 87
11, 6818, Control_c, 6, 74, 87
11, 6818, Control_c, 6, 7, 126
11, 6819, Control_c, 6, 74, 87
11, 6819, Control_c, 6, 7, 126
11, 6820, Control_c, 6, 74, 87
11, 6820, Control_c, 6, 7, 126
11, 6821, Control_c, 6, 74, 87
11, 6822, Control_c, 6, 74, 87
11, 6822, Control_c, 6, 7, 126
11, 6823, Control_c, 6, 74, 88
11, 6823, Control_c, 6, 7, 126
11, 6824, Control_c, 6, 74, 88
11, 6824, Control_c, 6, 7, 126
11, 6825, Control_c, 6, 74, 88
11, 6826, Control_c, 6, 74, 88
11, 6826, Control_c, 6, 7, 126
11, 6827, Control_c, 6, 74, 88
11, 6827, Control_c, 6, 7, 126
11, 6828, Control_c, 6, 74, 88
11, 6828, Control_c, 6, 7, 126
11, 6829, Control_c, 6, 74, 88
11, 6830, Control_c, 6, 74, 88
11, 6830, Control_c, 6, 7, 126
11, 6831, Control_c, 6, 74, 88
11, 6831, Control_c, 6, 7, 126
11, 6832, Control_c, 6, 74, 88
11, 6832, Control_c, 6, 7, 126
11, 6833, Control_c, 6, 74, 88
11, 6834, Control_c, 6, 74, 88
11, 6834, Control_c, 6, 7, 126
11, 6835, Control_c, 6, 74, 88
11, 6835, Control_c, 6, 7, 126
11, 6836, Control_c, 6, 74, 88
11, 6836, Control_c, 6, 7, 126
11, 6837, Control_c, 6, 74, 88
11, 6838, Control_c, 6, 74, 88
11, 6838, Control_c, 6, 7, 126
11, 6839, Control_c, 6, 74, 88
11, 6839, Control_c, 6, 7, 126
11, 6840, Control_c, 6, 74, 88
11, 6840, Control_c, 6, 7, 126
11, 6841, Control_c, 6, 74, 88
11, 6842, Control_c, 6, 74, 88
11, 6842, Control_c, 6, 7, 126
11, 6843, Control_c, 6, 74, 88
11, 6843, Control_c, 6, 7, 126
11, 6844, Control_c, 6, 74, 88
11, 6844, Control_c, 6, 7, 126
11, 6845, Control_c, 6, 74, 89
11, 6846, Control_c, 6, 74, 89
11, 6846, Control_c, 6, 7, 126
11, 6847, Control_c, 6, 74, 89
11, 6847, Control_c, 6, 7, 126
11, 6848, Control_c, 6, 74, 89
11, 6848, Control_c, 6, 7, 126
11, 6849, Control_c, 6, 74, 89
11, 6850, Control_c, 6, 74, 89
11, 6850, Control_c, 6, 7, 126
11, 6851, Control_c, 6, 74, 89
11, 6851, Control_c, 6, 7, 126
11, 6852, Control_c, 6, 74, 89
11, 6852, Control_c, 6, 7, 126
11, 6853, Control_c, 6, 74, 89
11, 6854, Control_c, 6, 74, 89
11, 6854, Control_c, 6, 7, 126
11, 6855, Control_c, 6, 74, 89
11, 6855, Control_c, 6, 7, 126
11, 6856, Control_c, 6, 74, 89
11, 6856, Control_c, 6, 7, 126
11, 6857, Control_c, 6, 74, 89
11, 6858, Control_c, 6, 74, 89
11, 6858, Control_c, 6, 7, 126
11, 6859, Control_c, 6, 74, 89
11, 6859, Control_c, 6, 7, 126
11, 6860, Control_c, 6, 74, 89
11, 6860, Control_c, 6, 7, 126
11, 6861, Control_c, 6, 74, 89
11, 6862, Control_c, 6, 74, 89
11, 6862, Control_c, 6, 7, 126
11, 6863, Control_c, 6, 74, 89
11, 6863, Control_c, 6, 7, 126
11, 6864, Control_c, 6, 74, 89
11, 6864, Control_c, 6, 7, 126
11, 6865, Control_c, 6, 74, 89
11, 6866, Control_c, 6, 74, 89
11, 6866, Control_c, 6, 7, 126
11, 6867, Control_c, 6, 74, 90
11, 6867, Control_c, 6, 7, 126
11, 6868, Control_c, 6, 74, 90
11, 6868, Control_c, 6, 7, 126
11, 6869, Control_c, 6, 74, 90
11, 6870, Control_c, 6, 74, 90
11, 6870, Control_c, 6, 7, 126
11, 6871, Control_c, 6, 74, 90
11, 6871, Control_c, 6, 7, 126
11, 6872, Control_c, 6, 74, 90
11, 6872, Control_c, 6, 7, 126
11, 6873, Control_c, 6, 74, 90
11, 6874, Control_c, 6, 74, 90
11, 6874, Control_c, 6, 7, 126
11, 6875, Control_c, 6, 74, 90
11, 6875, Control_c, 6, 7, 126
11, 6876, Control_c, 6, 74, 90
11, 6876, Control_c, 6, 7, 126
11, 6877, Control_c, 6, 74, 90
11, 6878, Control_c, 6, 74, 90
11, 6878, Control_c, 6, 7, 126
11, 6879, Control_c, 6, 74, 90
11, 6879, Control_c, 6, 7, 126
11, 6880, Control_c, 6, 74, 90
11, 6880, Control_c, 6, 7, 126
11, 6881, Control_c, 6, 74, 90
11, 6882, Control_c, 6, 74, 90
11, 6882, Control_c, 6, 7, 126
11, 6883, Control_c, 6, 74, 90
11, 6883, Control_c, 6, 7, 126
11, 6884, Control_c, 6, 74, 90
11, 6884, Control_c, 6, 7, 126
11, 6885, Control_c, 6, 74, 90
11, 6886, Control_c, 6, 74, 90
11, 6886, Control_c, 6, 7, 126
11, 6887, Control_c, 6, 74, 90
11, 6887, Control_c, 6, 7, 126
11, 6888, Control_c, 6, 74, 90
11, 6888, Control_c, 6, 7, 126
11, 6889, Control_c, 6, 74, 90
11, 6890, Control_c, 6, 74, 90
11, 6890, Control_c, 6, 7, 126
11, 6891, Control_c, 6, 74, 90
11, 6891, Control_c, 6, 7, 126
11, 6892, Control_c, 6, 74, 90
11, 6892, Control_c, 6, 7, 126
11, 6893, Control_c, 6, 74, 90
11, 6894, Control_c, 6, 74, 90
11, 6894, Control_c, 6, 7, 126
11, 6895, Control_c, 6, 74, 90
11, 6895, Control_c, 6, 7, 126
11, 6896, Control_c, 6, 74, 90
11, 6896, Control_c, 6, 7, 126
11, 6897, Control_c, 6, 74, 90
11, 6898, Control_c, 6, 74, 90
11, 6898, Control_c, 6, 7, 126
11, 6899, Control_c, 6, 74, 90
11, 6899, Control_c, 6, 7, 126
11, 6900, Control_c, 6, 74, 90
11, 6900, Control_c, 6, 7, 126
11, 6901, Control_c, 6, 74, 90
11, 6902, Control_c, 6, 74, 90
11, 6902, Control_c, 6, 7, 126
11, 6903, Control_c, 6, 74, 90
11, 6903, Control_c, 6, 7, 126
11, 6904, Control_c, 6, 74, 90
11, 6904, Control_c, 6, 7, 126
11, 6905, Control_c, 6, 74, 90
11, 6906, Control_c, 6, 74, 90
11, 6906, Control_c, 6, 7, 126
11, 6907, Control_c, 6, 74, 90
11, 6907, Control_c, 6, 7, 126
11, 6908, Control_c, 6, 74, 90
11, 6908, Control_c, 6, 7, 126
11, 6909, Control_c, 6, 74, 90
11, 6910, Control_c, 6, 74, 90
11, 6910, Control_c, 6, 7, 126
11, 6911, Control_c, 6, 74, 90
11, 6911, Control_c, 6, 7, 126
11, 6912, Control_c, 6, 74, 90
11, 6912, Control_c, 6, 7, 126
11, 6913, Control_c, 6, 74, 90
11, 6914, Control_c, 6, 74, 90
11, 6914, Control_c, 6, 7, 126
11, 6915, Control_c, 6, 74, 90
11, 6915, Control_c, 6, 7, 126
11, 6916, Control_c, 6, 74, 90
11, 6916, Control_c, 6, 7, 126
11, 6917, Control_c, 6, 74, 90
11, 6918, Control_c, 6, 74, 90
11, 6918, Control_c, 6, 7, 126
11, 6919, Control_c, 6, 74, 90
11, 6919, Control_c, 6, 7, 126
11, 6920, Control_c, 6, 74, 90
11, 6920, Control_c, 6, 7, 126
11, 6921, Control_c, 6, 74, 90
11, 6922, Control_c, 6, 74, 90
11, 6922, Control_c, 6, 7, 126
11, 6923, Control_c, 6, 74, 90
11, 6923, Control_c, 6, 7, 126
11, 6924, Control_c, 6, 74, 90
11, 6924, Control_c, 6, 7, 126
11, 6925, Control_c, 6, 74, 90
11, 6926, Control_c, 6, 74, 90
11, 6926, Control_c, 6, 7, 126
11, 6927, Control_c, 6, 74, 89
11, 6927, Control_c, 6, 7, 126
11, 6928, Control_c, 6, 74, 89
11, 6928, Control_c, 6, 7, 126
11, 6929, Control_c, 6, 74, 89
11, 6930, Control_c, 6, 74, 89
11, 6930, Control_c, 6, 7, 126
11, 6931, Control_c, 6, 74, 89
11, 6931, Control_c, 6, 7, 126
11, 6932, Control_c, 6, 74, 89
11, 6932, Control_c, 6, 7, 126
11, 6933, Control_c, 6, 74, 89
11, 6934, Control_c, 6, 74, 89
11, 6934, Control_c, 6, 7, 126
11, 6935, Control_c, 6, 74, 89
11, 6935, Control_c, 6, 7, 126
11, 6936, Control_c, 6, 74, 89
11, 6936, Control_c, 6, 7, 126
11, 6937, Control_c, 6, 74, 89
11, 6938, Control_c, 6, 74, 89
11, 6938, Control_c, 6, 7, 126
11, 6939, Control_c, 6, 74, 89
11, 6939, Control_c, 6, 7, 126
11, 6940, Control_c, 6, 74, 89
11, 6940, Control_c, 6, 7, 126
11, 6941, Control_c, 6, 74, 89
11, 6942, Control_c, 6, 74, 89
11, 6942, Control_c, 6, 7, 126
11, 6943, Control_c, 6, 74, 89
11, 6943, Control_c, 6, 7, 126
11, 6944, Control_c, 6, 74, 89
11, 6944, Control_c, 6, 7, 126
11, 6945, Control_c, 6, 74, 89
11, 6946, Control_c, 6, 74, 89
11, 6946, Control_c, 6, 7, 126
11, 6947, Control_c, 6, 74, 89
11, 6947, Control_c, 6, 7, 126
11, 6948, Control_c, 6, 74, 89
11, 6948, Control_c, 6, 7, 126
11, 6949, Control_c, 6, 74, 89
11, 6950, Control_c, 6, 74, 89
11, 6950, Control_c, 6, 7, 126
11, 6951, Control_c, 6, 74, 89
11, 6951, Control_c, 6, 7, 126
11, 6952, Control_c, 6, 74, 89
11, 6952, Control_c, 6, 7, 126
11, 6953, Control_c, 6, 74, 89
11, 6954, Control_c, 6, 74, 89
11, 6954, Control_c, 6, 7, 126
11, 6955, Control_c, 6, 74, 89
11, 6955, Control_c, 6, 7, 126
11, 6956, Control_c, 6, 74, 89
11, 6956, Control_c, 6, 7, 126
11, 6957, Control_c, 6, 74, 89
11, 6958, Control_c, 6, 74, 89
11, 6958, Control_c, 6, 7, 126
11, 6959, Control_c, 6, 74, 89
11, 6959, Control_c, 6, 7, 126
11, 6960, Control_c, 6, 74, 89
11, 6960, Control_c, 6, 7, 126
11, 6961, Control_c, 6, 74, 89
11, 6962, Control_c, 6, 74, 89
11, 6962, Control_c, 6, 7, 126
11, 6963, Control_c, 6, 74, 89
11, 6963, Control_c, 6, 7, 126
11, 6964, Control_c, 6, 74, 89
11, 6964, Control_c, 6, 7, 126
11, 6965, Control_c, 6, 74, 89
11, 6966, Control_c, 6, 74, 89
11, 6966, Control_c, 6, 7, 126
11, 6967, Control_c, 6, 74, 89
11, 6967, Control_c, 6, 7, 126
11, 6968, Control_c, 6, 74, 88
11, 6968, Control_c, 6, 7, 126
11, 6969, Control_c, 6, 74, 88
11, 6970, Control_c, 6, 74, 88
11, 6970, Control_c, 6, 7, 126
11, 6971, Control_c, 6, 74, 88
11, 6971, Control_c, 6, 7, 126
11, 6972, Control_c, 6, 74, 88
11, 6972, Control_c, 6, 7, 126
11, 6973, Control_c, 6, 74, 88
11, 6974, Control_c, 6, 74, 88
11, 6974, Control_c, 6, 7, 126
11, 6975, Control_c, 6, 74, 88
11, 6975, Control_c, 6, 7, 126
11, 6976, Control_c, 6, 74, 88
11, 6977, Control_c, 6, 74, 88
11, 6977, Control_c, 6, 7, 126
11, 6978, Control_c, 6, 74, 88
11, 6978, Control_c, 6, 7, 126
11, 6979, Control_c, 6, 74, 88
11, 6979, Control_c, 6, 7, 126
11, 6980, Control_c, 6, 74, 88
11, 6981, Control_c, 6, 74, 88
11, 6981, Control_c, 6, 7, 126
11, 6982, Control_c, 6, 74, 88
11, 6982, Control_c, 6, 7, 126
11, 6983, Control_c, 6, 74, 88
11, 6983, Control_c, 6, 7, 126
11, 6984, Control_c, 6, 74, 88
11, 6985, Control_c, 6, 74, 88
11, 6985, Control_c, 6, 7, 126
11, 6986, Control_c, 6, 74, 88
11, 6986, Control_c, 6, 7, 126
11, 6987, Control_c, 6, 74, 88
11, 6987, Control_c, 6, 7, 126
11, 6988, Control_c, 6, 74, 88
11, 6989, Control_c, 6, 74, 88
11, 6989, Control_c, 6, 7, 126
11, 6990, Control_c, 6, 74, 88
11, 6990, Control_c, 6, 7, 126
11, 6991, Control_c, 6, 74, 88
11, 6991, Control_c, 6, 7, 126
11, 6992, Control_c, 6, 74, 88
11, 6993, Control_c, 6, 74, 88
11, 6993, Control_c, 6, 7, 126
11, 6994, Control_c, 6, 74, 88
11, 6994, Control_c, 6, 7, 126
11, 6995, Control_c, 6, 74, 88
11, 6995, Control_c, 6, 7, 126
11, 6996, Control_c, 6, 74, 88
11, 6997, Control_c, 6, 74, 88
11, 6997, Control_c, 6, 7, 126
11, 6998, Control_c, 6, 74, 88
11, 6998, Control_c, 6, 7, 126
11, 6999, Control_c, 6, 74, 88
11, 6999, Control_c, 6, 7, 126
11, 7000, Control_c, 6, 74, 88
11, 7001, Control_c, 6, 74, 88
11, 7001, Control_c, 6, 7, 126
11, 7002, Control_c, 6, 74, 88
11, 7002, Control_c, 6, 7, 126
11, 7003, Control_c, 6, 74, 88
11, 7003, Control_c, 6, 7, 126
11, 7004, Control_c, 6, 74, 88
11, 7005, Control_c, 6, 74, 88
11, 7005, Control_c, 6, 7, 126
11, 7006, Control_c, 6, 74, 88
11, 7006, Control_c, 6, 7, 126
11, 7007, Control_c, 6, 74, 88
11, 7007, Control_c, 6, 7, 126
11, 7008, Control_c, 6, 74, 88
11, 7009, Control_c, 6, 74, 88
11, 7009, Control_c, 6, 7, 126
11, 7010, Control_c, 6, 74, 87
11, 7010, Control_c, 6, 7, 126
11, 7011, Control_c, 6, 74, 87
11, 7011, Control_c, 6, 7, 126
11, 7012, Control_c, 6, 74, 87
11, 7013, Control_c, 6, 74, 87
11, 7013, Control_c, 6, 7, 126
11, 7014, Control_c, 6, 74, 87
11, 7014, Control_c, 6, 7, 126
11, 7015, Control_c, 6, 74, 87
11, 7015, Control_c, 6, 7, 126
11, 7016, Control_c, 6, 74, 87
11, 7017, Control_c, 6, 74, 87
11, 7017, Control_c, 6, 7, 126
11, 7018, Control_c, 6, 74, 87
11, 7018, Control_c, 6, 7, 126
11, 7019, Control_c, 6, 74, 87
11, 7019, Control_c, 6, 7, 126
11, 7020, Control_c, 6, 74, 87
11, 7021, Control_c, 6, 74, 87
11, 7021, Control_c, 6, 7, 126
11, 7022, Control_c, 6, 74, 87
11, 7022, Control_c, 6, 7, 126
11, 7023, Control_c, 6, 74, 87
11, 7023, Control_c, 6, 7, 126
11, 7024, Control_c, 6, 74, 87
11, 7025, Control_c, 6, 74, 87
11, 7025, Control_c, 6, 7, 126
11, 7026, Control_c, 6, 74, 87
11, 7026, Control_c, 6, 7, 126
11, 7027, Control_c, 6, 74, 87
11, 7027, Control_c, 6, 7, 126
11, 7028, Control_c, 6, 74, 87
11, 7029, Control_c, 6, 74, 87
11, 7029, Control_c, 6, 7, 126
11, 7030, Control_c, 6, 74, 87
11, 7030, Control_c, 6, 7, 126
11, 7031, Control_c, 6, 74, 87
11, 7031, Control_c, 6, 7, 126
11, 7032, Control_c, 6, 74, 87
11, 7033, Control_c, 6, 74, 87
11, 7033, Control_c, 6, 7, 126
11, 7034, Control_c, 6, 74, 87
11, 7034, Control_c, 6, 7, 126
11, 7035, Control_c, 6, 74, 87
11, 7035, Control_c, 6, 7, 126
11, 7036, Control_c, 6, 74, 87
11, 7037, Control_c, 6, 74, 87
11, 7037, Control_c, 6, 7, 126
11, 7038, Control_c, 6, 74, 87
11, 7038, Control_c, 6, 7, 126
11, 7039, Control_c, 6, 74, 87
11, 7039, Control_c, 6, 7, 126
11, 7040, Control_c, 6, 74, 87
11, 7041, Control_c, 6, 74, 87
11, 7041, Control_c, 6, 7, 126
11, 7042, Control_c, 6, 74, 87
11, 7042, Control_c, 6, 7, 126
11, 7043, Control_c, 6, 74, 87
11, 7043, Control_c, 6, 7, 126
11, 7044, Control_c, 6, 74, 87
11, 7045, Control_c, 6, 74, 87
11, 7045, Control_c, 6, 7, 126
11, 7046, Control_c, 6, 74, 87
11, 7046, Control_c, 6, 7, 126
11, 7047, Control_c, 6, 74, 87
11, 7047, Control_c, 6, 7, 126
11, 7048, Control_c, 6, 74, 87
11, 7049, Control_c, 6, 74, 87
11, 7049, Control_c, 6, 7, 126
11, 7050, Control_c, 6, 74, 87
11, 7050, Control_c, 6, 7, 126
11, 7051, Control_c, 6, 74, 86
11, 7051, Control_c, 6, 7, 126
11, 7052, Control_c, 6, 74, 86
11, 7053, Control_c, 6, 74, 86
11, 7053, Control_c, 6, 7, 126
11, 7054, Control_c, 6, 74, 86
11, 7054, Control_c, 6, 7, 126
11, 7055, Control_c, 6, 74, 86
11, 7055, Control_c, 6, 7, 126
11, 7056, Control_c, 6, 74, 86
11, 7057, Control_c, 6, 74, 86
11, 7057, Control_c, 6, 7, 126
11, 7058, Control_c, 6, 74, 86
11, 7058, Control_c, 6, 7, 126
11, 7059, Control_c, 6, 74, 86
11, 7059, Control_c, 6, 7, 126
11, 7060, Control_c, 6, 74, 86
11, 7061, Control_c, 6, 74, 86
11, 7061, Control_c, 6, 7, 126
11, 7062, Control_c, 6, 74, 86
11, 7062, Control_c, 6, 7, 126
11, 7063, Control_c, 6, 74, 86
11, 7063, Control_c, 6, 7, 126
11, 7064, Control_c, 6, 74, 86
11, 7065, Control_c, 6, 74, 86
11, 7065, Control_c, 6, 7, 126
11, 7066, Control_c, 6, 74, 86
11, 7066, Control_c, 6, 7, 126
11, 7067, Control_c, 6, 74, 86
11, 7067, Control_c, 6, 7, 126
11, 7068, Control_c, 6, 74, 86
11, 7069, Control_c, 6, 74, 86
11, 7069, Control_c, 6, 7, 126
11, 7070, Control_c, 6, 74, 86
11, 7070, Control_c, 6, 7, 126
11, 7071, Control_c, 6, 74, 86
11, 7071, Control_c, 6, 7, 126
11, 7072, Control_c, 6, 74, 86
11, 7073, Control_c, 6, 74, 86
11, 7073, Control_c, 6, 7, 126
11, 7074, Control_c, 6, 74, 86
11, 7074, Control_c, 6, 7, 126
11, 7075, Control_c, 6, 74, 86
11, 7075, Control_c, 6, 7, 126
11, 7076, Control_c, 6, 74, 86
11, 7077, Control_c, 6, 74, 86
11, 7077, Control_c, 6, 7, 126
11, 7078, Control_c, 6, 74, 86
11, 7078, Control_c, 6, 7, 126
11, 7079, Control_c, 6, 74, 86
11, 7079, Control_c, 6, 7, 126
11, 7080, Control_c, 6, 74, 86
11, 7081, Control_c, 6, 74, 86
11, 7081, Control_c, 6, 7, 126
11, 7082, Control_c, 6, 74, 86
11, 7082, Control_c, 6, 7, 126
11, 7083, Control_c, 6, 74, 86
11, 7083, Control_c, 6, 7, 126
11, 7084, Control_c, 6, 74, 86
11, 7085, Control_c, 6, 74, 86
11, 7085, Control_c, 6, 7, 126
11, 7086, Control_c, 6, 74, 86
11, 7086, Control_c, 6, 7, 126
11, 7087, Control_c, 6, 74, 86
11, 7087, Control_c, 6, 7, 126
11, 7088, Control_c, 6, 74, 86
11, 7089, Control_c, 6, 74, 86
11, 7089, Control_c, 6, 7, 126
11, 7090, Control_c, 6, 74, 86
11, 7090, Control_c, 6, 7, 126
11, 7091, Control_c, 6, 74, 86
11, 7091, Control_c, 6, 7, 126
11, 7092, Control_c, 6, 74, 86
11, 7093, Control_c, 6, 74, 85
11, 7093, Control_c, 6, 7, 126
11, 7094, Control_c, 6, 74, 85
11, 7094, Control_c, 6, 7, 126
11, 7095, Control_c, 6, 74, 85
11, 7095, Control_c, 6, 7, 126
11, 7096, Control_c, 6, 74, 85
11, 7097, Control_c, 6, 74, 85
11, 7097, Control_c, 6, 7, 126
11, 7098, Control_c, 6, 74, 85
11, 7098, Control_c, 6, 7, 126
11, 7099, Control_c, 6, 74, 85
11, 7099, Control_c, 6, 7, 126
11, 7100, Control_c, 6, 74, 85
11, 7101, Control_c, 6, 74, 85
11, 7101, Control_c, 6, 7, 126
11, 7102, Control_c, 6, 74, 85
11, 7102, Control_c, 6, 7, 126
11, 7103, Control_c, 6, 74, 85
11, 7103, Control_c, 6, 7, 126
11, 7104, Control_c, 6, 74, 85
11, 7105, Control_c, 6, 74, 85
11, 7105, Control_c, 6, 7, 126
11, 7106, Control_c, 6, 74, 85
11, 7106, Control_c, 6, 7, 126
11, 7107, Control_c, 6, 74, 85
11, 7107, Control_c, 6, 7, 126
11, 7108, Control_c, 6, 74, 85
11, 7109, Control_c, 6, 74, 85
11, 7109, Control_c, 6, 7, 126
11, 7110, Control_c, 6, 74, 85
11, 7110, Control_c, 6, 7, 126
11, 7111, Control_c, 6, 74, 85
11, 7111, Control_c, 6, 7, 126
11, 7112, Control_c, 6, 74, 85
11, 7113, Control_c, 6, 74, 85
11, 7113, Control_c, 6, 7, 126
11, 7114, Control_c, 6, 74, 85
11, 7114, Control_c, 6, 7, 126
11, 7115, Control_c, 6, 74, 85
11, 7115, Control_c, 6, 7, 126
11, 7116, Control_c, 6, 74, 85
11, 7117, Control_c, 6, 74, 85
11, 7117, Control_c, 6, 7, 126
11, 7118, Control_c, 6, 74, 85
11, 7118, Control_c, 6, 7, 126
11, 7119, Control_c, 6, 74, 85
11, 7119, Control_c, 6, 7, 126
11, 7120, Control_c, 6, 74, 85
11, 7121, Control_c, 6, 74, 85
11, 7121, Control_c, 6, 7, 126
11, 7122, Control_c, 6, 74, 85
11, 7122, Control_c, 6, 7, 126
11, 7123, Control_c, 6, 74, 85
11, 7123, Control_c, 6, 7, 126
11, 7124, Control_c, 6, 74, 85
11, 7125, Control_c, 6, 74, 85
11, 7125, Control_c, 6, 7, 126
11, 7126, Control_c, 6, 74, 85
11, 7126, Control_c, 6, 7, 126
11, 7127, Control_c, 6, 74, 85
11, 7127, Control_c, 6, 7, 126
11, 7128, Control_c, 6, 74, 85
11, 7129, Control_c, 6, 74, 85
11, 7129, Control_c, 6, 7, 126
11, 7130, Control_c, 6, 74, 85
11, 7130, Control_c, 6, 7, 126
11, 7131, Control_c, 6, 74, 85
11, 7131, Control_c, 6, 7, 126
11, 7132, Control_c, 6, 74, 85
11, 7133, Control_c, 6, 74, 85
11, 7133, Control_c, 6, 7, 126
11, 7134, Control_c, 6, 74, 84
11, 7134, Control_c, 6, 7, 126
11, 7135, Control_c, 6, 74, 84
11, 7135, Control_c, 6, 7, 126
11, 7136, Control_c, 6, 74, 84
11, 7137, Control_c, 6, 74, 84
11, 7137, Control_c, 6, 7, 126
11, 7138, Control_c, 6, 74, 84
11, 7138, Control_c, 6, 7, 126
11, 7139, Control_c, 6, 74, 84
11, 7139, Control_c, 6, 7, 126
11, 7140, Control_c, 6, 74, 84
11, 7141, Control_c, 6, 74, 84
11, 7141, Control_c, 6, 7, 126
11, 7142, Control_c, 6, 74, 84
11, 7142, Control_c, 6, 7, 126
11, 7143, Control_c, 6, 74, 84
11, 7143, Control_c, 6, 7, 126
11, 7144, Control_c, 6, 74, 84
11, 7145, Control_c, 6, 74, 84
11, 7145, Control_c, 6, 7, 126
11, 7146, Control_c, 6, 74, 84
11, 7146, Control_c, 6, 7, 126
11, 7147, Control_c, 6, 74, 84
11, 7148, Control_c, 6, 74, 84
11, 7148, Control_c, 6, 7, 126
11, 7149, Control_c, 6, 74, 84
11, 7149, Control_c, 6, 7, 126
11, 7150, Control_c, 6, 74, 84
11, 7150, Control_c, 6, 7, 126
11, 7151, Control_c, 6, 74, 84
11, 7152, Control_c, 6, 74, 84
11, 7152, Control_c, 6, 7, 126
11, 7153, Control_c, 6, 74, 84
11, 7153, Control_c, 6, 7, 126
11, 7154, Control_c, 6, 74, 84
11, 7154, Control_c, 6, 7, 126
11, 7155, Control_c, 6, 74, 84
11, 7156, Control_c, 6, 74, 84
11, 7156, Control_c, 6, 7, 126
11, 7157, Control_c, 6, 74, 84
11, 7157, Control_c, 6, 7, 126
11, 7158, Control_c, 6, 74, 84
11, 7158, Control_c, 6, 7, 126
11, 7159, Control_c, 6, 74, 84
11, 7160, Control_c, 6, 74, 84
11, 7160, Control_c, 6, 7, 126
11, 7161, Control_c, 6, 74, 84
11, 7161, Control_c, 6, 7, 126
11, 7162, Control_c, 6, 74, 84
11, 7162, Control_c, 6, 7, 126
11, 7163, Control_c, 6, 74, 84
11, 7164, Control_c, 6, 74, 84
11, 7164, Control_c, 6, 7, 126
11, 7165, Control_c, 6, 74, 84
11, 7165, Control_c, 6, 7, 126
11, 7166, Control_c, 6, 74, 84
11, 7166, Control_c, 6, 7, 126
11, 7167, Control_c, 6, 74, 84
11, 7168, Control_c, 6, 74, 84
11, 7168, Control_c, 6, 7, 126
11, 7169, Control_c, 6, 74, 84
11, 7169, Control_c, 6, 7, 126
11, 7170, Control_c, 6, 74, 84
11, 7170, Control_c, 6, 7, 126
11, 7171, Control_c, 6, 74, 84
11, 7172, Control_c, 6, 74, 84
11, 7172, Control_c, 6, 7, 126
11, 7173, Control_c, 6, 74, 84
11, 7173, Control_c, 6, 7, 126
11, 7174, Control_c, 6, 74, 84
11, 7174, Control_c, 6, 7, 126
11, 7175, Control_c, 6, 74, 84
11, 7176, Control_c, 6, 74, 83
11, 7176, Control_c, 6, 7, 126
11, 7177, Control_c, 6, 74, 83
11, 7177, Control_c, 6, 7, 126
11, 7178, Control_c, 6, 74, 83
11, 7178, Control_c, 6, 7, 126
11, 7179, Control_c, 6, 74, 83
11, 7180, Control_c, 6, 74, 83
11, 7180, Control_c, 6, 7, 126
11, 7181, Control_c, 6, 74, 83
11, 7181, Control_c, 6, 7, 126
11, 7182, Control_c, 6, 74, 83
11, 7182, Control_c, 6, 7, 126
11, 7183, Control_c, 6, 74, 83
11, 7184, Control_c, 6, 74, 83
11, 7184, Control_c, 6, 7, 126
11, 7185, Control_c, 6, 74, 83
11, 7185, Control_c, 6, 7, 126
11, 7186, Control_c, 6, 74, 83
11, 7186, Control_c, 6, 7, 126
11, 7187, Control_c, 6, 74, 83
11, 7188, Control_c, 6, 74, 83
11, 7188, Control_c, 6, 7, 126
11, 7189, Control_c, 6, 74, 83
11, 7189, Control_c, 6, 7, 126
11, 7190, Control_c, 6, 74, 83
11, 7190, Control_c, 6, 7, 126
11, 7191, Control_c, 6, 74, 83
11, 7192, Control_c, 6, 74, 83
11, 7192, Control_c, 6, 7, 126
11, 7193, Control_c, 6, 74, 83
11, 7193, Control_c, 6, 7, 126
11, 7194, Control_c, 6, 74, 83
11, 7194, Control_c, 6, 7, 126
11, 7195, Control_c, 6, 74, 83
11, 7196, Control_c, 6, 74, 83
11, 7196, Control_c, 6, 7, 126
11, 7197, Control_c, 6, 74, 83
11, 7197, Control_c, 6, 7, 126
11, 7198, Control_c, 6, 74, 83
11, 7198, Control_c, 6, 7, 126
11, 7199, Control_c, 6, 74, 83
11, 7200, Control_c, 6, 74, 83
11, 7200, Control_c, 6, 7, 126
11, 7201, Control_c, 6, 74, 83
11, 7201, Control_c, 6, 7, 126
11, 7202, Control_c, 6, 74, 83
11, 7202, Control_c, 6, 7, 126
11, 7203, Control_c, 6, 74, 83
11, 7204, Control_c, 6, 74, 83
11, 7204, Control_c, 6, 7, 126
11, 7205, Control_c, 6, 74, 83
11, 7205, Control_c, 6, 7, 126
11, 7206, Control_c, 6, 74, 83
11, 7206, Control_c, 6, 7, 126
11, 7207, Control_c, 6, 74, 83
11, 7208, Control_c, 6, 74, 83
11, 7208, Control_c, 6, 7, 126
11, 7209, Control_c, 6, 74, 83
11, 7209, Control_c, 6, 7, 126
11, 7210, Control_c, 6, 74, 83
11, 7210, Control_c, 6, 7, 126
11, 7211, Control_c, 6, 74, 83
11, 7212, Control_c, 6, 74, 83
11, 7212, Control_c, 6, 7, 126
11, 7213, Control_c, 6, 74, 83
11, 7213, Control_c, 6, 7, 126
11, 7214, Control_c, 6, 74, 83
11, 7214, Control_c, 6, 7, 126
11, 7215, Control_c, 6, 74, 83
11, 7216, Control_c, 6, 74, 83
11, 7216, Control_c, 6, 7, 126
11, 7217, Control_c, 6, 74, 82
11, 7217, Control_c, 6, 7, 126
11, 7218, Control_c, 6, 74, 82
11, 7218, Control_c, 6, 7, 126
11, 7219, Control_c, 6, 74, 82
11, 7220, Control_c, 6, 74, 82
11, 7220, Control_c, 6, 7, 126
11, 7221, Control_c, 6, 74, 82
11, 7221, Control_c, 6, 7, 126
11, 7222, Control_c, 6, 74, 82
11, 7222, Control_c, 6, 7, 126
11, 7223, Control_c, 6, 74, 82
11, 7224, Control_c, 6, 74, 82
11, 7224, Control_c, 6, 7, 126
11, 7225, Control_c, 6, 74, 82
11, 7225, Control_c, 6, 7, 126
11, 7226, Control_c, 6, 74, 82
11, 7226, Control_c, 6, 7, 126
11, 7227, Control_c, 6, 74, 82
11, 7228, Control_c, 6, 74, 82
11, 7228, Control_c, 6, 7, 126
11, 7229, Control_c, 6, 74, 82
11, 7229, Control_c, 6, 7, 126
11, 7230, Control_c, 6, 74, 82
11, 7230, Control_c, 6, 7, 126
11, 7231, Control_c, 6, 74, 82
11, 7232, Control_c, 6, 74, 82
11, 7232, Control_c, 6, 7, 126
11, 7233, Control_c, 6, 74, 82
11, 7233, Control_c, 6, 7, 126
11, 7234, Control_c, 6, 74, 82
11, 7234, Control_c, 6, 7, 126
11, 7235, Control_c, 6, 74, 82
11, 7236, Control_c, 6, 74, 82
11, 7236, Control_c, 6, 7, 126
11, 7237, Control_c, 6, 74, 82
11, 7237, Control_c, 6, 7, 126
11, 7238, Control_c, 6, 74, 82
11, 7238, Control_c, 6, 7, 126
11, 7239, Control_c, 6, 74, 82
11, 7240, Control_c, 6, 74, 82
11, 7240, Control_c, 6, 7, 126
11, 7241, Control_c, 6, 74, 82
11, 7241, Control_c, 6, 7, 126
11, 7242, Control_c, 6, 74, 82
11, 7242, Control_c, 6, 7, 126
11, 7243, Control_c, 6, 74, 82
11, 7244, Control_c, 6, 74, 82
11, 7244, Control_c, 6, 7, 126
11, 7245, Control_c, 6, 74, 82
11, 7245, Control_c, 6, 7, 126
11, 7246, Control_c, 6, 74, 82
11, 7246, Control_c, 6, 7, 126
11, 7247, Control_c, 6, 74, 82
11, 7248, Control_c, 6, 74, 82
11, 7248, Control_c, 6, 7, 126
11, 7249, Control_c, 6, 74, 82
11, 7249, Control_c, 6, 7, 126
11, 7250, Control_c, 6, 74, 82
11, 7250, Control_c, 6, 7, 126
11, 7251, Control_c, 6, 74, 82
11, 7252, Control_c, 6, 74, 82
11, 7252, Control_c, 6, 7, 126
11, 7253, Control_c, 6, 74, 82
11, 7253, Control_c, 6, 7, 126
11, 7254, Control_c, 6, 74, 82
11, 7254, Control_c, 6, 7, 126
11, 7255, Control_c, 6, 74, 82
11, 7256, Control_c, 6, 74, 82
11, 7256, Control_c, 6, 7, 126
11, 7257, Control_c, 6, 74, 82
11, 7257, Control_c, 6, 7, 126
11, 7258, Control_c, 6, 74, 81
11, 7258, Control_c, 6, 7, 126
11, 7259, Control_c, 6, 74, 81
11, 7260, Control_c, 6, 74, 81
11, 7260, Control_c, 6, 7, 126
11, 7261, Control_c, 6, 74, 81
11, 7261, Control_c, 6, 7, 126
11, 7262, Control_c, 6, 74, 81
11, 7262, Control_c, 6, 7, 126
11, 7263, Control_c, 6, 74, 81
11, 7264, Control_c, 6, 74, 81
11, 7264, Control_c, 6, 7, 126
11, 7265, Control_c, 6, 74, 81
11, 7265, Control_c, 6, 7, 126
11, 7266, Control_c, 6, 74, 81
11, 7266, Control_c, 6, 7, 126
11, 7267, Control_c, 6, 74, 81
11, 7268, Control_c, 6, 74, 81
11, 7268, Control_c, 6, 7, 126
11, 7269, Control_c, 6, 74, 81
11, 7269, Control_c, 6, 7, 126
11, 7270, Control_c, 6, 74, 81
11, 7270, Control_c, 6, 7, 126
11, 7271, Control_c, 6, 74, 81
11, 7272, Control_c, 6, 74, 81
11, 7272, Control_c, 6, 7, 126
11, 7273, Control_c, 6, 74, 81
11, 7273, Control_c, 6, 7, 126
11, 7274, Control_c, 6, 74, 81
11, 7274, Control_c, 6, 7, 126
11, 7275, Control_c, 6, 74, 81
11, 7276, Control_c, 6, 74, 81
11, 7276, Control_c, 6, 7, 126
11, 7277, Control_c, 6, 74, 81
11, 7277, Control_c, 6, 7, 126
11, 7278, Control_c, 6, 74, 81
11, 7278, Control_c, 6, 7, 126
11, 7279, Control_c, 6, 74, 81
11, 7280, Control_c, 6, 74, 81
11, 7280, Control_c, 6, 7, 126
11, 7281, Control_c, 6, 74, 81
11, 7281, Control_c, 6, 7, 126
11, 7282, Control_c, 6, 74, 81
11, 7282, Control_c, 6, 7, 126
11, 7283, Control_c, 6, 74, 81
11, 7284, Control_c, 6, 74, 81
11, 7284, Control_c, 6, 7, 126
11, 7285, Control_c, 6, 74, 81
11, 7285, Control_c, 6, 7, 126
11, 7286, Control_c, 6, 74, 81
11, 7286, Control_c, 6, 7, 126
11, 7287, Control_c, 6, 74, 81
11, 7288, Control_c, 6, 74, 81
11, 7288, Control_c, 6, 7, 126
11, 7289, Control_c, 6, 74, 81
11, 7289, Control_c, 6, 7, 126
11, 7290, Control_c, 6, 74, 81
11, 7290, Control_c, 6, 7, 126
11, 7291, Control_c, 6, 74, 81
11, 7292, Control_c, 6, 74, 81
11, 7292, Control_c, 6, 7, 126
11, 7293, Control_c, 6, 74, 81
11, 7293, Control_c, 6, 7, 126
11, 7294, Control_c, 6, 74, 81
11, 7294, Control_c, 6, 7, 126
11, 7295, Control_c, 6, 74, 81
11, 7296, Control_c, 6, 74, 81
11, 7296, Control_c, 6, 7, 126
11, 7297, Control_c, 6, 74, 81
11, 7297, Control_c, 6, 7, 126
11, 7298, Control_c, 6, 74, 81
11, 7298, Control_c, 6, 7, 126
11, 7299, Control_c, 6, 74, 81
11, 7300, Control_c, 6, 74, 80
11, 7300, Control_c, 6, 7, 126
11, 7301, Control_c, 6, 74, 80
11, 7301, Control_c, 6, 7, 126
11, 7302, Control_c, 6, 74, 80
11, 7302, Control_c, 6, 7, 126
11, 7303, Control_c, 6, 74, 80
11, 7304, Control_c, 6, 74, 80
11, 7304, Control_c, 6, 7, 126
11, 7305, Control_c, 6, 74, 80
11, 7305, Control_c, 6, 7, 126
11, 7306, Control_c, 6, 74, 80
11, 7306, Control_c, 6, 7, 126
11, 7307, Control_c, 6, 74, 80
11, 7308, Control_c, 6, 74, 80
11, 7308, Control_c, 6, 7, 126
11, 7309, Control_c, 6, 74, 80
11, 7309, Control_c, 6, 7, 126
11, 7310, Control_c, 6, 74, 80
11, 7310, Control_c, 6, 7, 126
11, 7311, Control_c, 6, 74, 80
11, 7312, Control_c, 6, 74, 80
11, 7312, Control_c, 6, 7, 126
11, 7313, Control_c, 6, 74, 80
11, 7313, Control_c, 6, 7, 126
11, 7314, Control_c, 6, 74, 80
11, 7314, Control_c, 6, 7, 126
11, 7315, Control_c, 6, 74, 80
11, 7316, Control_c, 6, 74, 80
11, 7316, Control_c, 6, 7, 126
11, 7317, Control_c, 6, 74, 80
11, 7317, Control_c, 6, 7, 126
11, 7318, Control_c, 6, 74, 80
11, 7319, Control_c, 6, 74, 80
11, 7319, Control_c, 6, 7, 126
11, 7320, Control_c, 6, 74, 80
11, 7320, Control_c, 6, 7, 126
11, 7321, Control_c, 6, 74, 80
11, 7321, Control_c, 6, 7, 126
11, 7322, Control_c, 6, 74, 80
11, 7323, Control_c, 6, 74, 80
11, 7323, Control_c, 6, 7, 126
11, 7324, Control_c, 6, 74, 80
11, 7324, Control_c, 6, 7, 126
11, 7325, Control_c, 6, 74, 80
11, 7325, Control_c, 6, 7, 126
11, 7326, Control_c, 6, 74, 80
11, 7327, Control_c, 6, 74, 80
11, 7327, Control_c, 6, 7, 126
11, 7328, Control_c, 6, 74, 80
11, 7328, Control_c, 6, 7, 126
11, 7329, Control_c, 6, 74, 80
11, 7329, Control_c, 6, 7, 126
11, 7330, Control_c, 6, 74, 80
11, 7331, Control_c, 6, 74, 80
11, 7331, Control_c, 6, 7, 126
11, 7332, Control_c, 6, 74, 80
11, 7332, Control_c, 6, 7, 126
11, 7333, Control_c, 6, 74, 80
11, 7333, Control_c, 6, 7, 126
11, 7334, Control_c, 6, 74, 80
11, 7335, Control_c, 6, 74, 80
11, 7335, Control_c, 6, 7, 126
11, 7336, Control_c, 6, 74, 80
11, 7336, Control_c, 6, 7, 126
11, 7337, Control_c, 6, 74, 80
11, 7337, Control_c, 6, 7, 126
11, 7338, Control_c, 6, 74, 80
11, 7339, Control_c, 6, 74, 80
11, 7339, Control_c, 6, 7, 126
11, 7340, Control_c, 6, 74, 80
11, 7340, Control_c, 6, 7, 126
11, 7341, Control_c, 6, 74, 79
11, 7341, Control_c, 6, 7, 126
11, 7342, Control_c, 6, 74, 79
11, 7343, Control_c, 6, 74, 79
11, 7343, Control_c, 6, 7, 126
11, 7344, Control_c, 6, 74, 79
11, 7344, Control_c, 6, 7, 126
11, 7345, Control_c, 6, 74, 79
11, 7345, Control_c, 6, 7, 126
11, 7346, Control_c, 6, 74, 79
11, 7347, Control_c, 6, 74, 79
11, 7347, Control_c, 6, 7, 126
11, 7348, Control_c, 6, 74, 79
11, 7348, Control_c, 6, 7, 126
11, 7349, Control_c, 6, 74, 79
11, 7349, Control_c, 6, 7, 126
11, 7350, Control_c, 6, 74, 79
11, 7351, Control_c, 6, 74, 79
11, 7351, Control_c, 6, 7, 126
11, 7352, Control_c, 6, 74, 79
11, 7352, Control_c, 6, 7, 126
11, 7353, Control_c, 6, 74, 79
11, 7353, Control_c, 6, 7, 126
11, 7354, Control_c, 6, 74, 79
11, 7355, Control_c, 6, 74, 79
11, 7355, Control_c, 6, 7, 126
11, 7356, Control_c, 6, 74, 79
11, 7356, Control_c, 6, 7, 126
11, 7357, Control_c, 6, 74, 79
11, 7357, Control_c, 6, 7, 126
11, 7358, Control_c, 6, 74, 79
11, 7359, Control_c, 6, 74, 79
11, 7359, Control_c, 6, 7, 126
11, 7360, Control_c, 6, 74, 79
11, 7360, Control_c, 6, 7, 126
11, 7361, Control_c, 6, 74, 79
11, 7361, Control_c, 6, 7, 126
11, 7362, Control_c, 6, 74, 79
11, 7363, Control_c, 6, 74, 79
11, 7363, Control_c, 6, 7, 126
11, 7364, Control_c, 6, 74, 79
11, 7364, Control_c, 6, 7, 126
11, 7365, Control_c, 6, 74, 79
11, 7365, Control_c, 6, 7, 126
11, 7366, Control_c, 6, 74, 79
11, 7367, Control_c, 6, 74, 79
11, 7367, Control_c, 6, 7, 126
11, 7368, Control_c, 6, 74, 79
11, 7368, Control_c, 6, 7, 126
11, 7369, Control_c, 6, 74, 79
11, 7369, Control_c, 6, 7, 126
11, 7370, Control_c, 6, 74, 79
11, 7371, Control_c, 6, 74, 79
11, 7371, Control_c, 6, 7, 126
11, 7372, Control_c, 6, 74, 79
11, 7372, Control_c, 6, 7, 126
11, 7373, Control_c, 6, 74, 79
11, 7373, Control_c, 6, 7, 126
11, 7374, Control_c, 6, 74, 79
11, 7375, Control_c, 6, 74, 79
11, 7375, Control_c, 6, 7, 126
11, 7376, Control_c, 6, 74, 79
11, 7376, Control_c, 6, 7, 126
11, 7377, Control_c, 6, 74, 79
11, 7377, Control_c, 6, 7, 126
11, 7378, Control_c, 6, 74, 79
11, 7379, Control_c, 6, 74, 79
11, 7379, Control_c, 6, 7, 126
11, 7380, Control_c, 6, 74, 79
11, 7380, Control_c, 6, 7, 126
11, 7381, Control_c, 6, 74, 79
11, 7381, Control_c, 6, 7, 126
11, 7382, Control_c, 6, 74, 79
11, 7383, Control_c, 6, 74, 78
11, 7383, Control_c, 6, 7, 126
11, 7384, Control_c, 6, 74, 78
11, 7384, Control_c, 6, 7, 126
11, 7385, Control_c, 6, 74, 78
11, 7385, Control_c, 6, 7, 126
11, 7386, Control_c, 6, 74, 78
11, 7387, Control_c, 6, 74, 78
11, 7387, Control_c, 6, 7, 126
11, 7388, Control_c, 6, 74, 78
11, 7388, Control_c, 6, 7, 126
11, 7389, Control_c, 6, 74, 78
11, 7389, Control_c, 6, 7, 126
11, 7390, Control_c, 6, 74, 78
11, 7391, Control_c, 6, 74, 78
11, 7391, Control_c, 6, 7, 126
11, 7392, Control_c, 6, 74, 78
11, 7392, Control_c, 6, 7, 126
11, 7393, Control_c, 6, 74, 78
11, 7393, Control_c, 6, 7, 126
11, 7394, Control_c, 6, 74, 78
11, 7395, Control_c, 6, 74, 78
11, 7395, Control_c, 6, 7, 126
11, 7396, Control_c, 6, 74, 78
11, 7396, Control_c, 6, 7, 126
11, 7397, Control_c, 6, 74, 78
11, 7397, Control_c, 6, 7, 126
11, 7398, Control_c, 6, 74, 78
11, 7399, Control_c, 6, 74, 78
11, 7399, Control_c, 6, 7, 126
11, 7400, Control_c, 6, 74, 78
11, 7400, Control_c, 6, 7, 126
11, 7401, Control_c, 6, 74, 78
11, 7401, Control_c, 6, 7, 126
11, 7402, Control_c, 6, 74, 78
11, 7403, Control_c, 6, 74, 78
11, 7403, Control_c, 6, 7, 126
11, 7404, Control_c, 6, 74, 78
11, 7404, Control_c, 6, 7, 126
11, 7405, Control_c, 6, 74, 78
11, 7405, Control_c, 6, 7, 126
11, 7406, Control_c, 6, 74, 78
11, 7407, Control_c, 6, 74, 78
11, 7407, Control_c, 6, 7, 126
11, 7408, Control_c, 6, 74, 78
11, 7408, Control_c, 6, 7, 126
11, 7409, Control_c, 6, 74, 78
11, 7409, Control_c, 6, 7, 126
11, 7410, Control_c, 6, 74, 78
11, 7411, Control_c, 6, 74, 78
11, 7411, Control_c, 6, 7, 126
11, 7412, Control_c, 6, 74, 78
11, 7412, Control_c, 6, 7, 126
11, 7413, Control_c, 6, 74, 78
11, 7413, Control_c, 6, 7, 126
11, 7414, Control_c, 6, 74, 78
11, 7415, Control_c, 6, 74, 78
11, 7415, Control_c, 6, 7, 126
11, 7416, Control_c, 6, 74, 78
11, 7416, Control_c, 6, 7, 126
11, 7417, Control_c, 6, 74, 78
11, 7417, Control_c, 6, 7, 126
11, 7418, Control_c, 6, 74, 78
11, 7419, Control_c, 6, 74, 78
11, 7419, Control_c, 6, 7, 126
11, 7420, Control_c, 6, 74, 78
11, 7420, Control_c, 6, 7, 126
11, 7421, Control_c, 6, 74, 78
11, 7421, Control_c, 6, 7, 126
11, 7422, Control_c, 6, 74, 78
11, 7423, Control_c, 6, 74, 78
11, 7423, Control_c, 6, 7, 126
11, 7424, Control_c, 6, 74, 77
11, 7424, Control_c, 6, 7, 126
11, 7425, Control_c, 6, 74, 77
11, 7425, Control_c, 6, 7, 126
11, 7426, Control_c, 6, 74, 77
11, 7427, Control_c, 6, 74, 77
11, 7427, Control_c, 6, 7, 126
11, 7428, Control_c, 6, 74, 77
11, 7428, Control_c, 6, 7, 126
11, 7429, Control_c, 6, 74, 77
11, 7429, Control_c, 6, 7, 126
11, 7430, Control_c, 6, 74, 77
11, 7431, Control_c, 6, 74, 77
11, 7431, Control_c, 6, 7, 126
11, 7432, Control_c, 6, 74, 77
11, 7432, Control_c, 6, 7, 126
11, 7433, Control_c, 6, 74, 77
11, 7433, Control_c, 6, 7, 126
11, 7434, Control_c, 6, 74, 77
11, 7435, Control_c, 6, 74, 77
11, 7435, Control_c, 6, 7, 126
11, 7436, Control_c, 6, 74, 77
11, 7436, Control_c, 6, 7, 126
11, 7437, Control_c, 6, 74, 77
11, 7437, Control_c, 6, 7, 126
11, 7438, Control_c, 6, 74, 77
11, 7439, Control_c, 6, 74, 77
11, 7439, Control_c, 6, 7, 126
11, 7440, Control_c, 6, 74, 77
11, 7440, Control_c, 6, 7, 126
11, 7441, Control_c, 6, 74, 77
11, 7441, Control_c, 6, 7, 126
11, 7442, Control_c, 6, 74, 77
11, 7443, Control_c, 6, 74, 77
11, 7443, Control_c, 6, 7, 126
11, 7444, Control_c, 6, 74, 77
11, 7444, Control_c, 6, 7, 126
11, 7445, Control_c, 6, 74, 77
11, 7445, Control_c, 6, 7, 126
11, 7446, Control_c, 6, 74, 77
11, 7447, Control_c, 6, 74, 77
11, 7447, Control_c, 6, 7, 126
11, 7448, Control_c, 6, 74, 77
11, 7448, Control_c, 6, 7, 126
11, 7449, Control_c, 6, 74, 77
11, 7449, Control_c, 6, 7, 126
11, 7450, Control_c, 6, 74, 77
11, 7451, Control_c, 6, 74, 77
11, 7451, Control_c, 6, 7, 126
11, 7452, Control_c, 6, 74, 77
11, 7452, Control_c, 6, 7, 126
11, 7453, Control_c, 6, 74, 77
11, 7453, Control_c, 6, 7, 126
11, 7454, Control_c, 6, 74, 77
11, 7455, Control_c, 6, 74, 77
11, 7455, Control_c, 6, 7, 126
11, 7456, Control_c, 6, 74, 77
11, 7456, Control_c, 6, 7, 126
11, 7457, Control_c, 6, 74, 77
11, 7457, Control_c, 6, 7, 126
11, 7458, Control_c, 6, 74, 77
11, 7459, Control_c, 6, 74, 77
11, 7459, Control_c, 6, 7, 126
11, 7460, Control_c, 6, 74, 77
11, 7460, Control_c, 6, 7, 126
11, 7461, Control_c, 6, 74, 77
11, 7461, Control_c, 6, 7, 126
11, 7462, Control_c, 6, 74, 77
11, 7463, Control_c, 6, 74, 77
11, 7463, Control_c, 6, 7, 126
11, 7464, Control_c, 6, 74, 77
11, 7464, Control_c, 6, 7, 126
11, 7465, Control_c, 6, 74, 77
11, 7465, Control_c, 6, 7, 126
11, 7466, Control_c, 6, 74, 76
11, 7467, Control_c, 6, 74, 76
11, 7467, Control_c, 6, 7, 126
11, 7468, Control_c, 6, 74, 76
11, 7468, Control_c, 6, 7, 126
11, 7469, Control_c, 6, 74, 76
11, 7469, Control_c, 6, 7, 126
11, 7470, Control_c, 6, 74, 76
11, 7471, Control_c, 6, 74, 76
11, 7471, Control_c, 6, 7, 126
11, 7472, Control_c, 6, 74, 76
11, 7472, Control_c, 6, 7, 126
11, 7473, Control_c, 6, 74, 76
11, 7473, Control_c, 6, 7, 126
11, 7474, Control_c, 6, 74, 76
11, 7475, Control_c, 6, 74, 76
11, 7475, Control_c, 6, 7, 126
11, 7476, Control_c, 6, 74, 76
11, 7476, Control_c, 6, 7, 126
11, 7477, Control_c, 6, 74, 76
11, 7477, Control_c, 6, 7, 126
11, 7478, Control_c, 6, 74, 76
11, 7479, Control_c, 6, 74, 76
11, 7479, Control_c, 6, 7, 126
11, 7480, Control_c, 6, 74, 76
11, 7480, Control_c, 6, 7, 126
11, 7481, Control_c, 6, 74, 76
11, 7481, Control_c, 6, 7, 126
11, 7482, Control_c, 6, 74, 76
11, 7483, Control_c, 6, 74, 76
11, 7483, Control_c, 6, 7, 126
11, 7484, Control_c, 6, 74, 76
11, 7484, Control_c, 6, 7, 126
11, 7485, Control_c, 6, 74, 76
11, 7485, Control_c, 6, 7, 126
11, 7486, Control_c, 6, 74, 76
11, 7487, Control_c, 6, 74, 76
11, 7487, Control_c, 6, 7, 126
11, 7488, Control_c, 6, 74, 76
11, 7488, Control_c, 6, 7, 126
11, 7489, Control_c, 6, 74, 76
11, 7490, Control_c, 6, 74, 76
11, 7490, Control_c, 6, 7, 126
11, 7491, Control_c, 6, 74, 76
11, 7491, Control_c, 6, 7, 125
11, 7492, Control_c, 6, 74, 76
11, 7492, Control_c, 6, 7, 125
11, 7493, Control_c, 6, 74, 76
11, 7494, Control_c, 6, 74, 76
11, 7494, Control_c, 6, 7, 125
11, 7495, Control_c, 6, 74, 76
11, 7495, Control_c, 6, 7, 125
11, 7496, Control_c, 6, 74, 76
11, 7496, Control_c, 6, 7, 125
11, 7497, Control_c, 6, 74, 76
11, 7498, Control_c, 6, 74, 76
11, 7498, Control_c, 6, 7, 125
11, 7499, Control_c, 6, 74, 76
11, 7499, Control_c, 6, 7, 125
11, 7500, Control_c, 6, 74, 76
11, 7500, Control_c, 6, 7, 125
11, 7501, Control_c, 6, 74, 76
11, 7502, Control_c, 6, 74, 76
11, 7502, Control_c, 6, 7, 125
11, 7503, Control_c, 6, 74, 76
11, 7503, Control_c, 6, 7, 125
11, 7504, Control_c, 6, 74, 76
11, 7504, Control_c, 6, 7, 125
11, 7505, Control_c, 6, 74, 76
11, 7506, Control_c, 6, 74, 76
11, 7506, Control_c, 6, 7, 125
11, 7507, Control_c, 6, 74, 75
11, 7507, Control_c, 6, 7, 125
11, 7508, Control_c, 6, 74, 75
11, 7508, Control_c, 6, 7, 125
11, 7509, Control_c, 6, 74, 75
11, 7510, Control_c, 6, 74, 75
11, 7510, Control_c, 6, 7, 125
11, 7511, Control_c, 6, 74, 75
11, 7511, Control_c, 6, 7, 125
11, 7512, Control_c, 6, 74, 75
11, 7512, Control_c, 6, 7, 125
11, 7513, Control_c, 6, 74, 75
11, 7514, Control_c, 6, 74, 75
11, 7514, Control_c, 6, 7, 125
11, 7515, Control_c, 6, 74, 75
11, 7515, Control_c, 6, 7, 125
11, 7516, Control_c, 6, 74, 75
11, 7516, Control_c, 6, 7, 125
11, 7517, Control_c, 6, 74, 75
11, 7518, Control_c, 6, 74, 75
11, 7518, Control_c, 6, 7, 125
11, 7519, Control_c, 6, 74, 75
11, 7519, Control_c, 6, 7, 125
11, 7520, Control_c, 6, 74, 75
11, 7520, Control_c, 6, 7, 125
11, 7521, Control_c, 6, 74, 75
11, 7522, Control_c, 6, 74, 75
11, 7522, Control_c, 6, 7, 125
11, 7523, Control_c, 6, 74, 75
11, 7523, Control_c, 6, 7, 125
11, 7524, Control_c, 6, 74, 75
11, 7524, Control_c, 6, 7, 125
11, 7525, Control_c, 6, 74, 75
11, 7526, Control_c, 6, 74, 75
11, 7526, Control_c, 6, 7, 125
11, 7527, Control_c, 6, 74, 75
11, 7527, Control_c, 6, 7, 125
11, 7528, Control_c, 6, 74, 75
11, 7528, Control_c, 6, 7, 125
11, 7529, Control_c, 6, 74, 75
11, 7530, Control_c, 6, 74, 75
11, 7530, Control_c, 6, 7, 125
11, 7531, Control_c, 6, 74, 75
11, 7531, Control_c, 6, 7, 125
11, 7532, Control_c, 6, 74, 75
11, 7532, Control_c, 6, 7, 125
11, 7533, Control_c, 6, 74, 75
11, 7534, Control_c, 6, 74, 75
11, 7534, Control_c, 6, 7, 125
11, 7535, Control_c, 6, 74, 75
11, 7535, Control_c, 6, 7, 125
11, 7536, Control_c, 6, 74, 75
11, 7536, Control_c, 6, 7, 125
11, 7537, Control_c, 6, 74, 75
11, 7538, Control_c, 6, 74, 75
11, 7538, Control_c, 6, 7, 125
11, 7539, Control_c, 6, 74, 75
11, 7539, Control_c, 6, 7, 125
11, 7540, Control_c, 6, 74, 75
11, 7540, Control_c, 6, 7, 125
11, 7541, Control_c, 6, 74, 75
11, 7542, Control_c, 6, 74, 75
11, 7542, Control_c, 6, 7, 125
11, 7543, Control_c, 6, 74, 75
11, 7543, Control_c, 6, 7, 125
11, 7544, Control_c, 6, 74, 75
11, 7544, Control_c, 6, 7, 125
11, 7545, Control_c, 6, 74, 75
11, 7546, Control_c, 6, 74, 75
11, 7546, Control_c, 6, 7, 125
11, 7547, Control_c, 6, 74, 75
11, 7547, Control_c, 6, 7, 125
11, 7548, Control_c, 6, 74, 75
11, 7548, Control_c, 6, 7, 125
11, 7549, Control_c, 6, 74, 74
11, 7550, Control_c, 6, 74, 74
11, 7550, Control_c, 6, 7, 125
11, 7551, Control_c, 6, 74, 74
11, 7551, Control_c, 6, 7, 125
11, 7552, Control_c, 6, 74, 74
11, 7552, Control_c, 6, 7, 125
11, 7553, Control_c, 6, 74, 74
11, 7554, Control_c, 6, 74, 74
11, 7554, Control_c, 6, 7, 125
11, 7555, Control_c, 6, 74, 74
11, 7555, Control_c, 6, 7, 125
11, 7556, Control_c, 6, 74, 74
11, 7556, Control_c, 6, 7, 125
11, 7557, Control_c, 6, 74, 74
11, 7558, Control_c, 6, 74, 74
11, 7558, Control_c, 6, 7, 125
11, 7559, Control_c, 6, 74, 74
11, 7559, Control_c, 6, 7, 125
11, 7560, Control_c, 6, 74, 74
11, 7560, Control_c, 6, 7, 125
11, 7561, Control_c, 6, 74, 74
11, 7562, Control_c, 6, 74, 74
11, 7562, Control_c, 6, 7, 125
11, 7563, Control_c, 6, 74, 74
11, 7563, Control_c, 6, 7, 125
11, 7564, Control_c, 6, 74, 74
11, 7564, Control_c, 6, 7, 125
11, 7565, Control_c, 6, 74, 74
11, 7566, Control_c, 6, 74, 74
11, 7566, Control_c, 6, 7, 125
11, 7567, Control_c, 6, 74, 74
11, 7567, Control_c, 6, 7, 125
11, 7568, Control_c, 6, 74, 74
11, 7568, Control_c, 6, 7, 125
11, 7569, Control_c, 6, 74, 74
11, 7570, Control_c, 6, 74, 74
11, 7570, Control_c, 6, 7, 125
11, 7571, Control_c, 6, 74, 74
11, 7571, Control_c, 6, 7, 125
11, 7572, Control_c, 6, 74, 74
11, 7572, Control_c, 6, 7, 125
11, 7573, Control_c, 6, 74, 74
11, 7574, Control_c, 6, 74, 74
11, 7574, Control_c, 6, 7, 125
11, 7575, Control_c, 6, 74, 74
11, 7575, Control_c, 6, 7, 125
11, 7576, Control_c, 6, 74, 74
11, 7576, Control_c, 6, 7, 125
11, 7577, Control_c, 6, 74, 74
11, 7578, Control_c, 6, 74, 74
11, 7578, Control_c, 6, 7, 125
11, 7579, Control_c, 6, 74, 74
11, 7579, Control_c, 6, 7, 125
11, 7580, Control_c, 6, 74, 74
11, 7580, Control_c, 6, 7, 125
11, 7581, Control_c, 6, 74, 74
11, 7582, Control_c, 6, 74, 74
11, 7582, Control_c, 6, 7, 125
11, 7583, Control_c, 6, 74, 74
11, 7583, Control_c, 6, 7, 125
11, 7584, Control_c, 6, 74, 74
11, 7584, Control_c, 6, 7, 125
11, 7585, Control_c, 6, 74, 74
11, 7586, Control_c, 6, 74, 74
11, 7586, Control_c, 6, 7, 125
11, 7587, Control_c, 6, 74, 74
11, 7587, Control_c, 6, 7, 125
11, 7588, Control_c, 6, 74, 74
11, 7588, Control_c, 6, 7, 125
11, 7589, Control_c, 6, 74, 74
11, 7590, Control_c, 6, 74, 73
11, 7590, Control_c, 6, 7, 125
11, 7591, Control_c, 6, 74, 73
11, 7591, Control_c, 6, 7, 125
11, 7592, Control_c, 6, 74, 73
11, 7592, Control_c, 6, 7, 125
11, 7593, Control_c, 6, 74, 73
11, 7594, Control_c, 6, 74, 73
11, 7594, Control_c, 6, 7, 125
11, 7595, Control_c, 6, 74, 73
11, 7595, Control_c, 6, 7, 125
11, 7596, Control_c, 6, 74, 73
11, 7596, Control_c, 6, 7, 125
11, 7597, Control_c, 6, 74, 73
11, 7598, Control_c, 6, 74, 73
11, 7598, Control_c, 6, 7, 125
11, 7599, Control_c, 6, 74, 73
11, 7599, Control_c, 6, 7, 125
11, 7600, Control_c, 6, 74, 73
11, 7600, Control_c, 6, 7, 125
11, 7601, Control_c, 6, 74, 73
11, 7602, Control_c, 6, 74, 73
11, 7602, Control_c, 6, 7, 125
11, 7603, Control_c, 6, 74, 73
11, 7603, Control_c, 6, 7, 125
11, 7604, Control_c, 6, 74, 73
11, 7604, Control_c, 6, 7, 125
11, 7605, Control_c, 6, 74, 73
11, 7606, Control_c, 6, 74, 73
11, 7606, Control_c, 6, 7, 125
11, 7607, Control_c, 6, 74, 73
11, 7607, Control_c, 6, 7, 125
11, 7608, Control_c, 6, 74, 73
11, 7608, Control_c, 6, 7, 125
11, 7609, Control_c, 6, 74, 73
11, 7610, Control_c, 6, 74, 73
11, 7610, Control_c, 6, 7, 125
11, 7611, Control_c, 6, 74, 73
11, 7611, Control_c, 6, 7, 125
11, 7612, Control_c, 6, 74, 73
11, 7612, Control_c, 6, 7, 125
11, 7613, Control_c, 6, 74, 73
11, 7614, Control_c, 6, 74, 73
11, 7614, Control_c, 6, 7, 125
11, 7615, Control_c, 6, 74, 73
11, 7615, Control_c, 6, 7, 125
11, 7616, Control_c, 6, 74, 73
11, 7616, Control_c, 6, 7, 125
11, 7617, Control_c, 6, 74, 73
11, 7618, Control_c, 6, 74, 73
11, 7618, Control_c, 6, 7, 125
11, 7619, Control_c, 6, 74, 73
11, 7619, Control_c, 6, 7, 125
11, 7620, Control_c, 6, 74, 73
11, 7620, Control_c, 6, 7, 125
11, 7621, Control_c, 6, 74, 73
11, 7622, Control_c, 6, 74, 73
11, 7622, Control_c, 6, 7, 125
11, 7623, Control_c, 6, 74, 73
11, 7623, Control_c, 6, 7, 125
11, 7624, Control_c, 6, 74, 73
11, 7624, Control_c, 6, 7, 125
11, 7625, Control_c, 6, 74, 73
11, 7626, Control_c, 6, 74, 73
11, 7626, Control_c, 6, 7, 125
11, 7627, Control_c, 6, 74, 73
11, 7627, Control_c, 6, 7, 125
11, 7628, Control_c, 6, 74, 73
11, 7628, Control_c, 6, 7, 125
11, 7629, Control_c, 6, 74, 73
11, 7630, Control_c, 6, 74, 73
11, 7630, Control_c, 6, 7, 125
11, 7631, Control_c, 6, 74, 73
11, 7631, Control_c, 6, 7, 125
11, 7632, Control_c, 6, 74, 72
11, 7632, Control_c, 6, 7, 125
11, 7633, Control_c, 6, 74, 72
11, 7634, Control_c, 6, 74, 72
11, 7634, Control_c, 6, 7, 125
11, 7635, Control_c, 6, 74, 72
11, 7635, Control_c, 6, 7, 125
11, 7636, Control_c, 6, 74, 72
11, 7636, Control_c, 6, 7, 125
11, 7637, Control_c, 6, 74, 72
11, 7638, Control_c, 6, 74, 72
11, 7638, Control_c, 6, 7, 125
11, 7639, Control_c, 6, 74, 72
11, 7639, Control_c, 6, 7, 125
11, 7640, Control_c, 6, 74, 72
11, 7640, Control_c, 6, 7, 125
11, 7641, Control_c, 6, 74, 72
11, 7642, Control_c, 6, 74, 72
11, 7642, Control_c, 6, 7, 125
11, 7643, Control_c, 6, 74, 72
11, 7643, Control_c, 6, 7, 125
11, 7644, Control_c, 6, 74, 72
11, 7644, Control_c, 6, 7, 125
11, 7645, Control_c, 6, 74, 72
11, 7646, Control_c, 6, 74, 72
11, 7646, Control_c, 6, 7, 125
11, 7647, Control_c, 6, 74, 72
11, 7647, Control_c, 6, 7, 125
11, 7648, Control_c, 6, 74, 72
11, 7648, Control_c, 6, 7, 125
11, 7649, Control_c, 6, 74, 72
11, 7650, Control_c, 6, 74, 72
11, 7650, Control_c, 6, 7, 125
11, 7651, Control_c, 6, 74, 72
11, 7651, Control_c, 6, 7, 125
11, 7652, Control_c, 6, 74, 72
11, 7652, Control_c, 6, 7, 125
11, 7653, Control_c, 6, 74, 72
11, 7654, Control_c, 6, 74, 72
11, 7654, Control_c, 6, 7, 125
11, 7655, Control_c, 6, 74, 72
11, 7655, Control_c, 6, 7, 125
11, 7656, Control_c, 6, 74, 72
11, 7656, Control_c, 6, 7, 125
11, 7657, Control_c, 6, 74, 72
11, 7658, Control_c, 6, 74, 72
11, 7658, Control_c, 6, 7, 125
11, 7659, Control_c, 6, 74, 72
11, 7659, Control_c, 6, 7, 125
11, 7660, Control_c, 6, 74, 72
11, 7661, Control_c, 6, 74, 72
11, 7661, Control_c, 6, 7, 125
11, 7662, Control_c, 6, 74, 72
11, 7662, Control_c, 6, 7, 125
11, 7663, Control_c, 6, 74, 72
11, 7663, Control_c, 6, 7, 125
11, 7664, Control_c, 6, 74, 72
11, 7665, Control_c, 6, 74, 72
11, 7665, Control_c, 6, 7, 125
11, 7666, Control_c, 6, 74, 72
11, 7666, Control_c, 6, 7, 125
11, 7667, Control_c, 6, 74, 72
11, 7667, Control_c, 6, 7, 125
11, 7668, Control_c, 6, 74, 72
11, 7669, Control_c, 6, 74, 72
11, 7669, Control_c, 6, 7, 125
11, 7670, Control_c, 6, 74, 72
11, 7670, Control_c, 6, 7, 125
11, 7671, Control_c, 6, 74, 72
11, 7671, Control_c, 6, 7, 125
11, 7672, Control_c, 6, 74, 72
11, 7673, Control_c, 6, 74, 71
11, 7673, Control_c, 6, 7, 125
11, 7674, Control_c, 6, 74, 71
11, 7674, Control_c, 6, 7, 125
11, 7675, Control_c, 6, 74, 71
11, 7675, Control_c, 6, 7, 125
11, 7676, Control_c, 6, 74, 71
11, 7677, Control_c, 6, 74, 71
11, 7677, Control_c, 6, 7, 125
11, 7678, Control_c, 6, 74, 71
11, 7678, Control_c, 6, 7, 125
11, 7679, Control_c, 6, 74, 71
11, 7679, Control_c, 6, 7, 125
11, 7680, Control_c, 6, 74, 71
11, 7681, Control_c, 6, 74, 71
11, 7681, Control_c, 6, 7, 125
11, 7682, Control_c, 6, 74, 71
11, 7682, Control_c, 6, 7, 125
11, 7683, Control_c, 6, 74, 71
11, 7683, Control_c, 6, 7, 125
11, 7684, Control_c, 6, 74, 71
11, 7685, Control_c, 6, 74, 71
11, 7685, Control_c, 6, 7, 125
11, 7686, Control_c, 6, 74, 71
11, 7686, Control_c, 6, 7, 125
11, 7687, Control_c, 6, 74, 71
11, 7687, Control_c, 6, 7, 125
11, 7688, Control_c, 6, 74, 71
11, 7689, Control_c, 6, 74, 71
11, 7689, Control_c, 6, 7, 125
11, 7690, Control_c, 6, 74, 71
11, 7690, Control_c, 6, 7, 125
11, 7691, Control_c, 6, 74, 71
11, 7691, Control_c, 6, 7, 125
11, 7692, Control_c, 6, 74, 71
11, 7693, Control_c, 6, 74, 71
11, 7693, Control_c, 6, 7, 125
11, 7694, Control_c, 6, 74, 71
11, 7694, Control_c, 6, 7, 125
11, 7695, Control_c, 6, 74, 71
11, 7695, Control_c, 6, 7, 125
11, 7696, Control_c, 6, 74, 71
11, 7697, Control_c, 6, 74, 71
11, 7697, Control_c, 6, 7, 125
11, 7698, Control_c, 6, 74, 71
11, 7698, Control_c, 6, 7, 125
11, 7699, Control_c, 6, 74, 71
11, 7699, Control_c, 6, 7, 125
11, 7700, Control_c, 6, 74, 71
11, 7701, Control_c, 6, 74, 71
11, 7701, Control_c, 6, 7, 125
11, 7702, Control_c, 6, 74, 71
11, 7702, Control_c, 6, 7, 125
11, 7703, Control_c, 6, 74, 71
11, 7703, Control_c, 6, 7, 125
11, 7704, Control_c, 6, 74, 71
11, 7705, Control_c, 6, 74, 71
11, 7705, Control_c, 6, 7, 125
11, 7706, Control_c, 6, 74, 71
11, 7706, Control_c, 6, 7, 125
11, 7707, Control_c, 6, 74, 71
11, 7707, Control_c, 6, 7, 125
11, 7708, Control_c, 6, 74, 71
11, 7709, Control_c, 6, 74, 71
11, 7709, Control_c, 6, 7, 125
11, 7710, Control_c, 6, 74, 71
11, 7710, Control_c, 6, 7, 125
11, 7711, Control_c, 6, 74, 71
11, 7711, Control_c, 6, 7, 125
11, 7712, Control_c, 6, 74, 71
11, 7713, Control_c, 6, 74, 71
11, 7713, Control_c, 6, 7, 125
11, 7714, Control_c, 6, 74, 70
11, 7714, Control_c, 6, 7, 125
11, 7715, Control_c, 6, 74, 70
11, 7715, Control_c, 6, 7, 125
11, 7716, Control_c, 6, 74, 70
11, 7717, Control_c, 6, 74, 70
11, 7717, Control_c, 6, 7, 125
11, 7718, Control_c, 6, 74, 70
11, 7718, Control_c, 6, 7, 125
11, 7719, Control_c, 6, 74, 70
11, 7719, Control_c, 6, 7, 125
11, 7720, Control_c, 6, 74, 70
11, 7721, Control_c, 6, 74, 70
11, 7721, Control_c, 6, 7, 125
11, 7722, Control_c, 6, 74, 70
11, 7722, Control_c, 6, 7, 125
11, 7723, Control_c, 6, 74, 70
11, 7723, Control_c, 6, 7, 125
11, 7724, Control_c, 6, 74, 70
11, 7725, Control_c, 6, 74, 70
11, 7725, Control_c, 6, 7, 125
11, 7726, Control_c, 6, 74, 70
11, 7726, Control_c, 6, 7, 125
11, 7727, Control_c, 6, 74, 70
11, 7727, Control_c, 6, 7, 125
11, 7728, Control_c, 6, 74, 70
11, 7729, Control_c, 6, 74, 70
11, 7729, Control_c, 6, 7, 125
11, 7730, Control_c, 6, 74, 70
11, 7730, Control_c, 6, 7, 125
11, 7731, Control_c, 6, 74, 70
11, 7731, Control_c, 6, 7, 125
11, 7732, Control_c, 6, 74, 70
11, 7733, Control_c, 6, 74, 70
11, 7733, Control_c, 6, 7, 125
11, 7734, Control_c, 6, 74, 70
11, 7734, Control_c, 6, 7, 125
11, 7735, Control_c, 6, 74, 70
11, 7735, Control_c, 6, 7, 125
11, 7736, Control_c, 6, 74, 70
11, 7737, Control_c, 6, 74, 70
11, 7737, Control_c, 6, 7, 125
11, 7738, Control_c, 6, 74, 70
11, 7738, Control_c, 6, 7, 125
11, 7739, Control_c, 6, 74, 70
11, 7739, Control_c, 6, 7, 125
11, 7740, Control_c, 6, 74, 70
11, 7741, Control_c, 6, 74, 70
11, 7741, Control_c, 6, 7, 125
11, 7742, Control_c, 6, 74, 70
11, 7742, Control_c, 6, 7, 125
11, 7743, Control_c, 6, 74, 70
11, 7743, Control_c, 6, 7, 125
11, 7744, Control_c, 6, 74, 70
11, 7745, Control_c, 6, 74, 70
11, 7745, Control_c, 6, 7, 125
11, 7746, Control_c, 6, 74, 70
11, 7746, Control_c, 6, 7, 125
11, 7747, Control_c, 6, 74, 70
11, 7747, Control_c, 6, 7, 125
11, 7748, Control_c, 6, 74, 70
11, 7749, Control_c, 6, 74, 70
11, 7749, Control_c, 6, 7, 125
11, 7750, Control_c, 6, 74, 70
11, 7750, Control_c, 6, 7, 125
11, 7751, Control_c, 6, 74, 70
11, 7751, Control_c, 6, 7, 125
11, 7752, Control_c, 6, 74, 70
11, 7753, Control_c, 6, 74, 70
11, 7753, Control_c, 6, 7, 125
11, 7754, Control_c, 6, 74, 70
11, 7754, Control_c, 6, 7, 125
11, 7755, Control_c, 6, 74, 70
11, 7755, Control_c, 6, 7, 125
11, 7756, Control_c, 6, 74, 69
11, 7757, Control_c, 6, 74, 69
11, 7757, Control_c, 6, 7, 125
11, 7758, Control_c, 6, 74, 69
11, 7758, Control_c, 6, 7, 125
11, 7759, Control_c, 6, 74, 69
11, 7759, Control_c, 6, 7, 125
11, 7760, Control_c, 6, 74, 69
11, 7761, Control_c, 6, 74, 69
11, 7761, Control_c, 6, 7, 125
11, 7762, Control_c, 6, 74, 69
11, 7762, Control_c, 6, 7, 125
11, 7763, Control_c, 6, 74, 69
11, 7763, Control_c, 6, 7, 125
11, 7764, Control_c, 6, 74, 69
11, 7765, Control_c, 6, 74, 69
11, 7765, Control_c, 6, 7, 125
11, 7766, Control_c, 6, 74, 69
11, 7766, Control_c, 6, 7, 125
11, 7767, Control_c, 6, 74, 69
11, 7767, Control_c, 6, 7, 125
11, 7768, Control_c, 6, 74, 69
11, 7769, Control_c, 6, 74, 69
11, 7769, Control_c, 6, 7, 125
11, 7770, Control_c, 6, 74, 69
11, 7770, Control_c, 6, 7, 125
11, 7771, Control_c, 6, 74, 69
11, 7771, Control_c, 6, 7, 125
11, 7772, Control_c, 6, 74, 69
11, 7773, Control_c, 6, 74, 69
11, 7773, Control_c, 6, 7, 125
11, 7774, Control_c, 6, 74, 69
11, 7774, Control_c, 6, 7, 125
11, 7775, Control_c, 6, 74, 69
11, 7775, Control_c, 6, 7, 125
11, 7776, Control_c, 6, 74, 69
11, 7777, Control_c, 6, 74, 69
11, 7777, Control_c, 6, 7, 125
11, 7778, Control_c, 6, 74, 69
11, 7778, Control_c, 6, 7, 125
11, 7779, Control_c, 6, 74, 69
11, 7779, Control_c, 6, 7, 125
11, 7780, Control_c, 6, 74, 69
11, 7781, Control_c, 6, 74, 69
11, 7781, Control_c, 6, 7, 125
11, 7782, Control_c, 6, 74, 69
11, 7782, Control_c, 6, 7, 125
11, 7783, Control_c, 6, 74, 69
11, 7783, Control_c, 6, 7, 125
11, 7784, Control_c, 6, 74, 69
11, 7785, Control_c, 6, 74, 69
11, 7785, Control_c, 6, 7, 125
11, 7786, Control_c, 6, 74, 69
11, 7786, Control_c, 6, 7, 125
11, 7787, Control_c, 6, 74, 69
11, 7787, Control_c, 6, 7, 125
11, 7788, Control_c, 6, 74, 69
11, 7789, Control_c, 6, 74, 69
11, 7789, Control_c, 6, 7, 125
11, 7790, Control_c, 6, 74, 69
11, 7790, Control_c, 6, 7, 125
11, 7791, Control_c, 6, 74, 69
11, 7791, Control_c, 6, 7, 125
11, 7792, Control_c, 6, 74, 69
11, 7793, Control_c, 6, 74, 69
11, 7793, Control_c, 6, 7, 125
11, 7794, Control_c, 6, 74, 69
11, 7794, Control_c, 6, 7, 125
11, 7795, Control_c, 6, 74, 69
11, 7795, Control_c, 6, 7, 125
11, 7796, Control_c, 6, 74, 69
11, 7797, Control_c, 6, 74, 68
11, 7797, Control_c, 6, 7, 125
11, 7798, Control_c, 6, 74, 68
11, 7798, Control_c, 6, 7, 125
11, 7799, Control_c, 6, 74, 68
11, 7799, Control_c, 6, 7, 125
11, 7800, Control_c, 6, 74, 68
11, 7801, Control_c, 6, 74, 68
11, 7801, Control_c, 6, 7, 125
11, 7802, Control_c, 6, 74, 68
11, 7802, Control_c, 6, 7, 125
11, 7803, Control_c, 6, 74, 68
11, 7803, Control_c, 6, 7, 125
11, 7804, Control_c, 6, 74, 68
11, 7805, Control_c, 6, 74, 68
11, 7805, Control_c, 6, 7, 125
11, 7806, Control_c, 6, 74, 68
11, 7806, Control_c, 6, 7, 125
11, 7807, Control_c, 6, 74, 68
11, 7807, Control_c, 6, 7, 125
11, 7808, Control_c, 6, 74, 68
11, 7809, Control_c, 6, 74, 68
11, 7809, Control_c, 6, 7, 125
11, 7810, Control_c, 6, 74, 68
11, 7810, Control_c, 6, 7, 125
11, 7811, Control_c, 6, 74, 68
11, 7811, Control_c, 6, 7, 125
11, 7812, Control_c, 6, 74, 68
11, 7813, Control_c, 6, 74, 68
11, 7813, Control_c, 6, 7, 125
11, 7814, Control_c, 6, 74, 68
11, 7814, Control_c, 6, 7, 125
11, 7815, Control_c, 6, 74, 68
11, 7815, Control_c, 6, 7, 125
11, 7816, Control_c, 6, 74, 68
11, 7817, Control_c, 6, 74, 68
11, 7817, Control_c, 6, 7, 125
11, 7818, Control_c, 6, 74, 68
11, 7818, Control_c, 6, 7, 125
11, 7819, Control_c, 6, 74, 68
11, 7819, Control_c, 6, 7, 125
11, 7820, Control_c, 6, 74, 68
11, 7821, Control_c, 6, 74, 68
11, 7821, Control_c, 6, 7, 125
11, 7822, Control_c, 6, 74, 68
11, 7822, Control_c, 6, 7, 125
11, 7823, Control_c, 6, 74, 68
11, 7823, Control_c, 6, 7, 125
11, 7824, Control_c, 6, 74, 68
11, 7825, Control_c, 6, 74, 68
11, 7825, Control_c, 6, 7, 125
11, 7826, Control_c, 6, 74, 68
11, 7826, Control_c, 6, 7, 125
11, 7827, Control_c, 6, 74, 68
11, 7827, Control_c, 6, 7, 125
11, 7828, Control_c, 6, 74, 68
11, 7829, Control_c, 6, 74, 68
11, 7829, Control_c, 6, 7, 125
11, 7830, Control_c, 6, 74, 68
11, 7830, Control_c, 6, 7, 125
11, 7831, Control_c, 6, 74, 68
11, 7831, Control_c, 6, 7, 125
11, 7832, Control_c, 6, 74, 68
11, 7833, Control_c, 6, 74, 68
11, 7833, Control_c, 6, 7, 125
11, 7834, Control_c, 6, 74, 68
11, 7834, Control_c, 6, 7, 125
11, 7835, Control_c, 6, 74, 68
11, 7836, Control_c, 6, 74, 68
11, 7836, Control_c, 6, 7, 125
11, 7837, Control_c, 6, 74, 68
11, 7837, Control_c, 6, 7, 125
11, 7838, Control_c, 6, 74, 68
11, 7838, Control_c, 6, 7, 125
11, 7839, Control_c, 6, 74, 67
11, 7840, Control_c, 6, 74, 67
11, 7840, Control_c, 6, 7, 125
11, 7841, Control_c, 6, 74, 67
11, 7841, Control_c, 6, 7, 125
11, 7842, Control_c, 6, 74, 67
11, 7842, Control_c, 6, 7, 125
11, 7843, Control_c, 6, 74, 67
11, 7844, Control_c, 6, 74, 67
11, 7844, Control_c, 6, 7, 125
11, 7845, Control_c, 6, 74, 67
11, 7845, Control_c, 6, 7, 125
11, 7846, Control_c, 6, 74, 67
11, 7846, Control_c, 6, 7, 125
11, 7847, Control_c, 6, 74, 67
11, 7848, Control_c, 6, 74, 67
11, 7848, Control_c, 6, 7, 125
11, 7849, Control_c, 6, 74, 67
11, 7849, Control_c, 6, 7, 125
11, 7850, Control_c, 6, 74, 67
11, 7850, Control_c, 6, 7, 125
11, 7851, Control_c, 6, 74, 67
11, 7852, Control_c, 6, 74, 67
11, 7852, Control_c, 6, 7, 125
11, 7853, Control_c, 6, 74, 67
11, 7853, Control_c, 6, 7, 125
11, 7854, Control_c, 6, 74, 67
11, 7854, Control_c, 6, 7, 125
11, 7855, Control_c, 6, 74, 67
11, 7856, Control_c, 6, 74, 67
11, 7856, Control_c, 6, 7, 125
11, 7857, Control_c, 6, 74, 67
11, 7857, Control_c, 6, 7, 125
11, 7858, Control_c, 6, 74, 67
11, 7858, Control_c, 6, 7, 125
11, 7859, Control_c, 6, 74, 67
11, 7860, Control_c, 6, 74, 67
11, 7860, Control_c, 6, 7, 125
11, 7861, Control_c, 6, 74, 67
11, 7861, Control_c, 6, 7, 125
11, 7862, Control_c, 6, 74, 67
11, 7862, Control_c, 6, 7, 125
11, 7863, Control_c, 6, 74, 67
11, 7864, Control_c, 6, 74, 67
11, 7864, Control_c, 6, 7, 125
11, 7865, Control_c, 6, 74, 67
11, 7865, Control_c, 6, 7, 125
11, 7866, Control_c, 6, 74, 67
11, 7866, Control_c, 6, 7, 125
11, 7867, Control_c, 6, 74, 67
11, 7868, Control_c, 6, 74, 67
11, 7868, Control_c, 6, 7, 125
11, 7869, Control_c, 6, 74, 67
11, 7869, Control_c, 6, 7, 125
11, 7870, Control_c, 6, 74, 67
11, 7870, Control_c, 6, 7, 125
11, 7871, Control_c, 6, 74, 67
11, 7872, Control_c, 6, 74, 67
11, 7872, Control_c, 6, 7, 125
11, 7873, Control_c, 6, 74, 67
11, 7873, Control_c, 6, 7, 125
11, 7874, Control_c, 6, 74, 67
11, 7874, Control_c, 6, 7, 125
11, 7875, Control_c, 6, 74, 67
11, 7876, Control_c, 6, 74, 67
11, 7876, Control_c, 6, 7, 125
11, 7877, Control_c, 6, 74, 67
11, 7877, Control_c, 6, 7, 125
11, 7878, Control_c, 6, 74, 67
11, 7878, Control_c, 6, 7, 125
11, 7879, Control_c, 6, 74, 67
11, 7880, Control_c, 6, 74, 66
11, 7880, Control_c, 6, 7, 125
11, 7881, Control_c, 6, 74, 66
11, 7881, Control_c, 6, 7, 125
11, 7882, Control_c, 6, 74, 66
11, 7882, Control_c, 6, 7, 125
11, 7883, Control_c, 6, 74, 66
11, 7884, Control_c, 6, 74, 66
11, 7884, Control_c, 6, 7, 125
11, 7885, Control_c, 6, 74, 66
11, 7885, Control_c, 6, 7, 125
11, 7886, Control_c, 6, 74, 66
11, 7886, Control_c, 6, 7, 125
11, 7887, Control_c, 6, 74, 66
11, 7888, Control_c, 6, 74, 66
11, 7888, Control_c, 6, 7, 125
11, 7889, Control_c, 6, 74, 66
11, 7889, Control_c, 6, 7, 125
11, 7890, Control_c, 6, 74, 66
11, 7890, Control_c, 6, 7, 125
11, 7891, Control_c, 6, 74, 66
11, 7892, Control_c, 6, 74, 66
11, 7892, Control_c, 6, 7, 125
11, 7893, Control_c, 6, 74, 66
11, 7893, Control_c, 6, 7, 125
11, 7894, Control_c, 6, 74, 66
11, 7894, Control_c, 6, 7, 125
11, 7895, Control_c, 6, 74, 66
11, 7896, Control_c, 6, 74, 66
11, 7896, Control_c, 6, 7, 125
11, 7897, Control_c, 6, 74, 66
11, 7897, Control_c, 6, 7, 125
11, 7898, Control_c, 6, 74, 66
11, 7898, Control_c, 6, 7, 125
11, 7899, Control_c, 6, 74, 66
11, 7900, Control_c, 6, 74, 66
11, 7900, Control_c, 6, 7, 125
11, 7901, Control_c, 6, 74, 66
11, 7901, Control_c, 6, 7, 125
11, 7902, Control_c, 6, 74, 66
11, 7902, Control_c, 6, 7, 125
11, 7903, Control_c, 6, 74, 66
11, 7904, Control_c, 6, 74, 66
11, 7904, Control_c, 6, 7, 125
11, 7905, Control_c, 6, 74, 66
11, 7905, Control_c, 6, 7, 125
11, 7906, Control_c, 6, 74, 66
11, 7906, Control_c, 6, 7, 125
11, 7907, Control_c, 6, 74, 66
11, 7908, Control_c, 6, 74, 66
11, 7908, Control_c, 6, 7, 125
11, 7909, Control_c, 6, 74, 66
11, 7909, Control_c, 6, 7, 125
11, 7910, Control_c, 6, 74, 66
11, 7910, Control_c, 6, 7, 125
11, 7911, Control_c, 6, 74, 66
11, 7912, Control_c, 6, 74, 66
11, 7912, Control_c, 6, 7, 125
11, 7913, Control_c, 6, 74, 66
11, 7913, Control_c, 6, 7, 125
11, 7914, Control_c, 6, 74, 66
11, 7914, Control_c, 6, 7, 125
11, 7915, Control_c, 6, 74, 66
11, 7916, Control_c, 6, 74, 66
11, 7916, Control_c, 6, 7, 125
11, 7917, Control_c, 6, 74, 66
11, 7917, Control_c, 6, 7, 125
11, 7918, Control_c, 6, 74, 66
11, 7918, Control_c, 6, 7, 125
11, 7919, Control_c, 6, 74, 66
11, 7920, Control_c, 6, 74, 66
11, 7920, Control_c, 6, 7, 125
11, 7921, Control_c, 6, 74, 66
11, 7921, Control_c, 6, 7, 125
11, 7922, Control_c, 6, 74, 65
11, 7922, Control_c, 6, 7, 125
11, 7923, Control_c, 6, 74, 65
11, 7924, Control_c, 6, 74, 65
11, 7924, Control_c, 6, 7, 125
11, 7925, Control_c, 6, 74, 65
11, 7925, Control_c, 6, 7, 125
11, 7926, Control_c, 6, 74, 65
11, 7926, Control_c, 6, 7, 125
11, 7927, Control_c, 6, 74, 65
11, 7928, Control_c, 6, 74, 65
11, 7928, Control_c, 6, 7, 125
11, 7929, Control_c, 6, 74, 65
11, 7929, Control_c, 6, 7, 125
11, 7930, Control_c, 6, 74, 65
11, 7930, Control_c, 6, 7, 125
11, 7931, Control_c, 6, 74, 65
11, 7932, Control_c, 6, 74, 65
11, 7932, Control_c, 6, 7, 125
11, 7933, Control_c, 6, 74, 65
11, 7933, Control_c, 6, 7, 125
11, 7934, Control_c, 6, 74, 65
11, 7934, Control_c, 6, 7, 125
11, 7935, Control_c, 6, 74, 65
11, 7936, Control_c, 6, 74, 65
11, 7936, Control_c, 6, 7, 125
11, 7937, Control_c, 6, 74, 65
11, 7937, Control_c, 6, 7, 125
11, 7938, Control_c, 6, 74, 65
11, 7938, Control_c, 6, 7, 125
11, 7939, Control_c, 6, 74, 65
11, 7940, Control_c, 6, 74, 65
11, 7940, Control_c, 6, 7, 125
11, 7941, Control_c, 6, 74, 65
11, 7941, Control_c, 6, 7, 125
11, 7942, Control_c, 6, 74, 65
11, 7942, Control_c, 6, 7, 125
11, 7943, Control_c, 6, 74, 65
11, 7944, Control_c, 6, 74, 65
11, 7944, Control_c, 6, 7, 125
11, 7945, Control_c, 6, 74, 65
11, 7945, Control_c, 6, 7, 125
11, 7946, Control_c, 6, 74, 65
11, 7946, Control_c, 6, 7, 125
11, 7947, Control_c, 6, 74, 65
11, 7948, Control_c, 6, 74, 65
11, 7948, Control_c, 6, 7, 125
11, 7949, Control_c, 6, 74, 65
11, 7949, Control_c, 6, 7, 125
11, 7950, Control_c, 6, 74, 65
11, 7950, Control_c, 6, 7, 125
11, 7951, Control_c, 6, 74, 65
11, 7952, Control_c, 6, 74, 65
11, 7952, Control_c, 6, 7, 125
11, 7953, Control_c, 6, 74, 65
11, 7953, Control_c, 6, 7, 125
11, 7954, Control_c, 6, 74, 65
11, 7954, Control_c, 6, 7, 125
11, 7955, Control_c, 6, 74, 65
11, 7956, Control_c, 6, 74, 65
11, 7956, Control_c, 6, 7, 125
11, 7957, Control_c, 6, 74, 65
11, 7957, Control_c, 6, 7, 125
11, 7958, Control_c, 6, 74, 65
11, 7958, Control_c, 6, 7, 125
11, 7959, Control_c, 6, 74, 65
11, 7960, Control_c, 6, 74, 65
11, 7960, Control_c, 6, 7, 125
11, 7961, Control_c, 6, 74, 65
11, 7961, Control_c, 6, 7, 125
11, 7962, Control_c, 6, 74, 65
11, 7962, Control_c, 6, 7, 125
11, 7963, Control_c, 6, 74, 64
11, 7964, Control_c, 6, 74, 64
11, 7964, Control_c, 6, 7, 125
11, 7965, Control_c, 6, 74, 64
11, 7965, Control_c, 6, 7, 125
11, 7966, Control_c, 6, 74, 64
11, 7966, Control_c, 6, 7, 125
11, 7967, Control_c, 6, 74, 64
11, 7968, Control_c, 6, 74, 64
11, 7968, Control_c, 6, 7, 125
11, 7969, Control_c, 6, 74, 64
11, 7969, Control_c, 6, 7, 125
11, 7970, Control_c, 6, 74, 64
11, 7970, Control_c, 6, 7, 125
11, 7971, Control_c, 6, 74, 64
11, 7972, Control_c, 6, 74, 64
11, 7972, Control_c, 6, 7, 125
11, 7973, Control_c, 6, 74, 64
11, 7973, Control_c, 6, 7, 125
11, 7974, Control_c, 6, 74, 64
11, 7974, Control_c, 6, 7, 125
11, 7975, Control_c, 6, 74, 64
11, 7976, Control_c, 6, 74, 64
11, 7976, Control_c, 6, 7, 125
11, 7977, Control_c, 6, 74, 64
11, 7977, Control_c, 6, 7, 125
11, 7978, Control_c, 6, 74, 64
11, 7978, Control_c, 6, 7, 125
11, 7979, Control_c, 6, 74, 64
11, 7980, Control_c, 6, 74, 64
11, 7980, Control_c, 6, 7, 125
11, 7981, Control_c, 6, 74, 64
11, 7981, Control_c, 6, 7, 125
11, 7982, Control_c, 6, 74, 64
11, 7982, Control_c, 6, 7, 125
11, 7983, Control_c, 6, 74, 64
11, 7984, Control_c, 6, 74, 64
11, 7984, Control_c, 6, 7, 125
11, 7985, Control_c, 6, 74, 64
11, 7985, Control_c, 6, 7, 125
11, 7986, Control_c, 6, 74, 64
11, 7986, Control_c, 6, 7, 125
11, 7987, Control_c, 6, 74, 64
11, 7988, Control_c, 6, 74, 64
11, 7988, Control_c, 6, 7, 125
11, 7989, Control_c, 6, 74, 64
11, 7989, Control_c, 6, 7, 125
11, 7990, Control_c, 6, 74, 64
11, 7990, Control_c, 6, 7, 125
11, 7991, Control_c, 6, 74, 64
11, 7992, Control_c, 6, 74, 64
11, 7992, Control_c, 6, 7, 125
11, 7993, Control_c, 6, 74, 64
11, 7993, Control_c, 6, 7, 125
11, 7994, Control_c, 6, 74, 64
11, 7994, Control_c, 6, 7, 125
11, 7995, Control_c, 6, 74, 64
11, 7996, Control_c, 6, 74, 64
11, 7996, Control_c, 6, 7, 125
11, 7997, Control_c, 6, 74, 64
11, 7997, Control_c, 6, 7, 125
11, 7998, Control_c, 6, 74, 64
11, 7998, Control_c, 6, 7, 125
11, 7999, Control_c, 6, 74, 64
11, 8000, Control_c, 6, 74, 64
11, 8000, Control_c, 6, 7, 125
11, 8001, Control_c, 6, 74, 64
11, 8001, Control_c, 6, 7, 125
11, 8002, Control_c, 6, 74, 64
11, 8002, Control_c, 6, 7, 125
11, 8003, Control_c, 6, 74, 64
11, 8004, Control_c, 6, 74, 64
11, 8004, Control_c, 6, 7, 125
11, 8005, Control_c, 6, 74, 63
11, 8005, Control_c, 6, 7, 125
11, 8006, Control_c, 6, 74, 63
11, 8007, Control_c, 6, 74, 63
11, 8007, Control_c, 6, 7, 125
11, 8008, Control_c, 6, 74, 63
11, 8008, Control_c, 6, 7, 125
11, 8009, Control_c, 6, 74, 63
11, 8009, Control_c, 6, 7, 125
11, 8010, Control_c, 6, 74, 63
11, 8011, Control_c, 6, 74, 63
11, 8011, Control_c, 6, 7, 125
11, 8012, Control_c, 6, 74, 63
11, 8012, Control_c, 6, 7, 125
11, 8013, Control_c, 6, 74, 63
11, 8013, Control_c, 6, 7, 125
11, 8014, Control_c, 6, 74, 63
11, 8015, Control_c, 6, 74, 63
11, 8015, Control_c, 6, 7, 125
11, 8016, Control_c, 6, 74, 63
11, 8016, Control_c, 6, 7, 125
11, 8017, Control_c, 6, 74, 63
11, 8017, Control_c, 6, 7, 125
11, 8018, Control_c, 6, 74, 63
11, 8019, Control_c, 6, 74, 63
11, 8019, Control_c, 6, 7, 125
11, 8020, Control_c, 6, 74, 63
11, 8020, Control_c, 6, 7, 125
11, 8021, Control_c, 6, 74, 63
11, 8021, Control_c, 6, 7, 125
11, 8022, Control_c, 6, 74, 63
11, 8023, Control_c, 6, 74, 63
11, 8023, Control_c, 6, 7, 125
11, 8024, Control_c, 6, 74, 63
11, 8024, Control_c, 6, 7, 125
11, 8025, Control_c, 6, 74, 63
11, 8025, Control_c, 6, 7, 125
11, 8026, Control_c, 6, 74, 63
11, 8027, Control_c, 6, 74, 63
11, 8027, Control_c, 6, 7, 125
11, 8028, Control_c, 6, 74, 63
11, 8028, Control_c, 6, 7, 125
11, 8029, Control_c, 6, 74, 63
11, 8029, Control_c, 6, 7, 125
11, 8030, Control_c, 6, 74, 63
11, 8031, Control_c, 6, 74, 63
11, 8031, Control_c, 6, 7, 125
11, 8032, Control_c, 6, 74, 63
11, 8032, Control_c, 6, 7, 125
11, 8033, Control_c, 6, 74, 63
11, 8033, Control_c, 6, 7, 125
11, 8034, Control_c, 6, 74, 63
11, 8035, Control_c, 6, 74, 63
11, 8035, Control_c, 6, 7, 125
11, 8036, Control_c, 6, 74, 63
11, 8036, Control_c, 6, 7, 125
11, 8037, Control_c, 6, 74, 63
11, 8037, Control_c, 6, 7, 125
11, 8038, Control_c, 6, 74, 63
11, 8039, Control_c, 6, 74, 63
11, 8039, Control_c, 6, 7, 125
11, 8040, Control_c, 6, 74, 63
11, 8040, Control_c, 6, 7, 125
11, 8041, Control_c, 6, 74, 63
11, 8041, Control_c, 6, 7, 125
11, 8042, Control_c, 6, 74, 63
11, 8043, Control_c, 6, 74, 63
11, 8043, Control_c, 6, 7, 125
11, 8044, Control_c, 6, 74, 63
11, 8044, Control_c, 6, 7, 125
11, 8045, Control_c, 6, 74, 63
11, 8045, Control_c, 6, 7, 125
11, 8046, Control_c, 6, 74, 62
11, 8047, Control_c, 6, 74, 62
11, 8047, Control_c, 6, 7, 125
11, 8048, Control_c, 6, 74, 62
11, 8048, Control_c, 6, 7, 125
11, 8049, Control_c, 6, 74, 62
11, 8049, Control_c, 6, 7, 125
11, 8050, Control_c, 6, 74, 62
11, 8051, Control_c, 6, 74, 62
11, 8051, Control_c, 6, 7, 125
11, 8052, Control_c, 6, 74, 62
11, 8052, Control_c, 6, 7, 125
11, 8053, Control_c, 6, 74, 62
11, 8053, Control_c, 6, 7, 125
11, 8054, Control_c, 6, 74, 62
11, 8055, Control_c, 6, 74, 62
11, 8055, Control_c, 6, 7, 125
11, 8056, Control_c, 6, 74, 62
11, 8056, Control_c, 6, 7, 125
11, 8057, Control_c, 6, 74, 62
11, 8057, Control_c, 6, 7, 125
11, 8058, Control_c, 6, 74, 62
11, 8059, Control_c, 6, 74, 62
11, 8059, Control_c, 6, 7, 125
11, 8060, Control_c, 6, 74, 62
11, 8060, Control_c, 6, 7, 125
11, 8061, Control_c, 6, 74, 62
11, 8061, Control_c, 6, 7, 125
11, 8062, Control_c, 6, 74, 62
11, 8063, Control_c, 6, 74, 62
11, 8063, Control_c, 6, 7, 125
11, 8064, Control_c, 6, 74, 62
11, 8064, Control_c, 6, 7, 125
11, 8065, Control_c, 6, 74, 62
11, 8065, Control_c, 6, 7, 125
11, 8066, Control_c, 6, 74, 62
11, 8067, Control_c, 6, 74, 62
11, 8067, Control_c, 6, 7, 125
11, 8068, Control_c, 6, 74, 62
11, 8068, Control_c, 6, 7, 125
11, 8069, Control_c, 6, 74, 62
11, 8069, Control_c, 6, 7, 125
11, 8070, Control_c, 6, 74, 62
11, 8071, Control_c, 6, 74, 62
11, 8071, Control_c, 6, 7, 125
11, 8072, Control_c, 6, 74, 62
11, 8072, Control_c, 6, 7, 125
11, 8073, Control_c, 6, 74, 62
11, 8073, Control_c, 6, 7, 125
11, 8074, Control_c, 6, 74, 62
11, 8075, Control_c, 6, 74, 62
11, 8075, Control_c, 6, 7, 125
11, 8076, Control_c, 6, 74, 62
11, 8076, Control_c, 6, 7, 125
11, 8077, Control_c, 6, 74, 62
11, 8077, Control_c, 6, 7, 125
11, 8078, Control_c, 6, 74, 62
11, 8079, Control_c, 6, 74, 62
11, 8079, Control_c, 6, 7, 125
11, 8080, Control_c, 6, 74, 62
11, 8080, Control_c, 6, 7, 125
11, 8081, Control_c, 6, 74, 62
11, 8081, Control_c, 6, 7, 125
11, 8082, Control_c, 6, 74, 62
11, 8083, Control_c, 6, 74, 62
11, 8083, Control_c, 6, 7, 125
11, 8084, Control_c, 6, 74, 62
11, 8084, Control_c, 6, 7, 125
11, 8085, Control_c, 6, 74, 62
11, 8085, Control_c, 6, 7, 125
11, 8086, Control_c, 6, 74, 62
11, 8087, Control_c, 6, 74, 62
11, 8087, Control_c, 6, 7, 125
11, 8088, Control_c, 6, 74, 61
11, 8088, Control_c, 6, 7, 125
11, 8089, Control_c, 6, 74, 61
11, 8089, Control_c, 6, 7, 125
11, 8090, Control_c, 6, 74, 61
11, 8091, Control_c, 6, 74, 61
11, 8091, Control_c, 6, 7, 125
11, 8092, Control_c, 6, 74, 61
11, 8092, Control_c, 6, 7, 125
11, 8093, Control_c, 6, 74, 61
11, 8093, Control_c, 6, 7, 125
11, 8094, Control_c, 6, 74, 61
11, 8095, Control_c, 6, 74, 61
11, 8095, Control_c, 6, 7, 125
11, 8096, Control_c, 6, 74, 61
11, 8096, Control_c, 6, 7, 125
11, 8097, Control_c, 6, 74, 61
11, 8097, Control_c, 6, 7, 125
11, 8098, Control_c, 6, 74, 61
11, 8099, Control_c, 6, 74, 61
11, 8099, Control_c, 6, 7, 125
11, 8100, Control_c, 6, 74, 61
11, 8100, Control_c, 6, 7, 125
11, 8101, Control_c, 6, 74, 61
11, 8101, Control_c, 6, 7, 125
11, 8102, Control_c, 6, 74, 61
11, 8103, Control_c, 6, 74, 61
11, 8103, Control_c, 6, 7, 125
11, 8104, Control_c, 6, 74, 61
11, 8104, Control_c, 6, 7, 125
11, 8105, Control_c, 6, 74, 61
11, 8105, Control_c, 6, 7, 125
11, 8106, Control_c, 6, 74, 61
11, 8107, Control_c, 6, 74, 61
11, 8107, Control_c, 6, 7, 125
11, 8108, Control_c, 6, 74, 61
11, 8108, Control_c, 6, 7, 125
11, 8109, Control_c, 6, 74, 61
11, 8109, Control_c, 6, 7, 125
11, 8110, Control_c, 6, 74, 61
11, 8111, Control_c, 6, 74, 61
11, 8111, Control_c, 6, 7, 125
11, 8112, Control_c, 6, 74, 61
11, 8112, Control_c, 6, 7, 125
11, 8113, Control_c, 6, 74, 61
11, 8113, Control_c, 6, 7, 125
11, 8114, Control_c, 6, 74, 61
11, 8115, Control_c, 6, 74, 61
11, 8115, Control_c, 6, 7, 125
11, 8116, Control_c, 6, 74, 61
11, 8116, Control_c, 6, 7, 125
11, 8117, Control_c, 6, 74, 61
11, 8117, Control_c, 6, 7, 125
11, 8118, Control_c, 6, 74, 61
11, 8119, Control_c, 6, 74, 61
11, 8119, Control_c, 6, 7, 125
11, 8120, Control_c, 6, 74, 61
11, 8120, Control_c, 6, 7, 125
11, 8121, Control_c, 6, 74, 61
11, 8121, Control_c, 6, 7, 125
11, 8122, Control_c, 6, 74, 61
11, 8123, Control_c, 6, 74, 61
11, 8123, Control_c, 6, 7, 125
11, 8124, Control_c, 6, 74, 61
11, 8124, Control_c, 6, 7, 125
11, 8125, Control_c, 6, 74, 61
11, 8125, Control_c, 6, 7, 125
11, 8126, Control_c, 6, 74, 61
11, 8127, Control_c, 6, 74, 61
11, 8127, Control_c, 6, 7, 125
11, 8128, Control_c, 6, 74, 61
11, 8128, Control_c, 6, 7, 125
11, 8129, Control_c, 6, 74, 60
11, 8129, Control_c, 6, 7, 125
11, 8130, Control_c, 6, 74, 60
11, 8131, Control_c, 6, 74, 60
11, 8131, Control_c, 6, 7, 125
11, 8132, Control_c, 6, 74, 60
11, 8132, Control_c, 6, 7, 125
11, 8133, Control_c, 6, 74, 60
11, 8133, Control_c, 6, 7, 125
11, 8134, Control_c, 6, 74, 60
11, 8135, Control_c, 6, 74, 60
11, 8135, Control_c, 6, 7, 125
11, 8136, Control_c, 6, 74, 60
11, 8136, Control_c, 6, 7, 125
11, 8137, Control_c, 6, 74, 60
11, 8137, Control_c, 6, 7, 125
11, 8138, Control_c, 6, 74, 60
11, 8139, Control_c, 6, 74, 60
11, 8139, Control_c, 6, 7, 125
11, 8140, Control_c, 6, 74, 60
11, 8140, Control_c, 6, 7, 125
11, 8141, Control_c, 6, 74, 60
11, 8141, Control_c, 6, 7, 125
11, 8142, Control_c, 6, 74, 60
11, 8143, Control_c, 6, 74, 60
11, 8143, Control_c, 6, 7, 125
11, 8144, Control_c, 6, 74, 60
11, 8144, Control_c, 6, 7, 125
11, 8145, Control_c, 6, 74, 60
11, 8145, Control_c, 6, 7, 125
11, 8146, Control_c, 6, 74, 60
11, 8147, Control_c, 6, 74, 60
11, 8147, Control_c, 6, 7, 125
11, 8148, Control_c, 6, 74, 60
11, 8148, Control_c, 6, 7, 125
11, 8149, Control_c, 6, 74, 60
11, 8149, Control_c, 6, 7, 125
11, 8150, Control_c, 6, 74, 60
11, 8151, Control_c, 6, 74, 60
11, 8151, Control_c, 6, 7, 125
11, 8152, Control_c, 6, 74, 60
11, 8152, Control_c, 6, 7, 125
11, 8153, Control_c, 6, 74, 60
11, 8153, Control_c, 6, 7, 125
11, 8154, Control_c, 6, 74, 60
11, 8155, Control_c, 6, 74, 60
11, 8155, Control_c, 6, 7, 125
11, 8156, Control_c, 6, 74, 60
11, 8156, Control_c, 6, 7, 125
11, 8157, Control_c, 6, 74, 60
11, 8157, Control_c, 6, 7, 125
11, 8158, Control_c, 6, 74, 60
11, 8159, Control_c, 6, 74, 60
11, 8159, Control_c, 6, 7, 125
11, 8160, Control_c, 6, 74, 60
11, 8160, Control_c, 6, 7, 125
11, 8161, Control_c, 6, 74, 60
11, 8161, Control_c, 6, 7, 125
11, 8162, Control_c, 6, 74, 60
11, 8163, Control_c, 6, 74, 60
11, 8163, Control_c, 6, 7, 125
11, 8164, Control_c, 6, 74, 60
11, 8164, Control_c, 6, 7, 125
11, 8165, Control_c, 6, 74, 60
11, 8165, Control_c, 6, 7, 125
11, 8166, Control_c, 6, 74, 60
11, 8167, Control_c, 6, 74, 60
11, 8167, Control_c, 6, 7, 125
11, 8168, Control_c, 6, 74, 60
11, 8168, Control_c, 6, 7, 125
11, 8169, Control_c, 6, 74, 60
11, 8169, Control_c, 6, 7, 125
11, 8170, Control_c, 6, 74, 59
11, 8171, Control_c, 6, 74, 59
11, 8171, Control_c, 6, 7, 125
11, 8172, Control_c, 6, 74, 59
11, 8172, Control_c, 6, 7, 125
11, 8173, Control_c, 6, 74, 59
11, 8173, Control_c, 6, 7, 125
11, 8174, Control_c, 6, 74, 59
11, 8175, Control_c, 6, 74, 59
11, 8175, Control_c, 6, 7, 124
11, 8176, Control_c, 6, 74, 59
11, 8176, Control_c, 6, 7, 124
11, 8177, Control_c, 6, 74, 59
11, 8178, Control_c, 6, 74, 59
11, 8178, Control_c, 6, 7, 124
11, 8179, Control_c, 6, 74, 59
11, 8179, Control_c, 6, 7, 124
11, 8180, Control_c, 6, 74, 59
11, 8180, Control_c, 6, 7, 124
11, 8181, Control_c, 6, 74, 59
11, 8182, Control_c, 6, 74, 59
11, 8182, Control_c, 6, 7, 124
11, 8183, Control_c, 6, 74, 59
11, 8183, Control_c, 6, 7, 124
11, 8184, Control_c, 6, 74, 59
11, 8184, Control_c, 6, 7, 124
11, 8185, Control_c, 6, 74, 59
11, 8186, Control_c, 6, 74, 59
11, 8186, Control_c, 6, 7, 124
11, 8187, Control_c, 6, 74, 59
11, 8187, Control_c, 6, 7, 124
11, 8188, Control_c, 6, 74, 59
11, 8188, Control_c, 6, 7, 124
11, 8189, Control_c, 6, 74, 59
11, 8190, Control_c, 6, 74, 59
11, 8190, Control_c, 6, 7, 124
11, 8191, Control_c, 6, 74, 59
11, 8191, Control_c, 6, 7, 124
11, 8192, Control_c, 6, 74, 59
11, 8192, Control_c, 6, 7, 124
11, 8193, Control_c, 6, 74, 59
11, 8194, Control_c, 6, 74, 59
11, 8194, Control_c, 6, 7, 124
11, 8195, Control_c, 6, 74, 59
11, 8195, Control_c, 6, 7, 124
11, 8196, Control_c, 6, 74, 59
11, 8196, Control_c, 6, 7, 124
11, 8197, Control_c, 6, 74, 59
11, 8198, Control_c, 6, 74, 59
11, 8198, Control_c, 6, 7, 124
11, 8199, Control_c, 6, 74, 59
11, 8199, Control_c, 6, 7, 124
11, 8200, Control_c, 6, 74, 59
11, 8200, Control_c, 6, 7, 124
11, 8201, Control_c, 6, 74, 59
11, 8202, Control_c, 6, 74, 59
11, 8202, Control_c, 6, 7, 124
11, 8203, Control_c, 6, 74, 59
11, 8203, Control_c, 6, 7, 124
11, 8204, Control_c, 6, 74, 59
11, 8204, Control_c, 6, 7, 124
11, 8205, Control_c, 6, 74, 59
11, 8206, Control_c, 6, 74, 59
11, 8206, Control_c, 6, 7, 124
11, 8207, Control_c, 6, 74, 59
11, 8207, Control_c, 6, 7, 124
11, 8208, Control_c, 6, 74, 59
11, 8208, Control_c, 6, 7, 124
11, 8209, Control_c, 6, 74, 59
11, 8210, Control_c, 6, 74, 59
11, 8210, Control_c, 6, 7, 124
11, 8211, Control_c, 6, 74, 59
11, 8211, Control_c, 6, 7, 124
11, 8212, Control_c, 6, 74, 58
11, 8212, Control_c, 6, 7, 124
11, 8213, Control_c, 6, 74, 58
11, 8214, Control_c, 6, 74, 58
11, 8214, Control_c, 6, 7, 124
11, 8215, Control_c, 6, 74, 58
11, 8215, Control_c, 6, 7, 124
11, 8216, Control_c, 6, 74, 58
11, 8216, Control_c, 6, 7, 124
11, 8217, Control_c, 6, 74, 58
11, 8218, Control_c, 6, 74, 58
11, 8218, Control_c, 6, 7, 124
11, 8219, Control_c, 6, 74, 58
11, 8219, Control_c, 6, 7, 124
11, 8220, Control_c, 6, 74, 58
11, 8220, Control_c, 6, 7, 124
11, 8221, Control_c, 6, 74, 58
11, 8222, Control_c, 6, 74, 58
11, 8222, Control_c, 6, 7, 124
11, 8223, Control_c, 6, 74, 58
11, 8223, Control_c, 6, 7, 124
11, 8224, Control_c, 6, 74, 58
11, 8224, Control_c, 6, 7, 124
11, 8225, Control_c, 6, 74, 58
11, 8226, Control_c, 6, 74, 58
11, 8226, Control_c, 6, 7, 124
11, 8227, Control_c, 6, 74, 58
11, 8227, Control_c, 6, 7, 124
11, 8228, Control_c, 6, 74, 58
11, 8228, Control_c, 6, 7, 124
11, 8229, Control_c, 6, 74, 58
11, 8230, Control_c, 6, 74, 58
11, 8230, Control_c, 6, 7, 124
11, 8231, Control_c, 6, 74, 58
11, 8231, Control_c, 6, 7, 124
11, 8232, Control_c, 6, 74, 58
11, 8232, Control_c, 6, 7, 124
11, 8233, Control_c, 6, 74, 58
11, 8234, Control_c, 6, 74, 58
11, 8234, Control_c, 6, 7, 124
11, 8235, Control_c, 6, 74, 58
11, 8235, Control_c, 6, 7, 124
11, 8236, Control_c, 6, 74, 58
11, 8236, Control_c, 6, 7, 124
11, 8237, Control_c, 6, 74, 58
11, 8238, Control_c, 6, 74, 58
11, 8238, Control_c, 6, 7, 124
11, 8239, Control_c, 6, 74, 58
11, 8239, Control_c, 6, 7, 124
11, 8240, Control_c, 6, 74, 58
11, 8240, Control_c, 6, 7, 124
11, 8241, Control_c, 6, 74, 58
11, 8242, Control_c, 6, 74, 58
11, 8242, Control_c, 6, 7, 124
11, 8243, Control_c, 6, 74, 58
11, 8243, Control_c, 6, 7, 124
11, 8244, Control_c, 6, 74, 58
11, 8244, Control_c, 6, 7, 124
11, 8245, Control_c, 6, 74, 58
11, 8246, Control_c, 6, 74, 58
11, 8246, Control_c, 6, 7, 124
11, 8247, Control_c, 6, 74, 58
11, 8247, Control_c, 6, 7, 124
11, 8248, Control_c, 6, 74, 58
11, 8248, Control_c, 6, 7, 124
11, 8249, Control_c, 6, 74, 58
11, 8250, Control_c, 6, 74, 58
11, 8250, Control_c, 6, 7, 124
11, 8251, Control_c, 6, 74, 58
11, 8251, Control_c, 6, 7, 124
11, 8252, Control_c, 6, 74, 58
11, 8252, Control_c, 6, 7, 124
11, 8253, Control_c, 6, 74, 57
11, 8254, Control_c, 6, 74, 57
11, 8254, Control_c, 6, 7, 124
11, 8255, Control_c, 6, 74, 57
11, 8255, Control_c, 6, 7, 124
11, 8256, Control_c, 6, 74, 57
11, 8256, Control_c, 6, 7, 124
11, 8257, Control_c, 6, 74, 57
11, 8258, Control_c, 6, 74, 57
11, 8258, Control_c, 6, 7, 124
11, 8259, Control_c, 6, 74, 57
11, 8259, Control_c, 6, 7, 124
11, 8260, Control_c, 6, 74, 57
11, 8260, Control_c, 6, 7, 124
11, 8261, Control_c, 6, 74, 57
11, 8262, Control_c, 6, 74, 57
11, 8262, Control_c, 6, 7, 124
11, 8263, Control_c, 6, 74, 57
11, 8263, Control_c, 6, 7, 124
11, 8264, Control_c, 6, 74, 57
11, 8264, Control_c, 6, 7, 124
11, 8265, Control_c, 6, 74, 57
11, 8266, Control_c, 6, 74, 57
11, 8266, Control_c, 6, 7, 124
11, 8267, Control_c, 6, 74, 57
11, 8267, Control_c, 6, 7, 124
11, 8268, Control_c, 6, 74, 57
11, 8268, Control_c, 6, 7, 124
11, 8269, Control_c, 6, 74, 57
11, 8270, Control_c, 6, 74, 57
11, 8270, Control_c, 6, 7, 124
11, 8271, Control_c, 6, 74, 57
11, 8271, Control_c, 6, 7, 124
11, 8272, Control_c, 6, 74, 57
11, 8272, Control_c, 6, 7, 124
11, 8273, Control_c, 6, 74, 57
11, 8274, Control_c, 6, 74, 57
11, 8274, Control_c, 6, 7, 124
11, 8275, Control_c, 6, 74, 57
11, 8275, Control_c, 6, 7, 124
11, 8276, Control_c, 6, 74, 57
11, 8276, Control_c, 6, 7, 124
11, 8277, Control_c, 6, 74, 57
11, 8278, Control_c, 6, 74, 57
11, 8278, Control_c, 6, 7, 124
11, 8279, Control_c, 6, 74, 57
11, 8279, Control_c, 6, 7, 124
11, 8280, Control_c, 6, 74, 57
11, 8280, Control_c, 6, 7, 124
11, 8281, Control_c, 6, 74, 57
11, 8282, Control_c, 6, 74, 57
11, 8282, Control_c, 6, 7, 124
11, 8283, Control_c, 6, 74, 57
11, 8283, Control_c, 6, 7, 124
11, 8284, Control_c, 6, 74, 57
11, 8284, Control_c, 6, 7, 124
11, 8285, Control_c, 6, 74, 57
11, 8286, Control_c, 6, 74, 57
11, 8286, Control_c, 6, 7, 124
11, 8287, Control_c, 6, 74, 57
11, 8287, Control_c, 6, 7, 124
11, 8288, Control_c, 6, 74, 57
11, 8288, Control_c, 6, 7, 124
11, 8289, Control_c, 6, 74, 57
11, 8290, Control_c, 6, 74, 57
11, 8290, Control_c, 6, 7, 124
11, 8291, Control_c, 6, 74, 57
11, 8291, Control_c, 6, 7, 124
11, 8292, Control_c, 6, 74, 57
11, 8292, Control_c, 6, 7, 124
11, 8293, Control_c, 6, 74, 57
11, 8294, Control_c, 6, 74, 57
11, 8294, Control_c, 6, 7, 124
11, 8295, Control_c, 6, 74, 56
11, 8295, Control_c, 6, 7, 124
11, 8296, Control_c, 6, 74, 56
11, 8296, Control_c, 6, 7, 124
11, 8297, Control_c, 6, 74, 56
11, 8298, Control_c, 6, 74, 56
11, 8298, Control_c, 6, 7, 124
11, 8299, Control_c, 6, 74, 56
11, 8299, Control_c, 6, 7, 124
11, 8300, Control_c, 6, 74, 56
11, 8300, Control_c, 6, 7, 124
11, 8301, Control_c, 6, 74, 56
11, 8302, Control_c, 6, 74, 56
11, 8302, Control_c, 6, 7, 124
11, 8303, Control_c, 6, 74, 56
11, 8303, Control_c, 6, 7, 124
11, 8304, Control_c, 6, 74, 56
11, 8304, Control_c, 6, 7, 124
11, 8305, Control_c, 6, 74, 56
11, 8306, Control_c, 6, 74, 56
11, 8306, Control_c, 6, 7, 124
11, 8307, Control_c, 6, 74, 56
11, 8307, Control_c, 6, 7, 124
11, 8308, Control_c, 6, 74, 56
11, 8308, Control_c, 6, 7, 124
11, 8309, Control_c, 6, 74, 56
11, 8310, Control_c, 6, 74, 56
11, 8310, Control_c, 6, 7, 124
11, 8311, Control_c, 6, 74, 56
11, 8311, Control_c, 6, 7, 124
11, 8312, Control_c, 6, 74, 56
11, 8312, Control_c, 6, 7, 124
11, 8313, Control_c, 6, 74, 56
11, 8314, Control_c, 6, 74, 56
11, 8314, Control_c, 6, 7, 124
11, 8315, Control_c, 6, 74, 56
11, 8315, Control_c, 6, 7, 124
11, 8316, Control_c, 6, 74, 56
11, 8316, Control_c, 6, 7, 124
11, 8317, Control_c, 6, 74, 56
11, 8318, Control_c, 6, 74, 56
11, 8318, Control_c, 6, 7, 124
11, 8319, Control_c, 6, 74, 56
11, 8319, Control_c, 6, 7, 124
11, 8320, Control_c, 6, 74, 56
11, 8320, Control_c, 6, 7, 124
11, 8321, Control_c, 6, 74, 56
11, 8322, Control_c, 6, 74, 56
11, 8322, Control_c, 6, 7, 124
11, 8323, Control_c, 6, 74, 56
11, 8323, Control_c, 6, 7, 124
11, 8324, Control_c, 6, 74, 56
11, 8324, Control_c, 6, 7, 124
11, 8325, Control_c, 6, 74, 56
11, 8326, Control_c, 6, 74, 56
11, 8326, Control_c, 6, 7, 124
11, 8327, Control_c, 6, 74, 56
11, 8327, Control_c, 6, 7, 124
11, 8328, Control_c, 6, 74, 56
11, 8328, Control_c, 6, 7, 124
11, 8329, Control_c, 6, 74, 56
11, 8330, Control_c, 6, 74, 56
11, 8330, Control_c, 6, 7, 124
11, 8331, Control_c, 6, 74, 56
11, 8331, Control_c, 6, 7, 124
11, 8332, Control_c, 6, 74, 56
11, 8332, Control_c, 6, 7, 124
11, 8333, Control_c, 6, 74, 56
11, 8334, Control_c, 6, 74, 56
11, 8334, Control_c, 6, 7, 124
11, 8335, Control_c, 6, 74, 56
11, 8335, Control_c, 6, 7, 124
11, 8336, Control_c, 6, 74, 55
11, 8336, Control_c, 6, 7, 124
11, 8337, Control_c, 6, 74, 55
11, 8338, Control_c, 6, 74, 55
11, 8338, Control_c, 6, 7, 124
11, 8339, Control_c, 6, 74, 55
11, 8339, Control_c, 6, 7, 124
11, 8340, Control_c, 6, 74, 55
11, 8340, Control_c, 6, 7, 124
11, 8341, Control_c, 6, 74, 55
11, 8342, Control_c, 6, 74, 55
11, 8342, Control_c, 6, 7, 124
11, 8343, Control_c, 6, 74, 55
11, 8343, Control_c, 6, 7, 124
11, 8344, Control_c, 6, 74, 55
11, 8344, Control_c, 6, 7, 124
11, 8345, Control_c, 6, 74, 55
11, 8346, Control_c, 6, 74, 55
11, 8346, Control_c, 6, 7, 124
11, 8347, Control_c, 6, 74, 55
11, 8347, Control_c, 6, 7, 124
11, 8348, Control_c, 6, 74, 55
11, 8349, Control_c, 6, 74, 55
11, 8349, Control_c, 6, 7, 124
11, 8350, Control_c, 6, 74, 55
11, 8350, Control_c, 6, 7, 124
11, 8351, Control_c, 6, 74, 55
11, 8351, Control_c, 6, 7, 124
11, 8352, Control_c, 6, 74, 55
11, 8353, Control_c, 6, 74, 55
11, 8353, Control_c, 6, 7, 124
11, 8354, Control_c, 6, 74, 55
11, 8354, Control_c, 6, 7, 124
11, 8355, Control_c, 6, 74, 55
11, 8355, Control_c, 6, 7, 124
11, 8356, Control_c, 6, 74, 55
11, 8357, Control_c, 6, 74, 55
11, 8357, Control_c, 6, 7, 124
11, 8358, Control_c, 6, 74, 55
11, 8358, Control_c, 6, 7, 124
11, 8359, Control_c, 6, 74, 55
11, 8359, Control_c, 6, 7, 124
11, 8360, Control_c, 6, 74, 55
11, 8361, Control_c, 6, 74, 55
11, 8361, Control_c, 6, 7, 124
11, 8362, Control_c, 6, 74, 55
11, 8362, Control_c, 6, 7, 124
11, 8363, Control_c, 6, 74, 55
11, 8363, Control_c, 6, 7, 124
11, 8364, Control_c, 6, 74, 55
11, 8365, Control_c, 6, 74, 55
11, 8365, Control_c, 6, 7, 124
11, 8366, Control_c, 6, 74, 55
11, 8366, Control_c, 6, 7, 124
11, 8367, Control_c, 6, 74, 55
11, 8367, Control_c, 6, 7, 124
11, 8368, Control_c, 6, 74, 55
11, 8369, Control_c, 6, 74, 55
11, 8369, Control_c, 6, 7, 124
11, 8370, Control_c, 6, 74, 55
11, 8370, Control_c, 6, 7, 124
11, 8371, Control_c, 6, 74, 55
11, 8371, Control_c, 6, 7, 124
11, 8372, Control_c, 6, 74, 55
11, 8373, Control_c, 6, 74, 55
11, 8373, Control_c, 6, 7, 124
11, 8374, Control_c, 6, 74, 55
11, 8374, Control_c, 6, 7, 124
11, 8375, Control_c, 6, 74, 55
11, 8375, Control_c, 6, 7, 124
11, 8376, Control_c, 6, 74, 55
11, 8377, Control_c, 6, 74, 55
11, 8377, Control_c, 6, 7, 124
11, 8378, Control_c, 6, 74, 54
11, 8378, Control_c, 6, 7, 124
11, 8379, Control_c, 6, 74, 54
11, 8379, Control_c, 6, 7, 124
11, 8380, Control_c, 6, 74, 54
11, 8381, Control_c, 6, 74, 54
11, 8381, Control_c, 6, 7, 124
11, 8382, Control_c, 6, 74, 54
11, 8382, Control_c, 6, 7, 124
11, 8383, Control_c, 6, 74, 54
11, 8383, Control_c, 6, 7, 124
11, 8384, Control_c, 6, 74, 54
11, 8385, Control_c, 6, 74, 54
11, 8385, Control_c, 6, 7, 124
11, 8386, Control_c, 6, 74, 54
11, 8386, Control_c, 6, 7, 124
11, 8387, Control_c, 6, 74, 54
11, 8387, Control_c, 6, 7, 124
11, 8388, Control_c, 6, 74, 54
11, 8389, Control_c, 6, 74, 54
11, 8389, Control_c, 6, 7, 124
11, 8390, Control_c, 6, 74, 54
11, 8390, Control_c, 6, 7, 124
11, 8391, Control_c, 6, 74, 54
11, 8391, Control_c, 6, 7, 124
11, 8392, Control_c, 6, 74, 54
11, 8393, Control_c, 6, 74, 54
11, 8393, Control_c, 6, 7, 124
11, 8394, Control_c, 6, 74, 54
11, 8394, Control_c, 6, 7, 124
11, 8395, Control_c, 6, 74, 54
11, 8395, Control_c, 6, 7, 124
11, 8396, Control_c, 6, 74, 54
11, 8397, Control_c, 6, 74, 54
11, 8397, Control_c, 6, 7, 124
11, 8398, Control_c, 6, 74, 54
11, 8398, Control_c, 6, 7, 124
11, 8399, Control_c, 6, 74, 54
11, 8399, Control_c, 6, 7, 124
11, 8400, Control_c, 6, 74, 54
11, 8401, Control_c, 6, 74, 54
11, 8401, Control_c, 6, 7, 124
11, 8402, Control_c, 6, 74, 54
11, 8402, Control_c, 6, 7, 124
11, 8403, Control_c, 6, 74, 54
11, 8403, Control_c, 6, 7, 124
11, 8404, Control_c, 6, 74, 54
11, 8405, Control_c, 6, 74, 54
11, 8405, Control_c, 6, 7, 124
11, 8406, Control_c, 6, 74, 54
11, 8406, Control_c, 6, 7, 124
11, 8407, Control_c, 6, 74, 54
11, 8407, Control_c, 6, 7, 124
11, 8408, Control_c, 6, 74, 54
11, 8409, Control_c, 6, 74, 54
11, 8409, Control_c, 6, 7, 124
11, 8410, Control_c, 6, 74, 54
11, 8410, Control_c, 6, 7, 124
11, 8411, Control_c, 6, 74, 54
11, 8411, Control_c, 6, 7, 124
11, 8412, Control_c, 6, 74, 54
11, 8413, Control_c, 6, 74, 54
11, 8413, Control_c, 6, 7, 124
11, 8414, Control_c, 6, 74, 54
11, 8414, Control_c, 6, 7, 124
11, 8415, Control_c, 6, 74, 54
11, 8415, Control_c, 6, 7, 124
11, 8416, Control_c, 6, 74, 54
11, 8417, Control_c, 6, 74, 54
11, 8417, Control_c, 6, 7, 124
11, 8418, Control_c, 6, 74, 54
11, 8418, Control_c, 6, 7, 124
11, 8419, Control_c, 6, 74, 53
11, 8419, Control_c, 6, 7, 124
11, 8420, Control_c, 6, 74, 53
11, 8421, Control_c, 6, 74, 53
11, 8421, Control_c, 6, 7, 124
11, 8422, Control_c, 6, 74, 53
11, 8422, Control_c, 6, 7, 124
11, 8423, Control_c, 6, 74, 53
11, 8423, Control_c, 6, 7, 124
11, 8424, Control_c, 6, 7, 124
11, 8425, Control_c, 6, 74, 53
11, 8425, Control_c, 6, 7, 123
11, 8426, Control_c, 6, 7, 123
11, 8427, Control_c, 6, 7, 123
11, 8428, Control_c, 6, 7, 123
11, 8429, Control_c, 6, 7, 122
11, 8430, Control_c, 6, 74, 53
11, 8430, Control_c, 6, 7, 122
11, 8431, Control_c, 6, 7, 122
11, 8432, Control_c, 6, 7, 121
11, 8433, Control_c, 6, 7, 121
11, 8434, Control_c, 6, 7, 121
11, 8435, Control_c, 6, 74, 53
11, 8435, Control_c, 6, 7, 120
11, 8436, Control_c, 6, 7, 120
11, 8437, Control_c, 6, 7, 120
11, 8438, Control_c, 6, 7, 119
11, 8439, Control_c, 6, 7, 119
11, 8440, Control_c, 6, 74, 53
11, 8440, Control_c, 6, 7, 119
11, 8441, Control_c, 6, 7, 118
11, 8442, Control_c, 6, 7, 118
11, 8443, Control_c, 6, 7, 118
11, 8444, Control_c, 6, 7, 117
11, 8445, Control_c, 6, 74, 53
11, 8445, Control_c, 6, 7, 117
11, 8446, Control_c, 6, 7, 117
11, 8447, Control_c, 6, 7, 116
11, 8448, Control_c, 6, 7, 116
11, 8449, Control_c, 6, 7, 116
11, 8450, Control_c, 6, 74, 53
11, 8450, Control_c, 6, 7, 115
11, 8451, Control_c, 6, 7, 115
11, 8452, Control_c, 6, 7, 115
11, 8453, Control_c, 6, 7, 114
11, 8454, Control_c, 6, 7, 114
11, 8455, Control_c, 6, 74, 53
11, 8455, Control_c, 6, 7, 114
11, 8456, Control_c, 6, 7, 113
11, 8457, Control_c, 6, 7, 113
11, 8458, Control_c, 6, 7, 113
11, 8459, Control_c, 6, 7, 112
11, 8460, Control_c, 6, 74, 53
11, 8460, Control_c, 6, 7, 112
11, 8461, Control_c, 6, 7, 112
11, 8462, Control_c, 6, 7, 111
11, 8463, Control_c, 6, 7, 111
11, 8464, Control_c, 6, 7, 111
11, 8465, Control_c, 6, 74, 53
11, 8465, Control_c, 6, 7, 111
11, 8466, Control_c, 6, 7, 110
11, 8467, Control_c, 6, 7, 110
11, 8468, Control_c, 6, 7, 110
11, 8469, Control_c, 6, 7, 109
11, 8470, Control_c, 6, 74, 53
11, 8470, Control_c, 6, 7, 109
11, 8471, Control_c, 6, 7, 109
11, 8472, Control_c, 6, 7, 108
11, 8473, Control_c, 6, 7, 108
11, 8474, Control_c, 6, 7, 108
11, 8475, Control_c, 6, 74, 53
11, 8475, Control_c, 6, 7, 107
11, 8476, Control_c, 6, 7, 107
11, 8477, Control_c, 6, 7, 107
11, 8478, Control_c, 6, 7, 106
11, 8479, Control_c, 6, 7, 106
11, 8480, Control_c, 6, 74, 53
11, 8480, Control_c, 6, 7, 106
11, 8481, Control_c, 6, 7, 105
11, 8482, Control_c, 6, 7, 105
11, 8483, Control_c, 6, 7, 105
11, 8484, Control_c, 6, 7, 104
11, 8485, Control_c, 6, 74, 53
11, 8485, Control_c, 6, 7, 104
11, 8486, Control_c, 6, 7, 104
11, 8487, Control_c, 6, 7, 103
11, 8488, Control_c, 6, 7, 103
11, 8489, Control_c, 6, 7, 103
11, 8490, Control_c, 6, 74, 53
11, 8490, Control_c, 6, 7, 102
11, 8491, Control_c, 6, 7, 102
11, 8492, Control_c, 6, 7, 102
11, 8493, Control_c, 6, 7, 101
11, 8494, Control_c, 6, 7, 101
11, 8495, Control_c, 6, 74, 53
11, 8495, Control_c, 6, 7, 101
11, 8496, Control_c, 6, 7, 100
11, 8497, Control_c, 6, 7, 100
11, 8498, Control_c, 6, 7, 100
11, 8499, Control_c, 6, 7, 99
11, 8500, Control_c, 6, 74, 53
11, 8500, Control_c, 6, 7, 99
11, 8501, Control_c, 6, 7, 99
11, 8502, Control_c, 6, 7, 98
11, 8503, Control_c, 6, 7, 98
11, 8504, Control_c, 6, 7, 98
11, 8505, Control_c, 6, 74, 53
11, 8505, Control_c, 6, 7, 98
11, 8506, Control_c, 6, 7, 97
11, 8507, Control_c, 6, 7, 97
11, 8508, Control_c, 6, 7, 97
11, 8509, Control_c, 6, 7, 96
11, 8510, Control_c, 6, 74, 53
11, 8510, Control_c, 6, 7, 96
11, 8511, Control_c, 6, 7, 96
11, 8512, Control_c, 6, 7, 95
11, 8513, Control_c, 6, 7, 95
11, 8514, Control_c, 6, 74, 53
11, 8514, Control_c, 6, 7, 95
11, 8515, Control_c, 6, 7, 94
11, 8516, Control_c, 6, 7, 94
11, 8517, Control_c, 6, 7, 94
11, 8518, Control_c, 6, 7, 93
11, 8519, Control_c, 6, 74, 53
11, 8519, Control_c, 6, 7, 93
11, 8520, Control_c, 6, 7, 93
11, 8521, Control_c, 6, 7, 92
11, 8522, Control_c, 6, 7, 92
11, 8523, Control_c, 6, 7, 92
11, 8524, Control_c, 6, 74, 53
11, 8524, Control_c, 6, 7, 91
11, 8525, Control_c, 6, 7, 91
11, 8526, Control_c, 6, 7, 91
11, 8527, Control_c, 6, 7, 90
11, 8528, Control_c, 6, 7, 90
11, 8529, Control_c, 6, 74, 53
11, 8529, Control_c, 6, 7, 90
11, 8530, Control_c, 6, 7, 89
11, 8531, Control_c, 6, 7, 89
11, 8532, Control_c, 6, 7, 89
11, 8533, Control_c, 6, 7, 88
11, 8534, Control_c, 6, 74, 53
11, 8534, Control_c, 6, 7, 88
11, 8535, Control_c, 6, 7, 88
11, 8536, Control_c, 6, 7, 87
11, 8537, Control_c, 6, 7, 87
11, 8538, Control_c, 6, 7, 87
11, 8539, Control_c, 6, 74, 53
11, 8539, Control_c, 6, 7, 86
11, 8540, Control_c, 6, 7, 86
11, 8541, Control_c, 6, 7, 86
11, 8542, Control_c, 6, 7, 86
11, 8543, Control_c, 6, 7, 85
11, 8544, Control_c, 6, 74, 53
11, 8544, Control_c, 6, 7, 85
11, 8545, Control_c, 6, 7, 85
11, 8546, Control_c, 6, 7, 84
11, 8547, Control_c, 6, 7, 84
11, 8548, Control_c, 6, 7, 84
11, 8549, Control_c, 6, 74, 53
11, 8549, Control_c, 6, 7, 83
11, 8550, Control_c, 6, 7, 83
11, 8551, Control_c, 6, 7, 83
11, 8552, Control_c, 6, 7, 82
11, 8553, Control_c, 6, 7, 82
11, 8554, Control_c, 6, 74, 53
11, 8554, Control_c, 6, 7, 82
11, 8555, Control_c, 6, 7, 81
11, 8556, Control_c, 6, 7, 81
11, 8557, Control_c, 6, 7, 81
11, 8558, Control_c, 6, 7, 80
11, 8559, Control_c, 6, 74, 53
11, 8559, Control_c, 6, 7, 80
11, 8560, Control_c, 6, 7, 80
11, 8561, Control_c, 6, 7, 79
11, 8562, Control_c, 6, 7, 79
11, 8563, Control_c, 6, 7, 79
11, 8564, Control_c, 6, 74, 53
11, 8564, Control_c, 6, 7, 78
11, 8565, Control_c, 6, 7, 78
11, 8566, Control_c, 6, 7, 78
11, 8567, Control_c, 6, 7, 77
11, 8568, Control_c, 6, 7, 77
11, 8569, Control_c, 6, 74, 53
11, 8569, Control_c, 6, 7, 77
11, 8570, Control_c, 6, 7, 76
11, 8571, Control_c, 6, 7, 76
11, 8572, Control_c, 6, 7, 76
11, 8573, Control_c, 6, 7, 75
11, 8574, Control_c, 6, 74, 53
11, 8574, Control_c, 6, 7, 75
11, 8575, Control_c, 6, 7, 75
11, 8576, Control_c, 6, 7, 74
11, 8577, Control_c, 6, 7, 74
11, 8578, Control_c, 6, 7, 74
11, 8579, Control_c, 6, 74, 53
11, 8579, Control_c, 6, 7, 74
11, 8580, Control_c, 6, 7, 73
11, 8581, Control_c, 6, 7, 73
11, 8582, Control_c, 6, 7, 73
11, 8583, Control_c, 6, 7, 72
11, 8584, Control_c, 6, 74, 53
11, 8584, Control_c, 6, 7, 72
11, 8585, Control_c, 6, 7, 72
11, 8586, Control_c, 6, 7, 71
11, 8587, Control_c, 6, 7, 71
11, 8588, Control_c, 6, 7, 71
11, 8589, Control_c, 6, 74, 53
11, 8589, Control_c, 6, 7, 70
11, 8590, Control_c, 6, 7, 70
11, 8591, Control_c, 6, 7, 70
11, 8592, Control_c, 6, 7, 69
11, 8593, Control_c, 6, 7, 69
11, 8594, Control_c, 6, 74, 53
11, 8594, Control_c, 6, 7, 69
11, 8595, Control_c, 6, 7, 68
11, 8596, Control_c, 6, 7, 68
11, 8597, Control_c, 6, 7, 68
11, 8598, Control_c, 6, 7, 67
11, 8599, Control_c, 6, 74, 53
11, 8599, Control_c, 6, 7, 67
11, 8600, Control_c, 6, 7, 67
11, 8601, Control_c, 6, 7, 66
11, 8602, Control_c, 6, 7, 66
11, 8603, Control_c, 6, 7, 66
11, 8604, Control_c, 6, 74, 53
11, 8604, Control_c, 6, 7, 65
11, 8605, Control_c, 6, 7, 65
11, 8606, Control_c, 6, 7, 65
11, 8607, Control_c, 6, 7, 64
11, 8608, Control_c, 6, 74, 53
11, 8608, Control_c, 6, 7, 64
11, 8609, Control_c, 6, 7, 64
11, 8610, Control_c, 6, 7, 63
11, 8611, Control_c, 6, 7, 63
11, 8612, Control_c, 6, 7, 63
11, 8613, Control_c, 6, 74, 53
11, 8613, Control_c, 6, 7, 62
11, 8614, Control_c, 6, 7, 62
11, 8615, Control_c, 6, 7, 62
11, 8616, Control_c, 6, 7, 61
11, 8617, Control_c, 6, 7, 61
11, 8618, Control_c, 6, 74, 53
11, 8618, Control_c, 6, 7, 61
11, 8619, Control_c, 6, 7, 61
11, 8620, Control_c, 6, 7, 60
11, 8621, Control_c, 6, 7, 60
11, 8622, Control_c, 6, 7, 60
11, 8623, Control_c, 6, 74, 53
11, 8623, Control_c, 6, 7, 59
11, 8624, Control_c, 6, 7, 59
11, 8625, Control_c, 6, 7, 59
11, 8626, Control_c, 6, 7, 58
11, 8627, Control_c, 6, 7, 58
11, 8628, Control_c, 6, 74, 53
11, 8628, Control_c, 6, 7, 58
11, 8629, Control_c, 6, 7, 57
11, 8630, Control_c, 6, 7, 57
11, 8631, Control_c, 6, 7, 57
11, 8632, Control_c, 6, 7, 56
11, 8633, Control_c, 6, 74, 53
11, 8633, Control_c, 6, 7, 56
11, 8634, Control_c, 6, 7, 56
11, 8635, Control_c, 6, 7, 55
11, 8636, Control_c, 6, 7, 55
11, 8637, Control_c, 6, 7, 55
11, 8638, Control_c, 6, 74, 53
11, 8638, Control_c, 6, 7, 54
11, 8639, Control_c, 6, 7, 54
11, 8640, Control_c, 6, 7, 54
11, 8641, Control_c, 6, 7, 53
11, 8642, Control_c, 6, 7, 53
11, 8643, Control_c, 6, 74, 53
11, 8643, Control_c, 6, 7, 53
11, 8644, Control_c, 6, 7, 52
11, 8645, Control_c, 6, 7, 52
11, 8646, Control_c, 6, 7, 52
11, 8647, Control_c, 6, 7, 51
11, 8648, Control_c, 6, 74, 53
11, 8648, Control_c, 6, 7, 51
11, 8649, Control_c, 6, 7, 51
11, 8650, Control_c, 6, 7, 50
11, 8651, Control_c, 6, 7, 50
11, 8652, Control_c, 6, 7, 50
11, 8653, Control_c, 6, 74, 53
11, 8653, Control_c, 6, 7, 49
11, 8654, Control_c, 6, 7, 49
11, 8655, Control_c, 6, 7, 49
11, 8656, Control_c, 6, 7, 49
11, 8657, Control_c, 6, 7, 48
11, 8658, Control_c, 6, 74, 53
11, 8658, Control_c, 6, 7, 48
11, 8659, Control_c, 6, 7, 48
11, 8660, Control_c, 6, 7, 47
11, 8661, Control_c, 6, 7, 47
11, 8662, Control_c, 6, 7, 47
11, 8663, Control_c, 6, 74, 53
11, 8663, Control_c, 6, 7, 46
11, 8664, Control_c, 6, 7, 46
11, 8665, Control_c, 6, 7, 46
11, 8666, Control_c, 6, 7, 45
11, 8667, Control_c, 6, 7, 45
11, 8668, Control_c, 6, 74, 53
11, 8668, Control_c, 6, 7, 45
11, 8669, Control_c, 6, 7, 44
11, 8670, Control_c, 6, 7, 44
11, 8671, Control_c, 6, 7, 44
11, 8672, Control_c, 6, 7, 43
11, 8673, Control_c, 6, 74, 53
11, 8673, Control_c, 6, 7, 43
11, 8674, Control_c, 6, 7, 43
11, 8675, Control_c, 6, 7, 42
11, 8676, Control_c, 6, 7, 42
11, 8677, Control_c, 6, 7, 42
11, 8678, Control_c, 6, 74, 53
11, 8678, Control_c, 6, 7, 41
11, 8679, Control_c, 6, 7, 41
11, 8680, Control_c, 6, 7, 41
11, 8681, Control_c, 6, 7, 40
11, 8682, Control_c, 6, 7, 40
11, 8683, Control_c, 6, 74, 53
11, 8683, Control_c, 6, 7, 40
11, 8684, Control_c, 6, 7, 39
11, 8685, Control_c, 6, 7, 39
11, 8686, Control_c, 6, 7, 39
11, 8687, Control_c, 6, 7, 38
11, 8688, Control_c, 6, 74, 54
11, 8688, Control_c, 6, 7, 38
11, 8689, Control_c, 6, 7, 38
11, 8690, Control_c, 6, 7, 37
11, 8691, Control_c, 6, 7, 37
11, 8692, Control_c, 6, 7, 37
11, 8693, Control_c, 6, 74, 54
11, 8693, Control_c, 6, 7, 37
11, 8694, Control_c, 6, 7, 36
11, 8695, Control_c, 6, 7, 36
11, 8696, Control_c, 6, 7, 36
11, 8697, Control_c, 6, 74, 54
11, 8697, Control_c, 6, 7, 35
11, 8698, Control_c, 6, 7, 35
11, 8699, Control_c, 6, 7, 35
11, 8700, Control_c, 6, 7, 34
11, 8701, Control_c, 6, 7, 34
11, 8702, Control_c, 6, 74, 54
11, 8702, Control_c, 6, 7, 34
11, 8703, Control_c, 6, 7, 33
11, 8704, Control_c, 6, 7, 33
11, 8705, Control_c, 6, 7, 33
11, 8706, Control_c, 6, 7, 32
11, 8707, Control_c, 6, 74, 54
11, 8707, Control_c, 6, 7, 32
11, 8708, Control_c, 6, 7, 32
11, 8709, Control_c, 6, 7, 31
11, 8710, Control_c, 6, 7, 31
11, 8711, Control_c, 6, 7, 31
11, 8712, Control_c, 6, 74, 54
11, 8712, Control_c, 6, 7, 30
11, 8713, Control_c, 6, 7, 30
11, 8714, Control_c, 6, 7, 30
11, 8715, Control_c, 6, 7, 29
11, 8716, Control_c, 6, 7, 29
11, 8717, Control_c, 6, 74, 54
11, 8717, Control_c, 6, 7, 29
11, 8718, Control_c, 6, 7, 28
11, 8719, Control_c, 6, 7, 28
11, 8720, Control_c, 6, 7, 28
11, 8721, Control_c, 6, 7, 27
11, 8722, Control_c, 6, 74, 54
11, 8722, Control_c, 6, 7, 27
11, 8723, Control_c, 6, 7, 27
11, 8724, Control_c, 6, 7, 26
11, 8725, Control_c, 6, 7, 26
11, 8726, Control_c, 6, 7, 26
11, 8727, Control_c, 6, 74, 54
11, 8727, Control_c, 6, 7, 25
11, 8728, Control_c, 6, 7, 25
11, 8729, Control_c, 6, 7, 25
11, 8730, Control_c, 6, 7, 24
11, 8731, Control_c, 6, 7, 24
11, 8732, Control_c, 6, 74, 54
11, 8732, Control_c, 6, 7, 24
11, 8733, Control_c, 6, 7, 24
11, 8734, Control_c, 6, 7, 23
11, 8735, Control_c, 6, 7, 23
11, 8736, Control_c, 6, 7, 23
11, 8737, Control_c, 6, 74, 54
11, 8737, Control_c, 6, 7, 22
11, 8738, Control_c, 6, 7, 22
11, 8739, Control_c, 6, 7, 22
11, 8740, Control_c, 6, 7, 21
11, 8741, Control_c, 6, 7, 21
11, 8742, Control_c, 6, 74, 54
11, 8742, Control_c, 6, 7, 21
11, 8743, Control_c, 6, 7, 20
11, 8744, Control_c, 6, 7, 20
11, 8745, Control_c, 6, 7, 20
11, 8746, Control_c, 6, 7, 19
11, 8747, Control_c, 6, 74, 54
11, 8747, Control_c, 6, 7, 19
11, 8748, Control_c, 6, 7, 19
11, 8749, Control_c, 6, 7, 18
11, 8750, Control_c, 6, 7, 18
11, 8751, Control_c, 6, 7, 18
11, 8752, Control_c, 6, 74, 54
11, 8752, Control_c, 6, 7, 17
11, 8753, Control_c, 6, 7, 17
11, 8754, Control_c, 6, 7, 17
11, 8755, Control_c, 6, 7, 16
11, 8756, Control_c, 6, 7, 16
11, 8757, Control_c, 6, 74, 54
11, 8757, Control_c, 6, 7, 16
11, 8758, Control_c, 6, 7, 15
11, 8759, Control_c, 6, 7, 15
11, 8760, Control_c, 6, 7, 15
11, 8761, Control_c, 6, 7, 14
11, 8762, Control_c, 6, 74, 54
11, 8762, Control_c, 6, 7, 14
11, 8763, Control_c, 6, 7, 14
11, 8764, Control_c, 6, 7, 13
11, 8765, Control_c, 6, 7, 13
11, 8766, Control_c, 6, 7, 13
11, 8767, Control_c, 6, 74, 54
11, 8767, Control_c, 6, 7, 12
11, 8768, Control_c, 6, 7, 12
11, 8769, Control_c, 6, 7, 12
11, 8770, Control_c, 6, 7, 12
11, 8771, Control_c, 6, 7, 11
11, 8772, Control_c, 6, 74, 54
11, 8772, Control_c, 6, 7, 11
11, 8773, Control_c, 6, 7, 11
11, 8774, Control_c, 6, 7, 10
11, 8775, Control_c, 6, 7, 10
11, 8776, Control_c, 6, 7, 10
11, 8777, Control_c, 6, 74, 54
11, 8777, Control_c, 6, 7, 9
11, 8778, Control_c, 6, 7, 9
11, 8779, Control_c, 6, 7, 9
11, 8780, Control_c, 6, 7, 8
11, 8781, Control_c, 6, 7, 8
11, 8782, Control_c, 6, 74, 54
11, 8782, Control_c, 6, 7, 8
11, 8783, Control_c, 6, 7, 7
11, 8784, Control_c, 6, 7, 7
11, 8785, Control_c, 6, 7, 7
11, 8786, Control_c, 6, 7, 6
11, 8787, Control_c, 6, 74, 54
11, 8787, Control_c, 6, 7, 6
11, 8788, Control_c, 6, 7, 6
11, 8789, Control_c, 6, 7, 5
11, 8790, Control_c, 6, 7, 5
11, 8791, Control_c, 6, 74, 54
11, 8791, Control_c, 6, 7, 5
11, 8792, Control_c, 6, 7, 4
11, 8793, Control_c, 6, 7, 4
11, 8794, Control_c, 6, 7, 4
11, 8795, Control_c, 6, 7, 3
11, 8796, Control_c, 6, 74, 54
11, 8796, Control_c, 6, 7, 3
11, 8797, Control_c, 6, 7, 3
11, 8798, Control_c, 6, 7, 2
11, 8799, Control_c, 6, 7, 2
11, 8800, Control_c, 6, 7, 2
11, 8801, Control_c, 6, 74, 54
11, 8801, Control_c, 6, 7, 1
11, 8802, Control_c, 6, 7, 1
11, 8803, Control_c, 6, 7, 1
11, 8804, Control_c, 6, 7, 0
11, 8805, Control_c, 6, 7, 0
11, 8806, Control_c, 6, 74, 54
11, 8806, Control_c, 6, 7, 0
11, 8807, Control_c, 6, 7, 0
11, 8808, Note_off_c, 6, 96, 64
11, 8811, Control_c, 6, 74, 54
11, 8816, Control_c, 6, 74, 54
11, 8821, Control_c, 6, 74, 54
11, 8826, Control_c, 6, 74, 54
11, 8831, Control_c, 6, 74, 54
11, 8836, Control_c, 6, 74, 54
11, 8841, Control_c, 6, 74, 54
11, 17664, Note_on_c, 6, 96, 81
11, 17664, Control_c, 6, 7, 127
11, 17664, Control_c, 6, 74, 64
11, 17666, Control_c, 6, 7, 127
11, 17667, Control_c, 6, 7, 127
11, 17668, Control_c, 6, 7, 127
11, 17670, Control_c, 6, 7, 127
11, 17671, Control_c, 6, 7, 127
11, 17672, Control_c, 6, 7, 127
11, 17674, Control_c, 6, 7, 127
11, 17675, Control_c, 6, 7, 127
11, 17676, Control_c, 6, 7, 127
11, 17678, Control_c, 6, 7, 127
11, 17679, Control_c, 6, 7, 127
11, 17680, Control_c, 6, 7, 127
11, 17682, Control_c, 6, 7, 127
11, 17683, Control_c, 6, 7, 127
11, 17684, Control_c, 6, 7, 127
11, 17686, Control_c, 6, 7, 127
11, 17687, Control_c, 6, 7, 127
11, 17688, Control_c, 6, 7, 127
11, 17690, Control_c, 6, 7, 127
11, 17691, Control_c, 6, 7, 127
11, 17692, Control_c, 6, 7, 127
11, 17694, Control_c, 6, 7, 127
11, 17695, Control_c, 6, 7, 127
11, 17696, Control_c, 6, 7, 127
11, 17698, Control_c, 6, 7, 127
11, 17699, Control_c, 6, 7, 127
11, 17700, Control_c, 6, 7, 127
11, 17702, Control_c, 6, 7, 127
11, 17703, Control_c, 6, 7, 127
11, 17704, Control_c, 6, 7, 127
11, 17706, Control_c, 6, 7, 127
11, 17707, Control_c, 6, 7, 127
11, 17708, Control_c, 6, 7, 127
11, 17710, Control_c, 6, 7, 127
11, 17711, Control_c, 6, 7, 127
11, 17712, Control_c, 6, 7, 127
11, 17714, Control_c, 6, 7, 127
11, 17715, Control_c, 6, 7, 127
11, 17716, Control_c, 6, 7, 127
11, 17718, Control_c, 6, 7, 127
11, 17719, Control_c, 6, 7, 127
11, 17720, Control_c, 6, 7, 127
11, 17722, Control_c, 6, 7, 127
11, 17723, Control_c, 6, 7, 127
11, 17724, Control_c, 6, 7, 127
11, 17726, Control_c, 6, 7, 127
11, 17727, Control_c, 6, 7, 127
11, 17728, Control_c, 6, 7, 127
11, 17730, Control_c, 6, 7, 127
11, 17731, Control_c, 6, 7, 127
11, 17732, Control_c, 6, 7, 127
11, 17734, Control_c, 6, 7, 127
11, 17735, Control_c, 6, 7, 127
11, 17736, Control_c, 6, 7, 127
11, 17738, Control_c, 6, 7, 127
11, 17739, Control_c, 6, 7, 127
11, 17740, Control_c, 6, 7, 127
11, 17742, Control_c, 6, 7, 127
11, 17743, Control_c, 6, 7, 127
11, 17744, Control_c, 6, 7, 127
11, 17746, Control_c, 6, 7, 127
11, 17747, Control_c, 6, 7, 127
11, 17748, Control_c, 6, 7, 127
11, 17750, Control_c, 6, 7, 127
11, 17751, Control_c, 6, 7, 127
11, 17752, Control_c, 6, 7, 127
11, 17754, Control_c, 6, 7, 127
11, 17755, Control_c, 6, 7, 127
11, 17756, Control_c, 6, 7, 127
11, 17758, Control_c, 6, 7, 127
11, 17759, Control_c, 6, 7, 127
11, 17760, Control_c, 6, 7, 127
11, 17762, Control_c, 6, 7, 127
11, 17763, Control_c, 6, 7, 127
11, 17764, Control_c, 6, 7, 127
11, 17766, Control_c, 6, 7, 127
11, 17767, Control_c, 6, 7, 127
11, 17768, Control_c, 6, 7, 127
11, 17770, Control_c, 6, 7, 127
11, 17771, Control_c, 6, 7, 127
11, 17772, Control_c, 6, 7, 127
11, 17774, Control_c, 6, 7, 127
11, 17775, Control_c, 6, 7, 127
11, 17776, Control_c, 6, 7, 127
11, 17778, Control_c, 6, 7, 127
11, 17779, Control_c, 6, 7, 127
11, 17780, Control_c, 6, 7, 127
11, 17782, Control_c, 6, 7, 127
11, 17783, Control_c, 6, 7, 127
11, 17784, Control_c, 6, 7, 127
11, 17786, Control_c, 6, 7, 127
11, 17787, Control_c, 6, 7, 127
11, 17788, Control_c, 6, 7, 127
11, 17790, Control_c, 6, 7, 127
11, 17791, Control_c, 6, 7, 127
11, 17792, Control_c, 6, 7, 127
11, 17794, Control_c, 6, 7, 127
11, 17795, Control_c, 6, 7, 127
11, 17796, Control_c, 6, 7, 127
11, 17798, Control_c, 6, 7, 127
11, 17799, Control_c, 6, 7, 127
11, 17800, Control_c, 6, 7, 127
11, 17802, Control_c, 6, 7, 127
11, 17803, Control_c, 6, 7, 127
11, 17804, Control_c, 6, 7, 127
11, 17806, Control_c, 6, 7, 127
11, 17807, Control_c, 6, 7, 127
11, 17808, Control_c, 6, 7, 127
11, 17810, Control_c, 6, 7, 127
11, 17811, Control_c, 6, 7, 127
11, 17812, Control_c, 6, 7, 127
11, 17814, Control_c, 6, 7, 127
11, 17815, Control_c, 6, 7, 127
11, 17816, Control_c, 6, 7, 127
11, 17818, Control_c, 6, 7, 127
11, 17819, Control_c, 6, 7, 127
11, 17820, Control_c, 6, 7, 127
11, 17822, Control_c, 6, 7, 127
11, 17823, Control_c, 6, 7, 127
11, 17824, Control_c, 6, 7, 127
11, 17826, Control_c, 6, 7, 127
11, 17827, Control_c, 6, 7, 127
11, 17828, Control_c, 6, 7, 127
11, 17830, Control_c, 6, 7, 127
11, 17831, Control_c, 6, 7, 127
11, 17832, Control_c, 6, 7, 127
11, 17834, Control_c, 6, 7, 127
11, 17835, Control_c, 6, 7, 127
11, 17837, Control_c, 6, 7, 127
11, 17838, Control_c, 6, 7, 127
11, 17839, Control_c, 6, 7, 127
11, 17841, Control_c, 6, 7, 127
11, 17842, Control_c, 6, 7, 127
11, 17843, Control_c, 6, 7, 127
11, 17845, Control_c, 6, 7, 127
11, 17846, Control_c, 6, 7, 127
11, 17847, Control_c, 6, 7, 127
11, 17849, Control_c, 6, 7, 127
11, 17850, Control_c, 6, 7, 127
11, 17851, Control_c, 6, 7, 127
11, 17853, Control_c, 6, 7, 127
11, 17854, Control_c, 6, 7, 127
11, 17855, Control_c, 6, 7, 127
11, 17856, Control_c, 6, 74, 64
11, 17857, Control_c, 6, 7, 127
11, 17857, Control_c, 6, 74, 64
11, 17858, Control_c, 6, 7, 127
11, 17858, Control_c, 6, 74, 64
11, 17859, Control_c, 6, 7, 127
11, 17859, Control_c, 6, 74, 64
11, 17860, Control_c, 6, 74, 64
11, 17861, Control_c, 6, 7, 127
11, 17861, Control_c, 6, 74, 64
11, 17862, Control_c, 6, 7, 127
11, 17862, Control_c, 6, 74, 64
11, 17863, Control_c, 6, 7, 127
11, 17863, Control_c, 6, 74, 64
11, 17864, Control_c, 6, 74, 64
11, 17865, Control_c, 6, 7, 127
11, 17865, Control_c, 6, 74, 64
11, 17866, Control_c, 6, 7, 127
11, 17866, Control_c, 6, 74, 65
11, 17867, Control_c, 6, 7, 127
11, 17867, Control_c, 6, 74, 65
11, 17868, Control_c, 6, 74, 65
11, 17869, Control_c, 6, 7, 127
11, 17869, Control_c, 6, 74, 65
11, 17870, Control_c, 6, 7, 127
11, 17870, Control_c, 6, 74, 65
11, 17871, Control_c, 6, 7, 127
11, 17871, Control_c, 6, 74, 65
11, 17872, Control_c, 6, 74, 65
11, 17873, Control_c, 6, 7, 127
11, 17873, Control_c, 6, 74, 65
11, 17874, Control_c, 6, 7, 127
11, 17874, Control_c, 6, 74, 65
11, 17875, Control_c, 6, 7, 127
11, 17875, Control_c, 6, 74, 65
11, 17876, Control_c, 6, 74, 65
11, 17877, Control_c, 6, 7, 127
11, 17877, Control_c, 6, 74, 65
11, 17878, Control_c, 6, 7, 127
11, 17878, Control_c, 6, 74, 65
11, 17879, Control_c, 6, 7, 127
11, 17879, Control_c, 6, 74, 65
11, 17880, Control_c, 6, 74, 65
11, 17881, Control_c, 6, 7, 127
11, 17881, Control_c, 6, 74, 65
11, 17882, Control_c, 6, 7, 127
11, 17882, Control_c, 6, 74, 65
11, 17883, Control_c, 6, 7, 127
11, 17883, Control_c, 6, 74, 65
11, 17884, Control_c, 6, 74, 65
11, 17885, Control_c, 6, 7, 127
11, 17885, Control_c, 6, 74, 65
11, 17886, Control_c, 6, 7, 127
11, 17886, Control_c, 6, 74, 65
11, 17887, Control_c, 6, 7, 127
11, 17887, Control_c, 6, 74, 65
11, 17888, Control_c, 6, 74, 66
11, 17889, Control_c, 6, 7, 127
11, 17889, Control_c, 6, 74, 66
11, 17890, Control_c, 6, 7, 127
11, 17890, Control_c, 6, 74, 66
11, 17891, Control_c, 6, 7, 127
11, 17891, Control_c, 6, 74, 66
11, 17892, Control_c, 6, 74, 66
11, 17893, Control_c, 6, 7, 127
11, 17893, Control_c, 6, 74, 66
11, 17894, Control_c, 6, 7, 127
11, 17894, Control_c, 6, 74, 66
11, 17895, Control_c, 6, 7, 127
11, 17895, Control_c, 6, 74, 66
11, 17896, Control_c, 6, 74, 66
11, 17897, Control_c, 6, 7, 127
11, 17897, Control_c, 6, 74, 66
11, 17898, Control_c, 6, 7, 127
11, 17898, Control_c, 6, 74, 66
11, 17899, Control_c, 6, 7, 127
11, 17899, Control_c, 6, 74, 66
11, 17900, Control_c, 6, 74, 66
11, 17901, Control_c, 6, 7, 127
11, 17901, Control_c, 6, 74, 66
11, 17902, Control_c, 6, 7, 127
11, 17902, Control_c, 6, 74, 66
11, 17903, Control_c, 6, 7, 127
11, 17903, Control_c, 6, 74, 66
11, 17904, Control_c, 6, 74, 66
11, 17905, Control_c, 6, 7, 127
11, 17905, Control_c, 6, 74, 66
11, 17906, Control_c, 6, 7, 127
11, 17906, Control_c, 6, 74, 66
11, 17907, Control_c, 6, 7, 127
11, 17907, Control_c, 6, 74, 66
11, 17908, Control_c, 6, 74, 66
11, 17909, Control_c, 6, 7, 127
11, 17909, Control_c, 6, 74, 66
11, 17910, Control_c, 6, 7, 127
11, 17910, Control_c, 6, 74, 67
11, 17911, Control_c, 6, 7, 127
11, 17911, Control_c, 6, 74, 67
11, 17912, Control_c, 6, 74, 67
11, 17913, Control_c, 6, 7, 127
11, 17913, Control_c, 6, 74, 67
11, 17914, Control_c, 6, 7, 127
11, 17914, Control_c, 6, 74, 67
11, 17915, Control_c, 6, 7, 127
11, 17915, Control_c, 6, 74, 67
11, 17916, Control_c, 6, 74, 67
11, 17917, Control_c, 6, 7, 127
11, 17917, Control_c, 6, 74, 67
11, 17918, Control_c, 6, 7, 127
11, 17918, Control_c, 6, 74, 67
11, 17919, Control_c, 6, 7, 127
11, 17919, Control_c, 6, 74, 67
11, 17920, Control_c, 6, 74, 67
11, 17921, Control_c, 6, 7, 127
11, 17921, Control_c, 6, 74, 67
11, 17922, Control_c, 6, 7, 127
11, 17922, Control_c, 6, 74, 67
11, 17923, Control_c, 6, 7, 127
11, 17923, Control_c, 6, 74, 67
11, 17924, Control_c, 6, 74, 67
11, 17925, Control_c, 6, 7, 127
11, 17925, Control_c, 6, 74, 67
11, 17926, Control_c, 6, 7, 127
11, 17926, Control_c, 6, 74, 67
11, 17927, Control_c, 6, 7, 127
11, 17927, Control_c, 6, 74, 67
11, 17928, Control_c, 6, 74, 67
11, 17929, Control_c, 6, 7, 127
11, 17929, Control_c, 6, 74, 67
11, 17930, Control_c, 6, 7, 127
11, 17930, Control_c, 6, 74, 67
11, 17931, Control_c, 6, 7, 127
11, 17931, Control_c, 6, 74, 67
11, 17932, Control_c, 6, 74, 68
11, 17933, Control_c, 6, 7, 127
11, 17933, Control_c, 6, 74, 68
11, 17934, Control_c, 6, 7, 127
11, 17934, Control_c, 6, 74, 68
11, 17935, Control_c, 6, 7, 127
11, 17935, Control_c, 6, 74, 68
11, 17936, Control_c, 6, 74, 68
11, 17937, Control_c, 6, 7, 127
11, 17937, Control_c, 6, 74, 68
11, 17938, Control_c, 6, 7, 127
11, 17938, Control_c, 6, 74, 68
11, 17939, Control_c, 6, 7, 127
11, 17939, Control_c, 6, 74, 68
11, 17940, Control_c, 6, 74, 68
11, 17941, Control_c, 6, 7, 127
11, 17941, Control_c, 6, 74, 68
11, 17942, Control_c, 6, 7, 127
11, 17942, Control_c, 6, 74, 68
11, 17943, Control_c, 6, 7, 127
11, 17943, Control_c, 6, 74, 68
11, 17944, Control_c, 6, 74, 68
11, 17945, Control_c, 6, 7, 127
11, 17945, Control_c, 6, 74, 68
11, 17946, Control_c, 6, 7, 127
11, 17946, Control_c, 6, 74, 68
11, 17947, Control_c, 6, 7, 127
11, 17947, Control_c, 6, 74, 68
11, 17948, Control_c, 6, 74, 68
11, 17949, Control_c, 6, 7, 127
11, 17949, Control_c, 6, 74, 68
11, 17950, Control_c, 6, 7, 127
11, 17950, Control_c, 6, 74, 68
11, 17951, Control_c, 6, 7, 127
11, 17951, Control_c, 6, 74, 68
11, 17952, Control_c, 6, 74, 68
11, 17953, Control_c, 6, 7, 127
11, 17953, Control_c, 6, 74, 69
11, 17954, Control_c, 6, 7, 127
11, 17954, Control_c, 6, 74, 69
11, 17955, Control_c, 6, 7, 127
11, 17955, Control_c, 6, 74, 69
11, 17956, Control_c, 6, 74, 69
11, 17957, Control_c, 6, 7, 127
11, 17957, Control_c, 6, 74, 69
11, 17958, Control_c, 6, 7, 127
11, 17958, Control_c, 6, 74, 69
11, 17959, Control_c, 6, 7, 127
11, 17959, Control_c, 6, 74, 69
11, 17960, Control_c, 6, 74, 69
11, 17961, Control_c, 6, 7, 127
11, 17961, Control_c, 6, 74, 69
11, 17962, Control_c, 6, 7, 127
11, 17962, Control_c, 6, 74, 69
11, 17963, Control_c, 6, 7, 127
11, 17963, Control_c, 6, 74, 69
11, 17964, Control_c, 6, 74, 69
11, 17965, Control_c, 6, 7, 127
11, 17965, Control_c, 6, 74, 69
11, 17966, Control_c, 6, 7, 127
11, 17966, Control_c, 6, 74, 69
11, 17967, Control_c, 6, 7, 127
11, 17967, Control_c, 6, 74, 69
11, 17968, Control_c, 6, 74, 69
11, 17969, Control_c, 6, 7, 127
11, 17969, Control_c, 6, 74, 69
11, 17970, Control_c, 6, 7, 127
11, 17970, Control_c, 6, 74, 69
11, 17971, Control_c, 6, 7, 127
11, 17971, Control_c, 6, 74, 69
11, 17972, Control_c, 6, 74, 69
11, 17973, Control_c, 6, 7, 127
11, 17973, Control_c, 6, 74, 69
11, 17974, Control_c, 6, 7, 127
11, 17974, Control_c, 6, 74, 69
11, 17975, Control_c, 6, 7, 127
11, 17975, Control_c, 6, 74, 70
11, 17976, Control_c, 6, 74, 70
11, 17977, Control_c, 6, 7, 127
11, 17977, Control_c, 6, 74, 70
11, 17978, Control_c, 6, 7, 127
11, 17978, Control_c, 6, 74, 70
11, 17979, Control_c, 6, 7, 127
11, 17979, Control_c, 6, 74, 70
11, 17980, Control_c, 6, 74, 70
11, 17981, Control_c, 6, 7, 127
11, 17981, Control_c, 6, 74, 70
11, 17982, Control_c, 6, 7, 127
11, 17982, Control_c, 6, 74, 70
11, 17983, Control_c, 6, 7, 127
11, 17983, Control_c, 6, 74, 70
11, 17984, Control_c, 6, 74, 70
11, 17985, Control_c, 6, 7, 127
11, 17985, Control_c, 6, 74, 70
11, 17986, Control_c, 6, 7, 127
11, 17986, Control_c, 6, 74, 70
11, 17987, Control_c, 6, 7, 127
11, 17987, Control_c, 6, 74, 70
11, 17988, Control_c, 6, 74, 70
11, 17989, Control_c, 6, 7, 127
11, 17989, Control_c, 6, 74, 70
11, 17990, Control_c, 6, 7, 127
11, 17990, Control_c, 6, 74, 70
11, 17991, Control_c, 6, 7, 127
11, 17991, Control_c, 6, 74, 70
11, 17992, Control_c, 6, 74, 70
11, 17993, Control_c, 6, 7, 127
11, 17993, Control_c, 6, 74, 70
11, 17994, Control_c, 6, 7, 127
11, 17994, Control_c, 6, 74, 70
11, 17995, Control_c, 6, 7, 127
11, 17995, Control_c, 6, 74, 70
11, 17996, Control_c, 6, 74, 70
11, 17997, Control_c, 6, 7, 127
11, 17997, Control_c, 6, 74, 71
11, 17998, Control_c, 6, 7, 127
11, 17998, Control_c, 6, 74, 71
11, 17999, Control_c, 6, 7, 127
11, 17999, Control_c, 6, 74, 71
11, 18000, Control_c, 6, 74, 71
11, 18001, Control_c, 6, 7, 127
11, 18001, Control_c, 6, 74, 71
11, 18002, Control_c, 6, 7, 127
11, 18002, Control_c, 6, 74, 71
11, 18003, Control_c, 6, 7, 127
11, 18003, Control_c, 6, 74, 71
11, 18004, Control_c, 6, 74, 71
11, 18005, Control_c, 6, 7, 127
11, 18005, Control_c, 6, 74, 71
11, 18006, Control_c, 6, 7, 127
11, 18006, Control_c, 6, 74, 71
11, 18007, Control_c, 6, 74, 71
11, 18008, Control_c, 6, 7, 127
11, 18008, Control_c, 6, 74, 71
11, 18009, Control_c, 6, 7, 127
11, 18009, Control_c, 6, 74, 71
11, 18010, Control_c, 6, 7, 127
11, 18010, Control_c, 6, 74, 71
11, 18011, Control_c, 6, 74, 71
11, 18012, Control_c, 6, 7, 127
11, 18012, Control_c, 6, 74, 71
11, 18013, Control_c, 6, 7, 127
11, 18013, Control_c, 6, 74, 71
11, 18014, Control_c, 6, 7, 127
11, 18014, Control_c, 6, 74, 71
11, 18015, Control_c, 6, 74, 71
11, 18016, Control_c, 6, 7, 127
11, 18016, Control_c, 6, 74, 71
11, 18017, Control_c, 6, 7, 127
11, 18017, Control_c, 6, 74, 71
11, 18018, Control_c, 6, 7, 127
11, 18018, Control_c, 6, 74, 71
11, 18019, Control_c, 6, 74, 72
11, 18020, Control_c, 6, 7, 127
11, 18020, Control_c, 6, 74, 72
11, 18021, Control_c, 6, 7, 127
11, 18021, Control_c, 6, 74, 72
11, 18022, Control_c, 6, 7, 127
11, 18022, Control_c, 6, 74, 72
11, 18023, Control_c, 6, 74, 72
11, 18024, Control_c, 6, 7, 127
11, 18024, Control_c, 6, 74, 72
11, 18025, Control_c, 6, 7, 127
11, 18025, Control_c, 6, 74, 72
11, 18026, Control_c, 6, 7, 127
11, 18026, Control_c, 6, 74, 72
11, 18027, Control_c, 6, 74, 72
11, 18028, Control_c, 6, 7, 127
11, 18028, Control_c, 6, 74, 72
11, 18029, Control_c, 6, 7, 127
11, 18029, Control_c, 6, 74, 72
11, 18030, Control_c, 6, 7, 127
11, 18030, Control_c, 6, 74, 72
11, 18031, Control_c, 6, 74, 72
11, 18032, Control_c, 6, 7, 127
11, 18032, Control_c, 6, 74, 72
11, 18033, Control_c, 6, 7, 127
11, 18033, Control_c, 6, 74, 72
11, 18034, Control_c, 6, 7, 127
11, 18034, Control_c, 6, 74, 72
11, 18035, Control_c, 6, 74, 72
11, 18036, Control_c, 6, 7, 127
11, 18036, Control_c, 6, 74, 72
11, 18037, Control_c, 6, 7, 127
11, 18037, Control_c, 6, 74, 72
11, 18038, Control_c, 6, 7, 127
11, 18038, Control_c, 6, 74, 72
11, 18039, Control_c, 6, 74, 72
11, 18040, Control_c, 6, 7, 127
11, 18040, Control_c, 6, 74, 72
11, 18041, Control_c, 6, 7, 127
11, 18041, Control_c, 6, 74, 73
11, 18042, Control_c, 6, 7, 127
11, 18042, Control_c, 6, 74, 73
11, 18043, Control_c, 6, 74, 73
11, 18044, Control_c, 6, 7, 127
11, 18044, Control_c, 6, 74, 73
11, 18045, Control_c, 6, 7, 127
11, 18045, Control_c, 6, 74, 73
11, 18046, Control_c, 6, 7, 127
11, 18046, Control_c, 6, 74, 73
11, 18047, Control_c, 6, 74, 73
11, 18048, Control_c, 6, 7, 127
11, 18048, Control_c, 6, 74, 73
11, 18049, Control_c, 6, 7, 127
11, 18049, Control_c, 6, 74, 73
11, 18050, Control_c, 6, 7, 127
11, 18050, Control_c, 6, 74, 73
11, 18051, Control_c, 6, 74, 73
11, 18052, Control_c, 6, 7, 127
11, 18052, Control_c, 6, 74, 73
11, 18053, Control_c, 6, 7, 127
11, 18053, Control_c, 6, 74, 73
11, 18054, Control_c, 6, 7, 127
11, 18054, Control_c, 6, 74, 73
11, 18055, Control_c, 6, 74, 73
11, 18056, Control_c, 6, 7, 127
11, 18056, Control_c, 6, 74, 73
11, 18057, Control_c, 6, 7, 127
11, 18057, Control_c, 6, 74, 73
11, 18058, Control_c, 6, 7, 127
11, 18058, Control_c, 6, 74, 73
11, 18059, Control_c, 6, 74, 73
11, 18060, Control_c, 6, 7, 127
11, 18060, Control_c, 6, 74, 73
11, 18061, Control_c, 6, 7, 127
11, 18061, Control_c, 6, 74, 73
11, 18062, Control_c, 6, 7, 127
11, 18062, Control_c, 6, 74, 74
11, 18063, Control_c, 6, 74, 74
11, 18064, Control_c, 6, 7, 127
11, 18064, Control_c, 6, 74, 74
11, 18065, Control_c, 6, 7, 127
11, 18065, Control_c, 6, 74, 74
11, 18066, Control_c, 6, 7, 127
11, 18066, Control_c, 6, 74, 74
11, 18067, Control_c, 6, 74, 74
11, 18068, Control_c, 6, 7, 127
11, 18068, Control_c, 6, 74, 74
11, 18069, Control_c, 6, 7, 127
11, 18069, Control_c, 6, 74, 74
11, 18070, Control_c, 6, 7, 127
11, 18070, Control_c, 6, 74, 74
11, 18071, Control_c, 6, 74, 74
11, 18072, Control_c, 6, 7, 127
11, 18072, Control_c, 6, 74, 74
11, 18073, Control_c, 6, 7, 127
11, 18073, Control_c, 6, 74, 74
11, 18074, Control_c, 6, 7, 127
11, 18074, Control_c, 6, 74, 74
11, 18075, Control_c, 6, 74, 74
11, 18076, Control_c, 6, 7, 127
11, 18076, Control_c, 6, 74, 74
11, 18077, Control_c, 6, 7, 127
11, 18077, Control_c, 6, 74, 74
11, 18078, Control_c, 6, 7, 127
11, 18078, Control_c, 6, 74, 74
11, 18079, Control_c, 6, 74, 74
11, 18080, Control_c, 6, 7, 127
11, 18080, Control_c, 6, 74, 74
11, 18081, Control_c, 6, 7, 127
11, 18081, Control_c, 6, 74, 74
11, 18082, Control_c, 6, 7, 127
11, 18082, Control_c, 6, 74, 74
11, 18083, Control_c, 6, 74, 74
11, 18084, Control_c, 6, 7, 127
11, 18084, Control_c, 6, 74, 75
11, 18085, Control_c, 6, 7, 127
11, 18085, Control_c, 6, 74, 75
11, 18086, Control_c, 6, 7, 127
11, 18086, Control_c, 6, 74, 75
11, 18087, Control_c, 6, 74, 75
11, 18088, Control_c, 6, 7, 127
11, 18088, Control_c, 6, 74, 75
11, 18089, Control_c, 6, 7, 127
11, 18089, Control_c, 6, 74, 75
11, 18090, Control_c, 6, 7, 127
11, 18090, Control_c, 6, 74, 75
11, 18091, Control_c, 6, 74, 75
11, 18092, Control_c, 6, 7, 127
11, 18092, Control_c, 6, 74, 75
11, 18093, Control_c, 6, 7, 127
11, 18093, Control_c, 6, 74, 75
11, 18094, Control_c, 6, 7, 127
11, 18094, Control_c, 6, 74, 75
11, 18095, Control_c, 6, 74, 75
11, 18096, Control_c, 6, 7, 127
11, 18096, Control_c, 6, 74, 75
11, 18097, Control_c, 6, 7, 127
11, 18097, Control_c, 6, 74, 75
11, 18098, Control_c, 6, 7, 127
11, 18098, Control_c, 6, 74, 75
11, 18099, Control_c, 6, 74, 75
11, 18100, Control_c, 6, 7, 127
11, 18100, Control_c, 6, 74, 75
11, 18101, Control_c, 6, 7, 127
11, 18101, Control_c, 6, 74, 75
11, 18102, Control_c, 6, 7, 127
11, 18102, Control_c, 6, 74, 75
11, 18103, Control_c, 6, 74, 75
11, 18104, Control_c, 6, 7, 127
11, 18104, Control_c, 6, 74, 75
11, 18105, Control_c, 6, 7, 127
11, 18105, Control_c, 6, 74, 75
11, 18106, Control_c, 6, 7, 127
11, 18106, Control_c, 6, 74, 76
11, 18107, Control_c, 6, 74, 76
11, 18108, Control_c, 6, 7, 127
11, 18108, Control_c, 6, 74, 76
11, 18109, Control_c, 6, 7, 127
11, 18109, Control_c, 6, 74, 76
11, 18110, Control_c, 6, 7, 127
11, 18110, Control_c, 6, 74, 76
11, 18111, Control_c, 6, 74, 76
11, 18112, Control_c, 6, 7, 127
11, 18112, Control_c, 6, 74, 76
11, 18113, Control_c, 6, 7, 127
11, 18113, Control_c, 6, 74, 76
11, 18114, Control_c, 6, 7, 127
11, 18114, Control_c, 6, 74, 76
11, 18115, Control_c, 6, 74, 76
11, 18116, Control_c, 6, 7, 127
11, 18116, Control_c, 6, 74, 76
11, 18117, Control_c, 6, 7, 127
11, 18117, Control_c, 6, 74, 76
11, 18118, Control_c, 6, 7, 127
11, 18118, Control_c, 6, 74, 76
11, 18119, Control_c, 6, 74, 76
11, 18120, Control_c, 6, 7, 127
11, 18120, Control_c, 6, 74, 76
11, 18121, Control_c, 6, 7, 127
11, 18121, Control_c, 6, 74, 76
11, 18122, Control_c, 6, 7, 127
11, 18122, Control_c, 6, 74, 76
11, 18123, Control_c, 6, 74, 76
11, 18124, Control_c, 6, 7, 127
11, 18124, Control_c, 6, 74, 76
11, 18125, Control_c, 6, 7, 127
11, 18125, Control_c, 6, 74, 76
11, 18126, Control_c, 6, 7, 127
11, 18126, Control_c, 6, 74, 76
11, 18127, Control_c, 6, 74, 76
11, 18128, Control_c, 6, 7, 127
11, 18128, Control_c, 6, 74, 77
11, 18129, Control_c, 6, 7, 127
11, 18129, Control_c, 6, 74, 77
11, 18130, Control_c, 6, 7, 127
11, 18130, Control_c, 6, 74, 77
11, 18131, Control_c, 6, 74, 77
11, 18132, Control_c, 6, 7, 127
11, 18132, Control_c, 6, 74, 77
11, 18133, Control_c, 6, 7, 127
11, 18133, Control_c, 6, 74, 77
11, 18134, Control_c, 6, 7, 127
11, 18134, Control_c, 6, 74, 77
11, 18135, Control_c, 6, 74, 77
11, 18136, Control_c, 6, 7, 127
11, 18136, Control_c, 6, 74, 77
11, 18137, Control_c, 6, 7, 127
11, 18137, Control_c, 6, 74, 77
11, 18138, Control_c, 6, 7, 127
11, 18138, Control_c, 6, 74, 77
11, 18139, Control_c, 6, 74, 77
11, 18140, Control_c, 6, 7, 127
11, 18140, Control_c, 6, 74, 77
11, 18141, Control_c, 6, 7, 127
11, 18141, Control_c, 6, 74, 77
11, 18142, Control_c, 6, 7, 127
11, 18142, Control_c, 6, 74, 77
11, 18143, Control_c, 6, 74, 77
11, 18144, Control_c, 6, 7, 127
11, 18144, Control_c, 6, 74, 77
11, 18145, Control_c, 6, 7, 127
11, 18145, Control_c, 6, 74, 77
11, 18146, Control_c, 6, 7, 127
11, 18146, Control_c, 6, 74, 77
11, 18147, Control_c, 6, 74, 77
11, 18148, Control_c, 6, 7, 127
11, 18148, Control_c, 6, 74, 77
11, 18149, Control_c, 6, 7, 127
11, 18149, Control_c, 6, 74, 78
11, 18150, Control_c, 6, 7, 127
11, 18150, Control_c, 6, 74, 78
11, 18151, Control_c, 6, 74, 78
11, 18152, Control_c, 6, 7, 127
11, 18152, Control_c, 6, 74, 78
11, 18153, Control_c, 6, 7, 127
11, 18153, Control_c, 6, 74, 78
11, 18154, Control_c, 6, 7, 127
11, 18154, Control_c, 6, 74, 78
11, 18155, Control_c, 6, 74, 78
11, 18156, Control_c, 6, 7, 127
11, 18156, Control_c, 6, 74, 78
11, 18157, Control_c, 6, 7, 127
11, 18157, Control_c, 6, 74, 78
11, 18158, Control_c, 6, 7, 127
11, 18158, Control_c, 6, 74, 78
11, 18159, Control_c, 6, 74, 78
11, 18160, Control_c, 6, 7, 127
11, 18160, Control_c, 6, 74, 78
11, 18161, Control_c, 6, 7, 127
11, 18161, Control_c, 6, 74, 78
11, 18162, Control_c, 6, 7, 127
11, 18162, Control_c, 6, 74, 78
11, 18163, Control_c, 6, 74, 78
11, 18164, Control_c, 6, 7, 127
11, 18164, Control_c, 6, 74, 78
11, 18165, Control_c, 6, 7, 127
11, 18165, Control_c, 6, 74, 78
11, 18166, Control_c, 6, 7, 127
11, 18166, Control_c, 6, 74, 78
11, 18167, Control_c, 6, 74, 78
11, 18168, Control_c, 6, 7, 127
11, 18168, Control_c, 6, 74, 78
11, 18169, Control_c, 6, 7, 127
11, 18169, Control_c, 6, 74, 78
11, 18170, Control_c, 6, 7, 127
11, 18170, Control_c, 6, 74, 78
11, 18171, Control_c, 6, 74, 79
11, 18172, Control_c, 6, 7, 127
11, 18172, Control_c, 6, 74, 79
11, 18173, Control_c, 6, 7, 127
11, 18173, Control_c, 6, 74, 79
11, 18174, Control_c, 6, 7, 127
11, 18174, Control_c, 6, 74, 79
11, 18175, Control_c, 6, 74, 79
11, 18176, Control_c, 6, 7, 127
11, 18176, Control_c, 6, 74, 79
11, 18177, Control_c, 6, 7, 127
11, 18177, Control_c, 6, 74, 79
11, 18178, Control_c, 6, 74, 79
11, 18179, Control_c, 6, 7, 127
11, 18179, Control_c, 6, 74, 79
11, 18180, Control_c, 6, 7, 127
11, 18180, Control_c, 6, 74, 79
11, 18181, Control_c, 6, 7, 127
11, 18181, Control_c, 6, 74, 79
11, 18182, Control_c, 6, 74, 79
11, 18183, Control_c, 6, 7, 127
11, 18183, Control_c, 6, 74, 79
11, 18184, Control_c, 6, 7, 127
11, 18184, Control_c, 6, 74, 79
11, 18185, Control_c, 6, 7, 127
11, 18185, Control_c, 6, 74, 79
11, 18186, Control_c, 6, 74, 79
11, 18187, Control_c, 6, 7, 127
11, 18187, Control_c, 6, 74, 79
11, 18188, Control_c, 6, 7, 127
11, 18188, Control_c, 6, 74, 79
11, 18189, Control_c, 6, 7, 127
11, 18189, Control_c, 6, 74, 79
11, 18190, Control_c, 6, 74, 79
11, 18191, Control_c, 6, 7, 127
11, 18191, Control_c, 6, 74, 79
11, 18192, Control_c, 6, 7, 127
11, 18192, Control_c, 6, 74, 79
11, 18193, Control_c, 6, 7, 127
11, 18193, Control_c, 6, 74, 80
11, 18194, Control_c, 6, 74, 80
11, 18195, Control_c, 6, 7, 127
11, 18195, Control_c, 6, 74, 80
11, 18196, Control_c, 6, 7, 127
11, 18196, Control_c, 6, 74, 80
11, 18197, Control_c, 6, 7, 127
11, 18197, Control_c, 6, 74, 80
11, 18198, Control_c, 6, 74, 80
11, 18199, Control_c, 6, 7, 127
11, 18199, Control_c, 6, 74, 80
11, 18200, Control_c, 6, 7, 127
11, 18200, Control_c, 6, 74, 80
11, 18201, Control_c, 6, 7, 127
11, 18201, Control_c, 6, 74, 80
11, 18202, Control_c, 6, 74, 80
11, 18203, Control_c, 6, 7, 127
11, 18203, Control_c, 6, 74, 80
11, 18204, Control_c, 6, 7, 127
11, 18204, Control_c, 6, 74, 80
11, 18205, Control_c, 6, 7, 127
11, 18205, Control_c, 6, 74, 80
11, 18206, Control_c, 6, 74, 80
11, 18207, Control_c, 6, 7, 127
11, 18207, Control_c, 6, 74, 80
11, 18208, Control_c, 6, 7, 127
11, 18208, Control_c, 6, 74, 80
11, 18209, Control_c, 6, 7, 127
11, 18209, Control_c, 6, 74, 80
11, 18210, Control_c, 6, 74, 80
11, 18211, Control_c, 6, 7, 127
11, 18211, Control_c, 6, 74, 80
11, 18212, Control_c, 6, 7, 127
11, 18212, Control_c, 6, 74, 80
11, 18213, Control_c, 6, 7, 127
11, 18213, Control_c, 6, 74, 80
11, 18214, Control_c, 6, 74, 80
11, 18215, Control_c, 6, 7, 127
11, 18215, Control_c, 6, 74, 81
11, 18216, Control_c, 6, 7, 127
11, 18216, Control_c, 6, 74, 81
11, 18217, Control_c, 6, 7, 127
11, 18217, Control_c, 6, 74, 81
11, 18218, Control_c, 6, 74, 81
11, 18219, Control_c, 6, 7, 127
11, 18219, Control_c, 6, 74, 81
11, 18220, Control_c, 6, 7, 127
11, 18220, Control_c, 6, 74, 81
11, 18221, Control_c, 6, 7, 127
11, 18221, Control_c, 6, 74, 81
11, 18222, Control_c, 6, 74, 81
11, 18223, Control_c, 6, 7, 127
11, 18223, Control_c, 6, 74, 81
11, 18224, Control_c, 6, 7, 127
11, 18224, Control_c, 6, 74, 81
11, 18225, Control_c, 6, 7, 127
11, 18225, Control_c, 6, 74, 81
11, 18226, Control_c, 6, 74, 81
11, 18227, Control_c, 6, 7, 127
11, 18227, Control_c, 6, 74, 81
11, 18228, Control_c, 6, 7, 127
11, 18228, Control_c, 6, 74, 81
11, 18229, Control_c, 6, 7, 127
11, 18229, Control_c, 6, 74, 81
11, 18230, Control_c, 6, 74, 81
11, 18231, Control_c, 6, 7, 127
11, 18231, Control_c, 6, 74, 81
11, 18232, Control_c, 6, 7, 127
11, 18232, Control_c, 6, 74, 81
11, 18233, Control_c, 6, 7, 127
11, 18233, Control_c, 6, 74, 81
11, 18234, Control_c, 6, 74, 81
11, 18235, Control_c, 6, 7, 127
11, 18235, Control_c, 6, 74, 81
11, 18236, Control_c, 6, 7, 127
11, 18236, Control_c, 6, 74, 81
11, 18237, Control_c, 6, 7, 127
11, 18237, Control_c, 6, 74, 82
11, 18238, Control_c, 6, 74, 82
11, 18239, Control_c, 6, 7, 127
11, 18239, Control_c, 6, 74, 82
11, 18240, Control_c, 6, 7, 127
11, 18240, Control_c, 6, 74, 82
11, 18241, Control_c, 6, 7, 127
11, 18241, Control_c, 6, 74, 82
11, 18242, Control_c, 6, 74, 82
11, 18243, Control_c, 6, 7, 127
11, 18243, Control_c, 6, 74, 82
11, 18244, Control_c, 6, 7, 127
11, 18244, Control_c, 6, 74, 82
11, 18245, Control_c, 6, 7, 127
11, 18245, Control_c, 6, 74, 82
11, 18246, Control_c, 6, 74, 82
11, 18247, Control_c, 6, 7, 127
11, 18247, Control_c, 6, 74, 82
11, 18248, Control_c, 6, 7, 127
11, 18248, Control_c, 6, 74, 82
11, 18249, Control_c, 6, 7, 127
11, 18249, Control_c, 6, 74, 82
11, 18250, Control_c, 6, 74, 82
11, 18251, Control_c, 6, 7, 127
11, 18251, Control_c, 6, 74, 82
11, 18252, Control_c, 6, 7, 127
11, 18252, Control_c, 6, 74, 82
11, 18253, Control_c, 6, 7, 127
11, 18253, Control_c, 6, 74, 82
11, 18254, Control_c, 6, 74, 82
11, 18255, Control_c, 6, 7, 127
11, 18255, Control_c, 6, 74, 82
11, 18256, Control_c, 6, 7, 127
11, 18256, Control_c, 6, 74, 82
11, 18257, Control_c, 6, 7, 127
11, 18257, Control_c, 6, 74, 82
11, 18258, Control_c, 6, 74, 83
11, 18259, Control_c, 6, 7, 127
11, 18259, Control_c, 6, 74, 83
11, 18260, Control_c, 6, 7, 127
11, 18260, Control_c, 6, 74, 83
11, 18261, Control_c, 6, 7, 127
11, 18261, Control_c, 6, 74, 83
11, 18262, Control_c, 6, 74, 83
11, 18263, Control_c, 6, 7, 127
11, 18263, Control_c, 6, 74, 83
11, 18264, Control_c, 6, 7, 127
11, 18264, Control_c, 6, 74, 83
11, 18265, Control_c, 6, 7, 127
11, 18265, Control_c, 6, 74, 83
11, 18266, Control_c, 6, 74, 83
11, 18267, Control_c, 6, 7, 127
11, 18267, Control_c, 6, 74, 83
11, 18268, Control_c, 6, 7, 127
11, 18268, Control_c, 6, 74, 83
11, 18269, Control_c, 6, 7, 127
11, 18269, Control_c, 6, 74, 83
11, 18270, Control_c, 6, 74, 83
11, 18271, Control_c, 6, 7, 127
11, 18271, Control_c, 6, 74, 83
11, 18272, Control_c, 6, 7, 127
11, 18272, Control_c, 6, 74, 83
11, 18273, Control_c, 6, 7, 127
11, 18273, Control_c, 6, 74, 83
11, 18274, Control_c, 6, 74, 83
11, 18275, Control_c, 6, 7, 127
11, 18275, Control_c, 6, 74, 83
11, 18276, Control_c, 6, 7, 127
11, 18276, Control_c, 6, 74, 83
11, 18277, Control_c, 6, 7, 127
11, 18277, Control_c, 6, 74, 83
11, 18278, Control_c, 6, 74, 83
11, 18279, Control_c, 6, 7, 127
11, 18279, Control_c, 6, 74, 83
11, 18280, Control_c, 6, 7, 127
11, 18280, Control_c, 6, 74, 84
11, 18281, Control_c, 6, 7, 127
11, 18281, Control_c, 6, 74, 84
11, 18282, Control_c, 6, 74, 84
11, 18283, Control_c, 6, 7, 127
11, 18283, Control_c, 6, 74, 84
11, 18284, Control_c, 6, 7, 127
11, 18284, Control_c, 6, 74, 84
11, 18285, Control_c, 6, 7, 127
11, 18285, Control_c, 6, 74, 84
11, 18286, Control_c, 6, 74, 84
11, 18287, Control_c, 6, 7, 127
11, 18287, Control_c, 6, 74, 84
11, 18288, Control_c, 6, 7, 127
11, 18288, Control_c, 6, 74, 84
11, 18289, Control_c, 6, 7, 127
11, 18289, Control_c, 6, 74, 84
11, 18290, Control_c, 6, 74, 84
11, 18291, Control_c, 6, 7, 127
11, 18291, Control_c, 6, 74, 84
11, 18292, Control_c, 6, 7, 127
11, 18292, Control_c, 6, 74, 84
11, 18293, Control_c, 6, 7, 127
11, 18293, Control_c, 6, 74, 84
11, 18294, Control_c, 6, 74, 84
11, 18295, Control_c, 6, 7, 127
11, 18295, Control_c, 6, 74, 84
11, 18296, Control_c, 6, 7, 127
11, 18296, Control_c, 6, 74, 84
11, 18297, Control_c, 6, 7, 127
11, 18297, Control_c, 6, 74, 84
11, 18298, Control_c, 6, 74, 84
11, 18299, Control_c, 6, 7, 127
11, 18299, Control_c, 6, 74, 84
11, 18300, Control_c, 6, 7, 127
11, 18300, Control_c, 6, 74, 84
11, 18301, Control_c, 6, 7, 127
11, 18301, Control_c, 6, 74, 84
11, 18302, Control_c, 6, 74, 85
11, 18303, Control_c, 6, 7, 127
11, 18303, Control_c, 6, 74, 85
11, 18304, Control_c, 6, 7, 127
11, 18304, Control_c, 6, 74, 85
11, 18305, Control_c, 6, 7, 127
11, 18305, Control_c, 6, 74, 85
11, 18306, Control_c, 6, 74, 85
11, 18307, Control_c, 6, 7, 127
11, 18307, Control_c, 6, 74, 85
11, 18308, Control_c, 6, 7, 127
11, 18308, Control_c, 6, 74, 85
11, 18309, Control_c, 6, 7, 127
11, 18309, Control_c, 6, 74, 85
11, 18310, Control_c, 6, 74, 85
11, 18311, Control_c, 6, 7, 127
11, 18311, Control_c, 6, 74, 85
11, 18312, Control_c, 6, 7, 127
11, 18312, Control_c, 6, 74, 85
11, 18313, Control_c, 6, 7, 127
11, 18313, Control_c, 6, 74, 85
11, 18314, Control_c, 6, 74, 85
11, 18315, Control_c, 6, 7, 127
11, 18315, Control_c, 6, 74, 85
11, 18316, Control_c, 6, 7, 127
11, 18316, Control_c, 6, 74, 85
11, 18317, Control_c, 6, 7, 127
11, 18317, Control_c, 6, 74, 85
11, 18318, Control_c, 6, 74, 85
11, 18319, Control_c, 6, 7, 127
11, 18319, Control_c, 6, 74, 85
11, 18320, Control_c, 6, 7, 127
11, 18320, Control_c, 6, 74, 85
11, 18321, Control_c, 6, 7, 127
11, 18321, Control_c, 6, 74, 85
11, 18322, Control_c, 6, 74, 85
11, 18323, Control_c, 6, 7, 127
11, 18323, Control_c, 6, 74, 85
11, 18324, Control_c, 6, 7, 127
11, 18324, Control_c, 6, 74, 86
11, 18325, Control_c, 6, 7, 127
11, 18325, Control_c, 6, 74, 86
11, 18326, Control_c, 6, 74, 86
11, 18327, Control_c, 6, 7, 127
11, 18327, Control_c, 6, 74, 86
11, 18328, Control_c, 6, 7, 127
11, 18328, Control_c, 6, 74, 86
11, 18329, Control_c, 6, 7, 127
11, 18329, Control_c, 6, 74, 86
11, 18330, Control_c, 6, 74, 86
11, 18331, Control_c, 6, 7, 127
11, 18331, Control_c, 6, 74, 86
11, 18332, Control_c, 6, 7, 127
11, 18332, Control_c, 6, 74, 86
11, 18333, Control_c, 6, 7, 127
11, 18333, Control_c, 6, 74, 86
11, 18334, Control_c, 6, 74, 86
11, 18335, Control_c, 6, 7, 127
11, 18335, Control_c, 6, 74, 86
11, 18336, Control_c, 6, 7, 127
11, 18336, Control_c, 6, 74, 86
11, 18337, Control_c, 6, 7, 127
11, 18337, Control_c, 6, 74, 86
11, 18338, Control_c, 6, 74, 86
11, 18339, Control_c, 6, 7, 127
11, 18339, Control_c, 6, 74, 86
11, 18340, Control_c, 6, 7, 127
11, 18340, Control_c, 6, 74, 86
11, 18341, Control_c, 6, 7, 127
11, 18341, Control_c, 6, 74, 86
11, 18342, Control_c, 6, 74, 86
11, 18343, Control_c, 6, 7, 127
11, 18343, Control_c, 6, 74, 86
11, 18344, Control_c, 6, 7, 127
11, 18344, Control_c, 6, 74, 86
11, 18345, Control_c, 6, 7, 127
11, 18345, Control_c, 6, 74, 87
11, 18346, Control_c, 6, 74, 87
11, 18347, Control_c, 6, 7, 127
11, 18347, Control_c, 6, 74, 87
11, 18348, Control_c, 6, 7, 127
11, 18348, Control_c, 6, 74, 87
11, 18349, Control_c, 6, 74, 87
11, 18350, Control_c, 6, 7, 127
11, 18350, Control_c, 6, 74, 87
11, 18351, Control_c, 6, 7, 126
11, 18351, Control_c, 6, 74, 87
11, 18352, Control_c, 6, 7, 126
11, 18352, Control_c, 6, 74, 87
11, 18353, Control_c, 6, 74, 87
11, 18354, Control_c, 6, 7, 126
11, 18354, Control_c, 6, 74, 87
11, 18355, Control_c, 6, 7, 126
11, 18355, Control_c, 6, 74, 87
11, 18356, Control_c, 6, 7, 126
11, 18356, Control_c, 6, 74, 87
11, 18357, Control_c, 6, 74, 87
11, 18358, Control_c, 6, 7, 126
11, 18358, Control_c, 6, 74, 87
11, 18359, Control_c, 6, 7, 126
11, 18359, Control_c, 6, 74, 87
11, 18360, Control_c, 6, 7, 126
11, 18360, Control_c, 6, 74, 87
11, 18361, Control_c, 6, 74, 87
11, 18362, Control_c, 6, 7, 126
11, 18362, Control_c, 6, 74, 87
11, 18363, Control_c, 6, 7, 126
11, 18363, Control_c, 6, 74, 87
11, 18364, Control_c, 6, 7, 126
11, 18364, Control_c, 6, 74, 87
11, 18365, Control_c, 6, 74, 87
11, 18366, Control_c, 6, 7, 126
11, 18366, Control_c, 6, 74, 87
11, 18367, Control_c, 6, 7, 126
11, 18367, Control_c, 6, 74, 88
11, 18368, Control_c, 6, 7, 126
11, 18368, Control_c, 6, 74, 88
11, 18369, Control_c, 6, 74, 88
11, 18370, Control_c, 6, 7, 126
11, 18370, Control_c, 6, 74, 88
11, 18371, Control_c, 6, 7, 126
11, 18371, Control_c, 6, 74, 88
11, 18372, Control_c, 6, 7, 126
11, 18372, Control_c, 6, 74, 88
11, 18373, Control_c, 6, 74, 88
11, 18374, Control_c, 6, 7, 126
11, 18374, Control_c, 6, 74, 88
11, 18375, Control_c, 6, 7, 126
11, 18375, Control_c, 6, 74, 88
11, 18376, Control_c, 6, 7, 126
11, 18376, Control_c, 6, 74, 88
11, 18377, Control_c, 6, 74, 88
11, 18378, Control_c, 6, 7, 126
11, 18378, Control_c, 6, 74, 88
11, 18379, Control_c, 6, 7, 126
11, 18379, Control_c, 6, 74, 88
11, 18380, Control_c, 6, 7, 126
11, 18380, Control_c, 6, 74, 88
11, 18381, Control_c, 6, 74, 88
11, 18382, Control_c, 6, 7, 126
11, 18382, Control_c, 6, 74, 88
11, 18383, Control_c, 6, 7, 126
11, 18383, Control_c, 6, 74, 88
11, 18384, Control_c, 6, 7, 126
11, 18384, Control_c, 6, 74, 88
11, 18385, Control_c, 6, 74, 88
11, 18386, Control_c, 6, 7, 126
11, 18386, Control_c, 6, 74, 88
11, 18387, Control_c, 6, 7, 126
11, 18387, Control_c, 6, 74, 88
11, 18388, Control_c, 6, 7, 126
11, 18388, Control_c, 6, 74, 88
11, 18389, Control_c, 6, 74, 89
11, 18390, Control_c, 6, 7, 126
11, 18390, Control_c, 6, 74, 89
11, 18391, Control_c, 6, 7, 126
11, 18391, Control_c, 6, 74, 89
11, 18392, Control_c, 6, 7, 126
11, 18392, Control_c, 6, 74, 89
11, 18393, Control_c, 6, 74, 89
11, 18394, Control_c, 6, 7, 126
11, 18394, Control_c, 6, 74, 89
11, 18395, Control_c, 6, 7, 126
11, 18395, Control_c, 6, 74, 89
11, 18396, Control_c, 6, 7, 126
11, 18396, Control_c, 6, 74, 89
11, 18397, Control_c, 6, 74, 89
11, 18398, Control_c, 6, 7, 126
11, 18398, Control_c, 6, 74, 89
11, 18399, Control_c, 6, 7, 126
11, 18399, Control_c, 6, 74, 89
11, 18400, Control_c, 6, 7, 126
11, 18400, Control_c, 6, 74, 89
11, 18401, Control_c, 6, 74, 89
11, 18402, Control_c, 6, 7, 126
11, 18402, Control_c, 6, 74, 89
11, 18403, Control_c, 6, 7, 126
11, 18403, Control_c, 6, 74, 89
11, 18404, Control_c, 6, 7, 126
11, 18404, Control_c, 6, 74, 89
11, 18405, Control_c, 6, 74, 89
11, 18406, Control_c, 6, 7, 126
11, 18406, Control_c, 6, 74, 89
11, 18407, Control_c, 6, 7, 126
11, 18407, Control_c, 6, 74, 89
11, 18408, Control_c, 6, 7, 126
11, 18408, Control_c, 6, 74, 89
11, 18409, Control_c, 6, 74, 89
11, 18410, Control_c, 6, 7, 126
11, 18410, Control_c, 6, 74, 89
11, 18411, Control_c, 6, 7, 126
11, 18411, Control_c, 6, 74, 90
11, 18412, Control_c, 6, 7, 126
11, 18412, Control_c, 6, 74, 90
11, 18413, Control_c, 6, 74, 90
11, 18414, Control_c, 6, 7, 126
11, 18414, Control_c, 6, 74, 90
11, 18415, Control_c, 6, 7, 126
11, 18415, Control_c, 6, 74, 90
11, 18416, Control_c, 6, 7, 126
11, 18416, Control_c, 6, 74, 90
11, 18417, Control_c, 6, 74, 90
11, 18418, Control_c, 6, 7, 126
11, 18418, Control_c, 6, 74, 90
11, 18419, Control_c, 6, 7, 126
11, 18419, Control_c, 6, 74, 90
11, 18420, Control_c, 6, 7, 126
11, 18420, Control_c, 6, 74, 90
11, 18421, Control_c, 6, 74, 90
11, 18422, Control_c, 6, 7, 126
11, 18422, Control_c, 6, 74, 90
11, 18423, Control_c, 6, 7, 126
11, 18423, Control_c, 6, 74, 90
11, 18424, Control_c, 6, 7, 126
11, 18424, Control_c, 6, 74, 90
11, 18425, Control_c, 6, 74, 90
11, 18426, Control_c, 6, 7, 126
11, 18426, Control_c, 6, 74, 90
11, 18427, Control_c, 6, 7, 126
11, 18427, Control_c, 6, 74, 90
11, 18428, Control_c, 6, 7, 126
11, 18428, Control_c, 6, 74, 90
11, 18429, Control_c, 6, 74, 90
11, 18430, Control_c, 6, 7, 126
11, 18430, Control_c, 6, 74, 90
11, 18431, Control_c, 6, 7, 126
11, 18431, Control_c, 6, 74, 90
11, 18432, Control_c, 6, 7, 126
11, 18432, Control_c, 6, 74, 90
11, 18433, Control_c, 6, 74, 90
11, 18434, Control_c, 6, 7, 126
11, 18434, Control_c, 6, 74, 90
11, 18435, Control_c, 6, 7, 126
11, 18435, Control_c, 6, 74, 90
11, 18436, Control_c, 6, 7, 126
11, 18436, Control_c, 6, 74, 90
11, 18437, Control_c, 6, 74, 90
11, 18438, Control_c, 6, 7, 126
11, 18438, Control_c, 6, 74, 90
11, 18439, Control_c, 6, 7, 126
11, 18439, Control_c, 6, 74, 90
11, 18440, Control_c, 6, 7, 126
11, 18440, Control_c, 6, 74, 90
11, 18441, Control_c, 6, 74, 90
11, 18442, Control_c, 6, 7, 126
11, 18442, Control_c, 6, 74, 90
11, 18443, Control_c, 6, 7, 126
11, 18443, Control_c, 6, 74, 90
11, 18444, Control_c, 6, 7, 126
11, 18444, Control_c, 6, 74, 90
11, 18445, Control_c, 6, 74, 90
11, 18446, Control_c, 6, 7, 126
11, 18446, Control_c, 6, 74, 90
11, 18447, Control_c, 6, 7, 126
11, 18447, Control_c, 6, 74, 90
11, 18448, Control_c, 6, 7, 126
11, 18448, Control_c, 6, 74, 90
11, 18449, Control_c, 6, 74, 90
11, 18450, Control_c, 6, 7, 126
11, 18450, Control_c, 6, 74, 90
11, 18451, Control_c, 6, 7, 126
11, 18451, Control_c, 6, 74, 90
11, 18452, Control_c, 6, 7, 126
11, 18452, Control_c, 6, 74, 90
11, 18453, Control_c, 6, 74, 90
11, 18454, Control_c, 6, 7, 126
11, 18454, Control_c, 6, 74, 90
11, 18455, Control_c, 6, 7, 126
11, 18455, Control_c, 6, 74, 90
11, 18456, Control_c, 6, 7, 126
11, 18456, Control_c, 6, 74, 90
11, 18457, Control_c, 6, 74, 90
11, 18458, Control_c, 6, 7, 126
11, 18458, Control_c, 6, 74, 90
11, 18459, Control_c, 6, 7, 126
11, 18459, Control_c, 6, 74, 90
11, 18460, Control_c, 6, 7, 126
11, 18460, Control_c, 6, 74, 90
11, 18461, Control_c, 6, 74, 90
11, 18462, Control_c, 6, 7, 126
11, 18462, Control_c, 6, 74, 90
11, 18463, Control_c, 6, 7, 126
11, 18463, Control_c, 6, 74, 90
11, 18464, Control_c, 6, 7, 126
11, 18464, Control_c, 6, 74, 90
11, 18465, Control_c, 6, 74, 90
11, 18466, Control_c, 6, 7, 126
11, 18466, Control_c, 6, 74, 90
11, 18467, Control_c, 6, 7, 126
11, 18467, Control_c, 6, 74, 90
11, 18468, Control_c, 6, 7, 126
11, 18468, Control_c, 6, 74, 90
11, 18469, Control_c, 6, 74, 90
11, 18470, Control_c, 6, 7, 126
11, 18470, Control_c, 6, 74, 90
11, 18471, Control_c, 6, 7, 126
11, 18471, Control_c, 6, 74, 89
11, 18472, Control_c, 6, 7, 126
11, 18472, Control_c, 6, 74, 89
11, 18473, Control_c, 6, 74, 89
11, 18474, Control_c, 6, 7, 126
11, 18474, Control_c, 6, 74, 89
11, 18475, Control_c, 6, 7, 126
11, 18475, Control_c, 6, 74, 89
11, 18476, Control_c, 6, 7, 126
11, 18476, Control_c, 6, 74, 89
11, 18477, Control_c, 6, 74, 89
11, 18478, Control_c, 6, 7, 126
11, 18478, Control_c, 6, 74, 89
11, 18479, Control_c, 6, 7, 126
11, 18479, Control_c, 6, 74, 89
11, 18480, Control_c, 6, 7, 126
11, 18480, Control_c, 6, 74, 89
11, 18481, Control_c, 6, 74, 89
11, 18482, Control_c, 6, 7, 126
11, 18482, Control_c, 6, 74, 89
11, 18483, Control_c, 6, 7, 126
11, 18483, Control_c, 6, 74, 89
11, 18484, Control_c, 6, 7, 126
11, 18484, Control_c, 6, 74, 89
11, 18485, Control_c, 6, 74, 89
11, 18486, Control_c, 6, 7, 126
11, 18486, Control_c, 6, 74, 89
11, 18487, Control_c, 6, 7, 126
11, 18487, Control_c, 6, 74, 89
11, 18488, Control_c, 6, 7, 126
11, 18488, Control_c, 6, 74, 89
11, 18489, Control_c, 6, 74, 89
11, 18490, Control_c, 6, 7, 126
11, 18490, Control_c, 6, 74, 89
11, 18491, Control_c, 6, 7, 126
11, 18491, Control_c, 6, 74, 89
11, 18492, Control_c, 6, 7, 126
11, 18492, Control_c, 6, 74, 89
11, 18493, Control_c, 6, 74, 89
11, 18494, Control_c, 6, 7, 126
11, 18494, Control_c, 6, 74, 89
11, 18495, Control_c, 6, 7, 126
11, 18495, Control_c, 6, 74, 89
11, 18496, Control_c, 6, 7, 126
11, 18496, Control_c, 6, 74, 89
11, 18497, Control_c, 6, 74, 89
11, 18498, Control_c, 6, 7, 126
11, 18498, Control_c, 6, 74, 89
11, 18499, Control_c, 6, 7, 126
11, 18499, Control_c, 6, 74, 89
11, 18500, Control_c, 6, 7, 126
11, 18500, Control_c, 6, 74, 89
11, 18501, Control_c, 6, 74, 89
11, 18502, Control_c, 6, 7, 126
11, 18502, Control_c, 6, 74, 89
11, 18503, Control_c, 6, 7, 126
11, 18503, Control_c, 6, 74, 89
11, 18504, Control_c, 6, 7, 126
11, 18504, Control_c, 6, 74, 89
11, 18505, Control_c, 6, 74, 89
11, 18506, Control_c, 6, 7, 126
11, 18506, Control_c, 6, 74, 89
11, 18507, Control_c, 6, 7, 126
11, 18507, Control_c, 6, 74, 89
11, 18508, Control_c, 6, 7, 126
11, 18508, Control_c, 6, 74, 89
11, 18509, Control_c, 6, 74, 89
11, 18510, Control_c, 6, 7, 126
11, 18510, Control_c, 6, 74, 89
11, 18511, Control_c, 6, 7, 126
11, 18511, Control_c, 6, 74, 89
11, 18512, Control_c, 6, 7, 126
11, 18512, Control_c, 6, 74, 88
11, 18513, Control_c, 6, 74, 88
11, 18514, Control_c, 6, 7, 126
11, 18514, Control_c, 6, 74, 88
11, 18515, Control_c, 6, 7, 126
11, 18515, Control_c, 6, 74, 88
11, 18516, Control_c, 6, 7, 126
11, 18516, Control_c, 6, 74, 88
11, 18517, Control_c, 6, 74, 88
11, 18518, Control_c, 6, 7, 126
11, 18518, Control_c, 6, 74, 88
11, 18519, Control_c, 6, 7, 126
11, 18519, Control_c, 6, 74, 88
11, 18520, Control_c, 6, 74, 88
11, 18521, Control_c, 6, 7, 126
11, 18521, Control_c, 6, 74, 88
11, 18522, Control_c, 6, 7, 126
11, 18522, Control_c, 6, 74, 88
11, 18523, Control_c, 6, 7, 126
11, 18523, Control_c, 6, 74, 88
11, 18524, Control_c, 6, 74, 88
11, 18525, Control_c, 6, 7, 126
11, 18525, Control_c, 6, 74, 88
11, 18526, Control_c, 6, 7, 126
11, 18526, Control_c, 6, 74, 88
11, 18527, Control_c, 6, 7, 126
11, 18527, Control_c, 6, 74, 88
11, 18528, Control_c, 6, 74, 88
11, 18529, Control_c, 6, 7, 126
11, 18529, Control_c, 6, 74, 88
11, 18530, Control_c, 6, 7, 126
11, 18530, Control_c, 6, 74, 88
11, 18531, Control_c, 6, 7, 126
11, 18531, Control_c, 6, 74, 88
11, 18532, Control_c, 6, 74, 88
11, 18533, Control_c, 6, 7, 126
11, 18533, Control_c, 6, 74, 88
11, 18534, Control_c, 6, 7, 126
11, 18534, Control_c, 6, 74, 88
11, 18535, Control_c, 6, 7, 126
11, 18535, Control_c, 6, 74, 88
11, 18536, Control_c, 6, 74, 88
11, 18537, Control_c, 6, 7, 126
11, 18537, Control_c, 6, 74, 88
11, 18538, Control_c, 6, 7, 126
11, 18538, Control_c, 6, 74, 88
11, 18539, Control_c, 6, 7, 126
11, 18539, Control_c, 6, 74, 88
11, 18540, Control_c, 6, 74, 88
11, 18541, Control_c, 6, 7, 126
11, 18541, Control_c, 6, 74, 88
11, 18542, Control_c, 6, 7, 126
11, 18542, Control_c, 6, 74, 88
11, 18543, Control_c, 6, 7, 126
11, 18543, Control_c, 6, 74, 88
11, 18544, Control_c, 6, 74, 88
11, 18545, Control_c, 6, 7, 126
11, 18545, Control_c, 6, 74, 88
11, 18546, Control_c, 6, 7, 126
11, 18546, Control_c, 6, 74, 88
11, 18547, Control_c, 6, 7, 126
11, 18547, Control_c, 6, 74, 88
11, 18548, Control_c, 6, 74, 88
11, 18549, Control_c, 6, 7, 126
11, 18549, Control_c, 6, 74, 88
11, 18550, Control_c, 6, 7, 126
11, 18550, Control_c, 6, 74, 88
11, 18551, Control_c, 6, 7, 126
11, 18551, Control_c, 6, 74, 88
11, 18552, Control_c, 6, 74, 88
11, 18553, Control_c, 6, 7, 126
11, 18553, Control_c, 6, 74, 88
11, 18554, Control_c, 6, 7, 126
11, 18554, Control_c, 6, 74, 87
11, 18555, Control_c, 6, 7, 126
11, 18555, Control_c, 6, 74, 87
11, 18556, Control_c, 6, 74, 87
11, 18557, Control_c, 6, 7, 126
11, 18557, Control_c, 6, 74, 87
11, 18558, Control_c, 6, 7, 126
11, 18558, Control_c, 6, 74, 87
11, 18559, Control_c, 6, 7, 126
11, 18559, Control_c, 6, 74, 87
11, 18560, Control_c, 6, 74, 87
11, 18561, Control_c, 6, 7, 126
11, 18561, Control_c, 6, 74, 87
11, 18562, Control_c, 6, 7, 126
11, 18562, Control_c, 6, 74, 87
11, 18563, Control_c, 6, 7, 126
11, 18563, Control_c, 6, 74, 87
11, 18564, Control_c, 6, 74, 87
11, 18565, Control_c, 6, 7, 126
11, 18565, Control_c, 6, 74, 87
11, 18566, Control_c, 6, 7, 126
11, 18566, Control_c, 6, 74, 87
11, 18567, Control_c, 6, 7, 126
11, 18567, Control_c, 6, 74, 87
11, 18568, Control_c, 6, 74, 87
11, 18569, Control_c, 6, 7, 126
11, 18569, Control_c, 6, 74, 87
11, 18570, Control_c, 6, 7, 126
11, 18570, Control_c, 6, 74, 87
11, 18571, Control_c, 6, 7, 126
11, 18571, Control_c, 6, 74, 87
11, 18572, Control_c, 6, 74, 87
11, 18573, Control_c, 6, 7, 126
11, 18573, Control_c, 6, 74, 87
11, 18574, Control_c, 6, 7, 126
11, 18574, Control_c, 6, 74, 87
11, 18575, Control_c, 6, 7, 126
11, 18575, Control_c, 6, 74, 87
11, 18576, Control_c, 6, 74, 87
11, 18577, Control_c, 6, 7, 126
11, 18577, Control_c, 6, 74, 87
11, 18578, Control_c, 6, 7, 126
11, 18578, Control_c, 6, 74, 87
11, 18579, Control_c, 6, 7, 126
11, 18579, Control_c, 6, 74, 87
11, 18580, Control_c, 6, 74, 87
11, 18581, Control_c, 6, 7, 126
11, 18581, Control_c, 6, 74, 87
11, 18582, Control_c, 6, 7, 126
11, 18582, Control_c, 6, 74, 87
11, 18583, Control_c, 6, 7, 126
11, 18583, Control_c, 6, 74, 87
11, 18584, Control_c, 6, 74, 87
11, 18585, Control_c, 6, 7, 126
11, 18585, Control_c, 6, 74, 87
11, 18586, Control_c, 6, 7, 126
11, 18586, Control_c, 6, 74, 87
11, 18587, Control_c, 6, 7, 126
11, 18587, Control_c, 6, 74, 87
11, 18588, Control_c, 6, 74, 87
11, 18589, Control_c, 6, 7, 126
11, 18589, Control_c, 6, 74, 87
11, 18590, Control_c, 6, 7, 126
11, 18590, Control_c, 6, 74, 87
11, 18591, Control_c, 6, 7, 126
11, 18591, Control_c, 6, 74, 87
11, 18592, Control_c, 6, 74, 87
11, 18593, Control_c, 6, 7, 126
11, 18593, Control_c, 6, 74, 87
11, 18594, Control_c, 6, 7, 126
11, 18594, Control_c, 6, 74, 87
11, 18595, Control_c, 6, 7, 126
11, 18595, Control_c, 6, 74, 86
11, 18596, Control_c, 6, 74, 86
11, 18597, Control_c, 6, 7, 126
11, 18597, Control_c, 6, 74, 86
11, 18598, Control_c, 6, 7, 126
11, 18598, Control_c, 6, 74, 86
11, 18599, Control_c, 6, 7, 126
11, 18599, Control_c, 6, 74, 86
11, 18600, Control_c, 6, 74, 86
11, 18601, Control_c, 6, 7, 126
11, 18601, Control_c, 6, 74, 86
11, 18602, Control_c, 6, 7, 126
11, 18602, Control_c, 6, 74, 86
11, 18603, Control_c, 6, 7, 126
11, 18603, Control_c, 6, 74, 86
11, 18604, Control_c, 6, 74, 86
11, 18605, Control_c, 6, 7, 126
11, 18605, Control_c, 6, 74, 86
11, 18606, Control_c, 6, 7, 126
11, 18606, Control_c, 6, 74, 86
11, 18607, Control_c, 6, 7, 126
11, 18607, Control_c, 6, 74, 86
11, 18608, Control_c, 6, 74, 86
11, 18609, Control_c, 6, 7, 126
11, 18609, Control_c, 6, 74, 86
11, 18610, Control_c, 6, 7, 126
11, 18610, Control_c, 6, 74, 86
11, 18611, Control_c, 6, 7, 126
11, 18611, Control_c, 6, 74, 86
11, 18612, Control_c, 6, 74, 86
11, 18613, Control_c, 6, 7, 126
11, 18613, Control_c, 6, 74, 86
11, 18614, Control_c, 6, 7, 126
11, 18614, Control_c, 6, 74, 86
11, 18615, Control_c, 6, 7, 126
11, 18615, Control_c, 6, 74, 86
11, 18616, Control_c, 6, 74, 86
11, 18617, Control_c, 6, 7, 126
11, 18617, Control_c, 6, 74, 86
11, 18618, Control_c, 6, 7, 126
11, 18618, Control_c, 6, 74, 86
11, 18619, Control_c, 6, 7, 126
11, 18619, Control_c, 6, 74, 86
11, 18620, Control_c, 6, 74, 86
11, 18621, Control_c, 6, 7, 126
11, 18621, Control_c, 6, 74, 86
11, 18622, Control_c, 6, 7, 126
11, 18622, Control_c, 6, 74, 86
11, 18623, Control_c, 6, 7, 126
11, 18623, Control_c, 6, 74, 86
11, 18624, Control_c, 6, 74, 86
11, 18625, Control_c, 6, 7, 126
11, 18625, Control_c, 6, 74, 86
11, 18626, Control_c, 6, 7, 126
11, 18626, Control_c, 6, 74, 86
11, 18627, Control_c, 6, 7, 126
11, 18627, Control_c, 6, 74, 86
11, 18628, Control_c, 6, 74, 86
11, 18629, Control_c, 6, 7, 126
11, 18629, Control_c, 6, 74, 86
11, 18630, Control_c, 6, 7, 126
11, 18630, Control_c, 6, 74, 86
11, 18631, Control_c, 6, 7, 126
11, 18631, Control_c, 6, 74, 86
11, 18632, Control_c, 6, 74, 86
11, 18633, Control_c, 6, 7, 126
11, 18633, Control_c, 6, 74, 86
11, 18634, Control_c, 6, 7, 126
11, 18634, Control_c, 6, 74, 86
11, 18635, Control_c, 6, 7, 126
11, 18635, Control_c, 6, 74, 86
11, 18636, Control_c, 6, 74, 86
11, 18637, Control_c, 6, 7, 126
11, 18637, Control_c, 6, 74, 85
11, 18638, Control_c, 6, 7, 126
11, 18638, Control_c, 6, 74, 85
11, 18639, Control_c, 6, 7, 126
11, 18639, Control_c, 6, 74, 85
11, 18640, Control_c, 6, 74, 85
11, 18641, Control_c, 6, 7, 126
11, 18641, Control_c, 6, 74, 85
11, 18642, Control_c, 6, 7, 126
11, 18642, Control_c, 6, 74, 85
11, 18643, Control_c, 6, 7, 126
11, 18643, Control_c, 6, 74, 85
11, 18644, Control_c, 6, 74, 85
11, 18645, Control_c, 6, 7, 126
11, 18645, Control_c, 6, 74, 85
11, 18646, Control_c, 6, 7, 126
11, 18646, Control_c, 6, 74, 85
11, 18647, Control_c, 6, 7, 126
11, 18647, Control_c, 6, 74, 85
11, 18648, Control_c, 6, 74, 85
11, 18649, Control_c, 6, 7, 126
11, 18649, Control_c, 6, 74, 85
11, 18650, Control_c, 6, 7, 126
11, 18650, Control_c, 6, 74, 85
11, 18651, Control_c, 6, 7, 126
11, 18651, Control_c, 6, 74, 85
11, 18652, Control_c, 6, 74, 85
11, 18653, Control_c, 6, 7, 126
11, 18653, Control_c, 6, 74, 85
11, 18654, Control_c, 6, 7, 126
11, 18654, Control_c, 6, 74, 85
11, 18655, Control_c, 6, 7, 126
11, 18655, Control_c, 6, 74, 85
11, 18656, Control_c, 6, 74, 85
11, 18657, Control_c, 6, 7, 126
11, 18657, Control_c, 6, 74, 85
11, 18658, Control_c, 6, 7, 126
11, 18658, Control_c, 6, 74, 85
11, 18659, Control_c, 6, 7, 126
11, 18659, Control_c, 6, 74, 85
11, 18660, Control_c, 6, 74, 85
11, 18661, Control_c, 6, 7, 126
11, 18661, Control_c, 6, 74, 85
11, 18662, Control_c, 6, 7, 126
11, 18662, Control_c, 6, 74, 85
11, 18663, Control_c, 6, 7, 126
11, 18663, Control_c, 6, 74, 85
11, 18664, Control_c, 6, 74, 85
11, 18665, Control_c, 6, 7, 126
11, 18665, Control_c, 6, 74, 85
11, 18666, Control_c, 6, 7, 126
11, 18666, Control_c, 6, 74, 85
11, 18667, Control_c, 6, 7, 126
11, 18667, Control_c, 6, 74, 85
11, 18668, Control_c, 6, 74, 85
11, 18669, Control_c, 6, 7, 126
11, 18669, Control_c, 6, 74, 85
11, 18670, Control_c, 6, 7, 126
11, 18670, Control_c, 6, 74, 85
11, 18671, Control_c, 6, 7, 126
11, 18671, Control_c, 6, 74, 85
11, 18672, Control_c, 6, 74, 85
11, 18673, Control_c, 6, 7, 126
11, 18673, Control_c, 6, 74, 85
11, 18674, Control_c, 6, 7, 126
11, 18674, Control_c, 6, 74, 85
11, 18675, Control_c, 6, 7, 126
11, 18675, Control_c, 6, 74, 85
11, 18676, Control_c, 6, 74, 85
11, 18677, Control_c, 6, 7, 126
11, 18677, Control_c, 6, 74, 85
11, 18678, Control_c, 6, 7, 126
11, 18678, Control_c, 6, 74, 84
11, 18679, Control_c, 6, 7, 126
11, 18679, Control_c, 6, 74, 84
11, 18680, Control_c, 6, 74, 84
11, 18681, Control_c, 6, 7, 126
11, 18681, Control_c, 6, 74, 84
11, 18682, Control_c, 6, 7, 126
11, 18682, Control_c, 6, 74, 84
11, 18683, Control_c, 6, 7, 126
11, 18683, Control_c, 6, 74, 84
11, 18684, Control_c, 6, 74, 84
11, 18685, Control_c, 6, 7, 126
11, 18685, Control_c, 6, 74, 84
11, 18686, Control_c, 6, 7, 126
11, 18686, Control_c, 6, 74, 84
11, 18687, Control_c, 6, 7, 126
11, 18687, Control_c, 6, 74, 84
11, 18688, Control_c, 6, 74, 84
11, 18689, Control_c, 6, 7, 126
11, 18689, Control_c, 6, 74, 84
11, 18690, Control_c, 6, 7, 126
11, 18690, Control_c, 6, 74, 84
11, 18691, Control_c, 6, 74, 84
11, 18692, Control_c, 6, 7, 126
11, 18692, Control_c, 6, 74, 84
11, 18693, Control_c, 6, 7, 126
11, 18693, Control_c, 6, 74, 84
11, 18694, Control_c, 6, 7, 126
11, 18694, Control_c, 6, 74, 84
11, 18695, Control_c, 6, 74, 84
11, 18696, Control_c, 6, 7, 126
11, 18696, Control_c, 6, 74, 84
11, 18697, Control_c, 6, 7, 126
11, 18697, Control_c, 6, 74, 84
11, 18698, Control_c, 6, 7, 126
11, 18698, Control_c, 6, 74, 84
11, 18699, Control_c, 6, 74, 84
11, 18700, Control_c, 6, 7, 126
11, 18700, Control_c, 6, 74, 84
11, 18701, Control_c, 6, 7, 126
11, 18701, Control_c, 6, 74, 84
11, 18702, Control_c, 6, 7, 126
11, 18702, Control_c, 6, 74, 84
11, 18703, Control_c, 6, 74, 84
11, 18704, Control_c, 6, 7, 126
11, 18704, Control_c, 6, 74, 84
11, 18705, Control_c, 6, 7, 126
11, 18705, Control_c, 6, 74, 84
11, 18706, Control_c, 6, 7, 126
11, 18706, Control_c, 6, 74, 84
11, 18707, Control_c, 6, 74, 84
11, 18708, Control_c, 6, 7, 126
11, 18708, Control_c, 6, 74, 84
11, 18709, Control_c, 6, 7, 126
11, 18709, Control_c, 6, 74, 84
11, 18710, Control_c, 6, 7, 126
11, 18710, Control_c, 6, 74, 84
11, 18711, Control_c, 6, 74, 84
11, 18712, Control_c, 6, 7, 126
11, 18712, Control_c, 6, 74, 84
11, 18713, Control_c, 6, 7, 126
11, 18713, Control_c, 6, 74, 84
11, 18714, Control_c, 6, 7, 126
11, 18714, Control_c, 6, 74, 84
11, 18715, Control_c, 6, 74, 84
11, 18716, Control_c, 6, 7, 126
11, 18716, Control_c, 6, 74, 84
11, 18717, Control_c, 6, 7, 126
11, 18717, Control_c, 6, 74, 84
11, 18718, Control_c, 6, 7, 126
11, 18718, Control_c, 6, 74, 84
11, 18719, Control_c, 6, 74, 84
11, 18720, Control_c, 6, 7, 126
11, 18720, Control_c, 6, 74, 83
11, 18721, Control_c, 6, 7, 126
11, 18721, Control_c, 6, 74, 83
11, 18722, Control_c, 6, 7, 126
11, 18722, Control_c, 6, 74, 83
11, 18723, Control_c, 6, 74, 83
11, 18724, Control_c, 6, 7, 126
11, 18724, Control_c, 6, 74, 83
11, 18725, Control_c, 6, 7, 126
11, 18725, Control_c, 6, 74, 83
11, 18726, Control_c, 6, 7, 126
11, 18726, Control_c, 6, 74, 83
11, 18727, Control_c, 6, 74, 83
11, 18728, Control_c, 6, 7, 126
11, 18728, Control_c, 6, 74, 83
11, 18729, Control_c, 6, 7, 126
11, 18729, Control_c, 6, 74, 83
11, 18730, Control_c, 6, 7, 126
11, 18730, Control_c, 6, 74, 83
11, 18731, Control_c, 6, 74, 83
11, 18732, Control_c, 6, 7, 126
11, 18732, Control_c, 6, 74, 83
11, 18733, Control_c, 6, 7, 126
11, 18733, Control_c, 6, 74, 83
11, 18734, Control_c, 6, 7, 126
11, 18734, Control_c, 6, 74, 83
11, 18735, Control_c, 6, 74, 83
11, 18736, Control_c, 6, 7, 126
11, 18736, Control_c, 6, 74, 83
11, 18737, Control_c, 6, 7, 126
11, 18737, Control_c, 6, 74, 83
11, 18738, Control_c, 6, 7, 126
11, 18738, Control_c, 6, 74, 83
11, 18739, Control_c, 6, 74, 83
11, 18740, Control_c, 6, 7, 126
11, 18740, Control_c, 6, 74, 83
11, 18741, Control_c, 6, 7, 126
11, 18741, Control_c, 6, 74, 83
11, 18742, Control_c, 6, 7, 126
11, 18742, Control_c, 6, 74, 83
11, 18743, Control_c, 6, 74, 83
11, 18744, Control_c, 6, 7, 126
11, 18744, Control_c, 6, 74, 83
11, 18745, Control_c, 6, 7, 126
11, 18745, Control_c, 6, 74, 83
11, 18746, Control_c, 6, 7, 126
11, 18746, Control_c, 6, 74, 83
11, 18747, Control_c, 6, 74, 83
11, 18748, Control_c, 6, 7, 126
11, 18748, Control_c, 6, 74, 83
11, 18749, Control_c, 6, 7, 126
11, 18749, Control_c, 6, 74, 83
11, 18750, Control_c, 6, 7, 126
11, 18750, Control_c, 6, 74, 83
11, 18751, Control_c, 6, 74, 83
11, 18752, Control_c, 6, 7, 126
11, 18752, Control_c, 6, 74, 83
11, 18753, Control_c, 6, 7, 126
11, 18753, Control_c, 6, 74, 83
11, 18754, Control_c, 6, 7, 126
11, 18754, Control_c, 6, 74, 83
11, 18755, Control_c, 6, 74, 83
11, 18756, Control_c, 6, 7, 126
11, 18756, Control_c, 6, 74, 83
11, 18757, Control_c, 6, 7, 126
11, 18757, Control_c, 6, 74, 83
11, 18758, Control_c, 6, 7, 126
11, 18758, Control_c, 6, 74, 83
11, 18759, Control_c, 6, 74, 83
11, 18760, Control_c, 6, 7, 126
11, 18760, Control_c, 6, 74, 83
11, 18761, Control_c, 6, 7, 126
11, 18761, Control_c, 6, 74, 82
11, 18762, Control_c, 6, 7, 126
11, 18762, Control_c, 6, 74, 82
11, 18763, Control_c, 6, 74, 82
11, 18764, Control_c, 6, 7, 126
11, 18764, Control_c, 6, 74, 82
11, 18765, Control_c, 6, 7, 126
11, 18765, Control_c, 6, 74, 82
11, 18766, Control_c, 6, 7, 126
11, 18766, Control_c, 6, 74, 82
11, 18767, Control_c, 6, 74, 82
11, 18768, Control_c, 6, 7, 126
11, 18768, Control_c, 6, 74, 82
11, 18769, Control_c, 6, 7, 126
11, 18769, Control_c, 6, 74, 82
11, 18770, Control_c, 6, 7, 126
11, 18770, Control_c, 6, 74, 82
11, 18771, Control_c, 6, 74, 82
11, 18772, Control_c, 6, 7, 126
11, 18772, Control_c, 6, 74, 82
11, 18773, Control_c, 6, 7, 126
11, 18773, Control_c, 6, 74, 82
11, 18774, Control_c, 6, 7, 126
11, 18774, Control_c, 6, 74, 82
11, 18775, Control_c, 6, 74, 82
11, 18776, Control_c, 6, 7, 126
11, 18776, Control_c, 6, 74, 82
11, 18777, Control_c, 6, 7, 126
11, 18777, Control_c, 6, 74, 82
11, 18778, Control_c, 6, 7, 126
11, 18778, Control_c, 6, 74, 82
11, 18779, Control_c, 6, 74, 82
11, 18780, Control_c, 6, 7, 126
11, 18780, Control_c, 6, 74, 82
11, 18781, Control_c, 6, 7, 126
11, 18781, Control_c, 6, 74, 82
11, 18782, Control_c, 6, 7, 126
11, 18782, Control_c, 6, 74, 82
11, 18783, Control_c, 6, 74, 82
11, 18784, Control_c, 6, 7, 126
11, 18784, Control_c, 6, 74, 82
11, 18785, Control_c, 6, 7, 126
11, 18785, Control_c, 6, 74, 82
11, 18786, Control_c, 6, 7, 126
11, 18786, Control_c, 6, 74, 82
11, 18787, Control_c, 6, 74, 82
11, 18788, Control_c, 6, 7, 126
11, 18788, Control_c, 6, 74, 82
11, 18789, Control_c, 6, 7, 126
11, 18789, Control_c, 6, 74, 82
11, 18790, Control_c, 6, 7, 126
11, 18790, Control_c, 6, 74, 82
11, 18791, Control_c, 6, 74, 82
11, 18792, Control_c, 6, 7, 126
11, 18792, Control_c, 6, 74, 82
11, 18793, Control_c, 6, 7, 126
11, 18793, Control_c, 6, 74, 82
11, 18794, Control_c, 6, 7, 126
11, 18794, Control_c, 6, 74, 82
11, 18795, Control_c, 6, 74, 82
11, 18796, Control_c, 6, 7, 126
11, 18796, Control_c, 6, 74, 82
11, 18797, Control_c, 6, 7, 126
11, 18797, Control_c, 6, 74, 82
11, 18798, Control_c, 6, 7, 126
11, 18798, Control_c, 6, 74, 82
11, 18799, Control_c, 6, 74, 82
11, 18800, Control_c, 6, 7, 126
11, 18800, Control_c, 6, 74, 82
11, 18801, Control_c, 6, 7, 126
11, 18801, Control_c, 6, 74, 82
11, 18802, Control_c, 6, 7, 126
11, 18802, Control_c, 6, 74, 81
11, 18803, Control_c, 6, 74, 81
11, 18804, Control_c, 6, 7, 126
11, 18804, Control_c, 6, 74, 81
11, 18805, Control_c, 6, 7, 126
11, 18805, Control_c, 6, 74, 81
11, 18806, Control_c, 6, 7, 126
11, 18806, Control_c, 6, 74, 81
11, 18807, Control_c, 6, 74, 81
11, 18808, Control_c, 6, 7, 126
11, 18808, Control_c, 6, 74, 81
11, 18809, Control_c, 6, 7, 126
11, 18809, Control_c, 6, 74, 81
11, 18810, Control_c, 6, 7, 126
11, 18810, Control_c, 6, 74, 81
11, 18811, Control_c, 6, 74, 81
11, 18812, Control_c, 6, 7, 126
11, 18812, Control_c, 6, 74, 81
11, 18813, Control_c, 6, 7, 126
11, 18813, Control_c, 6, 74, 81
11, 18814, Control_c, 6, 7, 126
11, 18814, Control_c, 6, 74, 81
11, 18815, Control_c, 6, 74, 81
11, 18816, Control_c, 6, 7, 126
11, 18816, Control_c, 6, 74, 81
11, 18817, Control_c, 6, 7, 126
11, 18817, Control_c, 6, 74, 81
11, 18818, Control_c, 6, 7, 126
11, 18818, Control_c, 6, 74, 81
11, 18819, Control_c, 6, 74, 81
11, 18820, Control_c, 6, 7, 126
11, 18820, Control_c, 6, 74, 81
11, 18821, Control_c, 6, 7, 126
11, 18821, Control_c, 6, 74, 81
11, 18822, Control_c, 6, 7, 126
11, 18822, Control_c, 6, 74, 81
11, 18823, Control_c, 6, 74, 81
11, 18824, Control_c, 6, 7, 126
11, 18824, Control_c, 6, 74, 81
11, 18825, Control_c, 6, 7, 126
11, 18825, Control_c, 6, 74, 81
11, 18826, Control_c, 6, 7, 126
11, 18826, Control_c, 6, 74, 81
11, 18827, Control_c, 6, 74, 81
11, 18828, Control_c, 6, 7, 126
11, 18828, Control_c, 6, 74, 81
11, 18829, Control_c, 6, 7, 126
11, 18829, Control_c, 6, 74, 81
11, 18830, Control_c, 6, 7, 126
11, 18830, Control_c, 6, 74, 81
11, 18831, Control_c, 6, 74, 81
11, 18832, Control_c, 6, 7, 126
11, 18832, Control_c, 6, 74, 81
11, 18833, Control_c, 6, 7, 126
11, 18833, Control_c, 6, 74, 81
11, 18834, Control_c, 6, 7, 126
11, 18834, Control_c, 6, 74, 81
11, 18835, Control_c, 6, 74, 81
11, 18836, Control_c, 6, 7, 126
11, 18836, Control_c, 6, 74, 81
11, 18837, Control_c, 6, 7, 126
11, 18837, Control_c, 6, 74, 81
11, 18838, Control_c, 6, 7, 126
11, 18838, Control_c, 6, 74, 81
11, 18839, Control_c, 6, 74, 81
11, 18840, Control_c, 6, 7, 126
11, 18840, Control_c, 6, 74, 81
11, 18841, Control_c, 6, 7, 126
11, 18841, Control_c, 6, 74, 81
11, 18842, Control_c, 6, 7, 126
11, 18842, Control_c, 6, 74, 81
11, 18843, Control_c, 6, 74, 81
11, 18844, Control_c, 6, 7, 126
11, 18844, Control_c, 6, 74, 80
11, 18845, Control_c, 6, 7, 126
11, 18845, Control_c, 6, 74, 80
11, 18846, Control_c, 6, 7, 126
11, 18846, Control_c, 6, 74, 80
11, 18847, Control_c, 6, 74, 80
11, 18848, Control_c, 6, 7, 126
11, 18848, Control_c, 6, 74, 80
11, 18849, Control_c, 6, 7, 126
11, 18849, Control_c, 6, 74, 80
11, 18850, Control_c, 6, 7, 126
11, 18850, Control_c, 6, 74, 80
11, 18851, Control_c, 6, 74, 80
11, 18852, Control_c, 6, 7, 126
11, 18852, Control_c, 6, 74, 80
11, 18853, Control_c, 6, 7, 126
11, 18853, Control_c, 6, 74, 80
11, 18854, Control_c, 6, 7, 126
11, 18854, Control_c, 6, 74, 80
11, 18855, Control_c, 6, 74, 80
11, 18856, Control_c, 6, 7, 126
11, 18856, Control_c, 6, 74, 80
11, 18857, Control_c, 6, 7, 126
11, 18857, Control_c, 6, 74, 80
11, 18858, Control_c, 6, 7, 126
11, 18858, Control_c, 6, 74, 80
11, 18859, Control_c, 6, 74, 80
11, 18860, Control_c, 6, 7, 126
11, 18860, Control_c, 6, 74, 80
11, 18861, Control_c, 6, 7, 126
11, 18861, Control_c, 6, 74, 80
11, 18862, Control_c, 6, 74, 80
11, 18863, Control_c, 6, 7, 126
11, 18863, Control_c, 6, 74, 80
11, 18864, Control_c, 6, 7, 126
11, 18864, Control_c, 6, 74, 80
11, 18865, Control_c, 6, 7, 126
11, 18865, Control_c, 6, 74, 80
11, 18866, Control_c, 6, 74, 80
11, 18867, Control_c, 6, 7, 126
11, 18867, Control_c, 6, 74, 80
11, 18868, Control_c, 6, 7, 126
11, 18868, Control_c, 6, 74, 80
11, 18869, Control_c, 6, 7, 126
11, 18869, Control_c, 6, 74, 80
11, 18870, Control_c, 6, 74, 80
11, 18871, Control_c, 6, 7, 126
11, 18871, Control_c, 6, 74, 80
11, 18872, Control_c, 6, 7, 126
11, 18872, Control_c, 6, 74, 80
11, 18873, Control_c, 6, 7, 126
11, 18873, Control_c, 6, 74, 80
11, 18874, Control_c, 6, 74, 80
11, 18875, Control_c, 6, 7, 126
11, 18875, Control_c, 6, 74, 80
11, 18876, Control_c, 6, 7, 126
11, 18876, Control_c, 6, 74, 80
11, 18877, Control_c, 6, 7, 126
11, 18877, Control_c, 6, 74, 80
11, 18878, Control_c, 6, 74, 80
11, 18879, Control_c, 6, 7, 126
11, 18879, Control_c, 6, 74, 80
11, 18880, Control_c, 6, 7, 126
11, 18880, Control_c, 6, 74, 80
11, 18881, Control_c, 6, 7, 126
11, 18881, Control_c, 6, 74, 80
11, 18882, Control_c, 6, 74, 80
11, 18883, Control_c, 6, 7, 126
11, 18883, Control_c, 6, 74, 80
11, 18884, Control_c, 6, 7, 126
11, 18884, Control_c, 6, 74, 80
11, 18885, Control_c, 6, 7, 126
11, 18885, Control_c, 6, 74, 79
11, 18886, Control_c, 6, 74, 79
11, 18887, Control_c, 6, 7, 126
11, 18887, Control_c, 6, 74, 79
11, 18888, Control_c, 6, 7, 126
11, 18888, Control_c, 6, 74, 79
11, 18889, Control_c, 6, 7, 126
11, 18889, Control_c, 6, 74, 79
11, 18890, Control_c, 6, 74, 79
11, 18891, Control_c, 6, 7, 126
11, 18891, Control_c, 6, 74, 79
11, 18892, Control_c, 6, 7, 126
11, 18892, Control_c, 6, 74, 79
11, 18893, Control_c, 6, 7, 126
11, 18893, Control_c, 6, 74, 79
11, 18894, Control_c, 6, 74, 79
11, 18895, Control_c, 6, 7, 126
11, 18895, Control_c, 6, 74, 79
11, 18896, Control_c, 6, 7, 126
11, 18896, Control_c, 6, 74, 79
11, 18897, Control_c, 6, 7, 126
11, 18897, Control_c, 6, 74, 79
11, 18898, Control_c, 6, 74, 79
11, 18899, Control_c, 6, 7, 126
11, 18899, Control_c, 6, 74, 79
11, 18900, Control_c, 6, 7, 126
11, 18900, Control_c, 6, 74, 79
11, 18901, Control_c, 6, 7, 126
11, 18901, Control_c, 6, 74, 79
11, 18902, Control_c, 6, 74, 79
11, 18903, Control_c, 6, 7, 126
11, 18903, Control_c, 6, 74, 79
11, 18904, Control_c, 6, 7, 126
11, 18904, Control_c, 6, 74, 79
11, 18905, Control_c, 6, 7, 126
11, 18905, Control_c, 6, 74, 79
11, 18906, Control_c, 6, 74, 79
11, 18907, Control_c, 6, 7, 126
11, 18907, Control_c, 6, 74, 79
11, 18908, Control_c, 6, 7, 126
11, 18908, Control_c, 6, 74, 79
11, 18909, Control_c, 6, 7, 126
11, 18909, Control_c, 6, 74, 79
11, 18910, Control_c, 6, 74, 79
11, 18911, Control_c, 6, 7, 126
11, 18911, Control_c, 6, 74, 79
11, 18912, Control_c, 6, 7, 126
11, 18912, Control_c, 6, 74, 79
11, 18913, Control_c, 6, 7, 126
11, 18913, Control_c, 6, 74, 79
11, 18914, Control_c, 6, 74, 79
11, 18915, Control_c, 6, 7, 126
11, 18915, Control_c, 6, 74, 79
11, 18916, Control_c, 6, 7, 126
11, 18916, Control_c, 6, 74, 79
11, 18917, Control_c, 6, 7, 126
11, 18917, Control_c, 6, 74, 79
11, 18918, Control_c, 6, 74, 79
11, 18919, Control_c, 6, 7, 126
11, 18919, Control_c, 6, 74, 79
11, 18920, Control_c, 6, 7, 126
11, 18920, Control_c, 6, 74, 79
11, 18921, Control_c, 6, 7, 126
11, 18921, Control_c, 6, 74, 79
11, 18922, Control_c, 6, 74, 79
11, 18923, Control_c, 6, 7, 126
11, 18923, Control_c, 6, 74, 79
11, 18924, Control_c, 6, 7, 126
11, 18924, Control_c, 6, 74, 79
11, 18925, Control_c, 6, 7, 126
11, 18925, Control_c, 6, 74, 79
11, 18926, Control_c, 6, 74, 79
11, 18927, Control_c, 6, 7, 126
11, 18927, Control_c, 6, 74, 78
11, 18928, Control_c, 6, 7, 126
11, 18928, Control_c, 6, 74, 78
11, 18929, Control_c, 6, 7, 126
11, 18929, Control_c, 6, 74, 78
11, 18930, Control_c, 6, 74, 78
11, 18931, Control_c, 6, 7, 126
11, 18931, Control_c, 6, 74, 78
11, 18932, Control_c, 6, 7, 126
11, 18932, Control_c, 6, 74, 78
11, 18933, Control_c, 6, 7, 126
11, 18933, Control_c, 6, 74, 78
11, 18934, Control_c, 6, 74, 78
11, 18935, Control_c, 6, 7, 126
11, 18935, Control_c, 6, 74, 78
11, 18936, Control_c, 6, 7, 126
11, 18936, Control_c, 6, 74, 78
11, 18937, Control_c, 6, 7, 126
11, 18937, Control_c, 6, 74, 78
11, 18938, Control_c, 6, 74, 78
11, 18939, Control_c, 6, 7, 126
11, 18939, Control_c, 6, 74, 78
11, 18940, Control_c, 6, 7, 126
11, 18940, Control_c, 6, 74, 78
11, 18941, Control_c, 6, 7, 126
11, 18941, Control_c, 6, 74, 78
11, 18942, Control_c, 6, 74, 78
11, 18943, Control_c, 6, 7, 126
11, 18943, Control_c, 6, 74, 78
11, 18944, Control_c, 6, 7, 126
11, 18944, Control_c, 6, 74, 78
11, 18945, Control_c, 6, 7, 126
11, 18945, Control_c, 6, 74, 78
11, 18946, Control_c, 6, 74, 78
11, 18947, Control_c, 6, 7, 126
11, 18947, Control_c, 6, 74, 78
11, 18948, Control_c, 6, 7, 126
11, 18948, Control_c, 6, 74, 78
11, 18949, Control_c, 6, 7, 126
11, 18949, Control_c, 6, 74, 78
11, 18950, Control_c, 6, 74, 78
11, 18951, Control_c, 6, 7, 126
11, 18951, Control_c, 6, 74, 78
11, 18952, Control_c, 6, 7, 126
11, 18952, Control_c, 6, 74, 78
11, 18953, Control_c, 6, 7, 126
11, 18953, Control_c, 6, 74, 78
11, 18954, Control_c, 6, 74, 78
11, 18955, Control_c, 6, 7, 126
11, 18955, Control_c, 6, 74, 78
11, 18956, Control_c, 6, 7, 126
11, 18956, Control_c, 6, 74, 78
11, 18957, Control_c, 6, 7, 126
11, 18957, Control_c, 6, 74, 78
11, 18958, Control_c, 6, 74, 78
11, 18959, Control_c, 6, 7, 126
11, 18959, Control_c, 6, 74, 78
11, 18960, Control_c, 6, 7, 126
11, 18960, Control_c, 6, 74, 78
11, 18961, Control_c, 6, 7, 126
11, 18961, Control_c, 6, 74, 78
11, 18962, Control_c, 6, 74, 78
11, 18963, Control_c, 6, 7, 126
11, 18963, Control_c, 6, 74, 78
11, 18964, Control_c, 6, 7, 126
11, 18964, Control_c, 6, 74, 78
11, 18965, Control_c, 6, 7, 126
11, 18965, Control_c, 6, 74, 78
11, 18966, Control_c, 6, 74, 78
11, 18967, Control_c, 6, 7, 126
11, 18967, Control_c, 6, 74, 78
11, 18968, Control_c, 6, 7, 126
11, 18968, Control_c, 6, 74, 77
11, 18969, Control_c, 6, 7, 126
11, 18969, Control_c, 6, 74, 77
11, 18970, Control_c, 6, 74, 77
11, 18971, Control_c, 6, 7, 126
11, 18971, Control_c, 6, 74, 77
11, 18972, Control_c, 6, 7, 126
11, 18972, Control_c, 6, 74, 77
11, 18973, Control_c, 6, 7, 126
11, 18973, Control_c, 6, 74, 77
11, 18974, Control_c, 6, 74, 77
11, 18975, Control_c, 6, 7, 126
11, 18975, Control_c, 6, 74, 77
11, 18976, Control_c, 6, 7, 126
11, 18976, Control_c, 6, 74, 77
11, 18977, Control_c, 6, 7, 126
11, 18977, Control_c, 6, 74, 77
11, 18978, Control_c, 6, 74, 77
11, 18979, Control_c, 6, 7, 126
11, 18979, Control_c, 6, 74, 77
11, 18980, Control_c, 6, 7, 126
11, 18980, Control_c, 6, 74, 77
11, 18981, Control_c, 6, 7, 126
11, 18981, Control_c, 6, 74, 77
11, 18982, Control_c, 6, 74, 77
11, 18983, Control_c, 6, 7, 126
11, 18983, Control_c, 6, 74, 77
11, 18984, Control_c, 6, 7, 126
11, 18984, Control_c, 6, 74, 77
11, 18985, Control_c, 6, 7, 126
11, 18985, Control_c, 6, 74, 77
11, 18986, Control_c, 6, 74, 77
11, 18987, Control_c, 6, 7, 126
11, 18987, Control_c, 6, 74, 77
11, 18988, Control_c, 6, 7, 126
11, 18988, Control_c, 6, 74, 77
11, 18989, Control_c, 6, 7, 126
11, 18989, Control_c, 6, 74, 77
11, 18990, Control_c, 6, 74, 77
11, 18991, Control_c, 6, 7, 126
11, 18991, Control_c, 6, 74, 77
11, 18992, Control_c, 6, 7, 126
11, 18992, Control_c, 6, 74, 77
11, 18993, Control_c, 6, 7, 126
11, 18993, Control_c, 6, 74, 77
11, 18994, Control_c, 6, 74, 77
11, 18995, Control_c, 6, 7, 126
11, 18995, Control_c, 6, 74, 77
11, 18996, Control_c, 6, 7, 126
11, 18996, Control_c, 6, 74, 77
11, 18997, Control_c, 6, 7, 126
11, 18997, Control_c, 6, 74, 77
11, 18998, Control_c, 6, 74, 77
11, 18999, Control_c, 6, 7, 126
11, 18999, Control_c, 6, 74, 77
11, 19000, Control_c, 6, 7, 126
11, 19000, Control_c, 6, 74, 77
11, 19001, Control_c, 6, 7, 126
11, 19001, Control_c, 6, 74, 77
11, 19002, Control_c, 6, 74, 77
11, 19003, Control_c, 6, 7, 126
11, 19003, Control_c, 6, 74, 77
11, 19004, Control_c, 6, 7, 126
11, 19004, Control_c, 6, 74, 77
11, 19005, Control_c, 6, 7, 126
11, 19005, Control_c, 6, 74, 77
11, 19006, Control_c, 6, 74, 77
11, 19007, Control_c, 6, 7, 126
11, 19007, Control_c, 6, 74, 77
11, 19008, Control_c, 6, 7, 126
11, 19008, Control_c, 6, 74, 77
11, 19009, Control_c, 6, 7, 126
11, 19009, Control_c, 6, 74, 77
11, 19010, Control_c, 6, 74, 76
11, 19011, Control_c, 6, 7, 126
11, 19011, Control_c, 6, 74, 76
11, 19012, Control_c, 6, 7, 126
11, 19012, Control_c, 6, 74, 76
11, 19013, Control_c, 6, 7, 126
11, 19013, Control_c, 6, 74, 76
11, 19014, Control_c, 6, 74, 76
11, 19015, Control_c, 6, 7, 126
11, 19015, Control_c, 6, 74, 76
11, 19016, Control_c, 6, 7, 126
11, 19016, Control_c, 6, 74, 76
11, 19017, Control_c, 6, 7, 126
11, 19017, Control_c, 6, 74, 76
11, 19018, Control_c, 6, 74, 76
11, 19019, Control_c, 6, 7, 126
11, 19019, Control_c, 6, 74, 76
11, 19020, Control_c, 6, 7, 126
11, 19020, Control_c, 6, 74, 76
11, 19021, Control_c, 6, 7, 126
11, 19021, Control_c, 6, 74, 76
11, 19022, Control_c, 6, 74, 76
11, 19023, Control_c, 6, 7, 126
11, 19023, Control_c, 6, 74, 76
11, 19024, Control_c, 6, 7, 126
11, 19024, Control_c, 6, 74, 76
11, 19025, Control_c, 6, 7, 126
11, 19025, Control_c, 6, 74, 76
11, 19026, Control_c, 6, 74, 76
11, 19027, Control_c, 6, 7, 126
11, 19027, Control_c, 6, 74, 76
11, 19028, Control_c, 6, 7, 126
11, 19028, Control_c, 6, 74, 76
11, 19029, Control_c, 6, 7, 126
11, 19029, Control_c, 6, 74, 76
11, 19030, Control_c, 6, 74, 76
11, 19031, Control_c, 6, 7, 126
11, 19031, Control_c, 6, 74, 76
11, 19032, Control_c, 6, 7, 126
11, 19032, Control_c, 6, 74, 76
11, 19033, Control_c, 6, 74, 76
11, 19034, Control_c, 6, 7, 126
11, 19034, Control_c, 6, 74, 76
11, 19035, Control_c, 6, 7, 125
11, 19035, Control_c, 6, 74, 76
11, 19036, Control_c, 6, 7, 125
11, 19036, Control_c, 6, 74, 76
11, 19037, Control_c, 6, 74, 76
11, 19038, Control_c, 6, 7, 125
11, 19038, Control_c, 6, 74, 76
11, 19039, Control_c, 6, 7, 125
11, 19039, Control_c, 6, 74, 76
11, 19040, Control_c, 6, 7, 125
11, 19040, Control_c, 6, 74, 76
11, 19041, Control_c, 6, 74, 76
11, 19042, Control_c, 6, 7, 125
11, 19042, Control_c, 6, 74, 76
11, 19043, Control_c, 6, 7, 125
11, 19043, Control_c, 6, 74, 76
11, 19044, Control_c, 6, 7, 125
11, 19044, Control_c, 6, 74, 76
11, 19045, Control_c, 6, 74, 76
11, 19046, Control_c, 6, 7, 125
11, 19046, Control_c, 6, 74, 76
11, 19047, Control_c, 6, 7, 125
11, 19047, Control_c, 6, 74, 76
11, 19048, Control_c, 6, 7, 125
11, 19048, Control_c, 6, 74, 76
11, 19049, Control_c, 6, 74, 76
11, 19050, Control_c, 6, 7, 125
11, 19050, Control_c, 6, 74, 76
11, 19051, Control_c, 6, 7, 125
11, 19051, Control_c, 6, 74, 75
11, 19052, Control_c, 6, 7, 125
11, 19052, Control_c, 6, 74, 75
11, 19053, Control_c, 6, 74, 75
11, 19054, Control_c, 6, 7, 125
11, 19054, Control_c, 6, 74, 75
11, 19055, Control_c, 6, 7, 125
11, 19055, Control_c, 6, 74, 75
11, 19056, Control_c, 6, 7, 125
11, 19056, Control_c, 6, 74, 75
11, 19057, Control_c, 6, 74, 75
11, 19058, Control_c, 6, 7, 125
11, 19058, Control_c, 6, 74, 75
11, 19059, Control_c, 6, 7, 125
11, 19059, Control_c, 6, 74, 75
11, 19060, Control_c, 6, 7, 125
11, 19060, Control_c, 6, 74, 75
11, 19061, Control_c, 6, 74, 75
11, 19062, Control_c, 6, 7, 125
11, 19062, Control_c, 6, 74, 75
11, 19063, Control_c, 6, 7, 125
11, 19063, Control_c, 6, 74, 75
11, 19064, Control_c, 6, 7, 125
11, 19064, Control_c, 6, 74, 75
11, 19065, Control_c, 6, 74, 75
11, 19066, Control_c, 6, 7, 125
11, 19066, Control_c, 6, 74, 75
11, 19067, Control_c, 6, 7, 125
11, 19067, Control_c, 6, 74, 75
11, 19068, Control_c, 6, 7, 125
11, 19068, Control_c, 6, 74, 75
11, 19069, Control_c, 6, 74, 75
11, 19070, Control_c, 6, 7, 125
11, 19070, Control_c, 6, 74, 75
11, 19071, Control_c, 6, 7, 125
11, 19071, Control_c, 6, 74, 75
11, 19072, Control_c, 6, 7, 125
11, 19072, Control_c, 6, 74, 75
11, 19073, Control_c, 6, 74, 75
11, 19074, Control_c, 6, 7, 125
11, 19074, Control_c, 6, 74, 75
11, 19075, Control_c, 6, 7, 125
11, 19075, Control_c, 6, 74, 75
11, 19076, Control_c, 6, 7, 125
11, 19076, Control_c, 6, 74, 75
11, 19077, Control_c, 6, 74, 75
11, 19078, Control_c, 6, 7, 125
11, 19078, Control_c, 6, 74, 75
11, 19079, Control_c, 6, 7, 125
11, 19079, Control_c, 6, 74, 75
11, 19080, Control_c, 6, 7, 125
11, 19080, Control_c, 6, 74, 75
11, 19081, Control_c, 6, 74, 75
11, 19082, Control_c, 6, 7, 125
11, 19082, Control_c, 6, 74, 75
11, 19083, Control_c, 6, 7, 125
11, 19083, Control_c, 6, 74, 75
11, 19084, Control_c, 6, 7, 125
11, 19084, Control_c, 6, 74, 75
11, 19085, Control_c, 6, 74, 75
11, 19086, Control_c, 6, 7, 125
11, 19086, Control_c, 6, 74, 75
11, 19087, Control_c, 6, 7, 125
11, 19087, Control_c, 6, 74, 75
11, 19088, Control_c, 6, 7, 125
11, 19088, Control_c, 6, 74, 75
11, 19089, Control_c, 6, 74, 75
11, 19090, Control_c, 6, 7, 125
11, 19090, Control_c, 6, 74, 75
11, 19091, Control_c, 6, 7, 125
11, 19091, Control_c, 6, 74, 75
11, 19092, Control_c, 6, 7, 125
11, 19092, Control_c, 6, 74, 75
11, 19093, Control_c, 6, 74, 74
11, 19094, Control_c, 6, 7, 125
11, 19094, Control_c, 6, 74, 74
11, 19095, Control_c, 6, 7, 125
11, 19095, Control_c, 6, 74, 74
11, 19096, Control_c, 6, 7, 125
11, 19096, Control_c, 6, 74, 74
11, 19097, Control_c, 6, 74, 74
11, 19098, Control_c, 6, 7, 125
11, 19098, Control_c, 6, 74, 74
11, 19099, Control_c, 6, 7, 125
11, 19099, Control_c, 6, 74, 74
11, 19100, Control_c, 6, 7, 125
11, 19100, Control_c, 6, 74, 74
11, 19101, Control_c, 6, 74, 74
11, 19102, Control_c, 6, 7, 125
11, 19102, Control_c, 6, 74, 74
11, 19103, Control_c, 6, 7, 125
11, 19103, Control_c, 6, 74, 74
11, 19104, Control_c, 6, 7, 125
11, 19104, Control_c, 6, 74, 74
11, 19105, Control_c, 6, 74, 74
11, 19106, Control_c, 6, 7, 125
11, 19106, Control_c, 6, 74, 74
11, 19107, Control_c, 6, 7, 125
11, 19107, Control_c, 6, 74, 74
11, 19108, Control_c, 6, 7, 125
11, 19108, Control_c, 6, 74, 74
11, 19109, Control_c, 6, 74, 74
11, 19110, Control_c, 6, 7, 125
11, 19110, Control_c, 6, 74, 74
11, 19111, Control_c, 6, 7, 125
11, 19111, Control_c, 6, 74, 74
11, 19112, Control_c, 6, 7, 125
11, 19112, Control_c, 6, 74, 74
11, 19113, Control_c, 6, 74, 74
11, 19114, Control_c, 6, 7, 125
11, 19114, Control_c, 6, 74, 74
11, 19115, Control_c, 6, 7, 125
11, 19115, Control_c, 6, 74, 74
11, 19116, Control_c, 6, 7, 125
11, 19116, Control_c, 6, 74, 74
11, 19117, Control_c, 6, 74, 74
11, 19118, Control_c, 6, 7, 125
11, 19118, Control_c, 6, 74, 74
11, 19119, Control_c, 6, 7, 125
11, 19119, Control_c, 6, 74, 74
11, 19120, Control_c, 6, 7, 125
11, 19120, Control_c, 6, 74, 74
11, 19121, Control_c, 6, 74, 74
11, 19122, Control_c, 6, 7, 125
11, 19122, Control_c, 6, 74, 74
11, 19123, Control_c, 6, 7, 125
11, 19123, Control_c, 6, 74, 74
11, 19124, Control_c, 6, 7, 125
11, 19124, Control_c, 6, 74, 74
11, 19125, Control_c, 6, 74, 74
11, 19126, Control_c, 6, 7, 125
11, 19126, Control_c, 6, 74, 74
11, 19127, Control_c, 6, 7, 125
11, 19127, Control_c, 6, 74, 74
11, 19128, Control_c, 6, 7, 125
11, 19128, Control_c, 6, 74, 74
11, 19129, Control_c, 6, 74, 74
11, 19130, Control_c, 6, 7, 125
11, 19130, Control_c, 6, 74, 74
11, 19131, Control_c, 6, 7, 125
11, 19131, Control_c, 6, 74, 74
11, 19132, Control_c, 6, 7, 125
11, 19132, Control_c, 6, 74, 74
11, 19133, Control_c, 6, 74, 74
11, 19134, Control_c, 6, 7, 125
11, 19134, Control_c, 6, 74, 73
11, 19135, Control_c, 6, 7, 125
11, 19135, Control_c, 6, 74, 73
11, 19136, Control_c, 6, 7, 125
11, 19136, Control_c, 6, 74, 73
11, 19137, Control_c, 6, 74, 73
11, 19138, Control_c, 6, 7, 125
11, 19138, Control_c, 6, 74, 73
11, 19139, Control_c, 6, 7, 125
11, 19139, Control_c, 6, 74, 73
11, 19140, Control_c, 6, 7, 125
11, 19140, Control_c, 6, 74, 73
11, 19141, Control_c, 6, 74, 73
11, 19142, Control_c, 6, 7, 125
11, 19142, Control_c, 6, 74, 73
11, 19143, Control_c, 6, 7, 125
11, 19143, Control_c, 6, 74, 73
11, 19144, Control_c, 6, 7, 125
11, 19144, Control_c, 6, 74, 73
11, 19145, Control_c, 6, 74, 73
11, 19146, Control_c, 6, 7, 125
11, 19146, Control_c, 6, 74, 73
11, 19147, Control_c, 6, 7, 125
11, 19147, Control_c, 6, 74, 73
11, 19148, Control_c, 6, 7, 125
11, 19148, Control_c, 6, 74, 73
11, 19149, Control_c, 6, 74, 73
11, 19150, Control_c, 6, 7, 125
11, 19150, Control_c, 6, 74, 73
11, 19151, Control_c, 6, 7, 125
11, 19151, Control_c, 6, 74, 73
11, 19152, Control_c, 6, 7, 125
11, 19152, Control_c, 6, 74, 73
11, 19153, Control_c, 6, 74, 73
11, 19154, Control_c, 6, 7, 125
11, 19154, Control_c, 6, 74, 73
11, 19155, Control_c, 6, 7, 125
11, 19155, Control_c, 6, 74, 73
11, 19156, Control_c, 6, 7, 125
11, 19156, Control_c, 6, 74, 73
11, 19157, Control_c, 6, 74, 73
11, 19158, Control_c, 6, 7, 125
11, 19158, Control_c, 6, 74, 73
11, 19159, Control_c, 6, 7, 125
11, 19159, Control_c, 6, 74, 73
11, 19160, Control_c, 6, 7, 125
11, 19160, Control_c, 6, 74, 73
11, 19161, Control_c, 6, 74, 73
11, 19162, Control_c, 6, 7, 125
11, 19162, Control_c, 6, 74, 73
11, 19163, Control_c, 6, 7, 125
11, 19163, Control_c, 6, 74, 73
11, 19164, Control_c, 6, 7, 125
11, 19164, Control_c, 6, 74, 73
11, 19165, Control_c, 6, 74, 73
11, 19166, Control_c, 6, 7, 125
11, 19166, Control_c, 6, 74, 73
11, 19167, Control_c, 6, 7, 125
11, 19167, Control_c, 6, 74, 73
11, 19168, Control_c, 6, 7, 125
11, 19168, Control_c, 6, 74, 73
11, 19169, Control_c, 6, 74, 73
11, 19170, Control_c, 6, 7, 125
11, 19170, Control_c, 6, 74, 73
11, 19171, Control_c, 6, 7, 125
11, 19171, Control_c, 6, 74, 73
11, 19172, Control_c, 6, 7, 125
11, 19172, Control_c, 6, 74, 73
11, 19173, Control_c, 6, 74, 73
11, 19174, Control_c, 6, 7, 125
11, 19174, Control_c, 6, 74, 73
11, 19175, Control_c, 6, 7, 125
11, 19175, Control_c, 6, 74, 73
11, 19176, Control_c, 6, 7, 125
11, 19176, Control_c, 6, 74, 72
11, 19177, Control_c, 6, 74, 72
11, 19178, Control_c, 6, 7, 125
11, 19178, Control_c, 6, 74, 72
11, 19179, Control_c, 6, 7, 125
11, 19179, Control_c, 6, 74, 72
11, 19180, Control_c, 6, 7, 125
11, 19180, Control_c, 6, 74, 72
11, 19181, Control_c, 6, 74, 72
11, 19182, Control_c, 6, 7, 125
11, 19182, Control_c, 6, 74, 72
11, 19183, Control_c, 6, 7, 125
11, 19183, Control_c, 6, 74, 72
11, 19184, Control_c, 6, 7, 125
11, 19184, Control_c, 6, 74, 72
11, 19185, Control_c, 6, 74, 72
11, 19186, Control_c, 6, 7, 125
11, 19186, Control_c, 6, 74, 72
11, 19187, Control_c, 6, 7, 125
11, 19187, Control_c, 6, 74, 72
11, 19188, Control_c, 6, 7, 125
11, 19188, Control_c, 6, 74, 72
11, 19189, Control_c, 6, 74, 72
11, 19190, Control_c, 6, 7, 125
11, 19190, Control_c, 6, 74, 72
11, 19191, Control_c, 6, 7, 125
11, 19191, Control_c, 6, 74, 72
11, 19192, Control_c, 6, 7, 125
11, 19192, Control_c, 6, 74, 72
11, 19193, Control_c, 6, 74, 72
11, 19194, Control_c, 6, 7, 125
11, 19194, Control_c, 6, 74, 72
11, 19195, Control_c, 6, 7, 125
11, 19195, Control_c, 6, 74, 72
11, 19196, Control_c, 6, 7, 125
11, 19196, Control_c, 6, 74, 72
11, 19197, Control_c, 6, 74, 72
11, 19198, Control_c, 6, 7, 125
11, 19198, Control_c, 6, 74, 72
11, 19199, Control_c, 6, 7, 125
11, 19199, Control_c, 6, 74, 72
11, 19200, Control_c, 6, 7, 125
11, 19200, Control_c, 6, 74, 72
11, 19201, Control_c, 6, 74, 72
11, 19202, Control_c, 6, 7, 125
11, 19202, Control_c, 6, 74, 72
11, 19203, Control_c, 6, 7, 125
11, 19203, Control_c, 6, 74, 72
11, 19204, Control_c, 6, 74, 72
11, 19205, Control_c, 6, 7, 125
11, 19205, Control_c, 6, 74, 72
11, 19206, Control_c, 6, 7, 125
11, 19206, Control_c, 6, 74, 72
11, 19207, Control_c, 6, 7, 125
11, 19207, Control_c, 6, 74, 72
11, 19208, Control_c, 6, 74, 72
11, 19209, Control_c, 6, 7, 125
11, 19209, Control_c, 6, 74, 72
11, 19210, Control_c, 6, 7, 125
11, 19210, Control_c, 6, 74, 72
11, 19211, Control_c, 6, 7, 125
11, 19211, Control_c, 6, 74, 72
11, 19212, Control_c, 6, 74, 72
11, 19213, Control_c, 6, 7, 125
11, 19213, Control_c, 6, 74, 72
11, 19214, Control_c, 6, 7, 125
11, 19214, Control_c, 6, 74, 72
11, 19215, Control_c, 6, 7, 125
11, 19215, Control_c, 6, 74, 72
11, 19216, Control_c, 6, 74, 72
11, 19217, Control_c, 6, 7, 125
11, 19217, Control_c, 6, 74, 71
11, 19218, Control_c, 6, 7, 125
11, 19218, Control_c, 6, 74, 71
11, 19219, Control_c, 6, 7, 125
11, 19219, Control_c, 6, 74, 71
11, 19220, Control_c, 6, 74, 71
11, 19221, Control_c, 6, 7, 125
11, 19221, Control_c, 6, 74, 71
11, 19222, Control_c, 6, 7, 125
11, 19222, Control_c, 6, 74, 71
11, 19223, Control_c, 6, 7, 125
11, 19223, Control_c, 6, 74, 71
11, 19224, Control_c, 6, 74, 71
11, 19225, Control_c, 6, 7, 125
11, 19225, Control_c, 6, 74, 71
11, 19226, Control_c, 6, 7, 125
11, 19226, Control_c, 6, 74, 71
11, 19227, Control_c, 6, 7, 125
11, 19227, Control_c, 6, 74, 71
11, 19228, Control_c, 6, 74, 71
11, 19229, Control_c, 6, 7, 125
11, 19229, Control_c, 6, 74, 71
11, 19230, Control_c, 6, 7, 125
11, 19230, Control_c, 6, 74, 71
11, 19231, Control_c, 6, 7, 125
11, 19231, Control_c, 6, 74, 71
11, 19232, Control_c, 6, 74, 71
11, 19233, Control_c, 6, 7, 125
11, 19233, Control_c, 6, 74, 71
11, 19234, Control_c, 6, 7, 125
11, 19234, Control_c, 6, 74, 71
11, 19235, Control_c, 6, 7, 125
11, 19235, Control_c, 6, 74, 71
11, 19236, Control_c, 6, 74, 71
11, 19237, Control_c, 6, 7, 125
11, 19237, Control_c, 6, 74, 71
11, 19238, Control_c, 6, 7, 125
11, 19238, Control_c, 6, 74, 71
11, 19239, Control_c, 6, 7, 125
11, 19239, Control_c, 6, 74, 71
11, 19240, Control_c, 6, 74, 71
11, 19241, Control_c, 6, 7, 125
11, 19241, Control_c, 6, 74, 71
11, 19242, Control_c, 6, 7, 125
11, 19242, Control_c, 6, 74, 71
11, 19243, Control_c, 6, 7, 125
11, 19243, Control_c, 6, 74, 71
11, 19244, Control_c, 6, 74, 71
11, 19245, Control_c, 6, 7, 125
11, 19245, Control_c, 6, 74, 71
11, 19246, Control_c, 6, 7, 125
11, 19246, Control_c, 6, 74, 71
11, 19247, Control_c, 6, 7, 125
11, 19247, Control_c, 6, 74, 71
11, 19248, Control_c, 6, 74, 71
11, 19249, Control_c, 6, 7, 125
11, 19249, Control_c, 6, 74, 71
11, 19250, Control_c, 6, 7, 125
11, 19250, Control_c, 6, 74, 71
11, 19251, Control_c, 6, 7, 125
11, 19251, Control_c, 6, 74, 71
11, 19252, Control_c, 6, 74, 71
11, 19253, Control_c, 6, 7, 125
11, 19253, Control_c, 6, 74, 71
11, 19254, Control_c, 6, 7, 125
11, 19254, Control_c, 6, 74, 71
11, 19255, Control_c, 6, 7, 125
11, 19255, Control_c, 6, 74, 71
11, 19256, Control_c, 6, 74, 71
11, 19257, Control_c, 6, 7, 125
11, 19257, Control_c, 6, 74, 71
11, 19258, Control_c, 6, 7, 125
11, 19258, Control_c, 6, 74, 70
11, 19259, Control_c, 6, 7, 125
11, 19259, Control_c, 6, 74, 70
11, 19260, Control_c, 6, 74, 70
11, 19261, Control_c, 6, 7, 125
11, 19261, Control_c, 6, 74, 70
11, 19262, Control_c, 6, 7, 125
11, 19262, Control_c, 6, 74, 70
11, 19263, Control_c, 6, 7, 125
11, 19263, Control_c, 6, 74, 70
11, 19264, Control_c, 6, 74, 70
11, 19265, Control_c, 6, 7, 125
11, 19265, Control_c, 6, 74, 70
11, 19266, Control_c, 6, 7, 125
11, 19266, Control_c, 6, 74, 70
11, 19267, Control_c, 6, 7, 125
11, 19267, Control_c, 6, 74, 70
11, 19268, Control_c, 6, 74, 70
11, 19269, Control_c, 6, 7, 125
11, 19269, Control_c, 6, 74, 70
11, 19270, Control_c, 6, 7, 125
11, 19270, Control_c, 6, 74, 70
11, 19271, Control_c, 6, 7, 125
11, 19271, Control_c, 6, 74, 70
11, 19272, Control_c, 6, 74, 70
11, 19273, Control_c, 6, 7, 125
11, 19273, Control_c, 6, 74, 70
11, 19274, Control_c, 6, 7, 125
11, 19274, Control_c, 6, 74, 70
11, 19275, Control_c, 6, 7, 125
11, 19275, Control_c, 6, 74, 70
11, 19276, Control_c, 6, 74, 70
11, 19277, Control_c, 6, 7, 125
11, 19277, Control_c, 6, 74, 70
11, 19278, Control_c, 6, 7, 125
11, 19278, Control_c, 6, 74, 70
11, 19279, Control_c, 6, 7, 125
11, 19279, Control_c, 6, 74, 70
11, 19280, Control_c, 6, 74, 70
11, 19281, Control_c, 6, 7, 125
11, 19281, Control_c, 6, 74, 70
11, 19282, Control_c, 6, 7, 125
11, 19282, Control_c, 6, 74, 70
11, 19283, Control_c, 6, 7, 125
11, 19283, Control_c, 6, 74, 70
11, 19284, Control_c, 6, 74, 70
11, 19285, Control_c, 6, 7, 125
11, 19285, Control_c, 6, 74, 70
11, 19286, Control_c, 6, 7, 125
11, 19286, Control_c, 6, 74, 70
11, 19287, Control_c, 6, 7, 125
11, 19287, Control_c, 6, 74, 70
11, 19288, Control_c, 6, 74, 70
11, 19289, Control_c, 6, 7, 125
11, 19289, Control_c, 6, 74, 70
11, 19290, Control_c, 6, 7, 125
11, 19290, Control_c, 6, 74, 70
11, 19291, Control_c, 6, 7, 125
11, 19291, Control_c, 6, 74, 70
11, 19292, Control_c, 6, 74, 70
11, 19293, Control_c, 6, 7, 125
11, 19293, Control_c, 6, 74, 70
11, 19294, Control_c, 6, 7, 125
11, 19294, Control_c, 6, 74, 70
11, 19295, Control_c, 6, 7, 125
11, 19295, Control_c, 6, 74, 70
11, 19296, Control_c, 6, 74, 70
11, 19297, Control_c, 6, 7, 125
11, 19297, Control_c, 6, 74, 70
11, 19298, Control_c, 6, 7, 125
11, 19298, Control_c, 6, 74, 70
11, 19299, Control_c, 6, 7, 125
11, 19299, Control_c, 6, 74, 70
11, 19300, Control_c, 6, 74, 69
11, 19301, Control_c, 6, 7, 125
11, 19301, Control_c, 6, 74, 69
11, 19302, Control_c, 6, 7, 125
11, 19302, Control_c, 6, 74, 69
11, 19303, Control_c, 6, 7, 125
11, 19303, Control_c, 6, 74, 69
11, 19304, Control_c, 6, 74, 69
11, 19305, Control_c, 6, 7, 125
11, 19305, Control_c, 6, 74, 69
11, 19306, Control_c, 6, 7, 125
11, 19306, Control_c, 6, 74, 69
11, 19307, Control_c, 6, 7, 125
11, 19307, Control_c, 6, 74, 69
11, 19308, Control_c, 6, 74, 69
11, 19309, Control_c, 6, 7, 125
11, 19309, Control_c, 6, 74, 69
11, 19310, Control_c, 6, 7, 125
11, 19310, Control_c, 6, 74, 69
11, 19311, Control_c, 6, 7, 125
11, 19311, Control_c, 6, 74, 69
11, 19312, Control_c, 6, 74, 69
11, 19313, Control_c, 6, 7, 125
11, 19313, Control_c, 6, 74, 69
11, 19314, Control_c, 6, 7, 125
11, 19314, Control_c, 6, 74, 69
11, 19315, Control_c, 6, 7, 125
11, 19315, Control_c, 6, 74, 69
11, 19316, Control_c, 6, 74, 69
11, 19317, Control_c, 6, 7, 125
11, 19317, Control_c, 6, 74, 69
11, 19318, Control_c, 6, 7, 125
11, 19318, Control_c, 6, 74, 69
11, 19319, Control_c, 6, 7, 125
11, 19319, Control_c, 6, 74, 69
11, 19320, Control_c, 6, 74, 69
11, 19321, Control_c, 6, 7, 125
11, 19321, Control_c, 6, 74, 69
11, 19322, Control_c, 6, 7, 125
11, 19322, Control_c, 6, 74, 69
11, 19323, Control_c, 6, 7, 125
11, 19323, Control_c, 6, 74, 69
11, 19324, Control_c, 6, 74, 69
11, 19325, Control_c, 6, 7, 125
11, 19325, Control_c, 6, 74, 69
11, 19326, Control_c, 6, 7, 125
11, 19326, Control_c, 6, 74, 69
11, 19327, Control_c, 6, 7, 125
11, 19327, Control_c, 6, 74, 69
11, 19328, Control_c, 6, 74, 69
11, 19329, Control_c, 6, 7, 125
11, 19329, Control_c, 6, 74, 69
11, 19330, Control_c, 6, 7, 125
11, 19330, Control_c, 6, 74, 69
11, 19331, Control_c, 6, 7, 125
11, 19331, Control_c, 6, 74, 69
11, 19332, Control_c, 6, 74, 69
11, 19333, Control_c, 6, 7, 125
11, 19333, Control_c, 6, 74, 69
11, 19334, Control_c, 6, 7, 125
11, 19334, Control_c, 6, 74, 69
11, 19335, Control_c, 6, 7, 125
11, 19335, Control_c, 6, 74, 69
11, 19336, Control_c, 6, 74, 69
11, 19337, Control_c, 6, 7, 125
11, 19337, Control_c, 6, 74, 69
11, 19338, Control_c, 6, 7, 125
11, 19338, Control_c, 6, 74, 69
11, 19339, Control_c, 6, 7, 125
11, 19339, Control_c, 6, 74, 69
11, 19340, Control_c, 6, 74, 69
11, 19341, Control_c, 6, 7, 125
11, 19341, Control_c, 6, 74, 68
11, 19342, Control_c, 6, 7, 125
11, 19342, Control_c, 6, 74, 68
11, 19343, Control_c, 6, 7, 125
11, 19343, Control_c, 6, 74, 68
11, 19344, Control_c, 6, 74, 68
11, 19345, Control_c, 6, 7, 125
11, 19345, Control_c, 6, 74, 68
11, 19346, Control_c, 6, 7, 125
11, 19346, Control_c, 6, 74, 68
11, 19347, Control_c, 6, 7, 125
11, 19347, Control_c, 6, 74, 68
11, 19348, Control_c, 6, 74, 68
11, 19349, Control_c, 6, 7, 125
11, 19349, Control_c, 6, 74, 68
11, 19350, Control_c, 6, 7, 125
11, 19350, Control_c, 6, 74, 68
11, 19351, Control_c, 6, 7, 125
11, 19351, Control_c, 6, 74, 68
11, 19352, Control_c, 6, 74, 68
11, 19353, Control_c, 6, 7, 125
11, 19353, Control_c, 6, 74, 68
11, 19354, Control_c, 6, 7, 125
11, 19354, Control_c, 6, 74, 68
11, 19355, Control_c, 6, 7, 125
11, 19355, Control_c, 6, 74, 68
11, 19356, Control_c, 6, 74, 68
11, 19357, Control_c, 6, 7, 125
11, 19357, Control_c, 6, 74, 68
11, 19358, Control_c, 6, 7, 125
11, 19358, Control_c, 6, 74, 68
11, 19359, Control_c, 6, 7, 125
11, 19359, Control_c, 6, 74, 68
11, 19360, Control_c, 6, 74, 68
11, 19361, Control_c, 6, 7, 125
11, 19361, Control_c, 6, 74, 68
11, 19362, Control_c, 6, 7, 125
11, 19362, Control_c, 6, 74, 68
11, 19363, Control_c, 6, 7, 125
11, 19363, Control_c, 6, 74, 68
11, 19364, Control_c, 6, 74, 68
11, 19365, Control_c, 6, 7, 125
11, 19365, Control_c, 6, 74, 68
11, 19366, Control_c, 6, 7, 125
11, 19366, Control_c, 6, 74, 68
11, 19367, Control_c, 6, 7, 125
11, 19367, Control_c, 6, 74, 68
11, 19368, Control_c, 6, 74, 68
11, 19369, Control_c, 6, 7, 125
11, 19369, Control_c, 6, 74, 68
11, 19370, Control_c, 6, 7, 125
11, 19370, Control_c, 6, 74, 68
11, 19371, Control_c, 6, 7, 125
11, 19371, Control_c, 6, 74, 68
11, 19372, Control_c, 6, 74, 68
11, 19373, Control_c, 6, 7, 125
11, 19373, Control_c, 6, 74, 68
11, 19374, Control_c, 6, 7, 125
11, 19374, Control_c, 6, 74, 68
11, 19375, Control_c, 6, 7, 125
11, 19375, Control_c, 6, 74, 68
11, 19376, Control_c, 6, 74, 68
11, 19377, Control_c, 6, 7, 125
11, 19377, Control_c, 6, 74, 68
11, 19378, Control_c, 6, 7, 125
11, 19378, Control_c, 6, 74, 68
11, 19379, Control_c, 6, 74, 68
11, 19380, Control_c, 6, 7, 125
11, 19380, Control_c, 6, 74, 68
11, 19381, Control_c, 6, 7, 125
11, 19381, Control_c, 6, 74, 68
11, 19382, Control_c, 6, 7, 125
11, 19382, Control_c, 6, 74, 68
11, 19383, Control_c, 6, 74, 67
11, 19384, Control_c, 6, 7, 125
11, 19384, Control_c, 6, 74, 67
11, 19385, Control_c, 6, 7, 125
11, 19385, Control_c, 6, 74, 67
11, 19386, Control_c, 6, 7, 125
11, 19386, Control_c, 6, 74, 67
11, 19387, Control_c, 6, 74, 67
11, 19388, Control_c, 6, 7, 125
11, 19388, Control_c, 6, 74, 67
11, 19389, Control_c, 6, 7, 125
11, 19389, Control_c, 6, 74, 67
11, 19390, Control_c, 6, 7, 125
11, 19390, Control_c, 6, 74, 67
11, 19391, Control_c, 6, 74, 67
11, 19392, Control_c, 6, 7, 125
11, 19392, Control_c, 6, 74, 67
11, 19393, Control_c, 6, 7, 125
11, 19393, Control_c, 6, 74, 67
11, 19394, Control_c, 6, 7, 125
11, 19394, Control_c, 6, 74, 67
11, 19395, Control_c, 6, 74, 67
11, 19396, Control_c, 6, 7, 125
11, 19396, Control_c, 6, 74, 67
11, 19397, Control_c, 6, 7, 125
11, 19397, Control_c, 6, 74, 67
11, 19398, Control_c, 6, 7, 125
11, 19398, Control_c, 6, 74, 67
11, 19399, Control_c, 6, 74, 67
11, 19400, Control_c, 6, 7, 125
11, 19400, Control_c, 6, 74, 67
11, 19401, Control_c, 6, 7, 125
11, 19401, Control_c, 6, 74, 67
11, 19402, Control_c, 6, 7, 125
11, 19402, Control_c, 6, 74, 67
11, 19403, Control_c, 6, 74, 67
11, 19404, Control_c, 6, 7, 125
11, 19404, Control_c, 6, 74, 67
11, 19405, Control_c, 6, 7, 125
11, 19405, Control_c, 6, 74, 67
11, 19406, Control_c, 6, 7, 125
11, 19406, Control_c, 6, 74, 67
11, 19407, Control_c, 6, 74, 67
11, 19408, Control_c, 6, 7, 125
11, 19408, Control_c, 6, 74, 67
11, 19409, Control_c, 6, 7, 125
11, 19409, Control_c, 6, 74, 67
11, 19410, Control_c, 6, 7, 125
11, 19410, Control_c, 6, 74, 67
11, 19411, Control_c, 6, 74, 67
11, 19412, Control_c, 6, 7, 125
11, 19412, Control_c, 6, 74, 67
11, 19413, Control_c, 6, 7, 125
11, 19413, Control_c, 6, 74, 67
11, 19414, Control_c, 6, 7, 125
11, 19414, Control_c, 6, 74, 67
11, 19415, Control_c, 6, 74, 67
11, 19416, Control_c, 6, 7, 125
11, 19416, Control_c, 6, 74, 67
11, 19417, Control_c, 6, 7, 125
11, 19417, Control_c, 6, 74, 67
11, 19418, Control_c, 6, 7, 125
11, 19418, Control_c, 6, 74, 67
11, 19419, Control_c, 6, 74, 67
11, 19420, Control_c, 6, 7, 125
11, 19420, Control_c, 6, 74, 67
11, 19421, Control_c, 6, 7, 125
11, 19421, Control_c, 6, 74, 67
11, 19422, Control_c, 6, 7, 125
11, 19422, Control_c, 6, 74, 67
11, 19423, Control_c, 6, 74, 67
11, 19424, Control_c, 6, 7, 125
11, 19424, Control_c, 6, 74, 66
11, 19425, Control_c, 6, 7, 125
11, 19425, Control_c, 6, 74, 66
11, 19426, Control_c, 6, 7, 125
11, 19426, Control_c, 6, 74, 66
11, 19427, Control_c, 6, 74, 66
11, 19428, Control_c, 6, 7, 125
11, 19428, Control_c, 6, 74, 66
11, 19429, Control_c, 6, 7, 125
11, 19429, Control_c, 6, 74, 66
11, 19430, Control_c, 6, 7, 125
11, 19430, Control_c, 6, 74, 66
11, 19431, Control_c, 6, 74, 66
11, 19432, Control_c, 6, 7, 125
11, 19432, Control_c, 6, 74, 66
11, 19433, Control_c, 6, 7, 125
11, 19433, Control_c, 6, 74, 66
11, 19434, Control_c, 6, 7, 125
11, 19434, Control_c, 6, 74, 66
11, 19435, Control_c, 6, 74, 66
11, 19436, Control_c, 6, 7, 125
11, 19436, Control_c, 6, 74, 66
11, 19437, Control_c, 6, 7, 125
11, 19437, Control_c, 6, 74, 66
11, 19438, Control_c, 6, 7, 125
11, 19438, Control_c, 6, 74, 66
11, 19439, Control_c, 6, 74, 66
11, 19440, Control_c, 6, 7, 125
11, 19440, Control_c, 6, 74, 66
11, 19441, Control_c, 6, 7, 125
11, 19441, Control_c, 6, 74, 66
11, 19442, Control_c, 6, 7, 125
11, 19442, Control_c, 6, 74, 66
11, 19443, Control_c, 6, 74, 66
11, 19444, Control_c, 6, 7, 125
11, 19444, Control_c, 6, 74, 66
11, 19445, Control_c, 6, 7, 125
11, 19445, Control_c, 6, 74, 66
11, 19446, Control_c, 6, 7, 125
11, 19446, Control_c, 6, 74, 66
11, 19447, Control_c, 6, 74, 66
11, 19448, Control_c, 6, 7, 125
11, 19448, Control_c, 6, 74, 66
11, 19449, Control_c, 6, 7, 125
11, 19449, Control_c, 6, 74, 66
11, 19450, Control_c, 6, 7, 125
11, 19450, Control_c, 6, 74, 66
11, 19451, Control_c, 6, 74, 66
11, 19452, Control_c, 6, 7, 125
11, 19452, Control_c, 6, 74, 66
11, 19453, Control_c, 6, 7, 125
11, 19453, Control_c, 6, 74, 66
11, 19454, Control_c, 6, 7, 125
11, 19454, Control_c, 6, 74, 66
11, 19455, Control_c, 6, 74, 66
11, 19456, Control_c, 6, 7, 125
11, 19456, Control_c, 6, 74, 66
11, 19457, Control_c, 6, 7, 125
11, 19457, Control_c, 6, 74, 66
11, 19458, Control_c, 6, 7, 125
11, 19458, Control_c, 6, 74, 66
11, 19459, Control_c, 6, 74, 66
11, 19460, Control_c, 6, 7, 125
11, 19460, Control_c, 6, 74, 66
11, 19461, Control_c, 6, 7, 125
11, 19461, Control_c, 6, 74, 66
11, 19462, Control_c, 6, 7, 125
11, 19462, Control_c, 6, 74, 66
11, 19463, Control_c, 6, 74, 66
11, 19464, Control_c, 6, 7, 125
11, 19464, Control_c, 6, 74, 66
11, 19465, Control_c, 6, 7, 125
11, 19465, Control_c, 6, 74, 66
11, 19466, Control_c, 6, 7, 125
11, 19466, Control_c, 6, 74, 65
11, 19467, Control_c, 6, 74, 65
11, 19468, Control_c, 6, 7, 125
11, 19468, Control_c, 6, 74, 65
11, 19469, Control_c, 6, 7, 125
11, 19469, Control_c, 6, 74, 65
11, 19470, Control_c, 6, 7, 125
11, 19470, Control_c, 6, 74, 65
11, 19471, Control_c, 6, 74, 65
11, 19472, Control_c, 6, 7, 125
11, 19472, Control_c, 6, 74, 65
11, 19473, Control_c, 6, 7, 125
11, 19473, Control_c, 6, 74, 65
11, 19474, Control_c, 6, 7, 125
11, 19474, Control_c, 6, 74, 65
11, 19475, Control_c, 6, 74, 65
11, 19476, Control_c, 6, 7, 125
11, 19476, Control_c, 6, 74, 65
11, 19477, Control_c, 6, 7, 125
11, 19477, Control_c, 6, 74, 65
11, 19478, Control_c, 6, 7, 125
11, 19478, Control_c, 6, 74, 65
11, 19479, Control_c, 6, 74, 65
11, 19480, Control_c, 6, 7, 125
11, 19480, Control_c, 6, 74, 65
11, 19481, Control_c, 6, 7, 125
11, 19481, Control_c, 6, 74, 65
11, 19482, Control_c, 6, 7, 125
11, 19482, Control_c, 6, 74, 65
11, 19483, Control_c, 6, 74, 65
11, 19484, Control_c, 6, 7, 125
11, 19484, Control_c, 6, 74, 65
11, 19485, Control_c, 6, 7, 125
11, 19485, Control_c, 6, 74, 65
11, 19486, Control_c, 6, 7, 125
11, 19486, Control_c, 6, 74, 65
11, 19487, Control_c, 6, 74, 65
11, 19488, Control_c, 6, 7, 125
11, 19488, Control_c, 6, 74, 65
11, 19489, Control_c, 6, 7, 125
11, 19489, Control_c, 6, 74, 65
11, 19490, Control_c, 6, 7, 125
11, 19490, Control_c, 6, 74, 65
11, 19491, Control_c, 6, 74, 65
11, 19492, Control_c, 6, 7, 125
11, 19492, Control_c, 6, 74, 65
11, 19493, Control_c, 6, 7, 125
11, 19493, Control_c, 6, 74, 65
11, 19494, Control_c, 6, 7, 125
11, 19494, Control_c, 6, 74, 65
11, 19495, Control_c, 6, 74, 65
11, 19496, Control_c, 6, 7, 125
11, 19496, Control_c, 6, 74, 65
11, 19497, Control_c, 6, 7, 125
11, 19497, Control_c, 6, 74, 65
11, 19498, Control_c, 6, 7, 125
11, 19498, Control_c, 6, 74, 65
11, 19499, Control_c, 6, 74, 65
11, 19500, Control_c, 6, 7, 125
11, 19500, Control_c, 6, 74, 65
11, 19501, Control_c, 6, 7, 125
11, 19501, Control_c, 6, 74, 65
11, 19502, Control_c, 6, 7, 125
11, 19502, Control_c, 6, 74, 65
11, 19503, Control_c, 6, 74, 65
11, 19504, Control_c, 6, 7, 125
11, 19504, Control_c, 6, 74, 65
11, 19505, Control_c, 6, 7, 125
11, 19505, Control_c, 6, 74, 65
11, 19506, Control_c, 6, 7, 125
11, 19506, Control_c, 6, 74, 65
11, 19507, Control_c, 6, 74, 64
11, 19508, Control_c, 6, 7, 125
11, 19508, Control_c, 6, 74, 64
11, 19509, Control_c, 6, 7, 125
11, 19509, Control_c, 6, 74, 64
11, 19510, Control_c, 6, 7, 125
11, 19510, Control_c, 6, 74, 64
11, 19511, Control_c, 6, 74, 64
11, 19512, Control_c, 6, 7, 125
11, 19512, Control_c, 6, 74, 64
11, 19513, Control_c, 6, 7, 125
11, 19513, Control_c, 6, 74, 64
11, 19514, Control_c, 6, 7, 125
11, 19514, Control_c, 6, 74, 64
11, 19515, Control_c, 6, 74, 64
11, 19516, Control_c, 6, 7, 125
11, 19516, Control_c, 6, 74, 64
11, 19517, Control_c, 6, 7, 125
11, 19517, Control_c, 6, 74, 64
11, 19518, Control_c, 6, 7, 125
11, 19518, Control_c, 6, 74, 64
11, 19519, Control_c, 6, 74, 64
11, 19520, Control_c, 6, 7, 125
11, 19520, Control_c, 6, 74, 64
11, 19521, Control_c, 6, 7, 125
11, 19521, Control_c, 6, 74, 64
11, 19522, Control_c, 6, 7, 125
11, 19522, Control_c, 6, 74, 64
11, 19523, Control_c, 6, 74, 64
11, 19524, Control_c, 6, 7, 125
11, 19524, Control_c, 6, 74, 64
11, 19525, Control_c, 6, 7, 125
11, 19525, Control_c, 6, 74, 64
11, 19526, Control_c, 6, 7, 125
11, 19526, Control_c, 6, 74, 64
11, 19527, Control_c, 6, 74, 64
11, 19528, Control_c, 6, 7, 125
11, 19528, Control_c, 6, 74, 64
11, 19529, Control_c, 6, 7, 125
11, 19529, Control_c, 6, 74, 64
11, 19530, Control_c, 6, 7, 125
11, 19530, Control_c, 6, 74, 64
11, 19531, Control_c, 6, 74, 64
11, 19532, Control_c, 6, 7, 125
11, 19532, Control_c, 6, 74, 64
11, 19533, Control_c, 6, 7, 125
11, 19533, Control_c, 6, 74, 64
11, 19534, Control_c, 6, 7, 125
11, 19534, Control_c, 6, 74, 64
11, 19535, Control_c, 6, 74, 64
11, 19536, Control_c, 6, 7, 125
11, 19536, Control_c, 6, 74, 64
11, 19537, Control_c, 6, 7, 125
11, 19537, Control_c, 6, 74, 64
11, 19538, Control_c, 6, 7, 125
11, 19538, Control_c, 6, 74, 64
11, 19539, Control_c, 6, 74, 64
11, 19540, Control_c, 6, 7, 125
11, 19540, Control_c, 6, 74, 64
11, 19541, Control_c, 6, 7, 125
11, 19541, Control_c, 6, 74, 64
11, 19542, Control_c, 6, 7, 125
11, 19542, Control_c, 6, 74, 64
11, 19543, Control_c, 6, 74, 64
11, 19544, Control_c, 6, 7, 125
11, 19544, Control_c, 6, 74, 64
11, 19545, Control_c, 6, 7, 125
11, 19545, Control_c, 6, 74, 64
11, 19546, Control_c, 6, 7, 125
11, 19546, Control_c, 6, 74, 64
11, 19547, Control_c, 6, 74, 64
11, 19548, Control_c, 6, 7, 125
11, 19548, Control_c, 6, 74, 64
11, 19549, Control_c, 6, 7, 125
11, 19549, Control_c, 6, 74, 63
11, 19550, Control_c, 6, 74, 63
11, 19551, Control_c, 6, 7, 125
11, 19551, Control_c, 6, 74, 63
11, 19552, Control_c, 6, 7, 125
11, 19552, Control_c, 6, 74, 63
11, 19553, Control_c, 6, 7, 125
11, 19553, Control_c, 6, 74, 63
11, 19554, Control_c, 6, 74, 63
11, 19555, Control_c, 6, 7, 125
11, 19555, Control_c, 6, 74, 63
11, 19556, Control_c, 6, 7, 125
11, 19556, Control_c, 6, 74, 63
11, 19557, Control_c, 6, 7, 125
11, 19557, Control_c, 6, 74, 63
11, 19558, Control_c, 6, 74, 63
11, 19559, Control_c, 6, 7, 125
11, 19559, Control_c, 6, 74, 63
11, 19560, Control_c, 6, 7, 125
11, 19560, Control_c, 6, 74, 63
11, 19561, Control_c, 6, 7, 125
11, 19561, Control_c, 6, 74, 63
11, 19562, Control_c, 6, 74, 63
11, 19563, Control_c, 6, 7, 125
11, 19563, Control_c, 6, 74, 63
11, 19564, Control_c, 6, 7, 125
11, 19564, Control_c, 6, 74, 63
11, 19565, Control_c, 6, 7, 125
11, 19565, Control_c, 6, 74, 63
11, 19566, Control_c, 6, 74, 63
11, 19567, Control_c, 6, 7, 125
11, 19567, Control_c, 6, 74, 63
11, 19568, Control_c, 6, 7, 125
11, 19568, Control_c, 6, 74, 63
11, 19569, Control_c, 6, 7, 125
11, 19569, Control_c, 6, 74, 63
11, 19570, Control_c, 6, 74, 63
11, 19571, Control_c, 6, 7, 125
11, 19571, Control_c, 6, 74, 63
11, 19572, Control_c, 6, 7, 125
11, 19572, Control_c, 6, 74, 63
11, 19573, Control_c, 6, 7, 125
11, 19573, Control_c, 6, 74, 63
11, 19574, Control_c, 6, 74, 63
11, 19575, Control_c, 6, 7, 125
11, 19575, Control_c, 6, 74, 63
11, 19576, Control_c, 6, 7, 125
11, 19576, Control_c, 6, 74, 63
11, 19577, Control_c, 6, 7, 125
11, 19577, Control_c, 6, 74, 63
11, 19578, Control_c, 6, 74, 63
11, 19579, Control_c, 6, 7, 125
11, 19579, Control_c, 6, 74, 63
11, 19580, Control_c, 6, 7, 125
11, 19580, Control_c, 6, 74, 63
11, 19581, Control_c, 6, 7, 125
11, 19581, Control_c, 6, 74, 63
11, 19582, Control_c, 6, 74, 63
11, 19583, Control_c, 6, 7, 125
11, 19583, Control_c, 6, 74, 63
11, 19584, Control_c, 6, 7, 125
11, 19584, Control_c, 6, 74, 63
11, 19585, Control_c, 6, 7, 125
11, 19585, Control_c, 6, 74, 63
11, 19586, Control_c, 6, 74, 63
11, 19587, Control_c, 6, 7, 125
11, 19587, Control_c, 6, 74, 63
11, 19588, Control_c, 6, 7, 125
11, 19588, Control_c, 6, 74, 63
11, 19589, Control_c, 6, 7, 125
11, 19589, Control_c, 6, 74, 63
11, 19590, Control_c, 6, 74, 62
11, 19591, Control_c, 6, 7, 125
11, 19591, Control_c, 6, 74, 62
11, 19592, Control_c, 6, 7, 125
11, 19592, Control_c, 6, 74, 62
11, 19593, Control_c, 6, 7, 125
11, 19593, Control_c, 6, 74, 62
11, 19594, Control_c, 6, 74, 62
11, 19595, Control_c, 6, 7, 125
11, 19595, Control_c, 6, 74, 62
11, 19596, Control_c, 6, 7, 125
11, 19596, Control_c, 6, 74, 62
11, 19597, Control_c, 6, 7, 125
11, 19597, Control_c, 6, 74, 62
11, 19598, Control_c, 6, 74, 62
11, 19599, Control_c, 6, 7, 125
11, 19599, Control_c, 6, 74, 62
11, 19600, Control_c, 6, 7, 125
11, 19600, Control_c, 6, 74, 62
11, 19601, Control_c, 6, 7, 125
11, 19601, Control_c, 6, 74, 62
11, 19602, Control_c, 6, 74, 62
11, 19603, Control_c, 6, 7, 125
11, 19603, Control_c, 6, 74, 62
11, 19604, Control_c, 6, 7, 125
11, 19604, Control_c, 6, 74, 62
11, 19605, Control_c, 6, 7, 125
11, 19605, Control_c, 6, 74, 62
11, 19606, Control_c, 6, 74, 62
11, 19607, Control_c, 6, 7, 125
11, 19607, Control_c, 6, 74, 62
11, 19608, Control_c, 6, 7, 125
11, 19608, Control_c, 6, 74, 62
11, 19609, Control_c, 6, 7, 125
11, 19609, Control_c, 6, 74, 62
11, 19610, Control_c, 6, 74, 62
11, 19611, Control_c, 6, 7, 125
11, 19611, Control_c, 6, 74, 62
11, 19612, Control_c, 6, 7, 125
11, 19612, Control_c, 6, 74, 62
11, 19613, Control_c, 6, 7, 125
11, 19613, Control_c, 6, 74, 62
11, 19614, Control_c, 6, 74, 62
11, 19615, Control_c, 6, 7, 125
11, 19615, Control_c, 6, 74, 62
11, 19616, Control_c, 6, 7, 125
11, 19616, Control_c, 6, 74, 62
11, 19617, Control_c, 6, 7, 125
11, 19617, Control_c, 6, 74, 62
11, 19618, Control_c, 6, 74, 62
11, 19619, Control_c, 6, 7, 125
11, 19619, Control_c, 6, 74, 62
11, 19620, Control_c, 6, 7, 125
11, 19620, Control_c, 6, 74, 62
11, 19621, Control_c, 6, 7, 125
11, 19621, Control_c, 6, 74, 62
11, 19622, Control_c, 6, 74, 62
11, 19623, Control_c, 6, 7, 125
11, 19623, Control_c, 6, 74, 62
11, 19624, Control_c, 6, 7, 125
11, 19624, Control_c, 6, 74, 62
11, 19625, Control_c, 6, 7, 125
11, 19625, Control_c, 6, 74, 62
11, 19626, Control_c, 6, 74, 62
11, 19627, Control_c, 6, 7, 125
11, 19627, Control_c, 6, 74, 62
11, 19628, Control_c, 6, 7, 125
11, 19628, Control_c, 6, 74, 62
11, 19629, Control_c, 6, 7, 125
11, 19629, Control_c, 6, 74, 62
11, 19630, Control_c, 6, 74, 62
11, 19631, Control_c, 6, 7, 125
11, 19631, Control_c, 6, 74, 62
11, 19632, Control_c, 6, 7, 125
11, 19632, Control_c, 6, 74, 61
11, 19633, Control_c, 6, 7, 125
11, 19633, Control_c, 6, 74, 61
11, 19634, Control_c, 6, 74, 61
11, 19635, Control_c, 6, 7, 125
11, 19635, Control_c, 6, 74, 61
11, 19636, Control_c, 6, 7, 125
11, 19636, Control_c, 6, 74, 61
11, 19637, Control_c, 6, 7, 125
11, 19637, Control_c, 6, 74, 61
11, 19638, Control_c, 6, 74, 61
11, 19639, Control_c, 6, 7, 125
11, 19639, Control_c, 6, 74, 61
11, 19640, Control_c, 6, 7, 125
11, 19640, Control_c, 6, 74, 61
11, 19641, Control_c, 6, 7, 125
11, 19641, Control_c, 6, 74, 61
11, 19642, Control_c, 6, 74, 61
11, 19643, Control_c, 6, 7, 125
11, 19643, Control_c, 6, 74, 61
11, 19644, Control_c, 6, 7, 125
11, 19644, Control_c, 6, 74, 61
11, 19645, Control_c, 6, 7, 125
11, 19645, Control_c, 6, 74, 61
11, 19646, Control_c, 6, 74, 61
11, 19647, Control_c, 6, 7, 125
11, 19647, Control_c, 6, 74, 61
11, 19648, Control_c, 6, 7, 125
11, 19648, Control_c, 6, 74, 61
11, 19649, Control_c, 6, 7, 125
11, 19649, Control_c, 6, 74, 61
11, 19650, Control_c, 6, 74, 61
11, 19651, Control_c, 6, 7, 125
11, 19651, Control_c, 6, 74, 61
11, 19652, Control_c, 6, 7, 125
11, 19652, Control_c, 6, 74, 61
11, 19653, Control_c, 6, 7, 125
11, 19653, Control_c, 6, 74, 61
11, 19654, Control_c, 6, 74, 61
11, 19655, Control_c, 6, 7, 125
11, 19655, Control_c, 6, 74, 61
11, 19656, Control_c, 6, 7, 125
11, 19656, Control_c, 6, 74, 61
11, 19657, Control_c, 6, 7, 125
11, 19657, Control_c, 6, 74, 61
11, 19658, Control_c, 6, 74, 61
11, 19659, Control_c, 6, 7, 125
11, 19659, Control_c, 6, 74, 61
11, 19660, Control_c, 6, 7, 125
11, 19660, Control_c, 6, 74, 61
11, 19661, Control_c, 6, 7, 125
11, 19661, Control_c, 6, 74, 61
11, 19662, Control_c, 6, 74, 61
11, 19663, Control_c, 6, 7, 125
11, 19663, Control_c, 6, 74, 61
11, 19664, Control_c, 6, 7, 125
11, 19664, Control_c, 6, 74, 61
11, 19665, Control_c, 6, 7, 125
11, 19665, Control_c, 6, 74, 61
11, 19666, Control_c, 6, 74, 61
11, 19667, Control_c, 6, 7, 125
11, 19667, Control_c, 6, 74, 61
11, 19668, Control_c, 6, 7, 125
11, 19668, Control_c, 6, 74, 61
11, 19669, Control_c, 6, 7, 125
11, 19669, Control_c, 6, 74, 61
11, 19670, Control_c, 6, 74, 61
11, 19671, Control_c, 6, 7, 125
11, 19671, Control_c, 6, 74, 61
11, 19672, Control_c, 6, 7, 125
11, 19672, Control_c, 6, 74, 61
11, 19673, Control_c, 6, 7, 125
11, 19673, Control_c, 6, 74, 60
11, 19674, Control_c, 6, 74, 60
11, 19675, Control_c, 6, 7, 125
11, 19675, Control_c, 6, 74, 60
11, 19676, Control_c, 6, 7, 125
11, 19676, Control_c, 6, 74, 60
11, 19677, Control_c, 6, 7, 125
11, 19677, Control_c, 6, 74, 60
11, 19678, Control_c, 6, 74, 60
11, 19679, Control_c, 6, 7, 125
11, 19679, Control_c, 6, 74, 60
11, 19680, Control_c, 6, 7, 125
11, 19680, Control_c, 6, 74, 60
11, 19681, Control_c, 6, 7, 125
11, 19681, Control_c, 6, 74, 60
11, 19682, Control_c, 6, 74, 60
11, 19683, Control_c, 6, 7, 125
11, 19683, Control_c, 6, 74, 60
11, 19684, Control_c, 6, 7, 125
11, 19684, Control_c, 6, 74, 60
11, 19685, Control_c, 6, 7, 125
11, 19685, Control_c, 6, 74, 60
11, 19686, Control_c, 6, 74, 60
11, 19687, Control_c, 6, 7, 125
11, 19687, Control_c, 6, 74, 60
11, 19688, Control_c, 6, 7, 125
11, 19688, Control_c, 6, 74, 60
11, 19689, Control_c, 6, 7, 125
11, 19689, Control_c, 6, 74, 60
11, 19690, Control_c, 6, 74, 60
11, 19691, Control_c, 6, 7, 125
11, 19691, Control_c, 6, 74, 60
11, 19692, Control_c, 6, 7, 125
11, 19692, Control_c, 6, 74, 60
11, 19693, Control_c, 6, 7, 125
11, 19693, Control_c, 6, 74, 60
11, 19694, Control_c, 6, 74, 60
11, 19695, Control_c, 6, 7, 125
11, 19695, Control_c, 6, 74, 60
11, 19696, Control_c, 6, 7, 125
11, 19696, Control_c, 6, 74, 60
11, 19697, Control_c, 6, 7, 125
11, 19697, Control_c, 6, 74, 60
11, 19698, Control_c, 6, 74, 60
11, 19699, Control_c, 6, 7, 125
11, 19699, Control_c, 6, 74, 60
11, 19700, Control_c, 6, 7, 125
11, 19700, Control_c, 6, 74, 60
11, 19701, Control_c, 6, 7, 125
11, 19701, Control_c, 6, 74, 60
11, 19702, Control_c, 6, 74, 60
11, 19703, Control_c, 6, 7, 125
11, 19703, Control_c, 6, 74, 60
11, 19704, Control_c, 6, 7, 125
11, 19704, Control_c, 6, 74, 60
11, 19705, Control_c, 6, 7, 125
11, 19705, Control_c, 6, 74, 60
11, 19706, Control_c, 6, 74, 60
11, 19707, Control_c, 6, 7, 125
11, 19707, Control_c, 6, 74, 60
11, 19708, Control_c, 6, 7, 125
11, 19708, Control_c, 6, 74, 60
11, 19709, Control_c, 6, 7, 125
11, 19709, Control_c, 6, 74, 60
11, 19710, Control_c, 6, 74, 60
11, 19711, Control_c, 6, 7, 125
11, 19711, Control_c, 6, 74, 60
11, 19712, Control_c, 6, 7, 125
11, 19712, Control_c, 6, 74, 60
11, 19713, Control_c, 6, 7, 125
11, 19713, Control_c, 6, 74, 60
11, 19714, Control_c, 6, 74, 59
11, 19715, Control_c, 6, 7, 125
11, 19715, Control_c, 6, 74, 59
11, 19716, Control_c, 6, 7, 125
11, 19716, Control_c, 6, 74, 59
11, 19717, Control_c, 6, 7, 125
11, 19717, Control_c, 6, 74, 59
11, 19718, Control_c, 6, 74, 59
11, 19719, Control_c, 6, 7, 124
11, 19719, Control_c, 6, 74, 59
11, 19720, Control_c, 6, 7, 124
11, 19720, Control_c, 6, 74, 59
11, 19721, Control_c, 6, 74, 59
11, 19722, Control_c, 6, 7, 124
11, 19722, Control_c, 6, 74, 59
11, 19723, Control_c, 6, 7, 124
11, 19723, Control_c, 6, 74, 59
11, 19724, Control_c, 6, 7, 124
11, 19724, Control_c, 6, 74, 59
11, 19725, Control_c, 6, 74, 59
11, 19726, Control_c, 6, 7, 124
11, 19726, Control_c, 6, 74, 59
11, 19727, Control_c, 6, 7, 124
11, 19727, Control_c, 6, 74, 59
11, 19728, Control_c, 6, 7, 124
11, 19728, Control_c, 6, 74, 59
11, 19729, Control_c, 6, 74, 59
11, 19730, Control_c, 6, 7, 124
11, 19730, Control_c, 6, 74, 59
11, 19731, Control_c, 6, 7, 124
11, 19731, Control_c, 6, 74, 59
11, 19732, Control_c, 6, 7, 124
11, 19732, Control_c, 6, 74, 59
11, 19733, Control_c, 6, 74, 59
11, 19734, Control_c, 6, 7, 124
11, 19734, Control_c, 6, 74, 59
11, 19735, Control_c, 6, 7, 124
11, 19735, Control_c, 6, 74, 59
11, 19736, Control_c, 6, 7, 124
11, 19736, Control_c, 6, 74, 59
11, 19737, Control_c, 6, 74, 59
11, 19738, Control_c, 6, 7, 124
11, 19738, Control_c, 6, 74, 59
11, 19739, Control_c, 6, 7, 124
11, 19739, Control_c, 6, 74, 59
11, 19740, Control_c, 6, 7, 124
11, 19740, Control_c, 6, 74, 59
11, 19741, Control_c, 6, 74, 59
11, 19742, Control_c, 6, 7, 124
11, 19742, Control_c, 6, 74, 59
11, 19743, Control_c, 6, 7, 124
11, 19743, Control_c, 6, 74, 59
11, 19744, Control_c, 6, 7, 124
11, 19744, Control_c, 6, 74, 59
11, 19745, Control_c, 6, 74, 59
11, 19746, Control_c, 6, 7, 124
11, 19746, Control_c, 6, 74, 59
11, 19747, Control_c, 6, 7, 124
11, 19747, Control_c, 6, 74, 59
11, 19748, Control_c, 6, 7, 124
11, 19748, Control_c, 6, 74, 59
11, 19749, Control_c, 6, 74, 59
11, 19750, Control_c, 6, 7, 124
11, 19750, Control_c, 6, 74, 59
11, 19751, Control_c, 6, 7, 124
11, 19751, Control_c, 6, 74, 59
11, 19752, Control_c, 6, 7, 124
11, 19752, Control_c, 6, 74, 59
11, 19753, Control_c, 6, 74, 59
11, 19754, Control_c, 6, 7, 124
11, 19754, Control_c, 6, 74, 59
11, 19755, Control_c, 6, 7, 124
11, 19755, Control_c, 6, 74, 59
11, 19756, Control_c, 6, 7, 124
11, 19756, Control_c, 6, 74, 58
11, 19757, Control_c, 6, 74, 58
11, 19758, Control_c, 6, 7, 124
11, 19758, Control_c, 6, 74, 58
11, 19759, Control_c, 6, 7, 124
11, 19759, Control_c, 6, 74, 58
11, 19760, Control_c, 6, 7, 124
11, 19760, Control_c, 6, 74, 58
11, 19761, Control_c, 6, 74, 58
11, 19762, Control_c, 6, 7, 124
11, 19762, Control_c, 6, 74, 58
11, 19763, Control_c, 6, 7, 124
11, 19763, Control_c, 6, 74, 58
11, 19764, Control_c, 6, 7, 124
11, 19764, Control_c, 6, 74, 58
11, 19765, Control_c, 6, 74, 58
11, 19766, Control_c, 6, 7, 124
11, 19766, Control_c, 6, 74, 58
11, 19767, Control_c, 6, 7, 124
11, 19767, Control_c, 6, 74, 58
11, 19768, Control_c, 6, 7, 124
11, 19768, Control_c, 6, 74, 58
11, 19769, Control_c, 6, 74, 58
11, 19770, Control_c, 6, 7, 124
11, 19770, Control_c, 6, 74, 58
11, 19771, Control_c, 6, 7, 124
11, 19771, Control_c, 6, 74, 58
11, 19772, Control_c, 6, 7, 124
11, 19772, Control_c, 6, 74, 58
11, 19773, Control_c, 6, 74, 58
11, 19774, Control_c, 6, 7, 124
11, 19774, Control_c, 6, 74, 58
11, 19775, Control_c, 6, 7, 124
11, 19775, Control_c, 6, 74, 58
11, 19776, Control_c, 6, 7, 124
11, 19776, Control_c, 6, 74, 58
11, 19777, Control_c, 6, 74, 58
11, 19778, Control_c, 6, 7, 124
11, 19778, Control_c, 6, 74, 58
11, 19779, Control_c, 6, 7, 124
11, 19779, Control_c, 6, 74, 58
11, 19780, Control_c, 6, 7, 124
11, 19780, Control_c, 6, 74, 58
11, 19781, Control_c, 6, 74, 58
11, 19782, Control_c, 6, 7, 124
11, 19782, Control_c, 6, 74, 58
11, 19783, Control_c, 6, 7, 124
11, 19783, Control_c, 6, 74, 58
11, 19784, Control_c, 6, 7, 124
11, 19784, Control_c, 6, 74, 58
11, 19785, Control_c, 6, 74, 58
11, 19786, Control_c, 6, 7, 124
11, 19786, Control_c, 6, 74, 58
11, 19787, Control_c, 6, 7, 124
11, 19787, Control_c, 6, 74, 58
11, 19788, Control_c, 6, 7, 124
11, 19788, Control_c, 6, 74, 58
11, 19789, Control_c, 6, 74, 58
11, 19790, Control_c, 6, 7, 124
11, 19790, Control_c, 6, 74, 58
11, 19791, Control_c, 6, 7, 124
11, 19791, Control_c, 6, 74, 58
11, 19792, Control_c, 6, 7, 124
11, 19792, Control_c, 6, 74, 58
11, 19793, Control_c, 6, 74, 58
11, 19794, Control_c, 6, 7, 124
11, 19794, Control_c, 6, 74, 58
11, 19795, Control_c, 6, 7, 124
11, 19795, Control_c, 6, 74, 58
11, 19796, Control_c, 6, 7, 124
11, 19796, Control_c, 6, 74, 58
11, 19797, Control_c, 6, 74, 57
11, 19798, Control_c, 6, 7, 124
11, 19798, Control_c, 6, 74, 57
11, 19799, Control_c, 6, 7, 124
11, 19799, Control_c, 6, 74, 57
11, 19800, Control_c, 6, 7, 124
11, 19800, Control_c, 6, 74, 57
11, 19801, Control_c, 6, 74, 57
11, 19802, Control_c, 6, 7, 124
11, 19802, Control_c, 6, 74, 57
11, 19803, Control_c, 6, 7, 124
11, 19803, Control_c, 6, 74, 57
11, 19804, Control_c, 6, 7, 124
11, 19804, Control_c, 6, 74, 57
11, 19805, Control_c, 6, 74, 57
11, 19806, Control_c, 6, 7, 124
11, 19806, Control_c, 6, 74, 57
11, 19807, Control_c, 6, 7, 124
11, 19807, Control_c, 6, 74, 57
11, 19808, Control_c, 6, 7, 124
11, 19808, Control_c, 6, 74, 57
11, 19809, Control_c, 6, 74, 57
11, 19810, Control_c, 6, 7, 124
11, 19810, Control_c, 6, 74, 57
11, 19811, Control_c, 6, 7, 124
11, 19811, Control_c, 6, 74, 57
11, 19812, Control_c, 6, 7, 124
11, 19812, Control_c, 6, 74, 57
11, 19813, Control_c, 6, 74, 57
11, 19814, Control_c, 6, 7, 124
11, 19814, Control_c, 6, 74, 57
11, 19815, Control_c, 6, 7, 124
11, 19815, Control_c, 6, 74, 57
11, 19816, Control_c, 6, 7, 124
11, 19816, Control_c, 6, 74, 57
11, 19817, Control_c, 6, 74, 57
11, 19818, Control_c, 6, 7, 124
11, 19818, Control_c, 6, 74, 57
11, 19819, Control_c, 6, 7, 124
11, 19819, Control_c, 6, 74, 57
11, 19820, Control_c, 6, 7, 124
11, 19820, Control_c, 6, 74, 57
11, 19821, Control_c, 6, 74, 57
11, 19822, Control_c, 6, 7, 124
11, 19822, Control_c, 6, 74, 57
11, 19823, Control_c, 6, 7, 124
11, 19823, Control_c, 6, 74, 57
11, 19824, Control_c, 6, 7, 124
11, 19824, Control_c, 6, 74, 57
11, 19825, Control_c, 6, 74, 57
11, 19826, Control_c, 6, 7, 124
11, 19826, Control_c, 6, 74, 57
11, 19827, Control_c, 6, 7, 124
11, 19827, Control_c, 6, 74, 57
11, 19828, Control_c, 6, 7, 124
11, 19828, Control_c, 6, 74, 57
11, 19829, Control_c, 6, 74, 57
11, 19830, Control_c, 6, 7, 124
11, 19830, Control_c, 6, 74, 57
11, 19831, Control_c, 6, 7, 124
11, 19831, Control_c, 6, 74, 57
11, 19832, Control_c, 6, 7, 124
11, 19832, Control_c, 6, 74, 57
11, 19833, Control_c, 6, 74, 57
11, 19834, Control_c, 6, 7, 124
11, 19834, Control_c, 6, 74, 57
11, 19835, Control_c, 6, 7, 124
11, 19835, Control_c, 6, 74, 57
11, 19836, Control_c, 6, 7, 124
11, 19836, Control_c, 6, 74, 57
11, 19837, Control_c, 6, 74, 57
11, 19838, Control_c, 6, 7, 124
11, 19838, Control_c, 6, 74, 57
11, 19839, Control_c, 6, 7, 124
11, 19839, Control_c, 6, 74, 56
11, 19840, Control_c, 6, 7, 124
11, 19840, Control_c, 6, 74, 56
11, 19841, Control_c, 6, 74, 56
11, 19842, Control_c, 6, 7, 124
11, 19842, Control_c, 6, 74, 56
11, 19843, Control_c, 6, 7, 124
11, 19843, Control_c, 6, 74, 56
11, 19844, Control_c, 6, 7, 124
11, 19844, Control_c, 6, 74, 56
11, 19845, Control_c, 6, 74, 56
11, 19846, Control_c, 6, 7, 124
11, 19846, Control_c, 6, 74, 56
11, 19847, Control_c, 6, 7, 124
11, 19847, Control_c, 6, 74, 56
11, 19848, Control_c, 6, 7, 124
11, 19848, Control_c, 6, 74, 56
11, 19849, Control_c, 6, 74, 56
11, 19850, Control_c, 6, 7, 124
11, 19850, Control_c, 6, 74, 56
11, 19851, Control_c, 6, 7, 124
11, 19851, Control_c, 6, 74, 56
11, 19852, Control_c, 6, 7, 124
11, 19852, Control_c, 6, 74, 56
11, 19853, Control_c, 6, 74, 56
11, 19854, Control_c, 6, 7, 124
11, 19854, Control_c, 6, 74, 56
11, 19855, Control_c, 6, 7, 124
11, 19855, Control_c, 6, 74, 56
11, 19856, Control_c, 6, 7, 124
11, 19856, Control_c, 6, 74, 56
11, 19857, Control_c, 6, 74, 56
11, 19858, Control_c, 6, 7, 124
11, 19858, Control_c, 6, 74, 56
11, 19859, Control_c, 6, 7, 124
11, 19859, Control_c, 6, 74, 56
11, 19860, Control_c, 6, 7, 124
11, 19860, Control_c, 6, 74, 56
11, 19861, Control_c, 6, 74, 56
11, 19862, Control_c, 6, 7, 124
11, 19862, Control_c, 6, 74, 56
11, 19863, Control_c, 6, 7, 124
11, 19863, Control_c, 6, 74, 56
11, 19864, Control_c, 6, 7, 124
11, 19864, Control_c, 6, 74, 56
11, 19865, Control_c, 6, 74, 56
11, 19866, Control_c, 6, 7, 124
11, 19866, Control_c, 6, 74, 56
11, 19867, Control_c, 6, 7, 124
11, 19867, Control_c, 6, 74, 56
11, 19868, Control_c, 6, 7, 124
11, 19868, Control_c, 6, 74, 56
11, 19869, Control_c, 6, 74, 56
11, 19870, Control_c, 6, 7, 124
11, 19870, Control_c, 6, 74, 56
11, 19871, Control_c, 6, 7, 124
11, 19871, Control_c, 6, 74, 56
11, 19872, Control_c, 6, 7, 124
11, 19872, Control_c, 6, 74, 56
11, 19873, Control_c, 6, 74, 56
11, 19874, Control_c, 6, 7, 124
11, 19874, Control_c, 6, 74, 56
11, 19875, Control_c, 6, 7, 124
11, 19875, Control_c, 6, 74, 56
11, 19876, Control_c, 6, 7, 124
11, 19876, Control_c, 6, 74, 56
11, 19877, Control_c, 6, 74, 56
11, 19878, Control_c, 6, 7, 124
11, 19878, Control_c, 6, 74, 56
11, 19879, Control_c, 6, 7, 124
11, 19879, Control_c, 6, 74, 56
11, 19880, Control_c, 6, 7, 124
11, 19880, Control_c, 6, 74, 55
11, 19881, Control_c, 6, 74, 55
11, 19882, Control_c, 6, 7, 124
11, 19882, Control_c, 6, 74, 55
11, 19883, Control_c, 6, 7, 124
11, 19883, Control_c, 6, 74, 55
11, 19884, Control_c, 6, 7, 124
11, 19884, Control_c, 6, 74, 55
11, 19885, Control_c, 6, 74, 55
11, 19886, Control_c, 6, 7, 124
11, 19886, Control_c, 6, 74, 55
11, 19887, Control_c, 6, 7, 124
11, 19887, Control_c, 6, 74, 55
11, 19888, Control_c, 6, 7, 124
11, 19888, Control_c, 6, 74, 55
11, 19889, Control_c, 6, 74, 55
11, 19890, Control_c, 6, 7, 124
11, 19890, Control_c, 6, 74, 55
11, 19891, Control_c, 6, 7, 124
11, 19891, Control_c, 6, 74, 55
11, 19892, Control_c, 6, 74, 55
11, 19893, Control_c, 6, 7, 124
11, 19893, Control_c, 6, 74, 55
11, 19894, Control_c, 6, 7, 124
11, 19894, Control_c, 6, 74, 55
11, 19895, Control_c, 6, 7, 124
11, 19895, Control_c, 6, 74, 55
11, 19896, Control_c, 6, 74, 55
11, 19897, Control_c, 6, 7, 124
11, 19897, Control_c, 6, 74, 55
11, 19898, Control_c, 6, 7, 124
11, 19898, Control_c, 6, 74, 55
11, 19899, Control_c, 6, 7, 124
11, 19899, Control_c, 6, 74, 55
11, 19900, Control_c, 6, 74, 55
11, 19901, Control_c, 6, 7, 124
11, 19901, Control_c, 6, 74, 55
11, 19902, Control_c, 6, 7, 124
11, 19902, Control_c, 6, 74, 55
11, 19903, Control_c, 6, 7, 124
11, 19903, Control_c, 6, 74, 55
11, 19904, Control_c, 6, 74, 55
11, 19905, Control_c, 6, 7, 124
11, 19905, Control_c, 6, 74, 55
11, 19906, Control_c, 6, 7, 124
11, 19906, Control_c, 6, 74, 55
11, 19907, Control_c, 6, 7, 124
11, 19907, Control_c, 6, 74, 55
11, 19908, Control_c, 6, 74, 55
11, 19909, Control_c, 6, 7, 124
11, 19909, Control_c, 6, 74, 55
11, 19910, Control_c, 6, 7, 124
11, 19910, Control_c, 6, 74, 55
11, 19911, Control_c, 6, 7, 124
11, 19911, Control_c, 6, 74, 55
11, 19912, Control_c, 6, 74, 55
11, 19913, Control_c, 6, 7, 124
11, 19913, Control_c, 6, 74, 55
11, 19914, Control_c, 6, 7, 124
11, 19914, Control_c, 6, 74, 55
11, 19915, Control_c, 6, 7, 124
11, 19915, Control_c, 6, 74, 55
11, 19916, Control_c, 6, 74, 55
11, 19917, Control_c, 6, 7, 124
11, 19917, Control_c, 6, 74, 55
11, 19918, Control_c, 6, 7, 124
11, 19918, Control_c, 6, 74, 55
11, 19919, Control_c, 6, 7, 124
11, 19919, Control_c, 6, 74, 55
11, 19920, Control_c, 6, 74, 55
11, 19921, Control_c, 6, 7, 124
11, 19921, Control_c, 6, 74, 55
11, 19922, Control_c, 6, 7, 124
11, 19922, Control_c, 6, 74, 54
11, 19923, Control_c, 6, 7, 124
11, 19923, Control_c, 6, 74, 54
11, 19924, Control_c, 6, 74, 54
11, 19925, Control_c, 6, 7, 124
11, 19925, Control_c, 6, 74, 54
11, 19926, Control_c, 6, 7, 124
11, 19926, Control_c, 6, 74, 54
11, 19927, Control_c, 6, 7, 124
11, 19927, Control_c, 6, 74, 54
11, 19928, Control_c, 6, 74, 54
11, 19929, Control_c, 6, 7, 124
11, 19929, Control_c, 6, 74, 54
11, 19930, Control_c, 6, 7, 124
11, 19930, Control_c, 6, 74, 54
11, 19931, Control_c, 6, 7, 124
11, 19931, Control_c, 6, 74, 54
11, 19932, Control_c, 6, 74, 54
11, 19933, Control_c, 6, 7, 124
11, 19933, Control_c, 6, 74, 54
11, 19934, Control_c, 6, 7, 124
11, 19934, Control_c, 6, 74, 54
11, 19935, Control_c, 6, 7, 124
11, 19935, Control_c, 6, 74, 54
11, 19936, Control_c, 6, 74, 54
11, 19937, Control_c, 6, 7, 124
11, 19937, Control_c, 6, 74, 54
11, 19938, Control_c, 6, 7, 124
11, 19938, Control_c, 6, 74, 54
11, 19939, Control_c, 6, 7, 124
11, 19939, Control_c, 6, 74, 54
11, 19940, Control_c, 6, 74, 54
11, 19941, Control_c, 6, 7, 124
11, 19941, Control_c, 6, 74, 54
11, 19942, Control_c, 6, 7, 124
11, 19942, Control_c, 6, 74, 54
11, 19943, Control_c, 6, 7, 124
11, 19943, Control_c, 6, 74, 54
11, 19944, Control_c, 6, 74, 54
11, 19945, Control_c, 6, 7, 124
11, 19945, Control_c, 6, 74, 54
11, 19946, Control_c, 6, 7, 124
11, 19946, Control_c, 6, 74, 54
11, 19947, Control_c, 6, 7, 124
11, 19947, Control_c, 6, 74, 54
11, 19948, Control_c, 6, 74, 54
11, 19949, Control_c, 6, 7, 124
11, 19949, Control_c, 6, 74, 54
11, 19950, Control_c, 6, 7, 124
11, 19950, Control_c, 6, 74, 54
11, 19951, Control_c, 6, 7, 124
11, 19951, Control_c, 6, 74, 54
11, 19952, Control_c, 6, 74, 54
11, 19953, Control_c, 6, 7, 124
11, 19953, Control_c, 6, 74, 54
11, 19954, Control_c, 6, 7, 124
11, 19954, Control_c, 6, 74, 54
11, 19955, Control_c, 6, 7, 124
11, 19955, Control_c, 6, 74, 54
11, 19956, Control_c, 6, 74, 54
11, 19957, Control_c, 6, 7, 124
11, 19957, Control_c, 6, 74, 54
11, 19958, Control_c, 6, 7, 124
11, 19958, Control_c, 6, 74, 54
11, 19959, Control_c, 6, 7, 124
11, 19959, Control_c, 6, 74, 54
11, 19960, Control_c, 6, 74, 54
11, 19961, Control_c, 6, 7, 124
11, 19961, Control_c, 6, 74, 54
11, 19962, Control_c, 6, 7, 124
11, 19962, Control_c, 6, 74, 54
11, 19963, Control_c, 6, 7, 124
11, 19963, Control_c, 6, 74, 53
11, 19964, Control_c, 6, 74, 53
11, 19965, Control_c, 6, 7, 124
11, 19965, Control_c, 6, 74, 53
11, 19966, Control_c, 6, 7, 124
11, 19966, Control_c, 6, 74, 53
11, 19967, Control_c, 6, 7, 124
11, 19967, Control_c, 6, 74, 53
11, 19968, Control_c, 6, 7, 124
11, 19969, Control_c, 6, 7, 123
11, 19969, Control_c, 6, 74, 53
11, 19970, Control_c, 6, 7, 123
11, 19971, Control_c, 6, 7, 123
11, 19972, Control_c, 6, 7, 123
11, 19973, Control_c, 6, 7, 122
11, 19974, Control_c, 6, 7, 122
11, 19974, Control_c, 6, 74, 53
11, 19975, Control_c, 6, 7, 122
11, 19976, Control_c, 6, 7, 121
11, 19977, Control_c, 6, 7, 121
11, 19978, Control_c, 6, 7, 121
11, 19979, Control_c, 6, 7, 120
11, 19979, Control_c, 6, 74, 53
11, 19980, Control_c, 6, 7, 120
11, 19981, Control_c, 6, 7, 120
11, 19982, Control_c, 6, 7, 119
11, 19983, Control_c, 6, 7, 119
11, 19984, Control_c, 6, 7, 119
11, 19984, Control_c, 6, 74, 53
11, 19985, Control_c, 6, 7, 118
11, 19986, Control_c, 6, 7, 118
11, 19987, Control_c, 6, 7, 118
11, 19988, Control_c, 6, 7, 117
11, 19989, Control_c, 6, 7, 117
11, 19989, Control_c, 6, 74, 53
11, 19990, Control_c, 6, 7, 117
11, 19991, Control_c, 6, 7, 116
11, 19992, Control_c, 6, 7, 116
11, 19993, Control_c, 6, 7, 116
11, 19994, Control_c, 6, 7, 115
11, 19994, Control_c, 6, 74, 53
11, 19995, Control_c, 6, 7, 115
11, 19996, Control_c, 6, 7, 115
11, 19997, Control_c, 6, 7, 114
11, 19998, Control_c, 6, 7, 114
11, 19999, Control_c, 6, 7, 114
11, 19999, Control_c, 6, 74, 53
11, 20000, Control_c, 6, 7, 113
11, 20001, Control_c, 6, 7, 113
11, 20002, Control_c, 6, 7, 113
11, 20003, Control_c, 6, 7, 112
11, 20004, Control_c, 6, 7, 112
11, 20004, Control_c, 6, 74, 53
11, 20005, Control_c, 6, 7, 112
11, 20006, Control_c, 6, 7, 111
11, 20007, Control_c, 6, 7, 111
11, 20008, Control_c, 6, 7, 111
11, 20009, Control_c, 6, 7, 111
11, 20009, Control_c, 6, 74, 53
11, 20010, Control_c, 6, 7, 110
11, 20011, Control_c, 6, 7, 110
11, 20012, Control_c, 6, 7, 110
11, 20013, Control_c, 6, 7, 109
11, 20014, Control_c, 6, 7, 109
11, 20014, Control_c, 6, 74, 53
11, 20015, Control_c, 6, 7, 109
11, 20016, Control_c, 6, 7, 108
11, 20017, Control_c, 6, 7, 108
11, 20018, Control_c, 6, 7, 108
11, 20019, Control_c, 6, 7, 107
11, 20019, Control_c, 6, 74, 53
11, 20020, Control_c, 6, 7, 107
11, 20021, Control_c, 6, 7, 107
11, 20022, Control_c, 6, 7, 106
11, 20023, Control_c, 6, 7, 106
11, 20024, Control_c, 6, 7, 106
11, 20024, Control_c, 6, 74, 53
11, 20025, Control_c, 6, 7, 105
11, 20026, Control_c, 6, 7, 105
11, 20027, Control_c, 6, 7, 105
11, 20028, Control_c, 6, 7, 104
11, 20029, Control_c, 6, 7, 104
11, 20029, Control_c, 6, 74, 53
11, 20030, Control_c, 6, 7, 104
11, 20031, Control_c, 6, 7, 103
11, 20032, Control_c, 6, 7, 103
11, 20033, Control_c, 6, 7, 103
11, 20034, Control_c, 6, 7, 102
11, 20034, Control_c, 6, 74, 53
11, 20035, Control_c, 6, 7, 102
11, 20036, Control_c, 6, 7, 102
11, 20037, Control_c, 6, 7, 101
11, 20038, Control_c, 6, 7, 101
11, 20039, Control_c, 6, 7, 101
11, 20039, Control_c, 6, 74, 53
11, 20040, Control_c, 6, 7, 100
11, 20041, Control_c, 6, 7, 100
11, 20042, Control_c, 6, 7, 100
11, 20043, Control_c, 6, 7, 99
11, 20044, Control_c, 6, 7, 99
11, 20044, Control_c, 6, 74, 53
11, 20045, Control_c, 6, 7, 99
11, 20046, Control_c, 6, 7, 98
11, 20047, Control_c, 6, 7, 98
11, 20048, Control_c, 6, 7, 98
11, 20049, Control_c, 6, 7, 98
11, 20049, Control_c, 6, 74, 53
11, 20050, Control_c, 6, 7, 97
11, 20051, Control_c, 6, 7, 97
11, 20052, Control_c, 6, 7, 97
11, 20053, Control_c, 6, 7, 96
11, 20054, Control_c, 6, 7, 96
11, 20054, Control_c, 6, 74, 53
11, 20055, Control_c, 6, 7, 96
11, 20056, Control_c, 6, 7, 95
11, 20057, Control_c, 6, 7, 95
11, 20058, Control_c, 6, 7, 95
11, 20058, Control_c, 6, 74, 53
11, 20059, Control_c, 6, 7, 94
11, 20060, Control_c, 6, 7, 94
11, 20061, Control_c, 6, 7, 94
11, 20062, Control_c, 6, 7, 93
11, 20063, Control_c, 6, 7, 93
11, 20063, Control_c, 6, 74, 53
11, 20064, Control_c, 6, 7, 93
11, 20065, Control_c, 6, 7, 92
11, 20066, Control_c, 6, 7, 92
11, 20067, Control_c, 6, 7, 92
11, 20068, Control_c, 6, 7, 91
11, 20068, Control_c, 6, 74, 53
11, 20069, Control_c, 6, 7, 91
11, 20070, Control_c, 6, 7, 91
11, 20071, Control_c, 6, 7, 90
11, 20072, Control_c, 6, 7, 90
11, 20073, Control_c, 6, 7, 90
11, 20073, Control_c, 6, 74, 53
11, 20074, Control_c, 6, 7, 89
11, 20075, Control_c, 6, 7, 89
11, 20076, Control_c, 6, 7, 89
11, 20077, Control_c, 6, 7, 88
11, 20078, Control_c, 6, 7, 88
11, 20078, Control_c, 6, 74, 53
11, 20079, Control_c, 6, 7, 88
11, 20080, Control_c, 6, 7, 87
11, 20081, Control_c, 6, 7, 87
11, 20082, Control_c, 6, 7, 87
11, 20083, Control_c, 6, 7, 86
11, 20083, Control_c, 6, 74, 53
11, 20084, Control_c, 6, 7, 86
11, 20085, Control_c, 6, 7, 86
11, 20086, Control_c, 6, 7, 86
11, 20087, Control_c, 6, 7, 85
11, 20088, Control_c, 6, 7, 85
11, 20088, Control_c, 6, 74, 53
11, 20089, Control_c, 6, 7, 85
11, 20090, Control_c, 6, 7, 84
11, 20091, Control_c, 6, 7, 84
11, 20092, Control_c, 6, 7, 84
11, 20093, Control_c, 6, 7, 83
11, 20093, Control_c, 6, 74, 53
11, 20094, Control_c, 6, 7, 83
11, 20095, Control_c, 6, 7, 83
11, 20096, Control_c, 6, 7, 82
11, 20097, Control_c, 6, 7, 82
11, 20098, Control_c, 6, 7, 82
11, 20098, Control_c, 6, 74, 53
11, 20099, Control_c, 6, 7, 81
11, 20100, Control_c, 6, 7, 81
11, 20101, Control_c, 6, 7, 81
11, 20102, Control_c, 6, 7, 80
11, 20103, Control_c, 6, 7, 80
11, 20103, Control_c, 6, 74, 53
11, 20104, Control_c, 6, 7, 80
11, 20105, Control_c, 6, 7, 79
11, 20106, Control_c, 6, 7, 79
11, 20107, Control_c, 6, 7, 79
11, 20108, Control_c, 6, 7, 78
11, 20108, Control_c, 6, 74, 53
11, 20109, Control_c, 6, 7, 78
11, 20110, Control_c, 6, 7, 78
11, 20111, Control_c, 6, 7, 77
11, 20112, Control_c, 6, 7, 77
11, 20113, Control_c, 6, 7, 77
11, 20113, Control_c, 6, 74, 53
11, 20114, Control_c, 6, 7, 76
11, 20115, Control_c, 6, 7, 76
11, 20116, Control_c, 6, 7, 76
11, 20117, Control_c, 6, 7, 75
11, 20118, Control_c, 6, 7, 75
11, 20118, Control_c, 6, 74, 53
11, 20119, Control_c, 6, 7, 75
11, 20120, Control_c, 6, 7, 74
11, 20121, Control_c, 6, 7, 74
11, 20122, Control_c, 6, 7, 74
11, 20123, Control_c, 6, 7, 74
11, 20123, Control_c, 6, 74, 53
11, 20124, Control_c, 6, 7, 73
11, 20125, Control_c, 6, 7, 73
11, 20126, Control_c, 6, 7, 73
11, 20127, Control_c, 6, 7, 72
11, 20128, Control_c, 6, 7, 72
11, 20128, Control_c, 6, 74, 53
11, 20129, Control_c, 6, 7, 72
11, 20130, Control_c, 6, 7, 71
11, 20131, Control_c, 6, 7, 71
11, 20132, Control_c, 6, 7, 71
11, 20133, Control_c, 6, 7, 70
11, 20133, Control_c, 6, 74, 53
11, 20134, Control_c, 6, 7, 70
11, 20135, Control_c, 6, 7, 70
11, 20136, Control_c, 6, 7, 69
11, 20137, Control_c, 6, 7, 69
11, 20138, Control_c, 6, 7, 69
11, 20138, Control_c, 6, 74, 53
11, 20139, Control_c, 6, 7, 68
11, 20140, Control_c, 6, 7, 68
11, 20141, Control_c, 6, 7, 68
11, 20142, Control_c, 6, 7, 67
11, 20143, Control_c, 6, 7, 67
11, 20143, Control_c, 6, 74, 53
11, 20144, Control_c, 6, 7, 67
11, 20145, Control_c, 6, 7, 66
11, 20146, Control_c, 6, 7, 66
11, 20147, Control_c, 6, 7, 66
11, 20148, Control_c, 6, 7, 65
11, 20148, Control_c, 6, 74, 53
11, 20149, Control_c, 6, 7, 65
11, 20150, Control_c, 6, 7, 65
11, 20151, Control_c, 6, 7, 64
11, 20152, Control_c, 6, 7, 64
11, 20152, Control_c, 6, 74, 53
11, 20153, Control_c, 6, 7, 64
11, 20154, Control_c, 6, 7, 63
11, 20155, Control_c, 6, 7, 63
11, 20156, Control_c, 6, 7, 63
11, 20157, Control_c, 6, 7, 62
11, 20157, Control_c, 6, 74, 53
11, 20158, Control_c, 6, 7, 62
11, 20159, Control_c, 6, 7, 62
11, 20160, Control_c, 6, 7, 61
11, 20161, Control_c, 6, 7, 61
11, 20162, Control_c, 6, 7, 61
11, 20162, Control_c, 6, 74, 53
11, 20163, Control_c, 6, 7, 61
11, 20164, Control_c, 6, 7, 60
11, 20165, Control_c, 6, 7, 60
11, 20166, Control_c, 6, 7, 60
11, 20167, Control_c, 6, 7, 59
11, 20167, Control_c, 6, 74, 53
11, 20168, Control_c, 6, 7, 59
11, 20169, Control_c, 6, 7, 59
11, 20170, Control_c, 6, 7, 58
11, 20171, Control_c, 6, 7, 58
11, 20172, Control_c, 6, 7, 58
11, 20172, Control_c, 6, 74, 53
11, 20173, Control_c, 6, 7, 57
11, 20174, Control_c, 6, 7, 57
11, 20175, Control_c, 6, 7, 57
11, 20176, Control_c, 6, 7, 56
11, 20177, Control_c, 6, 7, 56
11, 20177, Control_c, 6, 74, 53
11, 20178, Control_c, 6, 7, 56
11, 20179, Control_c, 6, 7, 55
11, 20180, Control_c, 6, 7, 55
11, 20181, Control_c, 6, 7, 55
11, 20182, Control_c, 6, 7, 54
11, 20182, Control_c, 6, 74, 53
11, 20183, Control_c, 6, 7, 54
11, 20184, Control_c, 6, 7, 54
11, 20185, Control_c, 6, 7, 53
11, 20186, Control_c, 6, 7, 53
11, 20187, Control_c, 6, 7, 53
11, 20187, Control_c, 6, 74, 53
11, 20188, Control_c, 6, 7, 52
11, 20189, Control_c, 6, 7, 52
11, 20190, Control_c, 6, 7, 52
11, 20191, Control_c, 6, 7, 51
11, 20192, Control_c, 6, 7, 51
11, 20192, Control_c, 6, 74, 53
11, 20193, Control_c, 6, 7, 51
11, 20194, Control_c, 6, 7, 50
11, 20195, Control_c, 6, 7, 50
11, 20196, Control_c, 6, 7, 50
11, 20197, Control_c, 6, 7, 49
11, 20197, Control_c, 6, 74, 53
11, 20198, Control_c, 6, 7, 49
11, 20199, Control_c, 6, 7, 49
11, 20200, Control_c, 6, 7, 49
11, 20201, Control_c, 6, 7, 48
11, 20202, Control_c, 6, 7, 48
11, 20202, Control_c, 6, 74, 53
11, 20203, Control_c, 6, 7, 48
11, 20204, Control_c, 6, 7, 47
11, 20205, Control_c, 6, 7, 47
11, 20206, Control_c, 6, 7, 47
11, 20207, Control_c, 6, 7, 46
11, 20207, Control_c, 6, 74, 53
11, 20208, Control_c, 6, 7, 46
11, 20209, Control_c, 6, 7, 46
11, 20210, Control_c, 6, 7, 45
11, 20211, Control_c, 6, 7, 45
11, 20212, Control_c, 6, 7, 45
11, 20212, Control_c, 6, 74, 53
11, 20213, Control_c, 6, 7, 44
11, 20214, Control_c, 6, 7, 44
11, 20215, Control_c, 6, 7, 44
11, 20216, Control_c, 6, 7, 43
11, 20217, Control_c, 6, 7, 43
11, 20217, Control_c, 6, 74, 53
11, 20218, Control_c, 6, 7, 43
11, 20219, Control_c, 6, 7, 42
11, 20220, Control_c, 6, 7, 42
11, 20221, Control_c, 6, 7, 42
11, 20222, Control_c, 6, 7, 41
11, 20222, Control_c, 6, 74, 53
11, 20223, Control_c, 6, 7, 41
11, 20224, Control_c, 6, 7, 41
11, 20225, Control_c, 6, 7, 40
11, 20226, Control_c, 6, 7, 40
11, 20227, Control_c, 6, 7, 40
11, 20227, Control_c, 6, 74, 53
11, 20228, Control_c, 6, 7, 39
11, 20229, Control_c, 6, 7, 39
11, 20230, Control_c, 6, 7, 39
11, 20231, Control_c, 6, 7, 38
11, 20232, Control_c, 6, 7, 38
11, 20232, Control_c, 6, 74, 54
11, 20233, Control_c, 6, 7, 38
11, 20234, Control_c, 6, 7, 37
11, 20235, Control_c, 6, 7, 37
11, 20236, Control_c, 6, 7, 37
11, 20237, Control_c, 6, 7, 37
11, 20237, Control_c, 6, 74, 54
11, 20238, Control_c, 6, 7, 36
11, 20239, Control_c, 6, 7, 36
11, 20240, Control_c, 6, 7, 36
11, 20241, Control_c, 6, 7, 35
11, 20241, Control_c, 6, 74, 54
11, 20242, Control_c, 6, 7, 35
11, 20243, Control_c, 6, 7, 35
11, 20244, Control_c, 6, 7, 34
11, 20245, Control_c, 6, 7, 34
11, 20246, Control_c, 6, 7, 34
11, 20246, Control_c, 6, 74, 54
11, 20247, Control_c, 6, 7, 33
11, 20248, Control_c, 6, 7, 33
11, 20249, Control_c, 6, 7, 33
11, 20250, Control_c, 6, 7, 32
11, 20251, Control_c, 6, 7, 32
11, 20251, Control_c, 6, 74, 54
11, 20252, Control_c, 6, 7, 32
11, 20253, Control_c, 6, 7, 31
11, 20254, Control_c, 6, 7, 31
11, 20255, Control_c, 6, 7, 31
11, 20256, Control_c, 6, 7, 30
11, 20256, Control_c, 6, 74, 54
11, 20257, Control_c, 6, 7, 30
11, 20258, Control_c, 6, 7, 30
11, 20259, Control_c, 6, 7, 29
11, 20260, Control_c, 6, 7, 29
11, 20261, Control_c, 6, 7, 29
11, 20261, Control_c, 6, 74, 54
11, 20262, Control_c, 6, 7, 28
11, 20263, Control_c, 6, 7, 28
11, 20264, Control_c, 6, 7, 28
11, 20265, Control_c, 6, 7, 27
11, 20266, Control_c, 6, 7, 27
11, 20266, Control_c, 6, 74, 54
11, 20267, Control_c, 6, 7, 27
11, 20268, Control_c, 6, 7, 26
11, 20269, Control_c, 6, 7, 26
11, 20270, Control_c, 6, 7, 26
11, 20271, Control_c, 6, 7, 25
11, 20271, Control_c, 6, 74, 54
11, 20272, Control_c, 6, 7, 25
11, 20273, Control_c, 6, 7, 25
11, 20274, Control_c, 6, 7, 24
11, 20275, Control_c, 6, 7, 24
11, 20276, Control_c, 6, 7, 24
11, 20276, Control_c, 6, 74, 54
11, 20277, Control_c, 6, 7, 24
11, 20278, Control_c, 6, 7, 23
11, 20279, Control_c, 6, 7, 23
11, 20280, Control_c, 6, 7, 23
11, 20281, Control_c, 6, 7, 22
11, 20281, Control_c, 6, 74, 54
11, 20282, Control_c, 6, 7, 22
11, 20283, Control_c, 6, 7, 22
11, 20284, Control_c, 6, 7, 21
11, 20285, Control_c, 6, 7, 21
11, 20286, Control_c, 6, 7, 21
11, 20286, Control_c, 6, 74, 54
11, 20287, Control_c, 6, 7, 20
11, 20288, Control_c, 6, 7, 20
11, 20289, Control_c, 6, 7, 20
11, 20290, Control_c, 6, 7, 19
11, 20291, Control_c, 6, 7, 19
11, 20291, Control_c, 6, 74, 54
11, 20292, Control_c, 6, 7, 19
11, 20293, Control_c, 6, 7, 18
11, 20294, Control_c, 6, 7, 18
11, 20295, Control_c, 6, 7, 18
11, 20296, Control_c, 6, 7, 17
11, 20296, Control_c, 6, 74, 54
11, 20297, Control_c, 6, 7, 17
11, 20298, Control_c, 6, 7, 17
11, 20299, Control_c, 6, 7, 16
11, 20300, Control_c, 6, 7, 16
11, 20301, Control_c, 6, 7, 16
11, 20301, Control_c, 6, 74, 54
11, 20302, Control_c, 6, 7, 15
11, 20303, Control_c, 6, 7, 15
11, 20304, Control_c, 6, 7, 15
11, 20305, Control_c, 6, 7, 14
11, 20306, Control_c, 6, 7, 14
11, 20306, Control_c, 6, 74, 54
11, 20307, Control_c, 6, 7, 14
11, 20308, Control_c, 6, 7, 13
11, 20309, Control_c, 6, 7, 13
11, 20310, Control_c, 6, 7, 13
11, 20311, Control_c, 6, 7, 12
11, 20311, Control_c, 6, 74, 54
11, 20312, Control_c, 6, 7, 12
11, 20313, Control_c, 6, 7, 12
11, 20314, Control_c, 6, 7, 12
11, 20315, Control_c, 6, 7, 11
11, 20316, Control_c, 6, 7, 11
11, 20316, Control_c, 6, 74, 54
11, 20317, Control_c, 6, 7, 11
11, 20318, Control_c, 6, 7, 10
11, 20319, Control_c, 6, 7, 10
11, 20320, Control_c, 6, 7, 10
11, 20321, Control_c, 6, 7, 9
11, 20321, Control_c, 6, 74, 54
11, 20322, Control_c, 6, 7, 9
11, 20323, Control_c, 6, 7, 9
11, 20324, Control_c, 6, 7, 8
11, 20325, Control_c, 6, 7, 8
11, 20326, Control_c, 6, 7, 8
11, 20326, Control_c, 6, 74, 54
11, 20327, Control_c, 6, 7, 7
11, 20328, Control_c, 6, 7, 7
11, 20329, Control_c, 6, 7, 7
11, 20330, Control_c, 6, 7, 6
11, 20331, Control_c, 6, 7, 6
11, 20331, Control_c, 6, 74, 54
11, 20332, Control_c, 6, 7, 6
11, 20333, Control_c, 6, 7, 5
11, 20334, Control_c, 6, 7, 5
11, 20335, Control_c, 6, 7, 5
11, 20335, Control_c, 6, 74, 54
11, 20336, Control_c, 6, 7, 4
11, 20337, Control_c, 6, 7, 4
11, 20338, Control_c, 6, 7, 4
11, 20339, Control_c, 6, 7, 3
11, 20340, Control_c, 6, 7, 3
11, 20340, Control_c, 6, 74, 54
11, 20341, Control_c, 6, 7, 3
11, 20342, Control_c, 6, 7, 2
11, 20343, Control_c, 6, 7, 2
11, 20344, Control_c, 6, 7, 2
11, 20345, Control_c, 6, 7, 1
11, 20345, Control_c, 6, 74, 54
11, 20346, Control_c, 6, 7, 1
11, 20347, Control_c, 6, 7, 1
11, 20348, Control_c, 6, 7, 0
11, 20349, Control_c, 6, 7, 0
11, 20350, Control_c, 6, 7, 0
11, 20350, Control_c, 6, 74, 54
11, 20351, Control_c, 6, 7, 0
11, 20352, Note_off_c, 6, 96, 64
11, 20355, Control_c, 6, 74, 54
11, 20360, Control_c, 6, 74, 54
11, 20365, Control_c, 6, 74, 54
11, 20370, Control_c, 6, 74, 54
11, 20375, Control_c, 6, 74, 54
11, 20380, Control_c, 6, 74, 54
11, 20385, Control_c, 6, 74, 54
11, 29171, Control_c, 6, 101, 0
11, 29171, Control_c, 6, 100, 0
11, 29171, Control_c, 6, 6, 12
11, 29171, Control_c, 6, 0, 6
11, 29171, Control_c, 6, 32, 4
11, 29171, Control_c, 6, 10, 64
11, 29171, Pitch_bend_c, 6, 8192
11, 29171, Program_c, 6, 122
11, 29171, Control_c, 6, 74, 54
11, 29171, Control_c, 6, 101, 0
11, 29171, Control_c, 6, 100, 0
11, 29171, Control_c, 6, 6, 12
11, 29171, Control_c, 6, 0, 6
11, 29171, Control_c, 6, 32, 4
11, 29171, Control_c, 6, 10, 64
11, 29171, Pitch_bend_c, 6, 8192
11, 29171, Program_c, 6, 122
11, 29171, Control_c, 6, 74, 54
11, 29171, Control_c, 6, 101, 0
11, 29171, Control_c, 6, 100, 0
11, 29171, Control_c, 6, 6, 12
11, 29171, Control_c, 6, 0, 6
11, 29171, Control_c, 6, 32, 4
11, 29171, Control_c, 6, 10, 64
11, 29171, Pitch_bend_c, 6, 8192
11, 29171, Program_c, 6, 122
11, 29171, Control_c, 6, 74, 54
11, 29171, End_track
12, 0, Start_track
12, 0, Title_t, "SyhthBrass"
12, 0, Control_c, 7, 10, 57
12, 0, Control_c, 7, 7, 79
12, 0, Pitch_bend_c, 7, 8192
12, 0, Control_c, 7, 101, 0
12, 0, Control_c, 7, 100, 0
12, 0, Control_c, 7, 6, 12
12, 0, Control_c, 7, 0, 3
12, 0, Control_c, 7, 32, 4
12, 0, Control_c, 7, 10, 57
12, 0, Control_c, 7, 7, 79
12, 0, Pitch_bend_c, 7, 8192
12, 0, Program_c, 7, 38
12, 0, Control_c, 7, 101, 0
12, 0, Control_c, 7, 100, 0
12, 0, Control_c, 7, 6, 12
12, 0, Control_c, 7, 0, 3
12, 0, Control_c, 7, 32, 4
12, 0, Control_c, 7, 10, 57
12, 0, Control_c, 7, 7, 79
12, 0, Pitch_bend_c, 7, 8192
12, 0, Program_c, 7, 38
12, 3912, Note_on_c, 7, 73, 81
12, 3912, Note_on_c, 7, 76, 81
12, 3932, Note_off_c, 7, 73, 64
12, 3932, Note_off_c, 7, 76, 64
12, 3984, Note_on_c, 7, 73, 81
12, 3984, Note_on_c, 7, 76, 81
12, 4004, Note_off_c, 7, 73, 64
12, 4004, Note_off_c, 7, 76, 64
12, 4008, Note_on_c, 7, 73, 81
12, 4008, Note_on_c, 7, 76, 81
12, 4028, Note_off_c, 7, 73, 64
12, 4028, Note_off_c, 7, 76, 64
12, 4104, Note_on_c, 7, 73, 81
12, 4104, Note_on_c, 7, 76, 81
12, 4124, Note_off_c, 7, 73, 64
12, 4124, Note_off_c, 7, 76, 64
12, 4200, Note_on_c, 7, 73, 81
12, 4200, Note_on_c, 7, 76, 81
12, 4220, Note_off_c, 7, 73, 64
12, 4220, Note_off_c, 7, 76, 64
12, 4296, Note_on_c, 7, 73, 81
12, 4296, Note_on_c, 7, 76, 81
12, 4316, Note_off_c, 7, 73, 64
12, 4316, Note_off_c, 7, 76, 64
12, 4392, Note_on_c, 7, 71, 81
12, 4392, Note_on_c, 7, 76, 81
12, 4412, Note_off_c, 7, 71, 64
12, 4412, Note_off_c, 7, 76, 64
12, 4488, Note_on_c, 7, 71, 81
12, 4488, Note_on_c, 7, 76, 81
12, 4508, Note_off_c, 7, 71, 64
12, 4508, Note_off_c, 7, 76, 64
12, 4584, Note_on_c, 7, 76, 81
12, 4584, Note_on_c, 7, 71, 81
12, 4604, Note_off_c, 7, 76, 64
12, 4604, Note_off_c, 7, 71, 64
12, 4680, Note_on_c, 7, 71, 81
12, 4680, Note_on_c, 7, 74, 81
12, 4700, Note_off_c, 7, 71, 64
12, 4700, Note_off_c, 7, 74, 64
12, 4776, Note_on_c, 7, 71, 81
12, 4776, Note_on_c, 7, 74, 81
12, 4796, Note_off_c, 7, 71, 64
12, 4796, Note_off_c, 7, 74, 64
12, 4872, Note_on_c, 7, 71, 81
12, 4872, Note_on_c, 7, 76, 81
12, 4892, Note_off_c, 7, 71, 64
12, 4892, Note_off_c, 7, 76, 64
12, 4968, Note_on_c, 7, 71, 81
12, 4968, Note_on_c, 7, 74, 81
12, 4988, Note_off_c, 7, 71, 64
12, 4988, Note_off_c, 7, 74, 64
12, 5064, Note_on_c, 7, 71, 81
12, 5064, Note_on_c, 7, 74, 81
12, 5084, Note_off_c, 7, 71, 64
12, 5084, Note_off_c, 7, 74, 64
12, 5160, Note_on_c, 7, 71, 81
12, 5160, Note_on_c, 7, 74, 81
12, 5180, Note_off_c, 7, 71, 64
12, 5180, Note_off_c, 7, 74, 64
12, 5256, Note_on_c, 7, 71, 81
12, 5256, Note_on_c, 7, 76, 81
12, 5276, Note_off_c, 7, 71, 64
12, 5276, Note_off_c, 7, 76, 64
12, 5352, Note_on_c, 7, 71, 81
12, 5352, Note_on_c, 7, 74, 81
12, 5372, Note_off_c, 7, 71, 64
12, 5372, Note_off_c, 7, 74, 64
12, 5376, Note_on_c, 7, 74, 81
12, 5376, Note_on_c, 7, 78, 81
12, 5396, Note_off_c, 7, 74, 64
12, 5396, Note_off_c, 7, 78, 64
12, 5424, Note_on_c, 7, 74, 81
12, 5424, Note_on_c, 7, 78, 81
12, 5444, Note_off_c, 7, 74, 64
12, 5444, Note_off_c, 7, 78, 64
12, 5448, Note_on_c, 7, 78, 81
12, 5448, Note_on_c, 7, 74, 81
12, 5468, Note_off_c, 7, 78, 64
12, 5468, Note_off_c, 7, 74, 64
12, 5496, Note_on_c, 7, 74, 81
12, 5496, Note_on_c, 7, 78, 81
12, 5516, Note_off_c, 7, 74, 64
12, 5516, Note_off_c, 7, 78, 64
12, 5520, Note_on_c, 7, 74, 81
12, 5520, Note_on_c, 7, 78, 81
12, 5540, Note_off_c, 7, 74, 64
12, 5540, Note_off_c, 7, 78, 64
12, 5568, Note_on_c, 7, 74, 81
12, 5568, Note_on_c, 7, 79, 81
12, 5588, Note_off_c, 7, 74, 64
12, 5588, Note_off_c, 7, 79, 64
12, 5616, Note_on_c, 7, 74, 81
12, 5616, Note_on_c, 7, 79, 81
12, 5636, Note_off_c, 7, 74, 64
12, 5636, Note_off_c, 7, 79, 64
12, 5640, Note_on_c, 7, 79, 81
12, 5640, Note_on_c, 7, 74, 81
12, 5660, Note_off_c, 7, 79, 64
12, 5660, Note_off_c, 7, 74, 64
12, 5688, Note_on_c, 7, 74, 81
12, 5688, Note_on_c, 7, 79, 81
12, 5708, Note_off_c, 7, 74, 64
12, 5708, Note_off_c, 7, 79, 64
12, 5712, Note_on_c, 7, 74, 81
12, 5712, Note_on_c, 7, 79, 81
12, 5732, Note_off_c, 7, 74, 64
12, 5732, Note_off_c, 7, 79, 64
12, 5760, Note_on_c, 7, 78, 81
12, 5760, Note_on_c, 7, 81, 81
12, 5780, Note_off_c, 7, 78, 64
12, 5780, Note_off_c, 7, 81, 64
12, 5808, Note_on_c, 7, 78, 81
12, 5808, Note_on_c, 7, 81, 81
12, 5828, Note_off_c, 7, 78, 64
12, 5828, Note_off_c, 7, 81, 64
12, 5832, Note_on_c, 7, 78, 81
12, 5832, Note_on_c, 7, 81, 81
12, 5852, Note_off_c, 7, 78, 64
12, 5852, Note_off_c, 7, 81, 64
12, 5880, Note_on_c, 7, 78, 81
12, 5880, Note_on_c, 7, 81, 81
12, 5900, Note_off_c, 7, 78, 64
12, 5900, Note_off_c, 7, 81, 64
12, 5904, Note_on_c, 7, 81, 81
12, 5904, Note_on_c, 7, 78, 81
12, 5924, Note_off_c, 7, 81, 64
12, 5924, Note_off_c, 7, 78, 64
12, 5952, Note_on_c, 7, 74, 81
12, 5952, Note_on_c, 7, 79, 81
12, 5972, Note_off_c, 7, 74, 64
12, 5972, Note_off_c, 7, 79, 64
12, 6000, Note_on_c, 7, 74, 81
12, 6000, Note_on_c, 7, 79, 81
12, 6020, Note_off_c, 7, 74, 64
12, 6020, Note_off_c, 7, 79, 64
12, 6024, Note_on_c, 7, 74, 81
12, 6024, Note_on_c, 7, 79, 81
12, 6044, Note_off_c, 7, 74, 64
12, 6044, Note_off_c, 7, 79, 64
12, 6072, Note_on_c, 7, 74, 81
12, 6072, Note_on_c, 7, 79, 81
12, 6092, Note_off_c, 7, 74, 64
12, 6092, Note_off_c, 7, 79, 64
12, 6096, Note_on_c, 7, 79, 81
12, 6096, Note_on_c, 7, 74, 81
12, 6116, Note_off_c, 7, 79, 64
12, 6116, Note_off_c, 7, 74, 64
12, 6216, Note_on_c, 7, 73, 81
12, 6216, Note_on_c, 7, 76, 81
12, 6236, Note_off_c, 7, 73, 64
12, 6236, Note_off_c, 7, 76, 64
12, 6288, Note_on_c, 7, 73, 81
12, 6288, Note_on_c, 7, 76, 81
12, 6308, Note_off_c, 7, 73, 64
12, 6308, Note_off_c, 7, 76, 64
12, 6312, Note_on_c, 7, 73, 81
12, 6312, Note_on_c, 7, 76, 81
12, 6332, Note_off_c, 7, 73, 64
12, 6332, Note_off_c, 7, 76, 64
12, 6408, Note_on_c, 7, 73, 81
12, 6408, Note_on_c, 7, 76, 81
12, 6428, Note_off_c, 7, 73, 64
12, 6428, Note_off_c, 7, 76, 64
12, 6504, Note_on_c, 7, 73, 81
12, 6504, Note_on_c, 7, 76, 81
12, 6524, Note_off_c, 7, 73, 64
12, 6524, Note_off_c, 7, 76, 64
12, 6984, Note_on_c, 7, 73, 81
12, 6984, Note_on_c, 7, 76, 81
12, 7004, Note_off_c, 7, 73, 64
12, 7004, Note_off_c, 7, 76, 64
12, 7056, Note_on_c, 7, 73, 81
12, 7056, Note_on_c, 7, 76, 81
12, 7076, Note_off_c, 7, 73, 64
12, 7076, Note_off_c, 7, 76, 64
12, 7080, Note_on_c, 7, 73, 81
12, 7080, Note_on_c, 7, 76, 81
12, 7100, Note_off_c, 7, 73, 64
12, 7100, Note_off_c, 7, 76, 64
12, 7176, Note_on_c, 7, 73, 81
12, 7176, Note_on_c, 7, 76, 81
12, 7196, Note_off_c, 7, 73, 64
12, 7196, Note_off_c, 7, 76, 64
12, 7272, Note_on_c, 7, 73, 81
12, 7272, Note_on_c, 7, 76, 81
12, 7292, Note_off_c, 7, 73, 64
12, 7292, Note_off_c, 7, 76, 64
12, 7368, Note_on_c, 7, 73, 81
12, 7368, Note_on_c, 7, 76, 81
12, 7388, Note_off_c, 7, 73, 64
12, 7388, Note_off_c, 7, 76, 64
12, 7464, Note_on_c, 7, 71, 81
12, 7464, Note_on_c, 7, 76, 81
12, 7484, Note_off_c, 7, 71, 64
12, 7484, Note_off_c, 7, 76, 64
12, 7560, Note_on_c, 7, 71, 81
12, 7560, Note_on_c, 7, 76, 81
12, 7580, Note_off_c, 7, 71, 64
12, 7580, Note_off_c, 7, 76, 64
12, 7656, Note_on_c, 7, 76, 81
12, 7656, Note_on_c, 7, 71, 81
12, 7676, Note_off_c, 7, 76, 64
12, 7676, Note_off_c, 7, 71, 64
12, 7752, Note_on_c, 7, 71, 81
12, 7752, Note_on_c, 7, 74, 81
12, 7772, Note_off_c, 7, 71, 64
12, 7772, Note_off_c, 7, 74, 64
12, 7848, Note_on_c, 7, 71, 81
12, 7848, Note_on_c, 7, 74, 81
12, 7868, Note_off_c, 7, 71, 64
12, 7868, Note_off_c, 7, 74, 64
12, 7944, Note_on_c, 7, 71, 81
12, 7944, Note_on_c, 7, 76, 81
12, 7964, Note_off_c, 7, 71, 64
12, 7964, Note_off_c, 7, 76, 64
12, 8040, Note_on_c, 7, 71, 81
12, 8040, Note_on_c, 7, 74, 81
12, 8060, Note_off_c, 7, 71, 64
12, 8060, Note_off_c, 7, 74, 64
12, 8136, Note_on_c, 7, 71, 81
12, 8136, Note_on_c, 7, 74, 81
12, 8156, Note_off_c, 7, 71, 64
12, 8156, Note_off_c, 7, 74, 64
12, 8232, Note_on_c, 7, 71, 81
12, 8232, Note_on_c, 7, 74, 81
12, 8252, Note_off_c, 7, 71, 64
12, 8252, Note_off_c, 7, 74, 64
12, 8328, Note_on_c, 7, 71, 81
12, 8328, Note_on_c, 7, 76, 81
12, 8348, Note_off_c, 7, 71, 64
12, 8348, Note_off_c, 7, 76, 64
12, 8424, Note_on_c, 7, 71, 81
12, 8424, Note_on_c, 7, 74, 81
12, 8444, Note_off_c, 7, 71, 64
12, 8444, Note_off_c, 7, 74, 64
12, 8448, Note_on_c, 7, 74, 81
12, 8448, Note_on_c, 7, 78, 81
12, 8468, Note_off_c, 7, 74, 64
12, 8468, Note_off_c, 7, 78, 64
12, 8496, Note_on_c, 7, 74, 81
12, 8496, Note_on_c, 7, 78, 81
12, 8516, Note_off_c, 7, 74, 64
12, 8516, Note_off_c, 7, 78, 64
12, 8520, Note_on_c, 7, 78, 81
12, 8520, Note_on_c, 7, 74, 81
12, 8540, Note_off_c, 7, 78, 64
12, 8540, Note_off_c, 7, 74, 64
12, 8568, Note_on_c, 7, 74, 81
12, 8568, Note_on_c, 7, 78, 81
12, 8588, Note_off_c, 7, 74, 64
12, 8588, Note_off_c, 7, 78, 64
12, 8592, Note_on_c, 7, 74, 81
12, 8592, Note_on_c, 7, 78, 81
12, 8612, Note_off_c, 7, 74, 64
12, 8612, Note_off_c, 7, 78, 64
12, 8640, Note_on_c, 7, 74, 81
12, 8640, Note_on_c, 7, 79, 81
12, 8660, Note_off_c, 7, 74, 64
12, 8660, Note_off_c, 7, 79, 64
12, 8688, Note_on_c, 7, 74, 81
12, 8688, Note_on_c, 7, 79, 81
12, 8708, Note_off_c, 7, 74, 64
12, 8708, Note_off_c, 7, 79, 64
12, 8712, Note_on_c, 7, 79, 81
12, 8712, Note_on_c, 7, 74, 81
12, 8732, Note_off_c, 7, 79, 64
12, 8732, Note_off_c, 7, 74, 64
12, 8760, Note_on_c, 7, 74, 81
12, 8760, Note_on_c, 7, 79, 81
12, 8780, Note_off_c, 7, 74, 64
12, 8780, Note_off_c, 7, 79, 64
12, 8784, Note_on_c, 7, 74, 81
12, 8784, Note_on_c, 7, 79, 81
12, 8804, Note_off_c, 7, 74, 64
12, 8804, Note_off_c, 7, 79, 64
12, 8832, Note_on_c, 7, 78, 81
12, 8832, Note_on_c, 7, 81, 81
12, 8852, Note_off_c, 7, 78, 64
12, 8852, Note_off_c, 7, 81, 64
12, 8880, Note_on_c, 7, 78, 81
12, 8880, Note_on_c, 7, 81, 81
12, 8900, Note_off_c, 7, 78, 64
12, 8900, Note_off_c, 7, 81, 64
12, 8904, Note_on_c, 7, 78, 81
12, 8904, Note_on_c, 7, 81, 81
12, 8924, Note_off_c, 7, 78, 64
12, 8924, Note_off_c, 7, 81, 64
12, 8952, Note_on_c, 7, 78, 81
12, 8952, Note_on_c, 7, 81, 81
12, 8972, Note_off_c, 7, 78, 64
12, 8972, Note_off_c, 7, 81, 64
12, 8976, Note_on_c, 7, 81, 81
12, 8976, Note_on_c, 7, 78, 81
12, 8996, Note_off_c, 7, 81, 64
12, 8996, Note_off_c, 7, 78, 64
12, 9024, Note_on_c, 7, 74, 81
12, 9024, Note_on_c, 7, 79, 81
12, 9044, Note_off_c, 7, 74, 64
12, 9044, Note_off_c, 7, 79, 64
12, 9072, Note_on_c, 7, 74, 81
12, 9072, Note_on_c, 7, 79, 81
12, 9092, Note_off_c, 7, 74, 64
12, 9092, Note_off_c, 7, 79, 64
12, 9096, Note_on_c, 7, 74, 81
12, 9096, Note_on_c, 7, 79, 81
12, 9116, Note_off_c, 7, 74, 64
12, 9116, Note_off_c, 7, 79, 64
12, 9144, Note_on_c, 7, 74, 81
12, 9144, Note_on_c, 7, 79, 81
12, 9164, Note_off_c, 7, 74, 64
12, 9164, Note_off_c, 7, 79, 64
12, 9168, Note_on_c, 7, 79, 81
12, 9168, Note_on_c, 7, 74, 81
12, 9188, Note_off_c, 7, 79, 64
12, 9188, Note_off_c, 7, 74, 64
12, 9288, Note_on_c, 7, 73, 81
12, 9288, Note_on_c, 7, 76, 81
12, 9308, Note_off_c, 7, 73, 64
12, 9308, Note_off_c, 7, 76, 64
12, 9360, Note_on_c, 7, 73, 81
12, 9360, Note_on_c, 7, 76, 81
12, 9380, Note_off_c, 7, 73, 64
12, 9380, Note_off_c, 7, 76, 64
12, 9384, Note_on_c, 7, 73, 81
12, 9384, Note_on_c, 7, 76, 81
12, 9404, Note_off_c, 7, 73, 64
12, 9404, Note_off_c, 7, 76, 64
12, 9480, Note_on_c, 7, 73, 81
12, 9480, Note_on_c, 7, 76, 81
12, 9500, Note_off_c, 7, 73, 64
12, 9500, Note_off_c, 7, 76, 64
12, 9576, Note_on_c, 7, 76, 81
12, 9576, Note_on_c, 7, 73, 81
12, 9596, Note_off_c, 7, 76, 64
12, 9596, Note_off_c, 7, 73, 64
12, 9672, Note_on_c, 7, 73, 81
12, 9672, Note_on_c, 7, 76, 81
12, 9692, Note_off_c, 7, 73, 64
12, 9692, Note_off_c, 7, 76, 64
12, 9768, Note_on_c, 7, 71, 81
12, 9768, Note_on_c, 7, 74, 81
12, 9788, Note_off_c, 7, 71, 64
12, 9788, Note_off_c, 7, 74, 64
12, 9864, Note_on_c, 7, 71, 81
12, 9864, Note_on_c, 7, 74, 81
12, 9884, Note_off_c, 7, 71, 64
12, 9884, Note_off_c, 7, 74, 64
12, 9960, Note_on_c, 7, 73, 81
12, 9960, Note_on_c, 7, 76, 81
12, 9980, Note_off_c, 7, 73, 64
12, 9980, Note_off_c, 7, 76, 64
12, 10056, Note_on_c, 7, 73, 81
12, 10056, Note_on_c, 7, 76, 81
12, 10076, Note_off_c, 7, 73, 64
12, 10076, Note_off_c, 7, 76, 64
12, 10128, Note_on_c, 7, 73, 81
12, 10128, Note_on_c, 7, 76, 81
12, 10148, Note_off_c, 7, 73, 64
12, 10148, Note_off_c, 7, 76, 64
12, 10152, Note_on_c, 7, 73, 81
12, 10152, Note_on_c, 7, 76, 81
12, 10172, Note_off_c, 7, 73, 64
12, 10172, Note_off_c, 7, 76, 64
12, 10248, Note_on_c, 7, 73, 81
12, 10248, Note_on_c, 7, 76, 81
12, 10268, Note_off_c, 7, 73, 64
12, 10268, Note_off_c, 7, 76, 64
12, 10344, Note_on_c, 7, 73, 81
12, 10344, Note_on_c, 7, 76, 81
12, 10364, Note_off_c, 7, 73, 64
12, 10364, Note_off_c, 7, 76, 64
12, 10440, Note_on_c, 7, 73, 81
12, 10440, Note_on_c, 7, 76, 81
12, 10460, Note_off_c, 7, 73, 64
12, 10460, Note_off_c, 7, 76, 64
12, 10536, Note_on_c, 7, 71, 81
12, 10536, Note_on_c, 7, 76, 81
12, 10556, Note_off_c, 7, 71, 64
12, 10556, Note_off_c, 7, 76, 64
12, 10632, Note_on_c, 7, 71, 81
12, 10632, Note_on_c, 7, 76, 81
12, 10652, Note_off_c, 7, 71, 64
12, 10652, Note_off_c, 7, 76, 64
12, 10728, Note_on_c, 7, 76, 81
12, 10728, Note_on_c, 7, 71, 81
12, 10748, Note_off_c, 7, 76, 64
12, 10748, Note_off_c, 7, 71, 64
12, 10824, Note_on_c, 7, 71, 81
12, 10824, Note_on_c, 7, 74, 81
12, 10844, Note_off_c, 7, 71, 64
12, 10844, Note_off_c, 7, 74, 64
12, 10920, Note_on_c, 7, 71, 81
12, 10920, Note_on_c, 7, 74, 81
12, 10940, Note_off_c, 7, 71, 64
12, 10940, Note_off_c, 7, 74, 64
12, 11016, Note_on_c, 7, 71, 81
12, 11016, Note_on_c, 7, 76, 81
12, 11036, Note_off_c, 7, 71, 64
12, 11036, Note_off_c, 7, 76, 64
12, 11112, Note_on_c, 7, 71, 81
12, 11112, Note_on_c, 7, 74, 81
12, 11132, Note_off_c, 7, 71, 64
12, 11132, Note_off_c, 7, 74, 64
12, 11208, Note_on_c, 7, 71, 81
12, 11208, Note_on_c, 7, 74, 81
12, 11228, Note_off_c, 7, 71, 64
12, 11228, Note_off_c, 7, 74, 64
12, 11304, Note_on_c, 7, 71, 81
12, 11304, Note_on_c, 7, 74, 81
12, 11324, Note_off_c, 7, 71, 64
12, 11324, Note_off_c, 7, 74, 64
12, 11400, Note_on_c, 7, 71, 81
12, 11400, Note_on_c, 7, 76, 81
12, 11420, Note_off_c, 7, 71, 64
12, 11420, Note_off_c, 7, 76, 64
12, 11496, Note_on_c, 7, 71, 81
12, 11496, Note_on_c, 7, 74, 81
12, 11516, Note_off_c, 7, 71, 64
12, 11516, Note_off_c, 7, 74, 64
12, 11520, Note_on_c, 7, 74, 81
12, 11520, Note_on_c, 7, 78, 81
12, 11540, Note_off_c, 7, 74, 64
12, 11540, Note_off_c, 7, 78, 64
12, 11568, Note_on_c, 7, 74, 81
12, 11568, Note_on_c, 7, 78, 81
12, 11588, Note_off_c, 7, 74, 64
12, 11588, Note_off_c, 7, 78, 64
12, 11592, Note_on_c, 7, 78, 81
12, 11592, Note_on_c, 7, 74, 81
12, 11612, Note_off_c, 7, 78, 64
12, 11612, Note_off_c, 7, 74, 64
12, 11640, Note_on_c, 7, 74, 81
12, 11640, Note_on_c, 7, 78, 81
12, 11660, Note_off_c, 7, 74, 64
12, 11660, Note_off_c, 7, 78, 64
12, 11664, Note_on_c, 7, 74, 81
12, 11664, Note_on_c, 7, 78, 81
12, 11684, Note_off_c, 7, 74, 64
12, 11684, Note_off_c, 7, 78, 64
12, 11712, Note_on_c, 7, 74, 81
12, 11712, Note_on_c, 7, 79, 81
12, 11732, Note_off_c, 7, 74, 64
12, 11732, Note_off_c, 7, 79, 64
12, 11760, Note_on_c, 7, 74, 81
12, 11760, Note_on_c, 7, 79, 81
12, 11780, Note_off_c, 7, 74, 64
12, 11780, Note_off_c, 7, 79, 64
12, 11784, Note_on_c, 7, 79, 81
12, 11784, Note_on_c, 7, 74, 81
12, 11804, Note_off_c, 7, 79, 64
12, 11804, Note_off_c, 7, 74, 64
12, 11832, Note_on_c, 7, 74, 81
12, 11832, Note_on_c, 7, 79, 81
12, 11852, Note_off_c, 7, 74, 64
12, 11852, Note_off_c, 7, 79, 64
12, 11856, Note_on_c, 7, 74, 81
12, 11856, Note_on_c, 7, 79, 81
12, 11876, Note_off_c, 7, 74, 64
12, 11876, Note_off_c, 7, 79, 64
12, 11904, Note_on_c, 7, 78, 81
12, 11904, Note_on_c, 7, 81, 81
12, 11924, Note_off_c, 7, 78, 64
12, 11924, Note_off_c, 7, 81, 64
12, 11952, Note_on_c, 7, 78, 81
12, 11952, Note_on_c, 7, 81, 81
12, 11972, Note_off_c, 7, 78, 64
12, 11972, Note_off_c, 7, 81, 64
12, 11976, Note_on_c, 7, 78, 81
12, 11976, Note_on_c, 7, 81, 81
12, 11996, Note_off_c, 7, 78, 64
12, 11996, Note_off_c, 7, 81, 64
12, 12024, Note_on_c, 7, 78, 81
12, 12024, Note_on_c, 7, 81, 81
12, 12044, Note_off_c, 7, 78, 64
12, 12044, Note_off_c, 7, 81, 64
12, 12048, Note_on_c, 7, 81, 81
12, 12048, Note_on_c, 7, 78, 81
12, 12068, Note_off_c, 7, 81, 64
12, 12068, Note_off_c, 7, 78, 64
12, 12096, Note_on_c, 7, 74, 81
12, 12096, Note_on_c, 7, 79, 81
12, 12116, Note_off_c, 7, 74, 64
12, 12116, Note_off_c, 7, 79, 64
12, 12144, Note_on_c, 7, 74, 81
12, 12144, Note_on_c, 7, 79, 81
12, 12164, Note_off_c, 7, 74, 64
12, 12164, Note_off_c, 7, 79, 64
12, 12168, Note_on_c, 7, 74, 81
12, 12168, Note_on_c, 7, 79, 81
12, 12188, Note_off_c, 7, 74, 64
12, 12188, Note_off_c, 7, 79, 64
12, 12216, Note_on_c, 7, 74, 81
12, 12216, Note_on_c, 7, 79, 81
12, 12236, Note_off_c, 7, 74, 64
12, 12236, Note_off_c, 7, 79, 64
12, 12240, Note_on_c, 7, 79, 81
12, 12240, Note_on_c, 7, 74, 81
12, 12260, Note_off_c, 7, 79, 64
12, 12260, Note_off_c, 7, 74, 64
12, 12360, Note_on_c, 7, 73, 81
12, 12360, Note_on_c, 7, 76, 81
12, 12380, Note_off_c, 7, 73, 64
12, 12380, Note_off_c, 7, 76, 64
12, 12432, Note_on_c, 7, 73, 81
12, 12432, Note_on_c, 7, 76, 81
12, 12452, Note_off_c, 7, 73, 64
12, 12452, Note_off_c, 7, 76, 64
12, 12456, Note_on_c, 7, 73, 81
12, 12456, Note_on_c, 7, 76, 81
12, 12476, Note_off_c, 7, 73, 64
12, 12476, Note_off_c, 7, 76, 64
12, 12552, Note_on_c, 7, 73, 81
12, 12552, Note_on_c, 7, 76, 81
12, 12572, Note_off_c, 7, 73, 64
12, 12572, Note_off_c, 7, 76, 64
12, 12648, Note_on_c, 7, 76, 81
12, 12648, Note_on_c, 7, 73, 81
12, 12668, Note_off_c, 7, 76, 64
12, 12668, Note_off_c, 7, 73, 64
12, 12744, Note_on_c, 7, 73, 81
12, 12744, Note_on_c, 7, 76, 81
12, 12764, Note_off_c, 7, 73, 64
12, 12764, Note_off_c, 7, 76, 64
12, 12840, Note_on_c, 7, 71, 81
12, 12840, Note_on_c, 7, 74, 81
12, 12860, Note_off_c, 7, 71, 64
12, 12860, Note_off_c, 7, 74, 64
12, 12936, Note_on_c, 7, 71, 81
12, 12936, Note_on_c, 7, 74, 81
12, 12956, Note_off_c, 7, 71, 64
12, 12956, Note_off_c, 7, 74, 64
12, 13032, Note_on_c, 7, 73, 81
12, 13032, Note_on_c, 7, 76, 81
12, 13052, Note_off_c, 7, 73, 64
12, 13052, Note_off_c, 7, 76, 64
12, 19272, Note_on_c, 7, 73, 81
12, 19272, Note_on_c, 7, 76, 81
12, 19292, Note_off_c, 7, 73, 64
12, 19292, Note_off_c, 7, 76, 64
12, 19344, Note_on_c, 7, 73, 81
12, 19344, Note_on_c, 7, 76, 81
12, 19364, Note_off_c, 7, 73, 64
12, 19364, Note_off_c, 7, 76, 64
12, 19368, Note_on_c, 7, 73, 81
12, 19368, Note_on_c, 7, 76, 81
12, 19388, Note_off_c, 7, 73, 64
12, 19388, Note_off_c, 7, 76, 64
12, 19464, Note_on_c, 7, 73, 81
12, 19464, Note_on_c, 7, 76, 81
12, 19484, Note_off_c, 7, 73, 64
12, 19484, Note_off_c, 7, 76, 64
12, 19560, Note_on_c, 7, 73, 81
12, 19560, Note_on_c, 7, 76, 81
12, 19580, Note_off_c, 7, 73, 64
12, 19580, Note_off_c, 7, 76, 64
12, 19656, Note_on_c, 7, 73, 81
12, 19656, Note_on_c, 7, 76, 81
12, 19676, Note_off_c, 7, 73, 64
12, 19676, Note_off_c, 7, 76, 64
12, 19752, Note_on_c, 7, 71, 81
12, 19752, Note_on_c, 7, 76, 81
12, 19772, Note_off_c, 7, 71, 64
12, 19772, Note_off_c, 7, 76, 64
12, 19848, Note_on_c, 7, 71, 81
12, 19848, Note_on_c, 7, 76, 81
12, 19868, Note_off_c, 7, 71, 64
12, 19868, Note_off_c, 7, 76, 64
12, 19944, Note_on_c, 7, 76, 81
12, 19944, Note_on_c, 7, 71, 81
12, 19964, Note_off_c, 7, 76, 64
12, 19964, Note_off_c, 7, 71, 64
12, 20040, Note_on_c, 7, 71, 81
12, 20040, Note_on_c, 7, 74, 81
12, 20060, Note_off_c, 7, 71, 64
12, 20060, Note_off_c, 7, 74, 64
12, 20136, Note_on_c, 7, 71, 81
12, 20136, Note_on_c, 7, 74, 81
12, 20156, Note_off_c, 7, 71, 64
12, 20156, Note_off_c, 7, 74, 64
12, 20232, Note_on_c, 7, 71, 81
12, 20232, Note_on_c, 7, 76, 81
12, 20252, Note_off_c, 7, 71, 64
12, 20252, Note_off_c, 7, 76, 64
12, 20328, Note_on_c, 7, 71, 81
12, 20328, Note_on_c, 7, 74, 81
12, 20348, Note_off_c, 7, 71, 64
12, 20348, Note_off_c, 7, 74, 64
12, 20424, Note_on_c, 7, 71, 81
12, 20424, Note_on_c, 7, 74, 81
12, 20444, Note_off_c, 7, 71, 64
12, 20444, Note_off_c, 7, 74, 64
12, 20520, Note_on_c, 7, 71, 81
12, 20520, Note_on_c, 7, 74, 81
12, 20540, Note_off_c, 7, 71, 64
12, 20540, Note_off_c, 7, 74, 64
12, 20616, Note_on_c, 7, 71, 81
12, 20616, Note_on_c, 7, 76, 81
12, 20636, Note_off_c, 7, 71, 64
12, 20636, Note_off_c, 7, 76, 64
12, 20712, Note_on_c, 7, 71, 81
12, 20712, Note_on_c, 7, 74, 81
12, 20732, Note_off_c, 7, 71, 64
12, 20732, Note_off_c, 7, 74, 64
12, 20736, Note_on_c, 7, 74, 81
12, 20736, Note_on_c, 7, 78, 81
12, 20756, Note_off_c, 7, 74, 64
12, 20756, Note_off_c, 7, 78, 64
12, 20784, Note_on_c, 7, 74, 81
12, 20784, Note_on_c, 7, 78, 81
12, 20804, Note_off_c, 7, 74, 64
12, 20804, Note_off_c, 7, 78, 64
12, 20808, Note_on_c, 7, 78, 81
12, 20808, Note_on_c, 7, 74, 81
12, 20828, Note_off_c, 7, 78, 64
12, 20828, Note_off_c, 7, 74, 64
12, 20856, Note_on_c, 7, 74, 81
12, 20856, Note_on_c, 7, 78, 81
12, 20876, Note_off_c, 7, 74, 64
12, 20876, Note_off_c, 7, 78, 64
12, 20880, Note_on_c, 7, 74, 81
12, 20880, Note_on_c, 7, 78, 81
12, 20900, Note_off_c, 7, 74, 64
12, 20900, Note_off_c, 7, 78, 64
12, 20928, Note_on_c, 7, 74, 81
12, 20928, Note_on_c, 7, 79, 81
12, 20948, Note_off_c, 7, 74, 64
12, 20948, Note_off_c, 7, 79, 64
12, 20976, Note_on_c, 7, 74, 81
12, 20976, Note_on_c, 7, 79, 81
12, 20996, Note_off_c, 7, 74, 64
12, 20996, Note_off_c, 7, 79, 64
12, 21000, Note_on_c, 7, 79, 81
12, 21000, Note_on_c, 7, 74, 81
12, 21020, Note_off_c, 7, 79, 64
12, 21020, Note_off_c, 7, 74, 64
12, 21048, Note_on_c, 7, 74, 81
12, 21048, Note_on_c, 7, 79, 81
12, 21068, Note_off_c, 7, 74, 64
12, 21068, Note_off_c, 7, 79, 64
12, 21072, Note_on_c, 7, 74, 81
12, 21072, Note_on_c, 7, 79, 81
12, 21092, Note_off_c, 7, 74, 64
12, 21092, Note_off_c, 7, 79, 64
12, 21120, Note_on_c, 7, 78, 81
12, 21120, Note_on_c, 7, 81, 81
12, 21140, Note_off_c, 7, 78, 64
12, 21140, Note_off_c, 7, 81, 64
12, 21168, Note_on_c, 7, 78, 81
12, 21168, Note_on_c, 7, 81, 81
12, 21188, Note_off_c, 7, 78, 64
12, 21188, Note_off_c, 7, 81, 64
12, 21192, Note_on_c, 7, 78, 81
12, 21192, Note_on_c, 7, 81, 81
12, 21212, Note_off_c, 7, 78, 64
12, 21212, Note_off_c, 7, 81, 64
12, 21240, Note_on_c, 7, 78, 81
12, 21240, Note_on_c, 7, 81, 81
12, 21260, Note_off_c, 7, 78, 64
12, 21260, Note_off_c, 7, 81, 64
12, 21264, Note_on_c, 7, 81, 81
12, 21264, Note_on_c, 7, 78, 81
12, 21284, Note_off_c, 7, 81, 64
12, 21284, Note_off_c, 7, 78, 64
12, 21312, Note_on_c, 7, 74, 81
12, 21312, Note_on_c, 7, 79, 81
12, 21332, Note_off_c, 7, 74, 64
12, 21332, Note_off_c, 7, 79, 64
12, 21360, Note_on_c, 7, 74, 81
12, 21360, Note_on_c, 7, 79, 81
12, 21380, Note_off_c, 7, 74, 64
12, 21380, Note_off_c, 7, 79, 64
12, 21384, Note_on_c, 7, 74, 81
12, 21384, Note_on_c, 7, 79, 81
12, 21404, Note_off_c, 7, 74, 64
12, 21404, Note_off_c, 7, 79, 64
12, 21432, Note_on_c, 7, 74, 81
12, 21432, Note_on_c, 7, 79, 81
12, 21452, Note_off_c, 7, 74, 64
12, 21452, Note_off_c, 7, 79, 64
12, 21456, Note_on_c, 7, 79, 81
12, 21456, Note_on_c, 7, 74, 81
12, 21476, Note_off_c, 7, 79, 64
12, 21476, Note_off_c, 7, 74, 64
12, 21576, Note_on_c, 7, 73, 81
12, 21576, Note_on_c, 7, 76, 81
12, 21596, Note_off_c, 7, 73, 64
12, 21596, Note_off_c, 7, 76, 64
12, 21648, Note_on_c, 7, 73, 81
12, 21648, Note_on_c, 7, 76, 81
12, 21668, Note_off_c, 7, 73, 64
12, 21668, Note_off_c, 7, 76, 64
12, 21672, Note_on_c, 7, 73, 81
12, 21672, Note_on_c, 7, 76, 81
12, 21692, Note_off_c, 7, 73, 64
12, 21692, Note_off_c, 7, 76, 64
12, 21768, Note_on_c, 7, 73, 81
12, 21768, Note_on_c, 7, 76, 81
12, 21788, Note_off_c, 7, 73, 64
12, 21788, Note_off_c, 7, 76, 64
12, 21864, Note_on_c, 7, 76, 81
12, 21864, Note_on_c, 7, 73, 81
12, 21884, Note_off_c, 7, 76, 64
12, 21884, Note_off_c, 7, 73, 64
12, 21960, Note_on_c, 7, 73, 81
12, 21960, Note_on_c, 7, 76, 81
12, 21980, Note_off_c, 7, 73, 64
12, 21980, Note_off_c, 7, 76, 64
12, 22056, Note_on_c, 7, 71, 81
12, 22056, Note_on_c, 7, 74, 81
12, 22076, Note_off_c, 7, 71, 64
12, 22076, Note_off_c, 7, 74, 64
12, 22152, Note_on_c, 7, 71, 81
12, 22152, Note_on_c, 7, 74, 81
12, 22172, Note_off_c, 7, 71, 64
12, 22172, Note_off_c, 7, 74, 64
12, 22248, Note_on_c, 7, 73, 81
12, 22248, Note_on_c, 7, 76, 81
12, 22268, Note_off_c, 7, 73, 64
12, 22268, Note_off_c, 7, 76, 64
12, 22320, Note_on_c, 7, 73, 81
12, 22320, Note_on_c, 7, 76, 81
12, 22344, Note_on_c, 7, 73, 81
12, 22344, Note_on_c, 7, 76, 81
12, 22346, Note_off_c, 7, 73, 64
12, 22346, Note_off_c, 7, 76, 64
12, 22370, Note_off_c, 7, 76, 64
12, 22370, Note_off_c, 7, 73, 64
12, 22416, Note_on_c, 7, 73, 81
12, 22416, Note_on_c, 7, 76, 81
12, 22440, Note_on_c, 7, 73, 81
12, 22440, Note_on_c, 7, 76, 81
12, 22442, Note_off_c, 7, 73, 64
12, 22442, Note_off_c, 7, 76, 64
12, 22466, Note_off_c, 7, 76, 64
12, 22466, Note_off_c, 7, 73, 64
12, 22512, Note_on_c, 7, 76, 81
12, 22512, Note_on_c, 7, 73, 81
12, 22536, Note_on_c, 7, 73, 81
12, 22536, Note_on_c, 7, 76, 81
12, 22538, Note_off_c, 7, 76, 64
12, 22538, Note_off_c, 7, 73, 64
12, 22562, Note_off_c, 7, 76, 64
12, 22562, Note_off_c, 7, 73, 64
12, 22608, Note_on_c, 7, 73, 81
12, 22608, Note_on_c, 7, 76, 81
12, 22632, Note_on_c, 7, 73, 81
12, 22632, Note_on_c, 7, 76, 81
12, 22634, Note_off_c, 7, 73, 64
12, 22634, Note_off_c, 7, 76, 64
12, 22658, Note_off_c, 7, 76, 64
12, 22658, Note_off_c, 7, 73, 64
12, 22704, Note_on_c, 7, 71, 81
12, 22704, Note_on_c, 7, 76, 81
12, 22728, Note_on_c, 7, 71, 81
12, 22728, Note_on_c, 7, 76, 81
12, 22730, Note_off_c, 7, 71, 64
12, 22730, Note_off_c, 7, 76, 64
12, 22754, Note_off_c, 7, 76, 64
12, 22754, Note_off_c, 7, 71, 64
12, 22800, Note_on_c, 7, 71, 81
12, 22800, Note_on_c, 7, 76, 81
12, 22824, Note_on_c, 7, 71, 81
12, 22824, Note_on_c, 7, 76, 81
12, 22826, Note_off_c, 7, 71, 64
12, 22826, Note_off_c, 7, 76, 64
12, 22850, Note_off_c, 7, 76, 64
12, 22850, Note_off_c, 7, 71, 64
12, 22896, Note_on_c, 7, 76, 81
12, 22896, Note_on_c, 7, 80, 81
12, 22920, Note_on_c, 7, 76, 81
12, 22920, Note_on_c, 7, 80, 81
12, 22922, Note_off_c, 7, 76, 64
12, 22922, Note_off_c, 7, 80, 64
12, 22946, Note_off_c, 7, 80, 64
12, 22946, Note_off_c, 7, 76, 64
12, 22992, Note_on_c, 7, 76, 81
12, 22992, Note_on_c, 7, 80, 81
12, 23016, Note_on_c, 7, 76, 81
12, 23016, Note_on_c, 7, 80, 81
12, 23018, Note_off_c, 7, 76, 64
12, 23018, Note_off_c, 7, 80, 64
12, 23042, Note_off_c, 7, 80, 64
12, 23042, Note_off_c, 7, 76, 64
12, 23088, Note_on_c, 7, 78, 81
12, 23088, Note_on_c, 7, 81, 81
12, 23112, Note_on_c, 7, 78, 81
12, 23112, Note_on_c, 7, 81, 81
12, 23114, Note_off_c, 7, 78, 64
12, 23114, Note_off_c, 7, 81, 64
12, 23138, Note_off_c, 7, 81, 64
12, 23138, Note_off_c, 7, 78, 64
12, 23184, Note_on_c, 7, 78, 81
12, 23184, Note_on_c, 7, 81, 81
12, 23208, Note_on_c, 7, 78, 81
12, 23208, Note_on_c, 7, 81, 81
12, 23210, Note_off_c, 7, 78, 64
12, 23210, Note_off_c, 7, 81, 64
12, 23234, Note_off_c, 7, 81, 64
12, 23234, Note_off_c, 7, 78, 64
12, 23280, Note_on_c, 7, 78, 81
12, 23280, Note_on_c, 7, 81, 81
12, 23304, Note_on_c, 7, 78, 81
12, 23304, Note_on_c, 7, 81, 81
12, 23306, Note_off_c, 7, 78, 64
12, 23306, Note_off_c, 7, 81, 64
12, 23330, Note_off_c, 7, 81, 64
12, 23330, Note_off_c, 7, 78, 64
12, 23376, Note_on_c, 7, 78, 81
12, 23376, Note_on_c, 7, 81, 81
12, 23400, Note_on_c, 7, 78, 81
12, 23400, Note_on_c, 7, 81, 81
12, 23402, Note_off_c, 7, 78, 64
12, 23402, Note_off_c, 7, 81, 64
12, 23426, Note_off_c, 7, 81, 64
12, 23426, Note_off_c, 7, 78, 64
12, 23472, Note_on_c, 7, 78, 81
12, 23472, Note_on_c, 7, 81, 81
12, 23496, Note_on_c, 7, 78, 81
12, 23496, Note_on_c, 7, 81, 81
12, 23498, Note_off_c, 7, 78, 64
12, 23498, Note_off_c, 7, 81, 64
12, 23522, Note_off_c, 7, 81, 64
12, 23522, Note_off_c, 7, 78, 64
12, 23568, Note_on_c, 7, 78, 81
12, 23568, Note_on_c, 7, 81, 81
12, 23592, Note_on_c, 7, 78, 81
12, 23592, Note_on_c, 7, 81, 81
12, 23594, Note_off_c, 7, 78, 64
12, 23594, Note_off_c, 7, 81, 64
12, 23618, Note_off_c, 7, 81, 64
12, 23618, Note_off_c, 7, 78, 64
12, 23664, Note_on_c, 7, 78, 81
12, 23664, Note_on_c, 7, 81, 81
12, 23688, Note_on_c, 7, 78, 81
12, 23688, Note_on_c, 7, 81, 81
12, 23690, Note_off_c, 7, 78, 64
12, 23690, Note_off_c, 7, 81, 64
12, 23714, Note_off_c, 7, 81, 64
12, 23714, Note_off_c, 7, 78, 64
12, 23760, Note_on_c, 7, 78, 81
12, 23760, Note_on_c, 7, 81, 81
12, 23784, Note_on_c, 7, 78, 81
12, 23784, Note_on_c, 7, 81, 81
12, 23786, Note_off_c, 7, 78, 64
12, 23786, Note_off_c, 7, 81, 64
12, 23810, Note_off_c, 7, 81, 64
12, 23810, Note_off_c, 7, 78, 64
12, 23856, Note_on_c, 7, 74, 81
12, 23856, Note_on_c, 7, 78, 81
12, 23880, Note_on_c, 7, 74, 81
12, 23880, Note_on_c, 7, 78, 81
12, 23882, Note_off_c, 7, 74, 64
12, 23882, Note_off_c, 7, 78, 64
12, 23906, Note_off_c, 7, 78, 64
12, 23906, Note_off_c, 7, 74, 64
12, 23952, Note_on_c, 7, 78, 81
12, 23952, Note_on_c, 7, 74, 81
12, 23978, Note_off_c, 7, 78, 64
12, 23978, Note_off_c, 7, 74, 64
12, 24048, Note_on_c, 7, 74, 81
12, 24048, Note_on_c, 7, 78, 81
12, 24072, Note_on_c, 7, 74, 81
12, 24072, Note_on_c, 7, 78, 81
12, 24074, Note_off_c, 7, 74, 64
12, 24074, Note_off_c, 7, 78, 64
12, 24098, Note_off_c, 7, 78, 64
12, 24098, Note_off_c, 7, 74, 64
12, 24120, Note_on_c, 7, 74, 81
12, 24120, Note_on_c, 7, 78, 81
12, 24144, Note_on_c, 7, 74, 81
12, 24144, Note_on_c, 7, 78, 81
12, 24146, Note_off_c, 7, 74, 64
12, 24146, Note_off_c, 7, 78, 64
12, 24170, Note_off_c, 7, 74, 64
12, 24170, Note_off_c, 7, 78, 64
12, 24240, Note_on_c, 7, 74, 81
12, 24240, Note_on_c, 7, 78, 81
12, 24264, Note_on_c, 7, 74, 81
12, 24264, Note_on_c, 7, 78, 81
12, 24266, Note_off_c, 7, 74, 64
12, 24266, Note_off_c, 7, 78, 64
12, 24290, Note_off_c, 7, 78, 64
12, 24290, Note_off_c, 7, 74, 64
12, 24336, Note_on_c, 7, 74, 81
12, 24336, Note_on_c, 7, 78, 81
12, 24362, Note_off_c, 7, 74, 64
12, 24362, Note_off_c, 7, 78, 64
12, 24384, Note_on_c, 7, 74, 81
12, 24384, Note_on_c, 7, 78, 81
12, 24410, Note_off_c, 7, 74, 64
12, 24410, Note_off_c, 7, 78, 64
12, 24432, Note_on_c, 7, 74, 81
12, 24432, Note_on_c, 7, 78, 81
12, 24456, Note_on_c, 7, 74, 81
12, 24456, Note_on_c, 7, 78, 81
12, 24458, Note_off_c, 7, 74, 64
12, 24458, Note_off_c, 7, 78, 64
12, 24482, Note_off_c, 7, 78, 64
12, 24482, Note_off_c, 7, 74, 64
12, 24528, Note_on_c, 7, 74, 81
12, 24528, Note_on_c, 7, 78, 81
12, 24554, Note_off_c, 7, 74, 64
12, 24554, Note_off_c, 7, 78, 64
12, 24624, Note_on_c, 7, 74, 81
12, 24624, Note_on_c, 7, 78, 81
12, 24648, Note_on_c, 7, 74, 81
12, 24648, Note_on_c, 7, 78, 81
12, 24650, Note_off_c, 7, 74, 64
12, 24650, Note_off_c, 7, 78, 64
12, 24674, Note_off_c, 7, 78, 64
12, 24674, Note_off_c, 7, 74, 64
12, 24720, Note_on_c, 7, 78, 81
12, 24720, Note_on_c, 7, 74, 81
12, 24746, Note_off_c, 7, 78, 64
12, 24746, Note_off_c, 7, 74, 64
12, 24816, Note_on_c, 7, 74, 81
12, 24816, Note_on_c, 7, 78, 81
12, 24840, Note_on_c, 7, 74, 81
12, 24840, Note_on_c, 7, 78, 81
12, 24842, Note_off_c, 7, 74, 64
12, 24842, Note_off_c, 7, 78, 64
12, 24866, Note_off_c, 7, 78, 64
12, 24866, Note_off_c, 7, 74, 64
12, 24888, Note_on_c, 7, 74, 81
12, 24888, Note_on_c, 7, 78, 81
12, 24914, Note_off_c, 7, 74, 64
12, 24914, Note_off_c, 7, 78, 64
12, 25008, Note_on_c, 7, 76, 81
12, 25008, Note_on_c, 7, 80, 81
12, 25032, Note_on_c, 7, 80, 81
12, 25032, Note_on_c, 7, 76, 81
12, 25034, Note_off_c, 7, 76, 64
12, 25034, Note_off_c, 7, 80, 64
12, 25058, Note_off_c, 7, 76, 64
12, 25058, Note_off_c, 7, 80, 64
12, 25104, Note_on_c, 7, 76, 81
12, 25104, Note_on_c, 7, 80, 81
12, 25130, Note_off_c, 7, 76, 64
12, 25130, Note_off_c, 7, 80, 64
12, 25152, Note_on_c, 7, 76, 81
12, 25152, Note_on_c, 7, 80, 81
12, 25178, Note_off_c, 7, 76, 64
12, 25178, Note_off_c, 7, 80, 64
12, 25200, Note_on_c, 7, 76, 81
12, 25200, Note_on_c, 7, 80, 81
12, 25224, Note_on_c, 7, 76, 81
12, 25224, Note_on_c, 7, 80, 81
12, 25226, Note_off_c, 7, 76, 64
12, 25226, Note_off_c, 7, 80, 64
12, 25250, Note_off_c, 7, 80, 64
12, 25250, Note_off_c, 7, 76, 64
12, 25296, Note_on_c, 7, 76, 81
12, 25296, Note_on_c, 7, 80, 81
12, 25320, Note_on_c, 7, 76, 81
12, 25320, Note_on_c, 7, 80, 81
12, 25322, Note_off_c, 7, 76, 64
12, 25322, Note_off_c, 7, 80, 64
12, 25344, Note_off_c, 7, 80, 64
12, 25344, Note_off_c, 7, 76, 64
12, 25416, Note_on_c, 7, 73, 81
12, 25416, Note_on_c, 7, 76, 81
12, 25436, Note_off_c, 7, 73, 64
12, 25436, Note_off_c, 7, 76, 64
12, 25488, Note_on_c, 7, 73, 81
12, 25488, Note_on_c, 7, 76, 81
12, 25508, Note_off_c, 7, 76, 64
12, 25508, Note_off_c, 7, 73, 64
12, 25512, Note_on_c, 7, 73, 81
12, 25512, Note_on_c, 7, 76, 81
12, 25532, Note_off_c, 7, 73, 64
12, 25532, Note_off_c, 7, 76, 64
12, 25608, Note_on_c, 7, 73, 81
12, 25608, Note_on_c, 7, 76, 81
12, 25628, Note_off_c, 7, 73, 64
12, 25628, Note_off_c, 7, 76, 64
12, 25704, Note_on_c, 7, 73, 81
12, 25704, Note_on_c, 7, 76, 81
12, 25724, Note_off_c, 7, 73, 64
12, 25724, Note_off_c, 7, 76, 64
12, 25800, Note_on_c, 7, 73, 81
12, 25800, Note_on_c, 7, 76, 81
12, 25820, Note_off_c, 7, 73, 64
12, 25820, Note_off_c, 7, 76, 64
12, 25896, Note_on_c, 7, 71, 81
12, 25896, Note_on_c, 7, 76, 81
12, 25916, Note_off_c, 7, 71, 64
12, 25916, Note_off_c, 7, 76, 64
12, 25992, Note_on_c, 7, 71, 81
12, 25992, Note_on_c, 7, 76, 81
12, 26012, Note_off_c, 7, 71, 64
12, 26012, Note_off_c, 7, 76, 64
12, 26088, Note_on_c, 7, 76, 81
12, 26088, Note_on_c, 7, 71, 81
12, 26108, Note_off_c, 7, 76, 64
12, 26108, Note_off_c, 7, 71, 64
12, 26184, Note_on_c, 7, 71, 81
12, 26184, Note_on_c, 7, 74, 81
12, 26204, Note_off_c, 7, 71, 64
12, 26204, Note_off_c, 7, 74, 64
12, 26280, Note_on_c, 7, 71, 81
12, 26280, Note_on_c, 7, 74, 81
12, 26300, Note_off_c, 7, 71, 64
12, 26300, Note_off_c, 7, 74, 64
12, 26376, Note_on_c, 7, 71, 81
12, 26376, Note_on_c, 7, 76, 81
12, 26396, Note_off_c, 7, 71, 64
12, 26396, Note_off_c, 7, 76, 64
12, 26472, Note_on_c, 7, 71, 81
12, 26472, Note_on_c, 7, 74, 81
12, 26492, Note_off_c, 7, 71, 64
12, 26492, Note_off_c, 7, 74, 64
12, 26568, Note_on_c, 7, 71, 81
12, 26568, Note_on_c, 7, 74, 81
12, 26588, Note_off_c, 7, 71, 64
12, 26588, Note_off_c, 7, 74, 64
12, 26664, Note_on_c, 7, 71, 81
12, 26664, Note_on_c, 7, 74, 81
12, 26684, Note_off_c, 7, 71, 64
12, 26684, Note_off_c, 7, 74, 64
12, 26760, Note_on_c, 7, 71, 81
12, 26760, Note_on_c, 7, 76, 81
12, 26780, Note_off_c, 7, 71, 64
12, 26780, Note_off_c, 7, 76, 64
12, 26856, Note_on_c, 7, 71, 81
12, 26856, Note_on_c, 7, 74, 81
12, 26876, Note_off_c, 7, 71, 64
12, 26876, Note_off_c, 7, 74, 64
12, 26880, Note_on_c, 7, 74, 81
12, 26880, Note_on_c, 7, 78, 81
12, 26900, Note_off_c, 7, 74, 64
12, 26900, Note_off_c, 7, 78, 64
12, 26928, Note_on_c, 7, 74, 81
12, 26928, Note_on_c, 7, 78, 81
12, 26948, Note_off_c, 7, 74, 64
12, 26948, Note_off_c, 7, 78, 64
12, 26952, Note_on_c, 7, 78, 81
12, 26952, Note_on_c, 7, 74, 81
12, 26972, Note_off_c, 7, 78, 64
12, 26972, Note_off_c, 7, 74, 64
12, 27000, Note_on_c, 7, 74, 81
12, 27000, Note_on_c, 7, 78, 81
12, 27020, Note_off_c, 7, 74, 64
12, 27020, Note_off_c, 7, 78, 64
12, 27024, Note_on_c, 7, 74, 81
12, 27024, Note_on_c, 7, 78, 81
12, 27044, Note_off_c, 7, 74, 64
12, 27044, Note_off_c, 7, 78, 64
12, 27072, Note_on_c, 7, 74, 81
12, 27072, Note_on_c, 7, 79, 81
12, 27092, Note_off_c, 7, 74, 64
12, 27092, Note_off_c, 7, 79, 64
12, 27120, Note_on_c, 7, 74, 81
12, 27120, Note_on_c, 7, 79, 81
12, 27140, Note_off_c, 7, 74, 64
12, 27140, Note_off_c, 7, 79, 64
12, 27144, Note_on_c, 7, 79, 81
12, 27144, Note_on_c, 7, 74, 81
12, 27164, Note_off_c, 7, 79, 64
12, 27164, Note_off_c, 7, 74, 64
12, 27192, Note_on_c, 7, 74, 81
12, 27192, Note_on_c, 7, 79, 81
12, 27212, Note_off_c, 7, 74, 64
12, 27212, Note_off_c, 7, 79, 64
12, 27216, Note_on_c, 7, 74, 81
12, 27216, Note_on_c, 7, 79, 81
12, 27236, Note_off_c, 7, 74, 64
12, 27236, Note_off_c, 7, 79, 64
12, 27264, Note_on_c, 7, 78, 81
12, 27264, Note_on_c, 7, 81, 81
12, 27284, Note_off_c, 7, 78, 64
12, 27284, Note_off_c, 7, 81, 64
12, 27312, Note_on_c, 7, 78, 81
12, 27312, Note_on_c, 7, 81, 81
12, 27332, Note_off_c, 7, 78, 64
12, 27332, Note_off_c, 7, 81, 64
12, 27336, Note_on_c, 7, 78, 81
12, 27336, Note_on_c, 7, 81, 81
12, 27356, Note_off_c, 7, 78, 64
12, 27356, Note_off_c, 7, 81, 64
12, 27384, Note_on_c, 7, 78, 81
12, 27384, Note_on_c, 7, 81, 81
12, 27404, Note_off_c, 7, 78, 64
12, 27404, Note_off_c, 7, 81, 64
12, 27408, Note_on_c, 7, 81, 81
12, 27408, Note_on_c, 7, 78, 81
12, 27428, Note_off_c, 7, 81, 64
12, 27428, Note_off_c, 7, 78, 64
12, 27456, Note_on_c, 7, 74, 81
12, 27456, Note_on_c, 7, 79, 81
12, 27476, Note_off_c, 7, 74, 64
12, 27476, Note_off_c, 7, 79, 64
12, 27504, Note_on_c, 7, 74, 81
12, 27504, Note_on_c, 7, 79, 81
12, 27524, Note_off_c, 7, 74, 64
12, 27524, Note_off_c, 7, 79, 64
12, 27528, Note_on_c, 7, 74, 81
12, 27528, Note_on_c, 7, 79, 81
12, 27548, Note_off_c, 7, 74, 64
12, 27548, Note_off_c, 7, 79, 64
12, 27576, Note_on_c, 7, 74, 81
12, 27576, Note_on_c, 7, 79, 81
12, 27596, Note_off_c, 7, 74, 64
12, 27596, Note_off_c, 7, 79, 64
12, 27600, Note_on_c, 7, 79, 81
12, 27600, Note_on_c, 7, 74, 81
12, 27620, Note_off_c, 7, 79, 64
12, 27620, Note_off_c, 7, 74, 64
12, 27720, Note_on_c, 7, 73, 81
12, 27720, Note_on_c, 7, 76, 81
12, 27740, Note_off_c, 7, 73, 64
12, 27740, Note_off_c, 7, 76, 64
12, 27792, Note_on_c, 7, 73, 81
12, 27792, Note_on_c, 7, 76, 81
12, 27812, Note_off_c, 7, 73, 64
12, 27812, Note_off_c, 7, 76, 64
12, 27816, Note_on_c, 7, 73, 81
12, 27816, Note_on_c, 7, 76, 81
12, 27836, Note_off_c, 7, 73, 64
12, 27836, Note_off_c, 7, 76, 64
12, 27912, Note_on_c, 7, 73, 81
12, 27912, Note_on_c, 7, 76, 81
12, 27932, Note_off_c, 7, 73, 64
12, 27932, Note_off_c, 7, 76, 64
12, 28008, Note_on_c, 7, 76, 81
12, 28008, Note_on_c, 7, 73, 81
12, 28028, Note_off_c, 7, 76, 64
12, 28028, Note_off_c, 7, 73, 64
12, 28104, Note_on_c, 7, 73, 81
12, 28104, Note_on_c, 7, 76, 81
12, 28124, Note_off_c, 7, 73, 64
12, 28124, Note_off_c, 7, 76, 64
12, 28200, Note_on_c, 7, 71, 81
12, 28200, Note_on_c, 7, 74, 81
12, 28220, Note_off_c, 7, 71, 64
12, 28220, Note_off_c, 7, 74, 64
12, 28296, Note_on_c, 7, 71, 81
12, 28296, Note_on_c, 7, 74, 81
12, 28316, Note_off_c, 7, 71, 64
12, 28316, Note_off_c, 7, 74, 64
12, 28392, Note_on_c, 7, 73, 81
12, 28392, Note_on_c, 7, 76, 81
12, 28412, Note_off_c, 7, 73, 64
12, 28412, Note_off_c, 7, 76, 64
12, 29171, Control_c, 7, 101, 0
12, 29171, Control_c, 7, 100, 0
12, 29171, Control_c, 7, 6, 12
12, 29171, Control_c, 7, 0, 3
12, 29171, Control_c, 7, 32, 4
12, 29171, Control_c, 7, 10, 57
12, 29171, Control_c, 7, 7, 79
12, 29171, Pitch_bend_c, 7, 8192
12, 29171, Program_c, 7, 38
12, 29171, Control_c, 7, 101, 0
12, 29171, Control_c, 7, 100, 0
12, 29171, Control_c, 7, 6, 12
12, 29171, Control_c, 7, 0, 3
12, 29171, Control_c, 7, 32, 4
12, 29171, Control_c, 7, 10, 57
12, 29171, Control_c, 7, 7, 79
12, 29171, Pitch_bend_c, 7, 8192
12, 29171, Program_c, 7, 38
12, 29171, Control_c, 7, 101, 0
12, 29171, Control_c, 7, 100, 0
12, 29171, Control_c, 7, 6, 12
12, 29171, Control_c, 7, 0, 3
12, 29171, Control_c, 7, 32, 4
12, 29171, Control_c, 7, 10, 57
12, 29171, Control_c, 7, 7, 79
12, 29171, Pitch_bend_c, 7, 8192
12, 29171, Program_c, 7, 38
12, 29171, End_track
13, 0, Start_track
13, 0, Title_t, "MIDI Out"
13, 0, Control_c, 10, 10, 64
13, 0, Control_c, 10, 7, 114
13, 0, Pitch_bend_c, 10, 8192
13, 0, Control_c, 10, 101, 0
13, 0, Control_c, 10, 100, 0
13, 0, Control_c, 10, 6, 12
13, 0, Control_c, 10, 0, 0
13, 0, Control_c, 10, 32, 4
13, 0, Control_c, 10, 10, 64
13, 0, Control_c, 10, 7, 114
13, 0, Pitch_bend_c, 10, 8192
13, 0, Program_c, 10, 5
13, 0, Control_c, 10, 101, 0
13, 0, Control_c, 10, 100, 0
13, 0, Control_c, 10, 6, 12
13, 0, Control_c, 10, 0, 0
13, 0, Control_c, 10, 32, 4
13, 0, Control_c, 10, 10, 64
13, 0, Control_c, 10, 7, 114
13, 0, Pitch_bend_c, 10, 8192
13, 0, Program_c, 10, 5
13, 8424, Note_on_c, 10, 59, 81
13, 8424, Note_on_c, 10, 64, 81
13, 8448, Note_on_c, 10, 66, 81
13, 8448, Note_on_c, 10, 62, 81
13, 8450, Note_off_c, 10, 64, 64
13, 8450, Note_off_c, 10, 59, 64
13, 8474, Note_off_c, 10, 62, 64
13, 8474, Note_off_c, 10, 66, 64
13, 8496, Note_on_c, 10, 66, 81
13, 8496, Note_on_c, 10, 62, 81
13, 8520, Note_on_c, 10, 66, 81
13, 8520, Note_on_c, 10, 62, 81
13, 8522, Note_off_c, 10, 66, 64
13, 8522, Note_off_c, 10, 62, 64
13, 8546, Note_off_c, 10, 62, 64
13, 8546, Note_off_c, 10, 66, 64
13, 8568, Note_on_c, 10, 62, 81
13, 8568, Note_on_c, 10, 66, 81
13, 8592, Note_on_c, 10, 66, 81
13, 8592, Note_on_c, 10, 62, 81
13, 8594, Note_off_c, 10, 66, 64
13, 8594, Note_off_c, 10, 62, 64
13, 8618, Note_off_c, 10, 66, 64
13, 8618, Note_off_c, 10, 62, 64
13, 8640, Note_on_c, 10, 67, 81
13, 8640, Note_on_c, 10, 62, 81
13, 8666, Note_off_c, 10, 67, 64
13, 8666, Note_off_c, 10, 62, 64
13, 8688, Note_on_c, 10, 67, 81
13, 8688, Note_on_c, 10, 62, 81
13, 8712, Note_on_c, 10, 67, 81
13, 8712, Note_on_c, 10, 62, 81
13, 8714, Note_off_c, 10, 67, 64
13, 8714, Note_off_c, 10, 62, 64
13, 8738, Note_off_c, 10, 62, 64
13, 8738, Note_off_c, 10, 67, 64
13, 8760, Note_on_c, 10, 67, 81
13, 8760, Note_on_c, 10, 62, 81
13, 8784, Note_on_c, 10, 67, 81
13, 8784, Note_on_c, 10, 62, 81
13, 8786, Note_off_c, 10, 62, 64
13, 8786, Note_off_c, 10, 67, 64
13, 8810, Note_off_c, 10, 67, 64
13, 8810, Note_off_c, 10, 62, 64
13, 8832, Note_on_c, 10, 66, 81
13, 8832, Note_on_c, 10, 69, 81
13, 8858, Note_off_c, 10, 66, 64
13, 8858, Note_off_c, 10, 69, 64
13, 8880, Note_on_c, 10, 66, 81
13, 8880, Note_on_c, 10, 69, 81
13, 8904, Note_on_c, 10, 66, 81
13, 8904, Note_on_c, 10, 69, 81
13, 8906, Note_off_c, 10, 66, 64
13, 8906, Note_off_c, 10, 69, 64
13, 8930, Note_off_c, 10, 69, 64
13, 8930, Note_off_c, 10, 66, 64
13, 8952, Note_on_c, 10, 69, 81
13, 8952, Note_on_c, 10, 66, 81
13, 8976, Note_on_c, 10, 69, 81
13, 8976, Note_on_c, 10, 66, 81
13, 8978, Note_off_c, 10, 66, 64
13, 8978, Note_off_c, 10, 69, 64
13, 9002, Note_off_c, 10, 66, 64
13, 9002, Note_off_c, 10, 69, 64
13, 9024, Note_on_c, 10, 66, 81
13, 9024, Note_on_c, 10, 62, 81
13, 9050, Note_off_c, 10, 66, 64
13, 9050, Note_off_c, 10, 62, 64
13, 9072, Note_on_c, 10, 66, 81
13, 9072, Note_on_c, 10, 62, 81
13, 9096, Note_on_c, 10, 66, 81
13, 9096, Note_on_c, 10, 62, 81
13, 9098, Note_off_c, 10, 66, 64
13, 9098, Note_off_c, 10, 62, 64
13, 9122, Note_off_c, 10, 62, 64
13, 9122, Note_off_c, 10, 66, 64
13, 9144, Note_on_c, 10, 66, 81
13, 9144, Note_on_c, 10, 62, 81
13, 9168, Note_on_c, 10, 62, 81
13, 9168, Note_on_c, 10, 66, 81
13, 9170, Note_off_c, 10, 62, 64
13, 9170, Note_off_c, 10, 66, 64
13, 9194, Note_off_c, 10, 66, 64
13, 9194, Note_off_c, 10, 62, 64
13, 11496, Note_on_c, 10, 59, 81
13, 11496, Note_on_c, 10, 64, 81
13, 11520, Note_on_c, 10, 66, 81
13, 11520, Note_on_c, 10, 62, 81
13, 11522, Note_off_c, 10, 64, 64
13, 11522, Note_off_c, 10, 59, 64
13, 11546, Note_off_c, 10, 62, 64
13, 11546, Note_off_c, 10, 66, 64
13, 11568, Note_on_c, 10, 66, 81
13, 11568, Note_on_c, 10, 62, 81
13, 11592, Note_on_c, 10, 66, 81
13, 11592, Note_on_c, 10, 62, 81
13, 11594, Note_off_c, 10, 66, 64
13, 11594, Note_off_c, 10, 62, 64
13, 11618, Note_off_c, 10, 62, 64
13, 11618, Note_off_c, 10, 66, 64
13, 11640, Note_on_c, 10, 62, 81
13, 11640, Note_on_c, 10, 66, 81
13, 11664, Note_on_c, 10, 66, 81
13, 11664, Note_on_c, 10, 62, 81
13, 11666, Note_off_c, 10, 66, 64
13, 11666, Note_off_c, 10, 62, 64
13, 11690, Note_off_c, 10, 66, 64
13, 11690, Note_off_c, 10, 62, 64
13, 11712, Note_on_c, 10, 67, 81
13, 11712, Note_on_c, 10, 62, 81
13, 11738, Note_off_c, 10, 62, 64
13, 11738, Note_off_c, 10, 67, 64
13, 11760, Note_on_c, 10, 67, 81
13, 11760, Note_on_c, 10, 62, 81
13, 11784, Note_on_c, 10, 67, 81
13, 11784, Note_on_c, 10, 62, 81
13, 11786, Note_off_c, 10, 67, 64
13, 11786, Note_off_c, 10, 62, 64
13, 11810, Note_off_c, 10, 62, 64
13, 11810, Note_off_c, 10, 67, 64
13, 11832, Note_on_c, 10, 67, 81
13, 11832, Note_on_c, 10, 62, 81
13, 11856, Note_on_c, 10, 67, 81
13, 11856, Note_on_c, 10, 62, 81
13, 11858, Note_off_c, 10, 62, 64
13, 11858, Note_off_c, 10, 67, 64
13, 11882, Note_off_c, 10, 67, 64
13, 11882, Note_off_c, 10, 62, 64
13, 11904, Note_on_c, 10, 66, 81
13, 11904, Note_on_c, 10, 69, 81
13, 11930, Note_off_c, 10, 66, 64
13, 11930, Note_off_c, 10, 69, 64
13, 11952, Note_on_c, 10, 66, 81
13, 11952, Note_on_c, 10, 69, 81
13, 11976, Note_on_c, 10, 66, 81
13, 11976, Note_on_c, 10, 69, 81
13, 11978, Note_off_c, 10, 66, 64
13, 11978, Note_off_c, 10, 69, 64
13, 12002, Note_off_c, 10, 69, 64
13, 12002, Note_off_c, 10, 66, 64
13, 12024, Note_on_c, 10, 69, 81
13, 12024, Note_on_c, 10, 66, 81
13, 12048, Note_on_c, 10, 69, 81
13, 12048, Note_on_c, 10, 66, 81
13, 12050, Note_off_c, 10, 66, 64
13, 12050, Note_off_c, 10, 69, 64
13, 12074, Note_off_c, 10, 66, 64
13, 12074, Note_off_c, 10, 69, 64
13, 12096, Note_on_c, 10, 66, 81
13, 12096, Note_on_c, 10, 62, 81
13, 12122, Note_off_c, 10, 66, 64
13, 12122, Note_off_c, 10, 62, 64
13, 12144, Note_on_c, 10, 66, 81
13, 12144, Note_on_c, 10, 62, 81
13, 12168, Note_on_c, 10, 66, 81
13, 12168, Note_on_c, 10, 62, 81
13, 12170, Note_off_c, 10, 66, 64
13, 12170, Note_off_c, 10, 62, 64
13, 12194, Note_off_c, 10, 62, 64
13, 12194, Note_off_c, 10, 66, 64
13, 12216, Note_on_c, 10, 66, 81
13, 12216, Note_on_c, 10, 62, 81
13, 12240, Note_on_c, 10, 62, 81
13, 12240, Note_on_c, 10, 66, 81
13, 12242, Note_off_c, 10, 62, 64
13, 12242, Note_off_c, 10, 66, 64
13, 12266, Note_off_c, 10, 66, 64
13, 12266, Note_off_c, 10, 62, 64
13, 20712, Note_on_c, 10, 59, 81
13, 20712, Note_on_c, 10, 64, 81
13, 20736, Note_on_c, 10, 66, 81
13, 20736, Note_on_c, 10, 62, 81
13, 20738, Note_off_c, 10, 64, 64
13, 20738, Note_off_c, 10, 59, 64
13, 20762, Note_off_c, 10, 62, 64
13, 20762, Note_off_c, 10, 66, 64
13, 20784, Note_on_c, 10, 66, 81
13, 20784, Note_on_c, 10, 62, 81
13, 20808, Note_on_c, 10, 66, 81
13, 20808, Note_on_c, 10, 62, 81
13, 20810, Note_off_c, 10, 66, 64
13, 20810, Note_off_c, 10, 62, 64
13, 20834, Note_off_c, 10, 62, 64
13, 20834, Note_off_c, 10, 66, 64
13, 20856, Note_on_c, 10, 62, 81
13, 20856, Note_on_c, 10, 66, 81
13, 20880, Note_on_c, 10, 66, 81
13, 20880, Note_on_c, 10, 62, 81
13, 20882, Note_off_c, 10, 66, 64
13, 20882, Note_off_c, 10, 62, 64
13, 20906, Note_off_c, 10, 66, 64
13, 20906, Note_off_c, 10, 62, 64
13, 20928, Note_on_c, 10, 67, 81
13, 20928, Note_on_c, 10, 62, 81
13, 20954, Note_off_c, 10, 67, 64
13, 20954, Note_off_c, 10, 62, 64
13, 20976, Note_on_c, 10, 67, 81
13, 20976, Note_on_c, 10, 62, 81
13, 21000, Note_on_c, 10, 67, 81
13, 21000, Note_on_c, 10, 62, 81
13, 21002, Note_off_c, 10, 67, 64
13, 21002, Note_off_c, 10, 62, 64
13, 21026, Note_off_c, 10, 62, 64
13, 21026, Note_off_c, 10, 67, 64
13, 21048, Note_on_c, 10, 67, 81
13, 21048, Note_on_c, 10, 62, 81
13, 21072, Note_on_c, 10, 67, 81
13, 21072, Note_on_c, 10, 62, 81
13, 21074, Note_off_c, 10, 62, 64
13, 21074, Note_off_c, 10, 67, 64
13, 21098, Note_off_c, 10, 67, 64
13, 21098, Note_off_c, 10, 62, 64
13, 21120, Note_on_c, 10, 66, 81
13, 21120, Note_on_c, 10, 69, 81
13, 21146, Note_off_c, 10, 66, 64
13, 21146, Note_off_c, 10, 69, 64
13, 21168, Note_on_c, 10, 66, 81
13, 21168, Note_on_c, 10, 69, 81
13, 21192, Note_on_c, 10, 66, 81
13, 21192, Note_on_c, 10, 69, 81
13, 21194, Note_off_c, 10, 66, 64
13, 21194, Note_off_c, 10, 69, 64
13, 21218, Note_off_c, 10, 69, 64
13, 21218, Note_off_c, 10, 66, 64
13, 21240, Note_on_c, 10, 69, 81
13, 21240, Note_on_c, 10, 66, 81
13, 21264, Note_on_c, 10, 69, 81
13, 21264, Note_on_c, 10, 66, 81
13, 21266, Note_off_c, 10, 66, 64
13, 21266, Note_off_c, 10, 69, 64
13, 21290, Note_off_c, 10, 66, 64
13, 21290, Note_off_c, 10, 69, 64
13, 21312, Note_on_c, 10, 66, 81
13, 21312, Note_on_c, 10, 62, 81
13, 21338, Note_off_c, 10, 66, 64
13, 21338, Note_off_c, 10, 62, 64
13, 21360, Note_on_c, 10, 66, 81
13, 21360, Note_on_c, 10, 62, 81
13, 21384, Note_on_c, 10, 66, 81
13, 21384, Note_on_c, 10, 62, 81
13, 21386, Note_off_c, 10, 66, 64
13, 21386, Note_off_c, 10, 62, 64
13, 21410, Note_off_c, 10, 62, 64
13, 21410, Note_off_c, 10, 66, 64
13, 21432, Note_on_c, 10, 66, 81
13, 21432, Note_on_c, 10, 62, 81
13, 21456, Note_on_c, 10, 62, 81
13, 21456, Note_on_c, 10, 66, 81
13, 21458, Note_off_c, 10, 62, 64
13, 21458, Note_off_c, 10, 66, 64
13, 21482, Note_off_c, 10, 66, 64
13, 21482, Note_off_c, 10, 62, 64
13, 26856, Note_on_c, 10, 59, 81
13, 26856, Note_on_c, 10, 64, 81
13, 26880, Note_on_c, 10, 66, 81
13, 26880, Note_on_c, 10, 62, 81
13, 26882, Note_off_c, 10, 64, 64
13, 26882, Note_off_c, 10, 59, 64
13, 26906, Note_off_c, 10, 62, 64
13, 26906, Note_off_c, 10, 66, 64
13, 26928, Note_on_c, 10, 66, 81
13, 26928, Note_on_c, 10, 62, 81
13, 26952, Note_on_c, 10, 66, 81
13, 26952, Note_on_c, 10, 62, 81
13, 26954, Note_off_c, 10, 66, 64
13, 26954, Note_off_c, 10, 62, 64
13, 26978, Note_off_c, 10, 62, 64
13, 26978, Note_off_c, 10, 66, 64
13, 27000, Note_on_c, 10, 62, 81
13, 27000, Note_on_c, 10, 66, 81
13, 27024, Note_on_c, 10, 66, 81
13, 27024, Note_on_c, 10, 62, 81
13, 27026, Note_off_c, 10, 66, 64
13, 27026, Note_off_c, 10, 62, 64
13, 27050, Note_off_c, 10, 66, 64
13, 27050, Note_off_c, 10, 62, 64
13, 27072, Note_on_c, 10, 67, 81
13, 27072, Note_on_c, 10, 62, 81
13, 27098, Note_off_c, 10, 67, 64
13, 27098, Note_off_c, 10, 62, 64
13, 27120, Note_on_c, 10, 67, 81
13, 27120, Note_on_c, 10, 62, 81
13, 27144, Note_on_c, 10, 67, 81
13, 27144, Note_on_c, 10, 62, 81
13, 27146, Note_off_c, 10, 67, 64
13, 27146, Note_off_c, 10, 62, 64
13, 27170, Note_off_c, 10, 62, 64
13, 27170, Note_off_c, 10, 67, 64
13, 27192, Note_on_c, 10, 67, 81
13, 27192, Note_on_c, 10, 62, 81
13, 27216, Note_on_c, 10, 67, 81
13, 27216, Note_on_c, 10, 62, 81
13, 27218, Note_off_c, 10, 62, 64
13, 27218, Note_off_c, 10, 67, 64
13, 27242, Note_off_c, 10, 67, 64
13, 27242, Note_off_c, 10, 62, 64
13, 27264, Note_on_c, 10, 66, 81
13, 27264, Note_on_c, 10, 69, 81
13, 27290, Note_off_c, 10, 66, 64
13, 27290, Note_off_c, 10, 69, 64
13, 27312, Note_on_c, 10, 66, 81
13, 27312, Note_on_c, 10, 69, 81
13, 27336, Note_on_c, 10, 66, 81
13, 27336, Note_on_c, 10, 69, 81
13, 27338, Note_off_c, 10, 66, 64
13, 27338, Note_off_c, 10, 69, 64
13, 27362, Note_off_c, 10, 69, 64
13, 27362, Note_off_c, 10, 66, 64
13, 27384, Note_on_c, 10, 69, 81
13, 27384, Note_on_c, 10, 66, 81
13, 27408, Note_on_c, 10, 69, 81
13, 27408, Note_on_c, 10, 66, 81
13, 27410, Note_off_c, 10, 66, 64
13, 27410, Note_off_c, 10, 69, 64
13, 27434, Note_off_c, 10, 66, 64
13, 27434, Note_off_c, 10, 69, 64
13, 27456, Note_on_c, 10, 66, 81
13, 27456, Note_on_c, 10, 62, 81
13, 27482, Note_off_c, 10, 66, 64
13, 27482, Note_off_c, 10, 62, 64
13, 27504, Note_on_c, 10, 66, 81
13, 27504, Note_on_c, 10, 62, 81
13, 27528, Note_on_c, 10, 66, 81
13, 27528, Note_on_c, 10, 62, 81
13, 27530, Note_off_c, 10, 66, 64
13, 27530, Note_off_c, 10, 62, 64
13, 27554, Note_off_c, 10, 62, 64
13, 27554, Note_off_c, 10, 66, 64
13, 27576, Note_on_c, 10, 66, 81
13, 27576, Note_on_c, 10, 62, 81
13, 27600, Note_on_c, 10, 62, 81
13, 27600, Note_on_c, 10, 66, 81
13, 27602, Note_off_c, 10, 62, 64
13, 27602, Note_off_c, 10, 66, 64
13, 27626, Note_off_c, 10, 66, 64
13, 27626, Note_off_c, 10, 62, 64
13, 29171, Control_c, 10, 101, 0
13, 29171, Control_c, 10, 100, 0
13, 29171, Control_c, 10, 6, 12
13, 29171, Control_c, 10, 0, 0
13, 29171, Control_c, 10, 32, 4
13, 29171, Control_c, 10, 10, 64
13, 29171, Control_c, 10, 7, 114
13, 29171, Pitch_bend_c, 10, 8192
13, 29171, Program_c, 10, 5
13, 29171, Control_c, 10, 101, 0
13, 29171, Control_c, 10, 100, 0
13, 29171, Control_c, 10, 6, 12
13, 29171, Control_c, 10, 0, 0
13, 29171, Control_c, 10, 32, 4
13, 29171, Control_c, 10, 10, 64
13, 29171, Control_c, 10, 7, 114
13, 29171, Pitch_bend_c, 10, 8192
13, 29171, Program_c, 10, 5
13, 29171, Control_c, 10, 101, 0
13, 29171, Control_c, 10, 100, 0
13, 29171, Control_c, 10, 6, 12
13, 29171, Control_c, 10, 0, 0
13, 29171, Control_c, 10, 32, 4
13, 29171, Control_c, 10, 10, 64
13, 29171, Control_c, 10, 7, 114
13, 29171, Pitch_bend_c, 10, 8192
13, 29171, Program_c, 10, 5
13, 29171, End_track
0, 0, End_of_file
